<?xml version="1.0" encoding="UTF-8" standalone="no"?>
<!-- Created with Inkscape (http://www.inkscape.org/) -->
<svg xmlns:dc="http://purl.org/dc/elements/1.1/" xmlns:cc="http://creativecommons.org/ns#" xmlns:rdf="http://www.w3.org/1999/02/22-rdf-syntax-ns#" xmlns:svg="http://www.w3.org/2000/svg" xmlns="http://www.w3.org/2000/svg" version="1.1" viewBox="0 0 396.63992 479.04742" width="288" height="348" id="svg2">
  <defs id="defs4"/>
  <metadata id="metadata7">
    <rdf:RDF>
      <cc:Work rdf:about="">
        <dc:format>image/svg+xml</dc:format>
        <dc:type rdf:resource="http://purl.org/dc/dcmitype/StillImage"/>
        <dc:title/>
      </cc:Work>
    </rdf:RDF>
  </metadata>
  <g transform="translate(-147.99621,-228.625)" id="layer1">
    <path d="m 478.40625,238.625 c -2.56418,0 -4.65625,2.06082 -4.65625,4.625 0,2.56418 2.09207,4.65625 4.65625,4.65625 2.56418,0 4.625,-2.09207 4.625,-4.65625 0,-2.56418 -2.06082,-4.625 -4.625,-4.625 z m -3.9375,7.4375 -129.65625,133.25 c -11.3204,-2.95422 -23.06766,-3.10594 -36.0625,4.65625 L 224.625,288.25 c 0.568,-0.64807 0.90625,-1.50186 0.90625,-2.4375 0,-2.04641 -1.64109,-3.71875 -3.6875,-3.71875 -2.04641,0 -3.71875,1.67234 -3.71875,3.71875 0,2.04641 1.67234,3.6875 3.71875,3.6875 0.65202,0 1.25149,-0.17552 1.78125,-0.46875 l -0.125,0.0937 78.03125,99.3125 c -6.31155,6.03604 -11.65804,12.59332 -13.625,20.96875 -35.89083,12.46213 -71.5974,24.6297 -114.90625,48.2188 -25.43048,66.03837 -15.34345,126.41046 6.5625,184.875 66.97823,59.52732 236.93465,68.04962 313.65625,39.125 52.14814,-95.98624 56.23009,-188.4133 5.53125,-276.78125 -42.55094,-7.6436 -83.76013,-18.62557 -133.59375,-8.0625 -1.64151,-4.57936 -5.04436,-8.4463 -8.3125,-12.375 l 118.625,-137.25 -1,-1.09375 z m -115.1875,177.75 c 28.33068,-0.0999 54.10942,4.43341 78.875,10.84375 37.15216,62.56205 37.90365,137.55533 -3.03125,226.78125 -110.76622,12.24264 -194.74771,2.29033 -238.90625,-40.65625 -17.86917,-52.21805 -19.41602,-100.36888 -6.8125,-144.96875 68.36879,-38.78994 122.6572,-51.83359 169.875,-52 z" id="path3086" style="fill:#f04f23;fill-opacity:1;stroke:none"/>
    <path d="m 208.21875,498.28125 -9.96875,54.0625 10.09375,0 L 210.5,545 l 10.59375,-0.25 1.53125,7.09375 10.09375,-0.125 -9.84375,-53.4375 -14.65625,0 z m 7.0625,18.1875 3.40625,17.4375 -6.3125,0 2.90625,-17.4375 z" id="path3088" style="fill:#f04f23;fill-opacity:1;stroke:none"/>
    <path d="m 236.12316,505.23831 9.72272,0 10.22779,22.8547 0,-22.8547 9.72272,0 0,53.41182 -10.35406,0 -8.33376,-20.32932 0,20.45558 -10.85914,0 z" id="path3092" style="fill:#f04f23;fill-opacity:1;stroke:none"/>
    <path d="m 283.22152,559.91282 9.84899,0 0,-42.93149 12.12183,0 0,-10.73287 -33.96638,0 0,10.6066 11.61675,0 z" id="path3094" style="fill:#f04f23;fill-opacity:1;stroke:none"/>
    <path d="m 310.2431,506.24846 25.75889,0 0,10.73287 -14.89975,0 0,10.85914 14.77348,0 0,10.98541 -14.77348,0 0,10.10153 15.02602,0 0,10.85914 -25.75889,0 z" id="path3096" style="fill:#f04f23;fill-opacity:1;stroke:none"/>
    <path d="m 343.76754,505.49085 9.72272,0 10.22779,22.8547 0,-22.8547 9.72272,0 0,53.41182 -10.35406,0 -8.33376,-20.32932 0,20.45558 -10.85914,0 z" id="path3092-3" style="fill:#f04f23;fill-opacity:1;stroke:none"/>
    <path d="m 381.14318,505.49085 9.72272,0 10.22779,22.8547 0,-22.8547 9.72272,0 0,53.41182 -10.35406,0 -8.33376,-20.32932 0,20.45558 -10.85914,0 z" id="path3092-4" style="fill:#f04f23;fill-opacity:1;stroke:none"/>
    <path d="m 424.44832,498.15758 -9.96875,54.0625 10.09375,0 2.15625,-7.34375 10.59375,-0.25 1.53125,7.09375 10.09375,-0.125 -9.84375,-53.4375 -14.65625,0 z m 7.0625,18.1875 3.40625,17.4375 -6.3125,0 2.90625,-17.4375 z" id="path3088-6" style="fill:#f04f23;fill-opacity:1;stroke:none"/>
    <path d="m 300.96232,628.41379 9.84899,0 0,-42.93149 12.12183,0 0,-10.73287 -33.96638,0 0,10.6066 11.61675,0 z" id="path3094-0" style="fill:#f04f23;fill-opacity:1;stroke:none"/>
    <path d="m 333.0978,629.73961 15.78364,0 9.21764,-53.53808 -10.6066,0 -5.55584,35.60787 -1.13642,0 -7.44988,-35.48161 -10.10152,0 z" id="path3178" style="fill:#f04f23;fill-opacity:1;stroke:none"/>
  </g>
</svg>