<?xml version="1.0" encoding="UTF-8"?>
<!-- Generator: Adobe Illustrator 17.0.2, SVG Export Plug-In . SVG Version: 6.00 Build 0)  -->
<!DOCTYPE svg PUBLIC "-//W3C//DTD SVG 1.1//EN" "http://www.w3.org/Graphics/SVG/1.1/DTD/svg11.dtd">
<svg version="1.1" id="Layer_1" xmlns="http://www.w3.org/2000/svg" xmlns:xlink="http://www.w3.org/1999/xlink" x="0px" y="0px" width="873.692px" height="314.841px" viewBox="0 0 873.692 314.841" enable-background="new 0 0 873.692 314.841" xml:space="preserve">
<symbol id="New_Symbol" viewBox="-225.581 -81.29 451.161 162.579">
	<polygon fill="#EE4F25" points="-163.738,22.443 -225.581,-4.489 -162.746,-28.43 -162.746,-81.29 225.58,-81.29 225.58,81.289    -163.709,81.289  "/>
	<g>
		<path fill="#FFFFFF" d="M191.477,45.13l0.627,0.054c0.026-0.25,0.097-0.457,0.204-0.617c0.109-0.161,0.279-0.291,0.506-0.389    c0.227-0.099,0.484-0.149,0.767-0.149c0.253,0,0.478,0.037,0.67,0.113c0.194,0.075,0.338,0.178,0.435,0.309    c0.093,0.132,0.142,0.274,0.142,0.429c0,0.157-0.047,0.294-0.136,0.412c-0.093,0.117-0.243,0.216-0.451,0.296    c-0.136,0.052-0.435,0.134-0.892,0.244c-0.461,0.11-0.783,0.215-0.967,0.313c-0.241,0.124-0.421,0.28-0.534,0.466    c-0.119,0.186-0.176,0.393-0.176,0.623c0,0.253,0.069,0.49,0.212,0.71c0.148,0.219,0.354,0.387,0.631,0.5    c0.277,0.114,0.581,0.171,0.921,0.171c0.37,0,0.696-0.06,0.979-0.179c0.283-0.12,0.5-0.296,0.654-0.528    c0.154-0.232,0.233-0.495,0.247-0.79l-0.633-0.048c-0.036,0.317-0.154,0.557-0.35,0.717c-0.194,0.161-0.488,0.242-0.87,0.242    c-0.405,0-0.698-0.074-0.878-0.22c-0.182-0.148-0.275-0.324-0.275-0.532c0-0.18,0.067-0.327,0.196-0.445    c0.125-0.115,0.459-0.234,1-0.356c0.538-0.123,0.907-0.229,1.107-0.319c0.291-0.135,0.508-0.306,0.643-0.512    c0.142-0.205,0.211-0.444,0.211-0.711c0-0.267-0.077-0.519-0.229-0.754c-0.152-0.236-0.37-0.419-0.658-0.55    c-0.287-0.132-0.607-0.196-0.963-0.196c-0.453,0-0.834,0.066-1.141,0.197c-0.308,0.134-0.546,0.331-0.721,0.597    C191.58,44.493,191.487,44.794,191.477,45.13z"/>
		<path fill="#FFFFFF" d="M196.211,43.52v5.008h1l1.184-3.547c0.109-0.33,0.19-0.576,0.241-0.741    c0.057,0.183,0.144,0.45,0.267,0.804l1.196,3.484h0.895V43.52h-0.644v4.192l-1.455-4.192h-0.597l-1.447,4.264V43.52H196.211z"/>
	</g>
	<g opacity="0.2">
		<g>
			<path fill="#231F20" d="M-119.792,47.296h26.865c4.663,0,8.231-3.84,8.231-8.222v-79.623c0-4.386-3.702-8.081-8.231-8.081     h-26.865V47.296z M-97.036,34.959h-10.417v-71.256h10.417V34.959z"/>
			<path fill="#231F20" d="M-39.605-48.63h-31.785v95.926h30.831V34.959h-18.496V8.512h13.012V-3.817h-13.012v-32.48h19.45V-48.63z"/>
			<path fill="#231F20" d="M-6.783,18.516v16.443h-10.415v-71.256h10.415v16.582H5.55v-20.834c0-4.386-3.7-8.081-8.22-8.081h-18.643     c-4.38,0-8.221,3.695-8.221,8.081v79.623c0,4.382,3.84,8.222,8.221,8.222H-2.67c4.653,0,8.22-3.84,8.22-8.222V18.516H-6.783z"/>
			<path fill="#231F20" d="M42.839-29.859H29.128L27.213-48.63H14.878l10.143,95.926h21.928l9.866-95.926H44.751L42.839-29.859z      M30.5-17.522h10.967L35.98,34.959L30.5-17.522z"/>
			<path fill="#231F20" d="M66.145,47.296h26.854c4.665,0,8.225-3.84,8.225-8.222v-79.623c0-4.386-3.693-8.081-8.225-8.081H66.145     V47.296z M88.896,34.959H78.474v-71.256h10.422V34.959z"/>
			<path fill="#231F20" d="M147.418-48.63h-31.796v95.926h30.836V34.959h-18.503V8.512h13.025V-3.817h-13.025v-32.48h19.463V-48.63z     "/>
			<path fill="#231F20" d="M168.734-19.715v-16.582h10.417v30.964h-14.525c-4.798,0-8.227,3.98-8.227,8.088v36.319     c0,4.796,3.289,8.222,8.227,8.222h18.629c4.663,0,8.225-3.426,8.225-8.087V19.059h-12.329v15.9h-10.417V7.002h14.521     c4.663,0,8.225-3.834,8.225-8.22v-39.331c0-4.386-3.695-8.081-8.225-8.081h-18.629c-4.394,0-8.227,3.695-8.227,8.081v20.834     H168.734z"/>
		</g>
	</g>
	<g>
		<g>
			<path fill="#FFFFFF" d="M-122.006,49.749h26.865c4.663,0,8.231-3.84,8.231-8.222v-79.623c0-4.386-3.702-8.081-8.231-8.081     h-26.865V49.749z M-99.25,37.412h-10.417v-71.256h10.417V37.412z"/>
			<path fill="#FFFFFF" d="M-41.819-46.177h-31.785v95.926h30.831V37.412h-18.496V10.965h13.012V-1.364h-13.012v-32.48h19.45     V-46.177z"/>
			<path fill="#FFFFFF" d="M-8.997,20.969v16.443h-10.415v-71.256h10.415v16.582H3.336v-20.834c0-4.386-3.7-8.081-8.22-8.081     h-18.643c-4.38,0-8.221,3.695-8.221,8.081v79.623c0,4.382,3.84,8.222,8.221,8.222h18.643c4.653,0,8.22-3.84,8.22-8.222V20.969     H-8.997z"/>
			<path fill="#FFFFFF" d="M40.625-27.406H26.913l-1.915-18.771H12.664l10.143,95.926h21.928l9.866-95.926H42.537L40.625-27.406z      M28.285-15.069h10.967l-5.486,52.481L28.285-15.069z"/>
			<path fill="#FFFFFF" d="M63.93,49.749h26.854c4.665,0,8.225-3.84,8.225-8.222v-79.623c0-4.386-3.693-8.081-8.225-8.081H63.93     V49.749z M86.682,37.412H76.259v-71.256h10.422V37.412z"/>
			<path fill="#FFFFFF" d="M145.204-46.177h-31.796v95.926h30.836V37.412h-18.503V10.965h13.025V-1.364h-13.025v-32.48h19.463     V-46.177z"/>
			<path fill="#FFFFFF" d="M166.52-17.262v-16.582h10.417V-2.88h-14.525c-4.798,0-8.227,3.98-8.227,8.088v36.319     c0,4.796,3.289,8.222,8.227,8.222h18.629c4.663,0,8.225-3.426,8.225-8.087V21.512h-12.329v15.9H166.52V9.455h14.521     c4.663,0,8.225-3.834,8.225-8.22v-39.331c0-4.386-3.695-8.081-8.225-8.081h-18.629c-4.394,0-8.227,3.695-8.227,8.081v20.834     H166.52z"/>
		</g>
	</g>
</symbol>
<use xlink:href="#New_Symbol" width="451.161" height="162.579" x="-225.581" y="-81.29" transform="matrix(1.9365 0 0 -1.9365 436.8464 157.4199)" overflow="visible"/>
</svg>