<?xml version="1.0" encoding="UTF-8" standalone="no"?>
<!-- Created with Inkscape (http://www.inkscape.org/) -->

<svg
   xmlns:dc="http://purl.org/dc/elements/1.1/"
   xmlns:cc="http://creativecommons.org/ns#"
   xmlns:rdf="http://www.w3.org/1999/02/22-rdf-syntax-ns#"
   xmlns:svg="http://www.w3.org/2000/svg"
   xmlns="http://www.w3.org/2000/svg"
   xmlns:sodipodi="http://sodipodi.sourceforge.net/DTD/sodipodi-0.dtd"
   xmlns:inkscape="http://www.inkscape.org/namespaces/inkscape"
   width="271.92645mm"
   height="77.471428mm"
   viewBox="0 0 963.51893 274.50506"
   id="svg2"
   version="1.1"
   inkscape:version="0.91 r13725"
   sodipodi:docname="Freeform 2018.svg">
  <defs
     id="defs4" />
  <sodipodi:namedview
     id="base"
     pagecolor="#ffffff"
     bordercolor="#666666"
     borderopacity="1.0"
     inkscape:pageopacity="0.0"
     inkscape:pageshadow="2"
     inkscape:zoom="0.35"
     inkscape:cx="947.2675"
     inkscape:cy="371.12611"
     inkscape:document-units="px"
     inkscape:current-layer="layer1"
     showgrid="false"
     fit-margin-top="0"
     fit-margin-left="0"
     fit-margin-right="0"
     fit-margin-bottom="0"
     inkscape:window-width="1600"
     inkscape:window-height="837"
     inkscape:window-x="-8"
     inkscape:window-y="-8"
     inkscape:window-maximized="1" />
  <metadata
     id="metadata7">
    <rdf:RDF>
      <cc:Work
         rdf:about="">
        <dc:format>image/svg+xml</dc:format>
        <dc:type
           rdf:resource="http://purl.org/dc/dcmitype/StillImage" />
        <dc:title></dc:title>
      </cc:Work>
    </rdf:RDF>
  </metadata>
  <g
     inkscape:label="Layer 1"
     inkscape:groupmode="layer"
     id="layer1"
     transform="translate(-95.142853,-308.14285)">
    <ellipse
       style="opacity:1;fill:#0066ff;fill-opacity:1;fill-rule:nonzero;stroke:none;stroke-width:5.80000019;stroke-linecap:butt;stroke-linejoin:miter;stroke-miterlimit:4;stroke-dasharray:none;stroke-dashoffset:0;stroke-opacity:1"
       id="path3336"
       cx="228.96408"
       cy="445.39539"
       rx="133.82123"
       ry="137.25253" />
    <path
       style="font-style:normal;font-variant:normal;font-weight:normal;font-stretch:normal;font-size:medium;line-height:0%;font-family:'Futura LH Extra Bold';-inkscape-font-specification:'Futura LH Extra Bold, Normal';text-align:center;letter-spacing:0px;word-spacing:0px;writing-mode:lr-tb;text-anchor:middle;fill:#000000;fill-opacity:1;stroke:none;stroke-width:1px;stroke-linecap:butt;stroke-linejoin:miter;stroke-opacity:1"
       d="m 382.39004,404.5054 0,91.6412 32.90207,0 0,-32.15382 24.02155,0 0,-24.01919 -24.02155,0 0,-9.38249 27.27258,0 0,-26.0857 -60.17465,0 z"
       id="path3375"
       inkscape:connector-curvature="0" />
    <path
       style="font-style:normal;font-variant:normal;font-weight:normal;font-stretch:normal;font-size:medium;line-height:0%;font-family:'Futura LH Extra Bold';-inkscape-font-specification:'Futura LH Extra Bold, Normal';text-align:center;letter-spacing:0px;word-spacing:0px;writing-mode:lr-tb;text-anchor:middle;fill:#000000;fill-opacity:1;stroke:none;stroke-width:1px;stroke-linecap:butt;stroke-linejoin:miter;stroke-opacity:1"
       d="m 451.66103,404.5054 0,91.6412 32.33912,0 0,-30.52596 14.95101,30.52596 37.96862,0 -24.14586,-36.3431 c 2.54382,-0.70894 4.67267,-1.58455 6.38245,-2.6271 1.70978,-1.04257 3.33591,-2.5027 4.87889,-4.37929 1.54298,-1.91828 2.81314,-4.3575 3.81399,-7.31835 1.00084,-2.96084 1.5012,-6.21547 1.5012,-9.76014 0,-5.42127 -1.10416,-10.15297 -3.31437,-14.19807 -2.1685,-4.04509 -5.0046,-7.38154 -8.50757,-10.00877 -3.46128,-2.66893 -7.44245,-4.50433 -11.94628,-5.50519 -4.46211,-1.00084 -10.67558,-1.50119 -18.64067,-1.50119 l -35.28053,0 z m 32.15147,25.20842 2.37846,0 c 4.33701,0 7.27657,0.64707 8.81955,1.93983 1.54296,1.29278 2.31279,3.21234 2.31279,5.75617 0,3.08595 -1.20762,5.37845 -3.62634,6.87972 -1.25106,0.75064 -3.81536,1.1259 -7.69365,1.1259 l -2.19081,0 0,-15.70162 z"
       id="path3377"
       inkscape:connector-curvature="0" />
    <path
       style="font-style:normal;font-variant:normal;font-weight:normal;font-stretch:normal;font-size:medium;line-height:0%;font-family:'Futura LH Extra Bold';-inkscape-font-specification:'Futura LH Extra Bold, Normal';text-align:center;letter-spacing:0px;word-spacing:0px;writing-mode:lr-tb;text-anchor:middle;fill:#000000;fill-opacity:1;stroke:none;stroke-width:1px;stroke-linecap:butt;stroke-linejoin:miter;stroke-opacity:1"
       d="m 539.17158,404.5054 0,91.6412 61.55388,0 0,-24.89647 -28.90044,0 0,-9.50914 25.45941,0 0,-23.58057 -25.45941,0 0,-8.88288 27.83552,0 0,-24.77214 -60.48896,0 z"
       id="path3379"
       inkscape:connector-curvature="0" />
    <path
       style="font-style:normal;font-variant:normal;font-weight:normal;font-stretch:normal;font-size:medium;line-height:0%;font-family:'Futura LH Extra Bold';-inkscape-font-specification:'Futura LH Extra Bold, Normal';text-align:center;letter-spacing:0px;word-spacing:0px;writing-mode:lr-tb;text-anchor:middle;fill:#000000;fill-opacity:1;stroke:none;stroke-width:1px;stroke-linecap:butt;stroke-linejoin:miter;stroke-opacity:1"
       d="m 607.98048,404.5054 0,91.6412 61.55153,0 0,-24.89647 -28.8981,0 0,-9.50914 25.45941,0 0,-23.58057 -25.45941,0 0,-8.88288 27.83552,0 0,-24.77214 -60.48895,0 z"
       id="path3381"
       inkscape:connector-curvature="0" />
    <path
       style="font-style:normal;font-variant:normal;font-weight:normal;font-stretch:normal;font-size:medium;line-height:0%;font-family:'Futura LH Extra Bold';-inkscape-font-specification:'Futura LH Extra Bold, Normal';text-align:center;letter-spacing:0px;word-spacing:0px;writing-mode:lr-tb;text-anchor:middle;fill:#000000;fill-opacity:1;stroke:none;stroke-width:1px;stroke-linecap:butt;stroke-linejoin:miter;stroke-opacity:1"
       d="m 679.19129,404.5054 0,91.6412 32.90207,0 0,-32.15382 24.02155,0 0,-24.01919 -24.02155,0 0,-9.38249 27.27259,0 0,-26.0857 -60.17466,0 z"
       id="path3383"
       inkscape:connector-curvature="0" />
    <path
       style="font-style:normal;font-variant:normal;font-weight:normal;font-stretch:normal;font-size:medium;line-height:0%;font-family:'Futura LH Extra Bold';-inkscape-font-specification:'Futura LH Extra Bold, Normal';text-align:center;letter-spacing:0px;word-spacing:0px;writing-mode:lr-tb;text-anchor:middle;fill:#000000;fill-opacity:1;stroke:none;stroke-width:1px;stroke-linecap:butt;stroke-linejoin:miter;stroke-opacity:1"
       d="m 795.56476,402.44124 c -7.54808,0 -14.47116,1.16905 -20.76816,3.50437 -6.25531,2.29362 -11.69662,5.81535 -16.32555,10.56938 -4.58722,4.75404 -8.00785,10.23862 -10.25976,16.45222 -2.21021,6.2136 -3.31436,12.15526 -3.31436,17.82674 0,7.04765 1.33504,13.76381 4.00397,20.14422 1.83489,4.46212 4.62774,8.69346 8.38092,12.69686 3.75318,4.0034 8.25634,7.27732 13.5108,9.82114 7.08935,3.46127 15.18148,5.19086 24.27251,5.19086 15.05444,0 27.20957,-4.48151 36.46743,-13.44746 9.25785,-9.00764 13.8861,-20.51805 13.8861,-34.52993 0,-14.0953 -4.58733,-25.64663 -13.76178,-34.65426 -9.17445,-9.04935 -21.2045,-13.57414 -36.09212,-13.57414 z m -0.37531,30.21401 c 4.67064,0 8.58927,1.68867 11.75861,5.06654 3.16937,3.33616 4.75459,7.73586 4.75459,13.19882 0,5.08765 -1.58522,9.25646 -4.75459,12.50923 -3.16934,3.21105 -7.15052,4.81789 -11.94625,4.81789 -4.71234,0 -8.63331,-1.56359 -11.76097,-4.69123 -3.08594,-3.16936 -4.62792,-7.27797 -4.62792,-12.32391 0,-5.62979 1.58524,-10.13294 4.75459,-13.5108 3.21105,-3.37787 7.15132,-5.06654 11.82194,-5.06654 z"
       id="path3385"
       inkscape:connector-curvature="0" />
    <path
       style="font-style:normal;font-variant:normal;font-weight:normal;font-stretch:normal;font-size:medium;line-height:0%;font-family:'Futura LH Extra Bold';-inkscape-font-specification:'Futura LH Extra Bold, Normal';text-align:center;letter-spacing:0px;word-spacing:0px;writing-mode:lr-tb;text-anchor:middle;fill:#000000;fill-opacity:1;stroke:none;stroke-width:1px;stroke-linecap:butt;stroke-linejoin:miter;stroke-opacity:1"
       d="m 852.80034,404.5054 0,91.6412 32.33913,0 0,-30.52596 14.95099,30.52596 37.97098,0 -24.14586,-36.3431 c 2.54382,-0.70894 4.67032,-1.58455 6.3801,-2.6271 1.70978,-1.04255 3.33592,-2.5027 4.8789,-4.37929 1.54297,-1.91828 2.81548,-4.3575 3.81633,-7.31835 1.00084,-2.96084 1.5012,-6.21547 1.5012,-9.76014 0,-5.42127 -1.1065,-10.15297 -3.31671,-14.19807 -2.1685,-4.04509 -5.0046,-7.38154 -8.50759,-10.00877 -3.46126,-2.66893 -7.44244,-4.50433 -11.94626,-5.50519 -4.46212,-1.00084 -10.67559,-1.50119 -18.64069,-1.50119 l -35.28052,0 z m 32.15147,25.20842 2.37846,0 c 4.33701,0 7.27658,0.64707 8.81954,1.93983 1.54298,1.29278 2.31515,3.21234 2.31515,5.75617 0,3.08595 -1.20996,5.37845 -3.62869,6.87972 -1.25105,0.75064 -3.81535,1.1259 -7.69365,1.1259 l -2.19081,0 0,-15.70162 z"
       id="path3387"
       inkscape:connector-curvature="0" />
    <path
       style="font-style:normal;font-variant:normal;font-weight:normal;font-stretch:normal;font-size:medium;line-height:0%;font-family:'Futura LH Extra Bold';-inkscape-font-specification:'Futura LH Extra Bold, Normal';text-align:center;letter-spacing:0px;word-spacing:0px;writing-mode:lr-tb;text-anchor:middle;fill:#000000;fill-opacity:1;stroke:none;stroke-width:1px;stroke-linecap:butt;stroke-linejoin:miter;stroke-opacity:1"
       d="m 950.5707,404.5054 -15.45067,91.6412 32.02713,0 5.19323,-48.918 14.51235,48.918 19.45236,0 15.7016,-48.918 4.3159,48.918 32.3392,0 -14.5735,-91.6412 -34.0912,0 -13.07453,44.47538 -12.69692,-44.47538 -33.65495,0 z"
       id="path3389"
       inkscape:connector-curvature="0" />
    <path
       inkscape:connector-curvature="0"
       id="path3400"
       style="font-style:normal;font-variant:normal;font-weight:normal;font-stretch:normal;font-size:medium;line-height:0%;font-family:'Futura LH Extra Bold';-inkscape-font-specification:'Futura LH Extra Bold, Normal';text-align:center;letter-spacing:0px;word-spacing:0px;writing-mode:lr-tb;text-anchor:middle;fill:#000000;fill-opacity:1;stroke:none;stroke-width:1px;stroke-linecap:butt;stroke-linejoin:miter;stroke-opacity:1"
       d="m 228.67062,378.46322 0,33.62304 q -2.92375,-1.80585 -6.01947,-1.80585 -3.3537,0 -5.24555,1.71986 -1.89183,1.63385 -2.66576,4.81557 -0.51594,1.97783 -0.60195,8.08329 l 14.53273,0 0,33.45105 -14.27475,0 0,55.63709 -43.08219,0 0,-55.63709 -11.78096,0 0,-33.45105 11.78096,0 q 0.086,-19.77825 3.00973,-28.29151 3.00974,-8.59924 11.86694,-14.53272 8.94322,-6.01946 22.95999,-6.01946 8.85721,0 19.52028,2.40778 z" />
    <path
       inkscape:connector-curvature="0"
       id="path3402"
       style="font-style:normal;font-variant:normal;font-weight:normal;font-stretch:normal;font-size:medium;line-height:0%;font-family:'Futura LH Extra Bold';-inkscape-font-specification:'Futura LH Extra Bold, Normal';text-align:center;letter-spacing:0px;word-spacing:0px;writing-mode:lr-tb;text-anchor:middle;fill:#000000;fill-opacity:1;stroke:none;stroke-width:1px;stroke-linecap:butt;stroke-linejoin:miter;stroke-opacity:1"
       d="m 291.95617,378.46322 0,33.62304 q -2.92375,-1.80585 -6.01947,-1.80585 -3.35371,0 -5.24555,1.71986 -1.89183,1.63385 -2.66576,4.81557 -0.51596,1.97783 -0.60194,8.08329 l 14.53272,0 0,33.45105 -14.27475,0 0,55.63709 -43.0822,0 0,-55.63709 -11.78096,0 0,-33.45105 11.78096,0 q 0.0859,-19.77825 3.00974,-28.29151 3.00973,-8.59924 11.86694,-14.53272 8.94322,-6.01946 22.95998,-6.01946 8.85723,0 19.52029,2.40778 z" />
  </g>
</svg>
