<?xml version="1.0" encoding="UTF-8" standalone="no"?>
<svg xmlns:dc="http://purl.org/dc/elements/1.1/" xmlns:cc="http://web.resource.org/cc/" xmlns:rdf="http://www.w3.org/1999/02/22-rdf-syntax-ns#" xmlns:svg="http://www.w3.org/2000/svg" xmlns="http://www.w3.org/2000/svg" xmlns:sodipodi="http://sodipodi.sourceforge.net/DTD/sodipodi-0.dtd" xmlns:inkscape="http://www.inkscape.org/namespaces/inkscape" version="1.0" id="Layer_1" x="0px" y="0px" width="462" height="357" viewBox="0 0 504 360" enable-background="new 0 0 504 360" xml:space="preserve" sodipodi:version="0.32" inkscape:version="0.45.1">
<rect style="fill:#ffffff" id="rect5" height="278.89337" width="424.38187" y="2.6690581" x="18.202898"/><polygon id="polygon7" points="94.79,259.521 110.25,259.521 109.541,263.1 104.419,263.1 104.419,280.956 100.035,280.956 100.035,263.1 94.79,263.1 94.79,259.521 " transform="matrix(1.6838947,0,0,1.6838947,-159.61638,-98.955674)"/><polygon id="polygon9" points="112.166,259.521 116.452,259.521 116.452,267.855 122.626,267.855 122.626,259.521 127.008,259.521 127.008,280.956 122.626,280.956 122.626,271.399 116.452,271.399 116.452,280.956 112.166,280.956 112.166,259.521 " transform="matrix(1.6838947,0,0,1.6838947,-159.61638,-98.955674)"/><polygon id="polygon11" points="131.355,259.521 143.577,259.521 143.022,263.038 135.678,263.038 135.678,268.005 141.818,268.005 141.818,271.518 135.742,271.518 135.742,277.253 143.855,277.253 143.855,280.956 131.355,280.956 131.355,259.521 " transform="matrix(1.6838947,0,0,1.6838947,-159.61638,-98.955674)"/><path id="path13" d="M 98.9928,338.05036 L 108.40409,338.05036 L 113.1291,356.11687 C 113.80602,358.72185 114.07208,359.76418 114.38023,361.64004 C 114.74564,359.76418 115.10936,358.11397 115.67851,355.97711 L 120.55507,338.05036 L 130.06908,338.05036 L 133.29205,374.14633 L 126.12203,374.14633 L 124.7766,354.87415 C 124.61157,352.59079 124.46002,351.04498 124.46002,349.0984 C 124.04242,351.18306 123.78815,352.22539 123.16174,354.40435 L 117.44323,374.14633 L 111.05959,374.14633 L 105.9035,355.19578 C 105.4438,353.43274 104.46209,348.8997 104.46209,348.8997 C 104.46209,351.04329 104.34422,353.0606 104.19772,355.30018 L 102.94658,374.14633 L 95.619959,374.14633 L 98.9928,338.05036 L 98.9928,338.05036 z "/><path id="path15" d="M 152.35374,337.58056 C 161.96878,337.58056 167.89609,344.59735 167.89609,355.9249 C 167.89609,364.08001 165.03852,370.15045 159.84034,373.06864 C 157.66474,374.25915 155.63228,374.72727 152.61306,374.72727 C 147.16398,374.72727 143.63622,373.22355 140.87126,369.64528 C 138.12315,366.10236 136.72046,361.53396 136.72046,356.22632 C 136.72046,348.43662 139.738,342.20116 144.88061,339.33517 C 147.00906,338.19686 149.65277,337.58056 152.35374,337.58056 L 152.35374,337.58056 z M 152.25439,343.18119 C 149.81779,343.18119 147.63378,344.43232 146.64365,346.36207 C 145.39757,348.69763 144.82841,351.87514 144.82841,356.22632 C 144.82841,362.47189 145.91789,366.30106 148.04634,367.90918 C 149.19307,368.76123 150.65132,369.16032 152.35374,369.16032 C 157.40037,369.16032 159.52713,365.32104 159.52713,356.11518 C 159.52713,352.43082 159.21898,349.79216 158.59425,347.7597 C 158.02173,345.93604 156.09704,343.18119 152.25439,343.18119 L 152.25439,343.18119 z "/><path id="path17" d="M 167.95671,338.05036 L 175.90806,338.05036 L 181.8741,356.86283 C 182.0307,357.47072 182.60828,359.355 183.02588,360.90081 C 183.22626,361.78654 183.33403,362.14184 183.54789,363.13197 C 183.75164,362.10817 183.84762,361.78654 184.15914,360.54383 C 184.73672,358.61577 185.04992,357.73004 185.61908,355.9249 L 191.75856,338.05036 L 199.37987,337.99816 L 186.82138,374.42417 L 180.21714,374.42417 L 167.95671,338.05036 L 167.95671,338.05036 z "/><polygon id="polygon19" points="215.139,259.521 219.649,259.521 219.649,280.956 215.139,280.956 215.139,259.521 " transform="matrix(1.6838947,0,0,1.6838947,-159.61638,-98.955674)"/><polygon id="polygon21" points="223.871,259.521 236.089,259.521 235.545,263.038 228.193,263.038 228.193,268.005 234.341,268.005 234.341,271.518 228.26,271.518 228.26,277.253 236.368,277.253 236.368,280.956 223.871,280.956 223.871,259.521 " transform="matrix(1.6838947,0,0,1.6838947,-159.61638,-98.955674)"/><path id="path23" d="M 252.96813,338.05036 L 261.02388,338.05036 L 267.92785,352.48471 C 269.75151,356.34083 271.15925,360.12791 271.87153,362.72447 C 271.62737,359.9191 271.36805,355.2985 271.29901,352.80465 L 271.15925,338.04868 L 278.07163,338.04868 L 278.07163,374.14465 L 270.47222,374.14465 L 264.29738,360.33671 C 262.31711,355.81882 260.09437,350.72167 259.39893,348.49051 C 259.66835,351.44238 259.72897,355.706 259.78117,358.72017 L 259.98155,374.14465 L 252.96813,374.14465 L 252.96813,338.05036 L 252.96813,338.05036 z "/><polygon id="polygon25" points="264.155,259.521 276.363,259.521 275.812,263.038 268.467,263.038 268.467,268.005 274.604,268.005 274.604,271.518 268.529,271.518 268.529,277.253 276.643,277.253 276.643,280.956 264.155,280.956 264.155,259.521 " transform="matrix(1.6838947,0,0,1.6838947,-159.61638,-98.955674)"/><polygon id="polygon27" points="277.699,259.521 293.162,259.521 292.451,263.1 287.313,263.1 287.313,280.956 282.95,280.956 282.95,263.1 277.699,263.1 277.699,259.521 " transform="matrix(1.6838947,0,0,1.6838947,-159.61638,-98.955674)"/><path id="path29" d="M 414.93186,337.99648 L 428.40302,338.04868 C 434.77656,338.04868 438.98966,342.30388 438.98966,348.64543 C 438.98966,354.04736 435.40297,358.51979 430.94738,358.61577 C 431.67819,359.18829 431.97119,359.5015 432.45784,360.12622 C 434.52566,362.72279 441.12484,374.14296 441.12484,374.14296 L 432.54371,374.14296 C 431.14608,371.76362 430.58029,370.78191 429.17424,368.23754 C 425.59596,361.72424 424.43913,360.02014 423.1981,359.39541 C 422.83269,359.23881 422.60705,359.14451 422.05137,359.08221 L 422.05137,374.14128 L 414.93018,374.14128 L 414.93018,337.99648 L 414.93186,337.99648 z M 422.10693,343.8699 L 422.05473,353.63144 L 424.48628,353.63144 C 427.61159,353.63144 428.96712,353.31824 429.93873,352.43251 C 430.82446,351.6175 431.36499,350.31417 431.36499,348.80371 C 431.36499,346.56245 430.47926,345.06884 428.75832,344.39191 C 427.91637,344.07702 426.41265,343.8699 424.64288,343.8699 L 422.10693,343.8699 L 422.10693,343.8699 z "/><polygon id="polygon31" points="359.043,259.521 363.447,259.521 363.447,269.3 369.57,259.521 374.872,259.521 368.012,269.454 375.636,280.956 369.967,280.956 363.447,269.764 363.447,280.956 359.043,280.956 359.043,259.521 " transform="matrix(1.6838947,0,0,1.6838947,-159.61638,-98.955674)"/><path id="path33" d="M 334.49895,338.05036 L 342.18592,338.05036 L 345.3045,352.28601 C 346.81495,359.03337 347.23929,364.17599 347.23929,364.17599 C 347.37906,362.77836 348.0223,357.64416 349.09831,352.64973 L 352.31118,338.05036 L 360.26759,338.05036 L 363.6017,354.20565 C 364.27862,357.58354 365.14751,363.76849 365.14751,363.76849 C 365.25191,362.61165 366.50305,354.77817 367.12777,351.76568 L 370.09985,338.05036 L 377.73294,338.05036 L 369.00363,374.47637 L 361.04723,374.47637 L 357.83436,359.76418 C 356.59333,354.15345 356.1673,349.58504 356.12352,349.27352 C 356.12352,349.27352 355.38598,354.36225 354.3588,359.65136 L 351.38841,374.47806 L 343.12049,374.47806 L 334.49895,338.05036 L 334.49895,338.05036 z "/><path id="path35" d="M 394.50453,337.58056 C 404.12799,337.58056 410.05025,344.59735 410.05025,355.9249 C 410.05025,364.08001 407.18426,370.15045 401.98944,373.06864 C 399.80038,374.25915 397.77802,374.72727 394.76385,374.72727 C 389.30972,374.72727 385.79206,373.22355 383.03889,369.64528 C 380.27731,366.10236 378.86957,361.53396 378.86957,356.22632 C 378.86957,348.43662 381.89216,342.20116 387.03478,339.33517 C 389.1548,338.19686 391.81199,337.58056 394.50453,337.58056 L 394.50453,337.58056 z M 394.41865,343.18119 C 391.96859,343.18119 389.78121,344.43232 388.80792,346.36207 C 387.55678,348.69763 386.97584,351.87514 386.97584,356.22632 C 386.97584,362.47189 388.06869,366.30106 390.20555,367.90918 C 391.34386,368.76123 392.7937,369.16032 394.50622,369.16032 C 399.56127,369.16032 401.67961,365.32104 401.67961,356.11518 C 401.67961,352.43082 401.3664,349.79216 400.74168,347.7597 C 400.18431,345.93604 398.24783,343.18119 394.41865,343.18119 L 394.41865,343.18119 z "/><rect x="18.202898" y="2.6690581" width="427.67389" height="284.1926" id="rect39" style="fill:#ffffff;stroke:#000000;stroke-width:1.84016013"/><path d="M 442.91482,-14.727261 L 31.955268,-14.710422 C 16.060986,-14.435947 3.224657,-1.7478008 2.7026496,14.094281 L 2.7026496,274.16171 C 3.5496486,289.88255 16.52069,302.37032 32.445282,302.37032 L 32.445282,302.38042 L 472.16407,302.5185 L 472.30384,13.737295 C 471.61007,-1.9784943 458.75859,-14.531929 442.91482,-14.727261 L 442.91482,-14.727261 z M 94.20212,255.77527 C 94.20212,262.52432 88.726094,268.00371 81.982096,268.00371 L 51.931311,268.00371 C 45.183945,268.00371 39.686029,262.52432 39.686029,255.77527 L 39.686029,242.75708 C 39.686029,236.02655 45.183945,230.54547 51.931311,230.54547 L 81.982096,230.54547 C 88.726094,230.54547 94.20212,236.02655 94.20212,242.75708 L 94.20212,255.77527 L 94.20212,255.77527 z M 94.20212,184.04472 C 94.20212,190.78367 88.726094,196.27316 81.982096,196.27316 L 51.931311,196.27316 C 45.183945,196.27316 39.686029,190.78367 39.686029,184.04472 L 39.686029,171.02653 C 39.686029,164.28253 45.183945,158.79809 51.931311,158.79809 L 81.982096,158.79809 C 88.726094,158.79809 94.20212,164.28253 94.20212,171.02653 L 94.20212,184.04472 L 94.20212,184.04472 z M 94.20212,112.33607 C 94.20212,119.05817 88.726094,124.53925 81.982096,124.53925 L 51.931311,124.53925 C 45.183945,124.53925 39.686029,119.05817 39.686029,112.33607 L 39.686029,99.294301 C 39.686029,92.546935 45.183945,87.074277 51.931311,87.074277 L 81.982096,87.074277 C 88.726094,87.074277 94.20212,92.546935 94.20212,99.294301 L 94.20212,112.33607 L 94.20212,112.33607 z M 425.92601,268.88102 L 360.56227,268.88102 L 360.56227,137.57428 C 336.46068,193.70186 304.1619,268.88102 304.1619,268.88102 L 277.06466,268.88102 L 276.41131,268.88102 L 249.33092,268.88102 C 249.33092,268.88102 217.01361,193.70186 192.9255,137.57428 L 192.9255,268.88102 L 132.29855,268.88102 L 132.29855,72.843683 C 132.29855,50.375476 132.29855,50.375476 105.11376,46.005769 L 91.083547,43.730827 L 91.083547,20.146198 L 203.30839,20.146198 C 203.30839,20.146198 263.07992,148.45729 276.57634,179.52346 L 276.92322,179.52346 C 290.39438,148.45729 350.33934,20.146198 350.33934,20.146198 L 426.07419,20.146198 L 425.92601,268.88102 L 425.92601,268.88102 z " id="path41" style="fill:#0075bf"/><path d="M 487.09685,289.51715 L 482.57223,289.51715 L 482.57223,302.70036 L 480.27876,302.70036 L 480.27876,289.51715 L 475.78108,289.51715 L 475.78108,287.25905 L 487.09685,287.25905 L 487.09685,289.51715 z " id="path45"/><path d="M 503.97284,302.70036 L 501.70464,302.70036 L 501.70464,294.53516 L 501.70464,291.81735 L 500.70609,294.24047 L 496.97121,302.90748 L 493.23465,294.25563 L 492.27146,291.81567 L 492.30682,294.53347 L 492.30682,302.69868 L 490.13628,302.69868 L 490.13628,287.25736 L 492.46342,287.2742 L 495.94572,295.48992 C 496.29428,296.27293 496.5014,296.74106 496.53676,296.89766 C 496.78093,297.45335 496.93585,297.87095 497.02341,298.13027 C 497.25074,297.48702 497.43091,296.9667 497.60604,296.56593 C 497.82326,296.06245 497.97986,295.69704 498.07416,295.47982 L 501.48741,287.25568 L 503.97284,287.25568 L 503.97284,302.70036 z " id="path47"/>
</svg>