<svg id="Layer_2" data-name="Layer 2" xmlns="http://www.w3.org/2000/svg" viewBox="0 0 67.61 28.1" fill="#fff"><title>theCW-black2</title><path d="M23.5,27.18a12.64,12.64,0,0,0,8.3-3.6,10.9,10.9,0,0,0,8,3.6,10.69,10.69,0,0,0,8.1-3.7,11,11,0,0,0,8.1,3.7,10.71,10.71,0,0,0,10.7-10.7V.78h-7v15.7a4.14,4.14,0,0,1-4.1,4.2,4.23,4.23,0,0,1-4.2-4.2V.78h-7v15.7a4.23,4.23,0,0,1-4.2,4.2,4.14,4.14,0,0,1-4.1-4.2V.78h-7v13.3c-.1,3.3-2.4,6-5.4,6.1H13.4c-3.1,0-5.5-2.8-5.5-6.2s2.5-6.2,5.5-6.2H23.7v-7H13.4C6.5.78.8,6.68.8,14s5.6,13.2,12.6,13.2Z"/><polygon points="13.9 16.18 13.9 12.58 15.2 12.58 15.2 11.88 11.8 11.88 11.8 12.58 13 12.58 13 16.18 13.9 16.18"/><polygon points="23.1 12.58 23.1 11.88 20.3 11.88 20.3 16.18 23.2 16.18 23.2 15.48 21.2 15.48 21.2 14.28 22.9 14.28 22.9 13.58 21.2 13.58 21.2 12.58 23.1 12.58"/><polygon points="19.4 16.18 19.4 11.88 18.6 11.88 18.6 13.58 16.7 13.58 16.7 11.88 15.8 11.88 15.8 16.18 16.7 16.18 16.7 14.28 18.6 14.28 18.6 16.18 19.4 16.18"/></svg>
