<?xml version="1.0" encoding="UTF-8" standalone="no"?>
<!-- Created with Inkscape (http://www.inkscape.org/) -->

<svg
   xmlns:dc="http://purl.org/dc/elements/1.1/"
   xmlns:cc="http://creativecommons.org/ns#"
   xmlns:rdf="http://www.w3.org/1999/02/22-rdf-syntax-ns#"
   xmlns:svg="http://www.w3.org/2000/svg"
   xmlns="http://www.w3.org/2000/svg"
   xmlns:xlink="http://www.w3.org/1999/xlink"
   xmlns:sodipodi="http://sodipodi.sourceforge.net/DTD/sodipodi-0.dtd"
   xmlns:inkscape="http://www.inkscape.org/namespaces/inkscape"
   width="755"
   height="228"
   id="svg2"
   version="1.1"
   inkscape:version="0.47 r22583">
  <g
     inkscape:label="Layer 1"
     inkscape:groupmode="layer"
     id="layer1"
     transform="translate(-149.54219,-330.59576)">
    <path
       id="path37561"
       d="m 791.4874,330.59576 c -41.67419,0 -78.05291,22.56087 -97.66267,56.12638 10.28754,17.04477 16.21735,37.01308 16.21735,58.38799 0,20.76815 -5.62643,40.18484 -15.38994,56.92623 19.80283,32.76567 55.76784,54.66461 96.83526,54.66461 62.44233,0 113.05261,-50.61028 113.05261,-113.05261 0,-62.44232 -50.61028,-113.0526 -113.05261,-113.0526"
       style="fill:#176fc1;fill-rule:nonzero;stroke:none" />
    <path
       id="path37565"
       d="m 730.13726,416.44844 c 0.22064,-3.03386 0.44129,-5.84707 0.85499,-8.90851 6.53659,-37.09582 33.8689,-57.25719 75.95679,-52.04447 3.66822,0.63435 7.36401,1.29629 10.83915,2.37193 36.43389,10.83915 49.4519,51.63076 25.81538,81.80386 -3.47514,4.55079 -7.14335,8.43965 -10.83915,11.50108 l -12.79736,9.76351 -20.63024,15.83123 55.32655,0 0,37.53711 -124.30547,0 0,-27.35989 47.52126,-40.35032 c 1.95822,-1.93064 4.1095,-3.66822 6.06772,-5.84708 12.13543,-11.94237 16.90687,-18.01009 18.86508,-22.56087 3.03386,-7.17094 3.03386,-10.42545 0,-15.19688 -1.95821,-3.44757 -6.06771,-5.62643 -11.28043,-5.84707 -8.24658,0 -13.43172,5.84707 -13.43172,16.7138 0,0.855 0.19306,1.73758 0.19306,2.59257 z"
       style="fill:#ffffff;fill-rule:nonzero;stroke:none" />
    <path
       id="path37569"
       d="m 211.90178,334.82937 0,83.45869 40.24,0 0,-83.45869 62.35959,0 0,222.32668 -62.35959,0 0,-84.0103 -40.24,0 0,84.0103 -62.35959,0 0,-222.32668 z"
       style="fill:#221e1f;fill-rule:nonzero;stroke:none" />
    <path
       id="path37573"
       d="m 451.88001,552.63836 c -11.1977,4.52321 -24.13297,4.52321 -37.06824,4.52321 l -86.52013,0 0,-222.32669 99.4554,0 c 25.56716,1.13081 51.7135,16.10704 60.0704,40.43307 2.28919,7.364 3.72338,14.728 3.44757,22.91942 0,0 -0.30339,0 0,0 0,0 0,0.27581 0,0 18.09283,-39.02645 58.33283,-65.91748 104.61297,-65.91748 63.51797,0 114.95566,50.63786 114.95566,113.16294 0,62.52507 -51.43769,113.16293 -114.95566,113.16293 -45.97675,0 -85.66514,-26.61522 -104.03378,-65.09006 -1.46177,28.02182 -16.68622,50.36205 -39.96419,59.13266 m -65.53135,-82.02451 0,35.63405 30.1731,0 c 5.46095,0 9.79109,-2.53741 12.93527,-7.08819 3.75096,-5.35063 4.60595,-13.84543 1.43419,-19.77525 -2.56499,-4.82659 -7.47432,-8.219 -12.63188,-8.77061 z m 0,-49.23125 25.59473,0 c 6.31595,0.27581 12.35608,-0.55161 16.07946,-5.65401 4.88175,-5.9574 4.88175,-15.55542 1.43418,-22.06443 -2.28918,-4.2474 -7.47432,-7.364 -12.63188,-7.6398 l -30.47649,0 z m 70.99229,24.32603 c 10.0669,1.9858 19.25122,9.3498 24.43636,18.39622 -1.73758,-11.30802 -1.43419,-22.64362 0,-33.67584 -5.76433,7.91562 -14.94865,13.59721 -24.43636,15.27962 m 138.53703,-56.29187 c -31.33149,0 -56.62284,25.18103 -56.62284,56.01607 0,30.83503 25.29135,55.71267 56.62284,55.71267 31.33148,0 56.62283,-24.87764 56.62283,-55.71267 0,-30.83504 -25.29135,-56.01607 -56.62283,-56.01607"
       style="fill:#221e1f;fill-rule:nonzero;stroke:none" />
    <path
       id="path37577"
       d="m 638.40992,445.99547 c 0,23.19523 -18.97541,42.14305 -42.83257,42.14305 -23.55378,0 -42.80499,-18.94782 -42.80499,-42.14305 0,-23.47104 19.25121,-42.14306 42.80499,-42.14306 23.85716,0 42.83257,18.67202 42.83257,42.14306"
       style="fill:#221e1f;fill-rule:nonzero;stroke:none" />
    <path
       id="path37581"
       d="m 688.64234,347.74809 c 0,2.34435 -0.82741,4.35772 -2.48224,5.98498 -1.65484,1.65483 -3.64063,2.48224 -5.98498,2.48224 -2.34435,0 -4.33014,-0.82741 -5.98498,-2.48224 -1.65483,-1.62726 -2.48224,-3.64063 -2.48224,-5.98498 0,-2.34435 0.82741,-4.35772 2.48224,-6.04014 1.65484,-1.65483 3.64063,-2.48224 5.98498,-2.48224 2.34435,0 4.33014,0.82741 5.98498,2.48224 1.65483,1.68242 2.48224,3.69579 2.48224,6.04014 m -1.98579,0.0276 c 0,-1.79273 -0.63436,-3.33724 -1.90306,-4.68869 -1.26871,-1.32387 -2.81322,-1.9858 -4.60595,-1.9858 -1.76515,0 -3.30966,0.66193 -4.55079,1.9858 -1.2687,1.35145 -1.90306,2.89596 -1.90306,4.68869 0,1.76515 0.63436,3.30966 1.90306,4.66111 1.24113,1.35145 2.78564,2.01338 4.55079,2.01338 1.79273,0 3.33724,-0.66193 4.60595,-2.01338 1.2687,-1.35145 1.90306,-2.89596 1.90306,-4.66111 m -5.40579,4.38531 0,-1.59968 c 0,-0.63435 -0.1379,-1.18596 -0.38613,-1.65483 -0.22064,-0.46887 -0.55161,-0.68951 -0.96532,-0.68951 l -0.60677,0 0,3.94402 -1.07564,0 -1.10322,0 0,-9.01884 3.50273,0 c 0.96532,0 1.68241,0.16548 2.15128,0.52403 0.46887,0.38613 0.68951,0.855 0.68951,1.43419 l 0,0.38613 0,0.35854 c 0,0.49645 -0.11032,0.91016 -0.38612,1.24113 -0.27581,0.30338 -0.60678,0.49645 -1.02048,0.60677 0.63435,0.33097 1.04806,0.77225 1.29628,1.35145 0.24823,0.57919 0.35855,1.1308 0.35855,1.62725 l 0,1.48935 z m 0.22065,-6.23321 0,-0.1379 0,-0.19306 c 0,-0.27581 -0.0828,-0.52403 -0.24823,-0.7171 -0.16548,-0.19306 -0.38613,-0.30338 -0.63435,-0.30338 l -0.57919,0 -0.7171,0 0,2.42709 1.29629,0 c 0.30338,0 0.52403,-0.11033 0.66193,-0.27581 0.1379,-0.16548 0.22065,-0.41371 0.22065,-0.79984"
       style="fill:#221e1f;fill-rule:nonzero;stroke:none" />
  </g>
</svg>
