<?xml version="1.0" encoding="UTF-8" standalone="no"?>
<!-- Created with Inkscape (http://www.inkscape.org/) -->

<svg
   xmlns:svg="http://www.w3.org/2000/svg"
   xmlns="http://www.w3.org/2000/svg"
   version="1.1"
   width="381"
   height="227"
   viewBox="0 0 4.2333336 2.5222222"
   id="svg2"
   xml:space="preserve"
   style="fill-rule:evenodd">
 <defs
   id="defs4"><style
     type="text/css"
     id="style6" /></defs>
 <path
   d="m 3.3602296,1.2202609 c 0.191938,0 0.3474488,-0.1557636 0.3474488,-0.34743321 0,-0.19211043 -0.155512,-0.34762203 -0.3474488,-0.34762203 -0.191922,0 -0.34737,0.155512 -0.34737,0.34762203 0,0.19166921 0.155448,0.34743321 0.34737,0.34743321 z"
   id="_134052944"
   style="fill:#f9a819;fill-opacity:1;fill-rule:nonzero" /><path
   d="m 0.01005442,0.02267006 0,1.70725884 0.4714192,0 0,-0.635796 0.300044,0 0,0.635796 0.47141998,0 0,-1.70725884 -0.47141998,0 0,0.6428188 -0.300044,0 0,-0.6428188 z"
   id="_134045216"
   style="fill:#f9a819;fill-opacity:1;fill-rule:nonzero" /><path
   d="m 2.4914856,0.87282889 c 0,-0.46349603 0.3626772,-0.84236403 0.819876,-0.86766802 l 0.097574,0 c 0.457196,0.02530719 0.820048,0.40417199 0.820048,0.86766802 0,0.47962401 -0.388882,0.86874001 -0.868756,0.86874001 -0.47986,0 -0.86874,-0.389118 -0.86874,-0.86874001 z m 0.86874,0.43439201 c 0.2399684,0 0.434408,-0.1946772 0.434408,-0.43439201 0,-0.23990563 -0.19444,-0.43440803 -0.434408,-0.43440803 -0.2398896,0 -0.434332,0.194504 -0.434332,0.43440803 0,0.23971641 0.19444,0.43439201 0.434332,0.43439201 z"
   id="_121531200"
   style="fill:#f9a819;fill-opacity:1;fill-rule:nonzero" /><path
   d="m 2.0744816,0.02267006 c 0.128646,0 0.492756,0.0715432 0.492756,0.435652 0,0.292866 -0.140882,0.380252 -0.2498584,0.40011203 -0.07874,0.014392 0.2354644,0 0.2354644,0.36411041 0,0.52178 -0.457008,0.507384 -0.457008,0.507384 l -0.74304,0 0,-1.70726004 0.721684,0 z m -0.3002364,0.415748 0,0.257118 0.2500944,0 c 0,0 0.100284,-0.012064 0.100284,-0.135008 0,-0.1235432 -0.1037,-0.1221104 -0.1037,-0.1221104 l -0.2466772,0 z m 0,0.62866004 0,0.257244 0.2500944,0 c 0,0 0.100284,-0.012236 0.100284,-0.1351968 0,-0.1235432 -0.1037,-0.1220472 -0.1037,-0.1220472 l -0.2466772,0 z"
   id="_134053168"
   style="fill:#f9a819;fill-opacity:1;fill-rule:nonzero" />
<path
   d="m 0.00435,1.8503947 0,0.6666666 4.2222218,0 0,-0.6666666 -4.2222218,0 z m 0.36423607,0.178125 c 0.0644562,0 0.12238079,0.020981 0.16249999,0.054167 l -0.0579861,0.072222 c -0.017528,-0.021784 -0.0499222,-0.036458 -0.0871528,-0.036458 -0.0559037,0 -0.10138887,0.033258 -0.10138887,0.073958 0,0.040701 0.0454852,0.073611 0.10138887,0.073611 0.0370132,0 0.0692069,-0.014537 0.0868056,-0.036111 l 0.015625,0.020486 0,0.00174 0.001389,0 0.0388889,0.051389 c -0.0400213,0.032096 -0.0968299,0.052431 -0.16006943,0.052431 -0.12085064,0 -0.21874997,-0.07311 -0.21874997,-0.1635417 0,-0.090432 0.0978993,-0.1638888 0.21874997,-0.1638888 z m 1.15624993,0.013542 0.1100694,0 0.1559028,0.1486111 -0.00243,-0.1486111 0.121875,0 0,0.2961806 -0.1194444,0 -0.14375,-0.1409722 0,0.1409722 -0.1222222,0 0,-0.2961806 z m -0.58506943,3.467e-4 0.13472223,0 0.1371527,0.2996527 -0.1100694,0 -0.023264,-0.051042 -0.14201385,0 -0.0236111,0.051042 -0.11006943,0 0.13715276,-0.2996527 z m 1.40208323,0 0.1347222,0 0.1371527,0.2996527 -0.1100694,0 -0.023264,-0.051042 -0.1420139,0 -0.023611,0.051042 -0.1100694,0 0.1371528,-0.2996527 z m 1.3809026,0 0.1347222,0 0.1371528,0.2996527 -0.1100695,0 -0.023264,-0.051042 -0.1420139,0 -0.023611,0.051042 -0.1100695,0 0.1371528,-0.2996527 z m -0.792361,0.00104 0.2263888,0 c 0.088942,0 0.1611111,0.066758 0.1611111,0.1493056 0,0.082548 -0.072169,0.1496527 -0.1611111,0.1496527 l -0.2263888,0 0,-0.2989583 z m 0.1243055,0.073611 0,0.1513889 0.051389,0 c 0.044981,0 0.08125,-0.033948 0.08125,-0.075694 0,-0.041747 -0.036269,-0.075694 -0.08125,-0.075694 l -0.051389,0 z m -2.0475692,0.019444 -0.0430556,0.09375 0.0861111,0 -0.043055,-0.09375 z m 1.4020832,0 -0.043056,0.09375 0.086111,0 -0.043055,-0.09375 z m 1.3809026,0 -0.043055,0.09375 0.086111,0 -0.043056,-0.09375 z"
   id="rect2834"
   style="fill:#f9a819;fill-opacity:1;stroke:none" /></svg>