<?xml version="1.0" encoding="utf-8"?>
<!-- Generator: Adobe Illustrator 18.0.0, SVG Export Plug-In . SVG Version: 6.00 Build 0)  -->
<!DOCTYPE svg PUBLIC "-//W3C//DTD SVG 1.1//EN" "http://www.w3.org/Graphics/SVG/1.1/DTD/svg11.dtd">
<svg version="1.1" id="Layer_1" xmlns="http://www.w3.org/2000/svg" xmlns:xlink="http://www.w3.org/1999/xlink" x="0px" y="0px"
	 viewBox="0 0 122 50.6" enable-background="new 0 0 122 50.6" xml:space="preserve">
<g>
	<g>
		<path fill="#5B6770" d="M90.7,5.9c3.8-1.4,7.2-2.7,11.2-5.1h12l-6.7,31.6h-13L98.7,11c-4.1,2.4-6.2,3.3-10,4.3L90.7,5.9z"/>
	</g>
	<path fill="#00558C" d="M51.2,50.2c7.1-7.2,24.2-0.7,25.9-0.9c0.9-0.1,1.3-1.4-0.5-2.1c-16.9-6.7-41.9-8.5-55.7-6
		c-1.5,0.4-2,1.7,0.4,2c2.4,0.3,8.5,0.8,17.2,2.8c4.8,1.1,8.4,2.7,11.5,4.4C50.4,50.7,50.8,50.6,51.2,50.2"/>
	<path fill="#C8102E" d="M78.6,43.8L80,37c-26.6-8.1-52.1-7.6-78.9,1.9c-1.4,0.5-1.8,2.4,1,2c4.1-0.6,20.8-2.9,35.7-3
		c11.9-0.1,26.4,2.5,38.5,6.5C77.7,44.8,78.3,44.6,78.6,43.8z"/>
	<g>
		<path d="M76.5,0.8l-4.3,20.3H72L66.1,0.8H44.3l-1.9,9h3.2l-3.9,18.6c0.6,0,1.2,0,1.8,0c3.1,0,6.1,0.1,9.2,0.4l4.1-19.2h0.1
			l5.9,20.4c5.8,0.9,11.7,2.3,17.7,4.1c0,0,0.1,0,0.1,0l7-33.3H76.5z"/>
		<path d="M40.8,9.8C42,3.6,38.8,0,25.9,0C13.8,0,7.1,3,5.7,9.6c-0.4,1.7-0.3,3.9,1,5.3c3.3,3.6,17.5,5,18.8,6.9
			c0.3,0.4,0.4,0.8,0.2,1.4c-0.5,2.4-3.5,3.1-6.1,3.1c-1.7,0-2.7-0.4-3.4-1.2c-0.6-0.8-0.7-2-0.4-3.7h-13
			c-0.9,5.2-1.1,9.8,12.1,10.5c6.5-1.6,13-2.6,19.4-3.1c2.8-1.7,4.4-4,5-6.7c0.6-2.9-0.2-4.6-1.2-5.6c-3.3-3.6-17-5-18.6-6.8
			c-0.3-0.3-0.4-0.9-0.3-1.4c0.3-1.6,2-2.6,4.7-2.6c1.6,0,2.8,0.2,3.6,0.8c0.8,0.6,1.1,1.7,0.8,3.4H40.8z"/>
	</g>
	<g>
		<polygon fill="#5B6770" points="116.3,0.9 118.8,0.9 118.8,1.2 117.8,1.2 117.8,3.9 117.4,3.9 117.4,1.2 116.3,1.2 		"/>
		<g>
			<path fill="#5B6770" d="M121.6,3.9V2.1c0-0.1,0-0.5,0-0.8h0l-0.8,2.5h-0.4l-0.8-2.5h0c0,0.3,0,0.7,0,0.7v1.8h-0.4v-3h0.6l0.9,2.5
				h0l0.8-2.5h0.6v3H121.6z"/>
		</g>
		<polygon fill="#5B6770" points="116.3,0.9 118.8,0.9 118.8,1.2 117.8,1.2 117.8,3.9 117.4,3.9 117.4,1.2 116.3,1.2 		"/>
		<g>
			<path fill="#5B6770" d="M121.6,3.9V2.1c0-0.1,0-0.5,0-0.8h0l-0.8,2.5h-0.4l-0.8-2.5h0c0,0.3,0,0.7,0,0.7v1.8h-0.4v-3h0.6l0.9,2.5
				h0l0.8-2.5h0.6v3H121.6z"/>
		</g>
	</g>
</g>
</svg>
