<?xml version="1.0" encoding="utf-8"?>
<!-- Generator: Adobe Illustrator 18.0.0, SVG Export Plug-In . SVG Version: 6.00 Build 0)  -->
<!DOCTYPE svg PUBLIC "-//W3C//DTD SVG 1.1//EN" "http://www.w3.org/Graphics/SVG/1.1/DTD/svg11.dtd">
<svg version="1.1" id="Layer_1" xmlns="http://www.w3.org/2000/svg" xmlns:xlink="http://www.w3.org/1999/xlink" x="0px" y="0px"
	 viewBox="0 0 982.1 224.9" enable-background="new 0 0 982.1 224.9" xml:space="preserve">
<g>
	<g>
		<path fill="#02598B" d="M219.2,217.7c30.4-30.8,103.4-3,111-3.7c3.8-0.4,5.6-5.9-2-8.9c-72.5-28.9-179.6-36.3-238.4-25.7
			c-6.5,1.8-8.7,7.4,1.5,8.7c10.3,1.3,36.4,3.2,73.8,12c20.7,4.9,36,11.5,49.1,18.8C215.9,219.7,217.4,219.4,219.2,217.7"/>
		<path fill="#D91F34" d="M336.4,190.2l6.1-29.2c-113.9-34.5-223-32.7-338,8.2c-5.8,2-7.7,10.5,4.3,8.6
			c17.7-2.8,89.1-12.3,152.8-12.7c51.1-0.3,113,10.5,164.8,27.6C332.4,194.4,335.4,193.5,336.4,190.2"/>
		<path fill="#231F20" d="M327.4,8.7l-18.5,87h-0.6l-25.2-87h-93.5l-8.3,38.6H195l-16.9,79.5c2.6,0,5.1-0.1,7.7-0.1
			c13.2,0,26.3,0.5,39.4,1.5l17.5-82.2h0.4l25.3,87.4c25,4,50.2,9.9,76,17.7c0.1,0,0.3,0.1,0.4,0.1L374.8,8.7H327.4z"/>
		<path fill="#231F20" d="M174.6,47.3c5-26.8-8.5-42-63.7-42c-51.9,0-80.7,12.8-86.7,41.1c-1.6,7.4-1.3,16.5,4.3,22.6
			c14.2,15.3,74.9,21.4,80.5,29.6c1.1,1.6,1.6,3.6,1.1,5.9c-2.2,10.4-15,13.1-26.3,13.1c-7.2,0-11.7-1.8-14.5-5.2
			c-2.7-3.4-3-8.6-1.7-15.8H11.9c-3.8,22.4-4.9,42.1,51.6,44.8c27.9-6.7,55.5-11.1,83.1-13.3c12.2-7.2,18.9-17,21.4-28.6
			c2.7-12.6-1.1-19.6-5.1-24.1c-14-15.5-72.8-21.2-79.5-29.3c-1.3-1.4-1.5-3.9-1.1-5.9c1.4-6.7,8.4-11,19.9-11
			c6.8,0,12,0.9,15.2,3.6c3.4,2.7,4.7,7.2,3.6,14.4H174.6z"/>
	</g>
	<g>
		<path fill="#02598B" d="M219.2,217.7c30.4-30.8,103.4-3,111-3.7c3.8-0.4,5.6-5.9-2-8.9c-72.5-28.9-179.6-36.3-238.4-25.7
			c-6.5,1.8-8.7,7.4,1.5,8.7c10.3,1.3,36.4,3.2,73.8,12c20.7,4.9,36,11.5,49.1,18.8C215.9,219.7,217.4,219.4,219.2,217.7"/>
		<path fill="#D91F34" d="M336.4,190.2l6.1-29.2c-113.9-34.5-223-32.7-338,8.2c-5.8,2-7.7,10.5,4.3,8.6
			c17.7-2.8,89.1-12.3,152.8-12.7c51.1-0.3,113,10.5,164.8,27.6C332.4,194.4,335.4,193.5,336.4,190.2"/>
		<path d="M327.4,8.7l-18.5,87h-0.6l-25.2-87h-93.5l-8.3,38.6H195l-16.9,79.5c2.6,0,5.1-0.1,7.7-0.1c13.2,0,26.3,0.5,39.4,1.5
			l17.5-82.2h0.4l25.3,87.4c25,4,50.2,9.9,76,17.7c0.1,0,0.3,0.1,0.4,0.1L374.8,8.7H327.4z"/>
		<path d="M174.6,47.3c5-26.8-8.5-42-63.7-42c-51.9,0-80.7,12.8-86.7,41.1c-1.6,7.4-1.3,16.5,4.3,22.6
			c14.2,15.3,74.9,21.4,80.5,29.6c1.1,1.6,1.6,3.6,1.1,5.9c-2.2,10.4-15,13.1-26.3,13.1c-7.2,0-11.7-1.8-14.5-5.2
			c-2.7-3.4-3-8.6-1.7-15.8H11.9c-3.8,22.4-4.9,42.1,51.6,44.8c27.9-6.7,55.5-11.1,83.1-13.3c12.2-7.2,18.9-17,21.4-28.6
			c2.7-12.6-1.1-19.6-5.1-24.1c-14-15.5-72.8-21.2-79.5-29.3c-1.3-1.4-1.5-3.9-1.1-5.9c1.4-6.7,8.4-11,19.9-11
			c6.8,0,12,0.9,15.2,3.6c3.4,2.7,4.7,7.2,3.6,14.4H174.6z"/>
	</g>
</g>
<path fill="#495965" d="M447.3,183.3c-34.7,0-28.5-19.7-28.5-19.7l3.4-13H366l-9.3,45.8c0,0,16,28.5,85.5,28.5
	c48.3,0,60.3-10,60.3-10c10.5-13.4,23.5-26.9,39.1-40l10.5-49.6c-10.8-10.9-26-14.5-44.3-15.9l0.1-0.6c17.5-1.8,35.8-3.9,49.8-11.9
	l14.4-68.6c0,0-14.5-28.2-82.7-28.2c-70.6,0-91.2,28.6-91.2,28.6l-8.3,38.2l53.8-0.1l1.6-7.5c0,0,3.8-17.6,31.9-17.6
	c29.9,0,28.3,17.1,28.3,17.1S509,94.4,460,94.4l-23.6,0l-7.7,35.5l30,0.1c0,0,34.9-0.5,26,30.5C478,183.8,447.3,183.3,447.3,183.3z"
	/>
<g>
	<path fill="#495965" d="M889.8,59.3c0,0-9.4,44.4-9.4,44.4c19.2,2.3,37.4,5,58.4,8.8l17.7-83.8c0,0-13.1-28.4-82.4-28.4
		c-69.1,0-94.4,28.5-94.4,28.5L765,98.3c19.2-0.7,38.3-0.5,59.9,0.7l8.4-39.7c0,0,3.7-17.5,31.9-17.5
		C893.5,41.7,889.9,59.3,889.8,59.3"/>
	<path fill="#495965" d="M810.7,165.8l7.6-34.8c-21.3-2.7-40.4-4-59.4-4.5l-14.8,69.9c0,0,13.1,28.5,82.2,28.5
		c69.5,0,94.6-28.5,94.6-28.5l9.1-43.2c-19.7-5.1-39.2-9.8-57.4-13.4l-5.6,26.1c0,0-4.9,17.6-31.7,17.6
		C807.1,183.3,810.7,165.8,810.7,165.8z"/>
</g>
<g>
	<path fill="#495965" d="M760.5,28.6c0,0-12.9-28.6-77.2-28.6c-69.5,0-94.4,29-94.4,29l-27.5,130c32.1-22.4,73.4-41.3,127.1-51.7
		c18.4-3.6,38.2-6.2,59.7-7.8C743.2,93,732.6,84,711,82.9c-41.8-2.9-76.9,15.9-76.9,15.9l8.4-39.7c0,0,3.6-17.5,32-17.5
		c30.1,0,24.2,20,24.2,20l0,0.1l54.6,0L760.5,28.6z"/>
	<path fill="#495965" d="M644.7,183.3c-28.4,0-24.6-17.5-24.6-17.5l3.9-18.4c-26.1,9.4-48.3,21.2-67.3,34.2l-3.2,14.8
		c0,0,13.4,28.3,82.4,28.3c69.2,0,94.4-28.3,94.4-28.3l14.8-70.2c-15.7,0.1-28.1,1-42.2,2.7c-4.7,0.6-14.6,1.7-19.2,2.4l-7.2,34.2
		C676.5,165.6,672.8,183.3,644.7,183.3z"/>
</g>
<g>
	<polygon fill="#495965" points="961.2,16.5 970.2,16.5 970.2,17.8 966.4,17.8 966.4,27.6 964.9,27.6 964.9,17.8 961.2,17.8 	"/>
	<g>
		<path fill="#495965" d="M980.7,27.6V21c0-0.3,0-1.7,0-2.8h0l-3.1,9.3h-1.5l-3.1-9.3h0c0,1,0,2.4,0,2.7v6.5h-1.4V16.5h2.1l3.2,9.4
			h0l3.1-9.4h2.1v11.1H980.7z"/>
	</g>
	<polygon fill="#495965" points="961.2,16.5 970.2,16.5 970.2,17.8 966.4,17.8 966.4,27.6 964.9,27.6 964.9,17.8 961.2,17.8 	"/>
	<g>
		<path fill="#495965" d="M980.7,27.6V21c0-0.3,0-1.7,0-2.8h0l-3.1,9.3h-1.5l-3.1-9.3h0c0,1,0,2.4,0,2.7v6.5h-1.4V16.5h2.1l3.2,9.4
			h0l3.1-9.4h2.1v11.1H980.7z"/>
	</g>
</g>
</svg>
