<?xml version="1.0" encoding="utf-8"?>
<!-- Generator: Adobe Illustrator 18.0.0, SVG Export Plug-In . SVG Version: 6.00 Build 0)  -->
<!DOCTYPE svg PUBLIC "-//W3C//DTD SVG 1.1//EN" "http://www.w3.org/Graphics/SVG/1.1/DTD/svg11.dtd">
<svg version="1.1" id="Layer_1" xmlns="http://www.w3.org/2000/svg" xmlns:xlink="http://www.w3.org/1999/xlink" x="0px" y="0px"
	 viewBox="0.1 276.9 612.4 238.1" enable-background="new 0.1 276.9 612.4 238.1" xml:space="preserve">
<g>
	<g>
		<g>
			<g>
				<path fill="#00558C" d="M241,513.2c33.4-33.9,113.9-3.3,121.9-4.2c4.2-0.5,6.1-6.6-2.4-9.9c-79.6-31.5-197.3-40-262.2-28.2
					c-7.1,1.9-9.4,8,1.4,9.4c11.3,1.4,40,3.8,81,13.2c22.6,5.2,39.5,12.7,54.1,20.7C237.3,515.6,239.2,515.1,241,513.2"/>
				<path fill="#C8102E" d="M370,483.1l6.6-32C251.4,412.9,131.3,415.3,5.2,460c-6.6,2.4-8.5,11.3,4.7,9.4
					c19.3-2.8,97.9-13.7,168.1-14.1c56-0.5,124.3,11.8,181.2,30.6C365.8,487.8,368.6,486.9,370,483.1z"/>
				<g>
					<path d="M360.1,280.7l-20.2,95.6H339l-27.8-95.6H208.6l-8.9,42.4h15.1l-18.4,87.6c2.8,0,5.6,0,8.5,0c14.6,0,28.7,0.5,43.3,1.9
						l19.3-90.4h0.5l27.8,96c27.3,4.2,55.1,10.8,83.3,19.3h0.5l33-156.8C412.4,280.7,360.1,280.7,360.1,280.7z"/>
					<path d="M192.1,323c5.6-29.2-9.4-46.1-70.1-46.1c-57,0-88.5,14.1-95.1,45.2c-1.9,8-1.4,18.4,4.7,25
						c15.5,16.9,82.4,23.5,88.5,32.5c1.4,1.9,1.9,3.8,1.4,6.6c-2.4,11.3-16.5,14.6-28.7,14.6c-8,0-12.7-1.9-16-5.6
						c-2.8-3.8-3.3-9.4-1.9-17.4H13.7c-4.2,24.5-5.2,46.1,57,49.4c30.6-7.5,61.2-12.2,91.3-14.6c13.2-8,20.7-18.8,23.5-31.5
						c2.8-13.7-0.9-21.7-5.6-26.4c-15.5-16.9-80-23.5-87.6-32c-1.4-1.4-1.9-4.2-1.4-6.6c1.4-7.5,9.4-12.2,22.1-12.2
						c7.5,0,13.2,0.9,16.9,3.8c3.8,2.8,5.2,8,3.8,16h58.4V323z"/>
				</g>
			</g>
		</g>
		<path fill="#5B6770" d="M430.8,280.7h142.6l-6.6,31.5h-81.9l-5.6,27.3H556l-6.6,31.5h-76.7l-5.6,27.3h82.9l-6.6,31.5H399.2
			L430.8,280.7z"/>
	</g>
	<g>
		<polygon fill="#5B6770" points="585.2,281.1 596.5,281.1 596.5,282.5 591.8,282.5 591.8,295.3 589.9,295.3 589.9,282.5 
			585.2,282.5 		"/>
		<g>
			<path fill="#5B6770" d="M610.1,295.3v-8.5c0-0.5,0-2.4,0-3.8l0,0l-3.8,11.8h-1.9l-3.8-11.8l0,0c0,1.4,0,3.3,0,3.3v8.5h-1.9v-14.1
				h2.8l4.2,11.8l0,0l3.8-11.8h2.8v14.1h-2.4V295.3z"/>
		</g>
		<polygon fill="#5B6770" points="585.2,281.1 596.5,281.1 596.5,282.5 591.8,282.5 591.8,295.3 589.9,295.3 589.9,282.5 
			585.2,282.5 		"/>
		<g>
			<path fill="#5B6770" d="M610.1,295.3v-8.5c0-0.5,0-2.4,0-3.8l0,0l-3.8,11.8h-1.9l-3.8-11.8l0,0c0,1.4,0,3.3,0,3.3v8.5h-1.9v-14.1
				h2.8l4.2,11.8l0,0l3.8-11.8h2.8v14.1h-2.4V295.3z"/>
		</g>
	</g>
</g>
</svg>
