<?xml version="1.0" encoding="utf-8"?>
<!-- Generator: Adobe Illustrator 18.0.0, SVG Export Plug-In . SVG Version: 6.00 Build 0)  -->
<!DOCTYPE svg PUBLIC "-//W3C//DTD SVG 1.1//EN" "http://www.w3.org/Graphics/SVG/1.1/DTD/svg11.dtd">
<svg version="1.1" id="Layer_1" xmlns="http://www.w3.org/2000/svg" xmlns:xlink="http://www.w3.org/1999/xlink" x="0px" y="0px"
	 viewBox="0.1 280.3 612.4 231.3" enable-background="new 0.1 280.3 612.4 231.3" xml:space="preserve">
<g>
	<g>
		<g>
			<path fill="#5B6770" d="M562.1,412.9c-18.8,15.1-46.2,25.2-83.2,25.2c-70.9,0-89.7-32.9-80.5-76.4c5.9-27.9,21.5-48.5,40.7-59.9
				c16-9.6,35.2-16,72.3-16c70.9,0,89.7,32.9,80.5,76.4C587.3,383.7,576.8,401.5,562.1,412.9z M504.1,318.2
				c-20.1,0-37.5,13.7-43.9,43.5c-6.4,29.7,5.5,43.5,25.6,43.5s37.5-13.7,43.9-43.5C536.1,332,524.2,318.2,504.1,318.2z"/>
		</g>
		<g>
			<path fill="#00558C" d="M234.2,509.9c32.5-32.9,110.7-3.2,118.5-4.1c4.1-0.5,5.9-6.4-2.3-9.6c-77.3-30.6-191.7-38.9-254.8-27.4
				c-6.9,1.8-9.1,7.8,1.8,9.1s38.9,3.7,78.7,12.8c22,5,38.4,12.3,52.6,20.1C230.5,512.2,232.4,511.7,234.2,509.9"/>
			<path fill="#C8102E" d="M359.5,480.6l6.4-31.1c-121.7-37-238.3-34.8-360.9,8.7c-6.4,2.3-8.2,11,4.6,9.1
				c18.8-2.7,95.1-13.3,163.3-13.7c54.4-0.5,120.8,11.4,176.1,29.7C355.4,485.2,358.1,484.3,359.5,480.6z"/>
			<g>
				<path d="M349.9,283.9l-19.7,92.9h-0.9l-27-92.9h-99.7l-8.7,41.2h14.6l-17.8,85.1c2.7,0,5.5,0,8.2,0c14.2,0,27.9,0.5,42.1,1.8
					l18.8-87.8h0.5l27,93.3c26.5,4.1,53.5,10.5,81,18.8h0.5l32-152.3C400.7,283.9,349.9,283.9,349.9,283.9z"/>
				<path d="M186.6,325.1c5.5-28.4-9.1-44.8-68.2-44.8c-55.3,0-86,13.7-92.4,43.9c-1.8,7.8-1.4,17.8,4.6,24.2
					c15.1,16.5,80,22.9,86,31.6c1.4,1.8,1.8,3.7,1.4,6.4c-2.3,11-16,14.2-27.9,14.2c-7.8,0-12.3-1.8-15.6-5.5
					c-2.7-3.7-3.2-9.1-1.8-16.9H13.3c-4.1,23.8-5,44.8,55.3,48c29.7-7.3,59.5-11.9,88.7-14.2c12.8-7.8,20.1-18.3,22.9-30.6
					c2.7-13.3-0.9-21-5.5-25.6c-15.1-16.5-77.8-22.9-85.1-31.1c-1.4-1.4-1.8-4.1-1.4-6.4c1.4-7.3,9.1-11.9,21.5-11.9
					c7.3,0,12.8,0.9,16.5,3.7c3.7,2.7,5,7.8,3.7,15.6h56.7V325.1z"/>
			</g>
		</g>
	</g>
	<g>
		<polygon fill="#5B6770" points="585.9,287.1 597.4,287.1 597.4,288.5 592.8,288.5 592.8,300.9 591,300.9 591,288.5 585.9,288.5 		
			"/>
		<g>
			<path fill="#5B6770" d="M610.2,300.9v-8.2c0-0.5,0-2.3,0-3.7l0,0l-3.7,11.4h-1.8L601,289l0,0c0,1.4,0,3.2,0,3.2v8.2h-1.8v-13.7
				h2.7l4.1,11.4l0,0l3.7-11.4h2.7v13.7h-2.3V300.9z"/>
		</g>
		<polygon fill="#5B6770" points="585.9,287.1 597.4,287.1 597.4,288.5 592.8,288.5 592.8,300.9 591,300.9 591,288.5 585.9,288.5 		
			"/>
		<g>
			<path fill="#5B6770" d="M610.2,300.9v-8.2c0-0.5,0-2.3,0-3.7l0,0l-3.7,11.4h-1.8L601,289l0,0c0,1.4,0,3.2,0,3.2v8.2h-1.8v-13.7
				h2.7l4.1,11.4l0,0l3.7-11.4h2.7v13.7h-2.3V300.9z"/>
		</g>
	</g>
</g>
</svg>
