<?xml version="1.0" encoding="UTF-8"?>
<!DOCTYPE svg PUBLIC "-//W3C//DTD SVG 1.1//EN" "http://www.w3.org/Graphics/SVG/1.1/DTD/svg11.dtd">
<svg version="1.2" width="41.65mm" height="13.39mm" viewBox="0 0 4165 1339" preserveAspectRatio="xMidYMid" fill-rule="evenodd" stroke-width="28.222" stroke-linejoin="round" xmlns="http://www.w3.org/2000/svg" xmlns:ooo="http://xml.openoffice.org/svg/export" xmlns:xlink="http://www.w3.org/1999/xlink" xmlns:presentation="http://sun.com/xmlns/staroffice/presentation" xmlns:smil="http://www.w3.org/2001/SMIL20/" xmlns:anim="urn:oasis:names:tc:opendocument:xmlns:animation:1.0" xml:space="preserve">
 <defs class="ClipPathGroup">
  <clipPath id="presentation_clip_path" clipPathUnits="userSpaceOnUse">
   <rect x="0" y="0" width="4165" height="1339"/>
  </clipPath>
  <clipPath id="presentation_clip_path_shrink" clipPathUnits="userSpaceOnUse">
   <rect x="4" y="1" width="4157" height="1337"/>
  </clipPath>
 </defs>
 <defs class="TextShapeIndex">
  <g ooo:slide="id1" ooo:id-list="id3 id4 id5 id6 id7 id8 id9 id10 id11"/>
 </defs>
 <defs class="EmbeddedBulletChars">
  <g id="bullet-char-template-57356" transform="scale(0.00048828125,-0.00048828125)">
   <path d="M 580,1141 L 1163,571 580,0 -4,571 580,1141 Z"/>
  </g>
  <g id="bullet-char-template-57354" transform="scale(0.00048828125,-0.00048828125)">
   <path d="M 8,1128 L 1137,1128 1137,0 8,0 8,1128 Z"/>
  </g>
  <g id="bullet-char-template-10146" transform="scale(0.00048828125,-0.00048828125)">
   <path d="M 174,0 L 602,739 174,1481 1456,739 174,0 Z M 1358,739 L 309,1346 659,739 1358,739 Z"/>
  </g>
  <g id="bullet-char-template-10132" transform="scale(0.00048828125,-0.00048828125)">
   <path d="M 2015,739 L 1276,0 717,0 1260,543 174,543 174,936 1260,936 717,1481 1274,1481 2015,739 Z"/>
  </g>
  <g id="bullet-char-template-10007" transform="scale(0.00048828125,-0.00048828125)">
   <path d="M 0,-2 C -7,14 -16,27 -25,37 L 356,567 C 262,823 215,952 215,954 215,979 228,992 255,992 264,992 276,990 289,987 310,991 331,999 354,1012 L 381,999 492,748 772,1049 836,1024 860,1049 C 881,1039 901,1025 922,1006 886,937 835,863 770,784 769,783 710,716 594,584 L 774,223 C 774,196 753,168 711,139 L 727,119 C 717,90 699,76 672,76 641,76 570,178 457,381 L 164,-76 C 142,-110 111,-127 72,-127 30,-127 9,-110 8,-76 1,-67 -2,-52 -2,-32 -2,-23 -1,-13 0,-2 Z"/>
  </g>
  <g id="bullet-char-template-10004" transform="scale(0.00048828125,-0.00048828125)">
   <path d="M 285,-33 C 182,-33 111,30 74,156 52,228 41,333 41,471 41,549 55,616 82,672 116,743 169,778 240,778 293,778 328,747 346,684 L 369,508 C 377,444 397,411 428,410 L 1163,1116 C 1174,1127 1196,1133 1229,1133 1271,1133 1292,1118 1292,1087 L 1292,965 C 1292,929 1282,901 1262,881 L 442,47 C 390,-6 338,-33 285,-33 Z"/>
  </g>
  <g id="bullet-char-template-9679" transform="scale(0.00048828125,-0.00048828125)">
   <path d="M 813,0 C 632,0 489,54 383,161 276,268 223,411 223,592 223,773 276,916 383,1023 489,1130 632,1184 813,1184 992,1184 1136,1130 1245,1023 1353,916 1407,772 1407,592 1407,412 1353,268 1245,161 1136,54 992,0 813,0 Z"/>
  </g>
  <g id="bullet-char-template-8226" transform="scale(0.00048828125,-0.00048828125)">
   <path d="M 346,457 C 273,457 209,483 155,535 101,586 74,649 74,723 74,796 101,859 155,911 209,963 273,989 346,989 419,989 480,963 531,910 582,859 608,796 608,723 608,648 583,586 532,535 482,483 420,457 346,457 Z"/>
  </g>
  <g id="bullet-char-template-8211" transform="scale(0.00048828125,-0.00048828125)">
   <path d="M -4,459 L 1135,459 1135,606 -4,606 -4,459 Z"/>
  </g>
  <g id="bullet-char-template-61548" transform="scale(0.00048828125,-0.00048828125)">
   <path d="M 173,740 C 173,903 231,1043 346,1159 462,1274 601,1332 765,1332 928,1332 1067,1274 1183,1159 1299,1043 1357,903 1357,740 1357,577 1299,437 1183,322 1067,206 928,148 765,148 601,148 462,206 346,322 231,437 173,577 173,740 Z"/>
  </g>
 </defs>
 <g>
  <g id="id2" class="Master_Slide">
   <g id="bg-id2" class="Background"/>
   <g id="bo-id2" class="BackgroundObjects"/>
  </g>
 </g>
 <g class="SlideGroup">
  <g>
   <g id="container-id1">
    <g id="id1" class="Slide" clip-path="url(#presentation_clip_path)">
     <g class="Page">
      <g class="com.sun.star.drawing.PolyPolygonShape">
       <g id="id3">
        <rect class="BoundingBox" stroke="none" fill="none" x="2359" y="20" width="1589" height="838"/>
        <path fill="rgb(221,221,221)" stroke="none" d="M 2359,21 L 2697,21 2697,545 2700,545 2967,21 3361,21 3404,545 3406,545 3629,21 3946,21 3570,856 3126,856 3084,349 3081,349 2822,856 2377,856 2359,21 Z"/>
       </g>
      </g>
      <g class="com.sun.star.drawing.ClosedBezierShape">
       <g id="id4">
        <rect class="BoundingBox" stroke="none" fill="none" x="518" y="1059" width="1543" height="279"/>
        <path fill="rgb(0,85,140)" stroke="none" d="M 2040,1303 C 2063,1300 2074,1266 2026,1247 1579,1070 918,1022 553,1088 513,1099 500,1133 561,1141 624,1149 786,1162 1016,1215 1143,1244 1238,1287 1320,1332 1333,1340 1344,1337 1354,1326 1542,1136 1995,1308 2040,1303 Z"/>
       </g>
      </g>
      <g class="com.sun.star.drawing.ClosedBezierShape">
       <g id="id5">
        <rect class="BoundingBox" stroke="none" fill="none" x="0" y="827" width="2117" height="353"/>
        <path fill="rgb(200,16,46)" stroke="none" d="M 2079,1157 L 2115,977 C 1413,763 738,776 29,1028 -8,1041 -19,1091 56,1081 164,1065 606,1004 1000,1001 1315,999 1698,1067 2019,1173 2056,1184 2071,1178 2079,1157 Z"/>
       </g>
      </g>
      <g class="com.sun.star.drawing.ClosedBezierShape">
       <g id="id6">
        <rect class="BoundingBox" stroke="none" fill="none" x="1102" y="20" width="1216" height="883"/>
        <path fill="rgb(153,153,153)" stroke="none" d="M 1910,558 L 1905,558 1749,21 1172,21 1122,259 1206,259 1103,750 1151,750 C 1233,750 1312,753 1394,761 L 1503,254 1505,254 1661,792 C 1815,816 1971,853 2129,901 L 2131,901 2316,21 2024,21 1910,558 Z"/>
       </g>
      </g>
      <g class="com.sun.star.drawing.ClosedBezierShape">
       <g id="id7">
        <rect class="BoundingBox" stroke="none" fill="none" x="67" y="0" width="1019" height="845"/>
        <path fill="rgb(153,153,153)" stroke="none" d="M 1079,259 C 1111,95 1026,0 685,0 365,0 188,79 151,254 140,299 143,357 177,394 265,489 640,526 675,576 683,587 685,598 683,613 669,676 590,694 521,694 476,694 450,684 431,664 415,643 413,611 421,566 L 77,566 C 53,702 48,824 397,843 569,800 741,774 910,761 984,716 1026,656 1042,584 1058,508 1037,463 1011,436 923,341 561,304 519,256 511,249 508,233 511,219 519,177 563,151 635,151 677,151 709,156 730,172 751,188 759,217 751,262 L 1079,262 1079,259 Z"/>
       </g>
      </g>
      <g class="com.sun.star.drawing.PolyPolygonShape">
       <g id="id8">
        <rect class="BoundingBox" stroke="none" fill="none" x="4012" y="23" width="66" height="81"/>
        <path fill="rgb(91,103,112)" stroke="none" d="M 4012,24 L 4076,24 4076,32 4049,32 4049,103 4039,103 4039,32 4012,32 4012,24 Z"/>
       </g>
      </g>
      <g class="com.sun.star.drawing.PolyPolygonShape">
       <g id="id9">
        <rect class="BoundingBox" stroke="none" fill="none" x="4089" y="20" width="76" height="81"/>
        <path fill="rgb(91,103,112)" stroke="none" d="M 4152,56 L 4152,34 4131,100 4121,100 4100,34 4100,53 4100,100 4089,100 4089,21 4105,21 4129,87 4150,21 4163,21 4163,100 4152,100 4152,56 Z"/>
       </g>
      </g>
      <g class="com.sun.star.drawing.PolyPolygonShape">
       <g id="id10">
        <rect class="BoundingBox" stroke="none" fill="none" x="4012" y="23" width="66" height="81"/>
        <path fill="rgb(91,103,112)" stroke="none" d="M 4012,24 L 4076,24 4076,32 4049,32 4049,103 4039,103 4039,32 4012,32 4012,24 Z"/>
       </g>
      </g>
      <g class="com.sun.star.drawing.PolyPolygonShape">
       <g id="id11">
        <rect class="BoundingBox" stroke="none" fill="none" x="4089" y="20" width="76" height="81"/>
        <path fill="rgb(91,103,112)" stroke="none" d="M 4152,56 L 4152,34 4131,100 4121,100 4100,34 4100,53 4100,100 4089,100 4089,21 4105,21 4129,87 4150,21 4163,21 4163,100 4152,100 4152,56 Z"/>
       </g>
      </g>
     </g>
    </g>
   </g>
  </g>
 </g>
</svg>