<?xml version="1.0" encoding="UTF-8"?>
<!-- Generator: Adobe Illustrator 12.0.0, SVG Export Plug-In . SVG Version: 6.00 Build 51448)  -->
<!DOCTYPE svg PUBLIC "-//W3C//DTD SVG 1.1//EN" "http://www.w3.org/Graphics/SVG/1.1/DTD/svg11.dtd">
<svg version="1.1" id="Layer_1" xmlns="http://www.w3.org/2000/svg" xmlns:xlink="http://www.w3.org/1999/xlink" width="268" height="254" viewBox="-103.677 21.365 268 254" overflow="visible" enable-background="new -103.677 21.365 268 254" xml:space="preserve">
<g>
	<path fill="#EF3E33" d="M-93.138,231.08c0-72.054,58.392-130.447,130.446-130.447c47.316,0,88.752,25.201,111.604,62.907   c-23.532-13.746-50.929-21.62-80.169-21.62c-77.147,0-141.479,54.858-156.119,127.698   C-91.123,257.433-93.138,244.493-93.138,231.08"/>
	<g>
		<path d="M-42.685,56.312h-22.421v10.255h8.446v10.698c-1.314,0.627-3.179,0.938-5.119,0.938c-10.558,0-18.075-6.442-18.075-17.077    c0-12.649,9.62-17.529,21.331-17.529c3.426,0,8.693,0.84,13.197,3.47l1.163-11.775c-5.279-2.036-12.798-2.416-16.364-2.416    c-19.865,0-34.228,7.845-34.228,28.249c0,20.481,16.689,27.774,31.115,27.774c4.965,0,11.796-0.151,20.955-2.479V56.312"/>
		<rect x="-37.644" y="29.776" width="13.963" height="58.175"/>
		<path d="M3.567,79.117c-6.443,0-9.072-5.342-9.072-11.321c0-6.056,2.628-11.41,9.072-11.41c6.441,0,9.08,5.356,9.08,11.41    C12.647,73.775,10.008,79.117,3.567,79.117 M3.567,88.889c13.347,0,23.496-7.745,23.496-21.095    c0-13.433-10.149-21.19-23.496-21.19c-13.35,0-23.509,7.758-23.509,21.19C-19.942,81.146-9.783,88.889,3.567,88.889z"/>
		<path d="M59.837,67.332c0,6.443-3.169,10.862-8.47,10.862c-4.653,0-8.512-4.418-8.512-10.332c0-6.053,3.407-10.537,8.512-10.537    C56.809,57.322,59.837,61.979,59.837,67.332 M28.884,87.963h12.864v-7.207h0.16c1.787,4.504,7.456,8.133,13.898,8.133    c12.023,0,18.467-9.909,18.467-21.86c0-9.781-6.122-20.425-17.305-20.425c-5.592,0-10.323,1.638-13.887,6.152h-0.161V29.786    H28.884V87.963z"/>
		<path d="M88.246,75.164c0-3.879,3.717-5.344,8.457-5.344c2.08,0,4.116,0.152,5.901,0.227c0,4.742-3.348,9.544-8.615,9.544    C90.72,79.582,88.246,77.965,88.246,75.164 M116.408,87.963c-0.636-3.167-0.775-6.355-0.775-9.534V63.378    c0-12.336-8.92-16.775-19.251-16.775c-5.97,0-11.175,0.852-16.142,2.878l0.238,9.458c3.888-2.166,8.394-3.017,12.885-3.017    c5.042,0,9.158,1.486,9.241,6.992c-1.785-0.313-4.274-0.548-6.526-0.548c-7.444,0-20.878,1.487-20.878,13.821    c0,8.77,7.139,12.702,15.134,12.702c5.744,0,9.62-2.24,12.801-7.281h0.151c0,2.089,0.236,4.192,0.312,6.355H116.408    L116.408,87.963z"/>
		<rect x="121.513" y="29.776" width="13.963" height="58.175"/>
		<g enable-background="new    ">
			<path d="M151.483,28.884c1.151,0,2.277,0.295,3.371,0.886c1.096,0.591,1.95,1.438,2.563,2.537     c0.611,1.099,0.917,2.247,0.917,3.44c0,1.181-0.301,2.318-0.903,3.41c-0.604,1.09-1.447,1.937-2.534,2.539     c-1.088,0.603-2.225,0.906-3.413,0.906c-1.185,0-2.324-0.303-3.408-0.906c-1.088-0.602-1.933-1.449-2.539-2.539     c-0.608-1.092-0.908-2.229-0.908-3.41c0-1.193,0.306-2.341,0.922-3.44c0.613-1.099,1.47-1.945,2.565-2.537     C149.212,29.179,150.334,28.884,151.483,28.884z M151.483,30.017c-0.961,0-1.898,0.248-2.812,0.741     c-0.91,0.494-1.625,1.201-2.14,2.119c-0.516,0.918-0.773,1.875-0.773,2.869c0,0.99,0.254,1.937,0.759,2.843     c0.506,0.905,1.214,1.613,2.122,2.119c0.91,0.506,1.857,0.758,2.844,0.758c0.99,0,1.938-0.252,2.847-0.758     c0.907-0.506,1.613-1.214,2.119-2.119c0.501-0.906,0.753-1.853,0.753-2.843c0-0.994-0.256-1.951-0.77-2.869     c-0.512-0.918-1.224-1.625-2.139-2.119C153.377,30.264,152.443,30.017,151.483,30.017z M148.479,39.541V32.15h2.536     c0.868,0,1.493,0.068,1.883,0.206c0.387,0.136,0.695,0.375,0.927,0.714c0.23,0.341,0.346,0.702,0.346,1.084     c0,0.54-0.194,1.01-0.579,1.41c-0.386,0.401-0.899,0.627-1.536,0.673c0.259,0.109,0.47,0.24,0.629,0.392     c0.296,0.292,0.657,0.78,1.087,1.465l0.9,1.447h-1.456l-0.653-1.165c-0.516-0.915-0.93-1.489-1.241-1.72     c-0.22-0.17-0.537-0.257-0.954-0.26h-0.698v3.144H148.479z M149.669,35.379h1.446c0.688,0,1.163-0.104,1.412-0.309     c0.253-0.206,0.379-0.479,0.379-0.819c0-0.218-0.062-0.413-0.183-0.586s-0.29-0.301-0.505-0.387     c-0.213-0.084-0.613-0.126-1.196-0.126h-1.354V35.379z"/>
		</g>
	</g>
</g>
<rect x="-102.677" y="17.365" fill="none" width="264" height="256"/>
</svg>