<?xml version="1.0" encoding="UTF-8" standalone="no"?>
<!-- Created with Inkscape (http://www.inkscape.org/) -->
<svg xmlns:dc="http://purl.org/dc/elements/1.1/" xmlns:cc="http://creativecommons.org/ns#" xmlns:rdf="http://www.w3.org/1999/02/22-rdf-syntax-ns#" xmlns:svg="http://www.w3.org/2000/svg" xmlns="http://www.w3.org/2000/svg" xmlns:sodipodi="http://sodipodi.sourceforge.net/DTD/sodipodi-0.dtd" xmlns:inkscape="http://www.inkscape.org/namespaces/inkscape" width="1127.8849" height="134.09375" id="svg2" version="1.1" inkscape:version="0.48.4 r9939" sodipodi:docname="Up Close &amp; Personal movie logo.svg">
  <defs id="defs4"/>
  <sodipodi:namedview id="base" pagecolor="#ffffff" bordercolor="#666666" borderopacity="1.0" inkscape:pageopacity="0" inkscape:pageshadow="2" inkscape:zoom="1.4" inkscape:cx="647.78946" inkscape:cy="20.333699" inkscape:document-units="px" inkscape:current-layer="layer1" showgrid="false" inkscape:window-width="1366" inkscape:window-height="706" inkscape:window-x="-8" inkscape:window-y="-8" inkscape:window-maximized="1" fit-margin-top="0" fit-margin-left="0" fit-margin-right="0" fit-margin-bottom="0"/>
  <metadata id="metadata7">
    <rdf:RDF>
      <cc:Work rdf:about="">
        <dc:format>image/svg+xml</dc:format>
        <dc:type rdf:resource="http://purl.org/dc/dcmitype/StillImage"/>
        <dc:title/>
      </cc:Work>
    </rdf:RDF>
  </metadata>
  <g inkscape:label="Layer 1" inkscape:groupmode="layer" id="layer1" transform="translate(-146.64285,-738.648)">
    <g transform="translate(-15.549817,625.38474)" id="layer1-6" inkscape:label="Layer 1">
      <path clip-path="none" clip-rule="evenodd" d="m 490.59321,113.26326 h 142.50194 v 134.0908 H 490.59321 v -134.0908 z m 89.76769,18.67519 c -0.6095,-0.0975 -1.24339,-0.19504 -1.92603,-0.34132 l -0.75579,-0.0975 c -1.0971,-0.14628 -2.21859,-0.26818 -3.34008,-0.3657 -0.7314,-0.0975 -1.51157,-0.0975 -2.26735,-0.17066 -1.34091,-0.0975 -2.65744,-0.1219 -3.94958,-0.1219 -0.58513,0 -0.90207,0 -1.48719,0 -1.07273,0.0244 -2.14546,0.0975 -3.16942,0.14628 -0.6095,0.0488 -1.17025,0.0975 -1.73099,0.14628 -0.87769,0.0975 -1.70661,0.17066 -2.51116,0.29256 l -0.68264,0.0731 -0.78016,0.0975 -0.95083,0.17066 c -0.41446,0.0731 -0.82893,0.14628 -1.21901,0.19504 -0.58512,0.0975 -1.12148,0.24381 -1.65785,0.34133 -3.38884,0.70702 -6.53388,1.65785 -9.41073,2.80371 -1.48719,0.58513 -2.92562,1.19463 -4.26653,1.85289 -1.14587,0.56075 -2.21859,1.12149 -3.26694,1.73099 -1.02396,0.58513 -1.99917,1.19463 -2.94999,1.82852 -0.53637,0.34132 -1.07273,0.70702 -1.56033,1.07272 -0.46323,0.34132 -0.90207,0.65827 -1.31653,0.97521 -0.92645,0.70702 -1.77975,1.41405 -2.5843,2.12107 -0.75578,0.68264 -1.51157,1.36529 -2.19421,2.07231 -0.6095,0.58513 -1.21901,1.19463 -1.75537,1.82851 -0.58512,0.63389 -1.14587,1.29215 -1.70661,1.95041 -0.58512,0.73141 -1.17025,1.46281 -1.73099,2.24298 -0.39008,0.56074 -0.80455,1.14586 -1.19463,1.75537 -0.29256,0.39008 -0.51198,0.80454 -0.78016,1.21901 -1.51157,2.43801 -2.80372,5.04669 -3.87645,7.82602 -1.29214,3.46198 -2.29173,7.16776 -2.80371,11.11735 -0.17066,1.24338 -0.29256,2.51115 -0.3657,3.8033 -0.0731,0.99959 -0.0975,2.02355 -0.0975,3.02314 0,0.78016 0,1.51157 0.0244,2.26735 0.0975,0.78017 0.14628,1.53595 0.21942,2.31611 l 0.0731,0.53637 c 0.1219,0.90206 0.21942,1.80413 0.41446,2.65743 0.0731,0.36571 0.1219,0.70703 0.19504,1.04835 0.17066,0.7314 0.34132,1.46281 0.53636,2.16983 0.24381,0.90207 0.51199,1.82851 0.80455,2.7062 0.39008,1.09711 0.75578,2.16983 1.21901,3.1938 0.68264,1.63347 1.41404,3.21818 2.21859,4.68099 0.51198,0.90206 0.95082,1.73099 1.46281,2.53553 0.43884,0.68264 0.8533,1.29215 1.26777,1.87727 0.56074,0.85331 1.12148,1.60909 1.70661,2.31611 0.6095,0.78017 1.219,1.51157 1.85289,2.2186 0.75578,0.87768 1.51157,1.68223 2.24297,2.41363 l 0.39008,0.41446 c 0.60951,0.56075 1.29215,1.21901 2.04793,1.87728 0.51199,0.43884 1.07273,0.87768 1.65785,1.3409 0.53637,0.43885 1.09711,0.87769 1.70661,1.31653 0.70703,0.51198 1.46281,1.04835 2.26736,1.56033 0.87768,0.56074 1.75537,1.07273 2.70619,1.63347 1.87727,1.02397 3.97397,2.04793 6.24132,2.95 0.8533,0.3657 1.73099,0.68264 2.65744,0.99958 0.92644,0.29257 1.82851,0.60951 2.80371,0.87769 1.60909,0.46322 3.36446,0.90206 5.16859,1.21901 1.46281,0.29256 2.97438,0.53636 4.53471,0.70702 1.56033,0.21942 3.1938,0.34132 4.87603,0.43884 0.78016,0.0244 1.60909,0.0488 2.46239,0.0975 0.3657,0 0.75579,0 1.14587,0 2.99876,0 5.77809,-0.1219 8.33801,-0.31694 l 0.51198,-0.0488 c 1.02397,-0.0975 2.02355,-0.19504 2.95,-0.31694 1.46281,-0.19504 2.87686,-0.39008 4.21776,-0.63388 0.82893,-0.17067 1.63347,-0.31695 2.43802,-0.51199 1.21901,-0.2438 2.38925,-0.51198 3.51074,-0.82892 0.80454,-0.21942 1.60909,-0.43884 2.38925,-0.68265 0.92645,-0.26818 1.75537,-0.56074 2.60868,-0.8533 l 0.80454,-0.26818 c 0.41447,-0.17066 0.97521,-0.34132 1.63347,-0.60951 0.82893,-0.34132 1.87727,-0.75578 3.0719,-1.24338 0.68265,-0.29257 1.46281,-0.63389 2.24297,-0.97521 0.68265,-0.34132 1.41405,-0.68264 2.14546,-1.07273 0.31694,-0.1219 0.63388,-0.26818 0.95082,-0.43884 v -18.28511 c -0.21942,0.14628 -0.46322,0.29257 -0.65826,0.41447 l -1.26777,0.7314 c -1.24339,0.78016 -2.43801,1.48719 -3.65702,2.12107 -1.31653,0.73141 -2.63306,1.41405 -3.90082,1.99917 -2.26736,1.07273 -4.41281,1.9748 -6.53388,2.73058 -3.97397,1.41405 -7.65537,2.31611 -10.87355,2.90124 -0.39008,0.0731 -0.75578,0.1219 -1.14586,0.19504 -0.87769,0.1219 -1.73099,0.21942 -2.55992,0.31694 -1.26777,0.14628 -2.43801,0.21942 -3.53512,0.26818 -0.68264,0.0244 -1.31653,0.0488 -1.92603,0.0488 -1.29215,0 -2.63306,-0.0244 -3.97396,-0.14628 -1.60909,-0.0975 -3.21818,-0.26818 -4.85165,-0.56074 -2.65744,-0.43884 -5.31487,-1.07273 -7.92355,-2.04793 -0.3657,-0.1219 -0.75578,-0.29257 -1.12149,-0.43885 -0.2438,-0.0975 -0.51198,-0.19504 -0.75578,-0.29256 -0.41446,-0.19504 -0.85331,-0.39008 -1.26777,-0.58512 -0.87768,-0.41446 -1.77975,-0.85331 -2.65743,-1.34091 -0.41447,-0.26818 -0.85331,-0.53636 -1.26777,-0.80454 -0.43884,-0.24381 -0.87769,-0.56075 -1.29215,-0.82893 -0.53636,-0.39008 -1.07272,-0.75578 -1.60909,-1.17025 -0.46322,-0.39008 -0.9752,-0.80454 -1.41405,-1.19462 l -0.6095,-0.53637 -0.29256,-0.26818 -0.17066,-0.17066 -0.21942,-0.21942 c -0.85331,-0.82892 -1.58471,-1.63347 -2.29174,-2.46239 -0.3657,-0.46323 -0.7314,-0.92645 -1.07272,-1.38967 -0.34133,-0.48761 -0.65827,-0.92645 -0.95083,-1.36529 -0.29256,-0.43884 -0.53636,-0.85331 -0.80454,-1.26777 -0.36571,-0.65826 -0.70703,-1.31653 -1.02397,-1.95041 -0.26818,-0.56074 -0.51198,-1.07273 -0.7314,-1.63347 -0.41447,-0.92644 -0.73141,-1.85289 -1.02397,-2.7062 -0.21942,-0.68264 -0.39008,-1.38966 -0.56074,-2.04793 -0.48761,-1.90165 -0.75579,-3.65702 -0.90207,-5.14421 -0.0488,-0.56074 -0.0731,-1.07272 -0.0975,-1.58471 -0.0244,-0.7314 -0.0488,-1.36529 -0.0488,-1.90165 0,-0.31694 0.0244,-0.70702 0.0244,-1.14587 0.0488,-1.04834 0.1219,-2.36487 0.34132,-3.87644 0.14628,-0.90206 0.31694,-1.87727 0.56075,-2.95 0.14628,-0.65826 0.3657,-1.31652 0.58512,-2.07231 0.19504,-0.63388 0.41446,-1.29215 0.70702,-1.97479 0.14628,-0.46322 0.34133,-0.87768 0.53637,-1.36529 0.26818,-0.6095 0.58512,-1.219 0.90206,-1.85289 0.21942,-0.46322 0.51198,-0.95082 0.75579,-1.41405 0.6095,-1.02396 1.29214,-2.07231 2.07231,-3.12066 0.26818,-0.34132 0.56074,-0.70702 0.87768,-1.0971 0.36571,-0.43884 0.78017,-0.92645 1.21901,-1.38967 0.21942,-0.2438 0.41446,-0.4876 0.65826,-0.70702 3.36446,-3.34008 7.09463,-5.85124 11.01983,-7.63099 0.6095,-0.29256 1.21901,-0.53636 1.82851,-0.78016 0.63388,-0.21943 1.24339,-0.46323 1.85289,-0.63389 0.70703,-0.26818 1.38967,-0.46322 2.04793,-0.65826 0.65827,-0.19504 1.29215,-0.34132 1.92603,-0.46322 0.68265,-0.17067 1.29215,-0.29257 1.95042,-0.41447 0.68264,-0.1219 1.41404,-0.2438 2.09669,-0.31694 0.7314,-0.0975 1.41405,-0.19504 2.09669,-0.2438 1.34091,-0.0975 2.65744,-0.17066 3.9252,-0.17066 h 1.24339 c 0.97521,0.0244 1.92603,0.0731 2.80372,0.0975 0.63388,0.0488 1.24339,0.0975 1.82851,0.17066 1.17025,0.0975 2.26735,0.2438 3.36446,0.39008 0.92644,0.14628 1.82851,0.31694 2.68181,0.48761 1.31653,0.2438 2.51116,0.53636 3.55951,0.82892 0.7314,0.17066 1.36528,0.39008 1.95041,0.53636 0.87768,0.24381 1.63347,0.51199 2.24297,0.70703 0.99959,0.3657 1.56033,0.56074 1.56033,0.56074 0.90207,0.31694 1.77975,0.68265 2.65744,1.02397 1.14586,0.4876 2.26735,0.99958 3.34008,1.43843 0.87768,0.41446 1.73099,0.82892 2.48677,1.19462 0.68264,0.34133 1.29215,0.68265 1.85289,0.95083 0.99959,0.51198 1.85289,0.9752 2.53554,1.34091 l 1.87727,1.04834 V 139.0087 c 0,0 -1.12149,-0.46323 -3.04752,-1.19463 -0.87769,-0.34132 -1.87727,-0.70702 -3.02314,-1.09711 -0.65826,-0.2438 -1.31653,-0.46322 -2.02355,-0.7314 -0.58512,-0.19504 -1.17025,-0.39008 -1.75537,-0.58512 -0.68265,-0.21943 -1.38967,-0.46323 -2.14545,-0.68265 -0.53637,-0.14628 -1.07273,-0.34132 -1.60909,-0.46322 l -0.48761,-0.14628 c -0.53636,-0.14628 -1.0971,-0.31694 -1.63347,-0.43884 -0.63388,-0.19505 -1.31652,-0.36571 -1.97479,-0.51199 -0.41446,-0.1219 -0.87768,-0.21942 -1.29215,-0.31694 -0.70702,-0.17066 -1.43842,-0.34132 -2.16983,-0.46322 -0.7314,-0.17066 -1.48719,-0.31694 -2.24297,-0.43885" id="path78040" style="fill-rule:evenodd" inkscape:connector-curvature="0"/>
      <path style="fill-rule:evenodd" clip-path="none" d="m 164.1875,0 0,134.09375 142.5,0 0,-134.09375 -142.5,0 z m 37.375,18.8125 31.375,0 c 16.84668,0 24.3125,8.84375 24.3125,8.84375 0,0 6.84375,5.89221 6.84375,16.15625 0,10.14214 -4.64535,14.3641 -5.9375,15.65625 -2.82809,2.80371 -6.4375,4.46875 -6.4375,4.46875 0,0 8.02242,1.67867 14.3125,7.96875 7.38718,7.3628 6.84375,17.03125 6.84375,17.03125 0,0 0.5348,9.19081 -7.4375,17.1875 -9.80082,9.77644 -27.5,9.28125 -27.5,9.28125 l -36.375,0 0,-96.59375 z m 17.3125,15.0625 0,25 8.3125,0 c 0,0 0.51859,0.01755 1.25,-0.03125 0.58512,0 1.2655,-0.0381 1.875,-0.0625 1.70661,-0.1219 4.06575,-0.40424 6.40625,-1.0625 0.46322,-0.0975 0.94302,-0.23559 1.40625,-0.40625 1.82851,-0.68264 3.63472,-1.62785 5,-2.96875 1.09711,-1.07273 1.79365,-2.27413 2.28125,-3.46875 0.58512,-1.41405 0.80186,-2.79917 0.875,-3.75 0.0731,-0.87768 0.0937,-1.40625 0.0937,-1.40625 l 0,-1.0625 c -0.0731,-1.09711 -0.30295,-2.85589 -1.15625,-4.5625 -0.41447,-0.80454 -0.99422,-1.61922 -1.75,-2.375 -0.92645,-0.90207 -2.0935,-1.64426 -3.3125,-2.15625 -2.3405,-1.02396 -4.97577,-1.4406 -7.21875,-1.5625 -0.99958,-0.0731 -1.92485,-0.125 -2.65625,-0.125 l -11.40625,0 z m 0,40.09375 0,26.34375 17.09375,0 c 0,0 0.37675,-0.007 0.9375,-0.0312 0.58512,0 1.3998,-0.0588 2.375,-0.15625 1.85289,-0.14628 4.29138,-0.50796 6.65625,-1.3125 2.16983,-0.70703 4.26591,-1.79029 5.875,-3.375 0.6095,-0.63389 1.0924,-1.27237 1.53125,-1.90625 1.3409,-2.12108 1.65247,-4.28099 1.75,-5.5 0.0244,-0.53636 0.0312,-0.84375 0.0312,-0.84375 0,0 0.0244,-0.21054 0,-0.625 -0.0244,-0.51199 -0.0824,-1.51415 -0.375,-2.5625 -0.31694,-1.26777 -0.89602,-2.71473 -1.96875,-4.03125 -0.21942,-0.2438 -0.41932,-0.47495 -0.6875,-0.71875 -0.43884,-0.4876 -0.93926,-0.95366 -1.5,-1.34375 -0.95083,-0.70702 -2.04163,-1.26926 -3.1875,-1.78125 -1.56033,-0.65826 -3.2546,-1.16555 -5.15625,-1.53125 -0.99959,-0.19505 -1.9829,-0.3156 -3.03125,-0.4375 -0.63388,-0.0488 -1.29298,-0.07622 -2,-0.125 -0.56074,-0.0244 -1.203,-0.0625 -1.8125,-0.0625 l -16.53125,0 z" transform="translate(162.19267,113.26326)" id="path78050" inkscape:connector-curvature="0"/>
      <path style="fill-rule:evenodd" clip-path="none" d="m 0,0 0,134.09375 142.5,0 L 142.5,0 0,0 z m 37.375,18.8125 31.34375,0 c 16.87106,0 24.375,8.84375 24.375,8.84375 0,0 6.78125,5.89221 6.78125,16.15625 0,10.14214 -4.62097,14.3641 -5.9375,15.65625 -2.77933,2.80371 -6.375,4.46875 -6.375,4.46875 0,0 8.01555,1.67867 14.28125,7.96875 7.38718,7.3628 6.78125,17.03125 6.78125,17.03125 0,0 0.5973,9.19081 -7.375,17.1875 -9.77644,9.77644 -27.53125,9.28125 -27.53125,9.28125 l -36.34375,0 0,-96.59375 z m 17.3125,15.0625 0,25 8.3125,0 c 0,0 0.54984,0.01755 1.28125,-0.03125 0.56074,0 1.23425,-0.0381 1.84375,-0.0625 1.70661,-0.1219 4.06575,-0.40424 6.40625,-1.0625 0.4876,-0.0975 0.93615,-0.23559 1.375,-0.40625 1.82851,-0.68264 3.61034,-1.62785 5,-2.96875 1.09711,-1.07273 1.84928,-2.27413 2.3125,-3.46875 0.6095,-1.41405 0.80186,-2.79917 0.875,-3.75 0.0975,-0.87768 0.09375,-1.40625 0.09375,-1.40625 0,0 -0.0137,-0.40424 -0.0625,-1.0625 C 82.0762,43.55914 81.8533,41.80036 81,40.09375 80.58553,39.28921 80.03016,38.47453 79.25,37.71875 78.32355,36.81668 77.219,36.07449 76,35.5625 73.6595,34.53854 70.98611,34.1219 68.71875,34 67.74355,33.9269 66.88078,33.875 66.125,33.875 l -11.4375,0 z m 0,40.09375 0,26.34375 17.125,0 c 0,0 0.33863,-0.007 0.875,-0.0312 0.58512,0 1.3998,-0.0588 2.375,-0.15625 1.87727,-0.14628 4.3295,-0.50796 6.71875,-1.3125 2.12107,-0.70703 4.20341,-1.79029 5.8125,-3.375 0.63388,-0.63389 1.14116,-1.27237 1.53125,-1.90625 1.3409,-2.12108 1.67686,-4.28099 1.75,-5.5 0.0488,-0.53636 0.0625,-0.84375 0.0625,-0.84375 0,0 -0.0069,-0.21054 -0.03125,-0.625 0,-0.51199 -0.05122,-1.51415 -0.34375,-2.5625 -0.31694,-1.26777 -0.92727,-2.71473 -2,-4.03125 C 88.36746,79.72495 88.14318,79.4938 87.875,79.25 87.43616,78.7624 86.93574,78.29634 86.375,77.90625 85.44855,77.19923 84.36462,76.63699 83.21875,76.125 81.65842,75.46674 79.93977,74.95945 78.0625,74.59375 77.06291,74.3987 76.07273,74.27815 75,74.15625 c -0.63388,-0.0488 -1.26173,-0.07622 -1.96875,-0.125 -0.56074,-0.0244 -1.203,-0.0625 -1.8125,-0.0625 l -16.53125,0 z" transform="translate(162.19267,113.26326)" id="path78056" inkscape:connector-curvature="0"/>
      <path clip-path="none" clip-rule="evenodd" d="m 700.42468,150.59735 16.24606,36.55193 h -31.36883 l 15.12277,-36.55193 z m 5.34964,-22.18918 h -10.20285 l -43.35442,101.53377 h 14.7923 l 12.74578,-29.74991 h 42.89137 l 13.47189,29.74991 h 14.79275 L 705.77432,128.40817 z" id="path78062" style="fill-rule:evenodd" inkscape:connector-curvature="0"/>
      <path style="fill-rule:evenodd" clip-path="none" d="m 760.99735,129.05259 0,100.89858 14.51651,0 0,-78.6363 0.29636,0 31.06543,39.10642 2.37011,0 31.06499,-39.10642 0.2965,0 0,78.6363 14.51681,0 0,-100.89858 -13.45839,0 -33.60483,41.34976 -33.4354,-41.34976 -13.62809,0 z" id="polygon78064" inkscape:connector-curvature="0"/>
      <path style="fill-rule:evenodd" clip-path="none" d="m 883.73457,129.05259 0,100.89858 58.57546,0 0,-13.03513 -44.05813,0 0,-31.40432 41.26486,0 0,-13.03522 -41.26486,0 0,-30.43068 42.74615,0 0,-12.99323 -57.26348,0 z" id="polygon78066" inkscape:connector-curvature="0"/>
      <path clip-path="none" clip-rule="evenodd" d="m 983.56374,141.45103 h 9.31134 c 14.06602,0 19.71222,5.77812 19.84502,15.22203 0.1317,8.45291 -4.2924,16.44318 -19.84502,16.44318 h -9.31134 v -31.66521 m -14.49522,-12.41521 v 100.93952 h 14.49522 v -43.81609 h 6.07577 c 7.39642,0 13.47189,2.34425 26.77809,23.0472 l 13.3413,20.76889 h 17.3017 c -6.9674,-9.6414 -9.4434,-13.04224 -13.7368,-20.00933 -7.7266,-12.58071 -13.3391,-21.8921 -22.5189,-27.96726 10.7966,-4.29297 16.8725,-13.00945 16.8725,-24.69869 0,-17.49973 -12.7125,-28.26424 -33.15143,-28.26424 h -25.45745 z" id="path78068" style="fill-rule:evenodd" inkscape:connector-curvature="0"/>
      <path style="fill-rule:evenodd" clip-path="none" d="m 1061.9592,129.01015 0,100.94102 14.4712,0 0,-100.94102 -14.4712,0 z" id="rect78070" inkscape:connector-curvature="0"/>
      <path clip-path="none" clip-rule="evenodd" d="m 1186.5967,135.96956 c -13.7366,-5.77799 -24.2658,-8.2875 -34.6347,-8.2875 -32.1247,0 -55.3412,22.48633 -55.3412,53.29275 0,21.16528 16.5747,50.28825 54.4475,50.28825 15.8487,0 26.6826,-3.66537 36.5875,-8.8491 v -15.84899 c -11.4245,7.39613 -23.843,11.39132 -35.2342,11.39132 -24.2965,0 -40.8426,-15.68428 -40.8426,-38.33524 0,-22.18903 17.1381,-38.63223 40.2153,-38.63223 11.7222,0 22.3591,3.26894 34.8024,10.49985 v -15.51911" id="path78080" style="fill-rule:evenodd" inkscape:connector-curvature="0"/>
      <path clip-path="none" clip-rule="evenodd" d="m 1239.6267,150.59735 16.2484,36.55193 h -31.3712 l 15.1228,-36.55193 z m 5.2829,-22.18918 h -10.199 l -43.3565,101.53377 h 14.7927 l 12.7754,-29.74991 h 42.8631 l 13.4701,29.74991 h 14.8221 l -45.1679,-101.53377 z" id="path78082" style="fill-rule:evenodd" inkscape:connector-curvature="0"/>
    </g>
  </g>
</svg>