<?xml version="1.0" encoding="UTF-8" standalone="no"?>
<svg
   xmlns:dc="http://purl.org/dc/elements/1.1/"
   xmlns:cc="http://creativecommons.org/ns#"
   xmlns:rdf="http://www.w3.org/1999/02/22-rdf-syntax-ns#"
   xmlns:svg="http://www.w3.org/2000/svg"
   xmlns="http://www.w3.org/2000/svg"
   xmlns:sodipodi="http://sodipodi.sourceforge.net/DTD/sodipodi-0.dtd"
   xmlns:inkscape="http://www.inkscape.org/namespaces/inkscape"
   width="436"
   height="229"
   viewBox="0 0 436 229"
   version="1.1"
   id="svg9"
   sodipodi:docname="Bally_sports_logo.svg"
   inkscape:version="0.92.5 (2060ec1f9f, 2020-04-08)">
  <metadata
     id="metadata15">
    <rdf:RDF>
      <cc:Work
         rdf:about="">
        <dc:format>image/svg+xml</dc:format>
        <dc:type
           rdf:resource="http://purl.org/dc/dcmitype/StillImage" />
        <dc:title></dc:title>
      </cc:Work>
    </rdf:RDF>
  </metadata>
  <defs
     id="defs13" />
  <sodipodi:namedview
     pagecolor="#ffffff"
     bordercolor="#666666"
     borderopacity="1"
     objecttolerance="10"
     gridtolerance="10"
     guidetolerance="10"
     inkscape:pageopacity="0"
     inkscape:pageshadow="2"
     inkscape:window-width="1920"
     inkscape:window-height="1017"
     id="namedview11"
     showgrid="false"
     inkscape:pagecheckerboard="true"
     fit-margin-top="0"
     fit-margin-left="0"
     fit-margin-right="0"
     fit-margin-bottom="0"
     inkscape:zoom="2.0345717"
     inkscape:cx="171.64958"
     inkscape:cy="151.09184"
     inkscape:window-x="1912"
     inkscape:window-y="70"
     inkscape:window-maximized="1"
     inkscape:current-layer="svg9" />
  <g
     id="Logo"
     style="fill:#ea0001;fill-opacity:1;fill-rule:evenodd;stroke:none;stroke-width:1"
     transform="matrix(1.5180758,0,0,1.5075708,-0.38454377,-0.67840686)">
    <g
       id="Group"
       transform="translate(-322,-522)"
       style="fill:#ea0001;fill-opacity:1">
      <g
         transform="translate(322.25331,522.45)"
         id="Combined-Shape"
         style="fill:#ea0001;fill-opacity:1">
        <path
           d="m 75.579687,112.218 c 6.672,0 10.501,4.061 10.733,10.791 l -7.136,1.566 c 0,-3.307 -1.218,-5.801 -3.539,-5.801 -1.972,0 -3.19,1.334 -3.19,3.423 0,5.917 14.097,7.425 14.097,18.854 0,6.556 -4.931,10.849 -11.429,10.849 -6.671,0 -11.254,-4.351 -11.37,-11.429 l 7.136,-1.972 c -0.117,4.119 1.566,6.787 4.176,6.787 2.089,0 3.307,-1.334 3.307,-3.539 0,-6.439 -13.981,-7.658 -13.981,-18.738 0,-6.324 4.583,-10.791 11.196,-10.791 z m 51.688003,0 c 8.296,0 12.879,6.904 12.879,19.841 0,12.937 -4.583,19.841 -12.879,19.841 -8.239,0 -12.822,-6.904 -12.822,-19.841 0,-12.937 4.583,-19.841 12.822,-19.841 z m 77.214,0 c 6.671,0 10.501,4.061 10.733,10.791 l -7.136,1.566 c 0,-3.307 -1.218,-5.801 -3.539,-5.801 -1.972,0 -3.191,1.334 -3.191,3.423 0,5.917 14.097,7.425 14.097,18.854 0,6.556 -4.931,10.849 -11.428,10.849 -6.672,0 -11.255,-4.351 -11.371,-11.429 l 7.136,-1.972 c -0.116,4.119 1.566,6.787 4.177,6.787 2.088,0 3.306,-1.334 3.306,-3.539 0,-6.439 -13.981,-7.658 -13.981,-18.738 0,-6.324 4.583,-10.791 11.197,-10.791 z m -104.305,0.464 c 7.948,0 12.124,4.235 12.124,12.589 0,8.354 -4.176,12.647 -12.124,12.647 h -2.437003 v 13.518 h -8.18 v -38.754 z m 55.11,0 c 8.064,0 11.835,4.061 11.835,11.255 0,5.395 -3.075,8.586 -6.44,9.34 v 0.116 c 2.553,0.581 4.409,2.553 4.931,6.034 l 1.045,7.599 c 0.232,1.741 0.696,3.191 1.508,4.41 h -8.702 c -0.58,-0.987 -0.928,-2.379 -1.218,-4.177 l -0.812,-7.136 c -0.406,-2.553 -1.45,-3.481 -3.539,-3.481 h -2.147 v 14.794 h -8.238 v -38.754 z m 36.664,0 v 6.904 h -7.309 v 31.85 h -8.354 v -31.85 h -7.31 v -6.904 z m -64.683,6.498 c -3.075,0 -4.236,4.003 -4.236,12.879 0,8.876 1.161,12.879 4.236,12.879 3.074,0 4.235,-4.003 4.235,-12.879 0,-8.876 -1.161,-12.879 -4.235,-12.879 z m -27.555003,0.232 h -1.973 v 11.893 h 1.973 c 3.016003,0 4.293003,-1.741 4.293003,-5.976 0,-4.235 -1.219,-5.917 -4.293003,-5.917 z m 54.530003,0 h -2.495 v 10.906 h 2.553 c 3.365,0 4.293,-1.914 4.293,-5.453 0,-3.538 -0.928,-5.453 -4.351,-5.453 z m 51.506,-116.728 c 8.722,0 9.528,10.065 3.22,23.485 -7.515,15.835 -18.653,31.804 -39.454,51.263 0.805,6.978 3.892,11.406 9.126,11.406 4.781,0 9.04,-1.642 15.426,-7.111 -0.157,-7.203 2.152,-16.523 6.984,-27.109 9.394,-20.532 25.498,-36.635 36.1,-36.635 7.246,0 7.916,9.796 2.147,22.142 -5.502,11.675 -17.043,26.705 -32.342,39.991 0.269,5.502 2.281,8.722 6.039,8.722 7.783,0 15.566,-9.528 23.618,-24.826 3.355,-6.441 6.442,-12.346 10.468,-19.056 0.939,-1.61 2.684,-2.281 9.259,-2.281 1.745,0 2.281,0.402 2.281,1.342 0,0.939 -0.67,2.415 -4.294,10.467 -3.489,7.515 -6.307,13.688 -8.991,19.458 -3.22,6.844 -2.281,10.199 0.269,10.199 4.563,0 15.567,-13.553 30.06,-39.185 0.938,-1.61 2.684,-2.281 9.259,-2.281 1.744,0 2.282,0.402 2.282,1.342 0,0.939 -0.538,2.415 -4.295,10.467 -3.9542,8.517 -8.21496,17.627699 -12.52892,26.774993 l -1.52437,3.229069 c -6.61161,13.991356 -13.27796,27.915008 -19.09271,39.777938 -1.476,3.087 -4.026,4.16 -10.333,4.16 -1.611,0 -2.55,-0.671 -2.55,-1.744 0,-0.0501 0.001,-0.10103 0.004,-0.15398 l 0.006,-0.0811 c 0.0484,-0.56728 0.30701,-1.41974 1.38947,-3.96088 l 0.16436,-0.38409 c 0.73834,-1.71804 1.82001,-4.14271 3.40151,-7.63191 4.428,-9.662 9.528,-20.532 14.627,-31.402 -9.125,8.32 -14.627,11.809 -19.056,11.809 -5.367,0 -7.917,-5.233 -7.649,-11.675 -8.454,10.199 -15.163,13.957 -22.008,13.957 -6.733,0 -11,-3.344 -12.769,-9.132 -7.947,6.905 -14.194,9.132 -21.585,9.132 -8.139,0 -13.528,-4.647 -15.82,-12.258 -8.866,8.9 -14.837,11.587 -20.546,11.587 -6.039,0 -10.065,-3.624 -10.87,-8.589 -7.784,6.441 -13.151,9.26 -17.58,9.26 -9.394003,0 -11.809003,-12.347 -6.039,-24.827 8.723,-18.787 26.303,-30.194 39.32,-30.194 6.844,0 10.601,3.489 10.601,6.978 0,2.818 -2.415,5.368 -6.039,5.368 -3.757,0 -6.843,-3.221 -7.514,-6.71 -8.052,0.805 -16.104,10.065 -22.143,22.814 -6.441,13.822 -5.1,17.848 -1.745,17.848 6.576,0 13.017,-13.017 21.606,-25.9 1.074,-1.61 3.087,-2.281 9.394,-2.281 1.745,0 2.281,0.402 2.281,1.207 0,0.740081 -0.6804,2.274662 -3.91855,8.774176 l -0.35038,0.702677 c -0.18,0.360688 -0.36727,0.735534 -0.56207,1.125147 -4.026,8.052 -5.1,10.467 -5.1,12.748 0,2.013 0.94,3.221 3.087,3.221 3.45,0 7.642,-1.851 15.018,-8.988 -0.791,-8.683 1.43,-19.801 6.99,-31.808 10.601,-23.081 30.731,-44.553 42.272,-44.553 z M 88.865687,0 c 27.912003,0 39.454003,16.507 32.073003,32.207 -4.697,10.334 -18.251,18.385 -37.038003,22.143 9.93,8.052 13.285,19.056 8.588,29.121 -4.026,8.722 -12.883,13.688 -24.424,13.688 -8.857,0 -14.627,-4.429 -14.627,-10.87 0,-3.355 2.818,-6.173 6.173,-6.173 3.489,0 6.307,3.355 6.307,7.112 0,1.476 -0.403,2.952 -0.939,4.294 6.173,0.269 11.675,-3.891 15.298,-11.541 4.026,-8.588 0.939,-19.995 -7.112,-25.9 -0.94,-0.67 -1.208,-1.341 -1.208,-1.878 0,-0.805 0.537,-1.476 2.281,-1.745 13.554,-1.879 28.047003,-11.541 32.610003,-21.605 6.039,-12.883 -2.952,-22.545 -24.021003,-22.545 -24.021,0 -52.605,19.324 -68.977,55.02 -9.1249999,19.324 -7.9179999,36.501 4.16,36.501 22.411,0 25.363,-81.591 66.696,-80.92 1.342,0 1.61,1.879 0.402,2.282 -31.268,11.004 -27.913,85.214 -65.219,85.214 C 1.1006871,104.405 -6.6823129,81.323 6.7366871,52.74 20.827687,22.545 53.571687,0 88.865687,0 Z M 235.27069,24.558 c -4.428,0 -14.493,12.346 -20.8,26.034 -3.623,8.052 -6.039,15.567 -6.978,21.874 9.125,-8.857 21.068,-25.229 25.766,-35.293 3.623,-7.918 4.562,-12.615 2.012,-12.615 z M 204.94369,9.26 c -6.04,0 -20.936,18.385 -28.719,35.294 -4.16,8.991 -6.441,18.116 -6.978,25.631 12.212,-12.749 26.437,-32.61 33.281,-46.969 4.16,-8.991 4.965,-13.956 2.416,-13.956 z"
           id="path4"
           style="fill:#ea0001;fill-opacity:1"
           inkscape:connector-curvature="0" />
      </g>
    </g>
  </g>
</svg>
