<?xml version="1.0" encoding="UTF-8" standalone="no"?>
<svg
   version="1.1"
   viewBox="0 -0.01 758.44183 521.63476"
   id="svg383"
   xmlns:xlink="http://www.w3.org/1999/xlink"
   xmlns="http://www.w3.org/2000/svg"
   xmlns:svg="http://www.w3.org/2000/svg">
  <defs
     id="defs329">
    <linearGradient
       id="linearGradient12497"
       x1="137.21001"
       x2="483.03952"
       y1="1122.5"
       y2="1122.473"
       gradientUnits="userSpaceOnUse"
       gradientTransform="matrix(0,-0.83108707,1.0593266,0,-430.27375,634.64403)">
      <stop
         offset="0"
         style="stop-color:#c5531f;stop-opacity:1"
         id="stop12477" />
      <stop
         offset="0.38142926"
         style="stop-color:#c4511e;stop-opacity:1"
         id="stop12479" />
      <stop
         offset="0.56121224"
         style="stop-color:#c4511e;stop-opacity:0.99607843"
         id="stop12481" />
      <stop
         offset="0.66567332"
         style="stop-color:#c4511e;stop-opacity:0.81176472"
         id="stop12483" />
      <stop
         offset="0.82102007"
         style="stop-color:#c4511e;stop-opacity:0.33725491"
         id="stop12485" />
      <stop
         offset="0.85788769"
         style="stop-color:#c5501f;stop-opacity:0.22352941"
         id="stop12487" />
      <stop
         offset="0.8999173"
         style="stop-color:#c5511f;stop-opacity:0.12941177"
         id="stop12489" />
      <stop
         offset="0.94649029"
         style="stop-color:#c84c19;stop-opacity:0.03921569"
         id="stop12491" />
      <stop
         offset="0.97720855"
         style="stop-color:#bf4000;stop-opacity:0.01568628"
         id="stop12493" />
      <stop
         stop-opacity="0"
         offset="1"
         style="stop-color:#ffa656;stop-opacity:0;"
         id="stop12495" />
    </linearGradient>
    <linearGradient
       id="linearGradient1022-4"
       x1="137.21001"
       x2="483.03952"
       y1="1122.5"
       y2="1122.473"
       gradientUnits="userSpaceOnUse"
       gradientTransform="matrix(0,-0.77472265,1.0309776,0,-430.24649,616.29749)">
      <stop
         offset="0"
         style="stop-color:#fd9e51;stop-opacity:0.98823529"
         id="stop317" />
      <stop
         offset="0.38142926"
         style="stop-color:#ffa052;stop-opacity:0.99607843"
         id="stop2562" />
      <stop
         offset="0.56121224"
         style="stop-color:#ffa052;stop-opacity:0.99607843"
         id="stop39252" />
      <stop
         offset="0.66567332"
         style="stop-color:#ffa052;stop-opacity:0.86274511"
         id="stop319" />
      <stop
         offset="0.82102007"
         style="stop-color:#ffa052;stop-opacity:0.34901962"
         id="stop11367" />
      <stop
         offset="0.85788769"
         style="stop-color:#ffa053;stop-opacity:0.23921569"
         id="stop5048" />
      <stop
         offset="0.8999173"
         style="stop-color:#ffa053;stop-opacity:0.14509805"
         id="stop9778" />
      <stop
         offset="0.94649029"
         style="stop-color:#ff9c56;stop-opacity:0.05882353"
         id="stop7842" />
      <stop
         offset="0.97720855"
         style="stop-color:#ffa35b;stop-opacity:0.01960784"
         id="stop8120" />
      <stop
         stop-opacity="0"
         offset="1"
         style="stop-color:#ffa656;stop-opacity:0;"
         id="stop321" />
    </linearGradient>
    <linearGradient
       id="linearGradient1122-1"
       x1="128.59"
       x2="463.13"
       y1="1111.2"
       y2="1111.2"
       gradientUnits="userSpaceOnUse"
       gradientTransform="matrix(1.9960824,0,0,1.031402,-209.88322,-636.09618)">
      <stop
         offset="0"
         style="stop-color:#c5531f;stop-opacity:1"
         id="stop324" />
      <stop
         offset="0.15618181"
         style="stop-color:#cb5a24;stop-opacity:0.99215686"
         id="stop41945" />
      <stop
         offset="0.37864029"
         style="stop-color:#d86c30;stop-opacity:0.98431373"
         id="stop44638" />
      <stop
         offset="0.47482613"
         style="stop-color:#df7536;stop-opacity:0.98039216"
         id="stop49953" />
      <stop
         offset="1"
         style="stop-color:#fd9e50;stop-opacity:0.98823529"
         id="stop326" />
    </linearGradient>
    <linearGradient
       xlink:href="#linearGradient12497"
       id="linearGradient12337"
       gradientUnits="userSpaceOnUse"
       gradientTransform="matrix(0,-0.77472056,1.0309749,0,-1111.2619,616.29722)"
       x1="137.21001"
       y1="1122.5"
       x2="483.03952"
       y2="1122.473" />
  </defs>
  <path
     d="M 677.06043,164.69823 C 686.08937,163.85726 695.73883,167.48391 701.01842,175.05261 706.41369,182.47938 706.74499,192.62877 703.44787,200.98585 699.76688,210.52556 691.84224,218.23616 682.36631,221.99421 673.23221,225.67868 662.05777,225.44743 653.89123,219.55542 646.60812,214.47809 642.88507,205.22222 643.89997,196.4867 645.50382,179.80405 660.50124,165.95442 677.06043,164.69823 Z"
     id="path347-0"
     style="fill:#ff00ff;fill-opacity:1" />
  <path
     d="M 58.792786,32.73507 C 68.206306,28.950728 78.455532,27.521087 88.568103,27.862729 98.312752,28.151811 108.20982,30.03347 116.83494,34.753385 124.91869,39.131659 131.55704,46.080131 135.61469,54.321586 140.11907,63.361959 141.66434,73.584938 141.6696,83.602932 L 94.128964,88.075814 C 93.8977,82.888112 93.429914,77.300952 90.260539,72.975239 86.933481,68.560173 80.657803,67.798048 75.617284,69.117312 69.967071,70.620536 65.846357,75.282636 63.086949,80.212793 58.692922,88.096838 56.001842,96.785055 53.531517,105.42597 50.588148,116.37428 47.996933,127.48028 46.929962,138.79124 46.546275,144.01574 46.099514,149.49778 48.049493,154.49102 49.305683,157.86539 52.044065,160.59852 55.386888,161.90728 60.248703,163.852 65.63086,163.79944 70.760729,163.29486 74.429425,162.90591 78.029795,161.92305 81.37262,160.35148 83.070311,153.21379 84.683908,146.05245 86.339553,138.90951 H 69.641198 L 77.64085,104.05939 H 137.43326 L 118.34342,186.24268 C 102.52281,197.40125 83.322601,203.36685 64.048799,204.20781 50.6775,204.75443 36.712272,203.30377 24.817914,196.74424 15.178386,191.50398 7.7201022,182.57924 4.0198689,172.27743 -0.936552,158.73263 -0.67375133,143.91062 1.4128861,129.82447 3.1526265,117.88276 5.8962657,106.08298 9.6490597,94.614315 13.727725,82.073427 19.094116,69.832133 26.710078,59.015222 34.714988,47.55182 45.6948,37.907003 58.792786,32.73507 Z"
     id="path337"
     style="fill:#330f42;fill-opacity:1" />
  <path
     d="M 232.09528,32.054413 C 241.76109,32.001853 251.63714,33.854604 260.08881,38.716432 267.94656,43.136754 274.17492,50.321747 277.49147,58.699861 280.19832,65.385531 280.85532,72.707181 280.50842,79.860638 280.16152,90.572428 278.02235,101.50497 272.42994,110.78712 264.48285,124.03231 251.45319,133.81905 236.93082,138.81753 238.73889,145.88688 243.36418,152.19938 249.75024,155.784 256.13103,159.51051 263.56831,160.89286 270.85839,161.31859 L 261.87585,199.85581 C 257.01404,199.81376 252.12595,200.12387 247.29042,199.47211 238.63377,198.35259 230.15582,195.65099 222.52934,191.3936 215.63345,187.55669 209.54699,182.19555 205.2318,175.56769 198.86677,165.87558 195.04564,154.74331 192.52802,143.49014 H 191.64711 L 178.68893,200.08182 H 135.37939 L 174.20556,32.057041 Z M 209.05293,68.557544 200.10719,107.11053 H 213.74129 C 218.88691,107.01067 224.19024,105.63096 228.21109,102.28812 232.81535,98.451217 235.49067,92.685352 236.47354,86.856415 237.13054,82.378278 236.99914,77.337743 234.15563,73.574426 231.59596,70.142239 227.19667,68.662665 223.04968,68.557544 Z"
     id="path339"
     style="fill:#330f42;fill-opacity:1" />
  <path
     d="M 315.87391,32.054413 H 418.02451 L 408.83702,71.138257 H 352.60818 L 346.96322,95.825831 H 399.89652 L 390.73005,134.89917 H 337.79148 L 331.91,161.00061 H 393.2687 L 374.40486,200.08024 H 277.05298 Z"
     id="path341"
     style="fill:#330f42;fill-opacity:1" />
  <path
     d="M 528.65578,32.054413 531.48482,200.07919 H 486.97184 L 487.67123,169.49541 H 448.62179 L 435.90153,200.07919 H 389.49551 L 471.43831,32.054413 Z M 463.45594,133.46427 H 488.61775 L 490.027,68.841371 Z"
     id="path343"
     style="fill:#330f42;fill-opacity:1" />
  <path
     d="M 553.31088,32.054413 H 670.25193 L 660.83841,73.485073 H 626.50087 L 597.07771,200.08182 H 550.94042 L 580.35307,73.485073 H 543.89736 Z"
     id="path345"
     style="fill:#330f42;fill-opacity:1" />
  <path
     d="M 698.56793,-0.01 H 758.44186 L 710.82037,152.77229 H 662.74664 Z"
     id="path335"
     style="fill:#330f42;fill-opacity:1" />
  <path
     d="M 677.06043,164.69823 C 686.08937,163.85726 695.73883,167.48391 701.01842,175.05261 706.41369,182.47938 706.74499,192.62877 703.44787,200.98585 699.76688,210.52556 691.84224,218.23616 682.36631,221.99421 673.23221,225.67868 662.05777,225.44743 653.89123,219.55542 646.60812,214.47809 642.88507,205.22222 643.89997,196.4867 645.50382,179.80405 660.50124,165.95442 677.06043,164.69823 Z"
     id="path347"
     style="fill:#330f42;fill-opacity:1" />
  <path
     d="M 715.37585,509.99779 H 726.99805 V 242.07584 H 715.37585 Z"
     id="path331"
     fill="url(#linearGradient1022-4)"
     style="fill:url(#linearGradient1022-4)" />
  <path
     d="M 34.357422,509.99779 V 521.62477 H 726.99805 V 509.99779 Z"
     fill="url(#linearGradient1122-1)"
     id="path361"
     style="fill:url(#linearGradient1122-1)" />
  <path
     d="M 34.357422,509.99779 H 45.979606 V 242.07656 H 34.357422 Z"
     id="path12335"
     fill="url(#linearGradient12337)"
     style="fill:url(#linearGradient12337)" />
  <path
     d="M 199.13598,409.40126 C 218.63259,409.38586 234.26356,394.79926 234.2638,375.58466 234.26379,355.85109 218.52363,341.76764 199.10714,341.76764 179.41595,341.76764 163.9505,356.63357 163.95049,375.58466 163.95074,395.17605 179.50768,409.40126 199.10714,409.40126 H 199.13615 Z M 199.10697,393.51298 C 189.46008,393.51298 182.1371,385.4862 182.1371,375.58466 182.13688,365.68296 188.54424,357.65592 199.10697,357.65592 208.47933,357.65592 216.07684,365.40807 216.07684,375.58466 216.07684,385.4862 209.7611,393.51298 199.10697,393.51298 Z"
     id="path369-7"
     style="fill:#330f42;fill-opacity:1" />
  <path
     d="M 277.63231,342.46904 C 283.00108,341.17814 288.89942,341.61275 293.85059,344.13857 297.22169,345.85548 299.92976,348.70833 301.69496,352.03453 305.94435,346.98285 311.79534,343.07144 318.42128,342.12049 325.19792,341.13081 332.81841,342.09468 338.08819,346.82365 343.06947,351.29442 344.85405,358.24371 344.94878,364.71969 V 407.9387 H 326.52828 V 371.60012 C 326.50244,367.95122 325.83942,363.96666 323.19163,361.2558 320.77201,358.77299 317.03067,358.17487 313.71982,358.64819 311.1323,358.97522 308.63519,360.30053 307.10249,362.44342 305.1737,365.07683 304.62045,368.43314 304.59893,371.62594 V 407.9387 H 286.16336 V 371.63456 C 286.14184,368.05879 285.51972,364.16892 283.00969,361.44083 280.68049,358.88915 276.96927,358.2007 273.66707,358.60516 271.04078,358.88055 268.47051,360.13702 266.86889,362.27561 264.84107,364.92622 264.25556,368.3729 264.23832,371.63456 V 407.9387 H 245.81137 V 342.97679 H 264.2297 V 352.16362 C 267.62664,347.74018 272.0956,343.82016 277.63231,342.46904 Z"
     id="path367-1"
     style="fill:#330f42;fill-opacity:1" />
  <path
     d="M 602.4125,341.97848 C 609.41189,341.26421 616.78578,342.38297 622.86398,346.07922 627.93489,349.12573 631.83922,353.89771 634.23262,359.26782 637.39655,366.32039 638.2747,374.24 637.56442,381.89068 H 592.3611 C 593.20051,385.78486 595.21078,389.59084 598.56844,391.86711 602.74395,394.7458 608.16352,395.06422 613.0106,394.12617 617.22917,393.29569 620.88384,390.80858 623.9875,387.93419 L 634.54255,397.28024 C 630.06569,402.89132 623.67757,406.949 616.64806,408.46365 608.02148,410.32255 598.64592,409.46194 590.8071,405.26225 584.86235,402.10818 580.0024,396.96612 577.20866,390.843 571.67716,378.54942 573.3646,363.0028 582.18916,352.64986 587.22993,346.66874 594.62967,342.77886 602.4125,341.97848 Z M 597.24258,359.93907 C 594.32833,362.64996 592.80448,366.51402 592.11572,370.36088 H 619.86364 C 619.3815,366.9185 618.21496,363.45892 615.89472,360.80828 611.35761,355.44248 602.29627,355.14557 597.24258,359.93907 Z"
     id="path371-0"
     style="fill:#330f42;fill-opacity:1" />
  <path
     id="path4788-0"
     d="M 156.24804,341.76372 C 154.16368,341.74323 152.07432,341.98561 150.06102,342.4697 144.52434,343.8208 139.43305,348.97393 136.77871,356.25936 V 342.97747 H 118.35938 V 407.93865 H 136.78816 V 381.83486 C 137.07706,378.69517 137.52997,375.41471 138.40413,373.19644 140.98001,366.65985 144.86288,363.27099 149.96403,362.01727 153.376,361.20008 154.03513,361.11107 157.59123,361.28468 V 341.83355 C 157.14367,341.80468 156.69669,341.76813 156.24804,341.76372 Z"
     style="fill:#330f42;fill-opacity:1" />
  <path
     id="path4939-9"
     d="M 472.23149,341.76372 C 470.14713,341.74323 468.05776,341.98561 466.04447,342.4697 460.50779,343.82081 456.23357,347.73928 452.83664,352.16272 V 342.97747 H 434.4192 V 407.93865 H 452.84609 V 374.02138 371.73053 C 452.86331,368.46888 453.54437,365.02224 455.57218,362.37161 457.17379,360.23303 459.74501,358.97745 462.37128,358.70205 465.67347,358.29759 469.8842,358.98561 472.2134,361.53728 474.72342,364.26536 475.38547,368.15476 475.40699,371.73053 V 407.93865 H 493.84334 V 397.09417 386.32898 364.71928 C 493.78048,360.42238 492.80971,356.01792 490.80553,352.16653 L 490.80176,352.13066 C 490.75922,352.0505 490.70938,351.97431 490.66573,351.89472 490.50359,351.59397 490.33083,351.29948 490.15378,351.00751 490.13374,350.97448 490.11544,350.9404 490.09521,350.90748 490.09189,350.90215 490.08721,350.8977 490.08388,350.89238 489.18637,349.435 488.10473,348.09134 486.80052,346.92079 486.73636,346.86321 486.67469,346.81477 486.6116,346.76033 485.50597,345.77116 484.28486,344.91143 482.95606,344.23468 479.86159,342.65604 475.70541,341.79788 472.23149,341.76372 Z"
     style="fill:#330f42;fill-opacity:1" />
  <path
     id="path6514-7"
     d="M 541.16484,341.68553 C 538.33021,341.6735 535.477,341.97198 532.67873,342.63313 H 532.59182 L 532.3689,342.68598 C 532.36503,342.68691 532.36145,342.68882 532.35757,342.68975 524.87969,344.48536 518.02604,348.91159 513.44055,355.05008 508.21234,361.93132 505.99047,370.70832 506.85766,379.22389 507.53376,386.59461 510.69406,393.70996 515.84252,399.10827 L 515.8444,399.11016 C 521.24037,404.85724 528.72401,408.36629 536.54774,409.21058 H 536.55718 L 536.56663,409.21246 C 542.93101,409.83745 549.8955,409.2365 555.80813,406.28257 L 555.8119,406.28068 C 560.323,404.02697 563.92327,401.04128 567.15781,397.45871 L 556.11569,386.47657 556.01366,386.58037 C 552.82251,389.8106 549.02702,392.51404 544.77315,393.22487 L 544.76181,393.22674 544.74859,393.22864 C 540.50944,394.0405 535.91455,393.20549 532.38024,390.871 L 532.37269,390.86535 532.36325,390.85969 C 528.90624,388.62445 526.46618,384.81694 525.43187,380.79441 524.22853,376.11053 524.66955,370.96813 526.82418,366.68431 L 526.82607,366.68055 526.82796,366.67865 C 528.48408,363.38472 531.21235,360.50492 534.55846,359.02961 L 534.5679,359.02584 534.57545,359.02206 C 537.97932,357.48309 542.04722,357.27145 545.74039,358.30626 549.35428,359.31866 552.5238,361.7916 555.26367,364.69781 L 555.40914,364.85071 566.80754,352.76219 C 565.54892,351.44106 564.21247,350.16715 562.77038,348.99258 L 562.76661,348.98881 C 557.47589,344.60408 550.86824,342.19163 544.07983,341.80068 544.07668,341.80045 544.07353,341.79902 544.07038,341.7988 543.10808,341.73017 542.13871,341.68967 541.16484,341.68553 Z"
     style="fill:#330f42;fill-opacity:1" />
  <path
     id="path6848-1"
     d="M 386.05328,342.24696 C 384.28482,342.28804 382.5313,342.30718 380.80709,342.46592 H 380.80142 380.79576 C 374.70557,343.06262 369.24394,344.38676 363.75551,346.88677 L 362.38775,347.5399 367.17488,361.51596 C 370.90313,359.98352 374.50569,358.98283 378.09992,358.47497 381.6834,357.96864 384.80039,357.70324 388.94181,358.2881 392.13495,358.72312 395.23196,360.18959 396.90463,362.59569 L 396.91408,362.60891 396.92352,362.62212 C 399.02883,365.56848 398.82513,368.686 398.98317,370.87832 392.47111,369.01629 387.13053,367.88989 381.17925,368.24429 H 381.17358 381.16791 C 375.8225,368.59442 369.95881,369.43858 365.20749,372.57595 L 365.20559,372.57785 C 361.29277,375.13618 358.47453,379.18067 357.35427,383.75435 V 383.75624 C 356.39129,389.00885 356.66776,394.67391 359.71138,399.72712 361.60884,402.51143 363.89698,404.72378 366.66725,406.19068 374.41864,410.29517 384.80998,410.00633 392.12853,406.13666 394.83051,404.708 397.17495,402.90659 398.92792,400.61148 V 407.93865 H 416.64827 V 369.13448 369.11936 C 416.58459,364.72012 415.9505,360.25725 414.03935,356.03803 411.69931,350.77143 407.45145,346.76895 402.09605,344.63293 396.8991,342.61708 391.00958,342.18895 386.05328,342.24696 Z M 386.80706,379.38246 C 391.09774,379.34445 395.35741,380.0604 399.36244,381.50416 399.36921,383.96094 399.43583,386.20371 398.79569,387.97498 L 398.78436,388.0033 398.77491,388.03351 C 397.70145,391.28271 394.88952,393.83847 391.69621,395.10459 391.69508,395.10506 391.69358,395.10415 391.69244,395.10459 L 391.69055,395.10649 C 388.44528,396.37936 384.85137,396.73891 381.49852,396.01632 379.16317,395.48113 376.9785,394.26741 375.81969,392.40339 L 375.81026,392.38828 375.79892,392.37318 C 374.74607,390.74528 374.53594,388.41132 374.97147,386.21948 V 386.21759 C 375.36544,384.28012 376.69418,382.50512 378.40595,381.46075 L 378.42107,381.45131 C 378.42225,381.45058 378.42368,381.45016 378.42485,381.44942 380.8036,379.97036 383.77115,379.46015 386.80706,379.38246 Z"
     style="fill:#330f42;fill-opacity:1" />
</svg>
