<?xml version="1.0" encoding="UTF-8" standalone="no"?>
<!-- Created with Inkscape (http://www.inkscape.org/) -->

<svg xmlns:dc="http://purl.org/dc/elements/1.1/" xmlns:cc="http://creativecommons.org/ns#" xmlns:rdf="http://www.w3.org/1999/02/22-rdf-syntax-ns#" xmlns:svg="http://www.w3.org/2000/svg" xmlns="http://www.w3.org/2000/svg" xmlns:sodipodi="http://sodipodi.sourceforge.net/DTD/sodipodi-0.dtd" xmlns:inkscape="http://www.inkscape.org/namespaces/inkscape" id="svg2985" version="1.1" inkscape:version="0.48.5 r10040" width="1954.2645" height="415.14429" sodipodi:docname="AT&amp;T_SportsNet_Official_Logo.png">
  <metadata id="metadata2991">
    <rdf:RDF>
      <cc:Work rdf:about="">
        <dc:format>image/svg+xml</dc:format>
        <dc:type rdf:resource="http://purl.org/dc/dcmitype/StillImage" />
        <dc:title></dc:title>
      </cc:Work>
    </rdf:RDF>
  </metadata>
  <defs id="defs2989" />
  <sodipodi:namedview pagecolor="#ffffff" bordercolor="#666666" borderopacity="1" objecttolerance="10" gridtolerance="10" guidetolerance="10" inkscape:pageopacity="0" inkscape:pageshadow="2" inkscape:window-width="1366" inkscape:window-height="706" id="namedview2987" showgrid="false" inkscape:object-paths="false" fit-margin-top="0" fit-margin-left="0" fit-margin-right="0" fit-margin-bottom="0" inkscape:zoom="0.44477017" inkscape:cx="781.55778" inkscape:cy="196.69587" inkscape:window-x="-8" inkscape:window-y="-8" inkscape:window-maximized="1" inkscape:current-layer="svg2985" />
  <g id="g3170">
    <g transform="translate(42.748805,-195.19524)" id="g2986">
	
	<g transform="matrix(0.51747663,0,0,0.51896667,-94.464384,318.00818)" id="g3012">
  <path id="path2988" d="m 900.158,163.323 c 0,220.885 -179.125,399.972 -400.108,399.972 -220.982,0 -400.107,-179.087 -400.107,-399.972 0,-220.885 179.125,-399.972 400.107,-399.972 220.983,0.001 400.108,179.088 400.108,399.972 z" inkscape:connector-curvature="0" style="fill:white" />
  <path id="path2990" d="m 254.695,479.198 c 67.835,52.511 152.979,84.06 245.354,84.06 101.092,0 193.248,-37.531 263.584,-99.141 0.854,-0.753 0.432,-1.251 -0.408,-0.753 -31.561,21.079 -121.516,67.09 -263.172,67.09 -123.104,0 -200.902,-27.468 -244.837,-51.989 -0.841,-0.415 -1.152,0.216 -0.521,0.733 m 272.513,20.443 c 98.461,0 206.658,-26.84 271.369,-79.97 17.708,-14.478 34.575,-33.743 49.683,-59.637 8.696,-14.899 17.202,-32.599 24.131,-49.998 0.308,-0.848 -0.217,-1.263 -0.854,-0.309 -60.177,88.557 -234.436,143.793 -414.366,143.793 -127.184,0 -264.027,-40.671 -317.604,-118.327 -0.528,-0.718 -1.055,-0.41 -0.733,0.414 49.91,106.085 201.324,164.034 388.374,164.034 M 419.63,323.657 c -204.782,0 -301.341,-95.374 -318.855,-160.461 -0.217,-0.943 -0.837,-0.736 -0.837,0.109 0,21.911 2.192,50.188 5.968,68.956 1.799,9.138 9.234,23.474 20.135,34.902 49.588,51.686 173.213,124.111 387.316,124.111 291.705,0 358.401,-97.168 372.021,-129.125 9.739,-22.854 14.784,-64.151 14.784,-98.845 0,-8.396 -0.211,-15.1 -0.528,-21.683 0,-1.067 -0.619,-1.155 -0.832,-0.114 C 884.227,219.701 635,323.657 419.63,323.657 M 138.511,-8.272 c -11.732,23.287 -24.74,62.574 -28.607,82.908 -1.695,8.711 -0.973,12.896 2.082,19.396 24.545,52.076 148.695,135.398 438.289,135.398 176.674,0 313.918,-43.404 336.152,-122.61 4.096,-14.581 4.313,-29.976 -0.946,-50.72 -5.876,-23.182 -16.883,-50.211 -26.198,-69.192 -0.308,-0.62 -0.85,-0.526 -0.739,0.205 C 862.004,91 572.296,157.954 426.121,157.954 267.789,157.954 135.695,94.87 135.695,15.216 c 0,-7.652 1.585,-15.309 3.562,-23.275 0.198,-0.731 -0.426,-0.852 -0.746,-0.213 m 625.77,-127.551 c 1.682,2.633 2.52,5.445 2.52,9.231 C 766.8,-82.154 630.796,-3.54 414.293,-3.54 c -159.078,0 -188.86,-59.014 -188.86,-96.544 0,-13.415 5.145,-27.143 16.477,-41.083 0.619,-0.829 0.093,-1.148 -0.622,-0.533 -20.666,17.514 -39.654,37.221 -56.312,58.493 -7.958,10.061 -12.898,18.974 -12.898,24.313 0,77.773 195.016,134.164 377.361,134.164 194.291,0 281.004,-63.426 281.004,-119.167 0,-19.921 -7.755,-31.55 -27.591,-54.095 -12.877,-14.668 -25.056,-26.609 -37.948,-38.365 -0.623,-0.512 -1.057,-0.093 -0.623,0.534 m -59.565,-44.429 c -59.964,-35.941 -129.594,-56.389 -204.664,-56.389 -75.592,0 -147.322,21.163 -207.5,58.056 -18.053,11.109 -28.211,20.01 -28.211,31.456 0,33.735 78.84,70.007 218.713,70.007 138.421,0 245.783,-39.73 245.783,-77.975 0.002,-9.127 -7.976,-15.514 -24.121,-25.155" inkscape:connector-curvature="0" style="fill:#139dd8;fill-opacity:1" />
</g>

</g>
    <g id="g3153">
      <g id="g3147">
        <path style="fill:#189cd6" d="m 869.125,5.15625 c -6.52653,0.086 -13.10405,0.68997 -17.125,1.75 -15.85889,4.18081 -30.97687,14.53856 -37.78125,25.875 -6.21367,10.35231 -7.55475,15.12725 -7.59375,27.25 -0.0359,11.15029 0.47376,13.29684 6.8125,28.625 0.51687,1.24988 -0.8539,2.47329 -5.875,5.28125 -10.59343,5.92419 -20.97919,14.82615 -26.5,22.6875 -6.51979,9.28384 -9.14889,16.42425 -9.8125,26.625 -1.75787,27.02119 13.70146,46.30911 41.0625,51.25 6.9358,1.25248 26.67613,0.43178 34.4375,-1.4375 7.69985,-1.85446 16.86905,-5.63713 24.65625,-10.1875 3.24275,-1.89487 6.20306,-3.0985 6.59375,-2.65625 0.39069,0.44226 2.57858,3.4 4.875,6.5625 l 4.1875,5.75 69.84375,0 -42.09375,-43.625 43.5625,-54.375 -49.9375,0 -17.65625,20.71875 -10.75,-14.125 3.21875,-1.96875 c 20.08182,-12.1578 29.7565,-21.27435 35.625,-33.5625 3.37226,-7.06124 3.625,-8.21352 3.625,-17.125 0,-9.02628 -0.19767,-9.96859 -3.75,-17.15625 C 912.68141,19.03354 900.95334,10.12848 886,6.4375 882.12706,5.48153 875.65153,5.07022 869.125,5.15625 z m -3.125,37.5 c 2.28417,-0.10817 4.53544,0.4905 6.375,1.9375 5.62719,4.42635 2.35485,13.4523 -7.84375,21.6875 -2.8948,2.3375 -5.55989,4.25 -5.9375,4.25 -0.3776,0 -1.56397,-1.9125 -2.625,-4.25 -2.54155,-5.59904 -2.53392,-13.28173 0,-17.4375 2.31574,-3.79794 6.22429,-6.00721 10.03125,-6.1875 z m -30.21875,79.6875 18.375,25.1875 -4.65625,2 c -6.02234,2.58148 -16.69571,4.19855 -22,-2.3125 -6.11997,-7.5123 -1.69358,-15.02517 4.8125,-21.53125 l 3.46875,-3.34375 z" id="path3020" inkscape:connector-curvature="0" />
        <path sodipodi:nodetypes="ccccccccccccc" inkscape:connector-curvature="0" id="rect3045" d="M 557.78125,8.09375 453.46875,192.53125 513.75,191.75 l 15.5,-29.375 45.3125,0 3.34375,29.375 59.84375,0.78125 -26.125,-184.4375 z m 13.88568,68.249205 2.4463,40.313295 -22.69426,0 z" style="fill:#189cd6;fill-opacity:1;fill-rule:evenodd;stroke:none" />
        <path sodipodi:nodetypes="ccccccccc" inkscape:connector-curvature="0" id="path3048" d="m 652.90625,8.09375 -10,50.125 41.75,0 -24.875,134.3125 59.84375,0 24.90625,-134.3125 43.6875,0 12.25,-50.125 z" style="fill:#189cd6;fill-opacity:1;fill-rule:evenodd;stroke:none" />
        <path style="fill:#189cd6;fill-opacity:1;fill-rule:evenodd;stroke:none" d="m 958.15267,8.09375 -10,50.125 41.75,0 -24.875,134.3125 59.84373,0 24.9063,-134.3125 43.6875,0 12.25,-50.125 z" id="path3060" inkscape:connector-curvature="0" sodipodi:nodetypes="ccccccccc" />
      </g>
      <g id="g3110" style="fill:black">
        <path sodipodi:nodetypes="ccccccccc" inkscape:connector-curvature="0" id="path3070" d="m 1171.3023,222.35093 -10,50.125 41.75,0 -24.875,134.3125 59.8437,0 24.9063,-134.3125 43.6875,0 12.25,-50.125 z" style="fill:black;fill-opacity:1;fill-rule:evenodd;stroke:none" />
        <path style="fill:black;fill-opacity:1;fill-rule:evenodd;stroke:none" d="m 1805.6425,222.35093 -10,50.125 41.75,0 -24.875,134.3125 59.8437,0 24.9063,-134.3125 43.6875,0 12.25,-50.125 z" id="path3072" inkscape:connector-curvature="0" sodipodi:nodetypes="ccccccccc" />
        <path sodipodi:nodetypes="ccssssccssssc" inkscape:connector-curvature="0" id="path3074" d="m 459.45946,388.11726 18.34157,-42.7009 c 0,0 27.97799,13.17412 42.90557,12.86366 9.2607,-0.1926 23.86536,-0.133 26.26272,-9.08008 4.21544,-15.73224 -68.62999,-10.713 -62.74767,-74.77582 2.66749,-29.05096 24.73712,-55.67633 67.52637,-55.67633 40.32862,0 68.10525,17.81976 68.10525,17.81976 l -17.89519,43.22575 c 0,0 -29.74343,-13.08653 -44.71814,-11.11142 -6.11834,0.80699 -17.58382,3.82106 -16.21197,8.94089 3.55524,13.26833 63.36967,15.8974 63.36967,65.98415 0,44.28031 -34.00291,64.31185 -64.3345,64.31185 -63.64041,0 -80.60368,-19.80151 -80.60368,-19.80151 z" style="fill:black;stroke:none" />
        <path style="fill:black;stroke:none" d="m 1295.8465,388.11726 18.3416,-42.7009 c 0,0 27.978,13.17412 42.9055,12.86366 9.2607,-0.1926 23.8654,-0.133 26.2628,-9.08008 4.2154,-15.73224 -68.63,-10.713 -62.7477,-74.77582 2.6675,-29.05096 24.7371,-55.67633 67.5264,-55.67633 40.3286,0 68.1052,17.81976 68.1052,17.81976 l -17.8952,43.22575 c 0,0 -29.7434,-13.08653 -44.7181,-11.11142 -6.1184,0.80699 -17.5838,3.82106 -16.212,8.94089 3.5552,13.26833 63.3697,15.8974 63.3697,65.98415 0,44.28031 -34.0029,64.31185 -64.3345,64.31185 -63.6404,0 -80.6037,-19.80151 -80.6037,-19.80151 z" id="path3076" inkscape:connector-curvature="0" sodipodi:nodetypes="ccssssccssssc" />
        <path sodipodi:nodetypes="scccccssssccs" inkscape:connector-curvature="0" id="path3078" d="m 710.5625,220.5625 c -6.91989,0.12504 -11.4375,0.75 -11.4375,0.75 l -45.71875,0 -38.9375,183.90625 55.40625,0 11.375,-51.6875 c 0,0 93.25857,10.03247 102,-63.1875 7.66511,-64.20448 -47.97361,-70.22781 -72.6875,-69.78125 z m -6.625,48.91027 c 9.1019,-0.2028 26.80375,1.16587 23.34375,17.90223 -4.63319,22.41121 -36.46875,18.9375 -36.46875,18.9375 l 8,-36.8125 c 0.0265,-0.008 2.09103,0.0404 5.125,-0.0272 z" style="fill:black;stroke:none" />
        <path sodipodi:nodetypes="ccccccccccccssccs" inkscape:connector-curvature="0" id="path3083" d="m 1061.5938,221.3125 -45.7188,0 -38.9375,183.90625 55.4063,0 11.375,-51.6875 c 0,0 7.3205,0.78553 18.0312,0.3125 l -0.3438,0.0937 15.6876,51.46875 59.4374,0 -23.4062,-64.8125 c 16.1341,-9.23119 30.6599,-26.32107 33.718,-51.93626 3.8364,-67.41418 -42.8532,-67.34499 -85.2492,-67.34499 z m 4.8124,48.15625 c 9.1019,-0.2028 26.8038,1.16989 23.3438,17.90625 -4.6332,22.41121 -36.4688,18.9375 -36.4688,18.9375 l 8,-36.8125 c 0.026,-0.008 2.0912,0.0364 5.125,-0.0312 z" style="fill:black;stroke:none" />
        <path id="path3088" d="M 897.09375 218.8125 C 834.95742 218.8125 799.23767 264.84231 796.46875 310.03125 C 792.42493 376.02664 819.79978 408.375 881.34375 408.375 C 935.70941 408.375 972.34354 360.35129 975.0625 316.75 C 977.65979 275.0998 965.67734 218.8125 897.09375 218.8125 z M 893.84375 269.625 C 915.71234 269.625 919.55662 295.28073 918.375 311.375 C 916.91123 331.31238 905.83109 358.09375 880.78125 358.09375 C 854.78452 358.09375 851.07838 334.64955 853.3125 312.96875 C 854.99896 296.60267 863.8992 269.625 893.84375 269.625 z " style="fill:black;stroke:none;opacity:1" />
        <path sodipodi:nodetypes="ccccccccccc" inkscape:connector-curvature="0" id="rect3093" d="m 1450.7812,405.53125 54,0 18.8742,-85.4375 28.8758,85.4375 52.0938,0 38.1562,-183.5 -54,0 -18.7489,85.43606 -31.0294,-85.43606 -50.0654,0 z" style="fill:black;fill-opacity:1;fill-rule:evenodd;stroke:none" />
        <path id="path3098" d="M 1668.2812 222.03125 L 1658.7188 266.4375 L 1659.0625 266.4375 L 1630.125 405.53125 L 1652.375 405.53125 L 1684.125 405.53125 L 1754.0625 405.53125 L 1763.5938 361.15625 L 1693.375 361.15625 L 1698.6875 335.59375 L 1754.0625 335.59375 L 1763.5938 291.1875 L 1707.9062 291.1875 L 1713.0625 266.4375 L 1781.0938 266.4375 L 1790.625 222.03125 L 1722.2812 222.03125 L 1668.2812 222.03125 z " style="fill:black;fill-opacity:1;fill-rule:evenodd;stroke:none" />
      </g>
    </g>
  </g>
</svg>
