<?xml version="1.0" encoding="UTF-8" standalone="no"?>
<!-- Created with Inkscape (http://www.inkscape.org/) -->

<svg
   xmlns:dc="http://purl.org/dc/elements/1.1/"
   xmlns:cc="http://creativecommons.org/ns#"
   xmlns:rdf="http://www.w3.org/1999/02/22-rdf-syntax-ns#"
   xmlns:svg="http://www.w3.org/2000/svg"
   xmlns="http://www.w3.org/2000/svg"
   xmlns:sodipodi="http://sodipodi.sourceforge.net/DTD/sodipodi-0.dtd"
   xmlns:inkscape="http://www.inkscape.org/namespaces/inkscape"
   id="svg2985"
   version="1.1"
   inkscape:version="0.91 r13725"
   width="1000"
   height="993.42584"
   sodipodi:docname="Ovation.svg">
  <metadata
     id="metadata2991">
    <rdf:RDF>
      <cc:Work
         rdf:about="">
        <dc:format>image/svg+xml</dc:format>
        <dc:type
           rdf:resource="http://purl.org/dc/dcmitype/StillImage" />
        <dc:title />
      </cc:Work>
    </rdf:RDF>
  </metadata>
  <defs
     id="defs2989" />
  <sodipodi:namedview
     pagecolor="#ffffff"
     bordercolor="#666666"
     borderopacity="1"
     objecttolerance="10"
     gridtolerance="10"
     guidetolerance="10"
     inkscape:pageopacity="0"
     inkscape:pageshadow="2"
     inkscape:window-width="1680"
     inkscape:window-height="931"
     id="namedview2987"
     showgrid="false"
     inkscape:object-paths="false"
     fit-margin-top="0"
     fit-margin-left="0"
     fit-margin-right="0"
     fit-margin-bottom="0"
     inkscape:zoom="0.34341398"
     inkscape:cx="375.33506"
     inkscape:cy="586.4798"
     inkscape:window-x="0"
     inkscape:window-y="1"
     inkscape:window-maximized="1"
     inkscape:current-layer="svg2985" />
  <g
     id="g3038"
     transform="translate(1568.8155,-494.48037)" />
  <g
     id="g3102"
     transform="matrix(0.66784932,0,0,0.66784932,-0.4800167,-0.27131379)"
     style="fill:#000000">
    <g
       style="fill:#000000;fill-opacity:1"
       id="g3043">
      <path
         id="path3036"
         d="m 770.625,0.40625 c -351.25289,0 -645.84952,241.76743 -725.3125,567.40625 l 69.4375,0 C 192.61725,279.55603 456.74331,67.375 770.625,67.375 c 313.8817,0 578.0078,212.18103 655.875,500.4375 l 69.4375,0 C 1416.4745,242.17368 1121.8779,0.40625 770.625,0.40625 z"
         style="fill:#000000;fill-opacity:1;fill-rule:evenodd;stroke:none"
         inkscape:connector-curvature="0" />
      <path
         style="fill:#000000;fill-opacity:1;fill-rule:evenodd;stroke:none"
         d="m 776.8125,119.84375 c -283.64046,0 -523.09859,189.0367 -599.21875,447.96875 l 58.875,0 c 74.2114,-227.42884 288.07769,-391.78125 540.34375,-391.78125 252.2664,0 466.1327,164.35186 540.3437,391.78125 l 58.875,0 C 1299.9118,308.87931 1060.4538,119.84375 776.8125,119.84375 z"
         id="path3032"
         inkscape:connector-curvature="0" />
      <path
         style="fill:#000000;fill-opacity:1;fill-rule:evenodd;stroke:none"
         d="m 772.4375,240.71875 c -215.28816,0 -398.93188,135.99841 -470.34375,327.09375 l 48.65625,0 c 69.01473,-165.45901 231.8293,-281.71875 421.6875,-281.71875 189.85821,0 352.6728,116.25974 421.6875,281.71875 l 48.6562,0 C 1171.3711,376.71373 987.72812,240.71875 772.4375,240.71875 z"
         id="path3028"
         inkscape:connector-curvature="0" />
      <path
         style="fill:#000000;fill-opacity:1;fill-rule:evenodd;stroke:none"
         d="m 772.4375,360.09375 c -146.2018,0 -273.03717,84.3199 -336.0625,207.71875 l 38.90625,0 C 535.09612,464.25807 645.78813,394.75 772.4375,394.75 c 126.64938,0 237.3102,69.50807 297.125,173.0625 l 38.9375,0 C 1045.4757,444.41044 918.64163,360.09375 772.4375,360.09375 z"
         id="path3024"
         inkscape:connector-curvature="0" />
    </g>
    <g
       style="fill:#000000;fill-opacity:1"
       id="g3050">
      <path
         id="path2997"
         d="m 43.1875,911.4375 c 76.16543,330.2065 372.93324,576.4687 727.4375,576.4687 354.5042,0 651.2721,-246.2622 727.4375,-576.4687 l -69.1563,0 c -74.7313,292.8615 -341.1188,509.5 -658.2812,509.5 -317.16236,0 -583.54991,-216.6385 -658.28125,-509.5 l -69.15625,0 z"
         style="fill:#000000;fill-opacity:1;fill-rule:evenodd;stroke:none"
         inkscape:connector-curvature="0" />
      <path
         style="fill:#000000;fill-opacity:1;fill-rule:evenodd;stroke:none"
         d="m 175,911.4375 c 73.14668,263.5695 314.8748,457.0313 601.8125,457.0313 286.9377,0 528.6346,-193.4618 601.7813,-457.0313 l -58.5938,0 c -71.4317,232.11 -287.5848,400.8437 -543.1875,400.8437 -255.6027,0 -471.78706,-168.7337 -543.21875,-400.8437 l -58.59375,0 z"
         id="path3003"
         inkscape:connector-curvature="0" />
      <path
         style="fill:#000000;fill-opacity:1;fill-rule:evenodd;stroke:none"
         d="m 298.28125,911.4375 c 68.51372,196.6079 254.93552,337.625 474.15625,337.625 219.22013,0 405.6108,-141.018 474.125,-337.625 l -48.2187,0 c -66.4073,171.0229 -232.05466,292.2187 -425.9063,292.2187 -193.85163,0 -359.49894,-121.1958 -425.90625,-292.2187 l -48.25,0 z"
         id="path3005"
         inkscape:connector-curvature="0" />
      <path
         style="fill:#000000;fill-opacity:1;fill-rule:evenodd;stroke:none"
         d="m 431.1875,911.4375 c 61.06803,129.1031 190.92974,218.2187 341.25,218.2187 150.32027,0 280.182,-89.1156 341.25,-218.2187 l -38.2813,0 c -58.2574,109.3345 -172.07993,183.5937 -302.9687,183.5937 -130.88922,0 -244.74273,-74.2586 -303,-183.5937 l -38.25,0 z"
         id="path3007"
         inkscape:connector-curvature="0" />
    </g>
    <g
       style="fill:#000000;fill-opacity:1"
       id="g3093">
      <path
         style="fill:#000000;fill-opacity:1;fill-rule:evenodd;stroke:none"
         d="m 124.84375,622.4375 c -80.198061,0 -124.125,54.2454 -124.125,121.1875 0,66.9421 43.562947,121.21875 124.125,121.21875 81.65404,0 124.125,-54.27665 124.125,-121.21875 0,-66.9421 -46.11088,-121.1875 -124.125,-121.1875 z m 0,48.03125 c 46.58883,0 71.1875,32.92372 71.1875,73.53125 0,40.60752 -24.96266,73.53125 -71.1875,73.53125 -47.316814,0 -71.15625,-32.92373 -71.15625,-73.53125 0,-40.60753 24.931413,-73.53125 71.15625,-73.53125 z"
         id="path3059"
         inkscape:connector-curvature="0" />
      <path
         id="path3062"
         d="m 1118.648,622.4375 c -80.1981,0 -124.12505,54.2454 -124.12505,121.1875 0,66.9421 43.56295,121.21875 124.12505,121.21875 81.654,0 124.125,-54.27665 124.125,-121.21875 0,-66.9421 -46.1109,-121.1875 -124.125,-121.1875 z m 0,48.03125 c 46.5888,0 71.1875,32.92372 71.1875,73.53125 0,40.60752 -24.9627,73.53125 -71.1875,73.53125 -47.3168,0 -71.1563,-32.92373 -71.1563,-73.53125 0,-40.60753 24.9314,-73.53125 71.1563,-73.53125 z"
         style="fill:#000000;fill-opacity:1;fill-rule:evenodd;stroke:none"
         inkscape:connector-curvature="0" />
      <path
         style="fill:#000000;fill-opacity:1;fill-rule:evenodd;stroke:none"
         d="m 262.8125,627.875 94.19536,232.25 39.68999,0 95.7709,-232.25 -58.25,0 L 380.19881,780.77318 321.03125,627.875 z"
         id="rect3064"
         inkscape:connector-curvature="0"
         sodipodi:nodetypes="cccccccc" />
      <path
         style="fill:#000000;fill-opacity:1;fill-rule:evenodd;stroke:none"
         d="m 695.21875,628.0625 0,46.40625 61.15625,0 0,185.65625 58.25,0 0,-185.65625 64.0625,0 0,-46.40625 -183.46875,0 z"
         id="path3067"
         inkscape:connector-curvature="0" />
      <path
         style="fill:#000000;fill-opacity:1;fill-rule:evenodd;stroke:none"
         d="m 899.06068,627.88647 58.23875,0 0,232.22701 -58.23875,0 z"
         id="path3069"
         inkscape:connector-curvature="0" />
      <path
         style="fill:#000000;fill-opacity:1;fill-rule:evenodd;stroke:none"
         d="M 578.09375,627.875 478.5,860.125 l 55.75,0 18.84375,-48.78125 90.28125,0 19.71875,48.78125 56.90625,0 -100.71875,-232.25 -41.1875,0 z m 19.125,69.15625 28,69.34375 -54.78125,0 26.78125,-69.34375 z"
         id="path3073"
         inkscape:connector-curvature="0" />
      <path
         style="fill:#000000;fill-opacity:1;fill-rule:evenodd;stroke:none"
         d="m 1435.5938,627.8125 0,141.90625 -85.1563,-141.65625 -69.0313,0 0,232.0625 51.5313,0 0,-160.625 100.8125,160.625 56.9739,0 0,-232.3125 z"
         id="path3075"
         inkscape:connector-curvature="0"
         sodipodi:nodetypes="ccccccccccc" />
    </g>
  </g>
</svg>
