<?xml version="1.0" encoding="UTF-8" standalone="no"?>
<!-- Created with Inkscape (http://www.inkscape.org/) -->

<svg
   xmlns:dc="http://purl.org/dc/elements/1.1/"
   xmlns:cc="http://creativecommons.org/ns#"
   xmlns:rdf="http://www.w3.org/1999/02/22-rdf-syntax-ns#"
   xmlns:svg="http://www.w3.org/2000/svg"
   xmlns="http://www.w3.org/2000/svg"
   xmlns:sodipodi="http://sodipodi.sourceforge.net/DTD/sodipodi-0.dtd"
   xmlns:inkscape="http://www.inkscape.org/namespaces/inkscape"
   width="437.93478mm"
   height="97.043869mm"
   viewBox="0 0 1655.1866 366.77998"
   version="1.1"
   id="svg1243"
   inkscape:version="0.92.3 (2405546, 2018-03-11)"
   sodipodi:docname="Spectrum Sportsnet.svg">
  <defs
     id="defs1237" />
  <sodipodi:namedview
     id="base"
     pagecolor="#ffffff"
     bordercolor="#666666"
     borderopacity="1.0"
     inkscape:pageopacity="0.0"
     inkscape:pageshadow="2"
     inkscape:zoom="0.45254834"
     inkscape:cx="318.68648"
     inkscape:cy="222.37272"
     inkscape:document-units="px"
     inkscape:current-layer="layer1"
     showgrid="false"
     inkscape:window-width="1600"
     inkscape:window-height="837"
     inkscape:window-x="-8"
     inkscape:window-y="-8"
     inkscape:window-maximized="1"
     fit-margin-top="0"
     fit-margin-left="0"
     fit-margin-right="0"
     fit-margin-bottom="0" />
  <metadata
     id="metadata1240">
    <rdf:RDF>
      <cc:Work
         rdf:about="">
        <dc:format>image/svg+xml</dc:format>
        <dc:type
           rdf:resource="http://purl.org/dc/dcmitype/StillImage" />
        <dc:title></dc:title>
      </cc:Work>
    </rdf:RDF>
  </metadata>
  <g
     inkscape:label="Layer 1"
     inkscape:groupmode="layer"
     id="layer1"
     transform="translate(3.2638814,-282.74762)">
    <g
       id="g10"
       transform="matrix(1.3333333,0,0,-1.3333333,-457.98387,1260.4196)"
       style="fill:#000000">
      <g
         id="g12"
         transform="scale(0.1)"
         style="fill:#000000">
        <g
           id="g14"
           transform="scale(10)"
           style="fill:#000000" />
        <g
           id="g20"
           transform="scale(10)"
           style="fill:#000000" />
        <g
           id="g26"
           transform="scale(1.17791)"
           style="fill:#000000" />
        <g
           id="g30"
           transform="scale(10)"
           style="fill:#000000" />
        <g
           id="g36"
           transform="scale(1.14564)"
           style="fill:#000000" />
        <g
           id="g40"
           transform="scale(1.17791)"
           style="fill:#000000" />
        <g
           id="g44"
           transform="scale(10)"
           style="fill:#000000" />
        <g
           id="g50"
           transform="scale(10)"
           style="fill:#000000" />
        <g
           id="g58"
           transform="scale(10)"
           style="fill:#000000" />
        <path
           d="m 13412.6,4606.82 c -86.9,0 -163,33.61 -214.4,94.65 -51.3,61.12 -71.3,142.1 -56,227.89 l 238.7,1352.77 h 1054.9 l -59.2,-336.37 h -676.1 l -53.9,-304.48 h 623.5 l -59.5,-336.2 h -623 l -39,-219.8 c -8.3,-47.43 -2.8,-82.24 17.7,-106.47 20.2,-24.27 53.6,-36.08 102,-36.08 h 531.2 l -59.2,-335.91 h -727.7"
           style="fill:#000000;fill-opacity:1;fill-rule:nonzero;stroke:none"
           id="path66"
           inkscape:connector-curvature="0" />
        <path
           d="m 3410.4,4606.82 59.47,335.91 h 581.59 c 182.17,0 220.44,75.04 233.75,148.38 10.78,59.04 17.14,111.31 -16.94,151.35 -23.63,27.7 -79.25,49.87 -175.57,49.87 h -24.52 c -220.54,0 -363.06,42.04 -435.73,128.6 -57.97,69.41 -74.15,171.61 -49.32,312.51 l 13.74,78.54 c 57.4,325.13 257.06,470.15 647.24,470.15 h 562.06 l -59.62,-336.37 h -560.63 c -171.96,0 -214.98,-51.78 -234.4,-147.6 -11.06,-54.24 -18.21,-106.35 17.17,-148.46 30.25,-35.91 79.47,-49.81 175.69,-49.81 h 24.5 c 220.41,0 362.2,-46.94 435.12,-133.54 58.02,-69.36 74.89,-166.77 50.03,-307.78 l -14.38,-81.56 c -57.44,-325.18 -256.98,-470.19 -647.2,-470.19 H 3410.4"
           style="fill:#000000;fill-opacity:1;fill-rule:nonzero;stroke:none"
           id="path68"
           inkscape:connector-curvature="0" />
        <path
           d="m 10268.7,4606.82 59.4,335.91 h 581.5 c 182.4,0 220.6,75.04 233.7,148.38 10.9,59.04 17.1,111.31 -16.7,151.33 -23.7,27.72 -79.6,49.89 -175.7,49.89 h -24.7 c -220.3,0 -362.8,42.04 -435.5,128.6 -57.9,69.41 -74.1,171.61 -49.4,312.51 l 13.8,78.54 c 57.3,325.13 257,470.15 647.3,470.15 h 562 l -59.5,-336.37 H 11044 c -171.6,0 -214.9,-51.83 -234.3,-147.6 -11,-54.24 -18.1,-106.35 17.3,-148.46 30.2,-35.91 79.4,-49.81 175.5,-49.81 h 24.5 c 220.6,0 362.3,-46.94 435.1,-133.54 58,-69.36 75,-166.77 50.1,-307.78 l -14.5,-81.56 c -57.3,-325.18 -256.8,-470.19 -647.2,-470.19 h -581.8"
           style="fill:#000000;fill-opacity:1;fill-rule:nonzero;stroke:none"
           id="path70"
           inkscape:connector-curvature="0" />
        <path
           d="m 6955.15,5971.05 c -179.4,0 -282.84,-70.76 -307.57,-210.34 l -111.76,-633.06 c -10.63,-60.31 -1.27,-108.51 27.92,-143.33 37.17,-44.33 106.2,-66.82 205.32,-66.82 179.6,0 283.12,70.7 307.72,210.28 l 111.69,633.29 c 10.78,60.63 1.27,108.82 -27.82,143.39 -37.07,44.12 -106.23,66.59 -205.5,66.59 z M 6710.12,4581.69 c -224.6,0 -386.42,57.16 -480.92,169.77 -73.82,88.18 -101.52,210.26 -78.1,343.84 l 123.27,698.48 c 43.67,248.15 261.01,513.48 739.8,513.48 224.49,0 386.31,-57.07 480.91,-169.72 74.18,-88.28 101.85,-210.49 78.11,-344.09 l -123.08,-698.49 c -43.86,-248.07 -261.21,-513.27 -739.99,-513.27"
           style="fill:#000000;fill-opacity:1;fill-rule:nonzero;stroke:none"
           id="path72"
           inkscape:connector-curvature="0" />
        <path
           d="m 9313.64,4606.82 235.96,1338.94 h -449.65 l 59.25,336.37 h 1278.7 l -59.3,-336.37 H 9928.89 L 9692.73,4606.82 h -379.09"
           style="fill:#000000;fill-opacity:1;fill-rule:nonzero;stroke:none"
           id="path74"
           inkscape:connector-curvature="0" />
        <path
           d="m 14700,4606.82 235.9,1338.94 h -449.8 l 59.2,336.37 h 1279 l -59.6,-336.37 h -449.5 L 15078.9,4606.82 H 14700"
           style="fill:#000000;fill-opacity:1;fill-rule:nonzero;stroke:none"
           id="path76"
           inkscape:connector-curvature="0" />
        <path
           d="m 12453.4,4606.82 -352.3,1094.73 -193,-1094.73 h -362.4 l 295.5,1675.43 h 464.5 l 353.7,-1097.76 193.4,1097.76 h 362.3 l -295.3,-1675.43 h -466.4"
           style="fill:#000000;fill-opacity:1;fill-rule:nonzero;stroke:none"
           id="path78"
           inkscape:connector-curvature="0" />
        <path
           d="m 7530.56,4606.82 295.53,1675.2 h 684.54 c 209.68,0 347.28,-42.5 420.62,-130.48 64.32,-76.31 82.17,-189.29 54.68,-345.57 l -38.5,-218.7 c -36.01,-203.5 -137.45,-340.09 -307.67,-412.26 l 301.03,-568.19 h -416.78 l -271.36,507.24 h -133.04 l 35.92,204.67 c 21.5,122.49 179.9,124.01 181.32,124.01 173.78,0 217.24,64.23 238.3,182.72 l 26.67,155.82 c 10.65,60.1 5.73,92.87 -17.3,120.71 -25.36,29.95 -73.89,43.77 -153.02,43.77 H 8145.94 L 7909.63,4606.82 h -379.07"
           style="fill:#000000;fill-opacity:1;fill-rule:nonzero;stroke:none"
           id="path80"
           inkscape:connector-curvature="0" />
        <path
           d="m 4691.13,4606.82 295.53,1675.31 h 684.71 c 209.46,0 347.01,-42.72 420.51,-130.59 64.11,-76.31 82.04,-189.29 54.52,-345.57 l -38.45,-218.7 c -56.35,-318.35 -272.93,-473.21 -662.44,-473.21 h -165.33 l 35.89,204.71 c 21.51,122.45 179.86,123.97 181.46,123.97 173.64,0 217.08,64.23 238.08,182.66 l 26.85,155.88 c 10.43,60.1 5.77,92.87 -17.46,120.71 -25.27,29.95 -73.83,43.77 -152.88,43.77 H 5306.49 L 5070.17,4606.82 h -379.04"
           style="fill:#000000;fill-opacity:1;fill-rule:nonzero;stroke:none"
           id="path82"
           inkscape:connector-curvature="0" />
        <path
           d="m 3732.41,6465.44 31.08,185.03 h 297.97 c 20.73,0 37.74,1.9 51.02,5.72 13.3,3.83 23.94,8.84 31.96,15.06 8.03,6.22 14,13.66 17.9,22.29 3.91,8.64 6.63,17.78 8.21,27.43 2.36,13.64 3.61,26.3 3.81,37.95 0.19,11.64 -2.55,21.58 -8.21,29.81 -5.66,8.23 -15.05,14.65 -28.15,19.28 -13.11,4.62 -31.59,6.93 -55.43,6.93 h -19.35 c -49.26,0 -91.13,4.36 -125.52,13.09 -34.42,8.74 -61.59,22.78 -81.53,42.12 -19.95,19.33 -33.05,44.18 -39.29,74.56 -2.75,14.12 -4.12,29.51 -4.12,46.15 0,18.66 1.95,39.1 5.87,61.32 l 6.45,38.69 c 7.42,41.67 19.65,77.78 36.66,108.33 17.01,30.56 39.3,55.65 66.88,75.3 27.55,19.64 60.41,34.24 98.52,43.75 38.14,9.54 82.01,14.29 131.67,14.29 h 288.58 l -31.67,-185.02 h -286.23 c -22.3,0 -40.27,-1.76 -53.96,-5.27 -13.68,-3.51 -24.35,-8.68 -31.96,-15.5 -7.62,-6.82 -13.11,-15.18 -16.43,-25.12 -3.32,-9.95 -6.15,-21.34 -8.51,-34.19 -2.33,-12.87 -2.84,-24.16 -1.45,-33.91 1.35,-9.75 5.27,-17.84 11.73,-24.27 6.45,-6.41 16.03,-11.29 28.72,-14.6 12.72,-3.31 29.43,-4.97 50.17,-4.97 h 19.94 c 48.87,0 90.52,-4.37 124.92,-13.1 34.41,-8.74 61.68,-22.77 81.84,-42.11 20.13,-19.33 33.31,-44.18 39.58,-74.54 3.12,-14.14 4.7,-29.96 4.7,-47.41 0,-18.54 -1.98,-38.91 -5.87,-61.07 l -6.45,-40.51 c -7.43,-42.33 -19.75,-79.02 -36.96,-110.07 -17.21,-31.04 -39.59,-56.53 -67.17,-76.49 -27.55,-19.95 -60.5,-34.76 -98.82,-44.44 -38.31,-9.68 -82.12,-14.51 -131.37,-14.51 h -299.73"
           style="fill:#000000;fill-opacity:1;fill-rule:nonzero;stroke:none"
           id="path84"
           inkscape:connector-curvature="0" />
        <path
           d="m 4689,6905.04 h 137.7 c 19.94,0 36.37,1.81 49.27,5.44 12.91,3.63 23.37,8.97 31.38,16.02 8.02,7.05 14.09,16.03 18.19,26.91 4.1,10.88 7.33,23.59 9.67,38.1 l 14.08,81.02 c 1.56,9.68 2.35,18.15 2.35,25.4 0,4.83 -0.2,8.86 -0.58,12.09 -1.58,9.67 -5.49,17.24 -11.74,22.68 -6.25,5.44 -14.95,9.27 -26.1,11.49 -11.14,2.2 -24.94,3.33 -41.35,3.33 h -141.35 z m -273.49,-439.6 148.42,867.1 h 343.86 c 44.18,0 82.99,-4.46 116.42,-13.39 33.44,-8.94 60.51,-23.55 81.24,-43.84 21.11,-20.3 35.57,-46.28 43.4,-77.94 3.9,-15.83 5.67,-33.29 5.28,-52.36 0,-19.9 -1.96,-41.42 -5.86,-64.54 l -19.36,-112.03 c -14.47,-84.85 -49.08,-147.36 -103.81,-187.55 -54.76,-40.19 -131.39,-60.49 -229.93,-60.88 h -137.84 l -43.57,-254.57 h -198.25"
           style="fill:#000000;fill-opacity:1;fill-rule:nonzero;stroke:none"
           id="path86"
           inkscape:connector-curvature="0" />
        <path
           d="m 5121.64,6465.44 147.85,867.1 h 555.41 l -31.67,-185.02 h -356.61 l -23.77,-140.29 h 329.05 l -31.67,-185.03 h -328.69 l -29.08,-171.73 h 356.61 l -31.67,-185.03 h -555.76"
           style="fill:#000000;fill-opacity:1;fill-rule:nonzero;stroke:none"
           id="path88"
           inkscape:connector-curvature="0" />
        <path
           d="m 5804.29,6695.82 69.8,406.34 c 4.69,27.82 14.37,55.42 29.05,82.84 14.67,27.41 35.21,52.09 61.62,74.08 26.42,21.97 59.27,39.69 98.59,53.21 39.31,13.5 85.74,20.25 139.32,20.25 h 248.69 l -31.67,-185.02 H 6192.7 c -26.21,0 -47.32,-2.73 -63.34,-8.17 -16.05,-5.44 -28.66,-12.8 -37.84,-22.08 -9.19,-9.29 -15.75,-19.97 -19.65,-32.06 -3.91,-12.1 -7.03,-24.59 -9.38,-37.49 l -51.75,-301.22 c -2.34,-12.74 -3.52,-24.89 -3.52,-36.45 0,-11.57 3.03,-21.79 9.09,-30.66 6.06,-8.88 16.13,-15.91 30.21,-21.12 14.07,-5.2 34.21,-7.8 60.41,-7.8 h 227 l -31.68,-185.03 h -248.69 c -53.51,0 -97.51,6.74 -132.02,20.26 -34.51,13.5 -61.12,31.33 -79.84,53.51 -18.71,21.76 -30.79,46.35 -36.26,73.77 -2.73,14.51 -4.29,29.02 -4.68,43.53 0,13.31 1.18,26.4 3.53,39.31"
           style="fill:#000000;fill-opacity:1;fill-rule:nonzero;stroke:none"
           id="path90"
           inkscape:connector-curvature="0" />
        <path
           d="m 6485.02,7147.52 31.68,185.02 h 636.98 L 7122,7147.52 h -219.35 l -116.71,-682.08 h -198.25 l 116.7,682.08 h -219.37"
           style="fill:#000000;fill-opacity:1;fill-rule:nonzero;stroke:none"
           id="path92"
           inkscape:connector-curvature="0" />
        <path
           d="m 7346.65,6905.04 h 136.59 c 19.53,0 35.84,1.81 48.95,5.44 13.08,3.63 23.83,8.97 32.23,16.02 8.4,7.05 14.85,16.03 19.34,26.91 4.49,10.88 7.91,23.59 10.26,38.1 l 14.07,81.02 c 1.57,9.28 2.35,17.33 2.35,24.19 0,4.84 -0.39,9.27 -1.18,13.3 -1.56,9.67 -5.57,17.24 -12.02,22.68 -6.45,5.44 -15.45,9.27 -26.98,11.49 -11.53,2.2 -25.51,3.33 -41.92,3.33 h -140.17 z m -271.13,-439.6 148.41,867.1 h 343.36 c 49.21,0 90.71,-5.14 124.5,-15.42 33.79,-10.27 60.35,-25.69 79.68,-46.25 19.34,-20.56 31.75,-46.57 37.22,-78.01 2.35,-13.7 3.52,-28.41 3.52,-44.14 0,-20.75 -1.96,-43.11 -5.85,-67.1 l -19.3,-112.24 c -17.55,-104.94 -67.26,-176.71 -149.14,-215.34 l 113.46,-288.6 H 7537.7 l -97.22,254.57 h -125.49 l -43.57,-254.57 h -195.9"
           style="fill:#000000;fill-opacity:1;fill-rule:nonzero;stroke:none"
           id="path94"
           inkscape:connector-curvature="0" />
        <path
           d="m 7847.78,6714.82 105.57,617.72 h 198.25 l -104.4,-610.86 c -1.17,-7.12 -1.76,-13.63 -1.76,-19.56 0.39,-8.7 1.76,-16.8 4.11,-24.31 4.68,-12.25 12.31,-22.32 22.87,-30.22 10.55,-7.91 23.95,-13.74 40.17,-17.49 16.23,-3.76 34.7,-5.63 55.43,-5.63 21.11,0 40.76,2.02 58.95,6.08 18.18,4.06 34.12,10.34 47.81,18.86 13.68,8.52 24.92,19.16 33.72,31.94 8.79,12.77 14.76,27.86 17.89,45.31 l 103.82,605.88 h 198.24 l -107.43,-627.03 c -5.49,-32.25 -17.31,-64.19 -35.49,-95.85 -18.19,-31.65 -43,-60.07 -74.47,-85.27 -31.47,-25.19 -69.87,-45.65 -115.22,-61.37 -45.34,-15.72 -98.12,-23.59 -158.31,-23.59 -51.04,0 -96.21,6.34 -135.54,19 -39.34,12.66 -71.66,30.66 -96.98,53.98 -24.92,23.32 -42.45,51.46 -52.58,84.44 -5.84,19.28 -8.76,40.19 -8.76,62.72 0,17.72 1.36,36.14 4.11,55.25"
           style="fill:#000000;fill-opacity:1;fill-rule:nonzero;stroke:none"
           id="path96"
           inkscape:connector-curvature="0" />
        <path
           d="m 8596.01,6465.44 148.21,867.1 h 233.04 l 126.7,-486.76 293.85,486.76 h 232.66 l -148.19,-867.1 h -198.26 l 92.08,538.76 -215.84,-364.01 h -183.58 l -90.33,364.01 -92.08,-538.76 h -198.26"
           style="fill:#000000;fill-opacity:1;fill-rule:nonzero;stroke:none"
           id="path98"
           inkscape:connector-curvature="0" />
      </g>
    </g>
  </g>
</svg>
