<?xml version="1.0" encoding="UTF-8"?>
<!-- Generator: Adobe Illustrator 19.1.0, SVG Export Plug-In . SVG Version: 6.00 Build 0)  -->
<!DOCTYPE svg PUBLIC "-//W3C//DTD SVG 1.1//EN" "http://www.w3.org/Graphics/SVG/1.1/DTD/svg11.dtd">
<svg version="1.1" id="Layer_1" xmlns="http://www.w3.org/2000/svg" xmlns:xlink="http://www.w3.org/1999/xlink" x="0px" y="0px" viewBox="0 0 1600 900" enable-background="new 0 0 1600 900" xml:space="preserve">
<g id="Ziggo_x5F_Sport_x5F_Golf_x5F_White_x5F_FC_1_">
	<path fill="#383A3B" d="M1355.676,569.166h-39.691V454.899h-38.079v-34.528h117.842v34.528h-40.071V569.166z M1259.705,528.863   c-3.584-9.978-8.137-15.341-17.683-18.424c25.061-6.879,25.081-21.185,25.081-45.031c0-37.1-16.865-44.435-51.196-45.037h-76.584   v148.795h39.678v-39.481h23.252c10.509,0,13.923,1.976,17.009,11.014c7.843,22.882,9.802,28.468,9.802,28.468h45.136   C1274.197,569.166,1269.801,556.99,1259.705,528.863z M1178.999,454.899h30.761c13.097,0,16.458,3.761,16.458,17.057   c0,16.861,0.596,23.216-16.458,23.216h-30.761V454.899z M1050.58,419.201c-40.264,0-68.839,8.73-68.839,54.557v42.061   c0,45.824,28.575,54.554,68.839,54.554c40.282,0,68.851-8.73,68.851-54.554v-42.061   C1119.431,427.93,1090.862,419.201,1050.58,419.201z M1078.573,511.419c-0.597,22.219-7.371,24.4-27.993,24.4   c-20.623,0-27.375-2.182-27.972-24.4v-33.524c0.597-22.03,7.349-24.206,27.972-24.206c20.622,0,27.396,2.176,27.993,24.206V511.419   z M916.368,420.371h-74.79v148.795h39.672v-38.089h35.118c41.46,0,50.79-14.293,50.79-56.156   C967.158,436.049,953.268,420.371,916.368,420.371z M926.317,475.732c0-0.012,0-0.022,0-0.034   c-0.004,15.239-2.397,20.79-17.86,20.79h-27.177v-41.581h27.177c15.463,0,17.856,5.552,17.86,20.79c0-0.012,0-0.022,0-0.034   V475.732z M758.535,451.392L758.535,451.392c23.163,0.686,38.469,1.602,57.151,4.119v-32.784   c-8.686-1.044-30.691-3.781-51.868-3.781c-1.765,0-5.283,0.023-5.283,0.023l-0.029,0.022c-38.786,0-62.731,2.77-62.731,45.316   c0,42.547,21.372,42.349,57.982,44.922l8.707,0.593c18.601,1.188,20.778,0.99,20.778,13.853c0,12.467-6.135,13.654-24.737,13.654   l-0.066,0.064h0.001c-22.753-0.686-41.251-1.89-59.602-4.405v32.762c8.532,1.043,29.507,4.068,54.412,4.068   c1.734,0,5.011-0.023,5.011-0.023l0.243-0.012c65.304,0,64.314-24.142,64.314-48.681c0-34.037-10.884-39.577-54.815-42.744   l-16.425-1.187c-10.488-0.791-16.227-1.188-16.227-13.061c0-8.312,1.781-12.665,23.153-12.665L758.535,451.392z M991.478,265.628   c23.413,0.786,41.601,1.835,60.484,4.717v-37.552c-8.78-1.196-33.814-4.331-55.219-4.331c-46.701,0-81.184,7.892-81.184,60.791   v41.381c0,51.825,25.591,60.355,75.929,60.355c57.165,0,70.813-9.808,70.813-63.772v-27.934h-72.732v29.64h29.438   c0,22.185-5.759,27.086-27.518,27.086c-22.178,0-31.993-2.981-31.993-31.357h-0.01v-27.668   C959.486,268.609,969.301,265.628,991.478,265.628 M1156.932,265.628c23.413,0.786,41.601,1.835,60.484,4.717v-37.552   c-8.78-1.196-33.814-4.331-55.219-4.331c-46.701,0-81.184,7.892-81.184,60.791v41.381c0,51.825,25.592,60.355,75.929,60.355   c57.165,0,70.812-9.808,70.812-63.772v-27.934h-72.732v29.64h29.438c0,22.185-5.759,27.086-27.518,27.086   c-22.178,0-31.993-2.981-31.993-31.357h-0.01v-27.668C1124.939,268.609,1134.754,265.628,1156.932,265.628 M1320.601,228.462   c-43.288,0-74.01,9.385-74.01,58.655v45.221c0,49.267,30.722,58.652,74.01,58.652c43.308,0,74.023-9.386,74.023-58.652v-45.221   C1394.624,237.848,1363.909,228.462,1320.601,228.462z M1350.697,327.608c-0.642,23.888-7.924,26.233-30.096,26.233   c-22.172,0-29.431-2.345-30.073-26.233v-36.042c0.642-23.685,7.901-26.024,30.073-26.024c22.172,0,29.454,2.339,30.096,26.024   V327.608z M827.224,265.582l-76.578,85.737v1.284h76.578v37.107H696.469v-36.042l75.51-85.531v-1.281h-70.603v-37.113h125.848   V265.582z M892.285,389.71h-42.659V229.743h42.659V389.71z M540.424,523.809c-0.952-19.356-14.031-49.15-46.896-53.076H376.574   L511.313,341.73c5.682-5.418,18.459-23.823,9.368-43.634c-7.298-15.923-19.534-22.711-40.9-22.711H311.931   c0.691,22.269,11.795,48.859,41.312,53.619h95.92L307.413,462.219c-5.753,5.51-15.216,22.49-7.749,39.72   c6.736,15.536,18.088,21.869,39.19,21.869H540.424z M248.823,522.206c0,13.005,5.295,24.818,13.843,33.363   c8.548,8.539,20.343,13.828,33.354,13.828H541.26c13.011,0,24.806-5.289,33.351-13.828c8.545-8.545,13.84-20.358,13.84-33.363   V399.597l-0.013-75.792c0-25.033,25.26-48.367,53.089-48.42v124.212v122.609c0,27.687-11.217,52.769-29.364,70.903   c-18.147,18.153-43.222,29.382-70.903,29.382H296.021c-27.687,0-52.756-11.229-70.903-29.382   c-18.147-18.134-29.37-43.216-29.37-70.903V276.989c0-27.69,11.227-52.762,29.373-70.903   c18.146-18.152,43.216-29.376,70.903-29.376H418.62h122.591c13.594,0,26.556,2.709,38.369,7.611   c16.217,6.714,26.581,15.001,36.576,25.8c3.981,4.3,7.777,10.659,7.777,18.767c0,6.794-2.58,13.582-7.777,18.767   c-5.185,5.185-11.967,7.771-18.761,7.771c-6.794,0-13.662-2.672-18.761-7.771c-7.089-7.08-10.965-10.713-19.074-14.147   c-5.646-2.393-11.85-3.716-18.349-3.716H418.62H296.024c-13.011,0-24.809,5.289-33.357,13.84   c-8.545,8.545-13.84,20.348-13.84,33.356L248.823,522.206z M747.625,675.006c-0.43-8.179-7.424-8.072-13.88-8.072   c-15.493,0-15.926,4.736-16.141,17.756v13.125c0,14.313,4.951,15.818,16.141,15.818c10.975,0,13.88-2.476,13.88-13.665h-14.848   v-14.955h36.692v14.095c0,27.223-6.886,32.171-35.725,32.171c-25.392,0-38.305-4.303-38.305-30.451v-20.874   c0-26.682,14.633-30.666,38.305-30.666c20.874,0,35.725,0.107,35.725,25.718H747.625z M909.392,701.691v-22.812   c0-24.855,15.493-29.591,37.337-29.591s37.337,4.736,37.337,29.591v22.812c0,24.855-15.493,29.588-37.337,29.588   S909.392,726.546,909.392,701.691z M961.903,699.323V681.14c0-11.945-3.981-13.128-15.173-13.128s-14.848,1.182-15.173,13.128   v18.183c0.326,12.05,3.981,13.235,15.173,13.235S961.903,711.373,961.903,699.323z M1147.656,711.913h33.682v18.721h-55.195   v-80.698h21.513V711.913z M1342.574,683.397h32.927v17.646h-32.927v29.591h-21.525v-80.698h57.241v17.646h-35.716V683.397z"/>
</g>
</svg>