<?xml version="1.0" encoding="UTF-8" standalone="no"?>
<!-- Created with Inkscape (http://www.inkscape.org/) -->

<svg
   xmlns:dc="http://purl.org/dc/elements/1.1/"
   xmlns:cc="http://creativecommons.org/ns#"
   xmlns:rdf="http://www.w3.org/1999/02/22-rdf-syntax-ns#"
   xmlns:svg="http://www.w3.org/2000/svg"
   xmlns="http://www.w3.org/2000/svg"
   xmlns:sodipodi="http://sodipodi.sourceforge.net/DTD/sodipodi-0.dtd"
   xmlns:inkscape="http://www.inkscape.org/namespaces/inkscape"
   width="105.83462"
   height="17.437561"
   id="svg2"
   version="1.1"
   inkscape:version="0.48.2 r9819"
   sodipodi:docname="TSN2.svg">
  <defs
     id="defs4" />
  <sodipodi:namedview
     id="base"
     pagecolor="#ffffff"
     bordercolor="#666666"
     borderopacity="1.0"
     inkscape:pageopacity="0.0"
     inkscape:pageshadow="2"
     inkscape:zoom="2.56"
     inkscape:cx="7.9034308"
     inkscape:cy="-13.166813"
     inkscape:document-units="px"
     inkscape:current-layer="layer1"
     showgrid="false"
     fit-margin-top="0"
     fit-margin-left="0"
     fit-margin-right="0"
     fit-margin-bottom="0"
     inkscape:window-width="1140"
     inkscape:window-height="425"
     inkscape:window-x="621"
     inkscape:window-y="180"
     inkscape:window-maximized="0" />
  <metadata
     id="metadata7">
    <rdf:RDF>
      <cc:Work
         rdf:about="">
        <dc:format>image/svg+xml</dc:format>
        <dc:type
           rdf:resource="http://purl.org/dc/dcmitype/StillImage" />
        <dc:title></dc:title>
      </cc:Work>
    </rdf:RDF>
  </metadata>
  <g
     inkscape:label="Layer 1"
     inkscape:groupmode="layer"
     id="layer1"
     transform="translate(-362.36704,-382.59521)">
    <g
       id="g11129"
       transform="matrix(1.25,0,0,-1.25,466.01666,382.59614)">
      <path
         inkscape:connector-curvature="0"
         d="m 0,0 -16.967,0 5.428,-5.429 -5.433,-5.425 16.972,0 c 0.961,0 1.748,0.786 1.748,1.749 l 0,7.358 C 1.748,-0.786 0.961,0 0,0"
         style="fill:#ed1d24;fill-opacity:1;fill-rule:nonzero;stroke:none"
         id="path11131" />
    </g>
    <g
       id="g11133"
       transform="matrix(1.25,0,0,-1.25,436.04479,382.59614)">
      <path
         inkscape:connector-curvature="0"
         d="M 0,0 5.428,-5.431 0,-10.858 l 4.381,0 L 9.81,-5.429 4.381,0 0,0 z"
         style="fill:#434344;fill-opacity:1;fill-rule:nonzero;stroke:none"
         id="path11135" />
    </g>
    <g
       id="g11137"
       transform="matrix(1.25,0,0,-1.25,461.01366,392.28726)">
      <path
         inkscape:connector-curvature="0"
         d="M 0,0 C 0.273,0 0.463,0.053 0.56,0.158 0.654,0.267 0.699,0.476 0.698,0.784 0.696,1.097 0.638,1.31 0.531,1.426 0.42,1.547 0.227,1.609 -0.055,1.609 l -3.292,0 -0.01,1.61 3.081,0 c 0.295,0 0.503,0.053 0.619,0.162 0.107,0.104 0.161,0.303 0.16,0.59 C 0.5,4.267 0.423,4.475 0.277,4.599 0.088,4.736 -0.175,4.805 -0.508,4.805 l -5.541,0 c 0.099,0.615 0.345,1.043 0.741,1.28 0.428,0.244 1.15,0.369 2.166,0.369 l 2.95,0 C 0.775,6.454 1.465,6.333 1.871,6.097 2.396,5.794 2.661,5.157 2.666,4.191 2.669,3.656 2.595,3.281 2.439,3.059 2.278,2.839 1.936,2.639 1.414,2.456 1.953,2.285 2.31,2.122 2.482,1.966 2.734,1.761 2.859,1.298 2.865,0.576 2.87,-0.268 2.67,-0.871 2.268,-1.231 1.872,-1.574 0.996,-1.748 -0.363,-1.748 l -2.799,0 c -1.062,0 -1.824,0.183 -2.285,0.54 C -5.746,-0.977 -5.952,-0.575 -6.065,0 L 0,0 z"
         style="fill:#ffffff;fill-opacity:1;fill-rule:nonzero;stroke:none"
         id="path11139" />
    </g>
    <g
       id="g11141"
       transform="matrix(1.25,0,0,-1.25,384.88329,386.97851)">
      <path
         inkscape:connector-curvature="0"
         d="m 0,0 1.671,3.503 -18.014,0 -1.67,-3.504 L 0,0 z"
         style="fill:#ed1d24;fill-opacity:1;fill-rule:nonzero;stroke:none"
         id="path11143" />
    </g>
    <g
       id="g11145"
       transform="matrix(1.25,0,0,-1.25,370.47166,389.14527)">
      <path
         inkscape:connector-curvature="0"
         d="m 0,0 4.94,0 -4.175,-8.71 -4.941,0 L 0,0 z"
         style="fill:#ed1d24;fill-opacity:1;fill-rule:nonzero;stroke:none"
         id="path11147" />
    </g>
    <g
       id="g11149"
       transform="matrix(1.25,0,0,-1.25,380.90929,400.03264)">
      <path
         inkscape:connector-curvature="0"
         d="m 0,0 1.689,3.571 12.665,0 1.048,2.026 c 0,0 -6.771,10e-4 -7.621,0 -1.04,-0.002 -3.363,-0.076 -3.924,1.071 -0.372,0.761 0.36,2.043 0.36,2.043 0,0 13.265,-10e-4 14.171,-10e-4 0.903,0 1.663,-0.191 2.086,-0.728 C 20.875,7.479 20.845,6.755 20.245,5.597 19.899,4.931 18.993,2.896 18.781,2.47 18.566,2.043 18.121,1.297 16.985,0.764 15.847,0.23 14.924,0 13.43,0 L 0,0 z"
         style="fill:#ed1d24;fill-opacity:1;fill-rule:nonzero;stroke:none"
         id="path11151" />
    </g>
    <g
       id="g11153"
       transform="matrix(1.25,0,0,-1.25,387.18366,386.97851)">
      <path
         inkscape:connector-curvature="0"
         d="m 0,0 c 0,0 0.704,1.896 2.307,2.735 1.53,0.801 4.621,0.768 4.897,0.768 l 11.767,0 L 17.313,0 0,0 z"
         style="fill:#ed1d24;fill-opacity:1;fill-rule:nonzero;stroke:none"
         id="path11155" />
    </g>
    <g
       id="g11157"
       transform="matrix(1.25,0,0,-1.25,411.84616,386.97851)">
      <path
         inkscape:connector-curvature="0"
         d="m 0,0 1.58,3.503 11.112,0 c 0,0 4.497,0.255 5.314,-3.503 0.368,-1.693 -0.44,-3.121 -0.464,-3.176 -0.026,-0.053 -3.45,-7.267 -3.45,-7.267 l -4.966,0 3.838,7.935 c 0,0 0.587,0.946 0.191,1.762 C 12.756,0.065 11.581,0.006 11.481,0 11.385,-0.007 0,0 0,0"
         style="fill:#ed1d24;fill-opacity:1;fill-rule:nonzero;stroke:none"
         id="path11159" />
    </g>
    <g
       id="g11161"
       transform="matrix(1.25,0,0,-1.25,410.84454,389.14527)">
      <path
         inkscape:connector-curvature="0"
         d="m 0,0 4.943,0 -4.17,-8.71 -4.943,0 L 0,0 z"
         style="fill:#ed1d24;fill-opacity:1;fill-rule:nonzero;stroke:none"
         id="path11163" />
    </g>
  </g>
</svg>
