<?xml version="1.0" encoding="UTF-8" standalone="no"?>
<!-- Created with Inkscape (http://www.inkscape.org/) -->

<svg
   xmlns:dc="http://purl.org/dc/elements/1.1/"
   xmlns:cc="http://creativecommons.org/ns#"
   xmlns:rdf="http://www.w3.org/1999/02/22-rdf-syntax-ns#"
   xmlns:svg="http://www.w3.org/2000/svg"
   xmlns="http://www.w3.org/2000/svg"
   xmlns:sodipodi="http://sodipodi.sourceforge.net/DTD/sodipodi-0.dtd"
   xmlns:inkscape="http://www.inkscape.org/namespaces/inkscape"
   width="105.834"
   height="17.435099"
   id="svg2"
   version="1.1"
   inkscape:version="0.48.2 r9819"
   sodipodi:docname="TSN4.svg">
  <defs
     id="defs4" />
  <sodipodi:namedview
     id="base"
     pagecolor="#ffffff"
     bordercolor="#666666"
     borderopacity="1.0"
     inkscape:pageopacity="0.0"
     inkscape:pageshadow="2"
     inkscape:zoom="2.56"
     inkscape:cx="-79.353585"
     inkscape:cy="39.681366"
     inkscape:document-units="px"
     inkscape:current-layer="layer1"
     showgrid="false"
     fit-margin-top="0"
     fit-margin-left="0"
     fit-margin-right="0"
     fit-margin-bottom="0"
     inkscape:window-width="1140"
     inkscape:window-height="425"
     inkscape:window-x="621"
     inkscape:window-y="180"
     inkscape:window-maximized="0" />
  <metadata
     id="metadata7">
    <rdf:RDF>
      <cc:Work
         rdf:about="">
        <dc:format>image/svg+xml</dc:format>
        <dc:type
           rdf:resource="http://purl.org/dc/dcmitype/StillImage" />
        <dc:title></dc:title>
      </cc:Work>
    </rdf:RDF>
  </metadata>
  <g
     inkscape:label="Layer 1"
     inkscape:groupmode="layer"
     id="layer1"
     transform="translate(-444.03311,-390.26524)">
    <g
       id="g11057"
       transform="matrix(1.25,0,0,-1.25,547.68211,390.26984)">
      <path
         inkscape:connector-curvature="0"
         d="m 0,0 -16.969,0 5.429,-5.43 -5.433,-5.427 16.973,0 c 0.962,0 1.748,0.788 1.748,1.748 l 0,7.362 C 1.748,-0.786 0.962,0 0,0"
         style="fill:#ed1d24;fill-opacity:1;fill-rule:nonzero;stroke:none"
         id="path11059" />
    </g>
    <g
       id="g11061"
       transform="matrix(1.25,0,0,-1.25,517.70899,390.26984)">
      <path
         inkscape:connector-curvature="0"
         d="M 0,0 5.428,-5.432 0,-10.859 l 4.38,0 L 9.81,-5.43 4.38,0 0,0 z"
         style="fill:#434344;fill-opacity:1;fill-rule:nonzero;stroke:none"
         id="path11063" />
    </g>
    <g
       id="g11065"
       transform="matrix(1.25,0,0,-1.25,545.38536,396.40997)">
      <path
         inkscape:connector-curvature="0"
         d="m 0,0 c -0.353,0.479 -1.223,0.718 -2.607,0.718 l -1.07,0 0,0.005 -2.303,0 0.001,1.134 5.99,0 0,1.71 -7.912,0 -0.001,-4.551 5.294,0.005 c 0.353,0 0.605,-0.084 0.752,-0.25 0.139,-0.165 0.21,-0.289 0.209,-0.692 0.001,-0.437 -0.074,-0.636 -0.222,-0.792 -0.147,-0.166 -0.416,-0.248 -0.806,-0.248 l -5.438,0 c 0.089,-0.431 0.218,-0.748 0.386,-0.954 0.443,-0.521 1.301,-0.78 2.575,-0.78 l 2.499,0 c 1.149,0 1.956,0.21 2.421,0.632 0.434,0.378 0.651,1.134 0.652,2.267 C 0.42,-0.83 0.28,-0.39 0,0"
         style="fill:#ffffff;fill-opacity:1;fill-rule:nonzero;stroke:none"
         id="path11067" />
    </g>
    <g
       id="g11069"
       transform="matrix(1.25,0,0,-1.25,466.54561,394.64859)">
      <path
         inkscape:connector-curvature="0"
         d="m 0,0 1.671,3.503 -18.013,0 L -18.01,-0.001 0,0 z"
         style="fill:#ed1d24;fill-opacity:1;fill-rule:nonzero;stroke:none"
         id="path11071" />
    </g>
    <g
       id="g11073"
       transform="matrix(1.25,0,0,-1.25,452.13461,396.81409)">
      <path
         inkscape:connector-curvature="0"
         d="m 0,0 4.94,0 -4.175,-8.709 -4.939,0 L 0,0 z"
         style="fill:#ed1d24;fill-opacity:1;fill-rule:nonzero;stroke:none"
         id="path11075" />
    </g>
    <g
       id="g11077"
       transform="matrix(1.25,0,0,-1.25,462.57098,407.70034)">
      <path
         inkscape:connector-curvature="0"
         d="m 0,0 1.689,3.571 12.665,0 1.047,2.026 -7.621,0 C 6.74,5.594 4.419,5.52 3.856,6.668 c -0.371,0.76 0.361,2.043 0.361,2.043 0,0 13.264,-0.002 14.169,-0.002 0.903,0 1.663,-0.19 2.086,-0.728 C 20.873,7.478 20.843,6.754 20.243,5.597 19.897,4.931 18.99,2.896 18.778,2.47 18.565,2.044 18.119,1.298 16.984,0.764 15.846,0.231 14.923,0 13.429,0 L 0,0 z"
         style="fill:#ed1d24;fill-opacity:1;fill-rule:nonzero;stroke:none"
         id="path11079" />
    </g>
    <g
       id="g11081"
       transform="matrix(1.25,0,0,-1.25,468.84548,394.64859)">
      <path
         inkscape:connector-curvature="0"
         d="m 0,0 c 0,0 0.704,1.896 2.306,2.736 1.53,0.799 4.62,0.767 4.897,0.767 l 11.765,0 L 17.31,0 0,0 z"
         style="fill:#ed1d24;fill-opacity:1;fill-rule:nonzero;stroke:none"
         id="path11083" />
    </g>
    <g
       id="g11085"
       transform="matrix(1.25,0,0,-1.25,493.50486,394.64859)">
      <path
         inkscape:connector-curvature="0"
         d="m 0,0 1.58,3.503 11.11,0 c 0,0 4.496,0.256 5.313,-3.503 0.367,-1.691 -0.44,-3.12 -0.464,-3.175 -0.027,-0.053 -3.449,-7.266 -3.449,-7.266 l -4.965,0 3.837,7.935 c 0,0 0.586,0.946 0.19,1.761 C 12.754,0.066 11.579,0.007 11.479,0 11.383,-0.006 0,0 0,0"
         style="fill:#ed1d24;fill-opacity:1;fill-rule:nonzero;stroke:none"
         id="path11087" />
    </g>
    <g
       id="g11089"
       transform="matrix(1.25,0,0,-1.25,492.50323,396.81409)">
      <path
         inkscape:connector-curvature="0"
         d="m 0,0 4.941,0 -4.168,-8.709 -4.942,0 L 0,0 z"
         style="fill:#ed1d24;fill-opacity:1;fill-rule:nonzero;stroke:none"
         id="path11091" />
    </g>
  </g>
</svg>
