<?xml version="1.0" encoding="UTF-8" standalone="no"?>
<!-- Created with Inkscape (http://www.inkscape.org/) -->
<svg xmlns:dc="http://purl.org/dc/elements/1.1/" xmlns:cc="http://creativecommons.org/ns#" xmlns:rdf="http://www.w3.org/1999/02/22-rdf-syntax-ns#" xmlns:svg="http://www.w3.org/2000/svg" xmlns="http://www.w3.org/2000/svg" xmlns:xlink="http://www.w3.org/1999/xlink" xmlns:sodipodi="http://sodipodi.sourceforge.net/DTD/sodipodi-0.dtd" xmlns:inkscape="http://www.inkscape.org/namespaces/inkscape" width="345.75299" height="345.603" viewBox="0 0 34.575299 34.560301" version="1.1" id="svg8" inkscape:version="0.92.2 5c3e80d, 2017-08-06" sodipodi:docname="ABC.svg">
  <defs id="defs2">
    <linearGradient inkscape:collect="always" id="linearGradient3678">
      <stop style="stop-color:#366aa5;stop-opacity:1" offset="0" id="stop3680"/>
      <stop style="stop-color:black;stop-opacity:1" offset="1" id="stop3682"/>
    </linearGradient>
    <linearGradient id="linearGradient3474" inkscape:collect="always">
      <stop id="stop3476" offset="0" style="stop-color:black;stop-opacity:1;"/>
      <stop id="stop3478" offset="1" style="stop-color:black;stop-opacity:0;"/>
    </linearGradient>
    <linearGradient id="linearGradient3315" inkscape:collect="always">
      <stop id="stop3317" offset="0" style="stop-color:black;stop-opacity:1;"/>
      <stop id="stop3319" offset="1" style="stop-color:white;stop-opacity:1"/>
    </linearGradient>
    <linearGradient id="linearGradient3143" inkscape:collect="always">
      <stop id="stop3145" offset="0" style="stop-color:#cc9b00;stop-opacity:1;"/>
      <stop id="stop3147" offset="1" style="stop-color:black;stop-opacity:1"/>
    </linearGradient>
    <linearGradient id="linearGradient3042" inkscape:collect="always">
      <stop id="stop3044" offset="0" style="stop-color:#999;stop-opacity:1;"/>
      <stop id="stop3046" offset="1" style="stop-color:#999;stop-opacity:0;"/>
    </linearGradient>
    <linearGradient y2="131.94031" x2="166.19736" y1="26.31955" x1="70.672714" gradientUnits="userSpaceOnUse" id="linearGradient3073" xlink:href="#linearGradient3042" inkscape:collect="always"/>
    <radialGradient gradientUnits="userSpaceOnUse" gradientTransform="matrix(0.73337234,2.0203655,-1.7843282,0.64769317,405.71715,-394.74439)" r="158" fy="201.7543" fx="259.41727" cy="201.7543" cx="259.41727" id="radialGradient3149" xlink:href="#linearGradient3143" inkscape:collect="always"/>
    <linearGradient gradientUnits="userSpaceOnUse" y2="303.47711" x2="158.93559" y1="91.327881" x1="158.93559" id="linearGradient3167" xlink:href="#linearGradient3474" inkscape:collect="always"/>
    <radialGradient r="158" fy="201.7543" fx="259.41727" cy="201.7543" cx="259.41727" gradientTransform="matrix(0.73337234,2.0203655,-1.7843282,0.64769317,405.71715,-394.74439)" gradientUnits="userSpaceOnUse" id="radialGradient3211" xlink:href="#linearGradient3143" inkscape:collect="always"/>
    <linearGradient gradientTransform="matrix(1.1070269,0,0,1.1193964,-21.42839,-22.096507)" gradientUnits="userSpaceOnUse" y2="154.58331" x2="296.04315" y1="154.58331" x1="135.89629" id="linearGradient3321" xlink:href="#linearGradient3315" inkscape:collect="always"/>
    <linearGradient y2="154.58331" x2="296.04315" y1="154.58331" x1="135.89629" gradientTransform="matrix(0.78525769,0,0,0.78132011,1.0722243,1.416846)" gradientUnits="userSpaceOnUse" id="linearGradient3365" xlink:href="#linearGradient3315" inkscape:collect="always"/>
    <linearGradient y2="154.58331" x2="296.04315" y1="154.58331" x1="135.89629" gradientTransform="matrix(0.78525769,0,0,0.78132011,1.0722246,1.4168467)" gradientUnits="userSpaceOnUse" id="linearGradient3368" xlink:href="#linearGradient3315" inkscape:collect="always"/>
    <linearGradient y2="154.58331" x2="296.04315" y1="154.58331" x1="135.89629" gradientTransform="matrix(0.78525769,0,0,0.78132011,1.0722248,1.4168461)" gradientUnits="userSpaceOnUse" id="linearGradient3371" xlink:href="#linearGradient3315" inkscape:collect="always"/>
    <linearGradient gradientUnits="userSpaceOnUse" y2="157.08017" x2="296.85123" y1="157.08017" x1="160.94911" id="linearGradient3480" xlink:href="#linearGradient3474" inkscape:collect="always"/>
    <radialGradient r="158" fy="201.7543" fx="259.41727" cy="201.7543" cx="259.41727" gradientTransform="matrix(0.73337234,2.0203655,-1.7843282,0.64769317,405.71715,-394.74439)" gradientUnits="userSpaceOnUse" id="radialGradient3502" xlink:href="#linearGradient3143" inkscape:collect="always"/>
    <radialGradient r="158" fy="201.7543" fx="259.41727" cy="201.7543" cx="259.41727" gradientTransform="matrix(0.73337234,2.0203655,-1.7843282,0.64769317,405.71715,-394.74439)" gradientUnits="userSpaceOnUse" id="radialGradient3631" xlink:href="#linearGradient3143" inkscape:collect="always"/>
    <radialGradient r="158" fy="201.7543" fx="259.41727" cy="201.7543" cx="259.41727" gradientTransform="matrix(0.73337234,2.0203655,-1.7843282,0.64769317,405.71715,-394.74439)" gradientUnits="userSpaceOnUse" id="radialGradient3651" xlink:href="#linearGradient3143" inkscape:collect="always"/>
    <radialGradient r="158" fy="201.7543" fx="259.41727" cy="201.7543" cx="259.41727" gradientTransform="matrix(0.73337234,2.0203655,-1.7843282,0.64769317,405.71715,-394.74439)" gradientUnits="userSpaceOnUse" id="radialGradient3672" xlink:href="#linearGradient3678" inkscape:collect="always"/>
    <style type="text/css" id="style3156">
   
    .fil0 {fill:#140F10;fill-rule:nonzero}
   
  </style>
    <radialGradient r="158" fy="201.7543" fx="259.41727" cy="201.7543" cx="259.41727" gradientTransform="matrix(0.73337234,2.0203655,-1.7843282,0.64769317,405.71715,-394.74439)" gradientUnits="userSpaceOnUse" id="radialGradient3060" xlink:href="#linearGradient3678" inkscape:collect="always"/>
    <radialGradient r="158" fy="201.7543" fx="259.41727" cy="201.7543" cx="259.41727" gradientTransform="matrix(0.73337234,2.0203655,-1.7843282,0.64769317,405.71715,-394.74439)" gradientUnits="userSpaceOnUse" id="radialGradient3087" xlink:href="#linearGradient3678" inkscape:collect="always"/>
  </defs>
  <sodipodi:namedview id="base" pagecolor="#ffffff" bordercolor="#666666" borderopacity="1.0" inkscape:pageopacity="0.0" inkscape:pageshadow="2" inkscape:zoom="0.43355452" inkscape:cx="547.04591" inkscape:cy="111.89009" inkscape:document-units="px" inkscape:current-layer="layer1" showgrid="false" units="px" fit-margin-top="0" fit-margin-left="0" fit-margin-right="0" fit-margin-bottom="0" inkscape:window-width="1680" inkscape:window-height="929" inkscape:window-x="0" inkscape:window-y="1" inkscape:window-maximized="1"/>
  <metadata id="metadata5">
    <rdf:RDF>
      <cc:Work rdf:about="">
        <dc:format>image/svg+xml</dc:format>
        <dc:type rdf:resource="http://purl.org/dc/dcmitype/StillImage"/>
        <dc:title/>
      </cc:Work>
    </rdf:RDF>
  </metadata>
  <g inkscape:label="Layer 1" inkscape:groupmode="layer" id="layer1" transform="translate(-20.890546,-82.381933)">
    <g id="g4452" transform="matrix(0.10941545,0,0,0.10941545,20.890546,82.381917)">
      <path inkscape:connector-curvature="0" id="path3011" d="M 154,2.0625 C 99.423247,2.8396815 47.010347,35.020477 21.250278,82.709936 -6.7148328,132.28247 -3.8673267,197.26437 28.159642,244.03258 c 30.073507,45.74814 85.148748,73.08101 139.871608,69.02992 56.52634,-2.96168 109.25164,-39.59459 132.1875,-91.28125 22.76819,-49.03164 16.88368,-110.48314 -15,-154.21875 C 255.85007,25.789674 205.34389,0.3219758 154,2.0625 Z" style="fill:url(#radialGradient3087);fill-opacity:1;fill-rule:evenodd;stroke:none"/>
      <path inkscape:connector-curvature="0" id="path3151" d="M 154,2.0625 C 99.423247,2.8396815 47.010347,35.020477 21.250278,82.709936 -6.7148328,132.28247 -3.8673267,197.26437 28.159642,244.03258 c 30.073507,45.74814 85.148748,73.08101 139.871608,69.02992 56.52634,-2.96168 109.25164,-39.59459 132.1875,-91.28125 22.76819,-49.03164 16.88368,-110.48314 -15,-154.21875 C 255.85007,25.789674 205.34389,0.3219758 154,2.0625 Z" style="fill:url(#linearGradient3167);fill-opacity:1;fill-rule:evenodd;stroke:none"/>
      <path sodipodi:nodetypes="cccscsccsc" inkscape:connector-curvature="0" id="path3016" d="M 6.3008985,116.48449 C 16.534367,90.402716 13.874005,87.174778 41.60102,53.62377 57.128129,36.869755 70.085895,23.703793 103.82741,11.014327 c 18.01831,-5.8687624 36.9626,-10.07443379 55.47286,-9.9652781 22.65152,0.133577 45.59412,4.4676482 68.63864,15.9510221 -0.005,0.199895 -0.0112,0.39943 -0.017,0.598604 -1.62266,55.10785 -17.39985,82.651605 -38.42581,99.974095 -42.27691,32.24855 -79.08921,41.85798 -114.16361,44.26753 -32.077471,1.68223 -53.966809,-20.09206 -71.3402231,-35.33812 -0.2965511,-0.26024 2.6026193,-9.7614 2.3086716,-10.01769 z" style="fill:url(#linearGradient3073);fill-opacity:1;stroke:none"/>
      <path sodipodi:nodetypes="ssscccsssssss" inkscape:connector-curvature="0" id="path3015-9" d="m 56.500603,109.05984 c -26.332987,0 -47.4613816,21.57859 -47.4613816,48.33132 0,26.75275 21.1283946,48.33132 47.4613816,48.33132 16.169548,0 22.49064,-11.61146 22.49064,-11.61146 v 10.56319 h 24.970687 v -47.28305 c 0,-26.75273 -21.128301,-48.33132 -47.461327,-48.33132 z m 0,25.26912 c 12.554774,0 22.618632,10.29673 22.618632,23.0622 0,12.76548 -10.063858,23.06222 -22.618632,23.06222 -12.55483,0 -22.618763,-10.29674 -22.618763,-23.06222 0,-12.76547 10.063933,-23.0622 22.618763,-23.0622 z" style="fill:url(#linearGradient3480);fill-opacity:1;stroke:none"/>
      <path style="fill:#ffffff;fill-opacity:1;stroke:#000000;stroke-width:0.7885766;stroke-opacity:1" d="m 54.238743,108.18341 c -27.438477,0 -49.453864,22.10499 -49.453864,49.51035 0,27.40538 22.015387,49.51036 49.453864,49.51036 16.848365,0 23.434825,-11.89474 23.434825,-11.89474 v 10.82089 h 26.018982 v -48.43651 c 0,-27.40536 -22.015292,-49.51035 -49.453807,-49.51035 z m 0,25.88557 c 13.081839,0 23.568189,10.5479 23.568189,23.62478 0,13.0769 -10.48635,23.62481 -23.568189,23.62481 -13.081895,0 -23.568324,-10.54791 -23.568324,-23.62481 0,-13.07688 10.486429,-23.62478 23.568324,-23.62478 z" id="path3436" inkscape:connector-curvature="0" sodipodi:nodetypes="ssscccsssssss"/>
      <path style="fill:#ffffff;fill-opacity:1;stroke:#000000;stroke-width:0.7885766;stroke-opacity:1" d="m 109.98488,74.090641 c 0,27.868799 0,55.737609 0,83.606409 0,27.40536 22.0324,49.52771 49.47091,49.52771 27.43848,0 49.4141,-22.12235 49.4141,-49.52771 0,-27.40538 -21.97562,-49.52771 -49.4141,-49.52771 -16.84836,0 -23.4575,11.92755 -23.4575,11.92755 0,-15.33542 0,-30.67083 0,-46.006249 z m 49.47091,59.978509 c 13.0819,0 23.5711,10.55099 23.5711,23.6279 0,13.07686 -10.4892,23.6279 -23.5711,23.6279 -13.08184,0 -23.5711,-10.55104 -23.5711,-23.6279 0,-13.07691 10.48926,-23.6279 23.5711,-23.6279 z" id="path3438" inkscape:connector-curvature="0" sodipodi:nodetypes="ccssscccsssss"/>
      <path style="fill:#ffffff;fill-opacity:1;stroke:#000000;stroke-width:0.7885766;stroke-opacity:1" d="m 262.56644,108.18341 c -27.43837,0 -49.45385,22.10499 -49.45385,49.51035 0,27.40538 22.01548,49.51036 49.45385,49.51036 23.68387,0 43.33457,-16.47074 48.26704,-38.60225 h -27.35494 c -3.92372,7.54726 -11.78189,12.7167 -20.9121,12.7167 -13.08186,0 -23.56819,-10.54791 -23.56819,-23.62481 0,-13.07688 10.48633,-23.62478 23.56819,-23.62478 9.15742,0 17.05691,5.18899 20.96856,12.77319 h 27.29848 c -4.91236,-22.15907 -24.56369,-38.65876 -48.26704,-38.65876 z" id="path3440" inkscape:connector-curvature="0" sodipodi:nodetypes="sssccsssccs"/>
      <path id="path2995" d="M 158,0 C 70.739009,0 0,70.594648 0,157.6875 c 0,87.09286 70.739009,157.71875 158,157.71875 87.261,0 158,-70.62589 158,-157.71875 C 316,70.594648 245.261,0 158,0 Z m -0.3125,3.03125 c 85.40797,0 154.65625,69.131609 154.65625,154.375 0,85.24339 -69.24828,154.34375 -154.65625,154.34375 -85.407958,0 -154.625,-69.10036 -154.625,-154.34375 0,-85.243391 69.217042,-154.375 154.625,-154.375 z" style="fill:#000000;fill-opacity:1;fill-rule:evenodd;stroke:none" inkscape:connector-curvature="0"/>
    </g>
  </g>
</svg>