<?xml version="1.0" encoding="UTF-8"?>
<!DOCTYPE svg PUBLIC "-//W3C//DTD SVG 1.1//EN" "http://www.w3.org/Graphics/SVG/1.1/DTD/svg11.dtd">
<svg version="1.2" width="300mm" height="200mm" viewBox="0 0 30000 20000" preserveAspectRatio="xMidYMid" fill-rule="evenodd" stroke-width="28.222" stroke-linejoin="round" xmlns="http://www.w3.org/2000/svg" xmlns:ooo="http://xml.openoffice.org/svg/export" xmlns:xlink="http://www.w3.org/1999/xlink" xmlns:presentation="http://sun.com/xmlns/staroffice/presentation" xmlns:smil="http://www.w3.org/2001/SMIL20/" xmlns:anim="urn:oasis:names:tc:opendocument:xmlns:animation:1.0" xmlns:svg="urn:oasis:names:tc:opendocument:xmlns:svg-compatible:1.0" xml:space="preserve">
 <defs class="ClipPathGroup">
  <clipPath id="presentation_clip_path" clipPathUnits="userSpaceOnUse">
   <rect x="0" y="0" width="30000" height="20000"/>
  </clipPath>
  <clipPath id="presentation_clip_path_shrink" clipPathUnits="userSpaceOnUse">
   <rect x="30" y="20" width="29940" height="19960"/>
  </clipPath>
 </defs>
 <defs class="TextShapeIndex">
  <g ooo:slide="id1" ooo:id-list="id3"/>
 </defs>
 <defs class="EmbeddedBulletChars">
  <g id="bullet-char-template-57356" transform="scale(0.00048828125,-0.00048828125)">
   <path d="M 580,1141 L 1163,571 580,0 -4,571 580,1141 Z"/>
  </g>
  <g id="bullet-char-template-57354" transform="scale(0.00048828125,-0.00048828125)">
   <path d="M 8,1128 L 1137,1128 1137,0 8,0 8,1128 Z"/>
  </g>
  <g id="bullet-char-template-10146" transform="scale(0.00048828125,-0.00048828125)">
   <path d="M 174,0 L 602,739 174,1481 1456,739 174,0 Z M 1358,739 L 309,1346 659,739 1358,739 Z"/>
  </g>
  <g id="bullet-char-template-10132" transform="scale(0.00048828125,-0.00048828125)">
   <path d="M 2015,739 L 1276,0 717,0 1260,543 174,543 174,936 1260,936 717,1481 1274,1481 2015,739 Z"/>
  </g>
  <g id="bullet-char-template-10007" transform="scale(0.00048828125,-0.00048828125)">
   <path d="M 0,-2 C -7,14 -16,27 -25,37 L 356,567 C 262,823 215,952 215,954 215,979 228,992 255,992 264,992 276,990 289,987 310,991 331,999 354,1012 L 381,999 492,748 772,1049 836,1024 860,1049 C 881,1039 901,1025 922,1006 886,937 835,863 770,784 769,783 710,716 594,584 L 774,223 C 774,196 753,168 711,139 L 727,119 C 717,90 699,76 672,76 641,76 570,178 457,381 L 164,-76 C 142,-110 111,-127 72,-127 30,-127 9,-110 8,-76 1,-67 -2,-52 -2,-32 -2,-23 -1,-13 0,-2 Z"/>
  </g>
  <g id="bullet-char-template-10004" transform="scale(0.00048828125,-0.00048828125)">
   <path d="M 285,-33 C 182,-33 111,30 74,156 52,228 41,333 41,471 41,549 55,616 82,672 116,743 169,778 240,778 293,778 328,747 346,684 L 369,508 C 377,444 397,411 428,410 L 1163,1116 C 1174,1127 1196,1133 1229,1133 1271,1133 1292,1118 1292,1087 L 1292,965 C 1292,929 1282,901 1262,881 L 442,47 C 390,-6 338,-33 285,-33 Z"/>
  </g>
  <g id="bullet-char-template-9679" transform="scale(0.00048828125,-0.00048828125)">
   <path d="M 813,0 C 632,0 489,54 383,161 276,268 223,411 223,592 223,773 276,916 383,1023 489,1130 632,1184 813,1184 992,1184 1136,1130 1245,1023 1353,916 1407,772 1407,592 1407,412 1353,268 1245,161 1136,54 992,0 813,0 Z"/>
  </g>
  <g id="bullet-char-template-8226" transform="scale(0.00048828125,-0.00048828125)">
   <path d="M 346,457 C 273,457 209,483 155,535 101,586 74,649 74,723 74,796 101,859 155,911 209,963 273,989 346,989 419,989 480,963 531,910 582,859 608,796 608,723 608,648 583,586 532,535 482,483 420,457 346,457 Z"/>
  </g>
  <g id="bullet-char-template-8211" transform="scale(0.00048828125,-0.00048828125)">
   <path d="M -4,459 L 1135,459 1135,606 -4,606 -4,459 Z"/>
  </g>
  <g id="bullet-char-template-61548" transform="scale(0.00048828125,-0.00048828125)">
   <path d="M 173,740 C 173,903 231,1043 346,1159 462,1274 601,1332 765,1332 928,1332 1067,1274 1183,1159 1299,1043 1357,903 1357,740 1357,577 1299,437 1183,322 1067,206 928,148 765,148 601,148 462,206 346,322 231,437 173,577 173,740 Z"/>
  </g>
 </defs>
 <g>
  <g id="id2" class="Master_Slide">
   <g id="bg-id2" class="Background"/>
   <g id="bo-id2" class="BackgroundObjects"/>
  </g>
 </g>
 <g class="SlideGroup">
  <g>
   <g id="container-id1">
    <g id="id1" class="Slide" clip-path="url(#presentation_clip_path)">
     <g class="Page">
      <g class="Graphic">
       <g id="id3">
        <rect class="BoundingBox" stroke="none" fill="none" x="3650" y="2500" width="22701" height="15001"/>
        <path fill="rgb(255,255,255)" stroke="none" d="M 24321,13445 C 24556,13282 24752,13068 24895,12820 25066,12526 25155,12191 25155,11851 25155,11851 25155,11851 25155,11850 25155,11849 25155,11847 25155,11846 25155,11502 25065,11165 24893,10867 24721,10570 24474,10323 24177,10151 23879,9979 23542,9889 23198,9889 22855,9889 22517,9979 22220,10151 21923,10323 21676,10570 21504,10867 21332,11165 21242,11502 21242,11846 21242,12189 21332,12527 21504,12824 21645,13070 21839,13281 22070,13445 L 21213,13445 16701,2538 12223,2538 C 8120,2538 3688,6043 3688,11695 L 3688,17462 12908,17462 12908,13589 C 12908,13416 12954,13247 13040,13098 13127,12948 13251,12823 13401,12737 13552,12650 13722,12604 13895,12604 14068,12604 14238,12650 14389,12737 14539,12823 14663,12948 14750,13098 14836,13247 14881,13416 14882,13589 L 14882,17462 26312,17462 26312,13445 24321,13445 Z"/>
        <path fill="rgb(0,114,206)" stroke="none" d="M 12818,11725 C 12490,11914 12218,12186 12029,12514 11840,12841 11740,13211 11740,13589 L 11740,16294 4856,16294 4856,11695 C 4856,6763 8678,3706 12223,3706 L 14629,3706 19837,16294 16045,16294 16045,13589 C 16045,13211 15945,12840 15756,12512 15567,12185 15295,11913 14968,11724 14641,11536 14270,11436 13892,11436 13515,11437 13145,11536 12818,11725 Z M 21155,17134 L 15250,2866 12223,2866 C 8275,2866 4016,6245 4016,11695 L 4016,17134 12580,17134 12580,13589 C 12580,13359 12641,13133 12756,12934 12872,12734 13038,12568 13237,12452 13437,12337 13664,12276 13895,12276 14126,12276 14353,12337 14553,12452 14752,12568 14918,12734 15034,12934 15149,13133 15210,13359 15210,13589 L 15210,17134 21155,17134 Z"/>
        <path fill="rgb(0,114,206)" stroke="none" d="M 23573,10265 C 23851,10331 24107,10469 24315,10665 24523,10861 24676,11108 24758,11382 24841,11656 24849,11946 24784,12225 24718,12503 24580,12759 24384,12967 24188,13175 23941,13328 23667,13410 23393,13493 23102,13501 22824,13436 22546,13370 22290,13232 22082,13036 21874,12840 21721,12593 21638,12319 21556,12045 21548,11754 21613,11476 21679,11198 21817,10942 22013,10734 22209,10526 22456,10373 22730,10290 23004,10208 23294,10199 23573,10265 L 23573,10265 Z"/>
        <path fill="rgb(200,16,46)" stroke="none" d="M 20994,13773 L 16482,2866 15607,2866 21512,17134 25990,17134 25990,13773 20994,13773 Z M 12223,4011 C 8695,4011 5161,7079 5161,11695 L 5161,15989 11435,15989 11435,13589 C 11435,13158 11549,12735 11764,12361 11980,11987 12291,11677 12665,11461 13039,11245 13463,11131 13895,11131 14327,11131 14751,11245 15125,11461 15499,11677 15810,11987 16026,12361 16241,12735 16355,13158 16355,13589 L 16355,15989 19060,15989 14105,4011 12223,4011 Z"/>
       </g>
      </g>
     </g>
    </g>
   </g>
  </g>
 </g>
</svg>