<?xml version="1.0" encoding="UTF-8"?>
<!DOCTYPE svg PUBLIC "-//W3C//DTD SVG 1.1//EN" "http://www.w3.org/Graphics/SVG/1.1/DTD/svg11.dtd">
<svg version="1.2" width="300mm" height="200mm" viewBox="0 0 30000 20000" preserveAspectRatio="xMidYMid" fill-rule="evenodd" stroke-width="28.222" stroke-linejoin="round" xmlns="http://www.w3.org/2000/svg" xmlns:ooo="http://xml.openoffice.org/svg/export" xmlns:xlink="http://www.w3.org/1999/xlink" xmlns:presentation="http://sun.com/xmlns/staroffice/presentation" xmlns:smil="http://www.w3.org/2001/SMIL20/" xmlns:anim="urn:oasis:names:tc:opendocument:xmlns:animation:1.0" xmlns:svg="urn:oasis:names:tc:opendocument:xmlns:svg-compatible:1.0" xml:space="preserve">
 <defs class="ClipPathGroup">
  <clipPath id="presentation_clip_path" clipPathUnits="userSpaceOnUse">
   <rect x="0" y="0" width="30000" height="20000"/>
  </clipPath>
  <clipPath id="presentation_clip_path_shrink" clipPathUnits="userSpaceOnUse">
   <rect x="30" y="20" width="29940" height="19960"/>
  </clipPath>
 </defs>
 <defs class="TextShapeIndex">
  <g ooo:slide="id1" ooo:id-list="id3"/>
 </defs>
 <defs class="EmbeddedBulletChars">
  <g id="bullet-char-template-57356" transform="scale(0.00048828125,-0.00048828125)">
   <path d="M 580,1141 L 1163,571 580,0 -4,571 580,1141 Z"/>
  </g>
  <g id="bullet-char-template-57354" transform="scale(0.00048828125,-0.00048828125)">
   <path d="M 8,1128 L 1137,1128 1137,0 8,0 8,1128 Z"/>
  </g>
  <g id="bullet-char-template-10146" transform="scale(0.00048828125,-0.00048828125)">
   <path d="M 174,0 L 602,739 174,1481 1456,739 174,0 Z M 1358,739 L 309,1346 659,739 1358,739 Z"/>
  </g>
  <g id="bullet-char-template-10132" transform="scale(0.00048828125,-0.00048828125)">
   <path d="M 2015,739 L 1276,0 717,0 1260,543 174,543 174,936 1260,936 717,1481 1274,1481 2015,739 Z"/>
  </g>
  <g id="bullet-char-template-10007" transform="scale(0.00048828125,-0.00048828125)">
   <path d="M 0,-2 C -7,14 -16,27 -25,37 L 356,567 C 262,823 215,952 215,954 215,979 228,992 255,992 264,992 276,990 289,987 310,991 331,999 354,1012 L 381,999 492,748 772,1049 836,1024 860,1049 C 881,1039 901,1025 922,1006 886,937 835,863 770,784 769,783 710,716 594,584 L 774,223 C 774,196 753,168 711,139 L 727,119 C 717,90 699,76 672,76 641,76 570,178 457,381 L 164,-76 C 142,-110 111,-127 72,-127 30,-127 9,-110 8,-76 1,-67 -2,-52 -2,-32 -2,-23 -1,-13 0,-2 Z"/>
  </g>
  <g id="bullet-char-template-10004" transform="scale(0.00048828125,-0.00048828125)">
   <path d="M 285,-33 C 182,-33 111,30 74,156 52,228 41,333 41,471 41,549 55,616 82,672 116,743 169,778 240,778 293,778 328,747 346,684 L 369,508 C 377,444 397,411 428,410 L 1163,1116 C 1174,1127 1196,1133 1229,1133 1271,1133 1292,1118 1292,1087 L 1292,965 C 1292,929 1282,901 1262,881 L 442,47 C 390,-6 338,-33 285,-33 Z"/>
  </g>
  <g id="bullet-char-template-9679" transform="scale(0.00048828125,-0.00048828125)">
   <path d="M 813,0 C 632,0 489,54 383,161 276,268 223,411 223,592 223,773 276,916 383,1023 489,1130 632,1184 813,1184 992,1184 1136,1130 1245,1023 1353,916 1407,772 1407,592 1407,412 1353,268 1245,161 1136,54 992,0 813,0 Z"/>
  </g>
  <g id="bullet-char-template-8226" transform="scale(0.00048828125,-0.00048828125)">
   <path d="M 346,457 C 273,457 209,483 155,535 101,586 74,649 74,723 74,796 101,859 155,911 209,963 273,989 346,989 419,989 480,963 531,910 582,859 608,796 608,723 608,648 583,586 532,535 482,483 420,457 346,457 Z"/>
  </g>
  <g id="bullet-char-template-8211" transform="scale(0.00048828125,-0.00048828125)">
   <path d="M -4,459 L 1135,459 1135,606 -4,606 -4,459 Z"/>
  </g>
  <g id="bullet-char-template-61548" transform="scale(0.00048828125,-0.00048828125)">
   <path d="M 173,740 C 173,903 231,1043 346,1159 462,1274 601,1332 765,1332 928,1332 1067,1274 1183,1159 1299,1043 1357,903 1357,740 1357,577 1299,437 1183,322 1067,206 928,148 765,148 601,148 462,206 346,322 231,437 173,577 173,740 Z"/>
  </g>
 </defs>
 <g>
  <g id="id2" class="Master_Slide">
   <g id="bg-id2" class="Background"/>
   <g id="bo-id2" class="BackgroundObjects"/>
  </g>
 </g>
 <g class="SlideGroup">
  <g>
   <g id="container-id1">
    <g id="id1" class="Slide" clip-path="url(#presentation_clip_path)">
     <g class="Page">
      <g class="Graphic">
       <g id="id3">
        <rect class="BoundingBox" stroke="none" fill="none" x="4296" y="845" width="21410" height="18311"/>
        <defs>
         <clipPath id="clip_path_1" clipPathUnits="userSpaceOnUse">
          <path d="M 4296,845 L 25705,845 25705,19155 4296,19155 4296,845 Z"/>
         </clipPath>
        </defs>
        <g clip-path="url(#clip_path_1)">
         <path fill="rgb(200,16,46)" stroke="none" d="M 24891,10424 L 25705,8972 25129,8972 24719,9704 C 24414,6252 22065,3377 18896,2269 L 18901,2269 18907,2247 19455,1272 19017,1272 18530,2152 C 17715,1906 16869,1781 16018,1781 16013,1781 16008,1781 16003,1781 11205,1781 7255,5670 7255,10468 7255,10471 7255,10474 7255,10476 7255,11983 7651,13464 8405,14769 8435,14820 8465,14871 8496,14922 L 5504,14922 5016,15781 9089,15781 C 9782,16670 10641,17417 11617,17980 12950,18750 14463,19155 16002,19155 16002,19155 16003,19155 16003,19155 20802,19155 24758,15266 24758,10468 24758,10452 24752,10435 24752,10424 L 24891,10424 Z"/>
         <path fill="rgb(255,255,255)" stroke="none" d="M 8130,10468 C 8130,14778 11693,18269 16003,18269 20314,18269 23882,14778 23882,10468 23882,6158 20314,2668 16003,2668 11693,2668 8130,6158 8130,10468 L 8130,10468 Z"/>
         <path fill="rgb(1,33,105)" stroke="none" d="M 22392,10180 L 20508,10180 C 20031,12069 22004,11659 21261,12989 21079,13305 20552,13305 20552,13305 L 18386,13305 17483,14922 21029,14922 C 21804,14922 22536,14673 22979,13886 24159,11765 22309,11488 22392,10180 Z M 24464,8247 L 22835,8247 C 22433,8259 22041,8371 21693,8572 21574,8640 21461,8719 21356,8806 L 21671,8247 15361,8247 14413,9947 24586,9947 25129,8972 25539,8247 24464,8247 Z M 17948,10180 L 15294,14922 16995,14922 19649,10180 17948,10180 Z M 14236,13305 L 14818,12258 16297,12258 17200,10640 15726,10640 15981,10180 14280,10180 11626,14922 14807,14922 15710,13305 14236,13305 Z"/>
         <path fill="rgb(1,33,105)" stroke="none" d="M 10042,8025 L 10568,7371 10601,8025 11227,8025 12291,6784 11599,8025 12263,8025 13155,6424 11909,6424 11288,7150 11244,6424 10623,6424 10019,6939 10008,6424 9432,6424 9465,8025 10042,8025 Z M 21815,8025 L 22347,7067 21804,7067 21439,7720 21239,7720 21793,6729 22536,6729 22708,6424 21300,6424 20408,8025 21815,8025 Z M 20259,8025 L 20430,7720 19849,7720 20042,7371 20624,7371 20796,7067 20214,7067 20403,6729 20984,6729 21151,6424 19909,6424 19017,8025 20259,8025 Z M 18729,6729 L 18929,6729 18585,7344 18386,7344 18729,6729 Z M 17344,8025 L 18009,8025 18214,7648 19078,7648 19727,6490 C 19749,6452 19732,6424 19693,6424 L 18236,6424 17344,8025 Z M 16496,8025 L 17161,8025 18053,6424 17389,6424 16496,8025 Z M 13089,8025 L 13427,7416 13510,8025 14175,8025 15067,6424 14402,6424 14064,7033 13981,6424 13316,6424 12424,8025 13089,8025 Z M 14042,10180 L 13117,10180 11648,12812 C 11349,13343 10928,13288 10928,13288 L 8540,12961 7582,12834 6584,12695 6584,12695 C 6562,12693 6541,12692 6519,12692 6387,12692 6259,12727 6145,12793 6077,12832 6016,12881 5964,12939 L 4296,14922 10878,14922 C 10878,14922 11394,14922 11798,14197 L 14042,10180 Z M 14175,9947 L 15571,7443 15649,8025 16314,8025 17211,6424 16546,6424 16203,7033 16125,6452 18087,2945 19017,1272 19261,845 18330,845 17715,1947 17261,2767 13250,9947 14175,9947 Z"/>
         <path fill="rgb(1,33,105)" stroke="none" d="M 10651,10640 L 11793,11720 13571,8529 13394,8618 11748,11560 10612,10485 8911,10485 8512,10169 8424,10224 8956,10640 10651,10640 10651,10640 Z"/>
         <path fill="rgb(200,16,46)" stroke="none" d="M 8379,10069 L 8512,10169 8911,10485 10612,10485 11748,11560 13394,8618 13532,8368 11078,9576 9188,9576 8379,10069 8379,10069 Z"/>
        </g>
       </g>
      </g>
     </g>
    </g>
   </g>
  </g>
 </g>
</svg>