<?xml version="1.0" encoding="utf-8"?>
<!-- Generator: Adobe Illustrator 22.0.1, SVG Export Plug-In . SVG Version: 6.00 Build 0)  -->
<svg version="1.1" id="Layer_1" xmlns="http://www.w3.org/2000/svg" xmlns:xlink="http://www.w3.org/1999/xlink" x="0px" y="0px"
	 viewBox="0 0 193 33" style="enable-background:new 0 0 193 33;" xml:space="preserve">
<metadata><?xpacket begin="﻿" id="W5M0MpCehiHzreSzNTczkc9d"?>
<x:xmpmeta xmlns:x="adobe:ns:meta/" x:xmptk="Adobe XMP Core 5.6-c143 79.161210, 2017/08/11-10:28:36        ">
   <rdf:RDF xmlns:rdf="http://www.w3.org/1999/02/22-rdf-syntax-ns#">
      <rdf:Description rdf:about=""/>
   </rdf:RDF>
</x:xmpmeta>
                                                                                                    
                                                                                                    
                                                                                                    
                                                                                                    
                                                                                                    
                                                                                                    
                                                                                                    
                                                                                                    
                                                                                                    
                                                                                                    
                                                                                                    
                                                                                                    
                                                                                                    
                                                                                                    
                                                                                                    
                                                                                                    
                                                                                                    
                                                                                                    
                                                                                                    
                                                                                                    
                           
<?xpacket end="w"?></metadata>
<style type="text/css">
	.st0{fill:#005FFF;}
	.st1{fill:#EB0000;}
	.st2{fill:#23BE19;}
	.st3{fill:#FFFFFF;}
	.st4{fill:#003662;}
</style>
<g>
	<rect x="30.5" y="4.4" class="st0" width="26.4" height="26.8"/>
	<circle class="st1" cx="14.6" cy="17.8" r="14.1"/>
	<polygon class="st2" points="58.1,4.4 73.9,31.9 89.8,4.4 	"/>
	<path class="st3" d="M20.4,21.2c-1.2,2-3.4,3.4-5.9,3.4c-3.7,0-6.8-3-6.8-6.8s3-6.8,6.8-6.8c2.5,0,4.7,1.4,5.9,3.4l2-1.2
		c-1.6-2.7-4.5-4.5-7.9-4.5c-5,0-9.1,4.1-9.1,9.1s4.1,9.1,9.1,9.1c3.4,0,6.3-1.8,7.9-4.5L20.4,21.2z"/>
	<polygon class="st3" points="52.1,9.1 35.3,9.1 35.3,11.4 42.5,11.4 42.5,26.5 44.9,26.5 44.9,11.4 52.1,11.4 	"/>
	<polygon class="st3" points="84,9.1 81.2,9.1 73.9,21.8 66.7,9.1 63.9,9.1 73.9,26.5 84,9.1 	"/>
</g>
<g>
	<path class="st4" d="M123.6,31.4v-1.2h0.4c1,0,1.7-0.2,2-0.6c0.3-0.4,0.5-1.2,0.5-2.4V10.7c0-1.3-0.2-2.1-0.5-2.5
		c-0.3-0.4-1-0.5-2.1-0.5h-0.4V6.5h16.5l0.5,4.6h-1.4l-0.1-0.4c-0.2-1.3-0.6-2.1-1.2-2.4c-0.6-0.3-2.1-0.4-4.7-0.4H130v9.5h3.6
		c1.6,0,2.7-0.1,3.2-0.4c0.4-0.3,0.6-0.9,0.6-1.9v-0.4h1.5v6.5h-1.5v-0.3c0-0.9-0.2-1.5-0.6-1.9c-0.2-0.2-0.9-0.4-3.3-0.4H130v8.7
		c0,1,0.4,1.7,1.3,2.1c0.9,0.4,2.4,0.6,4.7,0.6h0.7c0.9,0,1.7-0.2,2.1-0.7c0.5-0.5,0.8-1.3,1-2.5l0.1-0.4h1.4l-0.5,5L123.6,31.4z"/>
	<path class="st4" d="M167.4,31.4h-1.2L159,12.1l-6.1,19.3h-1.2l-6.3-20.6c-0.4-1.2-0.7-2-1.1-2.4c-0.4-0.5-0.8-0.7-1.3-0.7h-0.3
		V6.5h8.1v1.2h-0.4c-0.7,0-1.2,0.1-1.5,0.3c-0.2,0.2-0.3,0.5-0.3,1.1c0,0.5,0.1,1.1,0.3,1.8l4.5,14.7l6-19h1.2l7,19.1l4.4-14.8
		c0.2-0.9,0.4-1.6,0.4-2.1c0-0.6-0.6-1-1.8-1.1l-0.4,0V6.5h6.2v1.2h-0.4c-0.5,0-0.9,0.2-1.3,0.7c-0.3,0.5-0.7,1.3-1.1,2.5
		L167.4,31.4z"/>
	<path class="st4" d="M183.2,32c-2.2,0-4.3-0.3-6.3-1l-0.1,0l-0.4-5.6h1.4l0.1,0.3c0.3,1.6,1,2.9,1.9,3.8c1,0.9,2.2,1.3,3.7,1.3
		c1.4,0,2.5-0.5,3.5-1.4c1-0.9,1.5-2,1.5-3.3c0-1.6-1.3-3.3-3.8-5l-2.4-1.7c-2.4-1.6-3.9-2.9-4.6-3.8c-0.7-0.9-1.1-2-1.1-3.3
		c0-1.9,0.8-3.5,2.3-4.7c1.5-1.2,3.6-1.8,6.1-1.8c2,0,4,0.3,6,1l0.1,0l0.6,4.8h-1.4l-0.1-0.3c-0.8-2.9-2.7-4.4-5.7-4.4
		c-1.3,0-2.4,0.4-3.3,1.2c-0.9,0.8-1.3,1.8-1.3,3c0,1.5,1.1,3.1,3.2,4.5l3.5,2.4c2.2,1.5,3.6,2.7,4.3,3.6c0.7,0.9,1,2,1,3.4
		c0,2.1-0.8,3.8-2.4,5C188,31.4,185.8,32,183.2,32"/>
	<path class="st4" d="M100,29.5c-0.4-0.5-0.7-1.5-0.7-3.1V7l19.9,24.4h0.8l0-26c0-1.6,0.2-2.6,0.7-3.1c0.4-0.5,1.3-0.7,2.7-0.7h0.4
		V0.3h-10v1.2h0.3c1.5,0,2.4,0.2,2.9,0.7c0.4,0.5,0.7,1.5,0.7,3.1v18.5l-19-23.6h-6.1v1.2h0.4c1,0,2.1,0.7,3.3,2.2l0.5,0.7v21.9
		c0,1.6-0.2,2.6-0.7,3.1c-0.4,0.5-1.4,0.7-2.8,0.7h-0.3v1.2h10v-1.2h-0.4C101.4,30.2,100.5,29.9,100,29.5"/>
</g>
</svg>
