<svg enable-background="new 0 0 173.692 119.923" height="262.612866" viewBox="0 0 173.692 119.923" width="380.788655" xmlns="http://www.w3.org/2000/svg" xmlns:xlink="http://www.w3.org/1999/xlink"><defs><path id="a" d="m49.684 7.025h108.822s-7.489 25.924-15.186 51.012h-109.466c7.662-25.089 15.83-51.012 15.83-51.012z"/><clipPath id="b"><use xlink:href="#a"/></clipPath></defs><path d="m167.866.043.466-.043s-14.406 51.469-23.741 81.553c-9.334 30.082-71.837 38.23-71.837 38.23s-1.215.98-13.873-2.246c-6.42-1.547-14.993-4.098-22.666-7.995-6.654-3.296-12.271-7.37-15.29-12.359-3.205-4.83-4.425-10.61-2.29-17.493l24.714-79.647z" fill="#004990"/><path d="m50.475 8.592s-14.976 41.74-23.537 70.58c-6.25 21.056 27.567 29.794 43.913 33.459 22.236-4.194 57.773-9.772 66.55-37.342 9.13-28.677 20.567-68.264 20.567-68.264z" fill="#fff"/><use fill="#0069a9" xlink:href="#a"/><path clip-path="url(#b)" d="m44.564 5.589-10.197 38.43 117.292.715 12.895-39.145z" fill="#d31145"/><g fill="#fff"><path clip-rule="evenodd" d="m53.807 14.526h1.811l.779-1.007h3.287l.2 1.007h1.804l-1.187-5.696h-2.111zm5.236-4.374.405 2.14h-2.074z" fill-rule="evenodd"/><path d="m62.264 14.526h5.266l.442-1.463h-3.645l1.279-4.233h-1.622z"/><path clip-rule="evenodd" d="m68.214 14.526h5.164c.927 0 1.692-.26 2.07-1.511.259-.857.12-1.267-.561-1.361l.007-.023c.496-.142.881-.331 1.176-1.306.337-1.117-.177-1.495-1.47-1.495h-4.667zm2.304-2.258h2.907c.351 0 .558.086.442.472-.1.331-.36.417-.71.417h-2.907zm.625-2.069h2.871c.299 0 .439.118.339.449-.097.322-.308.44-.607.44h-2.871z" fill-rule="evenodd"/><path d="m75.967 14.526h5.88l.413-1.369h-4.258l.276-.912h3.944l.357-1.181h-3.945l.276-.912h4.163l.4-1.322h-5.785z"/><path clip-rule="evenodd" d="m85.738 10.246h2.534c.512 0 .717.095.564.598l-.057.189c-.124.409-.342.598-.779.598h-2.68zm-2.914 4.28h1.621l.447-1.479h2.548c.504 0 .605.197.426.795l-.207.685h1.621l.293-.968c.282-.937-.051-1.165-.504-1.259l.004-.016c.803-.188 1.1-.637 1.33-1.4l.109-.362c.309-1.022.174-1.691-1.074-1.691h-4.894z" fill-rule="evenodd"/><path d="m91.302 10.246h2.279l-1.293 4.28h1.621l1.293-4.28h2.279l.428-1.416h-6.18z"/><path clip-rule="evenodd" d="m96.375 14.526h1.812l.779-1.007h3.286l.2 1.007h1.803l-1.186-5.696h-2.111zm5.235-4.374.406 2.14h-2.074z" fill-rule="evenodd"/><path d="m108.608 12.756c-.402 1.33 0 1.833 1.52 1.833h1.059c1.469 0 2.357-.307 2.83-1.873l1.175-3.887h-1.622l-1.131 3.745c-.159.527-.494.598-1.027.598h-.643c-.504 0-.656-.173-.529-.598l.152-.504h-1.577z"/><path d="m115.179 12.497c-.429 1.416.047 2.093 1.537 2.093h2.322c1.49 0 2.373-.677 2.801-2.093l1.107-3.667h-1.621l-.994 3.289c-.218.724-.545 1.007-1.209 1.007h-1.607c-.664 0-.82-.284-.602-1.007l.994-3.289h-1.621z"/><path d="m122.317 14.526h1.621l1.25-4.138h.016l1.795 4.138h2.513l1.72-5.696h-1.622l-1.25 4.138h-.013l-1.796-4.138h-2.513z"/><path d="m130.692 14.526h1.622l1.721-5.696h-1.622z"/><path clip-rule="evenodd" d="m133.983 12.528c-.504 1.668.246 2.062 1.707 2.062h2.6c1.461 0 2.449-.394 2.953-2.062l.514-1.7c.504-1.668-.246-2.061-1.707-2.061h-2.601c-1.461 0-2.448.393-2.952 2.061zm2.014-1.157c.215-.708.506-1.141 1.36-1.141h1.899c.854 0 .885.433.67 1.141l-.186.614c-.249.826-.505 1.141-1.271 1.141h-2.074c-.768 0-.832-.315-.583-1.141z" fill-rule="evenodd"/><path clip-rule="evenodd" d="m144.529 10.246h2.534c.512 0 .717.095.564.598l-.057.189c-.123.409-.342.598-.779.598h-2.681zm-2.914 4.28h1.622l.445-1.479h2.55c.504 0 .604.197.425.795l-.207.685h1.621l.293-.968c.283-.937-.051-1.165-.504-1.259l.005-.016c.802-.188 1.099-.637 1.329-1.4l.109-.362c.309-1.022.175-1.691-1.074-1.691h-4.894z" fill-rule="evenodd"/></g><path d="m23.807 26.22h136.202l-8.07 25.426h20.643l-6.049 18.055h-84.304s-3.834 8.255-6.676 11.144c-1.518 1.544-7.806 4.719-12.109 4.719-7.114 0-18.146.163-21.271.163s-5.422.049-9.783-3.935c-6.411-5.856-1.775-12.091-1.775-12.091l-28.81.097 30.542-33.833z" fill="#004990" stroke="#004990" stroke-miterlimit="3.8637" stroke-width="1.6"/><path d="m48.509 38.595-11.403 13.021h14.73zm36.175 26.615 9.421-29.615-6.432-4.223-12.196 37.653c-3.03 9.525-9.277 11.393-19.702 11.393h-11.031c-10.788 0-13.107-3.063-8.822-11.154l3.019-5.809h11.203l-2.143 4.708c-1.369 2.585 1.212 3.639 4.791 3.639h4.271c3.786 0 6.154-.431 7.174-3.639l.96-2.953h-9.801l-1.629-6.127h-23.34l-5.321 6.127h-12.862l26.711-29.525-4.67-5.153 24.302.021 8.232 29.663 7.998-24.611-7.706-5.052h19.314 20.795l-3.928 12.35h16.21l2.288-7.195-7.674-5.176 19.295.019 20.798.002-8.192 25.754h20.274l-2.833 8.903h-31.787l9.395-29.534-6.391-4.278-10.752 33.812h-11.515l4.173-13.116h-16.211l-4.172 13.116z" fill="#fff"/><path d="m53.317 21.711h1.621l.651-2.155h3.418l-.651 2.155h1.622l1.721-5.696h-1.622l-.613 2.03h-3.418l.613-2.03h-1.621z" fill="#fff"/><path clip-rule="evenodd" d="m61.556 19.713c-.504 1.668.247 2.061 1.708 2.061h2.6c1.461 0 2.449-.393 2.952-2.061l.514-1.7c.504-1.668-.247-2.061-1.707-2.061h-2.601c-1.46 0-2.448.393-2.952 2.061zm2.015-1.157c.214-.708.505-1.141 1.36-1.141h1.899c.854 0 .885.433.671 1.141l-.186.614c-.25.826-.505 1.141-1.272 1.141h-2.074c-.767 0-.832-.314-.583-1.141z" fill="#fff" fill-rule="evenodd"/><path d="m69.675 19.713c-.504 1.668.246 2.061 1.707 2.061h2.615c1.628 0 2.178-.755 2.468-1.715l.162-.535h-1.622c-.214.708-.457.787-1.187.787h-1.731c-.767 0-.833-.314-.583-1.141l.186-.614c.214-.708.505-1.141 1.359-1.141h1.768c.482 0 .724.118.601.527l-.048.158h1.622c.502-1.613.364-2.147-1.944-2.147h-1.906c-1.461 0-2.449.393-2.953 2.061z" fill="#fff"/><path d="m76.941 21.711h1.621l.661-2.187h.716l1.676 2.187h2.294l-2.32-2.911 3.704-2.785h-2.206l-2.676 2.092h-.76l.632-2.092h-1.621z" fill="#fff"/><path d="m84.513 21.711h5.88l.413-1.369h-4.258l.276-.912h3.944l.356-1.181h-3.943l.275-.913h4.163l.4-1.321h-5.786z" fill="#fff"/><path d="m93.802 21.711h1.621l.599-1.982 4.051-3.714h-1.958l-2.485 2.329-1.079-2.329h-1.958l1.807 3.714z" fill="#fff"/><path d="m102.556 21.711h5.265l.442-1.463h-3.645l1.279-4.233h-1.621z" fill="#fff"/><path d="m108.505 21.711h5.881l.413-1.369h-4.259l.276-.912h3.945l.355-1.181h-3.943l.275-.913h4.164l.399-1.321h-5.785z" fill="#fff"/><path clip-rule="evenodd" d="m114.843 21.711h1.813l.778-1.007h3.286l.201 1.007h1.803l-1.186-5.696h-2.111zm5.236-4.375.406 2.14h-2.074z" fill="#fff" fill-rule="evenodd"/><path d="m123.786 19.713c-.503 1.668.247 2.061 1.708 2.061h1.95c1.826 0 2.639-.079 3.133-1.715l.49-1.621h-3.639l-.355 1.18h2.016l-.05.166c-.167.55-.612.622-1.035.622h-1.731c-.818 0-.965-.213-.67-1.188l.213-.708c.295-.976.57-1.188 1.389-1.188h1.761c.519 0 .796.071.626.637h1.592l.055-.181c.335-1.109.295-1.825-1.545-1.825h-2.439c-1.461 0-2.449.393-2.953 2.061z" fill="#fff"/><path d="m131.666 19.681c-.429 1.416.048 2.093 1.537 2.093h2.323c1.489 0 2.373-.677 2.801-2.093l1.107-3.667h-1.621l-.994 3.289c-.219.724-.545 1.007-1.209 1.007h-1.607c-.664 0-.82-.283-.602-1.007l.994-3.289h-1.622z" fill="#fff"/><path d="m138.806 21.711h5.879l.414-1.369h-4.258l.275-.912h3.944l.357-1.181h-3.944l.276-.913h4.162l.4-1.321h-5.785z" fill="#fff"/><path d="m114.923 86.317c-2.556-4.609 3.154-12.659 12.752-17.979 9.338-5.178 18.918-5.863 21.781-1.649 0 0 4.335 6.77 4.379 6.849 2.555 4.609-3.154 12.659-12.752 17.979-9.201 5.101-18.637 5.841-21.652 1.832l-4.494-7.006z" fill="#004990" stroke="#004990" stroke-miterlimit="3.8637" stroke-width="8.64"/><path d="m145.591 91.128s-35.297 27.041-76.134 22.586c-63.41-6.916-45.67-40.95-42.365-42.427-.105 1.063-4.53 32.96 40.125 23.793 37.006-7.598 54.436-24.697 54.436-24.697z" fill="#004990" stroke="#004990" stroke-miterlimit="3.8637" stroke-width="4.8"/><path clip-rule="evenodd" d="m145.263 91.455s-34.213 24.971-75.224 22.536c-4.772-.283-8.778-1.009-12.51-2.091 2.177.386 7.233.934 16.63.254 13.377-.966 24.332-5.848 24.332-5.848s-9.458 3.07-29.788 1.526-23.922-6.822-23.922-6.822 9.324 3.339 27.808-.689c18.485-4.028 28.964-10.566 28.964-10.566s-1.82.828-20.33 4.028c-12.274 2.121-20.376 2.654-24.442 2.772 3.14-.214 6.607-.69 10.436-1.476 37.006-7.598 54.136-25.197 54.136-25.197z" fill="#d31145" fill-rule="evenodd"/><path d="m57.854 109.583c-45.9-3.3-36.6-30.7-31.9-38-.239 2.297-1.7 21.2 22.9 26.3 0 0-17.6-1-21.59-9.119 3.19 13.619 30.59 20.819 30.59 20.819z" fill="#fff"/><path clip-rule="evenodd" d="m56.561 111.701-.348-.074c-.012-.024.102.014.348.074z" fill="#0069a9" fill-rule="evenodd"/><path d="m114.923 86.317c-2.556-4.609 3.154-12.659 12.752-17.979 9.338-5.178 18.918-5.863 21.781-1.649 0 0 4.335 6.77 4.379 6.849 2.555 4.609-3.154 12.659-12.752 17.979-9.201 5.101-18.637 5.841-21.652 1.832l-4.494-7.006z" fill="#d31145" stroke="#d31145" stroke-miterlimit="3.8637" stroke-width="4.4216"/><path d="m114.923 86.317c-2.556-4.609 3.154-12.659 12.752-17.979 9.338-5.178 18.918-5.863 21.781-1.649 0 0 4.335 6.77 4.379 6.849 2.555 4.609-3.154 12.659-12.752 17.979-9.201 5.101-18.637 5.841-21.652 1.832l-4.494-7.006z" fill="#004990"/><path d="m142.782 65.412c2.252.229 3.854 1.14 4.424 2.748 1.449 4.08-4.268 11.109-12.77 15.701-6.543 3.533-12.827 4.594-16.037 3.035 3.457.354 8.445-.896 13.594-3.676 8.502-4.592 14.219-11.621 12.77-15.7-.334-.94-1.02-1.642-1.981-2.108z" fill="#fff"/><path d="m112.253 89.683s-12.208 6.256-29.319 10.964c-17.679 4.866-30.28 3.036-30.28 3.036s10.034 3.801 31.507 1.855c22.516-2.039 33.592-8.855 33.592-8.855s-10.611 2.92-20.443 3.036c11.919-6.401 14.943-10.036 14.943-10.036z" fill="#fff"/><path clip-rule="evenodd" d="m80.653 92.783s12-2.9 24.051-8.5c3.873-1.801 6.199-3.9 6.199-3.9s-1.05 1.9-1.35 2.85c-.301.95.3 2.15.3 2.15s-2.8 1.3-10.8 3.5c-8.398 2.309-18.4 3.9-18.4 3.9z" fill="#fff" fill-rule="evenodd"/><path d="m79.653 112.982s15.7-2.699 26.4-6.8c8.93-3.422 13.9-7.6 13.9-7.6s1.799.399 3.699.55c1.297.103 2.75 0 2.75 0s-3.65 3.85-21.25 9.05c-13.409 3.964-25.499 4.8-25.499 4.8z" fill="#fff"/></svg>