<?xml version="1.0" encoding="UTF-8" standalone="no"?>
<!-- Created with Inkscape (http://www.inkscape.org/) -->

<svg
   xmlns:dc="http://purl.org/dc/elements/1.1/"
   xmlns:cc="http://creativecommons.org/ns#"
   xmlns:rdf="http://www.w3.org/1999/02/22-rdf-syntax-ns#"
   xmlns:svg="http://www.w3.org/2000/svg"
   xmlns="http://www.w3.org/2000/svg"
   version="1.1"
   width="800"
   height="800"
   id="svg2">
  <defs
     id="defs4" />
  <metadata
     id="metadata7">
    <rdf:RDF>
      <cc:Work
         rdf:about="">
        <dc:format>image/svg+xml</dc:format>
        <dc:type
           rdf:resource="http://purl.org/dc/dcmitype/StillImage" />
        <dc:title></dc:title>
      </cc:Work>
    </rdf:RDF>
  </metadata>
  <g
     transform="translate(0,-252.36217)"
     id="layer1">
    <path
       d="m 451.13411,92.706497 a 60.45763,60.45763 0 1 1 -120.91526,0 60.45763,60.45763 0 1 1 120.91526,0 z"
       transform="matrix(6.4853801,0,0,6.4853801,-2135.3759,53.783892)"
       id="path3845"
       style="fill:#ffffff;stroke:none" />
    <path
       d="m 398.38102,262.98902 c -173.68769,0 -320.997197,112.90275 -372.504018,269.34594 l 744.805358,0 C 719.17554,375.89177 572.0687,262.98902 398.38102,262.98902 z M 30.335701,791.14203 c 55.301417,149.49709 199.324519,255.97017 368.045319,255.97017 168.72079,0 312.54122,-106.47308 367.84264,-255.97017 l -735.887959,0 z"
       id="path3845-6"
       style="fill:#0101c1;fill-opacity:1;stroke:none" />
    <path
       d="m 397.16501,539.83368 c -31.89063,0.85815 -63.33149,13.79058 -86.94463,38.70962 -47.22621,49.83807 -45.1767,128.89239 4.66137,176.11847 l 0.20267,0.20105 c 41.66597,39.3001 103.6197,43.9352 150.37975,15.40277 l 0,-27.76585 c -39.15192,32.61757 -97.03627,31.49365 -134.97698,-4.45857 -40.93357,-38.78835 -42.63903,-102.96079 -3.85069,-143.89437 37.22803,-39.28694 97.82178,-42.41257 138.82767,-8.3094 l 0,-27.9682 c -20.86652,-12.7105 -44.6761,-18.67316 -68.29916,-18.03746 z m 3.44536,30.19755 c -51.88058,0 -94.24068,42.36011 -94.24068,94.24068 0,51.88058 42.3601,94.03788 94.24068,94.03788 25.16755,0 47.96515,-10.00499 64.8538,-26.14405 l 0,-38.30428 c -11.19649,24.64373 -35.86072,41.74963 -64.8538,41.74963 -39.61322,0 -71.54185,-31.72602 -71.54185,-71.33918 0,-39.61322 31.92863,-71.54184 71.54185,-71.54184 28.9735,0 53.64654,17.07464 64.8538,41.74963 l 0,-38.30428 c -16.88138,-16.14587 -39.72335,-26.14419 -64.8538,-26.14419 z m 0,31.61623 c -34.508,0 -62.42179,28.1164 -62.42179,62.62445 0,34.508 27.91379,62.42179 62.42179,62.42179 34.50806,0 62.42178,-27.91379 62.42178,-62.42179 0,-34.50805 -27.91372,-62.62445 -62.42178,-62.62445 z"
       id="path3845-3"
       style="fill:#c90202;fill-opacity:1;stroke:none" />
    <path
       d="M 241.51589,543.88705 25.06633,778.7796 l 30.805553,0 216.449557,-234.89255 -30.80555,0 z m 34.45358,0 0,234.89255 22.69883,0 0,-234.89255 -22.69883,0 z m -8.9174,17.42946 -19.65881,21.48282 -180.577299,195.98027 31.008224,0 146.529055,-159.09467 0,159.09467 22.69883,0 0,-188.27888 0,-29.18421 z m -36.07493,86.74195 -19.6588,21.28016 -100.72606,109.44098 30.60288,0 67.08315,-72.75805 0,72.75805 22.69883,0 0,-101.73959 0,-28.98155 z"
       id="path3901"
       style="font-size:medium;font-style:normal;font-variant:normal;font-weight:normal;font-stretch:normal;text-indent:0;text-align:start;text-decoration:none;line-height:normal;letter-spacing:normal;word-spacing:normal;text-transform:none;direction:ltr;block-progression:tb;writing-mode:lr-tb;text-anchor:start;baseline-shift:baseline;color:#000000;fill:#c90202;fill-opacity:1;stroke:none;stroke-width:3.5;marker:none;visibility:visible;display:inline;overflow:visible;enable-background:accumulate;font-family:Sans;-inkscape-font-specification:Sans" />
    <path
       d="m 472.35488,543.88705 0,234.89255 22.69883,0 0,-234.89255 -22.69883,0 z m 32.62957,0 0,234.89255 22.69883,0 0,-110.04899 98.69937,0 0,67.08315 0,11.34961 11.34942,0 141.66502,0 c 1.79878,-7.46675 3.29671,-15.07273 4.66137,-22.69902 l -134.97698,0 0,-180.5773 -22.69883,0 0,105.38742 -98.69937,0 0,-105.38742 -22.69883,0 z m 37.69627,0 0,81.47258 0,11.34942 11.34942,0 52.08571,0 11.34941,0 0,-11.34942 0,-81.47258 -22.69883,0 0,70.12317 -29.38688,0 0,-70.12317 -22.69883,0 z m 112.07547,0 0,159.29714 0,11.34942 11.34942,0 119.77686,0 c 1.13948,-7.48316 1.92454,-15.08298 2.63468,-22.69883 l -111.06213,0 0,-147.94773 -22.69883,0 z m -112.07547,139.03033 0,11.34942 0,84.5128 22.69883,0 0,-73.16339 29.38688,0 0,58.77363 0,11.34941 11.34942,0 165.17451,0 c 2.41574,-7.47375 4.71643,-15.0357 6.68805,-22.69883 l -160.51315,0 0,-58.77362 0,-11.34942 -11.34941,0 -52.08571,0 -11.34942,0 z"
       id="path3968"
       style="font-size:medium;font-style:normal;font-variant:normal;font-weight:normal;font-stretch:normal;text-indent:0;text-align:start;text-decoration:none;line-height:normal;letter-spacing:normal;word-spacing:normal;text-transform:none;direction:ltr;block-progression:tb;writing-mode:lr-tb;text-anchor:start;baseline-shift:baseline;color:#000000;fill:#c90202;fill-opacity:1;stroke:none;stroke-width:3.5;marker:none;visibility:visible;display:inline;overflow:visible;enable-background:accumulate;font-family:Sans;-inkscape-font-specification:Sans" />
    <path
       d="M 531.73664,286.29586 437.2933,401.61402 c -15.49533,18.93874 -61.82383,44.78966 -92.822,44.78966 l -202.8708,0 -55.12573,59.58443 269.34594,0 c 14.70177,0 26.12123,-5.83237 39.11495,-20.67215 L 559.29951,297.4426 c -9.0224,-4.06912 -18.19279,-7.75599 -27.56287,-11.14674 z"
       id="path4105"
       style="fill:#ffffff;stroke:none" />
    <path
       d="m 436.07729,806.95015 c -14.70177,0 -25.91856,5.8323 -38.91228,20.67214 L 235.84118,1011.8479 c 9.00955,4.1098 18.00063,8.1197 27.3602,11.5518 l 91.60599,-112.07514 c 15.49532,-18.93926 61.82383,-44.78999 92.822,-44.78999 l 202.87079,0 55.12573,-59.58442 -269.5486,0 z"
       id="path4105-4"
       style="fill:#ffffff;stroke:none" />
  </g>
</svg>
