<?xml version="1.0" encoding="UTF-8"?>
<!-- Generator: Adobe Illustrator 16.0.0, SVG Export Plug-In . SVG Version: 6.00 Build 0)  -->
<!DOCTYPE svg PUBLIC "-//W3C//DTD SVG 1.1//EN" "http://www.w3.org/Graphics/SVG/1.1/DTD/svg11.dtd">
<svg version="1.1" id="Layer_1" xmlns="http://www.w3.org/2000/svg" xmlns:xlink="http://www.w3.org/1999/xlink" x="0px" y="0px" width="186.757px" height="131.456px" viewBox="0 0 186.757 131.456" enable-background="new 0 0 186.757 131.456" xml:space="preserve">
<path fill="#FFFFFF" d="M185.23,39.094l-1.247-1.085l-16.196-14.441c0-0.005-0.067-0.062-0.067-0.062  c-0.894-0.762-1.732-1.48-3.273-1.88c-1.286-0.338-2.998,0-3.075,0.014l-13.057,2.774C135.271,6.891,112.774-2.458,90.042,2.371  L87.125,2.99C71.833,6.244,58.121,15.708,49.508,28.974c-3.688,5.681-6.314,11.795-7.842,18.109l-19.213,4.083  c-0.085,0.019-2.312,0.457-3.507,1.385c-1.27,0.985-2.441,3.073-2.488,3.159C15.863,56.794,1.841,82.126,0.822,84.43  c-0.737,1.646-0.975,3.045-0.728,4.215c0.186,0.89,0.666,1.646,1.428,2.279l1.251,1.08l16.192,14.436  c0.005,0.01,0.076,0.071,0.076,0.071c0.89,0.756,1.727,1.475,3.269,1.879c1.289,0.338,3.002,0,3.073-0.014l13.238-2.817  c3.991,5.276,8.912,9.873,14.622,13.579c12.913,8.384,28.315,11.239,43.374,8.037l2.917-0.618  c15.295-3.25,29.008-12.719,37.621-25.984c3.587-5.524,6.166-11.462,7.708-17.596l19.441-4.135c0.086-0.014,2.312-0.452,3.511-1.375  c1.266-0.985,2.436-3.079,2.484-3.169c0.6-1.075,14.617-26.407,15.636-28.71c0.733-1.656,0.979-3.05,0.724-4.215  C186.477,40.479,186.001,39.727,185.23,39.094"/>
<path fill="#FEB942" d="M140.942,63.156c0.913,26.293-19.65,48.352-45.946,49.266c-26.289,0.923-48.352-19.651-49.266-45.945  c-0.922-26.293,19.651-48.347,45.945-49.27C117.96,16.293,140.028,36.862,140.942,63.156"/>
<g>
	<defs>
		<path id="SVGID_1_" d="M50.488,66.311c-0.828-23.662,17.69-43.508,41.348-44.341c23.67-0.828,43.521,17.687,44.348,41.349    c0.829,23.671-17.69,43.522-41.355,44.345c-0.509,0.019-1.018,0.029-1.522,0.029h-0.009    C70.311,107.692,51.297,89.468,50.488,66.311 M91.67,17.207c-26.289,0.923-46.858,22.977-45.945,49.27    c0.924,26.294,22.978,46.868,49.271,45.949c26.296-0.918,46.87-22.977,45.946-49.274c-0.894-25.723-22.04-45.968-47.574-45.968    C92.802,17.183,92.236,17.188,91.67,17.207"/>
	</defs>
	<clipPath id="SVGID_2_">
		<use xlink:href="#SVGID_1_" overflow="visible"/>
	</clipPath>
	
		<linearGradient id="SVGID_3_" gradientUnits="userSpaceOnUse" x1="-521.2739" y1="610.9648" x2="-516.4037" y2="610.9648" gradientTransform="matrix(19.542 -0.6824 -0.6824 -19.542 10649.3965 11650.6846)">
		<stop offset="0" style="stop-color:#FFEDD0"/>
		<stop offset="1" style="stop-color:#F7A800"/>
	</linearGradient>
	<polygon clip-path="url(#SVGID_2_)" fill="url(#SVGID_3_)" points="41.458,17.302 141.741,13.799 145.215,113.226 44.93,116.728     "/>
</g>
<g>
	<defs>
		<path id="SVGID_4_" d="M88.177,5.149C77.509,7.415,68.15,12.467,60.685,19.372c6.119-4.192,13.146-7.285,20.846-8.926    c31.596-6.713,62.657,13.451,69.366,45.05c1.265,5.943,1.579,11.862,1.046,17.605l6.129-1.309    c1.142-6.971,1.037-14.265-0.524-21.592C151.705,22.702,127.429,3.86,100.393,3.86C96.365,3.86,92.274,4.279,88.177,5.149"/>
	</defs>
	<clipPath id="SVGID_5_">
		<use xlink:href="#SVGID_4_" overflow="visible"/>
	</clipPath>
	
		<linearGradient id="SVGID_6_" gradientUnits="userSpaceOnUse" x1="-516.4697" y1="616.6758" x2="-511.5978" y2="616.6758" gradientTransform="matrix(17.7344 -3.7695 -3.7695 -17.7344 11550.5889 9037.1338)">
		<stop offset="0" style="stop-color:#E5E8ED"/>
		<stop offset="0.0918" style="stop-color:#DCE1E8"/>
		<stop offset="0.2417" style="stop-color:#C4CED9"/>
		<stop offset="0.431" style="stop-color:#9CB0C2"/>
		<stop offset="0.6523" style="stop-color:#6585A0"/>
		<stop offset="0.8976" style="stop-color:#1F4F77"/>
		<stop offset="1" style="stop-color:#003764"/>
	</linearGradient>
	<polygon clip-path="url(#SVGID_5_)" fill="url(#SVGID_6_)" points="46.577,6.729 154.959,-16.309 173.326,70.103 64.943,93.141     "/>
</g>
<g>
	<defs>
		<path id="SVGID_7_" d="M28.425,57.874c-1.185,6.98-0.913,13.994,0.694,21.564c6.714,31.594,37.774,51.763,69.373,45.05    c10.666-2.274,20.03-7.322,27.49-14.227c-6.128,4.192-13.141,7.285-20.85,8.926c-31.592,6.709-62.652-13.456-69.366-45.044    c-1.308-6.176-1.508-11.891-0.843-17.652L28.425,57.874z"/>
	</defs>
	<clipPath id="SVGID_8_">
		<use xlink:href="#SVGID_7_" overflow="visible"/>
	</clipPath>
	
		<linearGradient id="SVGID_9_" gradientUnits="userSpaceOnUse" x1="-491.5" y1="555.4902" x2="-486.6288" y2="555.4902" gradientTransform="matrix(-17.7344 3.7695 3.7695 17.7344 -10689.9482 -7914.0557)">
		<stop offset="0" style="stop-color:#E5E8ED"/>
		<stop offset="0.0918" style="stop-color:#DCE1E8"/>
		<stop offset="0.2417" style="stop-color:#C4CED9"/>
		<stop offset="0.431" style="stop-color:#9CB0C2"/>
		<stop offset="0.6523" style="stop-color:#6585A0"/>
		<stop offset="0.8976" style="stop-color:#1F4F77"/>
		<stop offset="1" style="stop-color:#003764"/>
	</linearGradient>
	<polygon clip-path="url(#SVGID_8_)" fill="url(#SVGID_9_)" points="141.181,127.971 31.507,151.281 12.047,59.716 121.719,36.406     "/>
</g>
<rect x="26.355" y="42.014" transform="matrix(0.9782 -0.2079 0.2079 0.9782 -11.4359 20.8201)" fill="#FFFFFF" width="133.959" height="45.604"/>
<path fill="#1F191A" d="M39.482,63.351l13.27-2.822c2.061-0.437,4.159-0.732,5.862,0.072c1.822,0.856,2.888,2.736,2.884,4.844  c0,2.712-1.828,5.4-4.602,6.589v0.077c3.131-0.143,5.268,1.666,5.263,4.749c-0.004,2.227-0.836,4.886-2.778,6.618  c-2.103,1.875-5.035,2.542-7.489,3.06l-12.442,2.646L39.482,63.351z M50.711,81.032c0.828-0.176,1.742-0.338,2.418-1.004  c0.594-0.543,0.988-1.304,0.988-2.022c0-0.866-0.514-1.546-1.308-1.756c-0.709-0.19-1.66,0.014-2.417,0.176l-3.288,0.7l-0.004,4.673  L50.711,81.032z M50.483,70.911c0.79-0.171,1.742-0.337,2.336-0.984c0.52-0.566,0.795-1.261,0.795-1.865  c0-1.917-1.661-1.832-3.246-1.489l-3.25,0.69l-0.004,4.368L50.483,70.911z"/>
<path fill="#1F191A" d="M91.721,68.661c-0.522,6.058-5.085,10.868-11.343,12.205c-8.165,1.727-12.433-2.974-12.423-10.316  c0.004-7.456,3.773-14.432,12.337-16.249c6.933-1.475,10.887,1.599,11.435,7.922c0,0-4.126,0.828-7.728,1.642  c-0.081-2.051-1.051-4.33-3.636-3.787c-3.687,0.785-3.848,6.204-3.854,8.655c0,2.598,0.153,6.966,3.911,6.167  c2.403-0.504,3.437-2.574,3.66-4.615C87.087,69.613,91.721,68.661,91.721,68.661"/>
<polygon fill="#1F191A" points="122.062,71.625 113.735,73.39 113.754,63.341 107.331,64.702 107.321,74.756 98.997,76.526   99.03,50.689 107.35,48.925 107.34,58.455 113.754,57.085 113.774,47.559 122.09,45.793 "/>
<polygon fill="#1F191A" points="151.182,65.435 132.121,69.489 132.149,43.652 140.551,41.868 140.524,61.376 151.191,59.111 "/>
<path fill="#00406B" d="M13.298,84.824l-2.017-1.751c-0.995-0.856-2.179-1.208-3.711-0.066l-3.574,2.76  c-0.999,0.785-1.013,2.564,0.053,3.487L6.062,91l14.231,12.319c0.899,0.776,1.694,1.476,3.192,1.865  c1.228,0.319,2.917-0.019,2.917-0.019L165.38,75.66l-1.095-5.186c0,0-104.662,22.23-129.362,27.479  c-3.04,0.642-4.177,0.885-5.158,0.628c-0.985-0.243-3.321-2.375-3.321-2.375L13.298,84.824z"/>
<path fill="#00406B" d="M173.374,44.809l2.017,1.751c0.99,0.856,2.169,1.208,3.711,0.067l3.568-2.76  c0.999-0.78,1.008-2.564-0.048-3.488l-2.017-1.746l-14.227-12.318c-0.904-0.776-1.694-1.475-3.197-1.866  c-1.228-0.318-2.913,0.02-2.913,0.02L21.282,53.973l1.104,5.182c0,0,104.653-22.225,129.356-27.474  c3.046-0.642,4.178-0.885,5.158-0.628c0.98,0.243,3.322,2.375,3.322,2.375L173.374,44.809z"/>
</svg>