<svg height="308.820936" viewBox="0 0 108.31244 103.25987" width="323.812243" xmlns="http://www.w3.org/2000/svg" xmlns:xlink="http://www.w3.org/1999/xlink"><clipPath id="a"><path d="m64.125 48.142h86.65v82.608h-86.65z"/></clipPath><clipPath id="b"><path d="m64.125 48.142h86.65v82.608h-86.65z"/></clipPath><clipPath id="c"><path d="m64.125 48.142h86.65v82.608h-86.65z"/></clipPath><linearGradient id="d" gradientTransform="matrix(49.099106 -20.291779 -20.291779 -49.099106 81.859222 102.30219)" gradientUnits="userSpaceOnUse" spreadMethod="pad" x1="0" x2="1" y1="0" y2="0"><stop offset="0" stop-color="#002b5c"/><stop offset=".180679" stop-color="#a4c2de"/><stop offset=".394958" stop-color="#002b5c"/><stop offset=".752106" stop-color="#a4c2de"/><stop offset=".9832" stop-color="#002b5c"/><stop offset="1" stop-color="#002b5c"/></linearGradient><linearGradient id="e" gradientTransform="matrix(49.099106 -20.291779 -20.291779 -49.099106 81.859222 102.30219)" gradientUnits="userSpaceOnUse" spreadMethod="pad" x1="0" x2="1" y1="0" y2="0"><stop offset="0" stop-color="#33557d"/><stop offset=".180679" stop-color="#fff"/><stop offset=".394958" stop-color="#33557d"/><stop offset=".752106" stop-color="#fff"/><stop offset=".9832" stop-color="#33557d"/><stop offset="1" stop-color="#33557d"/></linearGradient><linearGradient id="f" gradientTransform="matrix(49.099106 -20.291779 -20.291779 -49.099106 81.859222 102.30219)" gradientUnits="userSpaceOnUse" spreadMethod="pad" x1="0" x2="1" y1="0" y2="0"><stop offset="0" stop-color="#fff"/><stop offset=".180679" stop-color="#b6cee5"/><stop offset=".394958" stop-color="#fff"/><stop offset=".752106" stop-color="#b6cee5"/><stop offset=".9832" stop-color="#fff"/><stop offset="1" stop-color="#fff"/></linearGradient><g clip-path="url(#a)" transform="matrix(1.2272488125 0 0 -1.2272488125 -77.711698 161.40236875)"><path d="m0 0h.004l-.024.451-.012.467h-.008l-.023.463-.558.728c-1.06 1.317-2.477 2.164-4.123 3.018-5.044 2.525-13.281 4.886-20.426 4.922-.376 0-.74-.008-1.112-.02-4.791-.197-10.67-1.495-15.976-3.125-2.65-.819-5.143-1.725-7.264-2.647-2.12-.93-3.873-1.832-5.194-2.892l-.166-.135-.111-.091-.052-.043-.249-.36-.024-.032c-.201-.296-1.82-2.666-3.723-5.788-2.029-3.339-4.387-7.489-5.756-11.121-2.303-6.2-6.374-12.969-8.49-23.754-.103-.53-.147-1.068-.147-1.602.016-2.319.756-4.795 1.967-7.458 3.675-7.944 12.019-17.942 23.702-23.105l.107-.044.079-.035.028-.012 1.309-.344 1.132.336c21.799 6.445 35.65 21.435 41.075 33.668 1.899 4.341 2.86 9.982 3.445 15.711.574 5.725.717 11.513.717 15.897 0 3.39-.087 5.954-.127 6.947" transform="translate(144.5456 120.7009)"/><path d="m0 0-.024.447-.273.356c-.799 1.009-2.017 1.777-3.62 2.603-4.771 2.406-12.925 4.732-19.738 4.752-.352 0-.7-.008-1.048-.02-4.574-.182-10.382-1.452-15.596-3.058-2.604-.807-5.049-1.693-7.11-2.588-2.061-.902-3.719-1.776-4.846-2.686l-.163-.13-.114-.167c-.008-.015-1.702-2.468-3.711-5.76-2.006-3.304-4.329-7.414-5.634-10.872-2.382-6.394-6.35-12.973-8.419-23.513-.083-.423-.119-.862-.119-1.317.008-1.982.673-4.285 1.832-6.837 3.501-7.604 11.679-17.392 22.943-22.349l.102-.044.788-.209.732.217c21.344 6.299 34.903 21.028 40.125 32.838 1.788 4.067 2.758 9.598 3.327 15.256.57 5.649.708 11.394.708 15.746 0 4.364-.142 7.319-.142 7.335" fill="#fff" transform="translate(143.0699 121.1519)"/></g><path d="m118.212 127.862c-8.728-.337-22.987-4.981-26.709-8.012s-.426-.617-1.102-1.646c1.863-.673 3.932-.94 6.12-.94 6.969 0 15.121 2.718 21.482 3.666 2.842.467 5.759.71 8.663.71 5.02 0 9.999-.727 14.466-2.28.13-.048.253-.091.363-.135.002-.032.004-.064.006-.096-.035 1.24-.069 1.952-.069 1.952-2.075 2.7-13.582 6.8-22.224 6.8-.337 0-.669-.006-.996-.019m-.214-9.543c-6.708-1.601-15.256-5.478-22.602-5.478-2.628 0-5.101.496-7.281 1.768-2.048-3.328-4.504-7.64-5.795-11.083-2.465-6.571-6.338-12.976-8.355-23.286-1.156-5.892 8.525-22.223 23.825-28.918l.297-.079.343.103c20.917 6.152 34.195 20.64 39.231 32.046 4.157 9.419 4.02 28.991 3.846 35.518.002-.128 0-.249 0-.346-.111.025-.23.056-.356.091-3.349.886-6.88 1.293-10.449 1.293-4.264 0-8.581-.582-12.704-1.629" fill="url(#d)" transform="matrix(1.2272488125 0 0 -1.2272488125 -77.711698 161.40236875)"/><g clip-path="url(#b)" fill="#fff" transform="matrix(1.2272488125 0 0 -1.2272488125 -77.711698 161.40236875)"><path d="m0 0c-.009.005-.017.01-.026.015.926 1.488 1.745 2.746 2.303 3.584.003-.001.007-.002.01-.003-.604-.919-1.408-2.167-2.287-3.596m53.392 4.301c-.002.074-.004.147-.006.218.004-.072.005-.146.006-.218" transform="translate(88.1145 114.609)"/><path d="m0 0c-2.626 0-5.1.496-7.281 1.768.88 1.429 1.684 2.676 2.288 3.595 1.862-.674 3.931-.941 6.118-.941 6.97 0 15.122 2.719 21.482 3.667 2.842.467 5.76.71 8.664.71 5.02 0 9.999-.727 14.465-2.281.131-.047.253-.091.364-.134.002-.032.004-.064.006-.097.002-.071.004-.144.006-.218.001-.128 0-.25 0-.346-.111.024-.229.055-.356.091-3.349.885-6.88 1.293-10.449 1.293-4.264 0-8.582-.583-12.704-1.629-6.708-1.602-15.256-5.478-22.603-5.478" transform="translate(95.3951 112.8414)"/></g><path d="m118.003 120.93c-6.361-.948-14.513-3.666-21.482-3.666-2.188 0-4.257.267-6.12.94-.603-.919-1.407-2.166-2.286-3.595 2.18-1.272 4.653-1.768 7.281-1.768 7.346 0 15.894 3.877 22.602 5.478 4.123 1.047 8.44 1.629 12.704 1.629 3.569 0 7.1-.407 10.449-1.293.126-.035.245-.066.356-.091 0 .097.002.218 0 .346-.002.074-.004.147-.006.219-.002.032-.004.064-.006.096-.11.044-.233.087-.363.135-4.467 1.553-9.446 2.28-14.466 2.28-2.904 0-5.821-.243-8.663-.71" fill="url(#e)" transform="matrix(1.2272488125 0 0 -1.2272488125 -77.711698 161.40236875)"/><path d="m118.003 120.93c-6.361-.948-14.513-3.666-21.482-3.666-2.188 0-4.257.267-6.12.94-.603-.919-1.407-2.166-2.286-3.595 2.18-1.272 4.653-1.768 7.281-1.768 7.346 0 15.894 3.877 22.602 5.478 4.123 1.047 8.44 1.629 12.704 1.629 3.569 0 7.1-.407 10.449-1.293.126-.035.245-.066.356-.091 0 .097.002.218 0 .346-.002.074-.004.147-.006.219-.002.032-.004.064-.006.096-.11.044-.233.087-.363.135-4.467 1.553-9.446 2.28-14.466 2.28-2.904 0-5.821-.243-8.663-.71" fill="url(#f)" transform="matrix(1.2272488125 0 0 -1.2272488125 -77.711698 161.40236875)"/><g clip-path="url(#c)" transform="matrix(1.2272488125 0 0 -1.2272488125 -77.711698 161.40236875)"><path d="m0 0c-14.993 6.647-22.424 21.419-21.694 27.743-.73-2.258-1.245-4.705-1.702-7.44-.848-5.086 8.255-21.366 23.806-28.172l.302-.078.055.015c-.373 2.643-.525 5.209-.55 7.875z" transform="translate(97.374 59.1894)"/><path d="m0 0-.367-.094.009-.126c.023-2.621.174-5.147.54-7.748l.291.086c20.917 6.154 34.194 20.643 39.23 32.047 5.034 11.404 3.772 37.691 3.772 37.691-2.144-41.971-22.825-55.704-43.475-61.856" fill="#6799c8" transform="translate(97.9578 59.2263)"/><path d="m-9.435-9.755-.006.001-.012.001c-.101.014-.358.034-.614.194-.276.178-.456.431-.485.847l.003.041c.002.18.056.332.099.422.024.053.109.238.211.465-.489-.059-1.191-.15-2.2-.297l-3.341-.488 2.632 2.125c.111.086.203.166.277.234-.084.086-.197.195-.334.321-.489.443-1.285 1.11-2.349 2.119l-1.386 1.316 1.889.267c.29.044.448.097.512.132.063.036.035.021.051.036l.004.009.002.001h-.001.001l.009.032c.01.032.02.086.03.154.02.141.031.346.031.6v.104c0 .13-.001.268-.001.417 0 .096.001.195.003.298l.014 1.327 1.241-.475c.616-.241 1.009-.316 1.172-.312l.007-.001c.19.017.136.003.304.101.126.084.361.31.686.605l.874.785.558-1.036c.131-.249.251-.458.362-.634.124.692.205 1.674.312 2.61l.215 1.878 1.346-1.321c.258-.236.305-.212.36-.22h.01s.092.013.225.095.305.216.493.403c.387.376.829.926 1.335 1.422l1.095 1.074.435-1.474c.127-.434.175-.851.241-1.163.023-.142.062-.265.091-.346.133.03.421.125.797.347l3.133 1.797-1.885-3.081c-.237-.388-.491-.79-.732-1.181l.102.08.981.78.457-1.175c.051-.137.094-.255.127-.343.217.013.711.106 1.449.333l2.593.778-1.575-2.201c-.372-.52-.697-.95-.91-1.27l2.412-.379-2.322-1.306c-1.605-.901-2.787-1.522-3.621-1.973-.687-.366-1.156-.651-1.345-.793l.037-.07.844-1.634-1.815.299c-1.302.213-2.048.309-2.474.355-.082.009-.148.014-.206.019-.125-.44-.295-1.067-.32-1.162-.079-.295-.247-.503-.456-.645-.177-.121-.358-.175-.492-.205-.267-.055-.499-.053-.72-.056-.151 0-.302.002-.46.017" transform="translate(120.0035 120.7911)"/><path d="m0 0c-.146 0-.283.003-.416.015-.134.019-.259.026-.439.133-.117.062-.269.265-.26.47 0 .108.029.19.056.253.051.109.344.751.544 1.202-.071-.005-.155-.013-.256-.024-.47-.047-1.296-.145-2.764-.36l-1.676-.245 1.318 1.064c.368.29.563.507.58.564l.003.01-.007.024c-.011.024-.037.071-.086.133-.097.123-.273.302-.523.53-.501.457-1.29 1.115-2.344 2.115l-.695.66.948.135c.635.095.804.24.892.389.104.159.149.54.14 1.136v.418c0 .096 0 .193.003.293l.008.665.62-.238c.656-.253 1.083-.344 1.35-.343.249.006.373.055.563.183.188.127.416.355.734.642l.439.393.278-.519c.274-.513.51-.88.696-1.116.113-.147.211-.239.273-.284l.031.061c.078.161.16.459.225.823.133.729.213 1.724.318 2.66l.109.942.676-.664c.296-.283.498-.348.671-.348.262-.012.644.213 1.062.63.418.407.858.954 1.336 1.425l.549.536.219-.736c.112-.386.16-.786.228-1.12.062-.336.166-.587.247-.661.053-.047.075-.069.215-.074.178-.004.554.097 1.117.421l1.565.897-.942-1.54c-.677-1.106-1.464-2.318-1.82-3.06.044.028.093.057.144.088.406.255.974.667 1.728 1.264l.491.389.227-.584c.114-.306.183-.525.232-.578.044-.039-.007-.054.258-.07.272-.002.803.097 1.654.354l1.299.391-.788-1.103c-.373-.519-.701-.951-.921-1.287-.185-.267-.278-.487-.298-.567.05-.028.183-.078.395-.109l1.316-.207-1.162-.655c-1.604-.899-2.782-1.519-3.621-1.973-.837-.449-1.339-.752-1.535-.94-.13-.134-.107-.139-.112-.16-.005-.029.028-.163.146-.384l.422-.817-.908.149c-1.312.214-2.066.312-2.508.359-.353.037-.483.04-.594.048-.108-.348-.392-1.397-.429-1.541-.04-.158-.153-.299-.267-.374-.116-.079-.226-.114-.329-.136-.206-.044-.405-.044-.625-.047" fill="#fff" transform="translate(111.0209 111.4566)"/><path d="m0 0c.422 0 .722.023.774.215.045.171.383 1.422.472 1.669.089.245.222.237.373.218.154-.02.573.013 3.207-.417-.624 1.212.004 1.093 5.307 4.072-1.444.228-.682 1.01.521 2.69-2.493-.747-2.38-.278-2.712.569-4.748-3.761-2.398-.416-.731 2.313-2.415-1.384-2.131.529-2.479 1.704-1.203-1.175-2.307-3.088-3.718-1.704-.313-2.729-.393-6.074-2.411-2.313-.946-.847-1.172-1.316-3.122-.569-.019-1.68.176-2.462-1.433-2.69 3.14-2.979 3.855-2.86 2.349-4.072 2.947.43 3.323.397 3.491.417.163.019.305.027.215-.218-.09-.247-.662-1.498-.74-1.669-.087-.192.217-.215.637-.215" fill="#e31937" transform="translate(111.0209 111.9192)"/><path d="m0 0c-.089-.192.215-.214.637-.214.421 0 .722.022.771.214.048.17.384 1.421.473 1.667.09.247.222.237.375.218s.571.014 3.206-.416c-.526 1.018-.164 1.099 3.107 2.863-2.943-.42-4.419-.075-6.178.707-1.793.798-4.182 1.064-6.722.846-.213-.165-.522-.277-.984-.344 3.138-2.978 3.854-2.86 2.348-4.072 2.947.43 3.321.397 3.489.416.166.019.306.029.217-.218-.09-.246-.663-1.497-.739-1.667" fill="#e73c55" transform="translate(110.3892 112.1577)"/><path d="m0 0 5.369 17.263-12.395-1.971-9.653-1.533-5.326-.848-19.308-3.071-13.026-2.07-.049-.003c-1.039.035-2.206-.036-3.498-.238-7.462-1.206-15.028-6.884-17.889-16.025-.686-2.232-1.019-4.477-.683-6.678.006-.045.013-.086.018-.119.37-2.352 1.707-4.658 4.052-5.955v-.001c2.299-1.276 5.058-1.48 8.121-.996 2.16.348 4.031.94 5.42 1.545l1.592.706 2.584-.288c1.358-.14 2.718-.03 3.897.15l.007.002.033.005.018.003c2.972.472 5.814 1.654 8.136 3.785.951.867 1.794 1.874 2.538 3.002l-1.551-4.991 12.24 1.948 2.739.433 9.655 1.536.734.116 2.004.32 18.317 2.912 3.833 12.322z" transform="translate(142.8466 97.8266)"/><path d="m0 0c-1.2-.107-1.709-.026-1.961.122-.24.155-.345.236-.457.78-.084.496-.023 1.352.325 2.466 1.22 3.924 4.061 5.88 6.556 6.283 1.404.221 2.254.052 2.766-.116l1.678-.558 2.669 8.743-1.976.295c-1.143.169-2.63.166-4.409-.114-6.811-1.093-13.87-6.349-16.514-14.837-.637-2.071-.911-4.072-.621-5.927.287-1.946 1.359-3.792 3.202-4.809 1.831-1.019 4.168-1.248 7.014-.799 2.001.32 3.756.879 4.999 1.423l.718.316.233.745 2.416 7.715s-5.44-1.62-6.638-1.728m41.415 15.495-2.907-.463 1.909 6.143 1.113-.801 1.146-.825zm18.926-5.558 5.368 17.263-12.395-1.97-2.784-.443-9.456-1.504-15.18-2.413-12.24-1.946 3.394-2.442 1.145-.824-3.28-10.558c-.423-1.361-.906-2.111-1.329-2.519-.427-.403-.818-.573-1.456-.686-.69-.112-1.334-.086-1.783-.018l-1.449.213-2.664-8.358 2.093-.228c1.13-.119 2.37-.026 3.447.14l.031.005c2.717.431 5.218 1.483 7.263 3.356 2.054 1.878 3.605 4.512 4.674 7.953l4.436 14.27 2.259-1.625-6.754-21.721 9.335 1.486 2.729 8.78 2.907.461-2.728-8.779 9.332 1.485 7.437 23.916 2.377-1.71-6.753-21.719 17.26 2.742 2.691 8.653z" fill="#f8fcff" transform="translate(80.0525 85.6644)"/><path d="m0 0 2.154-1.55-3.65-11.74c-.955-3.071-2.385-4.113-4.16-4.395-.886-.14-1.693-.113-2.305-.021l-1.58-4.959c.881-.096 2.044-.021 2.989.13 4.956.789 8.582 3.655 10.594 10.125l4.269 13.731z" fill="#e31937" transform="translate(98.1059 103.5439)"/><path d="m0 0 2.153-1.55-1.947-6.261-6.702-1.065 2.566 8.252-8.312-1.323 2.154-1.549-6.298-20.256 5.539.88 2.729 8.779 6.702 1.067-2.73-8.781 5.539.881 6.918 22.247z" fill="#e31937" transform="translate(122.5888 107.4367)"/><path d="m0 0 5.367 17.263-8.311-1.322 2.153-1.55-6.297-20.257 13.465 2.141 1.549 4.984z" fill="#e31937" transform="translate(137.9266 93.4665)"/><path d="m0 0c-1.089-.479-2.738-1.007-4.579-1.3-7.713-1.225-9.507 3.418-7.68 9.327 2.423 7.823 8.986 12.665 15.14 13.643 1.622.258 2.97.25 3.885.111l-1.572-5.142c-.764.256-1.928.447-3.58.184-3.153-.501-6.534-2.954-7.932-7.476-1.248-4.027.211-6.181 4.009-5.577 1.315.21 2.897.711 3.867 1.211z" fill="#e31937" transform="translate(82.6326 80.1936)"/><path d="m0 0 5.538.881 2.096 6.737c-1.77-.457-3.648-.882-5.657-1.265zm-12.24-1.946 5.538.881 2.046 6.577c-1.598-.053-3.335-.017-5.247.063zm-9.593 6.569c-.955-3.07-2.385-4.112-4.16-4.394-.886-.141-1.693-.113-2.305-.022l-1.58-4.958c.881-.096 2.044-.021 2.989.13 4.956.789 8.582 3.655 10.594 10.125l.122.395c-1.617.087-3.342.176-5.186.251zm41.317 3.213 1.318 4.242c-1.904-.772-3.871-1.537-5.972-2.273l-2.435-7.834 13.466 2.14 1.549 4.985zm-61.612-3.925c.241.781.546 1.497.894 2.156-1.786-.092-3.643-.21-5.576-.357-.492-.98-.918-2.019-1.259-3.12-1.828-5.909-.033-10.552 7.68-9.326 1.841.292 3.49.82 4.579 1.3l1.558 4.98c-.97-.499-2.552-1-3.868-1.211-3.797-.603-5.256 1.551-4.008 5.578" fill="#e73c55" transform="translate(118.4429 85.6301)"/><path d="m0 0c-.296.339-.698.476-1.04.515-.353.042-.692.009-1.038-.044l-.023-.002-3.108-.498-.143-.438-.309-.941c-.256.436-.651.75-1.053.879-.607.217-1.195.18-1.666.109l-.039-.006c-.818-.141-1.542-.487-2.149-.97l.178.544-5.399-.862-.478-1.53-.333 1.401-13.373-2.127 2.136-1.489-.483-1.492-2.412-.385-.148-.429c-.12-.353-.213-.704-.254-1.024-.03-.231-.034-.455 0-.673.074-.608.549-1.102 1.015-1.25.428-.152.834-.145 1.196-.097h.01l.08.012.011.003c.74.117 1.409.397 1.938.872.292.261.531.574.731.926.182-.333.471-.614.821-.77.531-.248 1.15-.29 1.853-.179h.005l.028.006c.789.125 1.443.384 1.959.759l-.116-.351 3.065.487.484 1.531.327-1.403 1.842.294 3.105.496.496 1.511c.176-.352.442-.654.79-.851.562-.321 1.225-.374 1.931-.262h.005c.809.131 1.523.455 2.124.911l-.159-.485 3.103.498.673 2.056.193.03c-.038-.215-.087-.428-.122-.674-.027-.222-.004-.384.003-.471l.069-.813 2.765.44.067.915c.003.048.011.129.024.219.037.278.101.597.158 1.023.025.213.039.416.005.642l-.012.058c.584.467.941 1.15 1.016 1.863.035.258.039.5.002.734-.042.28-.158.561-.351.782" transform="translate(137.138 80.9942)"/><path d="m0 0 .002.003-.003-.005zm35.838 5.752-.435-1.466-.313 1.347-2.579-.408-.139-.449-.756-2.406-.089 2.698-2.584-.41-.182-.292-1.51-2.408.802 2.558-3.052-.485-.14-.449-.333-1.064c-.2.367-.498.664-.859.829-.575.273-1.199.277-1.833.18h-.004l-2.453-.389-.141-.448-.824-2.606-.097 2.885-2.583-.413-.183-.29-1.381-2.205.741 2.365-3.015-.478-.438-1.468-.311 1.349-2.579-.41-.14-.448-.754-2.408-.091 2.701-2.586-.413-.182-.291-1.518-2.421c0 .154-.01.304-.032.451-.085.633-.486 1.214-1.04 1.471-.548.261-1.146.277-1.77.183h-.001l-.011-.002-.039-.006c-2.195-.387-3.591-2.343-3.844-4.379-.053-.424-.053-.807 0-1.151.109-.793.597-1.408 1.165-1.662.562-.261 1.116-.253 1.561-.186h.004l.079.012c.334.052.643.148.937.264l3.281.52.657 1.08.645.102.001-.087.001-.886 2.361.375 2.031.322.441 1.464.303-1.344.855.135 3.439.546.659 1.08.644.103v-.091l.003-.885 2.923.464-.001.002 2.089.331c.894.14 1.649.49 2.265.97l-.203-.641 1.39.22-.001-.002 1.146.184.517.081h.001l1.775.284.659 1.08.645.103v-.089l.002-.887 2.924.465 1.467.233.441 1.463.304-1.344 2.583.409 2.301 7.339z" transform="translate(67.6048 70.694)"/><path d="m0 0-.457-1.358c-.192.371-.505.677-.876.831-.55.236-1.144.24-1.782.144l-.013-.001c-1.686-.266-2.754-1.308-3.332-2.275-.196-.325-.342-.638-.455-.926l-.08 2.471-2.615-.417-.184-.281-1.439-2.205.781 2.352-6.04-.962-.144-.441-1.293-3.944-1.423-.229 1.447 4.388-2.649-.422-.754-.121v.002l-3.976-.632-.932-1.292-.058.367-.121.746-1.163-.186v.002l-11.672-1.86-.146-.439-.288-.873c-.194.342-.486.619-.83.77-.556.254-1.162.263-1.802.166l-.023-.004c-1.319-.223-2.361-.987-3.054-1.989-.255.475-.671.819-1.097.955-.606.216-1.196.178-1.667.106h-.005c-.807-.133-1.525-.468-2.131-.934l.17.51-9.182-1.463 2.131-1.483-1.762-5.352 6.419 1.023.482 1.465c.176-.334.434-.62.766-.809.563-.324 1.226-.375 1.934-.265l.002.001c1.393.225 2.501 1.014 3.232 2.077.224-.462.587-.812.987-.982.568-.252 1.129-.238 1.581-.17h.001l.079.014c.73.114 1.368.382 1.912.765l-.122-.366 3.105.491.566 1.355.588-1.171 3.163.505 7.814 1.244.809 2.446 3.192 3.915.762-.53-1.76-5.353 4.529.721 6.048.965 1.706.271.679 1.07.703.112.002-.072-.002-.887 2.965.47-.03.933c.174-.214.383-.387.617-.497.547-.27 1.117-.274 1.635-.194h.002l.106.015c.322.051.615.139.881.255l1.958.312.392 1.182c.182-.275.441-.503.744-.64.53-.247 1.149-.289 1.855-.178h.003l.03.003c.83.132 1.508.413 2.036.819l-.131-.402 6.045.966 2.378 7.273z" transform="translate(131.4752 72.7285)"/><path d="m0 0 1.447 4.387-1.421-.226-1.36-.216 1.048-.731-1.547-4.709 3.963.632.421 1.27z" fill="#fff" transform="translate(111.0134 64.5437)"/><path d="m0 0 4.352.691-.421-1.266-2.931-.466-.292-.902 2.703.429-.374-1.139-2.702-.432-.352-1.078 2.954.473-.421-1.269-4.368-.696z" fill="#fff" transform="translate(115.5588 69.4258)"/><path d="m0 0 1.243.197.054 1.938-.014-.003zm1.049 3.529 1.437.23.169-5.334-1.427-.227v.961l-1.916-.306-.681-1.069-1.489-.237z" fill="#fff" transform="translate(121.2665 66.9729)"/><path d="m0 0c.083.516-.298.74-.804.661-1.152-.185-1.786-1.426-1.917-2.407-.101-.773.214-1.154.947-1.037.675.107 1.072.396 1.37 1.08l-1-.159.363 1.094 2.267.364-1.029-3.101-.91-.145.104.557-.016-.003c-.39-.506-.79-.777-1.668-.919-1.04-.164-2.09.2-1.848 2.041.055.414.644 3.353 3.515 3.81 1.377.22 2.187-.259 1.969-1.622z" fill="#fff" transform="translate(129.1009 69.7595)"/><path d="m0 0c-.5-1.521-1.073-2.579-3.042-2.895-1.419-.226-2.114.365-2 1.229.06.459.183.803.307 1.176l.994 2.957 1.419.226-1.019-3.029c-.087-.269-.208-.567-.246-.857-.053-.407.218-.605.731-.523.976.156 1.226.909 1.537 1.807l.962 2.915 1.419.227z" fill="#fff" transform="translate(135.7885 69.5849)"/><path d="m0 0 4.352.693-.421-1.268-2.934-.467-.289-.904 2.704.432-.376-1.139-2.704-.431-.349-1.077 2.955.471-.424-1.269-4.367-.696z" fill="#fff" transform="translate(137.7578 72.9619)"/><path d="m0 0-.676-2.059-1.893-.305.675 2.06-1.42-.227-1.362-.217 1.051-.73-1.549-4.708 1.422.227.762 2.329 1.893.302-.763-2.329 1.422.226 1.858 5.657z" fill="#fff" transform="translate(78.8428 63.5783)"/><path d="m0 0c1.025.164 1.713 1.475 1.828 2.341.107.813-.125 1.219-.887 1.099-1.1-.179-1.75-1.467-1.87-2.371-.092-.706.173-1.189.929-1.069m1.14 4.618c.947.152 2.382.035 2.124-1.929-.255-1.924-1.578-3.567-3.532-3.88-1.52-.242-2.279.516-2.078 2.042.24 1.816 1.608 3.468 3.486 3.767" fill="#fff" transform="translate(82.3127 59.8049)"/><path d="m0 0c.13.516-.091.878-.755.773-1.077-.171-1.648-1.485-1.761-2.352-.094-.704.042-1.21.843-1.082.596.096 1.109.584 1.28 1.15l1.421.226c-.491-1.452-1.466-2.328-3.054-2.582-.864-.137-2.171.083-1.902 2.116.231 1.763 1.501 3.408 3.348 3.7 1.367.219 2.207-.277 2.001-1.72z" fill="#fff" transform="translate(89.8717 63.4038)"/><path d="m0 0 1.419.225-.735-2.219.018.004 2.504 2.5 1.878.299-2.9-2.668 1.194-2.964-1.618-.258-.82 2.123-.825-.755-.57-1.721-1.421-.224z" fill="#fff" transform="translate(92.8192 65.804)"/><path d="m0 0 4.354.692-.421-1.269-2.933-.467-.29-.902 2.701.431-.375-1.141-2.702-.431-.35-1.076 2.955.471-.421-1.268-4.368-.695z" fill="#fff" transform="translate(98.4515 66.7021)"/><path d="m0 0-.812 3.202 1.467.236.35-2.174 1.818 2.518 1.703.273-3.122-3.83-.708-2.142-1.405-.223z" fill="#fff" transform="translate(103.7979 64.2188)"/><path d="m0 0 1.054-.733-.937-2.888c-.164-.499-.355-.741-.781-.808-.297-.048-.437.096-.396.394.024.186.107.423.197.657l-1.305-.209c-.106-.31-.187-.63-.219-.874-.151-1.137.714-1.278 1.431-1.164 1.276.204 2.062.902 2.491 2.231l1.247 3.837z" fill="#fff" transform="translate(109.1425 76.5688)"/><path d="m0 0c-.499-1.517-1.072-2.58-3.042-2.894-1.42-.226-2.113.362-1.999 1.228.06.461.179.804.304 1.174l.995 2.96 1.422.225-1.021-3.029c-.088-.268-.209-.566-.248-.859-.054-.405.22-.601.73-.52.978.155 1.227.906 1.54 1.806l.961 2.916 1.42.225z" fill="#fff" transform="translate(116.5887 74.6921)"/><path d="m0 0 1.458.231.803-3.378.014.003 1.153 3.687 1.374.22-1.86-5.654-1.457-.234-.79 3.38-.014-.003-1.167-3.69-1.375-.219z" fill="#fff" transform="translate(118.5045 78.0621)"/><path d="m0 0 1.42.226-1.859-5.656-1.421-.226z" fill="#fff" transform="translate(124.221 78.972)"/><path d="m0 0c1.024.161 1.714 1.472 1.827 2.339.107.812-.124 1.22-.888 1.098-1.099-.177-1.747-1.466-1.867-2.371-.093-.706.172-1.188.928-1.066m1.141 4.616c.946.151 2.381.034 2.122-1.929-.253-1.924-1.576-3.568-3.532-3.881-1.52-.24-2.279.515-2.078 2.043.24 1.816 1.608 3.468 3.488 3.767" fill="#fff" transform="translate(127.7303 75.2082)"/><path d="m0 0 1.131.18c.512.081.976.314 1.053.904.065.466-.315.505-.687.446l-1.046-.168zm-.593 2.276 2.669.426c.994.157 1.717.027 1.563-1.139-.108-.821-.574-1.467-1.446-1.725v-.015c.389-.035.505-.294.435-.824-.051-.398-.115-.709-.158-1.024-.024-.191-.055-.428.008-.568l-1.428-.227c-.007.102-.019.2-.005.308.038.282.116.58.165.948.061.482-.111.702-.616.622l-.946-.15-.674-2.06-1.422-.226z" fill="#fff" transform="translate(133.099 78.0146)"/><path d="m0 0c.122.521-.094.892-.74.789-1.048-.166-1.6-1.495-1.706-2.375-.089-.712.043-1.225.822-1.102.581.094 1.077.582 1.245 1.158l1.38.219c-.473-1.47-1.419-2.35-2.965-2.595-.838-.133-2.113.098-1.858 2.156.222 1.787 1.454 3.444 3.251 3.73 1.329.211 2.147-.299 1.951-1.76z" fill="#fff" transform="translate(68.7386 68.2068)"/><path d="m0 0 1.211.193.046 1.964-.013-.003zm1.011 3.572 1.398.224.179-5.408-1.388-.223-.003.974-1.864-.296-.659-1.081-1.448-.228z" fill="#fff" transform="translate(72.0523 67.2788)"/><path d="m0 0 1.417.226.791-3.43.014.001 1.112 3.733 1.338.214-1.796-5.723-1.418-.225-.775 3.432-.017-.002-1.124-3.736-1.336-.211z" fill="#fff" transform="translate(76.7569 71.4374)"/><path d="m0 0 1.211.193.046 1.963-.013-.002zm1.012 3.572 1.395.223.182-5.41-1.39-.219-.001.972-1.866-.297-.657-1.076-1.447-.232z" fill="#fff" transform="translate(82.7867 68.9853)"/><path d="m0 0 .913.145c1.196.19 1.683 1.365 1.773 2.086.113.902-.257 1.157-.895 1.055l-.796-.128zm.021 4.222 1.991.316c1.358.218 2.281-.26 2.069-1.971-.214-1.723-1.398-3.36-3.5-3.694l-2.369-.376 1.809 5.725z" fill="#fff" transform="translate(87.5441 68.9343)"/><path d="m0 0 1.38.221-1.793-5.726-1.382-.218z" fill="#fff" transform="translate(93.1897 74.0508)"/><path d="m0 0 1.21.194.047 1.962-.014-.001zm1.01 3.573 1.396.221.18-5.408-1.388-.22-.002.973-1.865-.295-.657-1.08-1.45-.231z" fill="#fff" transform="translate(95.9968 71.0844)"/><path d="m0 0 1.418.225.79-3.43.017.003 1.111 3.732 1.336.212-1.796-5.723-1.418-.224-.775 3.432-.015-.003-1.126-3.734-1.337-.213z" fill="#fff" transform="translate(100.6993 75.2438)"/><g fill="#b3cce3"><path d="m0 0c-.756-.12-1.021.363-.929 1.069.024.184.07.383.138.585l-1.438-.229c-.051-.189-.091-.38-.117-.574-.201-1.526.558-2.284 2.078-2.042 1.816.29 3.084 1.728 3.459 3.475l-1.42-.226c-.205-.843-.853-1.91-1.771-2.058" transform="translate(82.3127 59.8049)"/><path d="m0 0 1.422.227.763 2.329 1.892.302-.763-2.329 1.422.226.977 2.971-4.734-.749z" transform="translate(73.6686 57.3924)"/><path d="m0 0c-.171-.566-.684-1.054-1.28-1.15-.8-.128-.937.378-.843 1.081.023.178.068.376.129.578l-1.44-.227c-.042-.173-.078-.346-.101-.522-.268-2.034 1.038-2.253 1.902-2.116 1.588.254 2.564 1.13 3.054 2.582z" transform="translate(89.4785 61.8929)"/><path d="m0 0 4.368.695.421 1.268-2.955-.47.35 1.076 2.703.431.199.605-4.119-.653z" transform="translate(96.6013 61.0467)"/><path d="m0 0-.981-2.96 1.421.224.57 1.721.825.755.82-2.122 1.618.258-1.061 2.632z" transform="translate(91.9242 63.1053)"/><path d="m0 0-.709-2.14 1.405.223.708 2.142.717.878-2.308-.366z" transform="translate(103.7979 64.2188)"/><path d="m0 0 .186.567-4.12-.652-.955-2.917 4.367.696.424 1.269-2.955-.47.349 1.076z" transform="translate(140.7937 70.3085)"/><path d="m0 0 1 .159c-.299-.684-.696-.974-1.37-1.08-.733-.117-1.048.263-.947 1.037.025.182.066.375.125.568l-1.416-.223c-.078-.273-.118-.484-.129-.573-.242-1.841.807-2.206 1.847-2.042.879.143 1.279.414 1.669.92l.015.002-.103-.556.91.145.97 2.924-2.266-.359z" transform="translate(127.6973 67.8978)"/><path d="m0 0-1.243-.197.517.862-1.35-.213-2.025-3.102 1.488.237.682 1.069 1.916.306v-.961l1.427.227-.087 2.761-1.302-.207z" transform="translate(122.5096 67.1698)"/><path d="m0 0 .551 1.672-1.417-.223-.967-2.944 3.963.632.421 1.27z" transform="translate(111.0134 64.5437)"/><path d="m0 0-1.423-.225-.058-.178c-.312-.897-.561-1.65-1.538-1.806-.513-.082-.784.115-.731.522.038.29.159.588.246.857l.097.292-1.418-.226-.073-.22c-.123-.373-.247-.716-.307-1.175-.113-.865.581-1.455 2.001-1.23 1.968.316 2.541 1.375 3.041 2.895z" transform="translate(135.9511 70.0786)"/><path d="m0 0 .352 1.078 2.702.431.193.588-4.12-.652-.962-2.937 4.368.695.421 1.27z" transform="translate(115.5416 65.2633)"/><path d="m0 0-.016-.004-.227.987-1.156-.183.632-2.803 1.419.224.958 3.055-1.291-.205z" transform="translate(102.9238 72.0423)"/><path d="m0 0-1.423-.226-.082-.248c-.313-.9-.562-1.651-1.54-1.806-.51-.081-.784.115-.73.52.039.292.16.59.248.858l.121.361-1.42-.224-.097-.293c-.125-.369-.244-.712-.304-1.173-.114-.866.579-1.455 1.999-1.228 1.97.314 2.543 1.376 3.042 2.894z" transform="translate(116.7747 75.2574)"/><path d="m0 0c-.164-.499-.355-.74-.781-.808-.297-.047-.437.096-.396.395.024.186.107.423.197.656l-1.305-.208c-.106-.311-.187-.63-.219-.875-.151-1.137.714-1.278 1.431-1.164 1.276.204 2.062.902 2.491 2.231l.383 1.177-1.419-.225z" transform="translate(109.2594 72.9474)"/><path d="m0 0-.32-1.024-.014-.003-.223.938-1.189-.188.636-2.728 1.458.234.981 2.981z" transform="translate(121.099 75.9424)"/><path d="m0 0-4.503-.714-.975-2.972 1.422.226.674 2.06.946.15c.506.08.678-.14.616-.622-.049-.369-.127-.667-.164-.948-.015-.108-.003-.206.005-.308l1.427.227c-.063.139-.031.377-.008.568.043.315.108.626.159 1.024.069.53-.047.789-.436.824v.015c.342.1.618.264.837.47" transform="translate(136.1287 78.3227)"/><path d="m0 0c-.204-.846-.852-1.92-1.774-2.065-.755-.122-1.021.361-.927 1.066.025.186.074.388.14.594l-1.439-.228c-.053-.193-.093-.386-.121-.583-.201-1.527.559-2.283 2.078-2.042 1.821.291 3.091 1.733 3.462 3.484z" transform="translate(129.504 77.273)"/><path d="m0 0-.02-.898-1.212-.192.569.984-1.309-.207-2.033-3.243 1.448.228.659 1.081 1.863.296.003-.974 1.389.222-.097 2.903z" transform="translate(73.2839 68.369)"/><path d="m0 0c-.168-.576-.663-1.065-1.244-1.158-.78-.123-.912.39-.823 1.102.024.203.075.432.148.664l-1.408-.223c-.051-.198-.09-.4-.115-.605-.255-2.058 1.019-2.289 1.858-2.156 1.545.245 2.492 1.124 2.965 2.594z" transform="translate(68.3591 66.677)"/><path d="m0 0-.323-1.087-.014-.001-.23.999-1.156-.184.636-2.816 1.418.225.962 3.068z" transform="translate(79.3017 69.3216)"/><path d="m0 0c-.124-.726-.622-1.789-1.755-1.97l-.913-.145.561 1.783-1.381-.219-.968-3.066 2.37.375c2.007.322 3.175 1.825 3.464 3.461z" transform="translate(90.2117 71.0492)"/><path d="m0 0-.021-.884-1.21-.194.558.97-1.309-.207-2.025-3.229 1.451.23.656 1.08 1.865.295.002-.973 1.388.22-.095 2.89z" transform="translate(97.2276 72.1623)"/><path d="m0 0-1.211-.193.565.979-1.309-.209-2.028-3.237 1.447.231.657 1.077 1.866.297.001-.973 1.39.22-.097 2.899-1.26-.2z" transform="translate(83.9977 69.1788)"/><path d="m0 0 1.375.219.941 2.98-1.334-.212z" transform="translate(116.6437 72.4049)"/><path d="m0 0 1.421.226.979 2.981-1.42-.225z" transform="translate(122.3611 73.3158)"/><path d="m0 0 1.337.213.92 3.05-1.298-.205z" transform="translate(98.9044 69.5212)"/><path d="m0 0-.96-3.062 1.382.218.958 3.062z" transform="translate(92.3547 71.3899)"/><path d="m0 0 1.337.211.921 3.064-1.296-.205z" transform="translate(74.9624 65.7161)"/></g></g></svg>