<?xml version="1.0" encoding="UTF-8" standalone="no"?>
<!-- Created with Inkscape (http://www.inkscape.org/) -->
<svg xmlns:dc="http://purl.org/dc/elements/1.1/" xmlns:cc="http://creativecommons.org/ns#" xmlns:rdf="http://www.w3.org/1999/02/22-rdf-syntax-ns#" xmlns:svg="http://www.w3.org/2000/svg" xmlns="http://www.w3.org/2000/svg" xmlns:sodipodi="http://sodipodi.sourceforge.net/DTD/sodipodi-0.dtd" xmlns:inkscape="http://www.inkscape.org/namespaces/inkscape" width="645" height="314" id="svg2982" version="1.1" inkscape:version="0.48.5 r10040" sodipodi:docname="CCCP logo.svg">
  <defs id="defs2984"/>
  <sodipodi:namedview id="base" pagecolor="#ffffff" bordercolor="#666666" borderopacity="1.0" inkscape:pageopacity="0.0" inkscape:pageshadow="2" inkscape:zoom="1.7254016" inkscape:cx="435.25441" inkscape:cy="271.38867" inkscape:document-units="px" inkscape:current-layer="layer1" showgrid="false" inkscape:window-width="1920" inkscape:window-height="1137" inkscape:window-x="-4" inkscape:window-y="-4" inkscape:window-maximized="1"/>
  <metadata id="metadata2987">
    <rdf:RDF>
      <cc:Work rdf:about="">
        <dc:format>image/svg+xml</dc:format>
        <dc:type rdf:resource="http://purl.org/dc/dcmitype/StillImage"/>
        <dc:title/>
      </cc:Work>
    </rdf:RDF>
  </metadata>
  <g id="layer1" inkscape:label="Layer 1" inkscape:groupmode="layer" transform="translate(0,-766)">
    <g id="g3036" transform="translate(-32.4519,-52.6876)">
      <path style="fill:#fcf7f7" d="m 282.4519,1091.6842 c -20.82451,-0.7803 -24.28226,-1.9137 -33.72909,-11.0557 -8.36964,-8.0997 -12.60999,-17.088 -14.15975,-30.0148 -0.97767,-8.1549 -2.34218,-91.88325 -2.12318,-130.2818 0.0814,-14.26551 0.4897,-19.98631 1.6774,-23.5 5.42908,-16.06134 12.97001,-23.10797 31.81448,-29.72908 5.47164,-1.92249 9.79327,-2.57602 20,-3.02444 11.56042,-0.50789 13.68234,-0.33764 18.92669,1.51861 3.2486,1.14985 6.6236,2.09099 7.5,2.09142 3.81388,0.002 13.85896,5.92552 17.98798,10.60761 11.87657,13.46739 16.0024,31.48611 12.90864,56.37577 l -1.30317,10.48417 -4,0.7082 c -6.12632,1.08467 -32.39016,0.95261 -34.4942,-0.17344 -2.42904,-1.29998 -3.81654,-8.77223 -3.87129,-20.84848 -0.0645,-14.22556 -2.50569,-19.24971 -9.44894,-19.44653 -4.2328,-0.11998 -8.12772,2.31247 -10.23839,6.39406 -2.26291,4.37598 -3.73224,20.56999 -2.98491,32.89785 0.35009,5.775 0.85772,24.45 1.12806,41.5 0.74734,47.13298 0.87469,49.60618 2.73891,53.18928 2.2393,4.304 5.36902,6.3107 9.84237,6.3107 3.09876,0 4.18604,-0.6023 6.45356,-3.5752 2.57226,-3.3724 2.79777,-4.5432 3.97519,-20.6386 0.83593,-11.427 1.68835,-17.5035 2.58062,-18.3957 1.77431,-1.7743 37.14018,-2.4687 38.84652,-0.7627 2.9063,2.9056 3.64471,15.9222 2.47493,43.6275 -0.59172,14.0144 -1.81074,20.0792 -4.79047,23.8331 -1.21658,1.5327 -3.02273,3.9428 -4.01366,5.3558 -2.36019,3.3655 -11.70245,10.2278 -17.28712,12.6981 -3.68437,1.6298 -19.21616,5.2987 -19.74915,4.6651 -0.0891,-0.1059 -7.58703,-0.4708 -16.66203,-0.8108 z m 142.08616,-1.089 c -4.62761,-0.441 -12.37449,-2.0167 -17.21528,-3.5016 -7.18283,-2.2034 -9.80852,-3.5975 -14.27759,-7.5807 -3.01189,-2.6845 -5.75849,-5.8808 -6.10357,-7.1031 -0.34509,-1.2222 -1.67011,-4.2472 -2.9445,-6.7222 -4.3282,-8.4058 -4.74873,-14.2392 -4.60186,-63.8354 0.038,-12.83447 -0.14364,-23.67962 -0.40365,-24.10033 -0.47121,-0.76244 -0.53587,-47.61341 -0.0801,-58.06425 0.47908,-10.98606 2.91063,-25.616 5.09,-30.62504 4.76694,-10.95628 15.51386,-18.39156 32.95043,-22.79683 8.83862,-2.23304 23.59664,-2.30365 29.95966,-0.14335 2.53563,0.86087 5.69904,1.56522 7.0298,1.56522 3.69366,0 14.76223,4.31132 20.46717,7.97217 5.76487,3.69931 11.68285,12.63482 14.589,22.02783 1.93919,6.2677 3.10394,33.55561 1.7459,40.90323 -0.7159,3.87333 -1.23371,4.53864 -4.30269,5.5284 -4.67085,1.50637 -36.48182,1.46569 -38.00169,-0.0486 -0.65528,-0.65287 -1.26276,-5.93581 -1.46205,-12.71477 -0.42009,-14.28939 -2.34842,-20.95701 -6.88193,-23.79574 -3.68696,-2.30864 -9.03616,-1.92547 -11.80292,0.84548 -1.10434,1.10601 -2.19776,4.62707 -2.8824,9.282 -1.2615,8.57694 -1.42555,45.9693 -0.3466,79 0.40423,12.37498 0.69342,23.62498 0.64265,24.99998 -0.57127,15.4713 0.34804,20.6927 4.43923,25.2134 2.32637,2.5706 6.89269,2.2043 10.93254,-0.877 5.81372,-4.4344 6.47513,-6.7588 7.02461,-24.6869 0.44958,-14.6687 0.68185,-16.3099 2.53313,-17.8995 1.78137,-1.5295 4.35812,-1.75 20.45212,-1.75 l 18.41397,0 0.93243,2.4525 c 0.51925,1.3657 0.77369,12.7762 0.5742,25.75 -0.43354,28.1946 -1.89103,37.8428 -6.6023,43.7054 -4.81666,5.9936 -10.33091,9.97 -19.28264,13.9046 -7.78212,3.4206 -8.74257,3.5989 -20.17119,3.7442 -6.6,0.084 -15.78623,-0.2082 -20.41384,-0.6491 z m -283.16949,-0.3125 c -0.22917,-0.2227 -5.59167,-0.6266 -11.91667,-0.8976 -12.49513,-0.5353 -17.51588,-1.8923 -24.31818,-6.5724 -16.980705,-11.683 -21.70714,-29.2429 -21.619802,-80.3231 0.02661,-15.56611 -0.245532,-37.92279 -0.60477,-49.68155 -0.415706,-13.60709 -0.25904,-24.14995 0.430938,-29 0.596255,-4.19124 1.553856,-12.57043 2.128002,-18.62043 1.833956,-19.32511 8.499269,-28.18623 25.938542,-34.48365 11.7887,-4.25697 19.3551,-5.1152 35.04527,-3.97506 15.68788,1.13998 20.1925,1.94058 25,4.44319 7.8062,4.06362 11.17414,7.07453 15.5314,13.88498 7.00109,10.94277 7.85005,14.94888 7.91386,37.34451 0.0489,17.14943 -0.13696,19.40588 -1.72935,21 -1.55512,1.55681 -4.05976,1.82217 -19.51567,2.06762 -13.23419,0.21017 -18.16206,-0.0435 -19.42882,-1 -1.76119,-1.32988 -2.4917,-6.47215 -3.23792,-22.79256 -0.57879,-12.65845 -4.75474,-17.55237 -13.15969,-15.42223 -9.11353,2.30972 -9.75926,7.16066 -8.77662,65.9332 0.423,25.3 0.65456,48.24998 0.51459,50.99998 -0.13997,2.75 0.0448,8.3026 0.41053,12.3391 0.84078,9.2787 3.84187,13.3609 9.8224,13.3609 8.07326,0 10.24039,-4.9409 12.22906,-27.8818 1.09881,-12.6757 1.96993,-18.2511 3.01835,-19.3182 1.15578,-1.1763 4.85462,-1.5697 17.14312,-1.82332 20.29347,-0.41876 21.98248,-0.0922 23.96491,4.63292 1.96795,4.6906 2.18089,45.6295 0.28483,54.7628 -2.71084,13.058 -14.76133,24.4083 -29.98498,28.2426 -6.67491,1.6812 -24.21385,3.6251 -25.08333,2.7801 z m 383.81616,-0.372 c -2.74564,-0.2521 -4.23706,-1.063 -5.5,-2.9905 -1.61241,-2.4609 -1.74164,-9.5972 -1.85966,-102.68862 -0.088,-69.39983 0.20917,-101.53603 0.9701,-104.91512 0.67136,-2.9813 1.91295,-5.40584 3.20022,-6.24929 1.60091,-1.04896 8.62545,-1.50674 29.40961,-1.91661 43.78696,-0.86348 55.47498,1.71792 67.8162,14.97778 6.33243,6.80379 11.19921,18.59942 12.19592,29.55928 1.09183,12.00568 0.0656,55.60252 -1.48912,63.25948 -2.2346,11.00565 -5.80431,17.74426 -12.29007,23.2002 -3.12732,2.6307 -8.10562,5.854 -11.0629,7.1628 -5.1674,2.287 -14.88843,4.2573 -20.12313,4.0787 -1.375,-0.047 -6.20213,0 -10.72695,0.1068 -11.98033,0.2797 -11.50807,-0.9874 -11.93047,32.0075 -0.18788,14.6765 -0.31745,29.5158 -0.28792,32.9761 0.0769,9.0106 -0.41964,10.0004 -5.355,10.6749 -5.1795,0.7077 -27.83472,1.2277 -32.96683,0.7566 z m 53.06683,-118.62807 c 3.55537,-1.84985 6.56896,-5.31656 8.19283,-9.4247 2.03559,-5.1497 0.62573,-39.41304 -1.79439,-43.60855 -2.30723,-3.9998 -7.53825,-6.55827 -13.41292,-6.56021 -3.8649,-10e-4 -4.93308,0.40404 -5.92562,2.24845 -0.86331,1.60427 -1.20576,9.96949 -1.19322,29.14786 0.0163,25.00082 0.14801,26.99322 1.86676,28.25 2.40508,1.75864 8.8382,1.73093 12.26656,-0.0529 z" id="path3040" inkscape:connector-curvature="0"/>
      <path style="fill:#ce1b15" d="m 32.4519,975.68762 0,-157 322.5,0 322.5,0 0,157 0,156.99998 -322.5,0 -322.5,0 z m 274.4065,115.54928 c 4.17035,-0.798 9.57245,-2.3311 12.00468,-3.407 5.58467,-2.4703 14.92693,-9.3326 17.28712,-12.6981 0.99093,-1.413 2.79708,-3.8231 4.01366,-5.3558 2.97973,-3.7539 4.19875,-9.8187 4.79047,-23.8331 1.16978,-27.7053 0.43137,-40.7219 -2.47493,-43.6275 -1.70634,-1.706 -37.07221,-1.0116 -38.84652,0.7627 -0.89227,0.8922 -1.74469,6.9687 -2.58062,18.3957 -1.17742,16.0954 -1.40293,17.2662 -3.97519,20.6386 -2.26752,2.9729 -3.3548,3.5752 -6.45356,3.5752 -4.47335,0 -7.60307,-2.0067 -9.84237,-6.3107 -1.86422,-3.5831 -1.99157,-6.0563 -2.73891,-53.18928 -0.27034,-17.05 -0.77797,-35.725 -1.12806,-41.5 -0.74733,-12.32786 0.722,-28.52187 2.98491,-32.89785 2.11067,-4.08159 6.00559,-6.51404 10.23839,-6.39406 6.94325,0.19682 9.38446,5.22097 9.44894,19.44653 0.0548,12.07625 1.44225,19.5485 3.87129,20.84848 2.10404,1.12605 28.36788,1.25811 34.4942,0.17344 l 4,-0.7082 1.30317,-10.48417 c 3.09376,-24.88966 -1.03207,-42.90838 -12.90864,-56.37577 -4.12902,-4.68209 -14.89129,-10.24713 -17.8343,-11.01743 -0.84784,-0.22192 -3.68789,-1.09525 -7.34631,-1.93774 -5.42128,-1.24844 -7.67364,-1.77036 -19.23406,-1.26247 -10.20673,0.44842 -14.52836,1.10195 -20,3.02444 -18.84447,6.62111 -26.3854,13.66774 -31.81448,29.72908 -1.1877,3.51369 -1.59604,9.23449 -1.6774,23.5 -0.219,38.39855 1.14551,122.1269 2.12318,130.2818 1.54976,12.9268 5.79011,21.9151 14.15975,30.0148 9.44683,9.142 12.90458,10.2754 33.72909,11.0557 9.075,0.34 16.57291,0.7049 16.66203,0.8108 0.0891,0.106 3.57413,-0.4602 7.74447,-1.2581 z m 158.26469,-3.7368 c 8.95173,-3.9346 14.46598,-7.911 19.28264,-13.9046 4.71127,-5.8626 6.16876,-15.5108 6.6023,-43.7054 0.19949,-12.9738 -0.055,-24.3843 -0.5742,-25.75 l -0.93243,-2.4525 -18.41397,0 c -16.094,0 -18.67075,0.2205 -20.45212,1.75 -1.85128,1.5896 -2.08355,3.2308 -2.53313,17.8995 -0.54948,17.9281 -1.21089,20.2525 -7.02461,24.6869 -4.03985,3.0813 -8.60617,3.4476 -10.93254,0.877 -4.09119,-4.5207 -5.0105,-9.7421 -4.43923,-25.2134 0.0508,-1.375 -0.23842,-12.625 -0.64265,-24.99998 -1.07895,-33.0307 -0.9149,-70.42306 0.3466,-79 0.68464,-4.65493 1.77806,-8.17599 2.8824,-9.282 2.76676,-2.77095 8.11596,-3.15413 11.80292,-0.84548 4.53351,2.83873 6.46184,9.50635 6.88193,23.79574 0.19929,6.77896 0.80677,12.0619 1.46205,12.71477 1.51987,1.51429 33.33084,1.55497 38.00169,0.0486 3.06898,-0.98976 3.58679,-1.65507 4.30269,-5.5284 1.35804,-7.34762 0.19329,-34.63553 -1.7459,-40.90323 -2.90615,-9.39301 -9.26982,-17.71216 -14.589,-22.02783 -4.69068,-3.80574 -16.30261,-7.82728 -19.85137,-8.37063 -1.31543,-0.2014 -4.74774,-0.74057 -7.6456,-1.16676 -6.64823,-0.97775 -21.12104,-2.08969 -29.95966,0.14335 -17.43657,4.40527 -28.18349,11.84055 -32.95043,22.79683 -2.17937,5.00904 -4.61092,19.63898 -5.09,30.62504 -0.45573,10.45084 -0.39107,57.30181 0.0801,58.06425 0.26001,0.42071 0.44165,11.26586 0.40365,24.10033 -0.14687,49.5962 0.27366,55.4296 4.60186,63.8354 1.27439,2.475 2.59941,5.5 2.9445,6.7222 0.34508,1.2223 3.09168,4.4186 6.10357,7.1031 9.42346,8.399 25.64555,12.0653 51.90671,11.7314 11.42862,-0.1453 12.38907,-0.3236 20.17119,-3.7442 z m -312.17119,2.1589 c 20.91346,-2.3772 31.09347,-7.7391 39.91673,-21.0244 3.81677,-5.747 4.77448,-13.2866 4.80428,-37.8216 0.0319,-26.3063 -0.65067,-29.5526 -6.4428,-30.6392 -1.85548,-0.34806 -10.42482,-0.48736 -19.04297,-0.30952 -12.2885,0.25362 -15.98734,0.64702 -17.14312,1.82332 -1.04842,1.0671 -1.91954,6.6425 -3.01835,19.3182 -1.98867,22.9409 -4.1558,27.8818 -12.22906,27.8818 -5.98053,0 -8.98162,-4.0822 -9.8224,-13.3609 -0.36577,-4.0365 -0.5505,-9.5891 -0.41053,-12.3391 0.13997,-2.75 -0.0916,-25.69998 -0.51459,-50.99998 -0.98264,-58.77254 -0.33691,-63.62348 8.77662,-65.9332 8.40495,-2.13014 12.5809,2.76378 13.15969,15.42223 0.74622,16.32041 1.47673,21.46268 3.23792,22.79256 1.26676,0.95653 6.19463,1.21017 19.42882,1 15.45591,-0.24545 17.96055,-0.51081 19.51567,-2.06762 1.59239,-1.59412 1.77821,-3.85057 1.72935,-21 -0.0638,-22.39563 -0.91277,-26.40174 -7.91386,-37.34451 -4.35726,-6.81045 -7.7252,-9.82136 -15.5314,-13.88498 -4.8075,-2.50261 -9.31212,-3.30321 -25,-4.44319 -15.69017,-1.14014 -23.25657,-0.28191 -35.04527,3.97506 -17.439273,6.29742 -24.104586,15.15854 -25.938542,34.48365 -0.574146,6.05 -1.531747,14.42919 -2.128002,18.62043 -0.689978,4.85005 -0.846644,15.39291 -0.430938,29 0.359238,11.75876 0.631385,34.11544 0.60477,49.68155 -0.08734,51.0802 4.639097,68.6401 21.619802,80.3231 6.8023,4.6801 11.82305,6.0371 24.31818,6.5724 6.325,0.271 11.6875,0.6749 11.91667,0.8976 0.58898,0.5724 1.48485,0.5242 11.58333,-0.6237 z m 405.19966,-0.5049 c 4.93536,-0.6745 5.4319,-1.6643 5.355,-10.6749 -0.0295,-3.4603 0.10004,-18.2996 0.28792,-32.9761 0.4224,-32.9949 -0.0499,-31.7278 11.93047,-32.0075 4.52482,-0.1057 9.35195,-0.1537 10.72695,-0.1068 15.98956,0.5455 33.87877,-9.3548 39.48785,-21.85346 1.43869,-3.20582 3.2334,-8.87053 3.98825,-12.58824 1.55468,-7.65696 2.58095,-51.2538 1.48912,-63.25948 -0.99671,-10.95986 -5.86349,-22.75549 -12.19592,-29.55928 -12.34122,-13.25986 -24.02924,-15.84126 -67.8162,-14.97778 -20.78416,0.40987 -27.8087,0.86765 -29.40961,1.91661 -1.28727,0.84345 -2.52886,3.26799 -3.20022,6.24929 -0.76093,3.37909 -1.05808,35.51529 -0.9701,104.91512 0.11802,93.09142 0.24725,100.22772 1.85966,102.68862 1.26294,1.9275 2.75436,2.7384 5.5,2.9905 5.13211,0.4711 27.78733,-0.049 32.96683,-0.7566 z M 565.985,971.33548 c -1.71875,-1.25678 -1.85041,-3.24918 -1.86676,-28.25 -0.0125,-19.17837 0.32991,-27.54359 1.19322,-29.14786 2.62367,-4.87548 15.72386,-1.95464 19.33854,4.31176 1.43342,2.48498 1.89276,6.56725 2.43834,21.67031 0.71592,19.81845 0.28694,22.74447 -4.04828,27.61294 -4.38078,4.91964 -12.92295,6.82433 -17.05506,3.80285 z" id="path3038" inkscape:connector-curvature="0" sodipodi:nodetypes="cccccccccccsssccssssssssssscssssssssssscccssccscscscssssssssssssssscsscssccssscscssssssssssssssssssssscscsscssssssssssccsssssss"/>
    </g>
  </g>
</svg>