<?xml version="1.0" encoding="UTF-8"?>
<!-- Generator: Adobe Illustrator 16.0.0, SVG Export Plug-In . SVG Version: 6.00 Build 0)  -->
<!DOCTYPE svg PUBLIC "-//W3C//DTD SVG 1.1//EN" "http://www.w3.org/Graphics/SVG/1.1/DTD/svg11.dtd">
<svg version="1.1" id="Layer_1" xmlns="http://www.w3.org/2000/svg" xmlns:xlink="http://www.w3.org/1999/xlink" x="0px" y="0px" width="165.739px" height="129.045px" viewBox="0 0 165.739 129.045" enable-background="new 0 0 165.739 129.045" xml:space="preserve">
<path fill="#FFFFFF" d="M16.843,103.304L0,82.987l13.327-5.34L7.493,46.092l28.236,9.273l6.294-16.479l9.441,8.098l-0.158-26.309  L70.395,32.16L92.006,0l11.336,31.777l24.461-12.143l-8.064,25.354l10.497-7.076l0.825,17.016l34.679-9.613l-18.536,33.446  l11.806,5.541l-19.885,16.181l-6.169,8.501h18.282c-4.937,6.688-9.883,13.38-14.823,20.062H8.079v-12.367  C11.005,112.222,13.921,107.76,16.843,103.304"/>
<polygon fill-rule="evenodd" clip-rule="evenodd" fill="#D0D3D4" points="14.42,117.206 19.15,109.502 28.539,109.502   30.285,112.438 45.156,112.438 47.742,109.502 61.006,109.502 60.306,113.277 78.041,113.277 81.111,109.502 125.317,109.502   122.53,113.68 137.844,113.771 132.739,120.641 93.019,120.731 91.258,118.041 89.771,118.041 87.453,120.267 14.42,120.545 "/>
<polygon fill-rule="evenodd" clip-rule="evenodd" fill="#1F191A" points="131.209,103.975 19.692,103.154 3.771,83.946   15.922,79.077 10.448,49.474 37.092,58.229 43.002,42.743 53.786,51.992 53.618,24.739 71.075,35.25 91.373,5.042 102.047,34.972   123.989,24.087 115.561,50.572 128.144,42.086 128.911,57.897 161.086,48.979 144.013,79.787 154.734,84.819 "/>
<path fill="#FFFFFF" d="M90.087,15.423l0.038,0.077l9.221,26.011c0.916,0.273,14.775-8.333,17.106-9.273  c-3.271,10.438-11.771,35.087-12.376,35.049c0.628,0.269,15.83-14.258,19.706-16.733c0.049,1.219-0.613,8.482,0.346,11.6  c0.6,1.958,1.838,1.766,3.771,1.367c7.388-1.516,15.429-4.298,22.696-6.528l-5.896,10.089l-7.378,15.523l8.64,3.377l-13.532,10.415  l-2.063,1.588l-2.326,11.519H18.253l5.028-11.27l-1.785-1.727c-3.31-3.219-6.313-6.414-9.863-10.598l10.194-3.904  c-1.199-8.534-2.466-16.997-5.061-25.387l10.07,3.382c0.028,0.01,6.428,2.514,9.906,3.214c1.789,0.359,2.634,0.394,3.761-1.54  c1.886-3.233,4.217-9.992,4.639-11.12c3.08,2.476,13.663,16.689,14.373,16.412c-0.614,0.048-1.248-24.289-1.176-34.728  c2.029,0.94,13.125,9.547,14.133,9.273L90.029,15.5L90.087,15.423z"/>
<path fill="#1F191A" d="M126.594,62.704L126.594,62.704z"/>
<path fill="#FF1C22" d="M30.073,96.486c-5.771-5.21-9.719-7.949-9.618-8.577c0.11-0.7,5.762-0.522,6.386-4.395  c0.613-3.866-2.375-18.287-2.375-18.287s10.606,3.517,13.634,3.517c3.032-0.005,8.582-5.104,9.229-9.148  c0,0,11.859,17.05,15.083,15.821c3.229-1.232,0.048-34.641,0.048-34.641s7.618,6.855,10.789,5.978  c2.83-0.787,12.405-16.406,14.435-19.765c0.067-0.105,0.12-0.196,0.168-0.278c0.216-0.355,0.341-0.509,0.609-0.825  c0.077,0.211,0.235,0.47,0.235,0.47s5.401,19.516,8.294,20.389c2.888,0.878,12.698-5.978,12.698-5.978S95.819,74.175,98.655,75.407  c2.83,1.229,20.144-15.831,20.144-15.831c-0.648,4.05,3.271,9.14,6.303,9.14c3.032,0,14.767-3.521,14.767-3.521  s-7.608,14.425-8.228,18.297c-0.619,3.866,5.095,3.688,4.979,4.39c-0.101,0.628-4.941,3.377-12.4,8.605H30.073z"/>
<path fill="#D4191F" d="M24.461,65.228c0,0,10.616,3.517,13.644,3.517c3.027-0.005,8.577-5.104,9.229-9.148  c0,0,4.673,6.73,8.957,11.428c0.158,0.187,0.321,0.354,0.489,0.527c0.196,0.211,0.393,0.422,0.595,0.623  c0.168,0.178,0.341,0.355,0.513,0.528c0.394,0.379,0.797,0.753,1.195,1.108c0.264,0.239,0.556,0.465,0.82,0.666  c0.182,0.13,0.364,0.264,0.547,0.375c0.148,0.101,0.297,0.191,0.45,0.273c0.058,0.028,0.115,0.062,0.178,0.091  c0.077,0.033,0.158,0.071,0.235,0.105c0.086,0.033,0.182,0.062,0.273,0.091c0.139,0.039,0.278,0.058,0.417,0.067  c0.101,0.01,0.202-0.01,0.298-0.028L77.23,96.012l11.24-70.131c0.144,0.163,0.229,0.475,0.229,0.475s5.397,19.516,8.285,20.389  c2.893,0.878,12.703-5.978,12.703-5.978S95.824,74.175,98.65,75.407c0.014,0.005,0.023,0.005,0.043,0.01L81.601,96.486H55.13  L24.461,65.228z M99.212,96.486l40.661-31.292c0,0-7.608,14.425-8.232,18.297c-0.619,3.866,5.09,3.688,4.979,4.39  c-0.101,0.628-4.937,3.377-12.4,8.605H99.212z"/>
<path fill="#1F191A" d="M65.165,111.314l0.438-0.676h7.09l0.269,0.652L65.165,111.314z M75.58,115.225l-3.151,4.365H47.593v-2.183  l10.535-16.075l-1.478-2.016h25.579l1.545,2.149l-4.164,5.436h-1.68l-1.41-3.421H62.695l-7.657,11.812L75.58,115.225z   M82.162,119.59h-4.365v-1.881l12.822-16.713l-1.142-1.68h8.323l-6.979,8.861h13.153l5.575-7.182l-1.339-1.68h8.122l-15.442,20.273  h-4.097v-1.746l4.159-5.642H87.669L82.162,119.59z M135.8,115.225l-3.224,4.365h-21.549v-2.183l11.412-15.874l-1.809-2.217h8.592  l-11.552,15.908H135.8z M44.029,115.225l-3.152,4.365H16.042v-2.183l10.535-16.075l-1.474-2.016h25.574l1.54,2.149l-4.159,5.436  h-1.674l-1.411-3.421H31.139l-7.646,11.812L44.029,115.225z M33.614,111.314l0.441-0.676h7.085l0.265,0.652L33.614,111.314z   M128.455,111.281l5.147-7.096l6.332-8.726H14.099l5.613,7.656l-8.429,12.856l-0.907,1.387v1.66v2.178v5.55h5.55h24.835h1.166h1.674  h3.877h24.657h0.183h2.835h2.533h4.365h2.787l1.665-2.235l3.842-5.147h0.782v0.087v1.746v5.55h5.561h4.092h2.754l1.664-2.183  l0.163-0.221v2.403h5.556h21.544h2.807l1.664-2.254l3.224-4.361l6.539-8.851h-11.01H128.455z"/>
</svg>