<svg xmlns="http://www.w3.org/2000/svg" viewBox="0 0 200 68" width="200" height="68">
	<style>
		tspan { white-space:pre }
		.shp0 { fill: #fefefe } 
		.shp1 { fill: #d12031 } 
		.shp2 { fill: #14315a } 
	</style>
	<g>
		<path class="shp0" d="M29.52 0.09C29.03 0.14 28.6 0.2 28.57 0.22C28.53 0.25 28.39 0.28 28.26 0.3C28.13 0.33 27.76 0.4 27.44 0.47C27.12 0.54 26.61 0.66 26.31 0.74C26.01 0.83 25.74 0.92 25.7 0.96C25.67 0.99 25.6 1.02 25.55 1.02C25.5 1.02 25.18 1.13 24.83 1.27C24.48 1.4 23.92 1.64 23.58 1.8C23.25 1.96 22.71 2.25 22.39 2.43C22.07 2.61 21.71 2.82 21.58 2.89C21.46 2.97 21.13 3.19 20.86 3.39C20.6 3.59 20.1 3.97 19.77 4.24C19.44 4.51 18.78 5.13 18.31 5.61C17.83 6.1 17.22 6.79 16.96 7.14C16.69 7.5 16.3 8.03 16.1 8.33C15.9 8.63 15.68 8.98 15.61 9.11C15.54 9.24 15.32 9.67 15.12 10.06C14.92 10.46 14.7 10.9 14.64 11.05C14.57 11.2 14.43 11.55 14.32 11.83C14.21 12.11 14.04 12.6 13.95 12.92C13.85 13.24 13.73 13.67 13.68 13.87C13.64 14.08 13.5 14.61 13.38 15.06C13.26 15.51 13.11 16.11 13.04 16.39C12.97 16.67 12.76 17.51 12.56 18.26C12.36 19.01 12.15 19.86 12.09 20.16C12.02 20.46 11.95 20.74 11.93 20.77C11.9 20.81 11.82 21.12 11.75 21.45C11.67 21.79 11.56 22.25 11.5 22.47C11.45 22.7 11.34 23.11 11.26 23.39C11.19 23.67 11.08 24.1 11.02 24.34C10.95 24.59 10.85 25.02 10.78 25.3C10.72 25.58 10.56 26.17 10.44 26.62C10.32 27.07 10.18 27.64 10.13 27.88C10.07 28.12 9.98 28.48 9.93 28.66C9.88 28.85 9.78 29.2 9.72 29.44C9.66 29.69 9.55 30.13 9.48 30.43C9.41 30.73 9.31 31.16 9.25 31.38C9.19 31.61 9.08 32.02 9.01 32.3C8.94 32.58 8.81 33.07 8.73 33.39C8.65 33.71 8.55 34.13 8.5 34.34C8.46 34.55 8.4 34.74 8.38 34.78C8.35 34.82 8.27 35.13 8.2 35.46C8.12 35.8 7.97 36.44 7.85 36.89C7.73 37.34 7.58 37.94 7.51 38.22C7.44 38.5 7.34 38.92 7.28 39.17C7.22 39.41 7.12 39.76 7.06 39.95C7.01 40.14 6.92 40.49 6.86 40.73C6.81 40.98 6.64 41.68 6.49 42.3C6.33 42.91 6.13 43.71 6.04 44.06C5.94 44.42 5.82 44.86 5.77 45.05C5.72 45.24 5.65 45.5 5.63 45.63C5.61 45.76 5.51 46.16 5.42 46.51C5.32 46.87 5.19 47.39 5.12 47.67C5.05 47.95 4.94 48.38 4.87 48.62C4.81 48.86 4.71 49.29 4.65 49.57C4.58 49.85 4.51 50.11 4.49 50.15C4.46 50.19 4.4 50.45 4.34 50.73C4.28 51.01 4.19 51.39 4.13 51.58C4.07 51.77 3.9 52.42 3.75 53.04C3.59 53.66 3.41 54.39 3.34 54.67C3.27 54.95 3.02 55.99 2.77 56.98C2.52 57.98 2.28 58.92 2.22 59.09C2.17 59.26 2.09 59.58 2.05 59.81C2 60.03 1.92 60.35 1.87 60.52C1.82 60.69 1.71 61.09 1.63 61.4C1.55 61.72 1.43 62.22 1.36 62.51C1.29 62.8 1.17 63.27 1.1 63.56C1.03 63.85 0.9 64.35 0.82 64.67C0.74 64.99 0.63 65.4 0.58 65.59C0.52 65.77 0.41 66.19 0.33 66.5C0.26 66.82 0.16 67.22 0.12 67.39C0.08 67.56 0.07 67.78 0.09 67.88L0.14 68.07C115.76 68.07 142.02 68.04 142.25 68C142.46 67.97 143.06 67.91 143.58 67.87C144.11 67.83 144.95 67.71 145.46 67.6C145.97 67.49 146.63 67.34 146.93 67.26C147.23 67.18 147.69 67.04 147.95 66.94C148.22 66.85 148.6 66.71 148.81 66.64C149.01 66.56 149.27 66.46 149.39 66.41C149.5 66.35 149.76 66.23 149.97 66.14C150.17 66.05 150.42 65.94 150.51 65.9C150.61 65.86 150.84 65.73 151.02 65.62C151.21 65.51 151.43 65.39 151.52 65.35C151.6 65.31 151.76 65.22 151.86 65.15C151.96 65.08 152.31 64.86 152.63 64.64C152.95 64.43 153.53 64.01 153.92 63.69C154.32 63.38 154.96 62.81 155.36 62.42C155.75 62.03 156.31 61.43 156.59 61.1C156.87 60.76 157.25 60.28 157.42 60.04C157.6 59.8 157.89 59.39 158.07 59.13C158.24 58.86 158.59 58.25 158.85 57.77C159.11 57.28 159.35 56.82 159.38 56.75C159.41 56.67 159.57 56.33 159.72 56C159.88 55.66 160.17 55.06 160.35 54.67C160.54 54.28 160.77 53.81 160.85 53.62C160.94 53.43 161.24 52.8 161.53 52.21C161.81 51.62 162.05 51.12 162.05 51.1C162.05 51.08 162.25 50.65 162.5 50.13C162.75 49.62 163.06 48.95 163.21 48.65C163.35 48.35 163.63 47.76 163.84 47.33C164.04 46.9 164.3 46.35 164.41 46.12L164.61 45.69L170.74 45.73C170.87 46.26 170.99 46.76 171.08 47.19C171.18 47.62 171.3 48.22 171.36 48.52C171.42 48.82 171.55 49.4 171.64 49.81C171.74 50.22 171.87 50.86 171.94 51.24C172.01 51.61 172.08 51.95 172.1 51.99C172.13 52.02 172.19 52.31 172.25 52.63C172.31 52.95 172.4 53.37 172.46 53.57C172.51 53.76 172.61 53.94 172.66 53.96C172.72 53.98 178.84 53.99 186.27 53.99C198.19 53.99 199.8 53.98 199.89 53.89C199.99 53.8 199.99 53.74 199.86 53.26C199.79 52.97 199.66 52.46 199.58 52.12C199.51 51.79 199.42 51.46 199.39 51.41C199.36 51.35 199.31 51.17 199.29 51C199.26 50.83 199.18 50.48 199.11 50.22C199.04 49.96 198.89 49.34 198.77 48.86C198.66 48.37 198.52 47.82 198.46 47.63C198.41 47.45 198.31 47.06 198.25 46.78C198.2 46.5 198.13 46.24 198.11 46.21C198.08 46.17 198.01 45.88 197.95 45.56C197.89 45.24 197.78 44.78 197.72 44.54C197.66 44.3 197.55 43.87 197.47 43.59C197.4 43.31 197.29 42.88 197.23 42.64C197.17 42.39 197.06 41.93 196.99 41.62C196.92 41.3 196.83 40.95 196.79 40.83C196.76 40.72 196.64 40.23 196.52 39.75C196.41 39.26 196.25 38.63 196.18 38.35C196.11 38.07 196 37.64 195.93 37.4C195.87 37.16 195.77 36.71 195.7 36.41C195.63 36.11 195.51 35.61 195.43 35.29C195.35 34.97 195.24 34.55 195.19 34.34C195.13 34.13 195 33.57 194.88 33.08C194.77 32.6 194.63 32.06 194.58 31.89C194.53 31.72 194.45 31.4 194.41 31.18C194.37 30.95 194.29 30.62 194.23 30.43C194.18 30.24 194.04 29.69 193.92 29.21C193.81 28.72 193.66 28.09 193.58 27.81C193.51 27.53 193.4 27.1 193.34 26.86C193.27 26.62 193.17 26.17 193.1 25.87C193.03 25.57 192.85 24.83 192.7 24.21C192.55 23.59 192.36 22.86 192.29 22.58C192.22 22.3 192.11 21.87 192.05 21.62C191.99 21.38 191.88 20.94 191.81 20.64C191.74 20.34 191.64 19.9 191.58 19.65C191.52 19.41 191.41 18.98 191.33 18.7C191.26 18.42 191.11 17.79 190.99 17.31C190.88 16.82 190.74 16.27 190.69 16.08C190.63 15.9 190.55 15.57 190.51 15.37C190.47 15.16 190.39 14.86 190.34 14.69C190.29 14.52 190.16 13.95 190.04 13.43C189.92 12.91 189.78 12.36 189.73 12.21C189.68 12.06 189.6 11.75 189.56 11.53C189.52 11.3 189.44 10.97 189.38 10.78C189.33 10.59 189.19 10.04 189.08 9.55C188.97 9.07 188.81 8.44 188.74 8.16C188.67 7.88 188.54 7.39 188.46 7.07C188.38 6.75 188.27 6.31 188.22 6.09C188.17 5.86 188.07 5.42 187.99 5.1C187.91 4.78 187.8 4.35 187.75 4.15C187.69 3.94 187.58 3.51 187.5 3.2C187.43 2.88 187.3 2.37 187.23 2.07C187.15 1.77 187.03 1.25 186.96 0.92C186.88 0.58 186.8 0.28 186.77 0.25C186.75 0.22 165.58 0.17 139.73 0.14C113.88 0.1 78.71 0.06 61.57 0.04C36.12 0.01 30.25 0.02 29.52 0.09Z"/>
		<path class="shp1" d="M30.89 6.57C30.74 6.59 30.26 6.65 29.83 6.71C29.4 6.77 28.99 6.84 28.92 6.88C28.86 6.91 28.75 6.94 28.67 6.94C28.6 6.94 28.27 7.02 27.94 7.13C27.61 7.24 27.11 7.43 26.83 7.55C26.54 7.67 26.04 7.92 25.7 8.11C25.36 8.29 24.92 8.57 24.71 8.73C24.5 8.88 24.17 9.15 23.96 9.32C23.75 9.49 23.44 9.77 23.27 9.93C23.1 10.1 22.76 10.46 22.52 10.74C22.28 11.02 21.89 11.54 21.65 11.9C21.42 12.25 21.08 12.84 20.91 13.19C20.74 13.55 20.52 14.05 20.43 14.31C20.34 14.58 20.08 15.49 19.85 16.35C19.63 17.21 19.4 18.1 19.35 18.33C19.3 18.55 19.21 18.9 19.16 19.11C19.1 19.31 18.5 21.69 17.81 24.38C17.13 27.07 16.52 29.5 16.45 29.78C16.38 30.06 16.03 31.46 15.66 32.88C15.3 34.3 14.98 35.57 14.95 35.7C14.92 35.83 14.75 36.5 14.57 37.2L14.24 38.45C14.24 40.82 14.25 41.03 14.39 41.48C14.47 41.76 14.62 42.19 14.71 42.43C14.8 42.68 15.02 43.12 15.2 43.42C15.38 43.72 15.71 44.19 15.94 44.47C16.16 44.74 16.58 45.17 16.86 45.41C17.14 45.65 17.62 45.99 17.92 46.16C18.22 46.34 18.73 46.59 19.04 46.71C19.36 46.83 19.89 47 20.2 47.08C20.78 47.22 20.84 47.22 31.88 47.24C37.98 47.25 43.12 47.24 43.31 47.22L43.65 47.18C46.43 43.05 47.52 41.43 47.87 40.9C48.22 40.38 48.67 39.72 48.85 39.44C49.04 39.16 49.43 38.58 49.72 38.15C50.23 37.39 50.24 37.36 50.09 37.32C50 37.3 44.95 37.27 38.86 37.27C31.55 37.27 27.77 37.24 27.75 37.2C27.73 37.16 28.04 35.85 28.43 34.29C28.83 32.73 29.38 30.55 29.66 29.44C29.94 28.34 30.2 27.29 30.24 27.1C30.29 26.91 30.4 26.48 30.49 26.15C30.59 25.81 30.72 25.3 30.79 25.02C30.85 24.74 31.36 22.74 31.91 20.57C32.46 18.4 32.93 16.6 32.96 16.58C32.99 16.55 37.15 16.52 42.2 16.51C51.3 16.49 51.39 16.49 51.5 16.35C51.56 16.28 51.84 15.87 52.13 15.44C52.41 15.01 52.85 14.35 53.1 13.97C53.36 13.6 54.13 12.45 54.82 11.42C55.51 10.39 56.11 9.5 56.14 9.44C56.18 9.38 56.49 8.93 56.83 8.43C57.16 7.94 57.57 7.34 57.73 7.09L58.02 6.63C57.52 6.56 51.47 6.54 44.27 6.55C37.06 6.55 31.04 6.56 30.89 6.57ZM72.46 6.57C72.31 6.59 71.94 6.63 71.64 6.67C71.34 6.7 70.88 6.78 70.61 6.84C70.35 6.9 69.8 7.06 69.39 7.19C68.97 7.32 68.27 7.61 67.83 7.83C67.39 8.05 66.78 8.4 66.47 8.61C66.16 8.82 65.74 9.14 65.53 9.31C65.33 9.48 64.97 9.81 64.74 10.03C64.52 10.25 64.16 10.65 63.95 10.91C63.74 11.18 63.42 11.6 63.25 11.87C63.07 12.13 62.74 12.71 62.52 13.16C62.3 13.61 62.03 14.26 61.91 14.62C61.8 14.98 61.59 15.69 61.46 16.22C61.32 16.74 61.19 17.28 61.16 17.41C61.13 17.54 60.81 18.81 60.45 20.23C60.08 21.65 59.31 24.7 58.73 27C58.15 29.3 57.52 31.77 57.34 32.5C57.16 33.23 56.74 34.89 56.41 36.18L55.8 38.52C55.81 40.65 55.84 40.93 55.96 41.41C56.05 41.73 56.23 42.27 56.37 42.6C56.51 42.94 56.77 43.43 56.95 43.69C57.12 43.95 57.38 44.32 57.52 44.5C57.67 44.69 58.03 45.05 58.33 45.31C58.63 45.57 59.04 45.89 59.25 46.02C59.46 46.15 59.87 46.38 60.17 46.52C60.47 46.66 60.99 46.85 61.33 46.95C61.72 47.06 62.27 47.15 62.83 47.2C63.41 47.24 67.5 47.26 74.41 47.25C83.79 47.23 85.11 47.21 85.22 47.12C85.29 47.07 85.82 46.31 86.41 45.44C86.99 44.57 87.55 43.74 87.65 43.59C87.74 43.44 88.7 42.01 89.78 40.41C90.86 38.81 91.74 37.46 91.74 37.42C91.74 37.37 91.67 37.32 91.59 37.3C91.5 37.28 86.47 37.27 80.39 37.26C74.32 37.26 69.34 37.24 69.32 37.21C69.31 37.18 69.55 36.14 69.87 34.88C70.19 33.63 70.48 32.48 70.51 32.33C70.54 32.18 70.68 31.62 70.81 31.08C70.95 30.53 71.15 29.75 71.26 29.34C71.37 28.93 71.97 26.57 72.6 24.11C73.22 21.64 73.81 19.31 73.9 18.94C73.99 18.56 74.16 17.88 74.29 17.41L74.51 16.56C88.84 16.5 93 16.48 93 16.48C93 16.47 93.48 15.75 94.07 14.88C94.65 14.01 95.17 13.23 95.23 13.15C95.28 13.07 96.06 11.91 96.96 10.58C97.86 9.25 98.68 8.04 98.77 7.89C98.87 7.75 99.07 7.43 99.23 7.2C99.39 6.96 99.52 6.73 99.52 6.68C99.52 6.63 99.45 6.58 99.37 6.56C99.28 6.55 93.26 6.54 85.97 6.54C78.69 6.55 72.61 6.56 72.46 6.57Z"/>
		<path class="shp2" d="M106.5 6.59C106.45 6.62 106.03 8.16 105.56 10.01C105.09 11.85 104.26 15.11 103.72 17.24C103.18 19.37 102.37 22.58 101.91 24.38C101.46 26.17 100.63 29.45 100.07 31.65C99.51 33.86 98.63 37.32 98.12 39.34C97.61 41.36 96.96 43.92 96.69 45.03C96.27 46.69 96.19 47.07 96.26 47.16C96.34 47.25 97.05 47.27 102.7 47.27C108.7 47.27 109.05 47.26 109.19 47.14C109.27 47.08 109.37 46.89 109.41 46.72C109.44 46.55 110.08 44.02 110.82 41.11C111.56 38.19 112.37 35 112.62 34.02L113.07 32.23C123.2 32.23 126.14 32.25 126.14 32.28C126.14 32.31 125.99 32.93 125.81 33.66C125.62 34.39 125.01 36.82 124.44 39.07C123.87 41.31 123.18 44.03 122.91 45.1C122.63 46.23 122.44 47.1 122.47 47.16C122.52 47.25 123.33 47.26 128.92 47.26C134.98 47.26 135.33 47.26 135.44 47.14C135.51 47.07 135.73 46.34 135.97 45.39C136.2 44.49 136.84 42 137.38 39.85C137.93 37.7 138.8 34.26 139.32 32.2C139.84 30.14 140.71 26.68 141.26 24.51C141.81 22.34 142.69 18.87 143.22 16.8C143.74 14.72 144.53 11.61 144.97 9.89C145.42 8.12 145.74 6.71 145.71 6.65C145.67 6.53 145.29 6.53 139.23 6.52C134.05 6.52 132.78 6.54 132.72 6.61C132.67 6.66 132.38 7.68 132.08 8.87C131.78 10.07 131.41 11.54 131.26 12.14C131.11 12.74 130.97 13.29 130.95 13.36C130.93 13.44 130.64 14.57 130.31 15.88C129.98 17.19 129.47 19.19 129.18 20.33C128.9 21.47 128.63 22.47 128.6 22.56L128.53 22.71C116.92 22.71 115.56 22.69 115.54 22.63C115.53 22.58 115.93 20.94 116.42 18.97C116.92 17.01 117.82 13.45 118.42 11.07C119.03 8.68 119.51 6.69 119.49 6.63C119.46 6.54 118.68 6.53 113.02 6.53C109.48 6.53 106.55 6.56 106.5 6.59ZM169.22 6.8C169.13 6.85 169.15 7.04 169.4 8.21C169.56 8.95 169.78 9.98 169.9 10.51C170.01 11.03 170.25 12.12 170.42 12.92C170.59 13.72 170.78 14.64 170.84 14.95C170.91 15.26 170.94 15.52 170.93 15.54C170.91 15.56 168.55 15.57 165.69 15.57C161.27 15.57 160.37 15.59 159.74 15.68C159.34 15.74 158.72 15.88 158.36 15.99C158.01 16.11 157.47 16.31 157.17 16.45C156.87 16.59 156.36 16.87 156.04 17.08C155.72 17.29 155.23 17.66 154.95 17.9C154.67 18.14 154.28 18.52 154.09 18.74C153.9 18.96 153.6 19.34 153.43 19.58C153.26 19.83 153 20.26 152.85 20.54C152.7 20.82 152.37 21.51 152.1 22.07C151.83 22.63 151.39 23.56 151.11 24.14C150.83 24.72 150.45 25.5 150.27 25.87C150.09 26.25 149.79 26.89 149.59 27.3C149.39 27.71 149.06 28.42 148.84 28.87C148.62 29.31 148.29 30 148.11 30.4C147.92 30.79 147.62 31.42 147.44 31.79C147.26 32.16 146.92 32.87 146.69 33.35C146.46 33.84 145.83 35.16 145.29 36.28C144.75 37.4 144.13 38.7 143.91 39.17C143.68 39.64 143.17 40.71 142.76 41.55C142.36 42.39 141.87 43.41 141.67 43.83C141.48 44.24 141.14 44.94 140.92 45.39C140.71 45.84 140.38 46.52 140.2 46.9C140.01 47.29 139.71 47.91 139.53 48.3C139.35 48.68 139.01 49.39 138.77 49.88C138.54 50.36 138.19 51.08 138 51.48C137.71 52.08 137.57 52.28 137.1 52.74C136.77 53.07 136.38 53.38 136.11 53.53C135.87 53.66 135.44 53.83 135.15 53.91L134.64 54.06C22.58 54.05 11.28 54.07 11.22 54.14C11.17 54.19 10.75 55.76 10.28 57.63C9.8 59.5 9.4 61.08 9.39 61.13C9.37 61.19 9.38 61.27 9.4 61.32C9.44 61.38 23.38 61.4 75.99 61.4C135.6 61.4 142.61 61.39 143.33 61.3C143.77 61.24 144.38 61.13 144.68 61.06C144.98 60.98 145.42 60.86 145.67 60.78C145.91 60.7 146.4 60.52 146.76 60.37C147.11 60.22 147.61 59.99 147.85 59.86C148.09 59.72 148.52 59.46 148.81 59.28C149.09 59.09 149.5 58.8 149.73 58.63C149.95 58.46 150.46 57.99 150.86 57.6C151.25 57.2 151.75 56.65 151.96 56.37C152.17 56.09 152.5 55.59 152.71 55.25C152.91 54.91 153.19 54.41 153.32 54.13C153.46 53.85 153.7 53.34 153.86 53.01C154.02 52.67 154.68 51.28 155.32 49.91C155.97 48.55 156.61 47.2 156.74 46.92C156.87 46.64 157.26 45.83 157.59 45.12C157.93 44.41 158.32 43.6 158.45 43.32C158.58 43.04 158.83 42.52 158.99 42.16C159.16 41.8 159.54 41.01 159.83 40.39C160.12 39.77 160.39 39.23 160.43 39.18C160.5 39.11 161.98 39.1 168.29 39.11L176.07 39.13C176.14 39.45 176.24 39.91 176.34 40.36C176.43 40.81 176.61 41.6 176.72 42.13C176.84 42.65 176.98 43.29 177.03 43.55C177.08 43.82 177.22 44.46 177.34 44.98C177.45 45.51 177.61 46.22 177.69 46.58C177.76 46.94 177.86 47.27 177.9 47.31C177.97 47.38 179.28 47.4 184.66 47.4C188.33 47.4 191.38 47.38 191.43 47.36C191.49 47.34 191.54 47.25 191.54 47.16C191.54 47.06 191.41 46.51 191.27 45.92C191.12 45.33 190.77 43.91 190.48 42.77C190.2 41.63 189.76 39.81 189.49 38.73C189.22 37.64 188.79 35.88 188.52 34.82C188.26 33.75 187.82 31.94 187.54 30.8C187.25 29.66 186.82 27.92 186.58 26.93C186.33 25.94 185.91 24.21 185.63 23.09C185.35 21.96 184.91 20.17 184.65 19.09C184.38 18.02 183.95 16.27 183.69 15.22C183.43 14.16 182.97 12.28 182.66 11.05C182.36 9.82 182 8.38 181.87 7.85C181.72 7.24 181.6 6.87 181.52 6.82C181.42 6.75 180.15 6.73 175.36 6.73C171.85 6.73 169.27 6.76 169.22 6.8Z"/>
		<path class="shp0" d="M171.03 16.76C170.97 16.82 170.91 16.89 170.92 16.92C170.92 16.95 170.71 17.41 170.46 17.95C170.2 18.49 169.88 19.15 169.76 19.41C169.64 19.68 169.26 20.47 168.92 21.18C168.59 21.89 168.2 22.7 168.07 22.98C167.94 23.26 167.59 24.01 167.29 24.65C166.99 25.29 166.59 26.13 166.4 26.52C166.21 26.91 165.94 27.49 165.79 27.81C165.64 28.13 165.41 28.61 165.28 28.88C165.16 29.15 165.05 29.42 165.05 29.48C165.05 29.53 165.1 29.6 165.15 29.61C165.21 29.63 167.18 29.65 169.54 29.65C171.9 29.65 173.86 29.62 173.91 29.6C173.98 29.56 173.97 29.38 173.83 28.73C173.73 28.28 173.53 27.33 173.38 26.62C173.22 25.91 173.03 24.99 172.94 24.58C172.85 24.17 172.69 23.47 172.6 23.02C172.5 22.57 172.36 21.93 172.29 21.59C172.21 21.25 172.07 20.61 171.98 20.16C171.88 19.71 171.73 18.99 171.63 18.56C171.54 18.13 171.42 17.55 171.35 17.27C171.29 16.99 171.22 16.74 171.2 16.71C171.17 16.68 171.1 16.7 171.03 16.76Z"/>
	</g>
</svg>