<?xml version="1.0" encoding="UTF-8" standalone="no"?>
<!-- Created with Inkscape (http://www.inkscape.org/) -->
<svg xmlns:dc="http://purl.org/dc/elements/1.1/" xmlns:cc="http://creativecommons.org/ns#" xmlns:rdf="http://www.w3.org/1999/02/22-rdf-syntax-ns#" xmlns:svg="http://www.w3.org/2000/svg" xmlns="http://www.w3.org/2000/svg" xmlns:sodipodi="http://sodipodi.sourceforge.net/DTD/sodipodi-0.dtd" xmlns:inkscape="http://www.inkscape.org/namespaces/inkscape" width="435.203298304" height="229.77767032" viewBox="0 0 450 237.59" id="svg2" version="1.1" inkscape:version="0.91 r13725" sodipodi:docname="Tanskan jääkiekkomaajoukkueen tunnus.svg">
  <defs id="defs4">
    <clipPath clipPathUnits="userSpaceOnUse" id="clipPath256">
      <path d="m 1126.063,78.484 80.185,0 0,50.209 -80.185,0 0,-50.209 z" id="path258" inkscape:connector-curvature="0"/>
    </clipPath>
    <clipPath clipPathUnits="userSpaceOnUse" id="clipPath240">
      <path d="m 1127.137,83.819 77.823,0 0,41.09 -77.823,0 0,-41.09 z" id="path242" inkscape:connector-curvature="0"/>
    </clipPath>
    <clipPath clipPathUnits="userSpaceOnUse" id="clipPath208">
      <path d="m 1126.063,78.484 80.185,0 0,50.209 -80.185,0 0,-50.209 z" id="path210" inkscape:connector-curvature="0"/>
    </clipPath>
  </defs>
  <sodipodi:namedview id="base" pagecolor="#ffffff" bordercolor="#666666" borderopacity="1.0" inkscape:pageopacity="0.0" inkscape:pageshadow="2" inkscape:zoom="0.35" inkscape:cx="375" inkscape:cy="330.63338" inkscape:document-units="px" inkscape:current-layer="layer1" showgrid="false" units="px" inkscape:window-width="493" inkscape:window-height="466" inkscape:window-x="398" inkscape:window-y="529" inkscape:window-maximized="0"/>
  <metadata id="metadata7">
    <rdf:RDF>
      <cc:Work rdf:about="">
        <dc:format>image/svg+xml</dc:format>
        <dc:type rdf:resource="http://purl.org/dc/dcmitype/StillImage"/>
        <dc:title/>
      </cc:Work>
    </rdf:RDF>
  </metadata>
  <g inkscape:label="Taso 1" inkscape:groupmode="layer" id="layer1" transform="translate(0,-814.77216)">
    <g id="g204" style="fill:#d1050c;fill-opacity:1" transform="matrix(5.7823671,0,0,-5.7823671,-6517.5263,1537.0373)">
      <g id="g206" clip-path="url(#clipPath208)" style="fill:#d1050c;fill-opacity:1">
        <g id="g212" transform="translate(1148.959,109.246)" style="fill:#d1050c;fill-opacity:1">
          <path d="M 0,0 C -0.706,0.625 -1.342,1.325 -1.898,2.086 L -1.93,2.122 c -0.03,0.039 -0.058,0.081 -0.082,0.124 -0.014,0.028 -0.039,0.05 -0.07,0.062 -0.027,0.009 -0.053,0.023 -0.077,0.039 -0.012,0.01 -0.024,0.02 -0.034,0.032 C -2.315,2.512 -2.469,2.612 -2.64,2.67 -2.663,2.679 -2.688,2.685 -2.714,2.688 -2.736,2.69 -2.757,2.681 -2.77,2.663 -2.788,2.639 -2.804,2.614 -2.82,2.588 -2.864,2.528 -2.895,2.461 -2.912,2.389 -2.92,2.364 -2.928,2.339 -2.938,2.315 c 0.303,-0.67 0.621,-1.332 0.955,-1.987 0.232,-0.333 0.571,-0.576 0.96,-0.69 0.332,-0.113 0.689,-0.134 1.032,-0.059 0.012,0.007 0.021,0.019 0.023,0.032 0,0.011 -0.001,0.021 -0.005,0.031 -0.004,0.014 -0.008,0.027 -0.011,0.041 -0.003,0.018 0.001,0.037 0.013,0.051 0.02,0.025 0.038,0.051 0.052,0.08 0.016,0.033 0.013,0.071 -0.007,0.101 -0.018,0.027 -0.039,0.052 -0.063,0.073 L 0,0" style="fill:#d1050c;fill-opacity:1;fill-rule:nonzero;stroke:none" id="path214" inkscape:connector-curvature="0"/>
        </g>
        <g id="g216" transform="translate(1181.3738,109.3423)" style="fill:#d1050c;fill-opacity:1">
          <path d="m 0,0 c -0.602,0.163 -1.17,0.435 -1.676,0.801 -0.009,0.017 -0.019,0.032 -0.031,0.048 -0.108,0.133 -0.167,0.299 -0.165,0.471 0.008,0.602 -0.325,1.157 -0.86,1.433 L -3.253,3.024 C -3.855,3.216 -4.49,3.275 -5.116,3.199 -5.136,3.186 -5.153,3.169 -5.165,3.149 -5.22,3.051 -5.224,2.932 -5.176,2.83 -5.142,2.776 -5.093,2.734 -5.035,2.708 -5.027,2.705 -5.02,2.701 -5.012,2.698 -4.552,2.576 -4.103,2.412 -3.673,2.206 -3.371,2.001 -3.254,1.612 -3.395,1.275 -3.45,1.067 -3.403,0.846 -3.268,0.679 l 0.639,-0.566 c 0.672,-0.434 1.46,-0.654 2.26,-0.634 0.124,0.003 0.248,0.017 0.37,0.041 0.013,0.006 0.026,0.014 0.037,0.023 0.036,0.029 0.069,0.063 0.097,0.1 0.019,0.026 0.028,0.059 0.026,0.091 -0.003,0.016 -0.009,0.031 -0.02,0.043 -0.006,0.019 -0.008,0.038 -0.007,0.058 0.002,0.022 0.003,0.045 0.003,0.067 C 0.136,-0.093 0.135,-0.087 0.133,-0.082 0.129,-0.075 0.122,-0.07 0.113,-0.069 0.097,-0.075 0.079,-0.072 0.065,-0.062 0.053,-0.052 0.043,-0.042 0.034,-0.03 0.025,-0.018 0.013,-0.007 0,0" style="fill:#d1050c;fill-opacity:1;fill-rule:nonzero;stroke:none" id="path218" inkscape:connector-curvature="0"/>
        </g>
        <g id="g220" transform="translate(1165.3162,107.4583)" style="fill:#d1050c;fill-opacity:1">
          <path d="M 0,0 C -0.185,0.416 -0.403,0.817 -0.653,1.197 -0.671,1.261 -0.712,1.316 -0.767,1.352 -0.822,1.387 -0.889,1.402 -0.954,1.393 -1.019,1.383 -1.079,1.351 -1.122,1.301 -1.165,1.251 -1.189,1.187 -1.188,1.121 -1.265,0.945 -1.256,0.744 -1.166,0.576 l 0.156,-0.39 c 0.016,-0.035 0.035,-0.069 0.055,-0.103 0.09,-0.129 0.087,-0.302 -0.01,-0.427 -0.113,-0.098 -0.16,-0.252 -0.123,-0.397 0.061,-0.177 0.218,-0.304 0.404,-0.328 C -0.5,-1.075 -0.323,-1 -0.199,-0.864 0.027,-0.638 0.104,-0.302 0,0" style="fill:#d1050c;fill-opacity:1;fill-rule:nonzero;stroke:none" id="path222" inkscape:connector-curvature="0"/>
        </g>
        <g id="g224" transform="translate(1163.329,105.8023)" style="fill:#d1050c;fill-opacity:1">
          <path d="M 0,0 C 0.28,0.1 0.486,0.341 0.543,0.633 0.551,1.25 0.449,1.864 0.24,2.444 L 0.197,2.633 C 0.184,2.711 0.151,2.785 0.103,2.849 0.059,2.903 -0.012,2.927 -0.08,2.912 -0.131,2.901 -0.18,2.88 -0.224,2.85 -0.233,2.844 -0.24,2.837 -0.247,2.829 -0.34,2.664 -0.39,2.479 -0.393,2.289 -0.401,2.212 -0.404,2.135 -0.401,2.057 -0.392,1.96 -0.38,1.863 -0.367,1.767 -0.365,1.742 -0.365,1.718 -0.365,1.693 L -0.381,1.253 C -0.384,0.939 -0.506,0.638 -0.723,0.412 -0.769,0.326 -0.771,0.223 -0.728,0.136 -0.685,0.049 -0.603,-0.013 -0.507,-0.028 -0.339,-0.064 -0.163,-0.054 0,0" style="fill:#d1050c;fill-opacity:1;fill-rule:nonzero;stroke:none" id="path226" inkscape:connector-curvature="0"/>
        </g>
        <g id="g228" transform="translate(1162.5537,107.256)" style="fill:#d1050c;fill-opacity:1">
          <path d="M 0,0 C 0.002,0.397 -0.046,0.794 -0.145,1.179 -0.22,1.285 -0.357,1.331 -0.482,1.292 -0.607,1.253 -0.692,1.138 -0.693,1.007 -0.71,0.95 -0.724,0.892 -0.736,0.834 -0.776,0.659 -0.805,0.481 -0.821,0.301 L -0.824,0.283 c 0.031,-0.66 -0.373,-1.262 -0.994,-1.486 L -1.87,-1.237 c -0.116,-0.054 -0.193,-0.167 -0.199,-0.295 -0.007,-0.129 0.059,-0.25 0.169,-0.314 0.183,-0.08 0.381,-0.121 0.581,-0.119 0.316,-0.025 0.622,0.12 0.803,0.38 0.291,0.331 0.472,0.743 0.52,1.18 C 0.008,-0.27 0.007,-0.135 0,0" style="fill:#d1050c;fill-opacity:1;fill-rule:nonzero;stroke:none" id="path230" inkscape:connector-curvature="0"/>
        </g>
        <g id="g232" transform="translate(1175.6113,104.7682)" style="fill:#d1050c;fill-opacity:1">
          <path d="M 0,0 0.018,0.982 C 0.007,1.064 -0.043,1.137 -0.118,1.175 -0.192,1.213 -0.281,1.212 -0.354,1.172 -0.514,1.116 -0.632,0.979 -0.662,0.812 L -0.836,0.478 C -0.969,0.221 -1.143,-0.011 -1.353,-0.21 -1.604,-0.46 -1.831,-0.733 -2.028,-1.027 -2.105,-1.14 -2.178,-1.254 -2.248,-1.37 -2.285,-1.424 -2.316,-1.482 -2.341,-1.542 -2.35,-1.567 -2.355,-1.593 -2.354,-1.62 c 0,-0.042 -0.007,-0.083 -0.021,-0.123 -0.011,-0.036 -0.02,-0.073 -0.024,-0.111 -10e-4,-0.012 0,-0.025 10e-4,-0.038 0.013,-0.078 0.067,-0.143 0.142,-0.169 0.075,-0.027 0.158,-0.01 0.217,0.043 0.116,0.115 0.229,0.233 0.339,0.354 0.157,0.131 0.331,0.241 0.518,0.326 0.308,0.156 0.604,0.338 0.884,0.542 0.08,0.062 0.143,0.141 0.186,0.233 0.073,0.179 0.11,0.37 0.112,0.563" style="fill:#d1050c;fill-opacity:1;fill-rule:nonzero;stroke:none" id="path234" inkscape:connector-curvature="0"/>
        </g>
      </g>
    </g>
    <g id="g236" style="fill:#d1050c;fill-opacity:1" transform="matrix(5.7823671,0,0,-5.7823671,-6517.5263,1537.0373)">
      <g id="g238" clip-path="url(#clipPath240)" style="fill:#d1050c;fill-opacity:1">
        <g id="g244" transform="translate(1148.1726,102.2846)" style="fill:#d1050c;fill-opacity:1">
          <path d="M 0,0 C 0.699,0.266 1.409,0.499 2.13,0.698 3.289,0.823 4.203,1.74 4.325,2.899 4.321,2.924 4.311,2.949 4.296,2.97 4.261,3.028 4.208,3.072 4.145,3.096 4.139,3.098 4.133,3.1 4.127,3.102 3.534,2.579 2.841,2.183 2.091,1.937 1.088,1.807 0.197,1.232 -0.335,0.373 -0.337,0.349 -0.339,0.325 -0.342,0.302 -0.347,0.283 -0.351,0.264 -0.352,0.245 -0.354,0.174 -0.326,0.105 -0.276,0.055 -0.253,0.037 -0.227,0.024 -0.199,0.018 -0.134,0 -0.067,-0.006 0,0" style="fill:#d1050c;fill-opacity:1;fill-rule:nonzero;stroke:none" id="path246" inkscape:connector-curvature="0"/>
        </g>
        <g id="g248" transform="translate(1140.2837,104.4)" style="fill:#d1050c;fill-opacity:1">
          <path d="m 0,0 c -0.008,0.015 -0.011,0.032 -0.009,0.049 10e-4,0.006 0.006,0.011 0.013,0.011 0.01,0.001 0.02,0 0.03,-0.003 C 0.05,0.056 0.066,0.052 0.08,0.046 0.088,0.043 0.094,0.037 0.098,0.03 0.125,-0.008 0.155,-0.044 0.187,-0.077 0.205,-0.097 0.221,-0.118 0.236,-0.141 0.245,-0.157 0.25,-0.176 0.247,-0.195 0.238,-0.204 0.228,-0.211 0.217,-0.217 0.206,-0.221 0.198,-0.229 0.193,-0.239 0.189,-0.253 0.188,-0.268 0.19,-0.282 0.192,-0.299 0.193,-0.317 0.194,-0.333 0.191,-0.346 0.181,-0.357 0.169,-0.361 0.154,-0.36 0.138,-0.359 0.123,-0.357 0.112,-0.355 0.1,-0.357 0.089,-0.361 0.082,-0.364 0.076,-0.371 0.074,-0.378 0.069,-0.395 0.065,-0.412 0.062,-0.429 0.061,-0.439 0.059,-0.448 0.057,-0.457 L 0.052,-0.473 C 0.049,-0.48 0.044,-0.485 0.037,-0.489 0.029,-0.493 0.02,-0.495 0.012,-0.495 c -0.013,0.002 -0.023,0.011 -0.028,0.022 -0.002,0.012 -0.003,0.025 -0.004,0.037 0.002,0.033 0.003,0.066 0.002,0.098 -0.001,0.017 -0.001,0.035 10e-4,0.052 0.002,0.012 0.005,0.025 0.009,0.037 0.01,0.031 0.014,0.064 0.01,0.097 -0.005,0.032 -0.008,0.065 -0.01,0.097 l 0.003,0.024 C -0.003,-0.021 -0.001,-0.01 0,0 M 1.208,-0.958 C 1.193,-0.951 1.18,-0.94 1.17,-0.927 c -0.009,0.012 -0.014,0.026 -0.016,0.04 -0.002,0.033 0.001,0.066 0.01,0.097 0.042,0.115 0.107,0.22 0.192,0.308 0.009,0.032 0.011,0.065 0.005,0.098 l -0.009,0.06 C 1.54,-0.436 1.71,-0.575 1.858,-0.737 1.895,-0.771 1.927,-0.81 1.953,-0.853 c 0.012,-0.022 0.012,-0.048 0,-0.07 L 1.947,-0.933 C 1.941,-0.941 1.933,-0.948 1.925,-0.953 1.909,-0.961 1.893,-0.965 1.875,-0.965 1.693,-0.964 1.51,-0.968 1.328,-0.977 1.287,-0.979 1.246,-0.973 1.208,-0.958 m 0.87,11.874 0.017,-0.005 C 2.101,10.905 2.106,10.898 2.109,10.89 2.114,10.86 2.12,10.829 2.127,10.799 2.129,10.79 2.131,10.78 2.134,10.77 2.137,10.762 2.14,10.754 2.143,10.745 2.147,10.735 2.15,10.725 2.152,10.714 2.154,10.706 2.155,10.696 2.154,10.687 2.152,10.665 2.151,10.642 2.149,10.619 2.149,10.611 2.146,10.604 2.143,10.598 2.136,10.585 2.128,10.573 2.12,10.562 2.113,10.554 2.107,10.545 2.101,10.536 2.098,10.528 2.098,10.52 2.1,10.512 2.104,10.506 2.109,10.501 2.115,10.498 l 0.03,-0.01 c 0.008,-0.003 0.013,-0.01 0.013,-0.018 0,-0.008 -0.005,-0.016 -0.012,-0.019 L 2.123,10.444 C 2.092,10.435 2.061,10.423 2.031,10.408 2.018,10.4 2.004,10.394 1.989,10.39 1.979,10.387 1.968,10.385 1.957,10.385 1.923,10.387 1.889,10.386 1.856,10.383 c -0.05,0 -0.099,0.008 -0.145,0.025 C 1.7,10.422 1.69,10.438 1.682,10.454 L 1.67,10.462 C 1.66,10.455 1.653,10.445 1.648,10.434 1.643,10.422 1.633,10.414 1.621,10.412 L 1.602,10.414 C 1.568,10.42 1.534,10.429 1.501,10.44 1.482,10.445 1.462,10.452 1.444,10.46 l -0.019,0.012 c -0.014,0.012 -0.02,0.031 -0.016,0.049 l 0.008,0.021 c 0.034,0.075 0.089,0.139 0.159,0.183 0.035,0.019 0.068,0.04 0.101,0.062 0.023,0.018 0.048,0.034 0.075,0.048 0.048,0.021 0.098,0.039 0.148,0.055 0.02,0.006 0.04,0.013 0.06,0.021 l 0.018,0.012 c 0.01,0.006 0.019,0.014 0.027,0.021 0.007,0.003 0.014,0.004 0.021,0.002 0.01,-0.009 0.021,-0.017 0.033,-0.023 0.006,-0.004 0.012,-0.006 0.019,-0.007 M 2.887,-2.804 C 2.639,-3.014 2.4,-3.235 2.172,-3.466 2.086,-3.459 2.008,-3.414 1.959,-3.343 1.953,-3.327 1.952,-3.311 1.954,-3.295 1.942,-3.05 1.886,-2.81 1.786,-2.586 c 0.381,0.101 0.788,0.02 1.101,-0.218 m 0.558,15.756 c 0.008,0.002 0.015,0.009 0.015,0.017 0,0.009 -0.002,0.018 -0.006,0.026 l -0.017,0.031 c -0.005,0.007 -0.007,0.016 -0.005,0.025 10e-4,0.009 0.005,0.017 0.012,0.023 0.004,0.002 0.009,0.003 0.014,0.002 0.027,-0.008 0.054,-0.016 0.081,-0.024 L 3.56,13.041 C 3.565,13.033 3.568,13.024 3.569,13.015 3.568,12.985 3.567,12.956 3.567,12.926 3.567,12.918 3.564,12.911 3.559,12.905 3.552,12.894 3.543,12.885 3.532,12.879 3.527,12.87 3.526,12.859 3.527,12.849 l 0.004,-0.023 c 10e-4,-0.033 0,-0.067 -0.001,-0.1 -0.007,10e-4 -0.013,0.005 -0.017,0.01 C 3.509,12.743 3.502,12.748 3.494,12.749 3.486,12.747 3.479,12.743 3.475,12.736 3.469,12.728 3.462,12.722 3.453,12.719 3.447,12.718 3.441,12.72 3.437,12.724 c -0.011,0.01 -0.02,0.02 -0.028,0.031 -0.003,0.005 -0.005,0.011 -0.006,0.017 -10e-4,0.014 0,0.028 0.002,0.042 0.001,0.007 -10e-4,0.014 -0.006,0.019 -0.004,0.006 -0.011,0.009 -0.018,0.009 L 3.363,12.841 c -0.015,0 -0.03,0.002 -0.044,0.007 -0.01,0.004 -0.019,0.01 -0.025,0.018 l -0.017,0.023 c -0.02,0.03 -0.042,0.058 -0.066,0.085 -0.003,0.005 -0.004,0.01 -0.003,0.016 0.006,0 0.013,-10e-4 0.019,-0.002 0.009,-0.003 0.018,-0.005 0.027,-0.006 0.018,-0.003 0.038,-0.002 0.056,0.003 l 0.021,0.009 c 0.013,0.004 0.027,0.006 0.04,0.005 0.009,0 0.017,-0.004 0.023,-0.01 l 0.023,-0.025 c 0.008,-0.007 0.018,-0.011 0.028,-0.012 m 1.651,-1.526 c 0.015,0.071 0.022,0.145 0.022,0.218 l 0,0.038 c 0.002,0.013 0.008,0.025 0.016,0.035 0.007,0.008 0.016,0.013 0.026,0.015 0.006,0.001 0.012,-10e-4 0.017,-0.004 0.006,-0.004 0.012,-0.01 0.015,-0.017 0.005,-0.007 0.013,-0.011 0.021,-0.012 0.01,0.005 0.02,0.009 0.03,0.014 0.012,0.004 0.025,0.003 0.036,-0.003 L 5.308,11.682 C 5.319,11.67 5.332,11.659 5.346,11.651 5.371,11.637 5.396,11.623 5.42,11.608 5.434,11.599 5.447,11.587 5.456,11.573 5.458,11.566 5.459,11.558 5.458,11.55 5.45,11.517 5.44,11.485 5.428,11.453 L 5.419,11.423 C 5.411,11.405 5.399,11.39 5.384,11.378 L 5.358,11.364 C 5.329,11.352 5.301,11.341 5.272,11.33 5.263,11.328 5.254,11.326 5.244,11.325 c -0.008,0 -0.016,0 -0.024,0.001 -0.026,0.006 -0.052,0.013 -0.078,0.02 l -0.024,0.008 c -0.019,0.01 -0.03,0.03 -0.027,0.051 l 0.005,0.021 M 2.468,8.412 C 2.695,8.332 2.923,8.258 3.154,8.19 3.281,8.179 3.404,8.234 3.48,8.336 3.556,8.438 3.574,8.572 3.526,8.691 3.443,8.964 3.357,9.235 3.268,9.507 l -0.342,0.552 c 0.267,0.197 0.464,0.474 0.563,0.791 0.012,0.033 0.029,0.065 0.049,0.094 0.026,0.041 0.056,0.079 0.089,0.113 0.028,0.032 0.062,0.057 0.101,0.071 0.006,0.003 0.013,0.004 0.019,0.004 C 4.009,10.794 4.386,10.565 4.806,10.487 6.216,8.168 8.395,6.419 10.964,5.544 11.131,5.234 11.229,4.892 11.253,4.541 10.972,3.684 10.491,2.907 9.85,2.273 9.218,1.795 8.368,1.723 7.665,2.087 7.828,2.285 7.915,2.535 7.909,2.791 7.989,3.087 7.895,3.403 7.666,3.608 7.437,3.812 7.112,3.87 6.827,3.757 6.562,3.704 6.3,3.636 6.042,3.554 6.1,3.733 6.143,3.918 6.169,4.105 6.159,4.557 6.042,5 5.828,5.397 5.39,6.274 4.822,7.08 4.144,7.788 3.936,8.037 3.602,8.143 3.289,8.058 3.078,8.01 2.878,7.923 2.7,7.801 2.521,7.95 2.433,8.181 2.468,8.412 m 9.509,4.104 c 0.261,-0.039 0.487,-0.199 0.612,-0.431 0.125,-0.232 0.134,-0.51 0.023,-0.749 -0.03,-0.107 -0.085,-0.206 -0.159,-0.29 -0.034,-0.039 -0.069,-0.078 -0.105,-0.116 -0.146,-0.17 -0.349,-0.281 -0.571,-0.311 -0.282,-0.035 -0.567,0.046 -0.788,0.224 l 0.622,0.328 c 0.188,0.161 0.362,0.337 0.521,0.527 0.015,0.025 0.021,0.055 0.017,0.085 -0.01,0.058 -0.028,0.113 -0.055,0.165 -0.022,0.054 -0.065,0.097 -0.119,0.118 -0.063,0.021 -0.13,0.028 -0.196,0.019 C 11.676,12.07 11.573,12.058 11.47,12.049 11.443,12.047 11.417,12.04 11.392,12.028 L 11.27,11.964 c -0.027,-0.014 -0.057,-0.02 -0.087,-0.018 -0.012,0.003 -0.023,0.006 -0.035,0.009 -0.066,0.012 -0.134,0.015 -0.201,0.01 -0.101,-0.01 -0.202,-0.01 -0.302,0.002 -0.032,0.003 -0.064,0.005 -0.095,0.007 -0.022,10e-4 -0.044,0.006 -0.064,0.014 -0.01,0.004 -0.019,0.012 -0.023,0.022 -0.003,0.006 -0.004,0.013 -0.004,0.02 -0.004,0.081 0.018,0.16 0.062,0.228 0.05,0.064 0.103,0.125 0.161,0.181 0.427,0.075 0.862,0.1 1.295,0.077 m 2.145,-6.47 C 13.901,5.424 13.495,4.884 12.956,4.501 c 0.025,0.24 0.001,0.481 -0.072,0.711 0.002,0.013 0.006,0.026 0.011,0.039 l 0.223,0.529 c 0.255,0.54 0.635,1.012 1.109,1.375 0.087,-0.371 0.05,-0.76 -0.105,-1.109 m 1.224,0.265 C 15.621,5.68 15.532,4.949 15.112,4.403 15.016,4.285 14.912,4.174 14.801,4.071 14.784,4.061 14.764,4.06 14.746,4.067 14.728,4.074 14.715,4.09 14.71,4.108 c -0.003,0.016 -0.004,0.031 -0.003,0.047 -0.034,0.277 -0.027,0.558 0.021,0.833 0.115,0.468 0.274,0.923 0.476,1.36 0.007,0.015 0.023,0.026 0.041,0.025 0.016,0 0.031,-0.005 0.045,-0.013 0.023,-0.011 0.042,-0.028 0.056,-0.049 M 16.68,8.072 C 17.156,7.632 17.504,7.07 17.686,6.447 17.813,5.903 17.736,5.331 17.468,4.84 17.192,5.187 16.86,5.487 16.487,5.728 16.458,6.04 16.4,6.348 16.316,6.649 16.249,6.861 16.271,7.091 16.378,7.286 l 0.224,0.412 c 0.03,0.048 0.044,0.105 0.041,0.162 -0.006,0.058 -0.002,0.116 0.013,0.172 0.005,0.014 0.013,0.028 0.024,0.04 m 1.696,0.17 C 18.712,7.921 19.037,7.59 19.352,7.249 19.517,6.976 19.611,6.666 19.624,6.347 19.51,6.049 19.429,5.738 19.385,5.421 19.369,5.388 19.34,5.365 19.304,5.356 c -0.238,0.18 -0.449,0.394 -0.625,0.635 -0.152,0.703 -0.361,1.392 -0.625,2.062 0.121,0.037 0.231,0.102 0.322,0.189 m -3.797,2.8 C 14.69,10.154 14.507,9.255 14.059,8.481 14.048,8.464 14.039,8.447 14.032,8.428 14.028,8.414 14.022,8.4 14.016,8.387 13.395,7.708 12.762,7.04 12.117,6.383 c 0.031,0.208 0.076,0.413 0.137,0.614 l 0.074,0.11 c 0.314,0.5 0.7,0.949 1.147,1.334 0.293,0.289 0.47,0.675 0.5,1.085 0.014,0.082 0.02,0.166 0.016,0.25 -0.008,0.214 -0.049,0.425 -0.12,0.627 -0.013,0.04 -0.028,0.079 -0.047,0.116 -0.032,0.069 -0.098,0.116 -0.174,0.122 -0.064,0.012 -0.131,-0.008 -0.178,-0.053 C 13.461,10.577 13.45,10.568 13.438,10.56 13.408,10.542 13.379,10.521 13.352,10.499 13.341,10.491 13.333,10.48 13.327,10.467 13.345,9.952 13.195,9.445 12.901,9.023 12.894,9.026 12.887,9.03 12.88,9.034 c -0.135,0.263 -0.354,0.475 -0.621,0.603 -0.003,0.011 -0.001,0.022 0.005,0.032 0.883,0.521 1.389,1.503 1.301,2.525 0.025,0.034 0.061,0.059 0.101,0.071 0.03,0.007 0.061,0.013 0.092,0.018 0.096,0.008 0.19,0.025 0.283,0.05 0.066,0.018 0.122,0.06 0.158,0.117 0.037,0.058 0.051,0.127 0.039,0.194 -0.023,0.091 -0.076,0.172 -0.149,0.231 -0.383,0.246 -0.812,0.411 -1.262,0.484 l -0.942,0.08 c -0.72,0.037 -1.44,0.029 -2.159,-0.023 -0.008,0.013 -0.011,0.028 -0.009,0.044 0.004,0.036 0.015,0.071 0.032,0.103 0.019,0.03 0.039,0.059 0.059,0.088 0.018,0.024 0.03,0.053 0.034,0.083 0.003,0.1 -0.009,0.2 -0.034,0.296 -0.004,0.014 -0.009,0.026 -0.015,0.038 -0.014,0.021 -0.033,0.037 -0.055,0.048 -0.04,0.019 -0.082,0.034 -0.124,0.046 l -0.488,0.163 c -0.019,0.006 -0.037,0.012 -0.056,0.018 -0.056,0.014 -0.112,0.03 -0.169,0.047 -0.02,0.007 -0.039,0.019 -0.053,0.036 -0.005,0.006 -0.01,0.011 -0.015,0.016 -0.008,0 -0.016,0 -0.024,-10e-4 -0.007,-0.001 -0.014,10e-4 -0.02,0.005 -0.006,0.005 -0.011,0.011 -0.015,0.018 -0.061,0.109 -0.071,0.24 -0.026,0.357 0.011,0.04 0.038,0.074 0.075,0.094 0.03,0.013 0.062,0.021 0.094,0.024 0.038,0.002 0.076,10e-4 0.114,-0.003 0.576,-0.135 1.156,-0.252 1.739,-0.348 0.146,-0.023 0.291,0.05 0.358,0.182 0.066,0.132 0.041,0.292 -0.064,0.396 -0.022,0.017 -0.04,0.038 -0.054,0.062 -0.009,0.019 -0.024,0.035 -0.044,0.044 -0.017,0.008 -0.036,0.012 -0.055,0.014 -0.028,0.002 -0.056,0.009 -0.082,0.022 -0.015,0.007 -0.023,0.023 -0.022,0.04 0.002,0.013 0.007,0.026 0.014,0.037 0.019,0.03 0.048,0.051 0.082,0.06 0.007,0.002 0.015,0.002 0.022,0 0.274,-0.038 0.54,-0.122 0.786,-0.248 0.014,-0.015 0.027,-0.031 0.039,-0.048 0.013,-0.02 0.024,-0.042 0.031,-0.065 0.033,-0.074 0.065,-0.148 0.096,-0.223 0.048,-0.116 0.138,-0.208 0.252,-0.259 0.114,-0.051 0.244,-0.056 0.361,-0.014 0.009,0.005 0.018,0.01 0.027,0.015 0.221,0.261 0.57,0.374 0.901,0.292 0.331,0.151 0.631,0.364 0.884,0.626 0.07,0.097 0.094,0.219 0.064,0.335 -0.029,0.116 -0.108,0.213 -0.215,0.265 -0.327,-0.13 -0.694,-0.107 -1.001,0.062 -0.027,0.008 -0.054,0.014 -0.081,0.018 -0.095,0.009 -0.189,0.026 -0.282,0.048 -0.045,0.009 -0.088,0.025 -0.128,0.048 -0.013,0.007 -0.022,0.018 -0.026,0.032 -0.014,0.047 -0.01,0.098 0.012,0.142 0.259,0.111 0.513,0.23 0.763,0.359 0.072,0.014 0.144,0.03 0.215,0.048 0.213,0.039 0.429,0.062 0.646,0.068 0.017,10e-4 0.034,0.004 0.051,0.008 0.031,0.01 0.063,0.018 0.096,0.023 0.029,0.003 0.059,0.011 0.085,0.025 0.031,0.017 0.063,0.033 0.096,0.046 0.028,0.009 0.057,0.013 0.086,0.014 0.084,0.002 0.167,0.007 0.251,0.016 0.058,0.007 0.112,0.036 0.149,0.081 0.011,0.009 0.023,0.015 0.037,0.019 0.026,0.005 0.053,0.009 0.08,0.013 0.018,0.002 0.035,0.008 0.052,0.016 0.063,0.037 0.124,0.077 0.183,0.12 0.007,0.005 0.015,0.009 0.024,0.012 0.045,0.01 0.092,0.009 0.137,-0.003 0.01,-0.005 0.018,-0.011 0.025,-0.019 -0.003,-0.007 -0.005,-0.014 -0.006,-0.021 -0.005,-0.021 -0.008,-0.042 -0.008,-0.064 0.002,-0.053 -10e-4,-0.107 -0.009,-0.16 -0.002,-0.013 10e-4,-0.027 0.008,-0.039 0.011,-0.018 0.024,-0.033 0.039,-0.047 0.04,-0.04 0.085,-0.074 0.135,-0.101 0.031,-0.016 0.066,-0.024 0.101,-0.024 0.017,0.002 0.034,0.004 0.051,0.006 0.732,0.165 1.484,0.221 2.233,0.166 -0.36,-0.217 -0.698,-0.468 -1.01,-0.751 -0.323,-0.214 -0.676,-0.38 -1.047,-0.492 -0.077,-0.025 -0.142,-0.079 -0.18,-0.151 -0.033,-0.078 -0.043,-0.164 -0.029,-0.248 0.004,-0.091 0.068,-0.168 0.156,-0.188 0.073,-0.018 0.148,-0.026 0.223,-0.023 0.162,-10e-4 0.322,0.018 0.479,0.056 0.345,0.142 0.693,0.279 1.044,0.408 0.237,0.082 0.5,0.02 0.675,-0.16 0.251,-0.207 0.493,-0.423 0.728,-0.648 -0.005,-0.004 -0.01,-0.007 -0.016,-0.008 l -0.025,-0.007 c -0.024,-0.004 -0.048,-0.011 -0.07,-0.022 -0.708,0.384 -1.568,0.363 -2.257,-0.056 -0.033,-0.126 -0.028,-0.26 0.016,-0.384 0.699,0.028 1.383,-0.214 1.909,-0.675 0.117,-0.107 0.223,-0.224 0.317,-0.35 0.438,-0.634 0.718,-1.363 0.817,-2.126 -0.317,0.242 -0.619,0.503 -0.905,0.782 -0.304,0.709 -0.793,1.324 -1.416,1.78 -0.247,0.155 -0.532,0.239 -0.824,0.242 -0.047,-0.006 -0.093,-0.02 -0.136,-0.041 -0.061,-0.028 -0.103,-0.085 -0.112,-0.152 -0.004,-0.06 0,-0.121 0.012,-0.18 0.003,-0.024 0.008,-0.048 0.015,-0.07 0.022,-0.047 0.053,-0.087 0.092,-0.12 l 0.082,-0.064 c 1.156,-0.741 1.877,-1.999 1.932,-3.371 -0.572,1.191 -1.373,2.257 -2.356,3.139 -0.044,0.008 -0.089,0.015 -0.133,0.021 -0.01,0.002 -0.019,0.002 -0.029,0.001 -0.036,-0.005 -0.069,-0.022 -0.093,-0.049 -0.023,-0.026 -0.045,-0.053 -0.065,-0.08 -0.076,-0.146 -0.052,-0.323 0.059,-0.444 0.714,-0.563 1.145,-1.411 1.178,-2.319 0.005,-0.267 -0.016,-0.535 -0.063,-0.798 -0.191,0.077 -0.361,0.199 -0.495,0.356 -0.186,0.61 -0.46,1.189 -0.814,1.719 -0.043,0.019 -0.088,0.033 -0.134,0.044 -0.093,-0.009 -0.179,-0.056 -0.237,-0.13 -0.058,-0.074 -0.083,-0.168 -0.07,-0.261 0.069,-0.469 0.181,-0.93 0.336,-1.378 0.226,-0.588 0.17,-1.247 -0.153,-1.788 -0.007,0 -0.014,10e-4 -0.02,0.004 -0.108,0.31 -0.186,0.629 -0.233,0.953 0.191,0.732 0.125,1.508 -0.186,2.197 -0.023,0.01 -0.044,0.023 -0.063,0.038 -0.063,0.053 -0.141,0.082 -0.223,0.082 -0.034,0.002 -0.067,-0.01 -0.092,-0.033 -0.067,-0.074 -0.124,-0.157 -0.17,-0.246 M 21.202,7.35 C 21.277,6.972 21.22,6.58 21.041,6.239 20.597,6.859 20.185,7.503 19.809,8.167 l -0.037,0.055 c -0.011,0.016 -0.023,0.031 -0.037,0.045 -0.015,0.017 -0.031,0.034 -0.046,0.051 -0.02,0.02 -0.033,0.045 -0.04,0.073 -0.003,0.009 -0.003,0.018 -0.002,0.028 0.12,0.024 0.226,0.092 0.299,0.189 0.074,0.098 0.109,0.218 0.1,0.34 0.017,-0.01 0.034,-0.021 0.05,-0.032 0.062,-0.05 0.122,-0.103 0.178,-0.16 L 20.53,8.481 c 0.145,-0.173 0.276,-0.356 0.394,-0.547 0.135,-0.172 0.23,-0.371 0.278,-0.584 m 0.236,2.487 C 21.798,9.731 22.097,9.48 22.263,9.143 22.338,8.944 22.406,8.742 22.467,8.539 22.468,8.526 22.469,8.513 22.468,8.5 22.468,8.465 22.445,8.435 22.413,8.423 22.4,8.42 22.386,8.419 22.372,8.421 c -0.7,0.431 -1.345,0.943 -1.924,1.527 0.334,0.053 0.676,0.015 0.99,-0.111 m -0.58,2.215 c 0.438,-0.375 0.904,-0.714 1.395,-1.015 l 1.268,-0.754 c 0.011,-0.008 0.019,-0.021 0.021,-0.034 -0.182,-0.107 -0.386,-0.17 -0.596,-0.185 -0.052,0.004 -0.103,0.016 -0.15,0.036 -0.031,0.011 -0.06,0.023 -0.089,0.037 -0.449,0.435 -0.996,0.756 -1.595,0.935 -0.007,0.006 -0.012,0.013 -0.016,0.021 -0.082,0.312 -0.172,0.621 -0.272,0.927 10e-4,0.006 0.003,0.011 0.006,0.017 0.006,0.009 0.017,0.015 0.028,0.015 m 9.488,-14.841 c 0.073,0.183 0.063,0.389 -0.027,0.564 -0.049,0.154 -0.142,0.29 -0.267,0.393 -0.037,0.029 -0.074,0.058 -0.112,0.085 -0.099,0.077 -0.209,0.139 -0.327,0.184 -0.093,0.023 -0.175,0.077 -0.235,0.152 -0.032,0.033 -0.051,0.076 -0.053,0.122 0.003,0.052 0.016,0.102 0.04,0.147 l 0.106,0.189 c 0.018,0.035 0.046,0.065 0.081,0.085 0.056,0.024 0.12,0.026 0.177,0.003 0.304,-0.215 0.596,-0.448 0.872,-0.699 0.157,-0.11 0.356,-0.146 0.542,-0.096 0.034,0.009 0.066,0.026 0.093,0.048 0.024,0.02 0.049,0.038 0.076,0.054 0.006,0.003 0.012,0.006 0.018,0.009 1.243,1.191 2.016,2.788 2.179,4.501 C 34.346,3.065 35.196,2.857 35.887,2.37 36.579,1.883 37.06,1.153 37.235,0.326 37.23,0.318 37.224,0.312 37.217,0.307 36.888,0.491 36.48,0.455 36.187,0.217 35.895,-0.021 35.778,-0.414 35.892,-0.774 35.187,-0.646 34.471,-0.923 34.035,-1.491 33.6,-2.059 33.518,-2.822 33.824,-3.47 c -0.285,-0.007 -0.57,0.006 -0.853,0.038 -0.033,0.006 -0.062,0.027 -0.08,0.055 -0.038,0.063 -0.075,0.126 -0.113,0.189 -0.011,0.02 -0.023,0.039 -0.038,0.058 -0.189,0.114 -0.414,0.151 -0.63,0.104 -0.216,-0.048 -0.405,-0.176 -0.529,-0.359 -0.091,-0.126 -0.147,-0.274 -0.163,-0.428 L 31.345,-4.69 c -0.006,-0.104 -0.022,-0.207 -0.047,-0.308 -0.003,-0.007 -0.006,-0.013 -0.01,-0.019 -0.011,-0.021 -0.024,-0.041 -0.038,-0.06 -0.029,-0.04 -0.062,-0.076 -0.101,-0.107 -0.197,0.438 -0.588,0.758 -1.057,0.864 0.199,0.18 0.437,0.314 0.696,0.391 0.017,0.009 0.033,0.02 0.048,0.032 l 0.115,0.123 c 0.006,0.007 0.011,0.016 0.014,0.025 0.005,0.021 0.007,0.042 0.007,0.062 -0.001,0.027 0,0.054 0.003,0.08 0.002,0.021 -0.001,0.041 -0.007,0.06 -0.158,0.286 -0.436,0.485 -0.758,0.542 l -1.081,0.03 c -0.299,-0.019 -0.576,-0.161 -0.765,-0.392 -0.007,-10e-4 -0.013,0 -0.019,10e-4 -0.006,0.002 -0.011,0.004 -0.017,0.006 -0.119,0.153 -0.222,0.319 -0.306,0.494 0.001,0.008 0.005,0.016 0.009,0.023 0.308,0.069 0.626,0.082 0.938,0.038 0.459,0.012 0.918,0.017 1.377,0.016 m 6.676,20.328 c -0.038,0.004 -0.076,0.004 -0.114,-0.001 -0.017,0.008 -0.031,0.02 -0.042,0.035 -0.007,0.01 -0.012,0.022 -0.014,0.035 0.005,0.092 0.013,0.183 0.024,0.274 0.019,0.088 0.025,0.179 0.018,0.269 -0.005,0.041 0.005,0.083 0.028,0.117 0.015,0.022 0.034,0.042 0.056,0.058 0.019,0.012 0.039,0.022 0.06,0.029 l 0.17,0.056 c 0.019,0.002 0.038,-0.002 0.055,-0.011 l 0.003,-0.002 0.02,-0.116 c 0,-0.182 -0.006,-0.364 -0.02,-0.545 -0.003,-0.037 -0.011,-0.074 -0.024,-0.109 -0.017,-0.035 -0.039,-0.066 -0.065,-0.095 -0.052,-0.013 -0.105,-0.011 -0.155,0.006 m 3.671,-0.74 -0.463,0.005 -0.677,0.201 c -0.086,0.021 -0.172,0.045 -0.256,0.072 -0.149,0.067 -0.299,0.131 -0.451,0.191 -0.209,0.074 -0.408,0.174 -0.592,0.299 -0.016,0.009 -0.028,0.023 -0.037,0.04 -0.002,0.005 -0.004,0.01 -0.005,0.016 -0.002,0.017 0,0.034 0.006,0.05 0.007,0.02 0.013,0.041 0.016,0.061 0.006,0.065 0.021,0.128 0.047,0.188 0.016,0.044 0.048,0.08 0.09,0.101 0.368,0.314 0.85,0.461 1.33,0.406 0.006,0.001 0.012,0.002 0.018,0.003 0.094,0.009 0.187,-0.015 0.264,-0.069 0.495,-0.445 0.982,-0.898 1.462,-1.359 0.006,-0.02 0.008,-0.041 0.006,-0.061 -0.002,-0.007 -0.006,-0.013 -0.012,-0.017 -0.005,-0.003 -0.01,-0.005 -0.016,-0.006 -0.014,-0.003 -0.029,-0.004 -0.044,-0.004 -0.033,0.002 -0.065,0.002 -0.097,0 -0.009,-0.001 -0.018,-0.004 -0.026,-0.007 -0.034,-0.018 -0.068,-0.033 -0.103,-0.047 -0.147,-0.054 -0.305,-0.075 -0.46,-0.063 m 1.24,1.613 c 0.425,-0.098 0.799,-0.351 1.048,-0.709 l 0.058,-0.058 c 0.011,-0.009 0.023,-0.017 0.036,-0.022 0.023,-0.01 0.045,-0.022 0.065,-0.036 0.01,-0.007 0.016,-0.016 0.021,-0.027 0.002,-0.007 0.006,-0.014 0.009,-0.02 0.016,-0.021 0.036,-0.04 0.057,-0.056 0.025,-0.018 0.049,-0.04 0.069,-0.065 0.011,-0.015 0.017,-0.034 0.013,-0.053 -0.002,-0.012 0.001,-0.024 0.008,-0.033 0.008,-0.01 0.016,-0.02 0.024,-0.029 0.013,-0.015 0.017,-0.036 0.013,-0.055 -0.003,-0.007 -0.007,-0.014 -0.013,-0.019 -0.515,-0.019 -1.009,0.208 -1.329,0.611 l -0.256,0.323 c -0.011,0.014 -0.022,0.029 -0.032,0.044 -0.01,0.014 -0.017,0.03 -0.021,0.047 -0.003,0.015 0.002,0.031 0.013,0.041 0.011,0.01 0.023,0.017 0.036,0.023 0.062,0.027 0.123,0.057 0.181,0.093 m 2.588,-0.985 -0.038,0.01 c -0.015,0.004 -0.029,0.009 -0.044,0.013 -0.018,0.006 -0.037,0.012 -0.055,0.018 l -0.035,0.013 c -0.018,0.007 -0.035,0.014 -0.052,0.021 l -0.034,0.015 c -0.017,0.008 -0.034,0.016 -0.051,0.024 l -0.033,0.018 c -0.015,0.008 -0.031,0.017 -0.047,0.026 l -0.039,0.024 -0.036,0.024 -0.038,0.027 -0.029,0.023 c -0.014,0.011 -0.027,0.021 -0.04,0.033 l -0.028,0.024 c -0.012,0.012 -0.024,0.024 -0.037,0.035 l -0.008,0.01 -0.012,0.016 -0.013,0.027 -0.005,0.016 0,0.021 0.006,0.019 0.011,0.017 0.016,0.015 c 0.007,0.001 0.014,0.003 0.021,0.004 l 0.019,0 c 0.029,-0.003 0.057,-0.007 0.086,-0.011 0.045,-0.007 0.09,-0.017 0.133,-0.031 0.041,-0.012 0.082,-0.027 0.121,-0.044 0.025,-0.011 0.049,-0.023 0.072,-0.035 0.014,-0.008 0.027,-0.015 0.04,-0.023 l 0.022,-0.014 0.021,-0.014 0.019,-0.013 0.02,-0.016 0.019,-0.015 0.022,-0.019 c 0.011,-0.009 0.022,-0.019 0.033,-0.029 l 0.017,-0.017 0.015,-0.017 0.017,-0.019 0.014,-0.017 0.015,-0.019 0.013,-0.018 0.013,-0.02 -10e-4,-0.069 -0.005,-0.029 c -0.003,-0.004 -0.006,-0.008 -0.009,-0.012 -0.007,-0.003 -0.013,-0.007 -0.019,-0.01 -0.008,0 -0.015,-10e-4 -0.022,-10e-4 -0.019,0.005 -0.037,0.011 -0.055,0.019 M 45.644,4.419 c 0.627,-0.081 1.261,-0.084 1.888,-0.011 0.58,0.071 1.166,0.082 1.748,0.032 0.239,-0.011 0.468,-0.097 0.656,-0.246 0.023,-0.005 0.046,-0.012 0.069,-0.02 0.179,-0.071 0.381,-0.045 0.537,0.068 0.015,0.012 0.031,0.025 0.048,0.036 0.233,0.181 0.509,0.298 0.802,0.341 L 51.423,4.616 C 51.471,4.61 51.515,4.587 51.547,4.55 51.558,4.537 51.567,4.521 51.57,4.505 51.574,4.487 51.567,4.469 51.552,4.458 51.208,4.409 50.926,4.16 50.835,3.825 50.743,3.489 50.86,3.131 51.132,2.914 51.324,2.794 51.553,2.749 51.776,2.785 51.788,2.782 51.801,2.779 51.813,2.775 51.826,2.771 51.839,2.765 51.85,2.756 51.32,2.131 51.059,1.322 51.125,0.505 c 0.018,-0.329 0.173,-0.636 0.427,-0.847 0.255,-0.21 0.585,-0.305 0.913,-0.261 0.011,0.005 0.023,0.009 0.036,0.011 0.033,0.002 0.065,-0.003 0.096,-0.014 0.032,-0.01 0.066,-0.016 0.1,-0.016 0.076,0.007 0.148,-0.035 0.179,-0.104 -0.29,-0.177 -0.558,-0.387 -0.798,-0.627 -0.001,-0.012 0,-0.025 0.002,-0.037 -0.002,-0.004 -0.008,-0.006 -0.012,-0.005 -0.031,0.023 -0.056,0.052 -0.073,0.086 -0.005,0.009 -0.008,0.019 -0.007,0.029 0,0.006 0.002,0.011 0.005,0.016 0.006,0.008 0.009,0.019 0.009,0.029 -0.001,0.018 -0.006,0.035 -0.015,0.051 -0.022,0.038 -0.047,0.075 -0.072,0.111 -0.035,0.042 -0.071,0.084 -0.109,0.124 -0.122,0.091 -0.281,0.118 -0.427,0.07 -0.145,-0.048 -0.257,-0.164 -0.301,-0.31 -0.04,-0.052 -0.068,-0.113 -0.082,-0.177 l -0.195,-1.32 0.37,-1.057 c 0.004,-0.01 0.011,-0.018 0.019,-0.025 0.015,-0.011 0.031,-0.021 0.046,-0.03 0.019,-0.011 0.034,-0.027 0.044,-0.047 0.023,-0.057 0.044,-0.115 0.065,-0.173 0.036,-0.081 0.054,-0.169 0.054,-0.258 0.003,-0.056 -0.007,-0.112 -0.028,-0.164 -0.444,0.127 -0.891,0.247 -1.339,0.361 -0.01,0.039 -0.011,0.08 -0.006,0.12 0.148,0.351 0.348,0.678 0.593,0.97 0.012,0.027 0.023,0.055 0.032,0.083 0.005,0.021 0.005,0.043 -0.001,0.063 -0.018,0.054 -0.043,0.105 -0.074,0.153 -0.051,0.096 -0.148,0.16 -0.257,0.17 -0.068,0.005 -0.137,0.002 -0.204,-0.011 -0.805,-0.127 -1.453,-0.726 -1.643,-1.518 -0.009,-0.007 -0.019,-0.012 -0.03,-0.016 -0.025,-0.006 -0.051,-0.011 -0.076,-0.014 -0.01,-0.001 -0.02,-0.004 -0.028,-0.01 -0.01,-0.008 -0.017,-0.019 -0.021,-0.031 -0.005,-0.002 -0.01,-0.002 -0.014,0 -0.128,0.241 -0.348,0.421 -0.609,0.499 -0.013,0.019 -0.019,0.043 -0.018,0.066 0.002,0.034 0.012,0.067 0.028,0.097 0.366,0.319 0.796,0.555 1.261,0.693 0.018,0.012 0.033,0.026 0.047,0.041 0.009,0.011 0.02,0.02 0.033,0.027 0.024,0.01 0.049,0.016 0.076,0.017 0.027,0.001 0.055,0.009 0.08,0.021 0.076,0.045 0.156,0.084 0.239,0.115 0.163,0.058 0.282,0.197 0.316,0.366 0.005,0.027 0.012,0.054 0.021,0.081 l 0.009,0.034 c 0.006,0.025 0,0.051 -0.015,0.071 -0.037,0.049 -0.082,0.092 -0.132,0.128 -0.667,0.237 -1.378,0.32 -2.08,0.242 -0.01,0.001 -0.019,0 -0.028,-10e-4 -0.012,-0.001 -0.023,-0.001 -0.035,-0.001 0.009,0.092 -0.002,0.185 -0.032,0.272 -0.02,0.048 -0.037,0.098 -0.05,0.149 -0.014,0.049 -0.01,0.101 0.009,0.148 0.003,0.008 0.01,0.014 0.019,0.015 0.009,0.001 0.02,0 0.029,-0.004 0.023,-0.009 0.046,-0.018 0.068,-0.028 0.01,-0.004 0.02,-0.006 0.029,-0.006 0.014,0.001 0.028,-10e-4 0.041,-0.004 0.046,-0.014 0.09,-0.031 0.133,-0.053 0.162,-0.074 0.316,-0.166 0.458,-0.273 l 0.454,-0.138 0.198,0.009 c 0.085,-0.003 0.169,0.026 0.235,0.08 0.138,0.127 0.242,0.286 0.304,0.463 0.013,0.054 0.025,0.109 0.035,0.163 0.22,0.884 -0.004,1.82 -0.6,2.508 -0.269,0.3 -0.661,0.46 -1.063,0.433 C 47.534,2.102 47.305,2.085 47.076,2.059 45.917,1.821 44.765,1.545 43.623,1.231 41.626,0.637 39.468,0.963 37.736,2.121 35.282,4.377 31.592,4.63 28.854,2.729 27.746,1.983 26.663,1.2 25.606,0.383 24.003,-0.69 22.028,-1.053 20.148,-0.622 19,-0.398 17.88,-0.048 16.808,0.421 16.703,0.645 16.683,0.9 16.749,1.139 c 0.067,0.238 0.217,0.445 0.423,0.584 0.068,0.077 0.095,0.183 0.069,0.283 -0.025,0.1 -0.098,0.182 -0.196,0.217 C 17.012,2.238 16.974,2.24 16.939,2.228 16.888,2.21 16.838,2.185 16.792,2.155 16.755,2.131 16.716,2.111 16.674,2.098 16.528,2.058 16.395,1.985 16.283,1.883 L 15.752,1.405 15.442,0.789 15.41,0.201 c 0.029,-0.529 -0.186,-1.044 -0.584,-1.394 -0.008,0.002 -0.015,0.004 -0.021,0.007 -0.006,0.004 -0.01,0.009 -0.013,0.015 -0.003,0.006 -0.005,0.012 -0.007,0.019 -0.007,0.034 -0.013,0.068 -0.016,0.103 -0.009,0.155 -0.071,0.302 -0.176,0.416 -0.151,0.215 -0.406,0.333 -0.668,0.31 -0.262,-0.023 -0.491,-0.184 -0.602,-0.422 -0.196,-0.373 -0.419,-0.731 -0.668,-1.07 -0.014,-0.007 -0.03,-0.01 -0.046,-0.007 -0.011,0.001 -0.023,0.004 -0.034,0.007 -0.349,0.239 -0.785,0.313 -1.193,0.202 C 9.641,-2.274 7.825,-2.713 5.974,-2.919 5.776,-2.947 5.594,-3.045 5.461,-3.195 5.328,-3.345 5.253,-3.538 5.251,-3.739 5.282,-3.96 5.288,-4.184 5.268,-4.407 5.087,-4.248 4.888,-4.11 4.676,-3.995 4.672,-3.99 4.669,-3.984 4.669,-3.977 c 0.004,0.012 0.008,0.024 0.01,0.036 0.006,0.031 0.009,0.061 0.009,0.092 0,0.023 0.007,0.045 0.019,0.064 0.017,0.02 0.039,0.035 0.064,0.043 0.222,0.243 0.421,0.504 0.595,0.782 0.058,0.093 0.086,0.201 0.082,0.31 0.006,0.103 -0.035,0.203 -0.113,0.27 -0.077,0.068 -0.182,0.096 -0.283,0.075 -0.536,-0.097 -1.078,-0.162 -1.622,-0.193 0.072,0.333 -0.024,0.679 -0.258,0.926 0.285,0.141 0.473,0.423 0.495,0.74 C 3.689,-0.515 3.541,-0.209 3.279,-0.03 3.275,-0.017 3.266,-0.007 3.254,-0.001 3.242,0.005 3.229,0.009 3.215,0.013 3.198,0.017 3.18,0.025 3.165,0.035 3.143,0.052 3.131,0.077 3.131,0.104 3.13,0.124 3.128,0.143 3.124,0.163 L 3.122,0.182 c 0.114,0.086 0.237,0.16 0.366,0.222 0.007,0 0.014,0 0.021,-0.002 C 3.538,0.404 3.566,0.396 3.589,0.378 3.612,0.36 3.627,0.335 3.632,0.306 3.542,-0.011 3.62,-0.351 3.839,-0.596 c 0.219,-0.246 0.548,-0.362 0.873,-0.309 2.341,0.325 4.523,1.37 6.243,2.992 0.375,0.51 0.739,1.029 1.09,1.556 0.04,-0.334 0.16,-0.653 0.349,-0.931 0.096,-0.145 0.28,-0.205 0.443,-0.144 0.252,0.275 0.528,0.527 0.826,0.751 0.122,-0.234 0.146,-0.507 0.068,-0.759 0.01,-0.114 0.076,-0.215 0.175,-0.271 0.03,-0.017 0.065,-0.022 0.098,-0.012 0.011,0.003 0.021,0.005 0.032,0.006 0.033,10e-4 0.067,0 0.099,-0.002 0.006,-0.001 0.012,-0.001 0.018,0 0.875,0.5 1.597,1.23 2.087,2.111 0.336,-0.285 0.639,-0.607 0.905,-0.959 0.141,-0.044 0.295,-0.031 0.428,0.035 0.368,0.305 0.661,0.692 0.854,1.129 0.016,0.015 0.034,0.026 0.054,0.035 0.026,0.011 0.055,0.014 0.083,0.01 0.396,-0.3 0.812,-0.572 1.245,-0.815 0.127,0.004 0.248,0.056 0.34,0.145 0.003,0.016 0.007,0.032 0.012,0.049 0.032,0.086 0.058,0.174 0.077,0.263 0.011,0.104 0.024,0.208 0.039,0.311 l 0.124,0.618 c 0.009,0.044 0.039,0.079 0.081,0.094 0.041,0.015 0.088,0.008 0.122,-0.02 l 0.363,-0.29 c 0.126,-0.114 0.272,-0.205 0.43,-0.268 0.032,-0.003 0.065,0.002 0.094,0.014 0.071,0.032 0.138,0.072 0.2,0.119 0.033,0.025 0.059,0.058 0.074,0.096 0.063,0.46 0.143,0.918 0.24,1.372 0.09,0.351 0.137,0.711 0.141,1.072 0.281,-0.085 0.572,-0.131 0.865,-0.138 0.275,-0.052 0.558,0.038 0.754,0.239 -0.131,0.356 -0.173,0.739 -0.122,1.115 2.916,-1.256 6.188,-1.418 9.215,-0.456 1.979,0.54 4.075,0.489 6.026,-0.148 l 0.474,0.083 c 0.286,0.048 0.548,0.194 0.74,0.412 0.039,0.043 0.076,0.086 0.114,0.13 0.316,0.334 0.522,0.756 0.591,1.211 l 0.098,0.526 c 0.063,0.338 0.025,0.688 -0.109,1.006 -0.084,0.19 -0.155,0.386 -0.209,0.587 -0.168,0.232 -0.349,0.454 -0.545,0.663 L 39.554,13.02 C 38.326,13.818 36.84,14.115 35.4,13.852 34.503,13.68 33.62,13.437 32.761,13.127 L 31.557,12.741 31.01,12.639 30.737,12.567 c -1.126,-0.307 -2.316,-0.276 -3.425,0.087 -0.979,0.29 -1.75,1.047 -2.057,2.021 -0.494,1.407 -0.002,2.97 1.208,3.842 0.306,0.233 0.641,0.428 0.994,0.58 2.17,0.855 4.605,0.72 6.667,-0.371 -2.049,1.001 -4.418,1.122 -6.557,0.334 -0.376,-0.161 -0.732,-0.365 -1.062,-0.607 -1.102,-0.877 -1.565,-2.333 -1.172,-3.686 0.345,-0.909 1.088,-1.61 2.016,-1.902 1.063,-0.323 2.195,-0.348 3.271,-0.072 0.844,0.194 1.669,0.462 2.465,0.802 0.905,0.296 1.83,0.524 2.768,0.683 1.208,0.195 2.446,0.009 3.543,-0.531 1.251,-0.609 2.058,-1.863 2.094,-3.253 0.053,-0.5 -0.001,-1.005 -0.158,-1.483 -0.334,-0.609 -0.419,-1.324 -0.236,-1.995 0.183,-0.67 0.62,-1.244 1.217,-1.599 1.042,-0.528 2.171,-0.866 3.331,-0.998 M 28.316,0.976 c 1.182,1.032 2.627,1.717 4.174,1.979 L 32.385,1.794 c -0.291,-0.938 -0.806,-1.792 -1.5,-2.486 -0.015,-0.005 -0.029,-0.009 -0.044,-0.012 -0.008,-0.003 -0.017,-0.003 -0.025,-0.003 -0.274,0.312 -0.612,0.562 -0.992,0.731 -0.168,0.128 -0.388,0.167 -0.59,0.104 -0.202,-0.063 -0.361,-0.22 -0.427,-0.421 -0.241,0.37 -0.708,0.518 -1.118,0.355 -0.356,-0.207 -0.648,-0.509 -0.84,-0.874 -0.023,-0.076 -0.014,-0.158 0.023,-0.229 0.037,-0.07 0.1,-0.123 0.176,-0.147 0.358,0.06 0.726,-0.012 1.036,-0.201 -0.003,-0.165 0.033,-0.328 0.104,-0.477 -0.361,0.114 -0.755,0.047 -1.057,-0.181 -0.303,-0.229 -0.476,-0.589 -0.466,-0.967 -0.535,-0.257 -0.884,-0.788 -0.905,-1.381 0,-0.012 10e-4,-0.024 0.002,-0.036 0.014,-0.093 0.058,-0.178 0.128,-0.242 0.031,-0.026 0.072,-0.04 0.113,-0.037 0.036,0.002 0.072,0.006 0.107,0.013 0.02,0.005 0.04,0.009 0.06,0.013 0.231,0.036 0.458,0.088 0.681,0.157 0.107,0.032 0.207,0.086 0.291,0.159 0.071,0.053 0.155,0.086 0.244,0.095 0.33,-0.476 0.95,-0.653 1.482,-0.425 0.033,-0.177 0.113,-0.342 0.231,-0.478 0.004,-0.008 0.007,-0.017 0.009,-0.025 0.003,-0.02 0.001,-0.041 -0.006,-0.06 -0.011,-0.03 -0.026,-0.059 -0.043,-0.086 l -0.363,-0.605 c -0.071,-0.128 -0.087,-0.279 -0.048,-0.42 0.04,-0.14 0.134,-0.26 0.261,-0.332 0.55,0.05 1.063,0.298 1.442,0.699 0.014,0.007 0.029,0.011 0.044,0.01 0.328,-0.168 0.715,-0.179 1.052,-0.029 0.336,0.15 0.586,0.444 0.681,0.801 10e-4,0.111 -0.012,0.222 -0.039,0.33 -0.012,0.052 -0.016,0.107 -0.01,0.16 0.005,0.028 0.016,0.055 0.034,0.078 0.029,0.036 0.046,0.081 0.045,0.128 0,0.076 0.004,0.152 0.012,0.227 0.004,0.027 0.012,0.053 0.024,0.077 0.004,0.008 0.011,0.015 0.018,0.021 0.008,0.004 0.015,0.007 0.024,0.006 0.16,-0.247 0.411,-0.423 0.698,-0.491 0.125,-0.407 0.097,-0.846 -0.079,-1.233 0.113,-0.114 0.264,-0.183 0.424,-0.195 0.161,-0.012 0.32,0.034 0.449,0.129 0.532,0.283 0.819,0.878 0.711,1.47 0.247,0.26 0.376,0.609 0.357,0.967 -0.019,0.357 -0.184,0.691 -0.457,0.923 0.166,0.536 0.629,0.925 1.184,0.997 0.097,-0.021 0.189,-0.06 0.272,-0.114 0.039,-0.027 0.068,-0.066 0.084,-0.111 0.016,-0.048 0.035,-0.094 0.058,-0.139 0.026,-0.044 0.054,-0.086 0.084,-0.126 0.039,-0.046 0.096,-0.074 0.157,-0.076 0.213,-0.023 0.419,0.084 0.522,0.272 0.017,0.034 0.034,0.069 0.049,0.104 0.105,0.388 0.111,0.797 0.02,1.189 0.028,0.055 0.082,0.092 0.143,0.101 0.013,0.003 0.025,0.003 0.038,0.001 0.289,-0.248 0.484,-0.588 0.554,-0.963 0.068,-0.059 0.159,-0.083 0.246,-0.064 0.088,0.019 0.161,0.079 0.197,0.16 0.384,0.613 0.484,1.362 0.273,2.054 0.516,-0.16 1.035,-0.307 1.559,-0.438 2.028,-0.5 4.166,-0.288 6.056,0.602 0.655,0.3 1.385,0.396 2.095,0.275 0.104,-0.047 0.197,-0.114 0.274,-0.198 0.031,-0.029 0.065,-0.056 0.101,-0.08 0.035,-0.025 0.063,-0.061 0.078,-0.101 0.007,-0.013 0.014,-0.026 0.02,-0.039 0.146,-0.374 0.212,-0.773 0.196,-1.173 -0.005,-0.023 -0.013,-0.045 -0.024,-0.066 -0.014,-0.029 -0.042,-0.049 -0.074,-0.053 -0.009,-0.001 -0.017,-0.001 -0.026,0 -0.301,0.204 -0.643,0.34 -1.002,0.397 l -0.036,0.006 c -0.331,0.073 -0.677,-0.026 -0.92,-0.263 l -0.368,-0.364 c -0.086,-0.081 -0.184,-0.148 -0.29,-0.199 -0.125,-0.059 -0.247,-0.126 -0.364,-0.2 -0.03,-0.02 -0.057,-0.043 -0.084,-0.067 -0.005,-0.005 -0.01,-0.009 -0.016,-0.013 -0.209,-0.22 -0.334,-0.507 -0.353,-0.811 -0.003,-0.013 -0.008,-0.026 -0.013,-0.039 -0.014,-0.035 -0.026,-0.071 -0.036,-0.107 -0.025,-0.109 0.002,-0.223 0.073,-0.309 0.07,-0.086 0.177,-0.135 0.288,-0.133 l 1.108,0.39 c -0.03,-0.156 0.011,-0.317 0.113,-0.439 0.103,-0.122 0.255,-0.19 0.414,-0.187 -0.311,-0.398 -0.343,-0.946 -0.081,-1.377 -0.12,-0.039 -0.234,-0.093 -0.34,-0.162 -0.053,-0.045 -0.095,-0.102 -0.123,-0.166 -0.009,-0.02 -0.018,-0.041 -0.025,-0.063 l -0.118,-0.347 c -0.084,-0.252 -0.09,-0.523 -0.016,-0.777 0.011,-0.046 0.03,-0.091 0.057,-0.131 0.017,-0.026 0.045,-0.042 0.077,-0.044 0.022,-0.002 0.045,-0.006 0.066,-0.011 0.479,0.123 0.917,0.372 1.267,0.722 0.516,-0.227 1.121,-0.066 1.457,0.388 0.184,-0.062 0.369,-0.12 0.556,-0.173 -0.308,-0.35 -0.372,-0.852 -0.161,-1.267 0.155,-0.257 0.394,-0.453 0.677,-0.554 0.032,-0.01 0.067,-0.007 0.097,0.008 0.048,0.021 0.09,0.053 0.124,0.093 0.15,0.419 0.286,0.843 0.408,1.272 0.222,-0.147 0.501,-0.176 0.748,-0.08 0.247,0.097 0.433,0.307 0.497,0.565 0.004,0.008 0.006,0.017 0.008,0.026 l 0.094,0.459 c 0.086,0.411 -0.01,0.839 -0.263,1.175 -0.182,0.19 -0.292,0.438 -0.312,0.702 -0.002,0.022 -0.003,0.044 -0.002,0.066 0.001,0.005 0.003,0.01 0.006,0.014 0.007,10e-4 0.014,0.005 0.018,0.011 0.007,0.017 0.008,0.036 0.001,0.053 -0.007,0.018 -0.014,0.035 -0.022,0.052 -0.008,0.017 -0.011,0.036 -0.008,0.054 0.005,0.021 0.018,0.04 0.037,0.051 0.228,-0.113 0.486,-0.154 0.738,-0.117 0.026,-0.012 0.042,-0.036 0.044,-0.064 0.002,-0.029 -10e-4,-0.058 -0.009,-0.087 -0.004,-0.018 -0.007,-0.036 -0.01,-0.055 -0.002,-0.011 0,-0.022 0.005,-0.032 0.017,-0.032 0.036,-0.063 0.056,-0.093 0.044,-0.06 0.072,-0.13 0.08,-0.204 0.031,-0.128 0.056,-0.256 0.077,-0.385 0.009,-0.034 0.025,-0.065 0.048,-0.092 0.038,-0.045 0.079,-0.088 0.124,-0.127 0.01,-0.008 0.022,-0.013 0.034,-0.016 0.061,-0.012 0.122,-0.01 0.182,0.006 0.021,0.009 0.041,0.022 0.059,0.037 0.026,0.023 0.055,0.045 0.084,0.066 0.151,0.096 0.295,0.204 0.428,0.324 0.072,0.075 0.134,0.159 0.184,0.251 0.016,0.03 0.028,0.062 0.034,0.096 0.007,0.034 0.017,0.067 0.03,0.099 0.086,0.185 0.124,0.389 0.11,0.593 -0.002,0.054 -0.021,0.106 -0.055,0.149 -0.025,0.032 -0.046,0.068 -0.062,0.106 -0.048,0.109 -0.122,0.205 -0.215,0.279 -0.006,0.005 -0.011,0.011 -0.014,0.018 0.219,0.371 0.233,0.828 0.037,1.212 -0.195,0.384 -0.574,0.641 -1.002,0.682 -0.155,-0.006 -0.311,-0.008 -0.466,-0.007 -0.04,0 -0.079,0 -0.118,0 -0.027,0 -0.052,0.01 -0.072,0.027 -0.022,0.024 -0.04,0.052 -0.053,0.082 -0.065,0.136 -0.092,0.286 -0.079,0.435 0.01,0.249 0.043,0.496 0.099,0.738 0.03,0.107 0.085,0.204 0.161,0.284 0.069,0.067 0.169,0.092 0.261,0.064 0.095,-0.027 0.184,-0.069 0.265,-0.124 0.038,-0.023 0.076,-0.044 0.115,-0.064 0.095,-0.047 0.207,-0.043 0.298,0.01 0.091,0.053 0.15,0.148 0.156,0.253 -0.014,0.781 -0.574,1.445 -1.341,1.591 0.392,0.066 0.794,0.043 1.175,-0.068 0.009,0.007 0.016,0.015 0.022,0.025 0.019,0.032 0.035,0.066 0.048,0.102 0.011,0.029 0.026,0.056 0.047,0.08 0.007,0.007 0.014,0.013 0.022,0.018 0.016,0.008 0.025,0.025 0.025,0.042 -10e-4,0.021 -0.007,0.042 -0.016,0.061 -0.005,0.009 -0.01,0.019 -0.014,0.028 C 53.162,4.577 52.638,5.201 51.916,5.399 51.319,5.652 50.633,5.56 50.124,5.16 49.041,5.34 47.937,5.337 46.855,5.153 45.64,5.166 44.437,5.4 43.305,5.844 c -0.545,0.194 -0.98,0.613 -1.197,1.15 -0.215,0.537 -0.19,1.141 0.07,1.658 l 0.103,0.298 c 0.014,0.229 0.055,0.456 0.121,0.676 0.029,0.127 0.048,0.255 0.057,0.385 0.127,1.159 -0.189,2.323 -0.884,3.26 -0.696,0.936 -1.72,1.574 -2.867,1.787 -0.791,0.217 -1.618,0.265 -2.429,0.142 -2.175,-0.394 -4.318,-0.941 -6.415,-1.639 -0.98,-0.296 -2.042,-0.085 -2.833,0.564 -0.575,0.411 -0.915,1.074 -0.913,1.78 0.002,0.706 0.346,1.367 0.923,1.775 1.404,1.039 3.202,1.393 4.896,0.961 1.232,-0.2 2.427,-0.589 3.54,-1.155 0.317,-0.185 0.593,-0.433 0.812,-0.728 0.069,-0.089 0.141,-0.176 0.216,-0.261 0.113,-0.122 0.266,-0.199 0.432,-0.216 0.053,-0.006 0.106,-0.007 0.159,-0.004 0.042,0.003 0.083,0.002 0.125,-0.001 0.25,-0.017 0.492,0.091 0.646,0.288 1.377,-0.927 3.159,-1.001 4.608,-0.191 0.719,-0.295 1.543,-0.153 2.121,0.367 0.425,-0.08 0.864,0.037 1.194,0.318 0.122,0.153 0.144,0.364 0.055,0.539 -0.485,0.918 -1.513,1.411 -2.532,1.215 -0.665,0.462 -1.512,0.574 -2.274,0.301 -0.966,0.533 -2.142,0.519 -3.096,-0.037 -0.264,0.177 -0.586,0.244 -0.899,0.187 -0.313,-0.057 -0.591,-0.235 -0.775,-0.494 -1.343,0.619 -2.734,1.128 -4.16,1.52 -1.934,0.454 -3.967,0.198 -5.727,-0.722 -1.228,-0.683 -2.037,-1.93 -2.16,-3.33 -0.122,-1.399 0.457,-2.768 1.547,-3.654 1.56,-0.913 3.401,-1.219 5.172,-0.861 0.104,0.019 0.207,0.044 0.309,0.072 0.32,0.103 0.647,0.182 0.979,0.238 l 1.208,0.357 c 0.802,0.305 1.644,0.494 2.5,0.562 1.112,0.193 2.251,-0.133 3.092,-0.885 0.434,-0.34 0.741,-0.815 0.873,-1.349 C 40.03,10.186 39.853,9.628 39.443,9.269 39.357,9.216 39.269,9.166 39.18,9.119 39.154,9.108 39.127,9.1 39.099,9.095 37.313,9.687 35.401,9.791 33.561,9.394 32.52,9.108 31.467,8.866 30.405,8.669 28.446,8.362 26.439,8.602 24.607,9.362 c -0.002,0.023 0.003,0.046 0.017,0.064 0.451,0.267 0.785,0.695 0.935,1.198 -0.011,0.119 -0.091,0.22 -0.204,0.256 -1.641,0.086 -3.14,0.959 -4.023,2.345 0.188,0.134 0.306,0.344 0.322,0.574 0.016,0.23 -0.072,0.455 -0.24,0.614 -0.584,0.604 -1.248,1.125 -1.974,1.55 -0.004,0.006 -0.007,0.014 -0.008,0.022 0.189,0 0.377,0.031 0.558,0.089 0.07,0.033 0.126,0.091 0.155,0.164 0.03,0.072 0.032,0.153 0.005,0.226 -0.667,1.04 -1.829,1.655 -3.064,1.623 l -0.015,0.682 c -0.018,0.135 -0.106,0.25 -0.232,0.303 -0.125,0.053 -0.269,0.036 -0.378,-0.045 L 16.009,18.692 C 15.542,18.333 14.996,18.09 14.417,17.982 14.137,17.906 13.857,17.826 13.579,17.743 13.315,17.68 13.05,17.624 12.783,17.577 12.362,17.455 11.991,17.204 11.721,16.859 11.638,16.707 11.525,16.574 11.389,16.466 11.036,16.459 10.684,16.432 10.334,16.388 10.063,16.327 9.813,16.194 9.61,16.005 9.555,15.971 9.493,15.948 9.429,15.937 9.029,15.944 8.631,15.879 8.253,15.744 7.849,15.545 7.637,15.09 7.744,14.652 L 7.925,14.119 C 7.962,14.018 8.018,13.925 8.09,13.846 8.229,13.663 8.333,13.456 8.399,13.236 8.405,13.208 8.406,13.179 8.4,13.151 8.396,13.123 8.399,13.094 8.41,13.068 8.477,12.905 8.576,12.756 8.701,12.63 8.709,12.623 8.717,12.617 8.725,12.61 8.745,12.595 8.768,12.583 8.793,12.577 8.453,12.485 8.119,12.376 7.791,12.249 7.398,12.023 7.154,11.607 7.148,11.153 c 0.031,-0.235 0.09,-0.465 0.177,-0.686 0.003,-0.005 0.006,-0.01 0.009,-0.014 0.024,-0.034 0.061,-0.054 0.102,-0.057 0.046,-0.003 0.093,0 0.14,0.006 0.025,0.003 0.051,0.003 0.077,-10e-4 0.143,0.251 0.389,0.427 0.674,0.479 0.569,0.025 1.138,-0.043 1.686,-0.2 C 9.542,10.496 9.243,10.029 9.273,9.523 9.299,9.167 9.456,8.832 9.713,8.584 9.971,8.336 10.312,8.192 10.669,8.181 c 0.021,-0.005 0.043,-0.004 0.064,0 0.067,0.012 0.135,0.019 0.203,0.021 0.098,0.006 0.19,0.051 0.257,0.123 0.067,0.073 0.102,0.169 0.1,0.267 0.001,0.071 0,0.141 -10e-4,0.212 -10e-4,0.015 0.002,0.03 0.007,0.044 0.006,0.014 0.018,0.024 0.032,0.029 0.015,0.004 0.032,0.006 0.048,0.005 0.037,-0.002 0.073,-0.003 0.109,-0.002 0.011,10e-4 0.022,0.003 0.033,0.006 0.026,0.007 0.055,-10e-4 0.073,-0.022 0.017,-0.021 0.031,-0.044 0.042,-0.068 0.017,-0.032 0.039,-0.061 0.067,-0.085 0.04,-0.036 0.073,-0.08 0.096,-0.129 0.021,-0.063 0.028,-0.13 0.02,-0.196 C 11.814,8.335 11.81,8.285 11.805,8.234 11.567,7.735 11.334,7.233 11.107,6.728 9.068,7.438 7.258,8.686 5.871,10.34 c 0.395,0.21 0.693,0.565 0.832,0.991 0.138,0.425 0.104,0.888 -0.093,1.29 0.301,0.546 0.225,1.222 -0.19,1.688 C 6.326,14.388 6.203,14.424 6.082,14.407 5.96,14.39 5.852,14.322 5.784,14.22 5.541,13.927 5.385,13.571 5.334,13.194 5.122,13.217 4.907,13.189 4.708,13.112 4.881,13.455 4.884,13.859 4.716,14.205 4.548,14.551 4.229,14.799 3.853,14.876 3.532,15.41 2.973,15.755 2.352,15.804 2.333,15.796 2.314,15.791 2.294,15.787 2.27,15.783 2.249,15.769 2.236,15.749 2.232,15.742 2.227,15.736 2.224,15.73 L 2.215,15.715 C 2.056,15.232 2.105,14.705 2.351,14.26 1.922,13.875 1.791,13.257 2.028,12.732 2.03,12.722 2.031,12.711 2.028,12.7 2.026,12.69 2.019,12.681 2.009,12.676 1.845,12.683 1.68,12.675 1.517,12.653 1.511,12.654 1.504,12.656 1.498,12.658 1.11,13.129 0.47,13.309 -0.107,13.111 -0.122,13.104 -0.136,13.094 -0.148,13.082 -0.203,13.029 -0.261,12.978 -0.322,12.929 -0.345,12.908 -0.364,12.883 -0.378,12.855 -0.421,12.779 -0.452,12.696 -0.47,12.609 -0.283,12.135 -0.009,11.699 0.34,11.327 0.233,10.938 0.278,10.523 0.467,10.166 0.655,9.809 0.972,9.537 1.354,9.406 1.219,9.261 1.159,9.061 1.192,8.866 1.191,8.861 1.189,8.857 1.188,8.853 0.915,9.04 0.616,9.189 0.302,9.294 0.282,9.297 0.262,9.298 0.242,9.297 0.152,9.303 0.065,9.264 0.01,9.193 -0.292,8.829 -0.342,8.319 -0.117,7.903 0.107,7.487 0.561,7.249 1.031,7.301 1.07,7.087 1.185,6.896 1.354,6.76 1.522,6.624 1.734,6.553 1.951,6.561 2.462,6.592 2.955,6.757 3.381,7.04 3.448,7.047 3.514,7.058 3.578,7.073 3.604,7.079 3.632,7.074 3.654,7.061 4.263,6.198 4.828,5.305 5.349,4.387 5.366,4.303 5.354,4.216 5.313,4.141 5.272,4.066 5.207,4.008 5.127,3.976 5.065,3.955 4.999,3.946 4.933,3.948 4.864,3.951 4.794,3.936 4.732,3.905 4.697,3.89 4.664,3.871 4.634,3.849 4.599,3.818 4.576,3.774 4.57,3.728 4.537,3.558 4.57,3.381 4.665,3.236 4.922,2.93 5.268,2.71 5.655,2.607 6.042,2.496 6.454,2.509 6.833,2.645 6.839,2.642 6.844,2.637 6.848,2.632 6.555,2.579 6.283,2.444 6.063,2.244 5.976,2.126 5.953,1.973 6.003,1.835 6.052,1.697 6.168,1.593 6.31,1.558 6.675,1.289 7.088,1.091 7.526,0.977 6.666,0.482 5.711,0.176 4.724,0.077 4.696,0.106 4.67,0.137 4.648,0.171 4.643,0.179 4.637,0.187 4.63,0.194 4.499,0.479 4.371,0.765 4.246,1.052 4.173,1.263 4.021,1.438 3.822,1.542 3.624,1.645 3.394,1.669 3.178,1.608 2.778,2.169 2.086,2.442 1.411,2.307 1.276,2.279 1.157,2.202 1.076,2.09 1.06,2.065 1.047,2.038 1.039,2.009 1.205,1.564 1.501,1.18 1.888,0.906 1.918,0.855 1.927,0.795 1.912,0.738 1.897,0.681 1.86,0.632 1.81,0.603 1.553,0.818 1.264,0.992 0.954,1.119 0.722,1.211 0.46,1.188 0.247,1.056 0.035,0.925 -0.103,0.7 -0.124,0.451 -0.518,0.658 -0.985,0.668 -1.388,0.479 -1.79,0.29 -2.081,-0.077 -2.173,-0.512 c 0.02,-0.122 0.118,-0.216 0.241,-0.23 0.533,-0.194 1.115,-0.204 1.655,-0.029 -0.089,-0.288 -0.042,-0.6 0.126,-0.85 C 0.018,-1.87 0.29,-2.03 0.59,-2.056 0.552,-2.22 0.553,-2.39 0.592,-2.553 0.186,-2.426 -0.256,-2.519 -0.577,-2.797 l -0.293,-0.3 c -0.027,-0.036 -0.05,-0.076 -0.066,-0.119 -0.016,-0.04 -0.035,-0.079 -0.057,-0.115 -0.11,-0.161 -0.088,-0.377 0.051,-0.513 0.043,-0.043 0.099,-0.071 0.16,-0.079 0.01,-10e-4 0.02,-0.003 0.031,-0.004 0.55,-0.207 1.167,-0.127 1.646,0.214 -0.022,-0.329 0.133,-0.644 0.406,-0.829 0.273,-0.184 0.624,-0.209 0.921,-0.065 0.325,0.229 0.643,0.468 0.955,0.715 0.01,0.006 0.02,0.01 0.031,0.013 0.006,0.002 0.013,0 0.017,-0.004 0.004,-0.004 0.008,-0.009 0.01,-0.015 C 3.243,-3.921 3.247,-3.946 3.248,-3.97 3.25,-4.039 3.253,-4.109 3.257,-4.178 3.259,-4.189 3.26,-4.201 3.261,-4.213 3.26,-4.261 3.258,-4.31 3.253,-4.359 3.251,-4.383 3.253,-4.407 3.258,-4.431 3.264,-4.452 3.277,-4.47 3.293,-4.484 3.32,-4.506 3.346,-4.529 3.37,-4.553 3.393,-4.577 3.406,-4.607 3.408,-4.639 3.41,-4.656 3.411,-4.673 3.411,-4.69 3.338,-4.95 3.16,-5.168 2.92,-5.292 2.803,-5.322 2.694,-5.377 2.6,-5.452 2.576,-5.476 2.55,-5.497 2.521,-5.514 2.506,-5.524 2.492,-5.537 2.481,-5.551 2.476,-5.559 2.472,-5.568 2.471,-5.578 2.468,-5.593 2.46,-5.607 2.448,-5.617 2.433,-5.63 2.419,-5.643 2.405,-5.657 2.391,-5.671 2.383,-5.691 2.383,-5.711 2.385,-5.79 2.418,-5.865 2.475,-5.919 2.62,-6.068 2.803,-6.173 3.004,-6.224 c 0.316,-0.122 0.667,-0.12 0.982,0.004 0.316,0.124 0.573,0.363 0.721,0.668 0.296,-0.115 0.623,-0.116 0.919,-0.002 0.295,0.114 0.538,0.334 0.679,0.618 0.078,0.313 0.06,0.642 -0.051,0.944 -0.002,0.011 -0.003,0.022 -0.004,0.033 0,0.042 0.02,0.081 0.055,0.105 0.012,0.008 0.025,0.016 0.038,0.022 1.772,0.371 3.532,0.8 5.277,1.286 -0.026,-0.15 0.019,-0.303 0.121,-0.416 0.103,-0.113 0.252,-0.172 0.403,-0.16 0.238,0.013 0.466,0.098 0.654,0.243 0.456,0.396 0.822,0.885 1.073,1.434 0.107,-0.358 0.103,-0.74 -0.011,-1.097 0.03,-0.036 0.069,-0.066 0.112,-0.085 0.022,-0.01 0.046,-0.017 0.07,-0.019 0.045,-0.002 0.09,-0.003 0.135,-0.002 0.543,0.051 1.05,0.291 1.433,0.679 0.382,0.388 0.616,0.898 0.659,1.441 0.004,0.005 0.009,0.008 0.015,0.01 1.127,-0.47 2.286,-0.856 3.47,-1.155 1.841,-0.49 3.794,-0.336 5.536,0.436 1.168,0.491 2.204,1.249 3.026,2.213" style="fill:#d1050c;fill-opacity:1;fill-rule:nonzero;stroke:none" id="path250" inkscape:connector-curvature="0"/>
        </g>
      </g>
    </g>
    <g id="g252" style="fill:#d1050c;fill-opacity:1" transform="matrix(5.7823671,0,0,-5.7823671,-6517.5263,1537.0373)">
      <g id="g254" clip-path="url(#clipPath256)" style="fill:#d1050c;fill-opacity:1">
        <g id="g260" transform="translate(1189.7936,108.4771)" style="fill:#d1050c;fill-opacity:1">
          <path d="M 0,0 C -0.744,0.295 -1.581,0.237 -2.277,-0.157 -2.565,-0.27 -2.865,-0.353 -3.17,-0.403 -3.278,-0.43 -3.387,-0.456 -3.496,-0.479 -3.61,-0.503 -3.695,-0.596 -3.709,-0.711 c -0.014,-0.114 0.047,-0.225 0.152,-0.275 0.192,-0.091 0.402,-0.137 0.615,-0.135 0.483,0.029 0.965,0.082 1.443,0.158 0.538,0.002 1.05,-0.236 1.395,-0.65 0.012,-0.004 0.025,-0.005 0.038,-0.003 0.04,0.007 0.078,0.018 0.116,0.032 0.059,0.019 0.109,0.062 0.137,0.118 0.031,0.062 0.055,0.126 0.076,0.191 0.101,0.334 0.088,0.692 -0.038,1.017 C 0.165,-0.16 0.089,-0.073 0,0" style="fill:#d1050c;fill-opacity:1;fill-rule:nonzero;stroke:none" id="path262" inkscape:connector-curvature="0"/>
        </g>
        <g id="g264" transform="translate(1142.9279,91.8475)" style="fill:#d1050c;fill-opacity:1">
          <path d="M 0,0 0.567,-2.217 -1.014,-2.218 0,0 M 2.391,-4.911 0.393,1.276 0.669,1.825 C 0.674,1.823 0.678,1.82 0.682,1.816 0.69,1.804 0.697,1.791 0.702,1.778 0.707,1.763 0.711,1.748 0.715,1.733 l 2.648,-7.219 -0.972,0.575 m 11.798,-0.955 -6.374,8.918 0.513,0 6.013,-8.257 -0.152,-0.661 m 8.562,3.291 -0.322,-0.587 -3.464,6.164 0.538,0.017 3.248,-5.594 m 3.332,-2.513 0,8.125 0.57,0 0,-8.584 -0.57,0.459 m 8.182,5.113 0.567,-2.217 -1.58,-10e-4 1.013,2.218 m 2.391,-4.911 -1.997,6.187 0.276,0.55 c 0.005,-0.003 0.008,-0.006 0.013,-0.01 0.008,-0.011 0.015,-0.024 0.02,-0.038 0.005,-0.015 0.009,-0.03 0.013,-0.045 l 2.647,-7.219 -0.972,0.575 M 42.977,-5.62 42.372,-4.922 42.394,2.389 43,2.865 42.977,-5.62 m 2.861,5.554 c -0.18,-0.169 -0.406,-0.282 -0.65,-0.322 l -0.593,-0.005 -10e-4,2.732 0.613,0 C 45.43,2.301 45.636,2.197 45.798,2.038 46.06,1.753 46.209,1.381 46.216,0.993 46.224,0.606 46.089,0.229 45.838,-0.066 m 1.272,-0.252 c -0.223,-0.195 -0.475,-0.356 -0.747,-0.476 l -0.008,0.011 c 0.708,0.743 0.846,1.861 0.34,2.754 L 46.418,2.448 46.979,2.154 C 47.43,1.919 47.724,1.463 47.75,0.955 47.777,0.447 47.534,-0.037 47.11,-0.318 m -1.016,-0.606 -0.079,-0.369 2.308,-4.32 -0.634,-0.343 -2.243,4.704 0.648,0.328 m 6.598,-4.172 0.017,7.421 0.679,0.679 0,-8.547 -0.696,0.447 m 3.581,3.986 3.364,-4.515 -0.719,-0.003 -3.218,4.509 0.573,0.009 m -14.776,-3.796 -1.119,-0.807 -0.92,0.753 -3.207,8.884 -2.474,0 -3.345,-8.792 -1.084,-1.046 -0.838,0.992 0,7.334 1.341,1.487 -4.614,0 -2.056,-3.579 -2.079,3.579 -9.044,0 0.005,-0.594 1.27,-1.008 0,-3.044 -3.387,4.646 -3.887,0 0,-0.594 1.032,-0.791 0,-7.584 -0.946,-0.696 -0.953,0.781 -3.207,8.884 -2.474,0 -3.344,-8.792 -1.236,-1.193 0.003,-0.541 4.359,0 0,0.553 -1.145,1.121 0.53,0.926 2.364,0 0.471,-0.929 -1.15,-1.119 -0.013,-0.552 9.779,0 0.002,0.532 -1.175,0.911 -0.013,4.817 5.781,-7.661 0.661,0 0.002,10.317 1.166,1.036 1.152,-1.075 0.002,-7.233 -1.123,-1.091 0,-0.553 4.259,0.006 -0.01,0.547 -1.183,1.152 0,4.412 2.615,-4.14 0.404,0.008 2.422,4.095 -0.013,-4.375 c -0.27,-0.391 -0.544,-0.779 -0.822,-1.165 -0.015,-0.18 -0.016,-0.361 -0.003,-0.54 l 9.323,0 -0.017,0.578 -1.145,1.121 0.53,0.927 2.364,0 0.47,-0.93 -1.149,-1.119 0.01,-0.577 11.367,0 0,0.553 -1.314,1.152 0.016,2.394 0.249,0 2.253,-4.099 9.242,0 0.007,0.553 -1.222,1.153 -0.014,2.699 2.041,-2.7 -0.005,-1.705 4.773,0 0.001,0.553 -4.33,6.056 3.667,3.323 -10e-4,0.594 -4.363,0 0.006,-0.594 0.953,-0.656 -2.742,-2.636 10e-4,2.392 1.147,0.9 0.01,0.594 -5.759,0 0.008,-0.594 1.208,-0.597 -0.007,-7.63 c -0.299,-0.268 -0.605,-0.529 -0.916,-0.783 -0.514,0.358 -0.951,0.816 -1.284,1.347 l -1.555,2.79 c 10e-4,0.009 0.004,0.017 0.006,0.025 1.209,0.644 1.801,2.047 1.419,3.362 -0.381,1.315 -1.633,2.183 -2.998,2.08 l -6.241,0 0.003,-0.594 1.235,-0.919 -0.003,-7.292" style="fill:#d1050c;fill-opacity:1;fill-rule:nonzero;stroke:none" id="path266" inkscape:connector-curvature="0"/>
        </g>
        <g id="g268" transform="translate(1129.3121,94.1902)" style="fill:#d1050c;fill-opacity:1">
          <path d="M 0,0 0.687,0.476 0.685,-7.843 0.02,-7.365 0,0 M 2.388,-7.312 2.365,-0.031 3.33,-0.062 C 3.962,-0.26 4.479,-0.72 4.749,-1.325 5.362,-2.661 5.412,-4.188 4.886,-5.561 4.674,-6.362 4.08,-7.007 3.299,-7.283 L 2.388,-7.312 m 3.689,1.566 -0.513,-0.652 0.007,0.021 c 0.736,1.817 0.653,3.863 -0.228,5.614 0.174,-0.119 0.335,-0.257 0.48,-0.411 1.12,-1.287 1.225,-3.169 0.254,-4.572 m -2.193,7.303 -6.053,0 0,-0.595 1.235,-0.9 0.015,-7.435 -1.255,-1.044 10e-4,-0.549 6.344,0.003 0.07,0.011 c 1.278,0.2 2.44,0.861 3.265,1.858 0.825,0.997 1.256,2.261 1.212,3.555 -0.044,1.293 -0.56,2.526 -1.451,3.465 -0.89,0.939 -2.094,1.519 -3.383,1.631" style="fill:#d1050c;fill-opacity:1;fill-rule:nonzero;stroke:none" id="path270" inkscape:connector-curvature="0"/>
        </g>
      </g>
    </g>
  </g>
</svg>