<?xml version="1.0" encoding="UTF-8" standalone="no"?>
<svg
   xmlns:dc="http://purl.org/dc/elements/1.1/"
   xmlns:cc="http://creativecommons.org/ns#"
   xmlns:rdf="http://www.w3.org/1999/02/22-rdf-syntax-ns#"
   xmlns:svg="http://www.w3.org/2000/svg"
   xmlns="http://www.w3.org/2000/svg"
   viewBox="0 0 275.05334 264.72"
   height="264.72"
   width="275.05334"
   xml:space="preserve"
   id="svg2"
   version="1.1"><metadata
     id="metadata8"><rdf:RDF><cc:Work
         rdf:about=""><dc:format>image/svg+xml</dc:format><dc:type
           rdf:resource="http://purl.org/dc/dcmitype/StillImage" /></cc:Work></rdf:RDF></metadata><defs
     id="defs6" /><g
     transform="matrix(1.3333333,0,0,-1.3333333,0,264.72)"
     id="g10"><g
       transform="scale(0.1)"
       id="g12"><path
         id="path14"
         style="fill:#e22739;fill-opacity:1;fill-rule:nonzero;stroke:none"
         d="m 1567.89,195.16 10.3,0.012 c 11.7,-0.012 21.62,4.258 21.62,15.25 -0.01,7.808 -5.66,15.609 -21.62,15.617 -4.63,0 -7.79,-0.367 -10.29,-0.707 z m 0,-49.289 -14.18,0.008 v 89.012 c 7.44,1.07 14.53,2.14 25.19,2.14 13.47,0 22.34,-2.851 27.67,-6.742 5.31,-3.91 8.15,-9.93 8.15,-18.449 -0.01,-11.692 -7.82,-18.781 -17.4,-21.641 l 0.01,-0.699 c 7.82,-1.418 13.13,-8.512 14.91,-21.641 2.12,-13.82 4.25,-19.14 5.68,-21.98 h -14.91 c -2.14,2.84 -4.25,10.98 -6.04,22.691 -2.1,11.36 -7.78,15.602 -19.15,15.602 l -9.92,0.008 z m 14.9,113.848 c -35.1,0 -63.84,-30.129 -63.84,-67.387 0.01,-37.941 28.74,-67.73 64.2,-67.723 35.46,-0.367 63.85,29.789 63.85,67.371 0,37.602 -28.38,67.739 -63.85,67.739 z m 0.36,12.41 c 43.64,0 78.37,-35.457 78.38,-79.797 0,-45.031 -34.74,-80.141 -78.74,-80.141 -43.62,0 -79.07,35.11 -79.07,80.141 -0.01,44.348 35.44,79.809 79.08,79.797 h 0.35" /><path
         id="path16"
         style="fill:#ffffff;fill-opacity:1;fill-rule:nonzero;stroke:none"
         d="M 1919.82,1700.74 C 1781.88,1884.26 1561.8,1985.35 1300.06,1985.35 761.738,1985.35 197.129,1548.26 41.4063,1011.04 -38.3008,736.012 -2.16797,478.031 143.164,284.59 281.055,101.07 501.152,0 762.93,0 c 538.3,0 1102.89,437.07 1258.59,974.332 79.71,274.988 43.6,532.958 -101.7,726.408" /><path
         id="path18"
         style="fill:#154281;fill-opacity:1;fill-rule:nonzero;stroke:none"
         d="m 677.695,1354.49 0.743,0.61 0.937,0.13 5.254,0.86 308.516,50.02 8.145,1.31 1.42,0.26 1.18,-0.88 6.72,-4.81 42.53,-30.62 4.09,28.47 2.11,14.61 0.37,2.58 2.54,0.39 14.55,2.37 842.56,133.53 c -60.73,131.39 -162.74,234.1 -295.59,297.07 -138.2,65.49 -304.59,85.12 -481.17,56.78 -351.428,-56.43 -693.967,-293.71 -896.096,-619.85 l 352.266,56.82 26.308,4.24 4.649,0.74 -0.606,-4.65 -3.262,-26.44 -0.781,-6.27 c 14.57,11.81 48.516,39.37 48.496,39.35 l 4.121,3.38" /><path
         id="path20"
         style="fill:#e22739;fill-opacity:1;fill-rule:nonzero;stroke:none"
         d="m 168.32,1140.29 358.379,57.48 4.629,0.78 -0.547,-4.68 -14.746,-118.5 -0.312,-2.58 -2.578,-0.45 -225.274,-38.34 -9.629,-77.301 191.641,32.949 4.687,0.801 -0.586,-4.707 -15.117,-121.844 -0.312,-2.566 -2.578,-0.453 -193.75,-33.379 -10.879,-87.461 223.125,38.063 4.687,0.769 -0.586,-4.672 -15.176,-121.879 -0.332,-2.601 -2.578,-0.438 -371.3474,-59.57 c 8.7305,-46.02 21.8754,-90.492 39.1214,-132.313 l 991.528,159.102 9,1.43 -5.66,-7.11 c -9.61,-11.968 -17.76,-24.75 -24.2,-37.949 l -0.84,-1.621 -1.78,-0.289 -950.392,-152.492 c 8.301,-16.789 17.48,-33.489 27.441,-49.66 l 906.581,145.472 3.93,0.617 0.17,-3.957 c 0.47,-10.98 3.03,-21.722 7.62,-32.019 l 1.88,-4.184 -4.52,-0.699 -890.407,-142.91 c 11.953,-16.52 24.707,-32.559 38.164,-47.641 l 906.233,145.633 0.95,0.141 0.94,-0.364 c 4.73,-1.949 8.79,-3.367 12.81,-4.507 49.46,-14.141 114.56,-0.86 183.34,37.41 70.73,39.269 120.57,98.14 130.08,153.59 l 2.01,11.8 4.69,-11 21.06,-49.281 -0.18,0.301 c 33.09,-59.629 -12.97,-144.051 -107.15,-196.371 -94.22,-52.328 -190.23,-46.86 -223.18,12.461 l -4.73,6.847 -891.443,-143 C 347.715,175.582 439.961,124.262 546.777,94.8398 660.098,63.5898 784.18,58.4688 915.703,79.5508 1125.98,113.32 1333.11,210.449 1514.69,360.449 c 174.1,143.832 312.79,329.801 391.38,524.199 l -288.77,-46.41 -4.62,-0.738 0.58,4.691 65.29,524.629 0.34,2.57 2.61,0.45 217.21,34.81 4.61,0.74 -0.57,-4.65 -48.71,-391.27 98.4,15.78 c 10.49,41.45 18.3,82.15 23.11,120.94 16.11,131.08 3.45,252.97 -37.42,362.42 l -836.8,-132.63 -7.11,-49.65 -4.71,-32.68 -0.82,-5.78 -4.71,3.42 -26.75,19.26 -66.175,47.54 -292.715,-47.45 -88.906,-72.12 -38.496,-31.31 -6.797,-5.49 1.074,8.65 6.035,49.3 4.082,33.04 -359.902,-58.08 c -17.207,-31.02 -32.969,-62.7 -47.11,-94.34" /><path
         id="path22"
         style="fill:#ffffff;fill-opacity:1;fill-rule:nonzero;stroke:none"
         d="m 1123.34,488.34 c 9.39,-16.899 27.11,-24.918 40.31,-28.711 43.17,-12.367 105.04,-0.527 161.51,30.863 83.96,46.699 133.57,124.629 108.32,170.168 -25.34,45.551 -117.76,44.551 -201.82,-2.148 -84,-46.77 -133.63,-124.723 -108.32,-170.172" /><path
         id="path24"
         style="fill:#ffffff;fill-opacity:1;fill-rule:nonzero;stroke:none"
         d="m 1050.37,1204.22 -66.64,46.52 -295.468,-47.38 -108.614,-85.92 -44.628,-358.651 101.425,-70.758 243.067,39.02 122.538,88.179 19.81,159.668 -203.032,-32.558 -14.355,-115.84 -0.332,-2.629 -2.578,-0.41 -59.59,-9.563 -4.629,-0.757 0.586,4.668 31.953,257.251 0.332,2.62 2.617,0.41 56.094,9.02 4.648,0.72 -0.605,-4.65 -7.422,-59.61 206.543,33.07 18.28,147.58" /><path
         id="path26"
         style="fill:#ffffff;fill-opacity:1;fill-rule:nonzero;stroke:none"
         d="m 1067.15,757.09 203.05,32.629 24.04,193.679 0.33,2.618 2.62,0.429 56.07,8.985 4.61,0.742 -0.57,-4.649 -23.78,-191.644 216.93,34.84 64.43,517.291 -217.13,-34.84 -24.86,-200.49 -0.33,-2.62 -2.62,-0.43 -59.61,-9.57 -4.63,-0.74 0.59,4.65 24.69,198.44 -199.5,-31.98 -64.33,-517.34" /><path
         id="path28"
         style="fill:#ffffff;fill-opacity:1;fill-rule:nonzero;stroke:none"
         d="m 774.727,1595.88 -28.946,91.44 -54.804,-104.86 -119.473,-19.24 86.992,-42.93 -61.933,-118.55 123.105,88.4 104.863,-51.8 -32.754,103.55 101.836,73.09 -118.886,-19.1" /><path
         id="path30"
         style="fill:#ffffff;fill-opacity:1;fill-rule:nonzero;stroke:none"
         d="m 1547.91,1660.37 101.86,73.07 -118.87,-19.03 -28.97,91.45 -54.8,-104.9 -119.53,-19.2 87.07,-42.95 -61.94,-118.54 123.05,88.34 104.88,-51.81 -32.75,103.57" /><path
         id="path32"
         style="fill:#ffffff;fill-opacity:1;fill-rule:nonzero;stroke:none"
         d="m 1156.02,1656.6 -28.89,91.39 -54.81,-104.81 -119.586,-19.18 87.106,-43 -61.988,-118.52 123.108,88.38 104.8,-51.8 -32.69,103.52 101.83,73.1 -118.88,-19.08" /></g></g></svg>