<svg height="288.675135" viewBox="0 0 89.721002 74.503" width="346.410162" xmlns="http://www.w3.org/2000/svg" xmlns:xlink="http://www.w3.org/1999/xlink"><clipPath id="a"><path d="m0 0h420.945v595.275h-420.945z"/></clipPath><g clip-path="url(#a)" transform="matrix(1.25 0 0 -1.25 -216.87525 116.83464)"><path d="m0 0c-.237.018-.481.071-.713.163-.573.215-1.037.663-1.271 1.126-.155.298-.235.588-.273.856-.203.151-.393.294-.547.42-.126.105-.232.205-.342.312-.036.036-.073.071-.11.107l-.581-.33-.869.637c-.241.18-.443.393-.629.704-.181.307-.329.72-.329 1.198 0 .095.006.189.018.288v-.003c.03.281.111.532.202.74-.015.069-.029.141-.041.217-.024.149-.037.302-.037.455-.001.301.049.599.145.882l-10.785 15.461-3.474-2.974-1.877 10.328-8.137 4.762s3.135 3.109 3.329 3.281c.388.343.949.816 1.68 1.376 1.462 1.12 3.605 2.586 6.407 4.049 5.598 2.924 13.858 5.826 24.459 5.827h.026c10.602 0 18.863-2.903 24.461-5.827 4.203-2.194 6.923-4.396 8.088-5.425.386-.342 3.327-3.281 3.327-3.281l-8.137-4.763-2.016-10.467-3.28 2.934-8.658-12.96c.067-.347.083-.589.087-.668l.106-2.155-.37.077-.164-1.648-.353.112-.622-2.405-.577.485c-.138-.182-.272-.331-.389-.45-.098-.231-.247-.525-.47-.834-.198-.27-.397-.456-.558-.592-.159-.135-.288-.22-.334-.25l.01.006-2.17-1.396-.078.507c-.064-.035-.129-.068-.195-.103-.088-.045-.178-.09-.272-.135l-6.96-10.364zm19.378 5.954.002.008-.001-.007c0-.001-.001-.001-.001-.001" fill="#fff" transform="translate(203.1502 43.5853)"/><path d="m0 0 25.608-11.905-23.975-35.689-24.896 35.976z" fill="none" stroke="#241d10" stroke-width="2.103" transform="translate(208.1792 84.9963)"/><path d="m0 0 24.895-36.229 23.721 35.269" fill="none" stroke="#0f80cc" stroke-width=".421" transform="translate(184.8332 77.0373)"/><path d="m0 0 24.896-35.977 23.975 35.69" fill="none" stroke="#0f80cc" stroke-width=".673" transform="translate(184.9162 73.3783)"/><path d="m0 0c6.327 5.928 14.832 9.559 24.186 9.559s17.859-3.631 24.187-9.559l1.411 7.13 6.111 3.577s-11.198 11.193-31.709 11.193c-20.51 0-31.708-11.193-31.708-11.193l6.11-3.577" fill="#0f80cc" transform="translate(185.1592 68.8943)"/><path d="m0 0c6.327 5.928 14.832 9.559 24.186 9.559s17.859-3.631 24.187-9.559l1.411 7.13 6.111 3.577s-11.198 11.193-31.709 11.193c-20.51 0-31.708-11.193-31.708-11.193l6.11-3.577z" fill="none" stroke="#241d10" stroke-width="3.196" transform="translate(185.1592 68.8943)"/><path d="m0 0c6.327 5.928 14.832 9.56 24.187 9.56 9.354 0 17.859-3.632 24.186-9.56l1.412 7.131 6.11 3.576s-11.198 11.193-31.708 11.193c-20.511 0-31.709-11.193-31.709-11.193l6.11-3.576" fill="#0f80cc" transform="translate(185.1962 69.1463)"/><path d="m0 0c6.327 5.928 14.832 9.56 24.187 9.56 9.354 0 17.859-3.632 24.186-9.56l1.412 7.131 6.11 3.576s-11.198 11.193-31.708 11.193c-20.511 0-31.709-11.193-31.709-11.193l6.11-3.576z" fill="none" stroke="#b2cfee" stroke-width=".589" transform="translate(185.1962 69.1463)"/><path d="m0 0c-.258.008-.751-.136-2.141.598-1.577.833-1.03 2.519-.925 2.638.282.322 1.04-.156 1.04-.156l.269-.531s.503.676.683.873l.081-.78s.74.682.907.819c-.005-.133.052-.786.052-.786s.782.861.795.882c.08-.151.37-.739.408-1.062.194-1.65-.932-2.385-1.169-2.495m.729-5.124c-.024-.151-.089-.285-.182-.401-.01.013-.039.057-.039.057-.004.004-.276.395-.387.669-.12.293-.225.72-.225 1.095 0 .069.004.135.012.199.016.138.053.26.094.359.301-.273.757-.819.757-1.62 0-.114-.009-.233-.03-.358m-2.061-10.745c-.05-.36-.137-.441-.164-.457-.078-.051-.312.02-.5.077-.164.05-.35.107-.542.128-.115.014-.219.02-.32.022.042.058.785 1.104.996 1.4.073-.04.156-.092.224-.162.213-.218.321-.486.321-.8 0-.068-.005-.137-.015-.208m-2.901-.718c-.561-.501-.604-1.192-.604-1.396 0-.033.001-.054.001-.059l.023-.364.355.083c.001 0 .024.006.062.014-.052-.061-.103-.124-.151-.193-.206-.298-.313-.651-.362-.855-.435-.193-1.937-.794-3.739-.752-1.465.034-2.541.351-3.125.575.167.115.347.324.448.735.052.22.08.407.098.558.064-.054.128-.103.197-.135.218-.102.401-.103.54-.071-.006-.136-.012-.271-.012-.271l.467.232c.024.012.567.285.897.725.239.321.336.673.4.906.015.054.034.122.047.157.634.545.868 1.216.951 1.685.059.329.079.617.079.858 0 .227-.018.408-.038.545.161.069.363.168.508.287.117.097.209.195.291.289.033-.111.079-.265.079-.265l.34.202c.043.026.408.258.705.82.024-.048.032-.064.05-.099-.125-.395-.235-.827-.271-1.216-.009-.081-.013-.163-.013-.244 0-1.037.62-1.806.649-1.84l.284-.347s.165.288.201.35c.009-.013.018-.026.027-.038.279-.355.588-.465.623-.475l.257-.087s.285.594.318.662c.223-.243.487-.389.52-.406 0 0 .082-.044.152-.083-.622-.013-.973-.236-1.254-.487m-2.239 20.542-.001-.001zm.565 1.011c.224.1.886.451 1.461.78-.657-.605-1.178-1.464-1.357-2.649-.106.172-.237.349-.403.517-.24.243-.263.326-.266.339.055.161.433.861.565 1.013m2.314-6.329c-.443-.318-.955-.875-.955-1.761 0-.577.285-1.137.599-1.546-.187.125-.364.251-.52.373-.67.52-1.401 1.231-1.644 1.472-.002.039-.004.103-.007.181.084-.068.339-.272.339-.272l.1.498c.002.013.055.283.055.629 0 .048 0 .096-.003.145-.001.043-.004.084-.007.123.09-.019.606-.122.606-.122l-.03.406c-.002.023-.045.583-.258 1.157-.031.082-.064.168-.096.251.045-.005.073-.007.145-.015.117-.19.249-.37.398-.535.45-.501.914-.803 1.278-.984m-13.707-14.903c-.002.002-.003.003-.005.005.003-.001.007-.002.01-.003-.002-.001-.003-.001-.005-.002m7.324 23.217c-.309.139.198 1.182.198 1.182s.1-.356.075-.629c-.023-.273-.075-.642-.273-.553m-.282-6.749-.109-.157s-.11-.156-.454-.39c-.344-.235-1.173-.219-1.173-.219s-.266-.266-.422-.438c-.157-.172-.625-.703-.829-.766-.203-.063-1.47.235-1.47.235s-.095.372-.24.531c-.143.155-.22.22-.444.271-.108.024-.316.011-.394.073-.078.063-.156.45-.156.45s.217.135.343.363c.097.175.078.454.078.454s.374-.011.452.005c.078.015.846.854.862.932s-.203.642-.203.642.684.294.84.294.315-.544.798-1.031c.285-.288.801-.141.801-.141s.216.041.594.268c.271.162.718.279 1.111-.141.543-.581.015-1.235.015-1.235m13.815-5.243.612-.143-.26.572c-.004.01-.116.255-.263.506-.031.052-.064.103-.097.154.1.006 1.025.051 1.025.051s-.798.675-.995.84c.012.002.879.204.879.204l-.74.386c-.006.003-.561.294-1.232.776-.216.156-.46.37-.633.528.561.568 1.884 2.094 1.884 3.879 0 .126-.007.253-.021.381-.273 2.522-2.234 4.07-4.997 3.943-.527-.024-1.182-.152-1.831-.433 1.625 1.129 2.082 1.59 2.264 1.775l.029.03c.132.133.235.344.235.552 0 .085-.018.17-.057.248-.088.178-.304.374-.828.3l-.258-.031c-.493-.055-1.519-.17-2.676-.4-1.004-.199-2.262-.551-2.83-.715-.002.008-.195 1.023-.195 1.023l-2.334-1.049-1.561 1.825-.199-.439c-.009-.019-.225-.495-.48-1.315-.233-.746-.37-1.465-.401-1.633-.022-.049-.152-.346-.216-.493-.188-.074-1.891-.748-2.464-.974.002.364.016.633.016.633l-1.583 1.314-1.295-1.995s.608-.812.63-.847c-.199.11-.402.203-.594.139-.118-.039-.224-.108-.308-.163-.033-.022-.071-.046-.095-.058-.03-.004-.093-.005-.138-.005-.126 0-.256 0-.369-.047-.132-.057-.209-.165-.265-.243-.014-.019-.031-.043-.044-.057-.076-.028-.305-.111-.305-.111-.147-.049-.24-.173-.314-.271 0 0-.02-.025-.035-.045-.017-.003-.036-.006-.036-.006-.057-.008-.129-.017-.199-.052-.098-.049-.156-.133-.212-.214-.012-.019-.031-.047-.048-.068-.011-.002-.024-.004-.024-.004-.151-.017-.402-.047-.63-.167-.313-.165-.486-.456-.486-.819 0-.354.122-.656.352-.869.304-.284.74-.361 1.02-.341.094.006.186.025.264.045.139-.163.328-.386.472-.556-.038-.087-.069-.19-.069-.298 0-.033.003-.067.01-.101.017-.084.059-.149.142-.28.158-.247.452-.705.452-1.139 0-.329-.211-.542-.381-.713-.132-.133-.256-.258-.256-.443 0-.116.053-.201.109-.29.062-.098.146-.233.194-.446.053-.235.055-.317.055-.427v-.034l-.002-.12c-.001-.046-.001-.087-.001-.123 0-.085.003-.148.017-.204.043-.172.197-.288.485-.364l.139-.033c.039-.01.092-.022.13-.033.082-.176.167-.343.31-.445.109-.077.259-.097.59-.135.128-.015.333-.039.422-.062.015-.018.027-.036.041-.055.038-.057.095-.143.209-.194.095-.044.234-.076.682.086.142.051.243.096.32.134-.089-.118-.177-.227-.244-.301l-.078-.088c-.261-.295-.556-.63-1.25-.63-.453 0-1.241.443-1.762.737-.352.198-.606.341-.787.388-.39.101-.575.08-.775.043-.08-.015-.141-.027-.243-.023l-.058.002c-.391.018-.926.041-1.367-.318-.315-.256-.516-.643-.539-.686l-.163-.323s.512-.167.583-.19c-.722-.285-1.078-1.035-1.093-1.069l-.159-.344 1.243-.288s.34-.072.507-.107c.043-.04.099-.091.158-.138-.115-.087-.237-.19-.355-.312-.463-.482-.567-1.069-.567-1.498 0-.334.063-.574.069-.595l.1-.367.339.173c.472.241 1.045.518 1.169.554.023-.002.1-.037.158-.063.083-.036.187-.085.315-.125.399-.125.927.003 1.205.09l.074.024c.075.024.176.056.246.071-.012-.065-.065-.173-.163-.326-.192-.303-.515-.593-.517-.596l-.331-.295.392-.208c.032-.018.811-.422 1.705-.085.385.145.839.407 1.285 1.253l.227.447c.23.467.412.835.671.971.575.3 1.38.292 1.549.286.122-.036.434-.122.642-.122.197 0 .491.125.687.219.117-.043.289-.094.492-.109.223-.016.766.087 1.014.399.144.182.273.419.387.629.06.109.139.253.177.302.036.017.128.04.186.054.103.024.2.048.285.093.163.087.331.272.494.451.042.048.097.108.14.152.063-.015.146-.037.214-.055.258-.069.55-.147.762-.153.446-.013.788-.211.796-.459 0-.004.001-.007.001-.01 0-.137-.107-.325-.861-.572-.379-.124-.721-.212-.995-.283-.363-.093-.544-.142-.661-.217-.349-.224-.374-.224-.565-.222-.084.001-.198.003-.355-.007-.648-.042-1.144-.273-1.474-.688-.55-.691-.407-1.628-.401-1.667l.07-.437s.1.055.199.11c-.001-.032-.005-.062-.005-.097 0-.062.003-.127.006-.197.035-.532.313-.932.325-.949l.266-.374s.072.112.141.22c.066-.139.132-.227.144-.244l.227-.296.249.278c.079.087.175.177.249.237.096-.151.233-.463.233-.854 0-.055-.003-.112-.009-.171-.075-.717-.443-1.17-1.124-1.389-.478-.152-1.17-.044-1.851.291-1.297.639-2.196.783-2.831.455-.566-.294-.819-.929-.829-.955 0 0-.025-.064-.046-.118-.299.13-.632.142-.953.019-.513-.197-.826-.676-.826-1.233 0-.08.007-.163.02-.245.045-.285.116-.459.163-.573 0 0 .008-.019.014-.038-.017-.025-.035-.051-.035-.051-.109-.153-.258-.363-.299-.699-.006-.042-.008-.083-.008-.123 0-.407.247-.7.406-.817l.161-.118.174.099c.227.129.507.236.616.24.105-.084.304-.285.484-.465.204-.207.416-.421.567-.545.229-.189.776-.588 1.052-.788-.013-.085-.021-.178-.021-.276 0-.434.157-.94.721-1.161.567-.221 1.048.081 1.327.382.729-.349 3.074-1.344 6.063-1.344 2.839 0 5.055.833 6.414 1.532.864.444 1.495.886 1.878 1.184.001-.005.079-.509.079-.509l.401.258c.032.021.328.216.541.51.23.315.365.659.421.819.162.146.559.534.801 1.046.144.304.23.604.281.851.101-.085.29-.242.29-.242l.121.473c.005.02.122.476.159.834.018.167.026.335.028.481.103-.033.267-.085.267-.085l.039.38c0 .013.003.049.003.116 0 .115-.008.321-.049.652-.017.143-.054.286-.095.415.017-.003.383-.079.383-.079l-.02.399c-.004.084-.118 2.07-1.719 3.102-.578.374-1.058.529-1.44.61-.101.104-.517.532-.53.545.172-.028.358-.057.358-.057l-.261.536c-.003.006-.295.589-.385.784 0 0-.025.055-.058.128.688.118 1.995.508 2.699 1.783.483.876.579 1.673.579 2.169v.082c.005-.002.036-.007.036-.007.263-.05.496-.104.498-.105" fill="#241d10" transform="translate(218.3212 67.1143)"/><path d="m0 0s-1.267-.019-2.289.625c-.421.266-1.383.8-1.433 2.097-.069 1.79 1.429 1.055 1.429 1.055s.078.201.139.361c.094.247.166.458.166.458l.186-.99s.153.109.469.501c.192.239.331.475.331.475l.082-.959s.237.112.424.329c.22.256.395.533.395.533s.059-.469.042-.897c0 0 .224.128.39.378.206.31.322.679.322.679s.233-.45.519-.981c.143-.266.244-.491.273-.874.166-2.207-1.445-2.79-1.445-2.79m-1.141-15.524c-.167-1.209-.867-.596-1.548-.517-.767.089-1.139-.11-1.454-.39-.547-.488-.501-1.204-.501-1.204s.296.069.672.108c.313.033.611 0 .611 0s-.619-.146-1.048-.765c-.265-.381-.347-.894-.347-.894s-1.772-.897-4.015-.846c-2.383.055-3.768.833-3.768.833s.052.123.208.185c.156.063.449.097.59.676.141.578.089.929.197.985.107.055.37-.282.529-.357.562-.261.749.404.749.404l-.021-.517s.497.246.786.634c.334.446.349.987.458 1.081.11.094.712.567.883 1.535.173.969-.009 1.545-.009 1.545s.442.145.664.328c.518.429.573.847.573.847l.178-.592s.358.213.629.776c.16.329.149.64.149.64l.219-.441s.159.258.312.431c.204.232.372.194.372.194s-.636-1.374-.733-2.389c-.099-1.046.569-1.859.569-1.859l.281.491s.074-.328.234-.531c.23-.292.477-.374.477-.374s.153.309.215.449c.062.142.225.533.225.533s.036-.201.193-.406c.202-.262.511-.428.511-.428l1.014 1.426s.326-.091.555-.325c.352-.36.453-.813.391-1.266m-9.531 16.244s.132.728-.477.804c-.265.033-.536-.11-.751-.251-.338-.22-.768-.81-1.588-.311-.28.169-.594.623-.594.623s-.404-.399-.39-.9c.007-.272.177-.891.828-.891.755 0 1.215.584 1.707.731.695.208 1.105-.051 1.105-.051s-.08-.161-.393-.34c-.445-.253-1.017-.189-1.017-.189s-.23-.23-.366-.38c-.135-.149-.541-.61-.718-.664-.176-.054-1.274.203-1.274.203s-.082.323-.209.461c-.123.135-.19.192-.384.235-.094.022-.275.01-.342.064-.068.054-.136.389-.136.389s.189.118.298.316c.084.151.028.23.028.23s.184-.064.252-.05c.067.013.913.957.927 1.025s-.176.556-.176.556.593.256.728.256.273-.472.691-.894c.247-.25.695-.299.695-.299s.187.212.515.409c.234.14.622.276 1-.048.43-.369.041-1.034.041-1.034m14.184-5.073s-.108.237-.249.478c-.17.291-.422.591-.422.591l.819.04-.865.731.664.155s-.57.296-1.269.8c-.412.296-.965.691-.965.691s2.311 2.062 2.068 4.313c-.287 2.657-2.422 3.772-4.675 3.668-1.486-.068-4.042-1.002-4.28-4.08-.081-1.048.245-2.085.905-2.82.864-.962 1.785-1.135 1.785-1.135s-1.382-.488-1.382-1.816c0-.772.601-1.526.963-1.806.313-.244.528-.37.528-.37l-.126.67s.151-.38.702-.82c.156-.124.472-.26.472-.26l-.13.614c.156-.229.421-.44.673-.566.186-.093.461-.118.461-.118l-.225.579c.215-.171.439-.316.676-.382.294-.082.498-.062.498-.062s-.293.419-.419.73c-.143.348-.292.949-.234 1.446.056.471.308.787.308.787s1.39-.862 1.126-2.492c-.113-.693-.825-1.29-2.311-1.019-1.215.222-2.543.998-3.382 1.651-.84.653-1.76 1.584-1.76 1.584l-.034.975.468-.375s.064.319.047.7c-.016.346-.075.527-.075.527l.644-.129s-.039.533-.239 1.071c-.121.327-.291.718-.291.718l.409-.041s-.333.735-.472.968c-.14.234-.412.645-.412.645l.648-.043s-.108.739-.701 1.339c-.333.337-.378.488-.347.628.031.139.567 1.162.707 1.208.14.047 1.616.833 2.184 1.217 2.218 1.498 2.674 2.005 2.845 2.176.171.172.328.677-.389.576-.263-.037-1.486-.144-2.917-.428-1.31-.26-3.104-.797-3.104-.797s-.062.205-.097.353c-.06.249-.121.605-.121.605s-.643-.3-1.006-.427c-.438-.153-.852-.295-.852-.295s.046-.231.056-.699c.006-.283-.098-.909-.648-.629-.548.28.078 1.322.078 1.322l-1.203 1.387s-.214-.468-.467-1.28c-.257-.824-.398-1.631-.398-1.631l-.281-.642-2.982-1.18s-.022.175-.022.362c0 .459.007.58.007.58l-1.209 1.002s-1.067-1.467-1.036-1.545.346-.351.495-.563c.233-.33.33-.612.33-.612s-.247-.122-.371-.091c-.125.031-.497.311-.638.263-.139-.046-.279-.17-.388-.216-.109-.047-.389 0-.497-.047-.109-.047-.171-.25-.296-.296-.124-.046-.248-.093-.342-.124-.092-.032-.187-.218-.264-.28-.078-.062-.217-.046-.28-.078-.062-.031-.155-.249-.264-.296-.109-.046-.964.009-.964-.699 0-.81.764-.922 1.042-.902.189.014.388.093.388.093l.743-.876s-.162-.219-.131-.374c.022-.107.601-.786.601-1.48 0-.686-.637-.983-.637-1.156 0-.079.203-.259.295-.669.065-.292.062-.389.062-.528 0-.14-.01-.311.005-.374.016-.061.188-.118.264-.138.193-.051.391-.073.439-.166.046-.093.131-.314.241-.391.108-.078.915-.092 1.023-.2.109-.109.123-.189.187-.218.117-.054.795.212.857.29.063.078.046.218.14.279.094.063.296.078.373.063.078-.016.156-.063.202-.14.047-.078-.483-.809-.713-1.063-.28-.309-.644-.818-1.556-.818-.814 0-2.212 1.027-2.628 1.135-.561.145-.579-.005-.952.01-.374.016-.848.054-1.217-.247-.273-.223-.458-.587-.458-.587l1.337-.436s-.649-.073-1.026-.202c-.653-.222-.98-.932-.98-.932s.591-.139.87-.202c.28-.063.592-.124.592-.124s.217-.218.341-.28c.125-.063.264-.124.264-.124s-.396-.196-.73-.544c-.712-.741-.424-1.798-.424-1.798s1.082.553 1.254.583c.17.032.328-.104.623-.197.296-.093.741.002 1.019.09.311.098.575.202.684 0 .108-.202-.008-.431-.173-.692-.219-.345-.574-.661-.574-.661s.679-.36 1.453-.068c.328.123.721.35 1.121 1.107.378.719.586 1.316 1.028 1.548.729.382 1.744.319 1.744.319s.386-.119.589-.119c.202 0 .676.25.676.25s.229-.12.526-.142c.161-.011.585.077.75.284.251.316.486.888.611.981.124.094.402.115.52.178.221.116.59.638.698.654.11.015.753-.214 1.067-.224.615-.018 1.08-.322 1.096-.756.015-.437-.44-.679-1.073-.887-.795-.261-1.427-.365-1.585-.466-.575-.369-.501-.241-1.067-.278-1.893-.124-1.59-1.998-1.59-1.998l.424.237s-.191-.242-.15-.886c.029-.452.268-.791.268-.791l.346.542s-.047-.21-.036-.31c.036-.362.234-.62.234-.62s.405.451.56.388c.156-.062.529-.668.451-1.414-.074-.707-.419-1.357-1.337-1.651-.555-.178-1.317-.069-2.082.308-1.41.694-2.132.675-2.551.457-.47-.244-.685-.793-.685-.793s.335-.072.56-.171c.414-.182.559-.315.559-.315h-.011s-.325.041-.672-.09c-.203-.075-.358-.186-.358-.186-.683 1.055-2.044.46-1.865-.654.086-.538.27-.612.162-.783-.11-.171-.279-.339-.318-.663-.05-.418.274-.654.274-.654s.703.401.921.245c.217-.156.803-.804 1.095-1.046.302-.248 1.2-.891 1.2-.891s-.291-.987.469-1.283c.665-.261 1.125.483 1.125.483s2.641-1.424 6.152-1.424c5.375 0 8.513 2.994 8.513 2.994l.09-.579s.273.176.46.432c.277.381.403.815.403.815s.512.415.789 1.002c.315.662.326 1.317.326 1.317l.346-.291s.117.448.151.788c.046.429.02.875.02.875l.313-.1s.019.186-.044.7c-.05.412-.278.834-.278.834s.104-.006.229-.021c.124-.016.314-.056.314-.056s-.092 1.9-1.578 2.859c-1.219.786-1.983.546-2.262.775-.2.164-.544.434-.544.434s.25-.015.374-.015c.125 0 .435-.023.435-.023s-.249.256-.357.35c-.109.093-.358.358-.358.358s.312-.063.435-.078c.124-.016.296-.046.296-.046s-.296.591-.389.792c-.093.202-.234.513-.234.513s1.997.069 2.885 1.677c.74 1.341.506 2.482.506 2.482s.221-.043.436-.084c.275-.052.512-.107.512-.107" fill="#241d10" transform="translate(218.4362 66.7333)"/><g fill="#fbbf16"><path d="m0 0s-.225-.047-.422-.234c-.161-.152-.179-.43-.179-.43l.591.063" transform="translate(201.6212 50.2573)"/><path d="m0 0s-.132-.201-.144-.468c-.008-.18.089-.468.089-.468l.341.565" transform="translate(202.4432 48.6333)"/><path d="m0 0s-1.167-.777-1.107-1.095c.017-.09.308-.465.243-.576-.085-.147-.589.005-.623-.063-.033-.066-.301-.576-.386-1.022-.063-.33-.02-.53-.009-.597s.077-.184.133-.232c.09-.078.206-.07.296-.021.089.049.323.342.478.574.156.232.707 1.163.773 1.307.067.143.434.815.434 1.248 0 .313-.232.477-.232.477" transform="translate(204.8172 48.7653)"/><path d="m0 0s-.056.176-.194.273c-.159.111-.57.145-.714-.127-.088-.166-.2-.645.23-1.032.101-.089.135-.206-.003-.266-.326-.143-.312-.558-.312-.558s.478.165.654.155c.177-.011.254-.063.309-.119.056-.054.56-.775 1.682-1.681 0 0 .161-.139.283-.132.079.005.169.068.201.135.261.556.451 1.002.451 1.002s-.092.037-.211.013c-.118-.023-.561-.759-.561-.759s-.457.333-.584.718c-.25.764-.13 1.204-.13 1.204s.04.152-.414.119c-.454-.034-.767.023-.767.023s-.071.276-.048.491c.043.386.128.541.128.541" transform="translate(200.6082 50.0953)"/><path d="m0 0 .239.549s-.227.089-.455-.048c-.251-.15-.3-.298-.3-.298" transform="translate(201.8362 51.0373)"/><path d="m0 0c-.354.538.105.839.387.896.186.037.607.065.607.065s-.752.339-.617.798c.134.459.696.21.906.121.211-.088.986-.497 1.373-.607.387-.112 1.405-.3 2.324.287.842.537 1.151 1.736.785 2.721-.333.901-.47.862-.63.918-.222.078-.509-.198-.509-.198s-.068.344.039.625c.059.152.201.326.336.427.149.112.277.173.277.173s-.273.182-.582-.017-.65-.665-.65-.665-.073.355.211.801c.328.516.9.624.9.624s-.191.217-.642.045c-.31-.118-.505-.243-.706-.36 0 0 .089 1.15 1.348.99.622-.078 1.04.31 1.04.31s1.381.351 1.786.501c1.024.381 1.187.798 1.187.798.593-.039 1.79-.103 2.09-.295.202-.129.317-.363.314-.904-.002-.453-.15-1.363-.15-1.363l-.304.699s-.065-.317-.144-.531c-.112-.304-.32-.588-.32-.588l-.577.766s.011-.339.003-.659c-.015-.629-.355-1.05-.355-1.05s-.073.337-.178.558c-.081.169-.221.332-.221.332s.018-.249-.077-.565c-.356-1.168-1.593-1.206-1.593-1.206s.165-.619.177-.984c.01-.365.043-.835-.188-1.362-.168-.382-.509-.619-.676-.828-.165-.211-.165-.473-.209-.653-.071-.289-.339-.547-.339-.547l-.1.822s-.181-.076-.259-.386c-.077-.311-.292-.659-.469-.681-.177-.023-.696.637-.928.526-.143-.069-.229-.178-.306-.631-.078-.453-.145-1.239-.554-1.249-.433-.013-.421.33-.465.74-.044.409.011.564-.155.641 0 0-.099.059-.441-.14-.343-.198-.732-.523-.976-.667-.242-.144-.573-.281-.773-.133-.184.135-.193.356-.16.49.034.133.147.351.147.351s-.748-.115-.984.244" transform="translate(202.0722 49.6173)"/><path d="m0 0c.102.156.288.11.288.11s2.043-1.028 4.64-.955c2.219.064 4.19 1 4.775 1.276.587.278.59.228.59.026 0-.407-.14-.645-.14-.645s-2.65-1.402-5.197-1.402c-2.946 0-5.263 1.096-5.263 1.096s.205.337.307.494" transform="translate(205.2812 47.1833)"/><path d="m0 0s-.019.121-.027.214c-.016.171.002.32.002.32s.419-.118.433-.173c.023-.089-.043-.126-.153-.205-.11-.077-.255-.156-.255-.156" transform="translate(216.1682 46.3293)"/><path d="m0 0s.126.32.227.467c.178.255.497.485.497.485l.087-.562s-.179-.096-.402-.201c-.208-.098-.409-.189-.409-.189" transform="translate(214.2202 47.8133)"/><path d="m0 0c-.159-.045-.177-.409-1.007-1.136-.389-.341-1.324-.795-1.652-.945-.018.133-.04.306-.053.421-.03.259-.065.418-.065.418s-2.45-1.361-5.314-1.361c-3.058 0-5.525 1.144-5.525 1.144s-.075-.109-.186-.28c-.066-.102-.235-.361-.235-.361s2.599-1.372 5.656-1.372c3.932 0 6.599 1.414 7.748 2.254.665.486.87.869.87.869s-.111.386-.237.349" transform="translate(218.3332 47.7463)"/><path d="m0 0s-.336-.064-.521-.261c-.161-.17-.261-.471-.261-.471l.742.031" transform="translate(215.0452 50.2883)"/><path d="m0 0c.01-.166.123-.3.423-.328.301-.028.456.047.52-.041.192-.263-.272-.928.356-1.107.201-.057.586.076.78.276.449.463.581.815.806.875.135.036.258.006.415-.205.171-.229.276-1.004.276-1.004s.131.122.224.365c.103.268.121.412.121.412s.592.422.781 1.029c.31 1.003.259 1.789.259 1.789.191-.122.457-.32.457-.32s.03.359 0 .648c-.056.521-.157.726-.157.726l.438-.096s-.017.295-.187.737c-.136.351-.277.59-.277.59s.149.025.273.025h.286s-.273 1.676-1.715 2.363c-1.522.726-3.04.124-3.04.124s.296.257.424.341c.139.091.368.177.368.177l-.853.93.943.014-.8 1.041s.363-.142.587-.209c.233-.068.439-.136.439-.136s-.274.546-.37.738c-.096.191-.223.491-.223.491s2.003-.121 2.965 1.184c1.021 1.387.68 3.027.68 3.027s.128-.017.281-.044c.239-.04.398-.076.398-.076l-.849.882s.203-.011.381-.015c.245-.008.411-.015.411-.015l-.803.715.618.072-1.634 1.042s-.16-.129-.435-.378c-.144-.13-.333-.346-.333-.346s2.271-2.079.753-3.85c-.916-1.069-3.399-.531-4.874.48-1.476 1.011-2.729 2.157-2.729 2.157s-.029-.127-.165-.389c-.153-.297-.294-.607-.294-.607s-.12.426-.172.624c-.053.199-.13.336-.13.336s-.041-.175-.195-.627c-.139-.409-.352-.828-.352-.828l-.285.782s-.09-.455-.442-.943c-.186-.258-.455-.449-.455-.449l-.312.909s-.183-.242-.395-.437c-.284-.259-.832-.738-.832-.738l.019.917s-.291-.391-.818-.647c-.745-.364-.666-.295-.666-.295l.084 1.253s-.561-.465-1.052-.333c-.616.166-.471.888-.471.888l-.434-.158s-.97-1.456-1.407-1.906c-.438-.451-.923-.89-1.985-.89-.864 0-1.464.582-2.192.972-.559.299-.793.312-.982.153-.112-.095-.126-.281.027-.582.125-.247.369-.56.369-.56s-1.402.175-1.345-.66c.046-.692 1.432-.645 1.432-.645s-1.07-.472-.74-1.219c.262-.592.965-.391 1.412-.285.465.108.856.172 1.129-.25.378-.582-.371-1.366-.371-1.366s.848-.076 1.361 1.106c.41.944.863 1.597 1.505 1.735.643.135 1.169.072 1.455.263.286.192.427.438.523.601.096.164.246.411.246.411s.068-.396.027-.67c-.041-.273-.082-.519-.082-.519s.41-.027.642.382c.233.41.52 1.121.52 1.121s.112-.557.085-.802c-.027-.246-.099-.605-.099-.605s.446-.027.724.519c.264.517.451.733.629.774s.41.045.669.469c.26.424.684 1.065.684 1.065s-.011-.279.149-.533c.315-.492 1.68-.336 2.077-.696.286-.26.382-.696.533-.779.15-.083.861-.131 1.338-.182.577-.062 1.132-.111 1.244-.178.164-.098.243-.619.241-1.32-.002-1.248-.366-2.02-.9-3.417-.432-1.132-.029-1.872-.029-1.872l.482.683s.009-.359.039-.58c.052-.399.252-.707.252-.707l.734 1.425s-.004-.45.104-.764c.119-.35.318-.507.318-.507l.908 1.255c.308-.036 1.161-.396 1.498-1.036.398-.753.181-1.722-.261-2.119-.299-.272-.627-.149-.941-.055-.314.097-.958.28-1.047-.243-.055-.326.35-.402.501-.482.151-.082.204-.176.204-.269 0-.056-.19-.068-.368-.137-.178-.068-.342-.206-.329-.437" transform="translate(215.3932 48.5673)"/><path d="m0 0-2.584-2.594s.215-.2.592-.118c.378.083.782.601.782.601s-.178-1.029.344-1.115c.513-.084 1.123 1.162 1.123 1.162l.024-1.723s.363.158.67.43c.307.271.568.791.568.791l.068-1.159s.375.27.569.799c.09.248.157 1.01.157 1.01l.624-1.783s.223.479.336 1.059c.102.527.081.874.094.957l.534-1.036s.101.306.164.691c.05.316.069.886.069.886l.603-.8c.226.784.006 1.788.006 1.788l.495-.271s-.025.207-.105.495c-.041.144-.104.339-.104.339l.799-.195s-.07.519-.33 1.038c-.099.198-.459.813-.459.813l.553-.116s-.224.436-.417.736c-.273.425-.566.786-.566.786l.936-.106s-.172.386-.478.688c-.214.211-.452.358-.452.358l-.222-.396s-.026-.076-.156-.111-.249.055-.249.055l-3.622 1.764s-.006-.144-.124-.215c-.119-.071-.527-.163-.527-.163s.22-.199.651-.118c.39.074.661-.105.661-.105s-.095-.142-.307-.249c-.213-.106-.401-.153-.437-.236-.035-.082.031-.286.031-.286s.017-.128-.417.03c-.323.118-.369.195-.357.301.011.107.106.145.106.145l-.272.353s-.13-.472-.259-.767c-.13-.295-.349-.794-.349-.794s.09-.169.219-.23c.226-.106.413-.05.377-.109-.035-.059-.307-.165-.318-.236-.012-.071.011-.228.212-.37s.355-.149.355-.149.967 1.18 2.065.201c.692-.618.389-1.535.036-1.959-.615-.737-1.712-.767-1.712-.767" transform="translate(206.5922 66.1533)"/><path d="m0 0s.483.424.861.463c.442.045.476-.249.476-.249s-.16.049-.504.029c-.281-.017-.833-.243-.833-.243" transform="translate(206.2192 67.4093)"/><path d="m0 0s-.678-.392-1.053-.221c-.416.192-.251.738-.251.738s.119-.179.251-.29c.373-.311 1.053-.227 1.053-.227" transform="translate(205.7512 67.2393)"/><path d="m0 0s-.097.279-.083.437c.017.19.094.306.213.306.118 0 .755-.357.755-.357s-.118-.088-.507-.162c-.285-.053-.378-.224-.378-.224" transform="translate(205.9652 71.5603)"/><path d="m0 0c.217-.087.295-.036.403.094.132.163.045.401-.095.472-.142.071-.356.078-.449-.118-.106-.224-.035-.377.141-.448" transform="translate(206.7642 72.4443)"/><path d="m0 0c.134-.074.153-.177.095-.295-.06-.118-.175-.149-.307-.083-.095.048-.178.118-.071.319.064.122.177.118.283.059" transform="translate(207.8632 72.4603)"/><path d="m0 0c.142-.07.13-.188.083-.294s-.118-.154-.26-.106c-.142.047-.177.188-.118.294s.201.154.295.106" transform="translate(208.7522 71.9833)"/><path d="m0 0c.099-.06.177-.165.094-.295-.083-.13-.165-.142-.283-.071s-.153.177-.083.284c.071.105.154.153.272.082" transform="translate(209.6212 71.5473)"/><path d="m0 0c.179-.077.271-.295.176-.46-.094-.165-.271-.26-.448-.165-.177.094-.26.318-.165.495.095.178.272.201.437.13" transform="translate(210.4942 71.2873)"/><path d="m0 0 4.484-2.278s.74 1.264.906 1.542c.383.647.622 1.089.622 1.089l-.658.06s-.304-2.112-1.613-1.416c-1.128.6.199 1.849.199 1.849s-.117.251-.187.452-.147.465-.147.465-.169-.058-.469-.16c-.16-.055-.458-.16-.458-.16s-.115-1.822-1.271-1.259c-.737.358-.193 1.37-.193 1.37s-.105.098-.294.276c-.189.176-.342.33-.342.33s-.227-.477-.378-1.062c-.172-.667-.201-1.098-.201-1.098" transform="translate(206.6982 73.6053)"/><path d="m0 0s.151-.182.386-.108c.341.108.374.468.374.468s-.206-.113-.36-.184c-.153-.07-.4-.176-.4-.176" transform="translate(210.6402 73.1103)"/><path d="m0 0s.881.454 1.813 1.038c1.167.731 2.351 1.54 2.327 1.59-.022.051-.958-.469-2.174-.976-.624-.26-1.255-.566-1.255-.566" transform="translate(212.8602 73.1333)"/><path d="m0 0s.368.216.539.287c.264.11.423.189.423.189l.001.583s.653-.169 1.794.056c.695.137 3.708 1.357 3.708 1.357-.013.08-1.976-.297-3.332-.592-1.435-.312-2.543-.728-2.543-.728l.091-.385c-.378-.272-.681-.767-.681-.767" transform="translate(210.6082 73.5543)"/><path d="m0 0 2.173.835.01-.651-2.112-.859" transform="translate(203.2382 71.5793)"/><path d="m0 0-.3.751 2.063.844s-.052-.211-.142-.475c-.105-.303-.169-.388-.242-.481-.097-.123-.208-.177-.543-.322-.255-.11-.836-.317-.836-.317" transform="translate(203.6882 69.6943)"/><path d="m0 0s-.22-.342-.303-.472c-.082-.13-.264-.456-.264-.456.276-.293.533-.653.946-1.562.506-1.115.334-2.466.334-2.466l.665-.361.479.644s-.63 1.463-.814 2.152c-.341 1.277-.323 1.884-.323 1.884" transform="translate(201.8082 73.3693)"/><path d="m0 0c.112-.298.471-.476.688-.393.303.115.258.431.173.677-.101.288-.42.374-.664.273-.246-.101-.27-.362-.197-.557" transform="translate(197.6162 69.1193)"/><path d="m0 0s.19-.291.366-.744c.123-.317.304-.851.304-.851s.205.064.205.137c0 .401-.163.956-.308 1.281-.231.513-.567.177-.567.177" transform="translate(199.6732 70.6053)"/><path d="m0 0c.016-.088.156-.269.312-.664.109-.276.267-.687.314-.706.046-.018.14.039.139.104-.005.352-.151.835-.279 1.118-.204.447-.5.235-.486.148" transform="translate(199.1742 70.1923)"/><path d="m0 0c.016-.076.121-.235.273-.57.106-.233.285-.575.327-.588.042-.014.124.039.12.094-.016.303-.162.714-.285.953-.195.379-.452.186-.435.111" transform="translate(198.6762 69.7863)"/><path d="m0 0s.241-.291.425-1.079c.055-.235.105-.6.105-.6s.227.085.255.142c.054.113.062.465.022.836-.022.212-.152.565-.264.68-.31.32-.543.021-.543.021" transform="translate(200.3492 70.8843)"/><path d="m0 0s1.697.394 1.971.714c.1.117.166.522.182.994.014.421-.031.799.028.799s.246-.301.294-.588c.154-.925.024-1.793-.104-1.842-.826-.32-1.995-.461-1.995-.461s-.165.118-.248.201-.128.183-.128.183" transform="translate(199.5362 68.1233)"/><path d="m0 0s.608.041 1.021.076c.684.056 1.17.093 1.28.148.131.066.176.165.153.236-.024.071-.118.082-.189.071-.071-.012-.492-.142-1.44-.237-.506-.05-.974-.097-.974-.097" transform="translate(199.8542 67.1503)"/><path d="m0 0s.66-.503.955-.256c.354.299.796.268.796.268s-.143.201-.143.354c0 .154.11.287.118.452.013.225-.126.492-.126.492s-1.75-.058-1.774-.118c-.024-.059-.009-.091.035-.2.203-.495.139-.992.139-.992" transform="translate(200.3222 65.5683)"/><path d="m0 0c-.058-.104-.029-.342.181-.492s.439-.213.532-.053-.013.386-.186.493c-.173.106-.46.172-.527.052" transform="translate(202.4122 66.0713)"/><path d="m0 0c-.092-.152-.212-.495-.024-.65.272-.224.567-.129.72.106.153.236.225.532 0 .674-.224.141-.567.082-.696-.13" transform="translate(201.6662 64.9313)"/><path d="m0 0c.036.011 1.124.421 1.124.421s.107.197-.071.347c-.218.188-.777.397-.777.397s-.123-.175-.248-.305c-.125-.129-.255-.246-.255-.246s.085-.148.112-.223c.071-.2.115-.391.115-.391" transform="translate(199.9212 63.9963)"/><path d="m0 0s-.051-.207-.28-.532c-.197-.281-.343-.361-.343-.361s-.389-.023-.413.142c-.023.166-.036.344-.036.344" transform="translate(201.0892 64.0303)"/><path d="m0 0s-.082-.229-.255-.518c-.15-.25-.395-.535-.395-.535s.056-.082.202-.085c.179-.003.316.068.436.272.15.258.193.428.219.559.026.129-.207.307-.207.307" transform="translate(201.4252 63.7943)"/><path d="m0 0s-.017-.223-.049-.592c-.012-.154-.074-.545-.074-.545s.314-.021.408.038c.095.059.118.203.117.419-.002.233-.07.502-.141.572-.07.071-.261.108-.261.108" transform="translate(201.9182 63.5593)"/><path d="m0 0-1.47-1.44s.015-.114.109-.267c.114-.182.291-.233.291-.233l-.766-.043s-.143.197-.201.413c-.059.217-.035.39-.035.39s.318.306.389.566.048.519.048.519.27.296.755.248c.483-.047.88-.153.88-.153" transform="translate(204.6402 64.9673)"/><path d="m0 0s-.026.191.005.297c.031.107.104.234.104.234s-.41.067-.648-.042c-.183-.084-.252-.248-.252-.248" transform="translate(197.1962 60.7793)"/><path d="m0 0s-1.456-.925-3.152.461c-2.454 2.005-.896 5.558 1.37 6.254 1.372.422 3.657.437 4.85-1.487 1.247-2.012.308-4.072-1.399-5.539-.847-.728-1.234-.934-1.587-1.676-.577-1.215.374-3.009.374-3.009s-.425.55-.717.897c-.369.44-.237.546-.514.605-.047.01.376-1.528.376-1.528s-.581.562-.957 1.455c-.148.348-.296.297-.296.297l.332-1.524s-.397.463-.828 1.468c-.168.394-.296.351-.296.351l.145-1.413s-1.141 1.564-.723 2.394c.278.551.956.874 1.747 1.05.849.191 3.092.758 3.623 2.623.4 1.404.217 2.11-.101 2.582-.32.472-.545.119-.695 1.134-.029.2-.207.399-.207.399s-.034-.31-.083-.533c-.074-.34-.225-.39-.225-.39l-.318 1.011s-.077-.245-.153-.48c-.188-.582-.402-.83-.402-.83l-.236 1.267s-.157-.358-.267-.587c-.172-.361-.485-.712-.485-.712l-.226 1.132-.472-1.058s-1.04.415-1.54-.327c-.575-.852-.345-2.051.289-2.87.92-1.189 2.773-1.417 2.773-1.417" transform="translate(217.6612 66.4063)"/><path d="m0 0s-.028.177.003.292c.085.312.22.367.22.367s-.34-.056-.529-.171c-.171-.102-.332-.354-.332-.354" transform="translate(196.3842 59.3583)"/><path d="m0 0s-.005-.202.037-.342c.044-.14.131-.318.131-.318l-.7-.363s-.003.405.185.688c.129.194.347.335.347.335" transform="translate(196.9522 57.8843)"/></g><path d="m0 0s.553-.111.927-.025c.374.087 1.274.316 1.514 1.429.232 1.081-.427 1.744-.627 1.883-.76.523-1.351.245-1.351.245s.693-.159 1.036-.498c.218-.214.615-.792.374-1.611-.19-.649-.49-.932-.993-1.161-.472-.216-.88-.262-.88-.262" fill="#241d10" transform="translate(207.2792 65.9163)"/><path d="m0 0c-5.45 2.844-13.501 5.683-23.895 5.682-10.395.001-18.447-2.838-23.897-5.682-5.451-2.845-9.041-6.426-9.041-6.426l6.663-3.9 1.607-8.116.478 1.643-1.409 7.117-6.11 3.576s11.198 11.194 31.709 11.194c20.51 0 31.707-11.194 31.707-11.194l-6.11-3.576-1.411-7.13c-.007.006-.013.011-.02.017l.49-1.658.007-.007 1.611 8.134 6.662 3.9s-3.59 3.581-9.041 6.426" fill="#b2cfee" transform="translate(233.2412 85.7663)"/><path d="m0 0 1.511.299 6.078-3.561-.451-.864" fill="#241d10" transform="translate(175.9242 79.4383)"/><path d="m0 0-1.511.299-6.078-3.561.451-.864" fill="#241d10" transform="translate(242.8492 79.3833)"/><path d="m0 0c-.394-.158-.59-.24-.98-.408-.617.909-1.871.923-2.779.502-.494-.229-1.16-1.004-.802-1.361.527-.526 1.707.014 2.491.228 1.106.301 2.751.383 3.264-.95.539-1.404-.729-2.563-1.865-3.108-.717-.344-1.519-.557-2.327-.505.003-.237.005-.355.012-.591-.31-.172-.464-.26-.771-.44-.435.743-.872 1.486-1.308 2.228.36.211.542.315.907.517.701-.899 1.972-.925 2.928-.46.498.243 1.022.86.768 1.292-1.012 1.715-4.419-1.846-5.787.495-.881 1.508.865 2.885 2.049 3.462.724.351 1.535.504 2.339.45.006.204.008.307.016.512.372.158.558.235.932.386.305-.75.61-1.5.913-2.249" fill="#fff" transform="translate(192.6772 82.4753)"/><path d="m0 0c1.489.491 2.998.905 4.519 1.282.079-.339.118-.507.197-.846-.284-.065-.427-.099-.711-.169-.286-.071-.409-.256-.347-.495.293-1.123.586-2.246.878-3.369.152-.676.865-.872 1.457-.754.948.19 1.324 1.111 1.075 1.987-.178.926-.356 1.853-.535 2.779-.047.242-.237.357-.525.3-.273-.055-.409-.083-.681-.142-.075.339-.112.508-.186.848 1.194.247 2.396.459 3.603.633.048-.343.071-.515.119-.859-.275-.038-.413-.058-.687-.099-.291-.044-.43-.217-.39-.46.171-1.042.341-2.083.511-3.124.3-1.519-.981-2.499-2.301-2.803-1.303-.301-3.063-.235-3.484 1.346-.324 1.039-.649 2.078-.974 3.117-.074.235-.276.327-.559.237-.28-.09-.419-.136-.697-.23-.113.328-.169.493-.282.821" fill="#fff" transform="translate(194.2492 85.5483)"/><path d="m0 0c.039-.987.358-2.513 1.631-2.509s1.583 1.531 1.617 2.519c.036 1.052-.293 2.582-1.632 2.579-1.337-.004-1.659-1.535-1.616-2.589m5.659-.139c-.193-2.051-2.076-3.281-4.025-3.287-1.95-.005-3.84 1.215-4.044 3.265-.229 2.306 1.955 3.66 4.025 3.667 2.068.006 4.26-1.339 4.044-3.645" fill="#fff" transform="translate(207.6322 84.7263)"/><path d="m0 0c.127-1.403.23-2.806.311-4.212.008-.002.012-.003.021-.005.78 1.18 1.58 2.344 2.403 3.495 1.37-.432 2.721-.901 4.065-1.41-.13-.322-.195-.483-.325-.805-.244.097-.365.145-.61.238-.277.106-.485.025-.572-.206-.47-1.253-.939-2.507-1.406-3.761-.087-.23.001-.42.25-.515.219-.084.328-.127.546-.214-.129-.322-.194-.483-.323-.806-1.178.455-2.362.864-3.569 1.234.099.333.148.5.247.833.17-.051.256-.076.426-.129.254-.077.44.018.515.253.422 1.322.845 2.644 1.269 3.965-.009.003-.014.004-.023.007-1.115-1.542-2.184-3.108-3.212-4.708-.584.159-.876.233-1.465.37-.126 1.925-.302 3.841-.528 5.757-.009.002-.013.002-.023.004-.269-1.394-.539-2.788-.807-4.183-.047-.242.07-.414.329-.466.174-.035.26-.053.433-.09-.072-.34-.108-.509-.181-.848-.977.195-1.952.364-2.938.511.048.344.071.516.118.86.25-.034.376-.052.626-.09.26-.04.429.082.47.325.216 1.32.433 2.641.651 3.961.039.243-.099.416-.39.46-.279.043-.419.063-.698.101.047.344.071.516.119.86 1.433-.222 2.853-.483 4.271-.786" fill="#fff" transform="translate(220.0582 86.8133)"/><path d="m0 0c-.258.152-.388.227-.648.375-.262.148-.429.195-.602-.115-.651-1.169-1.303-2.339-1.951-3.51-.12-.215-.059-.417.176-.55.229-.13.343-.196.571-.33-.176-.299-.264-.449-.44-.748-1.191.67-2.394 1.298-3.625 1.892.145.315.218.473.363.788.238-.109.356-.164.592-.278.242-.115.443-.05.551.172.612 1.242 1.225 2.483 1.839 3.724.075.15-.036.304-.306.434-.268.128-.401.191-.671.314.146.316.218.473.365.789 1.437-.69 2.843-1.423 4.229-2.21-.177-.299-.265-.448-.443-.747" fill="#fff" transform="translate(232.8212 80.7913)"/></g></svg>