<?xml version="1.0" encoding="UTF-8" standalone="no"?>
<svg
   width="2500"
   height="2500"
   viewBox="0 0 192.756 192.756"
   version="1.1"
   id="svg56"
   sodipodi:docname="Hockey_Quebec_logo_brand.svg"
   inkscape:version="1.1.2 (b8e25be833, 2022-02-05)"
   xmlns:inkscape="http://www.inkscape.org/namespaces/inkscape"
   xmlns:sodipodi="http://sodipodi.sourceforge.net/DTD/sodipodi-0.dtd"
   xmlns="http://www.w3.org/2000/svg"
   xmlns:svg="http://www.w3.org/2000/svg">
  <defs
     id="defs60" />
  <sodipodi:namedview
     id="namedview58"
     pagecolor="#ffffff"
     bordercolor="#666666"
     borderopacity="1.0"
     inkscape:pageshadow="2"
     inkscape:pageopacity="0.0"
     inkscape:pagecheckerboard="0"
     showgrid="false"
     inkscape:zoom="0.2116"
     inkscape:cx="1250"
     inkscape:cy="1247.6371"
     inkscape:window-width="1366"
     inkscape:window-height="715"
     inkscape:window-x="-8"
     inkscape:window-y="-8"
     inkscape:window-maximized="1"
     inkscape:current-layer="svg56" />
  <path
     fill-rule="evenodd"
     clip-rule="evenodd"
     fill="#fff"
     d="M0 0h192.756v192.756H0V0z"
     id="path2" />
  <g
     id="g88">
    <path
       d="m 127.34,151.631 c -9.387,-3.543 -6.705,-9.918 -8.715,-9.918 h -4.693 c -2.682,-0.709 -4.691,-1.416 -6.033,-2.832 -0.67,-2.127 0,-3.543 0,-3.543 5.363,0 10.055,-2.125 11.396,-5.666 0,-0.709 0.67,-1.418 0,-2.834 H 97.172 v -9.916 h 13.408 v -0.709 c 0,-5.668 -2.01,-14.168 -12.736,-14.168 -9.386,0 -10.727,8.5 -12.068,11.334 v 2.125 l -2.681,-1.416 C 79.743,112.67 73.71,107.004 73.71,99.92 73.04,90.003 80.414,80.795 93.821,81.503 c 7.375,0 13.408,1.417 20.111,12.042 4.693,6.375 4.693,20.543 4.693,23.377 h 4.021 c -0.67,-13.461 0,-11.336 -2.012,-21.252 -2.682,-12.042 -10.725,-14.875 -10.725,-29.043 -0.67,-12.75 12.066,-20.542 17.43,-26.209 H 32.818 c -9.385,0 -16.759,7.792 -16.759,17.709 v 75.793 c 0,9.918 7.374,17.711 16.759,17.711 z"
       fill-rule="evenodd"
       clip-rule="evenodd"
       fill="#305da2"
       id="path4" />
    <path
       d="m 127.34,151.631 c -9.387,-3.543 -6.705,-9.918 -8.715,-9.918 h -4.693 c -2.682,-0.709 -4.691,-1.416 -6.033,-2.832 -0.67,-2.127 0,-3.543 0,-3.543 5.363,0 10.055,-2.125 11.396,-5.666 0,-0.709 0.67,-1.418 0,-2.834 H 97.172 v -9.916 h 13.408 v -0.709 c 0,-5.668 -2.01,-14.168 -12.736,-14.168 -9.386,0 -10.727,8.5 -12.068,11.334 v 2.125 l -2.681,-1.416 C 79.743,112.67 73.71,107.004 73.71,99.92 73.04,90.003 80.414,80.795 93.821,81.503 c 7.375,0 13.408,1.417 20.111,12.042 4.693,6.375 4.693,20.543 4.693,23.377 h 4.021 c -0.67,-13.461 0,-11.336 -2.012,-21.252 -2.682,-12.042 -10.725,-14.875 -10.725,-29.043 -0.67,-12.75 12.066,-20.542 17.43,-26.209 4.691,5.667 17.43,13.458 17.43,26.209 -0.672,14.167 -8.715,17 -11.396,29.043 -2.012,9.916 -1.342,7.791 -2.012,21.252 h 4.021 c 0,-2.834 0,-17.002 4.693,-23.377 6.703,-10.625 12.736,-12.042 20.111,-12.042 13.406,-0.708 20.781,8.5 20.111,18.417 0,7.084 -6.033,12.75 -9.387,14.168 l -2.68,1.416 v -2.125 c -1.342,-2.834 -2.682,-11.334 -12.068,-11.334 -10.725,0 -12.736,8.5 -12.736,14.168 v 0.709 h 13.408 v 9.916 h -22.123 c -0.67,1.416 0,2.125 0,2.834 1.342,3.541 6.033,5.666 11.396,5.666 0,0 0.67,1.416 0,3.543 -1.34,1.416 -3.352,2.123 -6.033,2.832 h -4.693 c -2.008,0 0.674,6.375 -8.041,9.918 z"
       fill-rule="evenodd"
       clip-rule="evenodd"
       fill="#449ad5"
       id="path6" />
    <path
       d="m 73.709,137.463 v -6.375 c 0.671,0.709 2.011,0.709 2.682,1.416 -0.67,3.543 -1.341,7.084 -1.341,9.209 0,1.418 0,6.375 -0.67,7.084 0,1.416 -6.034,3.541 -8.044,3.541 -1.341,0 -7.374,-3.541 -8.044,-4.25 -0.671,-0.707 -1.341,-6.375 -1.341,-7.791 0,-1.416 0.67,-4.959 1.341,-4.959 0.671,-0.709 4.692,-2.834 7.374,-2.834 2.01,0 6.703,2.834 8.043,4.959 z m -8.714,1.418 c -1.341,0 -5.363,1.416 -6.033,1.416 -0.671,0 -0.671,0.707 -0.671,1.416 v 0.709 c 0.671,0.709 5.363,3.541 8.044,3.541 2.011,-0.707 6.704,-1.416 7.374,-2.125 v -0.707 -0.709 c -0.669,-1.418 -6.033,-3.541 -8.714,-3.541 z"
       fill="none"
       stroke="#ffffff"
       stroke-width="1.919"
       stroke-miterlimit="2.613"
       id="path8" />
    <path
       d="m 73.709,137.463 v -6.375 c 0.67,0.709 2.011,0.709 2.682,1.416 -0.67,3.543 -1.341,7.084 -1.341,9.209 0,1.418 0,6.375 -0.67,7.084 0,1.416 -6.033,3.541 -8.044,3.541 -1.341,0 -7.374,-3.541 -8.044,-4.25 -0.671,-0.707 -1.341,-6.375 -1.341,-7.791 0,-1.416 0.67,-4.959 1.341,-4.959 0.671,-0.709 4.692,-2.834 7.374,-2.834 2.01,0 6.703,2.834 8.043,4.959 z m -8.714,1.418 c -1.341,0 -5.363,1.416 -6.033,1.416 -0.671,0 -0.671,0.707 -0.671,1.416 v 0.709 c 0.671,0.709 5.363,3.541 8.044,3.541 2.011,-0.707 6.704,-1.416 7.374,-2.125 v -0.707 -0.709 c -0.669,-1.418 -6.033,-3.541 -8.714,-3.541 z"
       fill-rule="evenodd"
       clip-rule="evenodd"
       fill="#449ad5"
       id="path10" />
    <path
       d="m 69.688,117.629 c 1.341,0.709 4.693,2.834 6.033,4.25 v 0.709 c 0,2.125 -0.67,5.666 -1.34,6.375 H 63.655 c -0.67,0 -1.341,0.709 -2.011,2.125 -0.67,-2.834 -0.67,-5.668 -1.34,-8.5 1.34,0 7.374,0.709 10.726,0.709 1.341,0 2.011,-0.709 2.011,-0.709 0,-0.709 -3.352,-2.834 -4.693,-3.541 -1.34,-0.709 -4.692,-0.709 -7.374,-0.709 0,-1.416 0,-4.959 -0.67,-6.375 1.34,0 5.363,1.416 8.714,0.707 2.011,0 4.022,-0.707 4.692,-0.707 0.671,1.416 1.341,3.541 2.011,4.959 -0.67,0 -1.34,0.707 -2.011,0.707 z"
       fill="none"
       stroke="#ffffff"
       stroke-width="1.919"
       stroke-miterlimit="2.613"
       id="path12" />
    <path
       d="m 69.688,117.629 c 1.341,0.709 4.692,2.834 6.033,4.25 v 0.709 c 0,2.125 -0.67,5.666 -1.341,6.375 H 63.655 c -0.67,0 -1.341,0.709 -2.011,2.125 -0.67,-2.834 -0.67,-5.668 -1.34,-8.5 1.34,0 7.374,0.709 10.726,0.709 1.341,0 2.011,-0.709 2.011,-0.709 0,-0.709 -3.352,-2.834 -4.693,-3.541 -1.34,-0.709 -4.692,-0.709 -7.374,-0.709 0,-1.416 0,-4.959 -0.67,-6.375 1.34,0 5.363,1.416 8.714,0.707 2.011,0 4.022,-0.707 4.692,-0.707 0.67,1.416 1.341,3.541 2.011,4.959 -0.67,0 -1.341,0.707 -2.011,0.707 z"
       fill-rule="evenodd"
       clip-rule="evenodd"
       fill="#449ad5"
       id="path14" />
    <path
       d="m 69.017,109.838 c -1.341,0.707 -7.374,-2.125 -8.044,-2.834 0,-1.418 -0.67,-7.084 -0.67,-9.209 V 95.67 c 0.67,0 2.01,0 3.352,-0.708 1.341,0 2.682,0 3.352,0.708 0,0.709 0.67,5.666 1.34,8.5 h 2.011 c 2.011,-0.709 3.352,-1.416 4.022,-1.416 v -0.709 c 0,0 0,-0.709 -0.671,-0.709 0,-0.707 -3.352,-2.125 -4.692,-2.125 v -4.958 c 1.341,0 4.692,1.417 5.363,2.833 0.67,0.709 1.34,5.668 1.34,8.5 0,0.709 0,1.418 -0.67,2.127 0,0.709 -4.022,2.125 -6.033,2.125 z m -2.681,-9.209 h -2.011 c -1.341,0 -2.682,0 -2.682,0.707 v 0.709 c 0.67,0.709 4.693,2.125 5.363,2.125 0,-1.416 -0.67,-2.834 -0.67,-3.541 z m -7.374,2.832 c -0.671,-1.416 -2.012,-2.832 -4.022,-4.25 0.67,-0.707 1.34,-1.416 1.34,-2.125 1.34,1.418 2.682,3.543 3.352,5.668 z"
       fill="none"
       stroke="#ffffff"
       stroke-width="1.919"
       stroke-miterlimit="2.613"
       id="path16" />
    <path
       d="m 69.017,109.838 c -1.341,0.707 -7.374,-2.125 -8.044,-2.834 0,-1.418 -0.67,-7.084 -0.67,-9.209 V 95.67 c 0.67,0 2.01,0 3.352,-0.708 1.341,0 2.682,0 3.352,0.708 0,0.709 0.67,5.666 1.34,8.5 h 2.011 c 2.011,-0.709 3.352,-1.416 4.022,-1.416 v -0.709 c 0,0 0,-0.709 -0.67,-0.709 0,-0.707 -3.352,-2.125 -4.692,-2.125 v -4.958 c 1.341,0 4.692,1.417 5.363,2.833 0.67,0.709 1.341,5.668 1.341,8.5 0,0.709 0,1.418 -0.67,2.127 -0.002,0.709 -4.024,2.125 -6.035,2.125 z m -2.681,-9.209 h -2.011 c -1.341,0 -2.682,0 -2.682,0.707 v 0.709 c 0.67,0.709 4.693,2.125 5.363,2.125 0,-1.416 -0.67,-2.834 -0.67,-3.541 z m -7.374,2.832 c -0.671,-1.416 -2.012,-2.832 -4.022,-4.25 0.67,-0.707 1.34,-1.416 1.34,-2.125 1.34,1.418 2.682,3.543 3.352,5.668 z"
       fill-rule="evenodd"
       clip-rule="evenodd"
       fill="#449ad5"
       id="path18" />
    <path
       d="m 65.666,86.461 c -2.011,-1.417 -4.692,-3.542 -4.692,-4.25 0,-0.708 -0.67,-4.958 -0.67,-5.667 0,-0.709 3.352,-2.125 5.363,-2.125 1.341,0 6.704,2.125 7.374,3.541 0.67,0.709 2.681,5.667 2.681,6.375 0,1.417 -0.67,7.792 -1.34,7.792 -2.682,0 -12.737,-0.708 -14.748,-0.708 -1.341,0.708 -2.682,2.125 -3.352,2.833 0,-2.125 0,-6.375 -0.67,-8.5 2.009,0 8.042,0.709 10.054,0.709 z m -2.682,-5.667 c 0,0.708 4.022,4.25 5.363,4.958 0.67,0 2.682,0.709 4.022,0.709 0.67,0 1.34,0 1.34,-0.709 v -0.708 -2.125 c -0.67,-0.708 -5.363,-2.834 -6.703,-2.834 -0.67,0 -1.341,0 -2.682,0.709 z"
       fill="none"
       stroke="#ffffff"
       stroke-width="1.919"
       stroke-miterlimit="2.613"
       id="path20" />
    <path
       d="m 65.666,86.461 c -2.011,-1.417 -4.692,-3.542 -4.692,-4.25 0,-0.708 -0.67,-4.958 -0.67,-5.667 0,-0.709 3.352,-2.125 5.363,-2.125 1.341,0 6.704,2.125 7.374,3.541 0.67,0.709 2.681,5.667 2.681,6.375 0,1.417 -0.67,7.792 -1.341,7.792 -2.681,0 -12.737,-0.708 -14.748,-0.708 -1.341,0.708 -2.682,2.125 -3.352,2.833 0,-2.125 0,-6.375 -0.67,-8.5 2.01,0 8.043,0.709 10.055,0.709 z m -2.682,-5.667 c 0,0.708 4.022,4.25 5.363,4.958 0.67,0 2.682,0.709 4.022,0.709 0.67,0 1.34,0 1.34,-0.709 v -0.708 -2.125 c -0.67,-0.708 -5.363,-2.834 -6.703,-2.834 -0.67,0 -1.341,0 -2.682,0.709 z"
       fill-rule="evenodd"
       clip-rule="evenodd"
       fill="#449ad5"
       id="path22" />
    <path
       d="m 69.017,73.002 c -1.341,0 -7.374,-2.125 -8.044,-3.542 0,-0.708 -0.67,-6.375 -0.67,-9.208 v -1.417 c 0.67,-0.708 2.01,-0.708 3.352,-0.708 h 3.352 c 0,1.417 0.67,5.667 1.34,8.5 h 2.011 c 2.011,0 3.352,-0.708 4.022,-1.417 0,-0.708 0,-1.417 -0.671,-1.417 0,0 -3.352,-1.417 -4.692,-2.125 V 56.71 c 1.341,0.708 4.692,1.417 5.363,2.833 0.67,1.417 1.34,5.667 1.34,8.501 0,1.416 0,2.125 -0.67,2.125 0,0.708 -4.022,2.125 -6.033,2.833 z m -2.681,-9.917 h -2.011 c -1.341,0 -2.682,0.708 -2.682,0.708 v 1.416 c 0.67,0.708 4.693,1.417 5.363,1.417 0,-0.708 -0.67,-2.124 -0.67,-3.541 z"
       fill="none"
       stroke="#ffffff"
       stroke-width="1.919"
       stroke-miterlimit="2.613"
       id="path24" />
    <path
       d="m 69.017,73.002 c -1.341,0 -7.374,-2.125 -8.044,-3.542 0,-0.708 -0.67,-6.375 -0.67,-9.208 v -1.417 c 0.67,-0.708 2.01,-0.708 3.352,-0.708 h 3.352 c 0,1.417 0.67,5.667 1.34,8.5 h 2.011 c 2.011,0 3.352,-0.708 4.022,-1.417 0,-0.708 0,-1.417 -0.67,-1.417 0,0 -3.352,-1.417 -4.692,-2.125 V 56.71 c 1.341,0.708 4.692,1.417 5.363,2.833 0.67,1.417 1.341,5.667 1.341,8.5 0,1.417 0,2.125 -0.67,2.125 -0.002,0.709 -4.024,2.126 -6.035,2.834 z m -2.681,-9.917 h -2.011 c -1.341,0 -2.682,0.708 -2.682,0.708 v 1.416 c 0.67,0.708 4.693,1.417 5.363,1.417 0,-0.708 -0.67,-2.124 -0.67,-3.541 z"
       fill-rule="evenodd"
       clip-rule="evenodd"
       fill="#449ad5"
       id="path26" />
    <path
       d="m 61.643,40.418 h 2.682 c 0.67,2.125 0.67,3.542 1.341,4.958 h -2.682 c -1.341,0.708 -1.341,0.708 -1.341,1.417 v 0.708 c 0.67,0.708 4.693,2.125 6.033,2.125 h 1.341 c 2.011,0 4.692,-0.708 4.692,-1.417 v -1.417 c -0.67,-0.708 -2.681,-1.417 -5.363,-2.125 v -4.25 c 1.341,0 4.693,0.708 5.363,1.417 0.671,0.708 2.011,7.084 2.011,9.917 v 0.708 c -0.67,1.417 -6.033,2.833 -7.374,3.542 -1.34,0 -6.704,-2.125 -6.704,-3.542 -0.67,-2.125 -1.34,-7.083 -1.34,-9.917 10e-4,-1.416 10e-4,-1.416 1.341,-2.124 z"
       fill="none"
       stroke="#ffffff"
       stroke-width="1.919"
       stroke-miterlimit="2.613"
       id="path28" />
    <path
       d="m 61.643,40.418 h 2.682 c 0.67,2.125 0.67,3.542 1.341,4.958 h -2.682 c -1.341,0.708 -1.341,0.708 -1.341,1.417 v 0.708 c 0.67,0.709 4.693,2.125 6.033,2.125 h 1.341 c 2.011,0 4.692,-0.708 4.692,-1.417 v -1.417 c -0.67,-0.708 -2.681,-1.417 -5.363,-2.125 v -4.25 c 1.341,0 4.693,0.708 5.363,1.417 0.67,0.708 2.011,7.084 2.011,9.917 v 0.708 c -0.67,1.417 -6.033,2.833 -7.374,3.542 -1.34,0 -6.704,-2.125 -6.704,-3.542 -0.67,-2.125 -1.34,-7.083 -1.34,-9.917 10e-4,-1.416 10e-4,-1.416 1.341,-2.124 z"
       fill-rule="evenodd"
       clip-rule="evenodd"
       fill="#449ad5"
       id="path30" />
    <path
       d="m 40.192,150.922 c 0,0 -2.011,0.709 -3.352,1.416 0,-2.832 0,-4.957 -0.67,-8.5 2.681,0.709 6.033,0.709 8.044,1.418 0,-2.125 0,-4.959 -0.67,-7.084 h -4.022 c 0,0 -1.34,0.709 -2.681,0.709 0,-2.127 -0.67,-4.961 -0.67,-7.084 4.022,0.707 11.396,0.707 14.077,0.707 0.67,0 2.011,0 3.352,-0.707 0,2.123 0.67,4.25 1.341,7.084 -4.022,0 -8.044,-0.709 -9.385,-0.709 0,2.125 0.67,6.375 0.67,6.375 0,0.709 2.682,0.709 5.363,0 h 2.682 c 0,2.125 0,4.959 0.67,7.084 -4.022,-0.709 -12.737,-0.709 -14.078,-0.709 z"
       fill="none"
       stroke="#ffffff"
       stroke-width="1.919"
       stroke-miterlimit="2.613"
       id="path32" />
    <path
       d="m 40.192,150.922 c 0,0 -2.012,0.709 -3.352,1.416 0,-2.832 0,-4.957 -0.67,-8.5 2.681,0.709 6.033,0.709 8.044,1.418 0,-2.125 0,-4.959 -0.67,-7.084 h -4.022 c 0,0 -1.341,0.709 -2.681,0.709 0,-2.127 -0.67,-4.961 -0.67,-7.084 4.022,0.707 11.396,0.707 14.077,0.707 0.67,0 2.011,0 3.352,-0.707 0,2.123 0.67,4.25 1.341,7.084 -4.022,0 -8.045,-0.709 -9.386,-0.709 0,2.125 0.671,6.375 0.671,6.375 0,0.709 2.682,0.709 5.363,0 h 2.682 c 0,2.125 0,4.959 0.67,7.084 -4.022,-0.709 -12.737,-0.709 -14.078,-0.709 z"
       fill-rule="evenodd"
       clip-rule="evenodd"
       id="path34" />
    <path
       d="m 48.236,129.672 c -1.34,0.707 -6.704,-2.125 -7.374,-3.543 -0.67,-1.416 -1.341,-5.666 -1.341,-8.5 v -2.125 c 0.671,-1.416 4.693,-2.125 6.704,-2.125 h 1.341 c 0.67,0 6.033,2.834 6.033,3.543 0.67,0.707 1.341,3.541 1.341,4.957 0,1.418 -0.67,4.959 -0.67,5.668 -0.671,0.707 -4.023,2.125 -6.034,2.125 z m -1.34,-10.625 c -1.341,0 -5.363,1.416 -5.363,1.416 -0.67,0 -0.67,0 -0.67,0.709 0,0 0,0.707 0.67,0.707 0.67,0.709 6.034,2.125 6.704,2.125 0.671,0 4.692,-0.707 5.363,-1.416 v -0.709 c -0.001,-0.707 -4.693,-2.832 -6.704,-2.832 z"
       fill="none"
       stroke="#ffffff"
       stroke-width="1.919"
       stroke-miterlimit="2.613"
       id="path36" />
    <path
       d="m 48.236,129.672 c -1.341,0.707 -6.704,-2.125 -7.374,-3.543 -0.67,-1.416 -1.341,-5.666 -1.341,-8.5 v -2.125 c 0.671,-1.416 4.693,-2.125 6.704,-2.125 h 1.341 c 0.67,0 6.033,2.834 6.033,3.543 0.67,0.707 1.341,3.541 1.341,4.957 0,1.418 -0.67,4.959 -0.67,5.668 -0.671,0.707 -4.023,2.125 -6.034,2.125 z m -1.341,-10.625 c -1.341,0 -5.363,1.416 -5.363,1.416 -0.67,0 -0.67,0 -0.67,0.709 0,0 0,0.707 0.67,0.707 0.67,0.709 6.034,2.125 6.704,2.125 0.671,0 4.692,-0.707 5.363,-1.416 v -0.709 c 0,-0.707 -4.692,-2.832 -6.704,-2.832 z"
       fill-rule="evenodd"
       clip-rule="evenodd"
       id="path38" />
    <path
       d="m 40.862,96.379 h 2.682 c 0.67,1.416 0.67,3.541 1.341,4.957 h -2.682 c -1.341,0 -1.341,0 -1.341,0.709 v 1.416 c 0.67,0.709 4.693,2.125 6.034,2.125 h 1.34 c 2.011,-0.707 4.692,-0.707 4.692,-1.416 v -1.416 c -0.67,-0.709 -2.681,-1.418 -5.362,-2.125 v -4.25 c 1.341,0 4.692,0.707 5.362,1.416 0.671,0.709 2.012,7.084 2.012,9.209 v 0.709 c -0.67,1.416 -6.033,3.541 -7.374,3.541 -1.341,0.709 -6.704,-2.125 -6.704,-2.832 -0.67,-2.127 -1.341,-7.086 -1.341,-9.918 0,-1.418 0,-2.125 1.341,-2.125 z"
       fill="none"
       stroke="#ffffff"
       stroke-width="1.919"
       stroke-miterlimit="2.613"
       id="path40" />
    <path
       d="m 40.862,96.379 h 2.682 c 0.67,1.416 0.67,3.541 1.341,4.957 h -2.682 c -1.341,0 -1.341,0 -1.341,0.709 v 1.416 c 0.67,0.709 4.692,2.125 6.033,2.125 h 1.341 c 2.011,-0.707 4.692,-0.707 4.692,-1.416 v -1.416 c -0.67,-0.709 -2.681,-1.418 -5.362,-2.125 v -4.25 c 1.341,0 4.692,0.707 5.362,1.416 0.671,0.709 2.012,7.084 2.012,9.209 v 0.709 c -0.67,1.416 -6.033,3.541 -7.374,3.541 -1.341,0.709 -6.704,-2.125 -6.704,-2.832 -0.67,-2.127 -1.341,-7.086 -1.341,-9.918 0,-1.418 0,-2.125 1.341,-2.125 z"
       fill-rule="evenodd"
       clip-rule="evenodd"
       id="path42" />
    <path
       d="m 50.917,87.878 c 0.67,0 2.011,0 2.682,-0.709 0,2.125 0.67,4.25 1.341,6.375 -2.682,-0.708 -13.408,0 -16.759,0 -0.67,0 -1.341,0.708 -2.681,2.125 0,-1.417 -0.671,-6.375 -0.671,-7.792 2.011,0 9.385,0.708 11.396,0 -0.67,-0.709 -1.341,-2.834 -2.011,-3.542 h -4.022 c 0,-2.125 0,-4.25 -0.671,-6.375 1.341,0.709 4.022,0.709 4.022,1.417 0.67,0.708 1.341,2.125 2.011,3.542 0.67,-0.708 5.363,-4.959 7.374,-5.667 0,1.417 1.341,3.542 2.012,4.958 -2.012,0.708 -6.704,3.542 -8.044,4.25 0.67,0.708 0.67,1.417 0.67,1.417 z"
       fill="none"
       stroke="#ffffff"
       stroke-width="1.919"
       stroke-miterlimit="2.613"
       id="path44" />
    <path
       d="m 50.917,87.878 c 0.67,0 2.011,0 2.682,-0.709 0,2.125 0.67,4.25 1.341,6.375 -2.682,-0.708 -13.408,0 -16.76,0 -0.67,0 -1.34,0.708 -2.681,2.125 0,-1.417 -0.67,-6.375 -0.67,-7.792 2.011,0 9.385,0.708 11.396,0 -0.671,-0.709 -1.341,-2.834 -2.011,-3.542 h -4.022 c 0,-2.125 0,-4.25 -0.671,-6.375 1.341,0.709 4.022,0.709 4.022,1.417 0.67,0.708 1.341,2.125 2.011,3.542 0.671,-0.708 5.363,-4.959 7.374,-5.667 0,1.417 1.341,3.542 2.012,4.958 -2.012,0.708 -6.704,3.542 -8.045,4.25 0.671,0.708 0.671,1.417 0.671,1.417 z"
       fill-rule="evenodd"
       clip-rule="evenodd"
       id="path46" />
    <path
       d="m 48.236,76.544 c -1.34,0 -7.374,-2.125 -8.044,-3.542 0,-0.708 -0.671,-6.375 -0.671,-9.208 v -1.417 c 0.671,-0.708 2.011,-0.708 3.353,-0.708 1.34,-0.708 2.681,-0.708 3.352,0 0,1.417 0.67,5.667 1.341,8.5 h 2.011 c 2.011,-0.708 3.352,-0.708 4.022,-1.417 v -0.708 c 0,0 0,-0.709 -0.671,-0.709 0,0 -3.352,-2.125 -4.692,-2.125 v -4.958 c 1.341,0.708 4.692,1.417 5.363,2.833 0.67,0.708 1.341,5.667 1.341,8.5 0,1.417 0,2.125 -0.67,2.125 -10e-4,0.709 -4.024,2.125 -6.035,2.834 z m -2.681,-9.917 h -2.011 c -1.341,0 -2.682,0.708 -2.682,0.708 v 1.417 c 0.67,0 4.693,1.417 5.363,1.417 0,-0.709 -0.67,-2.834 -0.67,-3.542 z"
       fill="none"
       stroke="#ffffff"
       stroke-width="1.919"
       stroke-miterlimit="2.613"
       id="path48" />
    <path
       d="m 48.236,76.544 c -1.341,0 -7.374,-2.125 -8.044,-3.542 0,-0.708 -0.671,-6.375 -0.671,-9.208 v -1.417 c 0.671,-0.708 2.011,-0.708 3.353,-0.708 1.34,-0.708 2.681,-0.708 3.352,0 0,1.417 0.67,5.667 1.341,8.5 h 2.011 c 2.011,-0.708 3.352,-0.708 4.022,-1.417 v -0.708 c 0,0 0,-0.708 -0.671,-0.708 0,0 -3.352,-2.125 -4.692,-2.125 v -4.958 c 1.341,0.708 4.692,1.417 5.363,2.833 0.67,0.708 1.341,5.667 1.341,8.5 0,1.417 0,2.125 -0.67,2.125 -10e-4,0.708 -4.024,2.124 -6.035,2.833 z m -2.682,-9.917 h -2.011 c -1.341,0 -2.682,0.708 -2.682,0.708 v 1.417 c 0.67,0 4.692,1.417 5.363,1.417 0.001,-0.709 -0.67,-2.834 -0.67,-3.542 z"
       fill-rule="evenodd"
       clip-rule="evenodd"
       id="path50" />
    <path
       d="m 48.907,46.793 c 1.34,1.417 4.692,3.542 4.692,4.958 0.67,0 0.67,0.708 0.67,1.417 0,1.417 -0.67,4.25 -0.67,4.958 h -0.671 c -2.011,0 -8.044,-0.708 -9.385,0 l -2.682,1.417 c 0,-1.417 -0.67,-4.958 -1.341,-7.792 2.011,0.708 8.045,1.417 11.396,0.708 0.67,0 1.341,0 1.341,-0.708 0,-0.708 -4.022,-3.542 -6.033,-3.542 -0.67,-0.708 -3.352,-0.708 -6.033,-0.708 0,-1.417 0,-5.667 -0.671,-7.083 2.682,0.708 6.704,1.417 8.045,1.417 0.67,0 8.044,-0.708 8.714,0 0.67,1.417 2.682,6.375 2.682,7.792 0,2.125 -0.671,6.375 -1.342,8.5 -0.67,0 -1.34,-0.708 -2.011,-0.708 0.67,-2.833 0.67,-6.375 0.67,-8.5 v -0.708 c 0,-0.708 -4.69,-1.418 -7.371,-1.418 z"
       fill="none"
       stroke="#ffffff"
       stroke-width="1.919"
       stroke-miterlimit="2.613"
       id="path52" />
    <path
       d="m 48.907,46.793 c 1.34,1.417 4.692,3.542 4.692,4.958 0.67,0 0.67,0.708 0.67,1.417 0,1.417 -0.67,4.25 -0.67,4.958 h -0.671 c -2.011,0 -8.044,-0.708 -9.385,0 l -2.682,1.417 c 0,-1.417 -0.67,-4.958 -1.341,-7.792 2.011,0.708 8.045,1.417 11.396,0.708 0.67,0 1.341,0 1.341,-0.708 0,-0.708 -4.022,-3.542 -6.033,-3.542 C 45.553,47.5 42.872,47.5 40.191,47.5 c 0,-1.416 0,-5.667 -0.671,-7.083 2.682,0.708 6.704,1.417 8.045,1.417 0.67,0 8.044,-0.708 8.714,0 0.67,1.417 2.682,6.375 2.682,7.792 0,2.125 -0.671,6.375 -1.342,8.5 -0.67,0 -1.34,-0.708 -2.011,-0.708 0.67,-2.833 0.67,-6.375 0.67,-8.5 V 48.21 c 0.002,-0.709 -4.69,-1.417 -7.371,-1.417 z"
       fill-rule="evenodd"
       clip-rule="evenodd"
       id="path54" />
  </g>
</svg>
