<?xml version="1.0" encoding="UTF-8"?>
<!-- Generator: Adobe Illustrator 22.0.1, SVG Export Plug-In . SVG Version: 6.00 Build 0)  -->
<svg version="1.1" id="Layer_1" xmlns="http://www.w3.org/2000/svg" xmlns:xlink="http://www.w3.org/1999/xlink" x="0px" y="0px" width="250.1px" height="110.58px" viewBox="0 0 250.1 110.58" enable-background="new 0 0 250.1 110.58" xml:space="preserve">
<path fill="#FFFFFF" d="M0.08,55.29c0,30.49,24.72,55.21,55.21,55.21s55.21-24.72,55.21-55.21c0-30.49-24.72-55.21-55.21-55.21  S0.08,24.8,0.08,55.29"/>
<path fill="#002E6D" d="M162,91.93c0.49-0.77,0.06-1.74,0.01-1.85l-0.05-0.11l-0.09-0.08c-2.06-1.85-5.43-5.3-5.69-6.68  c-0.35-2.02,0.01-4.85,3.68-6.77c0.88-0.72,4.69-0.82,7.15-0.67h24.77c-0.2,0.92-0.66,3.07-0.79,3.71h-6.82  c0,0-4.15,16.52-4.36,17.37c-0.71,0-4.84,0-5.98,0.01c0.35-1.36,4.49-17.26,4.49-17.26l-13.4-0.28c-1.83,0.04-2.34,1.03-2.47,1.46  c-0.24,0.77,0.04,1.69,0.65,2.13c0,0.01,3.6,3.51,4.66,5.27c0.42,0.77,0.63,1.61,0.63,2.45c0,0.78-0.18,1.56-0.54,2.29  c-1.01,2.05-3.26,3.44-6.35,3.93c0-0.01-13.29-0.04-16-0.04c-0.12-0.89-0.99-7.44-0.99-7.44h-9.6c0,0-4.54,6.73-4.87,7.21h-22.35  c0.34-1.34,5.03-19.98,5.23-20.81h15.19c-0.22,0.92-0.69,2.87-0.84,3.48c-0.85-0.01-10.05-0.06-10.05-0.06l-0.87,4.71  c0,0,6.57,0.05,7.8,0.06c-0.23,0.91-0.69,2.78-0.84,3.38h-7.88l-1.14,4.8h13.03c0,0,12.17-15.95,12.52-16.4  c0.51,0,7.22,0.02,8.06,0.02c0.17,0.9,3.24,16.84,3.24,16.84l9.15,0.07C161.1,92.68,161.68,92.43,162,91.93 M137.71,85.32l6.12,0.14  l-1.08-7.35L137.71,85.32z M124.52,51.37c-0.26,1.19-1.56,7.16-1.56,7.16l0.58,0.72l9.97-0.02c0,0,1.76-7.02,1.95-7.82  c0.71,0,4.54-0.01,5.64-0.01c-0.3,1.28-2.53,10.8-2.53,10.8s0.13,0.03,0.18,0.04c-0.05-0.01-0.18-0.03-0.18-0.03  c0,0.01,0,0.02,0,0.03h0c-0.27,1.61-1.82,8.26-2.24,10.04h-6.02c0.3-1.23,2.02-8.21,2.02-8.21l-0.57-0.73l-10.02-0.01  c0,0-1.86,8.13-2.05,8.96h-5.99c0.33-1.34,4.86-20.04,5.06-20.88C119.47,51.4,123.43,51.38,124.52,51.37 M166.41,62.63  c-0.14,0.88-0.2,1.68-0.2,2.4c0,3.78,1.66,5.39,2.32,6.03c3.22,2.46,11.42,1.75,12.99,1.59c0.21-0.42,1.47-2.94,2.12-4.22  c-5.44,0.97-8.53,0.77-10.03-0.74c-1.1-1.11-1.37-2.83-0.84-5.4c0.29-1.56,1.41-3.76,3.71-5.24c2.59-1.67,6.02-2.02,10.18-1.13  c-0.15-1.71-0.32-3.34-0.44-3.97C175.77,50.44,169.28,53.92,166.41,62.63 M139.72,62.47c-0.17,0.81-0.26,1.58-0.26,2.32  c0,1.82,0.53,3.41,1.57,4.65c1.92,2.29,5.46,3.42,10.22,3.25c7.48-0.48,12.19-3.95,14-10.32c0.21-1.23,0.31-2.36,0.31-3.37  c0-2.35-0.56-4.11-1.68-5.34c-1.8-1.97-5.12-2.7-10.48-2.29C151.61,51.37,142.54,51.9,139.72,62.47 M158.21,56.12  c1.21,0.54,1.95,1.72,2.09,3.32c0.21,2.45-1.08,5.94-3.96,7.89c-2.51,1.69-5.64,1.74-8.8,0.14l-0.06-0.03l-0.05-0.05  c-2.14-1.79-2.32-5.28-0.44-8.29C148.78,56.22,152.81,53.71,158.21,56.12 M244.3,51.98c-0.33,0.42-6.03,7.57-6.03,7.57l-1.03-0.19  c0,0-2.16-6.78-2.4-7.52c-0.57,0-14.73,0.02-23.64,0.04l0.95,0.56l-4.6,20.12c6.76,0.01,14.94,0.02,15.45,0.02  c0.16-0.61,0.73-2.75,0.98-3.7c-1.3,0-9.02-0.01-9.02-0.01l-0.58-0.71l0.86-4.15h7.89c0.13-0.63,0.56-2.64,0.75-3.55h-7.06  l-0.58-0.73l0.93-4.02c0,0,9.03-0.02,9.82-0.02c0.18-0.56,0.63-1.98,0.63-1.98l1.1-0.05l4.86,11.32c0,0-1.58,6.5-1.88,7.72  c1.12-0.01,5.15-0.03,5.89-0.04c0.18-0.83,1.7-7.95,1.7-7.95s9.33-11.04,10.74-12.71H244.3z M211.15,51.87  c-4.01,0.01-6.96,0.01-7.1,0.01c-0.33,0.3-9.11,8.34-9.11,8.34l-0.98-0.54c0,0,1.17-6.73,1.37-7.9h-5.91  c-0.2,0.84-4.7,19.42-5.02,20.75h6.03c0.22-0.79,2.51-8.98,2.51-8.98l1.1-0.1c0,0,4.17,8.46,4.47,9.07c0.26,0,3.68,0.01,7.88,0.01  l-5.8-11.16L211.15,51.87z M63.46,61.75c-5.55-0.4-7.5-5.83-7.56-6.01l-9.63-20.64h7.19c0,0,5.24,10.97,5.26,11  c1.51,3.69,5.2,3.78,5.36,3.78c0,0,31.69,0,46.18,0C107.54,21.91,83.97,0.05,55.29,0.05c-5.82,0-11.43,0.91-16.7,2.58  c3.63,7.92,9.67,21.13,9.67,21.13H41.2c0,0-5.4-11.5-8.81-18.74c-0.61,0.28-1.22,0.57-1.81,0.86c4.47,9.68,13.02,28.17,13.02,28.17  h-7.96c0,0-7.38-15.65-11.5-24.38c-0.74,0.51-1.47,1.03-2.18,1.57c5.1,11.06,15.86,34.4,15.86,34.4H27.79  c0,0-8.73-18.22-13.25-27.65c-9,9.83-14.49,22.92-14.49,37.29c0,30.51,24.73,55.24,55.24,55.24c13.79,0,26.39-5.07,36.07-13.43  c-12.19-0.01-33.51,0.02-33.55,0.02c-7.39-0.86-9.78-7.81-9.86-8.04L34.51,60.26l10.3,0.04l7.06,15.28c2.45,5,8.54,5.18,8.6,5.18  h43.84c0.53-1.03,1.04-2.08,1.51-3.14c-14.3,0-43.16,0-43.16,0c-5.51,0.5-8.67-4.32-8.84-4.59l-12.29-25.9h8.04l6.26,12.77  c0.08,0.16,2.02,3.96,7.38,4.4c0,0,31.95,0,46.58,0c0.14-0.84,0.25-1.7,0.36-2.56C92.18,61.7,64.16,61.72,63.46,61.75 M52.79,33.84  h-7l-1.81-3.93h7.26L52.79,33.84z M43.41,28.61l-1.9-4.03h7.1l1.86,4.03H43.41z M36.15,35.48h8.09l1.91,4.17h-8.08L36.15,35.48z   M28.29,47.31l10.32,0.05l2.27,4.43H30.75L28.29,47.31z M41.65,53.74l2.11,4.55H33.69l-2.13-4.58L41.65,53.74z M40.83,45.42  l-1.91-4.17h7.99l1.88,4.17H40.83z"/>
</svg>