<svg height="250" viewBox="0,0,139,250" width="139" xmlns="http://www.w3.org/2000/svg" xmlns:xlink="http://www.w3.org/1999/xlink">
 <clipPath id="a">
  <path d="m6.72 6.76h125.56v236.48h-125.56z"/>
 </clipPath>
 <clipPath id="b">
  <path d="m6.72 6.76h125.56v236.48h-125.56z"/>
 </clipPath>
 <clipPath id="c">
  <path d="m14.001 177.92.035 29.349c0 15.826 12.832 28.659 28.654 28.659h53.615c15.826 0 28.659-12.833 28.659-28.659l.013-89.659c-36.743 9.512-110.98 32.826-110.98 60.31"/>
 </clipPath>
 <clipPath id="d">
  <path d="m4.96 5h129.08v240h-129.08z"/>
 </clipPath>
 <clipPath id="e">
  <path d="m43.385 122.86c.158.146 2.207-.035 2.708-.378.519-.321-1.495-.963-1.824-.984 0 0-1.03 1.222-.884 1.362m-.972-3.156c.049.048.272.065.58.053l-.246-.717c-.215.304-.399.603-.334.664m27.683-28.725c-.145.264.141.958-.118 1.253-.137.146-.308.128-.471.105-.181-.021-.356-.039-.479.119-.25.312.026 1.139.031 1.543.009.426.167 2.532-.55 4.483-.149.423-2.022 3.038-3.732 5.249-1.701 2.216-3.416 3.1-3.618 3.676-.202.566.198 2.923-.452 4.915-.075.25.065 3.965-2.269 5.446-.475.295-.527 1.024-1.39 1.165-1.429.237-4.149.717-4.149.717s.355 1.2-1.24 2.105c-.127.075-.32.176-.567.281 10.542-2.466 21.832-4.589 33.843-6.418-.146-.198-.269-.409-.374-.594l-13.559-24.533s-.761.229-.906.488m-12.762-45.083c-.392.108-.65 2.08-.36 2.509 1.736 2.578 2.466 5.541 2.466 5.541s2.699 3.708 2.695 3.996c-.018.299-.378.501-.365.708.009.202.392 1.193.791 2.517.766 2.557-.343 4.754-.563 4.855-.092.049-.272.07-.457.088l.642 1.204c.506-.452 1.613-1.477 1.847-1.921.308-.584 1.93-2.413 1.93-2.413s.216-2.557-.074-3.063c-.277-.517-2.634-3.682-3.412-5.692-.782-2.01-1.204-4.922-1.072-6.124l-1.68-.903s-1.837-1.311-2.33-1.311c-.028.001-.04.006-.058.009m-14.644-31.826c-15.822 0-28.654 12.828-28.654 28.657l-.018 90.812c8.353-3.438 17.585-6.458 27.581-9.122-.021-.009-.065-.022-.088-.035-.36-.154-.466-.787-.364-1.188.105-.408 1.271-2.356 1.297-2.418-.378.018-1.297.062-1.622.018-.405-.048-.476-.413-.37-.703.11-.303.537-.914.414-.932-.123-.009-.687-.255-.945-.796-.264-.541-.457-2.36-.233-3.372.233-1.016 1.891-1.107 2.308-1.077.432.022 5.43-.998 5.86-1.099.005 0 .014-.005.014-.014 1.833-1.262 4.22-5.016 4.22-5.016s-1.033-3.139-1.257-4.348c-.216-1.205-.457-5.144-.304-5.478.158-.348-.382-2.181-.466-3.86-.088-1.666.567-2.901.976-3.82.418-.928 1.785-1.991 2.128-2.264.343-.281.272-1.886.55-2.22.193-.225.519-.643.677-.757.146-.118.014-1.397.655-2.932.523-1.262 3.938-8.709 5.108-11.259l-1.394-2.537c-.536-.035-1.205-.141-1.815-.435-.585-.272-1.578-.985-2.146-1.394-.563-.404-.532-.783-.541-.968-.013-.185-.875-.246-1.473-.725-.304-.242-.984-1.553-1.147-1.627-.875-.396-.787-2.638-.726-2.796.066-.151 0-2.706 0-2.706s-.826-1.058-1.011-1.345c-.541-.829-.879-3.445-.879-3.445s-1.719-.61-2.172-1.67c-.146-.35-2.181-4.339-2.607-6.874-.105-.675-.457-2.285-.598-2.6-.145-.33-.053-1.451.07-1.766.119-.32.383-.78.506-.974.136-.202-.009-1.035-.026-1.216-.009-.185 4.924-6.868 6.168-7.954 1.327-1.144 5.223-3.196 7.288-3.588.497-.099 8.441-.593 8.441-.593l.026-1.262s.185.004.176-.288c-.014-.288-.005-1.796-.014-1.921-.009-.126.158-.042.158-.042l-.021-.328c-.044-.932.193-2.101.255-2.314.057-.215.348-.464.457-.723.11-.253.158-.398.694-1.941.404-1.185 1.253-2.112 2.005-2.75h-27.141zm35.649 0c.365.35.761.783 1.144 1.314 1.125 1.557 1.204 3.377 1.274 3.511.049.149.29.163.387.176.105.009.176.242.313.787.141.541.004 1.791-.005 2.642-.009.849-.18 2.005-.18 2.005l-.172.057s-.021.204.026.905c.058.708-.009 2.003-.065 2.26-.062.257-.167.64-.114.837.044.203.153.302.391.636.26.327 1.42 1.62 1.912 2.26.497.644 2.163 2.409 3.104 3.466.94 1.063 2.281 2.729 3.134 4.172.854 1.442 1.306 3.049 1.306 3.049.313 1.671 3.038 12.046 3.614 15.517.566 3.476.571 6.258.241 8.298-.229 1.358-1.042 3.75-1.042 3.75-.466.879-.074.791-.294 1.529-.181.585 1.657 4.261-2.941 7.729-5.799 4.379-12.885 8.243-14.327 9.21l-1.912-3.617h-2.796l12.811 24.144c1.213 2.264 1.336 2.567 2.888 2.567 1.311 0 3.056-.774 5.078-2.01 1.952-1.213 4.022-3.943 4.202-4.207.181-.268.634-.118.778 0 .141.119.158.651.097 1.451-.053.796-.443 2.729-1.227 4.212-.558 1.067-1.728 2.439-3.684 3.838 10.423-1.456 21.339-2.709 32.698-3.799l-.013-68.03c0-15.829-12.833-28.657-28.659-28.657h-17.967z"/>
 </clipPath>
 <clipPath id="f">
  <path d="m4.96 5h129.08v240h-129.08z"/>
 </clipPath>
 <clipPath id="g">
  <path d="m4.96 5h129.08v240h-129.08z"/>
 </clipPath>
 <radialGradient id="h" cx="-126.25" cy="428.18" gradientTransform="matrix(129.77 0 0 -129.77 16397 55629)" gradientUnits="userSpaceOnUse" r="1">
  <stop offset="0" stop-color="#c8dbf2"/>
  <stop offset=".04" stop-color="#c8dbf2"/>
  <stop offset=".27" stop-color="#c5daf2"/>
  <stop offset=".42" stop-color="#bdd7f0"/>
  <stop offset=".53" stop-color="#afd2ee"/>
  <stop offset=".64" stop-color="#9acbeb"/>
  <stop offset=".73" stop-color="#80c2e7"/>
  <stop offset=".82" stop-color="#60b6e2"/>
  <stop offset=".9" stop-color="#39a9dc"/>
  <stop offset=".98" stop-color="#0e9ad5"/>
  <stop offset="1" stop-color="#0095d3"/>
 </radialGradient>
 <radialGradient id="i" cx="-126.36" cy="428.45" gradientTransform="matrix(106.21 0 0 -106.21 13435 45550)" gradientUnits="userSpaceOnUse" r="1">
  <stop offset="0" stop-color="#00549e"/>
  <stop offset=".42" stop-color="#003f7d"/>
  <stop offset=".81" stop-color="#002d62"/>
  <stop offset="1" stop-color="#002d62"/>
 </radialGradient>
 <g clip-path="url(#f)">
  <g clip-path="url(#a)">
   <path clip-path="url(#b)" d="m96.306 6.759h-53.612c-19.835 0-35.974 16.141-35.974 35.969v164.54c0 19.831 16.139 35.97 35.974 35.97h53.611c19.836 0 35.97-16.139 35.97-35.97v-164.54c0-19.829-16.133-35.969-35.969-35.969" fill="#fff"/>
  </g>
 </g>
 <path clip-path="url(#f)" d="m42.69 5c-20.802 0-37.728 16.925-37.728 37.728v164.54c0 20.808 16.926 37.732 37.729 37.732h53.615c20.808 0 37.732-16.925 37.732-37.732v-164.54c0-20.803-16.925-37.728-37.732-37.728z" fill="#fff"/>
 <path clip-path="url(#c)" d="m14 117.61h110.98v118.32h-110.98z" fill="url(#h)"/>
 <path clip-path="url(#d)" d="m128.22 238.76c-.105-.109-.25-.206-.422-.272.343-.044.606-.167.787-.365.197-.188.299-.431.299-.703 0-.206-.058-.4-.154-.567-.109-.171-.259-.308-.448-.391-.202-.088-.457-.132-.752-.132h-1.886v3.833h.813v-1.564h.207c.167 0 .299.018.408.065.097.049.207.137.321.269.109.141.229.338.391.624l.321.606h1.011l-.47-.765c-.175-.304-.316-.506-.426-.638m-1.113-.778h-.65v-1.037h.734c.268 0 .492.048.628.132.133.093.203.202.203.348 0 .229-.084.373-.238.443-.162.075-.378.114-.677.114m-.012-3.873c-2.409 0-4.348 1.882-4.348 4.168 0 2.299 1.938 4.168 4.348 4.168 2.396 0 4.334-1.869 4.334-4.168 0-2.287-1.939-4.168-4.334-4.168m0 7.368c-1.852 0-3.346-1.433-3.346-3.2 0-1.763 1.494-3.191 3.346-3.191 1.842 0 3.336 1.429 3.336 3.191 0 1.767-1.494 3.2-3.336 3.2" fill="#ce241e"/>
 <path clip-path="url(#d)" d="m69.493 121.5c-3.657 0-6.62.77-6.62 1.719v3.425c0 .954 2.963 1.719 6.62 1.719 3.653 0 6.612-.765 6.612-1.719v-3.425c0-.949-2.959-1.719-6.612-1.719"/>
 <path clip-path="url(#e)" d="m14.01 14.07h110.96v119.47h-110.96z" fill="url(#i)"/>
 <path clip-path="url(#g)" d="m106.65 220.86c5.069 0 10.125-.137 15.084-.392.176-.329.343-.664.505-1.007-5.121.277-10.349.422-15.589.422-2.976 0-5.935-.109-8.866-.308.215-2.026.461-4.062.742-6.115l-.967-.132c-.281 2.075-.532 4.133-.752 6.173-21.11-1.613-40.748-8.173-55.599-15.967 6.897-13.088 17.009-27.182 29.287-40.401.717-.765 1.438-1.517 2.154-2.269 9.034 4.273 21.357 7.936 35.17 9.9a213.8848 213.8848 0 0 0 -4.708 15.26l.94.255c1.42-5.289 3.012-10.433 4.748-15.374 5.218.704 10.643 1.161 16.164 1.319v-.98c-5.367-.154-10.678-.603-15.813-1.306 4.476-12.529 9.878-23.743 15.817-32.756l.004-1.745c-6.335 9.32-12.094 21.114-16.811 34.364-13.531-1.938-25.806-5.53-34.801-9.685 12.139-12.599 25.063-23.097 37.319-30.443 3.24 2.458 9.364 4.168 14.292 5.219v-1.007c-6.251-1.346-10.871-2.994-13.377-4.748 4.585-2.694 9.069-4.954 13.377-6.699v-1.042c-4.563 1.815-9.333 4.211-14.204 7.095-.883-.786-1.358-1.587-1.358-2.383 0-2.466 4.238-5.196 11.118-7.323-2.444.654-5.016 1.358-7.688 2.114-2.849 1.64-4.4 3.425-4.4 5.209 0 1.051.54 2.022 1.455 2.897-12.332 7.434-25.305 18.011-37.469 30.681-8.758-4.198-14.165-8.915-14.165-13.061 0-4.418 3.697-8.212 10.986-11.281-2.414.941-4.801 1.913-7.161 2.911-3.184 2.461-4.797 5.262-4.797 8.37 0 4.413 5.465 9.398 14.438 13.799-.65.678-1.302 1.354-1.947 2.049-12.332 13.268-22.482 27.437-29.429 40.607-15.997-8.555-26.205-18.504-26.354-25.01l.004 3.891c3.003 6.62 12.617 14.854 25.92 21.95-5.587 10.771-8.999 20.847-9.667 29.182.316.154.633.295.958.431.576-8.287 3.961-18.358 9.566-29.164.33.176.659.352.998.523 16.793 8.607 36.344 14.085 54.948 15.558-.537 5.311-.845 10.494-.91 15.488h.492c.158 0 .321-.014.483-.014.07-4.963.369-10.115.905-15.396 3.02.218 6.013.341 8.958.341" fill="#aacaeb"/>
 <path clip-path="url(#g)" d="m35.129 211.6c0 1.921-1.574 3.5-3.499 3.5h-1.579c-1.916 0-3.494-1.579-3.494-3.5v-22.952c0-1.926 1.578-3.499 3.494-3.499h1.579c1.925 0 3.499 1.573 3.499 3.499zm16.077 0c0 1.921-1.57 3.5-3.5 3.5h-1.573c-1.922 0-3.5-1.579-3.5-3.5v-22.952c0-1.926 1.578-3.499 3.5-3.499h1.573c1.93 0 3.5 1.573 3.5 3.499zm32.628 0c0 1.921-1.569 3.5-3.499 3.5h-1.569c-1.926 0-3.5-1.579-3.5-3.5v-7.979h-7.979v7.979c0 1.921-1.583 3.5-3.5 3.5h-1.573c-1.926 0-3.5-1.579-3.5-3.5v-22.952c0-1.926 1.574-3.499 3.5-3.499h1.573c1.917 0 3.5 1.573 3.5 3.499v7.979h7.979v-7.979c0-1.926 1.574-3.499 3.5-3.499h1.569c1.93 0 3.499 1.573 3.499 3.499zm25.098-14.973c1.926 0 3.5 1.578 3.5 3.494 0 1.922-1.574 3.5-3.5 3.5h-9.017v7.979c0 1.921-1.578 3.5-3.499 3.5h-1.574c-1.93 0-3.499-1.579-3.499-3.5v-22.952c0-1.926 1.569-3.499 3.499-3.499h14.09c1.926 0 3.5 1.573 3.5 3.499 0 1.917-1.574 3.495-3.5 3.495h-9.017v4.484z" fill="#fff"/>
 <path clip-path="url(#g)" d="m96.306 6.761h-53.612c-19.835 0-35.974 16.134-35.974 35.97v164.54c0 19.836 16.139 35.974 35.974 35.974h53.611c19.836 0 35.97-16.138 35.97-35.974v-164.54c0-19.835-16.133-35.969-35.969-35.969m32.448 200.51c0 17.893-14.556 32.448-32.448 32.448h-53.612c-17.896 0-32.448-14.556-32.448-32.448v-164.54c0-17.895 14.552-32.448 32.448-32.448h53.611c17.893 0 32.448 14.554 32.448 32.448v164.54z" fill="#ce241e"/>
</svg>