<?xml version="1.0" encoding="UTF-8"?>
<!-- Generator: Adobe Illustrator 17.0.0, SVG Export Plug-In . SVG Version: 6.00 Build 0)  -->
<!DOCTYPE svg PUBLIC "-//W3C//DTD SVG 1.1//EN" "http://www.w3.org/Graphics/SVG/1.1/DTD/svg11.dtd">
<svg version="1.1" id="Layer_1" xmlns="http://www.w3.org/2000/svg" xmlns:xlink="http://www.w3.org/1999/xlink" x="0px" y="0px" width="303.887828995" height="329.068789398" viewBox="0 0 345.62 374.259" enable-background="new 0 0 345.62 374.259" xml:space="preserve">

<g>

	<g>

		<linearGradient id="SVGID_1_" gradientUnits="userSpaceOnUse" x1="51.2146" y1="303.5413" x2="258.1163" y2="-25.0132">

			<stop offset="0" style="stop-color:#D6D6D6"/>

			<stop offset="0.6" style="stop-color:#FFFFFF"/>

			<stop offset="1" style="stop-color:#D6D6D6"/>

		</linearGradient>

		<path fill="url(#SVGID_1_)" d="M172.809,374.259l-3.182-0.997c-3.766-1.182-92.758-30.32-143.482-149.181     C-2.809,156.25-0.002,40.781,0.131,35.9l0.168-5.997l5.225-2.953C7.471,25.848,54.576,0,172.809,0     c118.234,0,165.344,25.848,167.287,26.95l5.227,2.953l0.168,5.997c0.131,4.881,2.938,120.35-26.014,188.181     C268.75,342.941,179.754,372.08,175.99,373.262L172.809,374.259L172.809,374.259z"/>

	</g>

	<linearGradient id="SVGID_2_" gradientUnits="userSpaceOnUse" x1="172.8105" y1="363.1319" x2="172.8105" y2="10.6153">

		<stop offset="0" style="stop-color:#27509F"/>

		<stop offset="1" style="stop-color:#0D88CA"/>

	</linearGradient>

	<path fill="url(#SVGID_2_)" d="M334.875,36.195c0,0-45.266-25.58-162.066-25.58c-116.799,0-162.063,25.58-162.063,25.58    s-3.211,117.243,25.16,183.718c49.393,115.732,136.902,143.219,136.902,143.219s87.514-27.486,136.906-143.219    C338.084,153.438,334.875,36.195,334.875,36.195z M301.033,216.879c-46.705,108.979-128.225,135.972-128.225,135.972    S91.287,325.857,44.586,216.879C17.76,154.285,19.57,43.099,19.57,43.099s42.799-22.208,153.238-22.208    c110.441,0,153.236,22.208,153.236,22.208S327.856,154.285,301.033,216.879z"/>

	<g>

		<path fill="#005283" d="M172.807,363.656l-0.149-0.048c-0.22-0.068-22.283-7.142-50.082-28.288     c-25.643-19.506-61.573-55.327-87.131-115.211C7.355,154.296,10.212,37.355,10.244,36.182l0.008-0.282l0.246-0.14     c0.454-0.256,46.716-25.645,162.309-25.645c115.595,0,161.858,25.389,162.313,25.645l0.246,0.14l0.008,0.282     c0.032,1.174,2.887,118.114-25.2,183.928c-25.558,59.884-61.489,95.705-87.133,115.211c-27.8,21.146-49.864,28.22-50.084,28.288     L172.807,363.656z M11.237,36.498c-0.146,6.537-2.194,119.205,25.127,183.219c25.472,59.684,61.27,95.375,86.816,114.808     c26.46,20.127,47.644,27.426,49.626,28.081c1.982-0.656,23.2-7.97,49.668-28.111c25.534-19.431,61.316-55.117,86.778-114.777     c27.32-64.017,25.272-176.682,25.127-183.219c-3.779-1.992-50.638-25.383-161.573-25.383     C61.873,11.115,15.017,34.506,11.237,36.498z M172.807,353.377l-0.157-0.052c-0.204-0.067-20.763-7.009-46.748-27.198     c-23.968-18.622-57.61-52.658-81.777-109.051C17.563,155.101,19.051,44.203,19.068,43.091l0.005-0.299l0.265-0.137     c0.43-0.223,44.172-22.265,153.469-22.265c109.299,0,153.038,22.042,153.467,22.265l0.265,0.137l0.005,0.299     c0.018,1.112,1.505,112.01-25.052,173.985c-24.169,56.393-57.812,90.429-81.78,109.051     c-25.985,20.189-46.543,27.131-46.747,27.198L172.807,353.377z M20.064,43.411c-0.072,6.516-0.811,113.096,24.98,173.271     c24.072,56.175,57.569,90.076,81.432,108.625c24.657,19.166,44.378,26.333,46.331,27.016c1.953-0.683,21.673-7.85,46.33-27.016     c23.862-18.549,57.36-52.45,81.434-108.625c25.787-60.178,25.048-166.755,24.976-173.271c-3.801-1.832-48.149-22.02-152.74-22.02     C68.218,21.391,23.865,41.579,20.064,43.411z"/>

	</g>

	<linearGradient id="SVGID_3_" gradientUnits="userSpaceOnUse" x1="172.8089" y1="218.0391" x2="172.8089" y2="38.9693">

		<stop offset="0" style="stop-color:#27509F"/>

		<stop offset="1" style="stop-color:#0D88CA"/>

	</linearGradient>

	<path fill="url(#SVGID_3_)" d="M37.859,55.268c0,0-2.193,69.953,11.287,124.95h81.975l32.748-53.689l-52.002-85.245    C58.906,45.849,37.859,55.268,37.859,55.268z M124.195,144.676h-20.906c-0.934-1.501-16.443-26.43-16.443-26.43l-9.174,7.482    c0,0,0,16.112,0,18.948H60.416v-59.26h17.256c0,2.85,0,22.702,0,22.702s21.486-21.743,22.432-22.702h20.57    c-4.582,4.473-22.191,21.666-22.191,21.666S121.043,140.064,124.195,144.676z M172.809,38.849c-16.266,0-30.805,0.452-43.807,1.207    l43.807,71.813l43.811-71.813C203.617,39.301,189.072,38.849,172.809,38.849z M307.758,55.268c0,0-21.045-9.419-74.01-13.984    l-52,85.245l32.752,53.689h81.969C309.955,125.221,307.758,55.268,307.758,55.268z M280.893,144.676h-51.238V85.371h17.205    c0,3.156,0,48.069,0,48.069h34.033V144.676z"/>

	<g>

		<g>

			<linearGradient id="SVGID_4_" gradientUnits="userSpaceOnUse" x1="100.8468" y1="181.0362" x2="100.8468" y2="38.2696">

				<stop offset="0" style="stop-color:#004A6E"/>

				<stop offset="1" style="stop-color:#076D94"/>

			</linearGradient>

			<path fill="url(#SVGID_4_)" d="M131.401,180.718H48.754l-0.093-0.381C35.318,125.903,37.338,55.952,37.359,55.252l0.01-0.313      l0.286-0.128c0.211-0.095,21.73-9.506,74.169-14.026l0.308-0.026l0.161,0.264l52.161,85.506L131.401,180.718z M49.539,179.718      h81.302l32.442-53.189l-51.682-84.721c-48.806,4.235-70.557,12.682-73.251,13.795C38.216,60.8,36.791,127.361,49.539,179.718z"/>

		</g>

		<g>

			<linearGradient id="SVGID_5_" gradientUnits="userSpaceOnUse" x1="172.8106" y1="181.0362" x2="172.8106" y2="38.2696">

				<stop offset="0" style="stop-color:#004A6E"/>

				<stop offset="1" style="stop-color:#076D94"/>

			</linearGradient>

			<path fill="url(#SVGID_5_)" d="M172.809,112.828l-44.667-73.224l0.831-0.048c13.805-0.802,28.554-1.208,43.836-1.208      c15.285,0,30.035,0.406,43.84,1.208l0.831,0.048l-0.434,0.712L172.809,112.828z M129.863,40.507l42.945,70.401l42.949-70.401      c-13.546-0.769-27.99-1.158-42.949-1.158C157.852,39.349,143.408,39.738,129.863,40.507z"/>

		</g>

		<g>

			<linearGradient id="SVGID_6_" gradientUnits="userSpaceOnUse" x1="244.7707" y1="181.0362" x2="244.7707" y2="38.2696">

				<stop offset="0" style="stop-color:#004A6E"/>

				<stop offset="1" style="stop-color:#076D94"/>

			</linearGradient>

			<path fill="url(#SVGID_6_)" d="M296.861,180.718H214.22l-0.146-0.239l-32.911-53.95l52.32-85.77l0.309,0.026      c52.442,4.521,73.96,13.932,74.171,14.026l0.286,0.128l0.01,0.313c0.022,0.7,2.045,70.651-11.304,125.085L296.861,180.718z       M214.78,179.718h81.296c12.754-52.356,11.325-118.917,11.19-124.115c-2.695-1.112-24.474-9.563-73.253-13.795l-51.68,84.721      L214.78,179.718z"/>

		</g>

	</g>

	<linearGradient id="SVGID_7_" gradientUnits="userSpaceOnUse" x1="172.8106" y1="330.3731" x2="172.8106" y2="142.3306">

		<stop offset="0" style="stop-color:#E21D39"/>

		<stop offset="1" style="stop-color:#F05247"/>

	</linearGradient>

	<path fill="url(#SVGID_7_)" d="M227.861,219.184c0,0-4.656,0.52-7.789-2.563c-2.469-2.434-5.781-7.424-5.781-7.424l-41.482-68.009    l-41.482,68.009c0,0-3.311,4.99-5.781,7.424c-3.135,3.082-7.791,2.563-7.791,2.563h-54.6    c42.108,87.713,109.654,111.559,109.654,111.559s67.549-23.846,109.658-111.559H227.861z M202.502,276.353v11.226h-17.207v-26.077    h-24.207c0,8.281,0,14.852,0,14.852v11.226h-17.209v-59.3h17.209v21.992h24.207v-21.992h17.207    C202.502,231.435,202.502,276.353,202.502,276.353z"/>

	<g>

		<linearGradient id="SVGID_8_" gradientUnits="userSpaceOnUse" x1="255.2623" y1="144.3721" x2="255.2623" y2="85.1878">

			<stop offset="0.0101" style="stop-color:#81BED8"/>

			<stop offset="0.0273" style="stop-color:#046799"/>

			<stop offset="0.9741" style="stop-color:#046799"/>

			<stop offset="0.9943" style="stop-color:#003B51"/>

		</linearGradient>

		<path fill="url(#SVGID_8_)" d="M281.382,145.176h-52.239V84.871h18.205v48.069h34.034V145.176z M230.143,144.176h50.239V133.94     h-34.034V85.871h-16.205V144.176z"/>

	</g>

	<g>

		<linearGradient id="SVGID_9_" gradientUnits="userSpaceOnUse" x1="92.5215" y1="144.3721" x2="92.5215" y2="85.1878">

			<stop offset="0.0101" style="stop-color:#81BED8"/>

			<stop offset="0.0273" style="stop-color:#046799"/>

			<stop offset="0.9741" style="stop-color:#046799"/>

			<stop offset="0.9943" style="stop-color:#003B51"/>

		</linearGradient>

		<path fill="url(#SVGID_9_)" d="M125.135,145.176h-22.132l-0.146-0.236c-0.855-1.377-13.98-22.472-16.143-25.946l-8.55,6.972     v19.211H59.908v-60.26h18.256V106.9c4.005-4.053,20.744-20.991,21.575-21.835l0.148-0.149h22.007l-22.77,22.23     c2.414,3.528,22.514,32.914,25.477,37.247L125.135,145.176z M103.56,144.176h19.681c-4.589-6.71-25.179-36.812-25.179-36.812     l-0.236-0.347l21.613-21.102h-19.134C98.188,88.062,78.02,108.47,78.02,108.47l-0.855,0.866v-23.42H60.908v58.26h16.256V125.49     l9.798-7.991l0.301,0.483C87.263,117.982,101.724,141.225,103.56,144.176z"/>

	</g>

	<g>

		<linearGradient id="SVGID_10_" gradientUnits="userSpaceOnUse" x1="172.8106" y1="286.5391" x2="172.8106" y2="227.037">

			<stop offset="0.0158" style="stop-color:#C76E61"/>

			<stop offset="0.033" style="stop-color:#B12226"/>

			<stop offset="0.9741" style="stop-color:#B12226"/>

			<stop offset="0.9871" style="stop-color:#741313"/>

		</linearGradient>

		<path fill="url(#SVGID_10_)" d="M202.622,288.079h-18.207v-26.077h-23.207v26.077h-18.209v-60.3h18.209v21.992h23.207v-21.992     h18.207V288.079z M185.415,287.079h16.207v-58.3h-16.207v21.992h-25.207v-21.992h-16.209v58.3h16.209v-26.077h25.207V287.079z"/>

	</g>

	<g>

		<path fill="#B12225" d="M172.807,331.272l-0.166-0.059c-0.17-0.061-17.216-6.182-39.175-22.961     c-20.253-15.477-48.97-43.454-70.765-88.853l-0.344-0.717h55.395c0.068,0.005,0.342,0.033,0.789,0.033     c1.25,0,4.4-0.239,6.651-2.452c2.404-2.368,5.683-7.294,5.715-7.344l41.899-68.692l41.909,68.708     c0.022,0.033,3.303,4.96,5.705,7.328c2.25,2.213,5.399,2.452,6.649,2.452c0.447,0,0.721-0.028,0.734-0.03l55.455-0.003     l-0.344,0.717c-21.796,45.398-50.514,73.376-70.768,88.853c-21.96,16.779-39.006,22.9-39.176,22.961L172.807,331.272z      M63.948,219.684c21.656,44.777,50.041,72.42,70.088,87.746c20.683,15.811,36.959,22.106,38.77,22.78     c1.812-0.674,18.089-6.969,38.771-22.78c20.048-15.326,48.434-42.969,70.091-87.746h-53.804c-0.005,0.003-0.312,0.033-0.795,0.033     c-1.705,0-4.928-0.355-7.351-2.739c-2.478-2.442-5.711-7.298-5.848-7.504l-41.065-67.325l-41.056,67.309     c-0.146,0.222-3.378,5.077-5.857,7.52c-2.424,2.383-5.647,2.739-7.353,2.739c-0.527,0-0.845-0.036-0.845-0.036L63.948,219.684z"/>

	</g>

</g>

</svg>