<?xml version="1.0" encoding="UTF-8" standalone="no"?>
<!-- Created with Inkscape (http://www.inkscape.org/) -->
<svg
   xmlns:svg="http://www.w3.org/2000/svg"
   xmlns="http://www.w3.org/2000/svg"
   version="1.0"
   width="500"
   height="660"
   id="svg15572">
  <defs
     id="defs15574" />
  <g
     transform="translate(-496.07621,23.356973)"
     id="layer1">
    <g
       transform="matrix(4.5718418,0,0,4.5718418,-1761.9057,-2192.5445)"
       id="g15619">
      <path
         d="M 496.0762,483.65353 C 496.0762,479.7879 499.20999,476.65436 503.07565,476.65436 C 503.07565,476.65436 594.06701,476.65436 594.06701,476.65436 C 597.9329,476.65436 601.06671,479.7879 601.06671,483.65353 C 601.06671,483.65353 601.06671,609.64222 601.06671,609.64222 C 601.06671,613.50804 597.9329,616.64135 594.06701,616.64135 C 594.06701,616.64135 503.07565,616.64135 503.07565,616.64135 C 499.20999,616.64135 496.0762,613.50804 496.0762,609.64222 C 496.0762,609.64222 496.0762,483.65353 496.0762,483.65353 C 496.0762,483.65353 496.0762,483.65353 496.0762,483.65353 z"
         id="path12418"
         style="fill:#be0027;fill-opacity:1;fill-rule:nonzero;stroke:none" />
      <path
         d="M 588.92797,512.00222 C 588.92797,512.00222 588.887,511.90579 588.887,511.90579 C 588.887,511.90579 581.25459,495.23858 580.22104,493.58826 C 578.67059,498.34777 562.85697,510.09873 543.92625,517.81025 C 532.48611,522.4704 521.73464,523.74187 519.42455,521.59821 C 514.87411,517.37545 528.85608,506.30157 544.83871,497.68754 C 555.0336,492.1928 564.40942,489.20975 566.99436,488.40267 C 566.99436,488.40267 566.90275,488.12611 566.90275,488.12611 C 525.34032,497.8009 504.69799,518.78925 508.17201,525.6712 C 511.517,532.29035 532.58806,529.94507 553.01626,520.59582 C 561.2467,516.82281 567.56296,513.31905 571.77896,510.56653 C 572.47441,510.10865 573.17514,509.88606 573.86049,511.0828 C 574.83655,512.784 576.75981,517.30842 576.81336,517.43115 C 578.63542,521.45928 571.71632,530.25715 556.13948,537.65656 C 541.75674,544.48402 526.94166,547.01717 520.47351,544.63455 C 519.49085,544.2757 518.53452,543.84934 517.31847,542.62414 C 516.27992,541.58341 514.73785,538.8316 514.244,537.97752 C 514.244,537.97752 514.0236,538.0983 514.0236,538.0983 C 515.7171,541.7062 517.34355,544.63737 518.02286,545.34442 C 523.11345,550.6308 542.34056,548.0883 559.77531,539.96495 C 576.7661,532.04605 592.10183,518.816 588.92797,512.00222 z"
         id="path12420"
         style="fill:#ffffff;fill-opacity:1;fill-rule:nonzero;stroke:none" />
      <path
         d="M 555.94125,603.45665 L 589.39817,603.88054 L 589.39916,604.21669 L 555.94125,604.71726 L 541.20216,604.71726 L 507.74425,604.21669 L 507.74501,603.88054 L 541.20216,603.45665 L 555.94125,603.45665 z"
         id="path12422"
         style="fill:#ffffff;fill-opacity:1;fill-rule:nonzero;stroke:none" />
      <path
         d="M 551.87765,591.43654 C 551.87765,592.60659 551.6621,594.46904 550.01462,594.46904 C 548.16759,594.46904 547.98286,591.79055 547.98286,590.48214 C 547.98286,589.14284 548.3677,587.49592 549.83045,587.49592 C 551.72384,587.49592 551.87765,590.12864 551.87765,591.43654 z M 553.7397,590.97454 C 553.7397,588.51207 552.56971,586.26469 549.93795,586.26469 C 547.73689,586.26469 546.15121,588.23525 546.15121,590.97454 C 546.15121,593.42205 547.2903,595.68535 549.93795,595.68535 C 552.13905,595.68535 553.7397,593.71475 553.7397,590.97454 z"
         id="path12424"
         style="fill:#ffffff;fill-opacity:1;fill-rule:nonzero;stroke:none" />
      <path
         d="M 557.74591,578.61152 L 557.74591,578.28602 L 555.4725,577.28535 L 555.4725,561.74855 L 557.74591,560.75505 L 557.74591,560.42904 L 549.59607,560.42904 L 549.59607,560.75505 L 551.87381,561.74855 L 551.87381,577.28535 L 549.59607,578.28602 L 549.59607,578.61152 L 557.74591,578.61152 z"
         id="path12426"
         style="fill:#ffffff;fill-opacity:1;fill-rule:nonzero;stroke:none" />
      <path
         d="M 548.22955,560.75505 L 548.22955,560.42904 L 540.49392,560.42904 L 540.49392,560.75505 L 542.4876,561.74855 L 540.33866,573.65532 L 536.80385,560.42904 L 534.02595,560.42904 L 530.14396,573.59261 L 528.59201,561.74855 L 530.5529,560.75505 L 530.5529,560.42904 L 522.31531,560.42904 L 522.31531,560.75505 L 524.6656,561.74855 L 528.09265,578.61152 L 531.5001,578.61152 L 535.22491,566.67874 L 538.4134,578.61152 L 541.82306,578.61152 L 545.89728,561.74855 L 548.22955,560.75505 z"
         id="path12428"
         style="fill:#ffffff;fill-opacity:1;fill-rule:nonzero;stroke:none" />
      <path
         d="M 580.09912,593.34344 L 579.93558,593.28697 L 579.1852,594.26888 L 576.40053,594.26888 L 576.40053,591.43222 L 578.0639,591.43222 L 578.50423,592.28005 L 578.66768,592.28005 L 578.66768,589.41345 L 578.50423,589.41345 L 578.0639,590.29164 L 576.40053,590.29164 L 576.40053,587.68642 L 579.08002,587.68642 L 579.53046,588.76576 L 579.69876,588.76576 L 579.69876,586.54584 L 573.532,586.54584 L 573.532,586.70547 L 574.64365,587.19112 L 574.64365,594.77672 L 573.5301,595.26577 L 573.5301,595.42443 L 579.66695,595.42443 L 580.09912,593.34344 z"
         id="path12430"
         style="fill:#ffffff;fill-opacity:1;fill-rule:nonzero;stroke:none" />
      <path
         d="M 529.0528,593.34344 L 528.88986,593.28697 L 528.13941,594.26888 L 525.35476,594.26888 L 525.35476,591.43222 L 527.01787,591.43222 L 527.45843,592.28005 L 527.62195,592.28005 L 527.62195,589.41345 L 527.45843,589.41345 L 527.01787,590.29164 L 525.35476,590.29164 L 525.35476,587.68642 L 528.0338,587.68642 L 528.4847,588.76576 L 528.6528,588.76576 L 528.6528,586.54584 L 522.48604,586.54584 L 522.48604,586.70547 L 523.59786,587.19112 L 523.59786,594.77672 L 522.48411,595.26577 L 522.48411,595.42443 L 528.62117,595.42443 L 529.0528,593.34344 z"
         id="path12432"
         style="fill:#ffffff;fill-opacity:1;fill-rule:nonzero;stroke:none" />
      <path
         d="M 545.069,595.42443 L 545.069,595.26577 L 543.95856,594.77672 L 543.95856,587.19112 L 545.06942,586.70547 L 545.06942,586.54584 L 541.19922,586.54584 L 541.19922,586.70547 L 542.2019,587.19112 L 542.2019,590.3529 L 539.02612,590.3529 L 539.02612,587.19112 L 540.02782,586.70547 L 540.02782,586.54584 L 536.0826,586.54584 L 536.0826,586.70547 L 537.26871,587.19112 L 537.26871,594.77672 L 536.15425,595.26577 L 536.15425,595.42443 L 540.01262,595.42443 L 540.01262,595.26577 L 539.02612,594.77672 L 539.02612,591.5094 L 542.2019,591.5094 L 542.2019,594.77672 L 541.19922,595.26577 L 541.19922,595.42443 L 545.069,595.42443 z"
         id="path12434"
         style="fill:#ffffff;fill-opacity:1;fill-rule:nonzero;stroke:none" />
      <path
         d="M 512.5455,595.42443 L 512.5455,595.26577 L 511.43629,594.77672 L 511.43629,587.19112 L 512.5455,586.70547 L 512.5455,586.54584 L 508.56605,586.54584 L 508.56605,586.70547 L 509.6784,587.19112 L 509.6784,594.77672 L 508.56605,595.26577 L 508.56605,595.42443 L 512.5455,595.42443 z"
         id="path12436"
         style="fill:#ffffff;fill-opacity:1;fill-rule:nonzero;stroke:none" />
      <path
         d="M 572.61911,595.42443 L 572.61911,595.26577 L 571.39218,594.77672 L 568.1311,590.55306 L 571.2504,587.19112 L 572.36973,586.70547 L 572.36973,586.54584 L 568.46626,586.54584 L 568.46626,586.70547 L 569.32328,587.10091 L 566.53331,590.32299 L 566.53331,587.19112 L 567.453,586.70547 L 567.453,586.54584 L 563.63345,586.54584 L 563.63345,586.70209 L 564.77397,587.19112 L 564.77397,594.77672 L 563.66433,595.26577 L 563.66433,595.42443 L 567.51621,595.42443 L 567.51621,595.26577 L 566.53331,594.77672 L 566.53331,591.1549 L 569.60586,595.42443 L 572.61911,595.42443 z"
         id="path12438"
         style="fill:#ffffff;fill-opacity:1;fill-rule:nonzero;stroke:none" />
      <path
         d="M 589.43196,586.70547 L 589.43196,586.54584 L 585.57133,586.54584 L 585.57133,586.70547 L 586.56244,587.19112 L 585.21112,590.56943 L 583.76866,587.19112 L 584.76208,586.70547 L 584.76208,586.54584 L 580.64741,586.54584 L 580.64741,586.70547 L 581.76431,587.19112 L 584.22292,591.83342 L 584.22292,594.77672 L 583.10891,595.26577 L 583.10891,595.42443 L 587.08761,595.42443 L 587.08761,595.26577 L 585.98131,594.77672 L 585.98131,591.80306 L 588.32848,587.19112 L 589.43196,586.70547 z"
         id="path12440"
         style="fill:#ffffff;fill-opacity:1;fill-rule:nonzero;stroke:none" />
      <path
         d="M 520.60468,573.56079 C 520.60468,569.70985 517.32141,568.50994 514.48083,567.02697 C 513.47095,566.49025 511.98701,565.6699 511.98701,564.50089 C 511.98701,563.39695 513.06535,562.40159 514.19626,562.29152 C 515.99658,562.117 517.1849,562.73815 517.91555,563.45142 C 517.91555,563.45142 519.07104,566.02337 519.07104,566.02337 L 519.40528,566.02337 C 519.40528,566.02337 519.40528,560.93449 519.40528,560.93449 C 517.5109,560.39773 516.34336,559.92462 514.29176,559.92462 C 511.2602,559.92462 508.6087,562.13432 508.6087,564.87995 C 508.6087,567.5951 510.4717,569.01539 512.65012,570.12074 C 514.19626,570.90973 516.97413,571.76239 516.97413,574.0657 C 516.97413,575.29694 515.71158,576.8079 514.00724,576.78085 C 511.97689,576.74954 510.8146,575.8419 509.98996,575.18795 C 509.98996,575.18795 508.88601,572.62035 508.88601,572.62035 L 508.546,572.62035 C 508.546,572.62035 508.546,578.13843 508.546,578.13843 C 510.37673,578.54889 512.01835,579.11647 513.91271,579.11647 C 517.76409,579.11647 520.60468,576.97041 520.60468,573.56079 z"
         id="path12442"
         style="fill:#ffffff;fill-opacity:1;fill-rule:nonzero;stroke:none" />
      <path
         d="M 573.28126,573.56079 C 573.28126,569.70985 569.99795,568.50994 567.1574,567.02697 C 566.14751,566.49025 564.66405,565.6699 564.66405,564.50089 C 564.66405,563.39695 565.74241,562.40159 566.87282,562.29152 C 568.6736,562.117 569.86196,562.73815 570.59209,563.45142 C 570.59209,563.45142 571.7476,566.02337 571.7476,566.02337 L 572.08233,566.02337 C 572.08233,566.02337 572.08233,560.93449 572.08233,560.93449 C 570.18796,560.39773 569.0199,559.92462 566.96832,559.92462 C 563.93679,559.92462 561.2853,562.13432 561.2853,564.87995 C 561.2853,567.5951 563.14876,569.01539 565.3267,570.12074 C 566.87282,570.90973 569.6507,571.76239 569.6507,574.0657 C 569.6507,575.29694 568.38814,576.8079 566.68378,576.78085 C 564.65345,576.74954 563.49118,575.8419 562.66651,575.18795 C 562.66651,575.18795 561.56309,572.62035 561.56309,572.62035 L 561.22255,572.62035 C 561.22255,572.62035 561.22255,578.13843 561.22255,578.13843 C 563.0533,578.54889 564.69494,579.11647 566.58925,579.11647 C 570.44065,579.11647 573.28126,576.97041 573.28126,573.56079 z"
         id="path12444"
         style="fill:#ffffff;fill-opacity:1;fill-rule:nonzero;stroke:none" />
      <path
         d="M 589.28964,573.56079 C 589.28964,569.70985 586.00641,568.50994 583.16578,567.02697 C 582.15596,566.49025 580.67247,565.6699 580.67247,564.50089 C 580.67247,563.39695 581.75085,562.40159 582.88128,562.29152 C 584.68206,562.117 585.87041,562.73815 586.60055,563.45142 C 586.60055,563.45142 587.7561,566.02337 587.7561,566.02337 L 588.09076,566.02337 C 588.09076,566.02337 588.09076,560.93449 588.09076,560.93449 C 586.19641,560.39773 585.02836,559.92462 582.97674,559.92462 C 579.9452,559.92462 577.29371,562.13432 577.29371,564.87995 C 577.29371,567.5951 579.1572,569.01539 581.33512,570.12074 C 582.88128,570.90973 585.6592,571.76239 585.6592,574.0657 C 585.6592,575.29694 584.39656,576.8079 582.6922,576.78085 C 580.66186,576.74954 579.4996,575.8419 578.67493,575.18795 C 578.67493,575.18795 577.5715,572.62035 577.5715,572.62035 L 577.231,572.62035 C 577.231,572.62035 577.231,578.13843 577.231,578.13843 C 579.06171,578.54889 580.70336,579.11647 582.59771,579.11647 C 586.4491,579.11647 589.28964,576.97041 589.28964,573.56079 z"
         id="path12446"
         style="fill:#ffffff;fill-opacity:1;fill-rule:nonzero;stroke:none" />
      <path
         d="M 562.23775,592.81147 L 562.08246,592.81147 C 562.08246,592.81147 561.50276,594.09145 561.50276,594.09145 C 560.76925,594.42897 560.41864,594.51485 559.68505,594.51485 C 558.46736,594.51485 557.35768,593.45093 557.35768,590.81535 C 557.35768,588.27232 558.68297,587.47802 559.88521,587.47082 C 560.44031,587.467 561.0514,587.72305 561.28094,587.84942 C 561.28094,587.84942 561.7955,589.0498 561.7955,589.0498 L 561.95077,589.0498 C 561.95077,589.0498 561.95077,586.70018 561.95077,586.70018 C 561.2597,586.46965 560.54786,586.26904 559.91611,586.26904 C 557.5424,586.26904 555.42566,588.0568 555.42566,590.87707 C 555.42566,594.2067 557.1879,595.68577 559.65375,595.68577 C 560.44565,595.68577 561.19705,595.51705 562.09066,595.20886 C 562.13937,595.19295 562.17796,595.17704 562.23775,595.15389 C 562.23775,595.15389 562.23775,592.81147 562.23775,592.81147 z"
         id="path12448"
         style="fill:#ffffff;fill-opacity:1;fill-rule:nonzero;stroke:none" />
      <path
         d="M 520.76888,592.82932 L 520.61361,592.82932 C 520.61361,592.82932 520.03391,594.10928 520.03391,594.10928 C 519.3004,594.44684 518.94975,594.53274 518.21626,594.53274 C 516.99851,594.53274 515.8888,593.46883 515.8888,590.83325 C 515.8888,588.29025 517.2141,587.49592 518.41636,587.48867 C 518.97151,587.48482 519.58253,587.7409 519.81206,587.86724 C 519.81206,587.86724 520.32665,589.06765 520.32665,589.06765 L 520.48196,589.06765 C 520.48196,589.06765 520.48196,586.71803 520.48196,586.71803 C 519.79084,586.48754 519.07897,586.28689 518.4472,586.28689 C 516.07351,586.28689 513.95685,588.07465 513.95685,590.895 C 513.95685,594.22455 515.71905,595.70366 518.1849,595.70366 C 518.97676,595.70366 519.72816,595.5349 520.62181,595.22675 C 520.6705,595.2108 520.70909,595.19486 520.76888,595.17174 C 520.76888,595.17174 520.76888,592.82932 520.76888,592.82932 z"
         id="path12450"
         style="fill:#ffffff;fill-opacity:1;fill-rule:nonzero;stroke:none" />
    </g>
  </g>
</svg>
