<?xml version="1.0" encoding="UTF-8" standalone="no"?>
<svg xmlns:dc="http://purl.org/dc/elements/1.1/" xmlns:cc="http://creativecommons.org/ns#" xmlns:rdf="http://www.w3.org/1999/02/22-rdf-syntax-ns#" xmlns:svg="http://www.w3.org/2000/svg" xmlns="http://www.w3.org/2000/svg" viewBox="0 0 258.66666 210.66667" height="210.66667" width="258.66666" xml:space="preserve" version="1.1" id="svg2"><metadata id="metadata8"><rdf:RDF><cc:Work rdf:about=""><dc:format>image/svg+xml</dc:format><dc:type rdf:resource="http://purl.org/dc/dcmitype/StillImage"/></cc:Work></rdf:RDF></metadata><defs id="defs6"><clipPath id="clipPath16" clipPathUnits="userSpaceOnUse"><path id="path18" d="m 3.304,7.702 186.668,0 0,144.335 -186.668,0 0,-144.335 z"/></clipPath><clipPath id="clipPath28" clipPathUnits="userSpaceOnUse"><path id="path30" d="M 0,158 194,158 194,0 0,0 0,158 Z"/></clipPath><clipPath id="clipPath60" clipPathUnits="userSpaceOnUse"><path id="path62" d="M 104.399,54.682 C 100.757,53.687 92.671,51.536 83.703,49.649 l 0,0 c 0.972,-1.154 1.991,-2.349 3.054,-3.58 l 0,0 c 9.428,1.529 18.266,3.459 23.818,4.048 l 0,0 c 14.975,1.594 30.045,1.058 44.805,-1.609 l 0,0 c 4.217,3.41 7.929,6.506 10.643,8.926 l 0,0 c 0.112,0.217 0.249,0.588 0.408,1.089 l 0,0 c -6.854,0.859 -13.806,1.287 -20.768,1.287 l 0,0 c -13.932,0 -27.909,-1.714 -41.264,-5.128"/></clipPath><linearGradient id="linearGradient68" spreadMethod="pad" gradientTransform="matrix(37.269901,-37.269901,37.269901,37.269901,106.35956,72.292602)" gradientUnits="userSpaceOnUse" y2="0" x2="1" y1="0" x1="0"><stop id="stop70" offset="0" style="stop-opacity:1;stop-color:#63ade4"/><stop id="stop72" offset="0.91411" style="stop-opacity:1;stop-color:#ffffff"/><stop id="stop74" offset="1" style="stop-opacity:1;stop-color:#ffffff"/></linearGradient><clipPath id="clipPath82" clipPathUnits="userSpaceOnUse"><path id="path84" d="m 95.895,42.728 c -1.157,-0.315 -2.908,-0.786 -5.053,-1.333 l 0,0 c 1.029,-1.166 2.074,-2.34 3.123,-3.516 l 0,0 c 3.851,0.703 7.249,1.285 9.821,1.495 l 0,0 c 12.424,1.005 25.12,0.536 37.296,-2.188 l 0,0 c 3.104,2.419 6.216,4.864 9.196,7.233 l 0,0 c -7.696,1.485 -15.513,2.222 -23.333,2.222 l 0,0 c -10.432,0.001 -20.87,-1.312 -31.05,-3.913"/></clipPath><linearGradient id="linearGradient90" spreadMethod="pad" gradientTransform="matrix(28.208181,-28.208181,28.208181,28.208181,106.2766,56.817955)" gradientUnits="userSpaceOnUse" y2="0" x2="1" y1="0" x1="0"><stop id="stop92" offset="0" style="stop-opacity:1;stop-color:#63ade4"/><stop id="stop94" offset="0.91411" style="stop-opacity:1;stop-color:#ffffff"/><stop id="stop96" offset="1" style="stop-opacity:1;stop-color:#ffffff"/></linearGradient><linearGradient id="linearGradient112" spreadMethod="pad" gradientTransform="matrix(20.140474,-20.140474,20.140474,20.140474,105.50378,42.876446)" gradientUnits="userSpaceOnUse" y2="0" x2="1" y1="0" x1="0"><stop id="stop114" offset="0" style="stop-opacity:1;stop-color:#63ade4"/><stop id="stop116" offset="0.91411" style="stop-opacity:1;stop-color:#ffffff"/><stop id="stop118" offset="1" style="stop-opacity:1;stop-color:#ffffff"/></linearGradient><clipPath id="clipPath126" clipPathUnits="userSpaceOnUse"><path id="path128" d="M 0,158 194,158 194,0 0,0 0,158 Z"/></clipPath></defs><g transform="matrix(1.3333333,0,0,-1.3333333,0,210.66667)" id="g10"><g id="g12"><g clip-path="url(#clipPath16)" id="g14"><g transform="translate(106.8136,100.6901)" id="g20"><path id="path22" style="fill:#9fa0a2;fill-opacity:1;fill-rule:nonzero;stroke:none" d="M 0,0 1.26,5.615 C 1.443,6.423 1.588,6.757 1.636,6.855 1.719,6.933 1.898,7.08 2.035,7.192 2.189,7.318 2.346,7.447 2.508,7.588 L 4.187,9.027 4.826,8.245 4.816,8.199 2.989,0 0,0 Z m -6.433,-28.972 0.027,0.123 2.124,9.727 3.003,0 -1.592,-7.24 c -0.162,-0.729 -0.293,-1.054 -0.347,-1.166 -0.081,-0.071 -0.235,-0.196 -0.353,-0.29 -0.195,-0.158 -0.396,-0.321 -0.605,-0.499 l -1.64,-1.408 -0.617,0.753 z m 84.501,65.5 C 78.033,36.33 74.557,16.557 70.834,-3.225 63.211,-43.729 62.041,-44.774 61.34,-45.4 47.668,-57.628 8.083,-87.342 7.686,-87.639 7.416,-87.842 7.098,-87.94 6.781,-87.94 c -0.404,0 -0.804,0.16 -1.097,0.473 -0.278,0.291 -27.68,29.385 -36.87,41.637 -0.369,0.493 -0.765,1.025 0.269,8.803 l 87.065,0 5.852,25.845 -9.896,-5.869 c -0.866,-0.514 -1.44,-0.854 -3.422,-0.854 l -4.754,0 5.301,23.52 c 0.183,0.808 0.328,1.142 0.376,1.24 0.083,0.078 0.262,0.225 0.398,0.337 0.153,0.126 0.31,0.255 0.474,0.396 l 10.165,8.711 -82.515,0 c 2.139,11.71 3.799,20.504 3.824,20.637 0.116,0.612 0.598,1.091 1.211,1.204 l 48.502,8.904 c 0.188,0.035 0.377,0.033 0.565,-0.004 l 44.642,-8.77 c 0.807,-0.159 1.338,-0.933 1.197,-1.742 m 1.989,6.161 -47.334,8.597 c -0.432,0.079 -0.875,0.081 -1.309,0.008 l -50.498,-8.598 c -1.551,-0.264 -2.774,-1.463 -3.072,-3.007 -0.029,-0.145 -1.979,-10.258 -4.418,-23.39 l -15.175,0 -13.173,-19.066 -4.377,19.066 -31.644,0 6.591,-8.054 -0.008,-0.042 -7.689,-34.565 c -0.162,-0.729 -0.294,-1.054 -0.346,-1.166 -0.082,-0.071 -0.236,-0.196 -0.353,-0.29 -0.195,-0.158 -0.397,-0.321 -0.606,-0.498 l -10.156,-8.711 67.749,0 c -1.231,-9.241 -0.651,-10.02 0.138,-11.073 10.207,-13.61 38.594,-42.535 39.797,-43.759 0.734,-0.746 1.711,-1.131 2.694,-1.131 0.784,0 1.574,0.244 2.245,0.742 1.651,1.221 40.586,30.072 55.711,43.602 1.393,1.244 2.596,2.318 10.714,45.397 3.9,20.692 7.526,41.364 7.562,41.57 0.359,2.046 -1.002,3.996 -3.043,4.368"/></g></g></g><g id="g24"><g clip-path="url(#clipPath28)" id="g26"><g transform="translate(78.2238,56.4343)" id="g32"><path id="path34" style="fill:#00264f;fill-opacity:1;fill-rule:evenodd;stroke:none" d="m 0,0 c 8.285,-10.963 30.709,-35 35.544,-40.156 6.44,4.849 39.848,30.089 52.255,41.155 1.924,3.702 10.469,49.559 15.629,78.851 L 60.518,88.28 13.314,79.615 C 12.216,73.787 11.008,67.277 9.779,60.557 l 79.452,0 -10.165,-8.713 c -0.163,-0.14 -0.32,-0.269 -0.473,-0.395 -0.136,-0.112 -0.316,-0.26 -0.398,-0.338 -0.049,-0.098 -0.194,-0.431 -0.377,-1.24 l -5.302,-23.518 4.755,0 c 1.983,0 2.555,0.339 3.423,0.853 l 9.896,5.87 -5.852,-25.847 -84.024,0 C 0.195,3.493 -0.072,0.93 0,0"/></g><g transform="translate(103.2424,72.8722)" id="g36"><path id="path38" style="fill:#00264f;fill-opacity:1;fill-rule:evenodd;stroke:none" d="M 0,0 C 0.118,0.094 0.272,0.219 0.353,0.29 0.405,0.401 0.538,0.727 0.7,1.457 l 1.59,7.239 -3.001,0 -2.124,-9.726 -0.026,-0.123 0.616,-0.754 1.64,1.408 C -0.396,-0.321 -0.194,-0.158 0,0"/></g><g transform="translate(111.6398,108.9347)" id="g40"><path id="path42" style="fill:#00264f;fill-opacity:1;fill-rule:evenodd;stroke:none" d="m 0,0 -0.64,0.782 -1.678,-1.438 c -0.162,-0.14 -0.321,-0.27 -0.474,-0.396 -0.136,-0.113 -0.315,-0.26 -0.399,-0.338 -0.047,-0.097 -0.194,-0.432 -0.375,-1.24 l -1.26,-5.615 2.989,0 1.826,8.199 L 0,0"/></g><g transform="translate(137.9728,132.2687)" id="g44"><path id="path46" style="fill:#63ade4;fill-opacity:1;fill-rule:evenodd;stroke:none" d="M 0,0 -0.668,6.503 -4.371,0 l -7.253,0.06 4.992,-3.959 -3.816,-6.466 6.789,4.057 4.894,-4.057 L 0.439,-3.899 7.28,0.06 0,0 Z"/></g><g transform="translate(167.6535,130.9831)" id="g48"><path id="path50" style="fill:#63ade4;fill-opacity:1;fill-rule:evenodd;stroke:none" d="M 0,0 -7.281,-0.06 -7.948,6.443 -11.65,-0.06 -18.904,0 l 4.992,-3.959 -3.817,-6.467 6.788,4.057 4.896,-4.057 -0.797,6.467 L 0,0 Z"/></g><g transform="translate(114.9211,130.4455)" id="g52"><path id="path54" style="fill:#63ade4;fill-opacity:1;fill-rule:evenodd;stroke:none" d="M 0,0 -0.667,6.503 -4.37,0 l -7.253,0.061 4.992,-3.96 -3.816,-6.466 6.789,4.057 4.896,-4.057 -0.799,6.466 6.842,3.96 L 0,0 Z"/></g></g></g><g id="g56"><g clip-path="url(#clipPath60)" id="g58"><g id="g64"><g id="g66"><path id="path76" style="fill:url(#linearGradient68);stroke:none" d="M 104.399,54.682 C 100.757,53.687 92.671,51.536 83.703,49.649 l 0,0 c 0.972,-1.154 1.991,-2.349 3.054,-3.58 l 0,0 c 9.428,1.529 18.266,3.459 23.818,4.048 l 0,0 c 14.975,1.594 30.045,1.058 44.805,-1.609 l 0,0 c 4.217,3.41 7.929,6.506 10.643,8.926 l 0,0 c 0.112,0.217 0.249,0.588 0.408,1.089 l 0,0 c -6.854,0.859 -13.806,1.287 -20.768,1.287 l 0,0 c -13.932,0 -27.909,-1.714 -41.264,-5.128"/></g></g></g></g><g id="g78"><g clip-path="url(#clipPath82)" id="g80"><g id="g86"><g id="g88"><path id="path98" style="fill:url(#linearGradient90);stroke:none" d="m 95.895,42.728 c -1.157,-0.315 -2.908,-0.786 -5.053,-1.333 l 0,0 c 1.029,-1.166 2.074,-2.34 3.123,-3.516 l 0,0 c 3.851,0.703 7.249,1.285 9.821,1.495 l 0,0 c 12.424,1.005 25.12,0.536 37.296,-2.188 l 0,0 c 3.104,2.419 6.216,4.864 9.196,7.233 l 0,0 c -7.696,1.485 -15.513,2.222 -23.333,2.222 l 0,0 c -10.432,0.001 -20.87,-1.312 -31.05,-3.913"/></g></g></g></g><g id="g100"><g id="g102"><g id="g108"><g id="g110"><path id="path120" style="fill:url(#linearGradient112);stroke:none" d="m 97.061,34.43 c 1.52,-1.682 3.019,-3.331 4.467,-4.917 l 0,0 c 8.632,0.006 17.356,-0.928 25.753,-2.977 l 0,0 c 2.918,2.232 6.094,4.673 9.362,7.204 l 0,0 c -6.801,1.462 -13.94,2.097 -20.998,2.097 l 0,0 c -6.36,0 -12.654,-0.516 -18.584,-1.407"/></g></g></g></g><g id="g122"><g clip-path="url(#clipPath126)" id="g124"><g transform="translate(124.9035,70.8122)" id="g130"><path id="path132" style="fill:#00264f;fill-opacity:1;fill-rule:nonzero;stroke:none" d="m 0,0 c -0.117,0.14 -0.275,0.333 -0.375,0.47 0.012,0.244 0.045,0.581 0.163,1.116 l 7.671,34.489 c 0.412,1.813 0.652,2.012 1.446,2.666 0.145,0.119 0.292,0.241 0.446,0.373 l 0.502,0.431 0.187,-0.228 c 0.115,-0.14 0.274,-0.333 0.373,-0.469 -0.009,-0.257 -0.042,-0.6 -0.164,-1.116 L 2.576,3.231 C 2.184,1.469 1.933,1.265 1.186,0.664 1.004,0.518 0.82,0.367 0.628,0.202 L 0.16,-0.198 0,0 Z M -20.49,0.664 C -20.67,0.518 -20.855,0.367 -21.049,0.202 L -24.229,-2.524 -26.293,0 c -0.115,0.14 -0.275,0.333 -0.374,0.47 0.011,0.244 0.044,0.585 0.165,1.127 l 2.465,11.282 7.056,0 -2.12,-9.648 C -19.492,1.469 -19.744,1.265 -20.49,0.664 m -17.439,38.653 c 0.116,-0.14 0.275,-0.333 0.373,-0.469 -0.008,-0.257 -0.043,-0.6 -0.165,-1.116 L -45.393,3.231 c -0.392,-1.762 -0.644,-1.966 -1.39,-2.567 -0.18,-0.146 -0.365,-0.297 -0.557,-0.462 L -47.555,0.02 c -0.114,0.137 -0.263,0.318 -0.357,0.45 0.01,0.244 0.044,0.581 0.162,1.116 l 7.672,34.487 c 0.41,1.815 0.65,2.014 1.445,2.668 0.144,0.119 0.293,0.241 0.444,0.373 l 0.251,0.215 0.009,-0.012 z m 20.542,-0.576 c 0.143,0.119 0.291,0.241 0.446,0.373 l 3.215,2.756 2.089,-2.552 c 0.116,-0.14 0.276,-0.333 0.373,-0.47 -0.009,-0.257 -0.043,-0.6 -0.164,-1.114 l -2.158,-9.691 -7.05,0 1.802,8.032 c 0.412,1.813 0.651,2.012 1.447,2.666 m 52.34,-27.472 c -1.185,-0.702 -2.077,-1.13 -4.432,-1.13 l -7.23,0 5.845,25.934 c 0.411,1.815 0.651,2.014 1.446,2.668 0.143,0.119 0.291,0.241 0.445,0.373 l 6.104,5.229 -96.002,0 -15.138,-21.909 -5.028,21.909 -25.89,0 4.113,-5.026 c 0.115,-0.14 0.275,-0.333 0.373,-0.469 -0.009,-0.257 -0.043,-0.6 -0.164,-1.116 l -7.674,-34.501 c -0.392,-1.762 -0.643,-1.966 -1.389,-2.567 -0.182,-0.146 -0.365,-0.297 -0.559,-0.462 l -6.095,-5.227 27.687,0 L -92.747,0 c -0.115,0.139 -0.274,0.33 -0.371,0.466 0.013,0.218 0.054,0.549 0.177,1.197 l 2.402,12.387 4.457,-19.075 9.883,0 11.942,17.632 -2.364,-9.3 c -0.453,-1.812 -0.82,-2.125 -1.805,-2.966 l -6.258,-5.366 111.089,0 4.487,19.817 -5.939,-3.523"/></g><g transform="translate(121.7912,73.0417)" id="g134"><path id="path136" style="fill:#ffffff;fill-opacity:1;fill-rule:evenodd;stroke:none" d="m 0,0 7.674,34.501 c 0.714,3.153 1.607,3.571 2.854,4.639 l -16.892,0 c 0.535,-0.654 1.187,-1.368 1.187,-2.26 0,-0.357 0,-1.012 -0.236,-2.022 l -2.678,-12.017 -13.146,0 2.618,11.66 c 0.715,3.153 1.606,3.571 2.854,4.639 l -16.892,0 c 0.535,-0.654 1.189,-1.368 1.189,-2.26 0,-0.357 0,-1.012 -0.238,-2.022 L -39.38,0.356 c -0.713,-3.211 -1.666,-3.568 -2.914,-4.64 l 16.953,0 c -0.535,0.655 -1.189,1.367 -1.189,2.259 0,0.359 0,0.954 0.237,2.025 l 2.974,13.622 13.146,0 -2.914,-13.266 c -0.713,-3.211 -1.666,-3.568 -2.914,-4.64 l 16.953,0 c -0.535,0.655 -1.189,1.367 -1.189,2.259 0,0.359 0,0.954 0.237,2.025"/></g><g transform="translate(155.4249,77.9787)" id="g138"><path id="path140" style="fill:#ffffff;fill-opacity:1;fill-rule:evenodd;stroke:none" d="m 0,0 -10.946,0 6.662,29.565 c 0.714,3.152 1.608,3.57 2.856,4.639 l -16.893,0 c 0.534,-0.655 1.188,-1.368 1.188,-2.261 0,-0.354 0,-1.01 -0.238,-2.021 L -25.043,-4.58 c -0.715,-3.212 -1.667,-3.569 -2.915,-4.639 l 31.468,0 2.437,10.766 C 4.342,0.595 2.914,0 0,0"/></g><g transform="translate(74.2531,73.0417)" id="g142"><path id="path144" style="fill:#ffffff;fill-opacity:1;fill-rule:evenodd;stroke:none" d="m 0,0 7.673,34.501 c 0.714,3.153 1.607,3.571 2.855,4.639 l -17.191,0 -18.083,-26.174 -6.008,26.174 -17.25,0 c 0.535,-0.654 1.19,-1.368 1.19,-2.26 0,-0.357 0,-1.012 -0.239,-2.022 L -54.727,0.356 c -0.713,-3.211 -1.667,-3.568 -2.914,-4.64 l 13.383,0 c -0.535,0.655 -1.189,1.367 -1.189,2.259 0,0.359 0,0.776 0.238,2.025 l 4.997,25.756 0.119,0 7.019,-30.04 5.949,0 20.344,30.04 0.118,-0.118 -6.423,-25.282 c -0.715,-2.855 -1.666,-3.568 -2.916,-4.64 l 16.955,0 c -0.536,0.655 -1.191,1.367 -1.191,2.259 0,0.359 0,0.954 0.238,2.025"/></g></g></g></g></svg>