<?xml version="1.0" encoding="UTF-8"?>
<!-- Generator: Adobe Illustrator 22.0.1, SVG Export Plug-In . SVG Version: 6.00 Build 0)  -->
<svg version="1.1" id="Layer_1" xmlns="http://www.w3.org/2000/svg" xmlns:xlink="http://www.w3.org/1999/xlink" x="0px" y="0px" width="250px" height="255.55px" viewBox="0 0 250 255.55" style="enable-background:new 0 0 250 255.55;" xml:space="preserve">
<g>
	<path style="fill:#949CA1;" d="M250,60.55l-3.55-1.13c-4.76-1.52-9.53-2.94-14.32-4.28l-4.19-19.24h-13.43   c-9.68,0-16.81-12.6-17.1-13.13l-3.45-6.78L125,0H125L56.04,15.99l-3.45,6.78c-0.3,0.54-7.43,13.13-17.11,13.13H22.06l-4.19,19.24   c-4.79,1.34-9.56,2.76-14.32,4.28L0,60.55l11.17,69.21l6.9,9.73c2.15-0.66,4.3-1.29,6.46-1.91c2.65,6.23,5.72,12.94,9.25,19.91   c15.03,29.64,41.62,69.91,82.99,93.38l8.23,4.67h0l8.23-4.67c41.37-23.48,67.96-63.74,82.99-93.38c3.53-6.97,6.61-13.68,9.25-19.91   c2.16,0.62,4.31,1.25,6.46,1.91l6.9-9.73L250,60.55z"/>
	<path style="fill:#B5121B;" d="M219.53,124.19C216.36,132.23,125,231.85,125,231.85s-91.36-99.63-94.53-107.66   c-4.87,1.28-9.72,2.65-14.56,4.12l3.98,5.73c2.56-0.76,5.13-1.48,7.7-2.18c2.81,6.75,6.14,14.12,10.05,21.83   c14.76,29.11,40.83,68.63,81.27,91.58l6.1,3.46h0l6.1-3.46c40.43-22.95,66.51-62.47,81.27-91.58c3.91-7.71,7.24-15.08,10.05-21.83   c2.57,0.7,5.14,1.43,7.7,2.18l3.98-5.73C229.26,126.84,224.4,125.47,219.53,124.19z"/>
	<path style="fill:#B5121B;" d="M224.46,40.23h-9.95c-12.4,0-20.59-14.8-20.92-15.42l-2.58-5.07L125,4.43h0l-66.02,15.3l-2.58,5.07   c-0.33,0.62-8.52,15.42-20.92,15.42h-9.95l-2.97,13.64c2-0.53,4.02-1.05,6.02-1.55c0,0,71.74-21.07,96.41-21.09   c24.67-0.01,96.41,21.09,96.41,21.09s5.75,1.48,6.02,1.56L224.46,40.23z"/>
	<path style="fill:#B5121B;" d="M235.35,124.18c-72.73-22.19-147.98-22.19-220.71,0c-3.26-20.23-6.53-40.45-9.78-60.64   c79.1-25.21,161.18-25.21,240.28,0C241.88,83.73,238.62,103.95,235.35,124.18"/>
	<path style="fill:#002B54;" d="M125,40.31c32.28,0,64.61,4.03,96.41,11.99l-1.42-6.52h-5.47c-16.14,0-25.76-18.23-25.85-18.42   l-1.43-2.81L125,10.14h0L62.77,24.56l-1.43,2.81c-0.1,0.18-9.71,18.42-25.85,18.42h-5.47l-1.42,6.52   C60.39,44.34,92.72,40.31,125,40.31"/>
	<path style="fill:#002B54;" d="M125,111.86c-31.65,0-63.39,4.15-94.53,12.33c3.17,8.04,7.18,17.24,12.12,26.99   c14.41,28.43,39.82,67,79.05,89.26l3.35,1.9h0l3.35-1.9c39.23-22.27,64.64-60.83,79.05-89.26c4.94-9.75,8.95-18.95,12.12-26.99   C188.39,116.01,156.66,111.86,125,111.86"/>
	<path style="fill:#FFFFFF;" d="M206.19,124.64c-2.75,7-6.24,15.04-10.57,23.59c-7.46,14.72-18.36,32.6-33.23,48.66   c0.88,1.39,1.24,2.93,1.53,5.03c15.76-16.69,27.23-35.43,35.01-50.77c4.73-9.32,8.47-18.07,11.35-25.55   C208.92,125.27,207.56,124.95,206.19,124.64"/>
	<path style="fill:#FFFFFF;" d="M160.31,202.9c-0.42-3.23-0.71-4.13-2.58-5.63c-0.51-0.41-1.05-0.6-1.65-0.6   c-2.17,0-4.87,2.57-6.99,4.8c-4.01,4.23-11.77,10.01-12.09,10.25c-7.6,5.82-15.05,9.29-19.92,9.29c-0.36,0-0.71-0.02-1.04-0.05   l-0.15-0.02c-30.1-19.44-49.94-49.89-61.51-72.71c-4.33-8.55-7.82-16.59-10.57-23.59c-1.36,0.31-2.72,0.63-4.09,0.95   c2.88,7.47,6.62,16.22,11.35,25.55c12.58,24.82,34.8,58.51,69.23,78.04l4.7,2.67l4.7-2.67c10.05-5.7,19.04-12.61,27.07-20.15   l0.06-0.04C160.09,206.14,160.38,204.81,160.31,202.9"/>
	<path style="fill:#FFFFFF;" d="M125,17.11L67.39,30.45c0,0-3.33,6.58-9.71,12.57c-2.61,0.45-5.23,0.93-7.84,1.43   c9.16-5.87,14.17-15.53,14.25-15.67l0.78-1.54L125,13.31l60.14,13.93l0.79,1.54c0.07,0.14,5.09,9.8,14.25,15.67   c-2.61-0.5-5.23-0.98-7.84-1.43c-6.38-5.98-9.71-12.57-9.71-12.57L125,17.11z"/>
	<path style="fill:#FFFFFF;" d="M125,151.49l3.47,7.02l7.75,1.13l-5.6,5.47l1.32,7.72l-6.93-3.64l-6.93,3.64l1.32-7.72l-5.61-5.47   l7.75-1.13L125,151.49z M121.53,189.98l-7.75,1.13l5.61,5.47l-1.32,7.72l6.93-3.64l6.93,3.64l-1.32-7.72l5.6-5.47l-7.75-1.13   l-3.47-7.02L121.53,189.98z M93,153.23l-2.88,7.28l-7.63,1.76l6.04,4.99l-0.68,7.8l6.61-4.2l7.21,3.06l-1.95-7.58l5.14-5.91   l-7.81-0.49L93,153.23z M105.56,127.74l-7.69,1.46l5.84,5.22l-0.99,7.77l6.77-3.94l7.08,3.34l-1.65-7.66l5.37-5.7l-7.79-0.8   l-3.76-6.87L105.56,127.74z M72.08,130.97l-7.37,2.15l6.19,4.54l-0.23,7.67l6.23-4.48l7.22,2.59l-2.34-7.31l4.69-6.07l-7.67-0.03   l-4.32-6.34L72.08,130.97z M152.97,159.95l-7.81,0.49l5.14,5.91l-1.95,7.58l7.21-3.06l6.61,4.2l-0.69-7.8l6.04-4.99l-7.63-1.76   l-2.88-7.28L152.97,159.95z M141.28,120.58l-3.76,6.87l-7.79,0.8l5.37,5.7l-1.65,7.66l7.08-3.34l6.77,3.94l-0.99-7.77l5.84-5.22   l-7.69-1.46L141.28,120.58z M175.52,123.68l-4.32,6.34l-7.67,0.03l4.69,6.07l-2.34,7.31l7.22-2.59l6.23,4.48l-0.23-7.67l6.19-4.54   l-7.37-2.15L175.52,123.68z"/>
	<path style="fill:#FFFFFF;" d="M69.85,55.14c0.21,2.82,0.43,5.63,0.64,8.45c-1.01,0.15-2.01,0.3-3.02,0.46   c1.11,13.89,2.22,27.77,3.33,41.66c-5.97,0.91-11.93,1.97-17.88,3.18c-6.86-12.7-14.03-25.18-21.51-37.4   c2.02,13.62,4.03,27.24,6.02,40.88c-4.79,1.18-9.58,2.46-14.35,3.83c-0.42-2.75-0.84-5.51-1.25-8.26c0.95-0.27,1.9-0.55,2.85-0.81   c-1.6-10.84-3.19-21.68-4.79-32.51c-0.99,0.29-1.99,0.58-2.98,0.87c-0.42-2.75-0.83-5.5-1.25-8.25c8.13-2.42,16.29-4.57,24.47-6.46   c6.5,11.17,12.75,22.53,18.76,34.07c-1.33-12.39-2.66-24.78-4.01-37.17C59.86,56.73,64.85,55.88,69.85,55.14 M109.95,62.52   c0.49,2.03,0.98,4.07,1.46,6.1c3.61-0.14,7.22-0.23,10.83-0.27c-0.5-5.82-1.01-11.64-1.54-17.46c-7.33,0.11-14.66,0.43-21.99,0.96   c-5.04,0.38-6.59,0.66-11.4,5.16c-4.28,4.04-4.39,4.79-4.17,8.78c0.48,8.24,0.97,16.49,1.45,24.73c0.23,4.07,0.41,5.32,5.26,8.7   c5.18,3.66,6.59,3.55,10.79,3.17c7-0.49,14-0.78,21.01-0.87c0.52-6.29,1.05-12.57,1.6-18.85c-3.6,0.03-7.19,0.11-10.79,0.24   c-0.42,2.19-0.83,4.38-1.24,6.57c-0.61,3.54-1.03,3.83-4.6,4.02c-4.25,0.23-5.96,0.01-7.02-0.92c-0.97-0.93-1.37-2.33-1.46-4.62   c-0.29-7.31-0.58-14.63-0.86-21.94c-0.14-3.56,0.05-5.55,6.19-5.95C108.73,59.76,109.35,59.76,109.95,62.52 M183.53,55.29   c-5.74-0.88-11.5-1.62-17.25-2.23c-0.36,6.66-0.71,13.31-1.07,19.97c-4.52-0.47-9.05-0.87-13.58-1.18   c0.23-6.67,0.47-13.35,0.7-20.02c-5.79-0.4-11.59-0.67-17.39-0.8c-0.04,2.84-0.07,5.68-0.1,8.52c1.01,0.02,2.02,0.05,3.03,0.08   c-0.18,11.17-0.35,22.34-0.53,33.51c-0.96-0.03-1.93-0.06-2.89-0.08c-0.03,2.84-0.07,5.68-0.1,8.52   c5.41,0.12,10.82,0.36,16.22,0.73c0.25-7.29,0.51-14.59,0.76-21.88c4.48,0.3,8.95,0.69,13.42,1.16   c-0.39,7.28-0.78,14.55-1.17,21.83c5.37,0.55,10.73,1.22,16.09,2.01c0.22-2.82,0.43-5.63,0.65-8.45c-0.96-0.14-1.92-0.28-2.88-0.41   c0.81-11.09,1.62-22.18,2.42-33.27c1.01,0.15,2.01,0.29,3.02,0.45C183.09,60.92,183.31,58.1,183.53,55.29 M222.04,74.51   c0.17,2.11,0.34,4.23,0.51,6.34c3.57,0.93,7.12,1.92,10.68,2.95c0.39-5.78,0.76-11.56,1.12-17.34c-7.22-2.1-14.46-3.99-21.72-5.67   c-4.99-1.14-6.55-1.33-11.94,1.61c-4.8,2.65-5.03,3.35-5.4,7.31c-0.78,8.18-1.55,16.36-2.33,24.54c-0.39,4.04-0.4,5.31,3.84,10.01   c4.53,5.07,5.92,5.37,10.1,6.22c6.94,1.55,13.86,3.3,20.77,5.25c1.46-5.93,2.93-11.86,4.42-17.78c-3.54-1.03-7.09-2.01-10.64-2.94   c-0.74,2-1.48,4-2.21,6c-1.13,3.25-1.59,3.42-5.12,2.55c-4.21-1.01-5.85-1.73-6.75-2.94c-0.81-1.19-0.99-2.67-0.74-4.92   c0.82-7.19,1.65-14.39,2.47-21.58c0.4-3.5,0.88-5.38,6.97-3.93C221.26,71.46,221.87,71.65,222.04,74.51"/>
</g>
</svg>