<?xml version="1.0" encoding="UTF-8"?>
<!-- Generator: Adobe Illustrator 16.0.0, SVG Export Plug-In . SVG Version: 6.00 Build 0)  -->
<!DOCTYPE svg PUBLIC "-//W3C//DTD SVG 1.1//EN" "http://www.w3.org/Graphics/SVG/1.1/DTD/svg11.dtd">
<svg version="1.1" id="Layer_1" xmlns="http://www.w3.org/2000/svg" xmlns:xlink="http://www.w3.org/1999/xlink" x="0px" y="0px" width="134.163px" height="86.957px" viewBox="0 0 134.163 86.957" enable-background="new 0 0 134.163 86.957" xml:space="preserve">
<g>
	<path fill="#182E57" d="M64.84,0.554c0,0-2.504,0.354-2.796-0.125c-0.299-0.471-1.551-0.711-2.206,0.125   c-0.659,0.83-1.85,3.275-1.85,3.275s-1.019,0-1.13,0.296c-0.122,0.295-0.658,2.921,0.476,2.921c0,0,0.426,1.717,0.892,2.262   c0,0-4.164-0.237-5.957,1.01c-1.789,1.259-2.438,1.846-3.093,3.457c-0.663,1.606-1.309,2.437-1.725,2.562   c-0.42,0.111-1.668,1.787-1.734,3.513c-0.054,1.729,1.254,3.515,0.659,4.171c-0.593,0.654-2.329-0.123-2.622,0.48   c-0.295,0.588,0,4.401,1.309,4.938c1.312,0.539,0.174,1.904-0.059,2.085c-0.231,0.174,0.414,2.805,1.428,3.457   c1.019,0.649,3.338,1.01,3.398,1.187c0.059,0.183,0.358,2.859,0.358,2.859s-1.311,0.358-1.252,1.372   c0.056,1.01,0.056,1.965-0.173,2.024c-0.25,0.061-0.896,0.12-0.425,1.247c0.482,1.137,2.323,2.445,3.518,2.565l6.075,21.615   c0,0,0.833,2.201-0.479,1.916c-1.305-0.297-5.059-2.864-5.059-2.864s0.061,3.634,0.231,3.876c0.181,0.231,7.032,2.853,7.392,1.782   c0.355-1.071-4.528-18.342-4.528-18.342l-2.201-8.042c0,0,1.425-0.781,1.665-1.847c0,0,1.906-1.132,2.381-1.073   c0.478,0.059,0.772,0.833,0.243,1.551c-0.545,0.713-0.48,1.069-0.48,1.429c0,0.355-0.412,0.415-0.299,0.892   c0.118,0.478,1.014,0.419,1.134,0.898c0.118,0.474-0.299,1.782,0.174,2.611c0.484,0.846,1.612,3.396,4.89,3.396   c3.276,0,6.367-1.067,6.367-1.067s6.138,8.393,8.991,8.518c0,0,0,2.74,1.736,3.333c0,0-0.48,2.029,1.907,2.085l0.946,0.303   c0,0,1.85,1.898,2.567,1.719c0.707-0.181,0.892-3.278,0.892-3.278s1.067-0.829,0.838-1.422c-0.242-0.602-1.91-4.35-3.163-4.467   c0,0,0-3.034-1.49-4.29c0,0,23.108-5.719,38.302-20.188c15.191-14.476-1.158-23.232-37.177-21.177c0,0,32.528,0.447,32.884,12.058   c0.356,11.617-29.565,22.074-44.496,24.933l-0.262-0.809c0,0,5.267-4.467,5.985-6.882c0,0-2.415-0.438-3.13-1.341   c0,0,5.719-4.109,6.62-6.607c0,0-2.774,0.805-4.208,0.358c0,0,5.185-4.912,5.625-6.522c0,0-2.855-1.252-3.472-1.607   c0,0,4.197-2.684,3.836-5.098c-0.364-2.406-1.873-3.929-3.219-4.645c-1.337-0.721-2.771-3.756-3.665-4.557   c-0.887-0.799-3.307-3.302-8.395-2.233c0,0-0.094-1.432,0.722-2.052c0.796-0.625,1.071-2.598,0.796-3.304   c-0.264-0.713,0-1.791,0-2.146c0-0.355-1.248-0.981-1.612-1.965C67.377,0.697,66.424-0.579,64.84,0.554"/>
	<path fill="#182E57" d="M70.498,3.203l0.094,1.87l8.127-0.087l2.681,7.329l20.636-1.609c0,0,1.076-4.199-0.085-5.633h18.66   l-4.454,6.885c0,0,12.949,2.585,14.56,9.286c1.602,6.704-4.652,19.124-25.91,29.67l-4.995,16.786H87.919L87.2,69.313h14.024   l4.834-15.812c0,0,22.599-10.275,26.892-25.101c4.287-14.841-13.757-17.786-13.757-17.786l6.428-7.506L70.498,3.203z"/>
	<path fill="#182E57" d="M43.966,30.544c0,0-8.487,29.031-8.487,29.66c0,0.624-0.804,4.556,0.448,7.409H16.896   c0,0,3.393-2.231,5.63-9.909c2.234-7.687,13.136-44.23,13.136-44.23s1.16-4.825,0-8.306h19.649l0.813-2.052H32.887   c0,0,1.425,2.403,1.425,5.179c0,2.769-3.122,13.492-3.122,13.492S13.77,30.632,7.961,38.403c-5.8,7.766-7.957,16.082,10.457,23.764   c0,0-2.771,4.642-5.719,6.609h38.145c0,0-1.158-3.926-0.626-4.196c0.541-0.261,6.08,2.954,6.08,2.954l-1.073-4.471   c0,0-15.907,0.713-17.789-0.085c-1.87-0.81,2.331-10.991,2.597-11.357C40.298,51.271,50.4,51,51.284,49.841   c0,0,0.275-1.526-0.798-2.148c-1.066-0.624-4.379-4.022-4.015-4.646c0.351-0.625,0.798-1.341,0.798-2.315   c0-0.99,0.981-2.147,1.612-2.686C49.504,37.514,43.427,36.61,43.966,30.544"/>
	<path fill="#182E57" d="M82.652,16.333l1.601,4.649l0.812-3.132c0,0,1.518,8.584,5.003,9.203c0,0,3.124-0.896,3.841-7.233   c0,0,0.986,6.522,3.931,7.325c0,0-1.346,1.163-2.318,1.163c0,0,1.251,2.415,1.869,2.585l1.07-1.073l-1.518-0.264   c0,0,2.681-3.304,3.037-5.183c0,0,1.611,4.022,2.679,4.295c0,0-0.352,0.801-1.342,1.069l0.631,0.624c0,0,5.093-4.109,1.701-8.126   C100.258,18.213,90.424,16.603,82.652,16.333"/>
	<path fill="#182E57" d="M56.201,50.378l5.008,19.024c0,0,5.63-2.949,9.735,0h12.419l-3.841-1.878H65.85l-3.57-12.145   C62.28,55.379,58.53,55.462,56.201,50.378"/>
	<path fill="#FFFFFF" d="M30.031,25.899l-2.682,9.555c0,0-12.513,7.237-4.378,14.023l-3.134,10.195c0,0-12.593-3.58-12.949-12.428   C6.527,38.403,25.826,27.325,30.031,25.899"/>
	<path fill="#FEFCF4" d="M53.437,28.483c0,0-1.073,0.894-1.073,1.43c0,0.533,0.984,0.716,0.622,1.514   c-0.351,0.807-0.53,0.984-0.53,1.612c0,0.626-0.186,1.97-0.896,2.057c0,0-0.094,3.041,0.537,3.124c0.624,0.096,3.66-3.21,3.66-3.21   s0.364,0.89,0.715,0.89c0.36,0,1.967-2.321,2.68-2.233c0,0,0.264-1.071-0.351-0.986C58.17,32.771,55.937,32.771,53.437,28.483"/>
	<path fill="#CDCCCB" d="M39.41,53.057c0,0,10.271-0.72,12.331-1.871l3.132,10.626c0,0-16.892,0.179-18.056-0.362   C36.816,61.45,38.068,55.822,39.41,53.057"/>
	<path fill="#CDCCCB" d="M37.438,6.15c0,0-0.081,7.234-1.252,10.631c-1.155,3.398-12.412,41.284-12.412,41.284   s-2.597,7.322-4.107,8.214h14.472c0,0-0.625-4.022,0.444-8.308c1.079-4.288,8.574-28.323,8.574-28.323s-1.158-3.306-0.896-4.559   c0.274-1.244,1.341-2.233,2.417-2.056c0,0-0.805-3.212-0.351-3.931c0.442-0.709,0.892-2.141,1.154-2.679   c0.27-0.533,0.807-0.628,1.167-1.071c0.355-0.446,0.801-2.589,1.52-3.313c0.714-0.707,3.933-3.833,7.859-4.016   c0,0-0.715-1.605-0.541-2.056L37.438,6.15z"/>
	<path fill="#CDCCCB" d="M29.578,27.146c0,0-19.569,9.562-20.817,18.495C7.516,54.57,20.2,58.146,20.2,58.146l2.326-7.417   c0,0-4.204-2.5-3.845-6.345c0.355-3.835,5.178-8.574,9.027-10.358L29.578,27.146z"/>
	<path fill="#CDCCCB" d="M63.798,55.561c0,0,4.286-0.63,4.908-0.986c0,0,5.193,7.051,8.138,7.771c0,0,0.625,3.125,1.786,3.836   H66.738L63.798,55.561z"/>
	<path fill="#CDCCCB" d="M70.764,6.326c0,0,0,2.949-0.536,3.399c0,0,5.274,0.184,7.069,2.855c1.778,2.684,3.206,5.183,4.814,5.269   c0,0-1.784-2.403-1.157-2.857c0,0,10.987-0.271,18.047,2.684c7.061,2.952,9.561,6.698,3.841,13.49l-1.521-1.431   c0,0,0.892-0.352,1.337-1.071c0,0-2.144-1.969-2.67-4.291c0,0-1.797,4.11-3.041,5.181c0,0,1.077,0.451,1.509,0.268   c0,0-0.707,0.979-1.066,1.075c0,0-1.344-1.43-1.874-2.589c0,0,1.431-0.36,2.323-1.158c0,0-3.034-0.903-3.936-7.336   c0,0-0.528,5.364-3.836,7.242c0,0-3.931-0.721-5.003-9.207c0,0-0.986,7.064-5.813,9.831l3.485,1.607c0,0-4.648,5.985-5.625,6.524   c0,0,3.036,0.172,4.192-0.355c0,0-2.413,3.745-6.609,6.613c0,0,1.346,1.248,3.124,1.331c0,0-1.778,3.396-5.975,6.884l0.266,0.805   c0,0,21.714-4.378,34.843-12.872c13.135-8.482,18.755-22.061-22.875-24.204c0,0,27.163-2.326,38.775,5.446   c11.617,7.777-7.146,21.351-16.71,26.358c-9.556,5.009-21.439,9.2-21.439,9.2s0.448,3.312,0.897,3.934   c0.441,0.623,4.107,4.375,2.233,7.326H98.64l4.554-15.995c0,0,19.659-8.849,25.558-21.265c5.892-12.42-11.978-15.634-14.211-15.812   l3.671-7.056h-14.387c0,0,0.085,5.268-0.631,5.987c0,0-17.419,0.801-22.51,1.515l-2.771-7.328H70.764z"/>
	<path fill="#182E57" d="M6.269,70.916c0,0,0.375,1.297-0.162,3.071c-0.538,1.784-3.825,12.59-5.109,12.974h6.191   c0,0-0.488-1.298-0.27-1.939c0.206-0.646,4.412-11.035,4.412-11.035l3.016,12.974h10.162l4.306-13.35c0,0,0.974-2.098,1.451-2.364   h-5.594c0,0,0.375,1.127,0.266,1.655c-0.109,0.539-4.681,11.735-4.681,11.735L17.462,71.03L6.269,70.916z"/>
	<path fill="#182E57" d="M62.068,72.375c0,0-3.117,10.329-3.444,10.765c-0.327,0.427,0,1.499-4.949,1.551l-1.025,2.318l9.146-0.104   c0,0,3.557-0.485,4.846-4.201c1.295-3.717,3.344-9.735,3.344-9.735S64.594,75.44,62.068,72.375"/>
	<path fill="#182E57" d="M54.96,73.073c1.345,0.594-1.612,8.29-2.851,10.976c-1.228,2.686-5.268,2.908-5.268,2.908H33.226   c-4.467,0-3.546-3.333-3.546-3.333s1.721-6.406,3.009-9.361c1.292-2.962,5.97-3.285,5.97-3.285h12.545   C52.004,72.694,53.62,72.484,54.96,73.073 M46.304,73.285h-4.039c0,0-1.13-0.482-2.206,1.937c-1.077,2.428-2.904,7.216-2.904,7.216   s-1.029,1.509,1.72,1.453c2.74-0.059,4.906,0.27,5.28-0.267c0.371-0.549,3.547-8.563,3.547-8.563S48.235,73.453,46.304,73.285"/>
	<path fill="#182E57" d="M70.086,70.223c0,0.687-1.668,1.239-3.719,1.239c-2.048,0-3.708-0.552-3.708-1.239   c0-0.688,1.66-1.243,3.708-1.243C68.418,68.979,70.086,69.535,70.086,70.223"/>
	<path fill="#182E57" d="M74.125,70.864c0,0,0.318,1.507,0.048,2.312c-0.275,0.815-4.197,11.729-4.197,11.729l-1.396,2.052h9.091   c0,0-0.541-0.973-0.214-1.616c0.323-0.642,2.092-5.004,2.092-5.004h7.104c0,0-2.847,6.35-3.606,6.725h9.314   c0,0-0.384-0.807,0-2.096c0.375-1.294,3.76-11.576,3.76-11.576s0.759-1.658,1.409-2.038h-8.987c0,0,0.271,0.596,0.052,1.285   c-0.218,0.701-1.621,3.878-1.621,3.878l-6.724,0.057c0,0,1.938-5.276,2.796-5.59L74.125,70.864z"/>
	<path fill="#182E57" d="M100.485,71.352c0,0,0.436,1.075-0.052,2.74c-0.484,1.68-4.524,12.917-5.276,13.45h18.294l1.886-5.534   c0,0-1.397,0.856-2.209,1.066c-0.812,0.218-8.825,0-8.825,0l4.148-10.008c0,0,0.594-1.285,1.296-1.664L100.485,71.352z"/>
	<path fill="#182E57" d="M89.704,27.768c0,0-1.965,0.896-2.32,0.896h0.355l2.236,2.772l2.146-2.868   C92.12,28.568,90.153,28.217,89.704,27.768"/>
	<rect y="-0.583" fill="none" width="134.163" height="88.12"/>
</g>
</svg>