<?xml version="1.0" encoding="UTF-8"?>
<!DOCTYPE svg PUBLIC "-//W3C//DTD SVG 1.1//EN" "http://www.w3.org/Graphics/SVG/1.1/DTD/svg11.dtd">
<svg version="1.2" width="190.07mm" height="77.08mm" viewBox="1291 2852 19007 7708" preserveAspectRatio="xMidYMid" fill-rule="evenodd" stroke-width="28.222" stroke-linejoin="round" xmlns="http://www.w3.org/2000/svg" xmlns:ooo="http://xml.openoffice.org/svg/export" xmlns:xlink="http://www.w3.org/1999/xlink" xmlns:presentation="http://sun.com/xmlns/staroffice/presentation" xmlns:smil="http://www.w3.org/2001/SMIL20/" xmlns:anim="urn:oasis:names:tc:opendocument:xmlns:animation:1.0" xml:space="preserve">
 <defs class="EmbeddedBulletChars">
  <g id="bullet-char-template-57356" transform="scale(0.00048828125,-0.00048828125)">
   <path d="M 580,1141 L 1163,571 580,0 -4,571 580,1141 Z"/>
  </g>
  <g id="bullet-char-template-57354" transform="scale(0.00048828125,-0.00048828125)">
   <path d="M 8,1128 L 1137,1128 1137,0 8,0 8,1128 Z"/>
  </g>
  <g id="bullet-char-template-10146" transform="scale(0.00048828125,-0.00048828125)">
   <path d="M 174,0 L 602,739 174,1481 1456,739 174,0 Z M 1358,739 L 309,1346 659,739 1358,739 Z"/>
  </g>
  <g id="bullet-char-template-10132" transform="scale(0.00048828125,-0.00048828125)">
   <path d="M 2015,739 L 1276,0 717,0 1260,543 174,543 174,936 1260,936 717,1481 1274,1481 2015,739 Z"/>
  </g>
  <g id="bullet-char-template-10007" transform="scale(0.00048828125,-0.00048828125)">
   <path d="M 0,-2 C -7,14 -16,27 -25,37 L 356,567 C 262,823 215,952 215,954 215,979 228,992 255,992 264,992 276,990 289,987 310,991 331,999 354,1012 L 381,999 492,748 772,1049 836,1024 860,1049 C 881,1039 901,1025 922,1006 886,937 835,863 770,784 769,783 710,716 594,584 L 774,223 C 774,196 753,168 711,139 L 727,119 C 717,90 699,76 672,76 641,76 570,178 457,381 L 164,-76 C 142,-110 111,-127 72,-127 30,-127 9,-110 8,-76 1,-67 -2,-52 -2,-32 -2,-23 -1,-13 0,-2 Z"/>
  </g>
  <g id="bullet-char-template-10004" transform="scale(0.00048828125,-0.00048828125)">
   <path d="M 285,-33 C 182,-33 111,30 74,156 52,228 41,333 41,471 41,549 55,616 82,672 116,743 169,778 240,778 293,778 328,747 346,684 L 369,508 C 377,444 397,411 428,410 L 1163,1116 C 1174,1127 1196,1133 1229,1133 1271,1133 1292,1118 1292,1087 L 1292,965 C 1292,929 1282,901 1262,881 L 442,47 C 390,-6 338,-33 285,-33 Z"/>
  </g>
  <g id="bullet-char-template-9679" transform="scale(0.00048828125,-0.00048828125)">
   <path d="M 813,0 C 632,0 489,54 383,161 276,268 223,411 223,592 223,773 276,916 383,1023 489,1130 632,1184 813,1184 992,1184 1136,1130 1245,1023 1353,916 1407,772 1407,592 1407,412 1353,268 1245,161 1136,54 992,0 813,0 Z"/>
  </g>
  <g id="bullet-char-template-8226" transform="scale(0.00048828125,-0.00048828125)">
   <path d="M 346,457 C 273,457 209,483 155,535 101,586 74,649 74,723 74,796 101,859 155,911 209,963 273,989 346,989 419,989 480,963 531,910 582,859 608,796 608,723 608,648 583,586 532,535 482,483 420,457 346,457 Z"/>
  </g>
  <g id="bullet-char-template-8211" transform="scale(0.00048828125,-0.00048828125)">
   <path d="M -4,459 L 1135,459 1135,606 -4,606 -4,459 Z"/>
  </g>
  <g id="bullet-char-template-61548" transform="scale(0.00048828125,-0.00048828125)">
   <path d="M 173,740 C 173,903 231,1043 346,1159 462,1274 601,1332 765,1332 928,1332 1067,1274 1183,1159 1299,1043 1357,903 1357,740 1357,577 1299,437 1183,322 1067,206 928,148 765,148 601,148 462,206 346,322 231,437 173,577 173,740 Z"/>
  </g>
 </defs>
 <g class="Page">
  <g class="com.sun.star.drawing.ClosedBezierShape">
   <g id="id3">
    <rect class="BoundingBox" stroke="none" fill="none" x="1291" y="2852" width="19007" height="7708"/>
    <path fill="rgb(51,141,202)" stroke="none" d="M 16361,9111 L 15907,9111 16036,8530 14120,8530 13991,9111 12781,9111 12909,8530 10993,8530 10864,9111 9194,9111 9194,9111 C 9283,9069 9370,9023 9455,8974 9674,8848 9880,8699 10069,8530 L 5506,8530 5506,8530 C 5596,8625 5692,8714 5794,8796 L 4517,8796 C 4575,8850 4635,8903 4697,8954 L 3504,8954 3504,8954 C 3560,9008 3618,9060 3677,9111 L 2479,9111 2479,9111 C 2534,9165 2590,9218 2647,9269 L 19855,9269 20019,8530 16489,8530 16361,9111 Z M 16564,8196 L 16110,8196 16239,7615 14323,7615 14194,8196 12983,8196 13112,7615 11196,7615 11067,8196 10400,8196 10400,8196 C 10557,8016 10698,7822 10817,7615 L 4920,7615 4920,7615 C 4957,7705 4998,7794 5044,7881 L 3814,7881 C 3842,7934 3872,7987 3903,8038 L 2793,8038 C 2823,8091 2854,8144 2886,8196 L 1767,8196 C 1797,8249 1829,8301 1862,8353 L 20058,8353 20222,7615 16692,7615 16564,8196 Z M 18683,7280 L 18811,6700 16895,6700 16767,7280 16313,7280 16442,6700 11399,6700 11270,7280 10989,7280 10989,7280 C 11074,7093 11142,6899 11193,6700 L 4708,6700 C 4715,6789 4727,6877 4741,6965 L 3503,6965 C 3512,7018 3523,7071 3535,7123 L 2448,7123 C 2459,7176 2472,7228 2485,7280 L 1395,7280 C 1408,7333 1422,7386 1438,7438 L 20261,7438 20296,7280 18683,7280 Z M 13186,7280 L 13233,7068 14444,7068 14397,7280 13186,7280 Z M 18851,6523 L 19014,5785 17098,5785 16969,6366 16516,6366 16644,5785 11602,5785 11473,6365 11260,6365 C 11290,6172 11303,5977 11299,5785 L 4764,5785 4764,5785 C 4747,5873 4733,5961 4723,6050 L 3482,6050 C 3478,6085 3474,6119 3471,6153 3469,6172 3469,6190 3468,6208 L 2384,6208 2384,6208 C 2381,6260 2378,6313 2377,6365 L 1293,6365 1293,6365 C 1292,6388 1292,6411 1292,6433 1292,6463 1292,6493 1293,6523 L 18851,6523 Z M 19053,5608 L 19217,4869 17301,4869 17172,5450 16719,5450 16847,4869 14931,4869 14849,5239 13639,5239 13721,4869 11805,4869 11676,5450 11274,5450 11274,5450 C 11249,5253 11206,5058 11144,4869 L 5084,4869 C 5040,4957 5000,5046 4963,5135 L 3725,5135 C 3703,5187 3683,5240 3664,5293 L 2576,5293 C 2558,5345 2540,5397 2525,5450 L 1439,5450 C 1424,5502 1409,5555 1396,5608 L 19053,5608 Z M 19257,4692 L 19420,3954 17504,3954 17375,4535 16922,4535 17050,3954 15134,3954 15005,4535 13795,4535 13924,3954 12008,3954 11879,4535 11009,4535 11009,4535 C 10974,4460 10936,4387 10894,4315 10821,4189 10740,4068 10649,3954 L 5744,3954 5744,3954 C 5662,4039 5584,4127 5510,4220 L 4270,4220 4270,4220 C 4230,4271 4190,4324 4152,4377 L 3046,4377 C 3010,4429 2976,4482 2943,4535 L 1840,4535 1840,4535 C 1832,4549 1824,4563 1816,4577 1794,4615 1772,4653 1752,4692 L 19257,4692 Z M 19460,3777 L 19623,3038 17707,3038 17578,3619 17125,3619 17253,3038 15337,3038 15208,3619 13998,3619 14127,3038 12211,3038 12082,3619 10333,3619 C 9330,2709 7824,2616 6593,3304 L 5254,3304 5254,3304 C 5182,3355 5111,3407 5041,3461 L 3866,3461 3866,3461 C 3807,3513 3750,3565 3693,3619 L 2543,3619 C 2493,3671 2444,3723 2397,3777 L 19460,3777 Z M 3152,9911 C 3209,9827 3282,9785 3373,9785 3431,9785 3480,9805 3518,9845 3556,9885 3575,9940 3575,10011 3575,10074 3560,10139 3530,10205 3500,10272 3462,10322 3416,10354 3370,10387 3322,10404 3272,10404 3211,10404 3161,10383 3124,10341 3086,10300 3067,10248 3067,10187 L 3067,10187 C 3067,10186 3067,10185 3067,10184 3067,10099 3089,10017 3132,9943 3138,9933 3145,9921 3152,9911 Z M 2922,10360 C 2946,10416 2986,10463 3043,10501 3100,10539 3170,10558 3253,10558 3349,10558 3436,10534 3512,10486 3588,10439 3648,10370 3693,10282 L 3693,10282 C 3737,10197 3759,10103 3760,10008 3760,9894 3725,9803 3657,9734 3589,9665 3499,9631 3388,9631 3306,9631 3232,9648 3167,9681 L 3167,9681 C 3160,9685 3153,9688 3147,9692 3091,9724 3043,9767 3006,9818 2963,9876 2931,9944 2911,10023 L 2911,10023 C 2895,10078 2887,10134 2887,10190 2887,10247 2899,10304 2922,10360 Z M 4516,10542 L 4346,10542 4104,9939 3978,10542 3807,10542 3994,9646 4164,9646 4407,10247 4532,9646 4703,9646 4516,10542 Z M 5095,10542 L 4911,10542 5066,9796 4804,9796 4834,9646 5537,9646 5507,9796 5250,9796 5095,10542 Z M 5690,10195 L 5887,9835 5941,10195 5690,10195 Z M 5993,10542 L 6167,10542 6023,9646 5815,9646 5310,10542 5500,10542 5608,10345 5963,10345 5993,10542 Z M 6619,9796 L 6824,9796 C 6878,9796 6914,9801 6930,9810 6957,9827 6970,9851 6970,9884 6970,9912 6961,9938 6942,9963 6924,9989 6899,10007 6866,10019 6833,10031 6767,10037 6667,10037 L 6569,10037 6619,9796 Z M 6541,10171 L 6617,10171 C 6661,10171 6692,10177 6710,10189 6739,10209 6766,10248 6791,10306 6838,10413 6870,10492 6886,10542 L 7083,10542 C 7033,10414 6987,10315 6946,10245 L 6946,10245 C 6928,10214 6905,10186 6879,10161 6972,10150 7041,10119 7086,10069 7132,10020 7155,9957 7155,9881 7155,9827 7143,9782 7120,9744 7096,9707 7065,9681 7027,9667 6989,9653 6935,9646 6866,9646 L 6466,9646 6280,10542 6464,10542 6541,10171 Z M 7174,10542 L 7361,9646 7545,9646 7358,10542 7174,10542 Z M 7852,9911 C 7909,9827 7982,9785 8073,9785 8131,9785 8180,9805 8218,9845 8256,9885 8275,9940 8275,10011 8275,10074 8260,10139 8230,10205 8200,10272 8162,10322 8116,10354 8070,10387 8022,10404 7972,10404 7911,10404 7861,10383 7824,10341 7786,10300 7767,10248 7767,10187 L 7767,10187 C 7767,10186 7767,10184 7767,10183 7767,10099 7789,10017 7832,9943 7838,9933 7845,9921 7852,9911 Z M 7622,10360 C 7646,10416 7686,10463 7743,10501 7799,10539 7870,10558 7953,10558 8049,10558 8135,10534 8212,10486 8288,10439 8348,10370 8393,10282 L 8393,10282 C 8436,10197 8459,10103 8459,10008 8459,9894 8425,9803 8357,9734 8289,9665 8199,9631 8088,9631 8005,9631 7932,9648 7867,9681 7802,9715 7748,9760 7706,9818 7663,9876 7631,9944 7611,10023 L 7611,10023 C 7595,10078 7587,10134 7587,10190 7587,10247 7599,10304 7622,10360 Z M 9466,10141 L 9118,10141 9034,10542 8850,10542 9037,9646 9221,9646 9149,9991 9497,9991 9569,9646 9753,9646 9566,10542 9382,10542 9466,10141 Z M 10075,9911 C 10132,9827 10205,9785 10295,9785 10354,9785 10403,9805 10441,9845 10479,9885 10498,9940 10498,10011 10498,10074 10483,10139 10453,10205 10423,10272 10385,10322 10339,10354 10293,10387 10245,10404 10195,10404 10134,10404 10084,10383 10047,10341 10009,10300 9990,10248 9990,10187 L 9990,10187 C 9990,10186 9990,10185 9990,10184 9990,10099 10012,10017 10055,9943 10061,9933 10068,9921 10075,9911 Z M 9845,10360 C 9869,10416 9909,10463 9966,10501 10022,10539 10093,10558 10176,10558 10272,10558 10358,10534 10435,10486 10511,10439 10571,10370 10616,10282 L 10616,10282 C 10659,10197 10682,10103 10682,10008 10682,9894 10648,9803 10580,9734 10512,9665 10422,9631 10311,9631 10229,9631 10155,9648 10090,9681 L 10090,9681 C 10083,9685 10076,9688 10069,9692 10014,9724 9966,9767 9929,9818 9886,9876 9854,9944 9834,10023 L 9834,10023 C 9818,10078 9810,10134 9810,10190 9810,10247 9822,10304 9845,10360 Z M 11372,10219 L 11558,10247 C 11522,10348 11468,10425 11395,10478 11323,10531 11238,10558 11141,10558 11032,10558 10946,10525 10885,10459 10823,10393 10793,10297 10793,10171 10793,10070 10813,9976 10854,9892 10896,9807 10953,9743 11026,9698 L 11026,9698 C 11030,9696 11034,9693 11038,9691 11106,9651 11184,9631 11263,9631 11264,9631 11265,9631 11265,9631 11362,9631 11441,9656 11500,9708 11560,9760 11596,9830 11606,9920 L 11430,9937 C 11420,9885 11402,9847 11374,9824 11346,9801 11308,9789 11262,9789 11211,9789 11163,9805 11118,9836 11074,9867 11039,9915 11012,9981 L 11012,9981 C 10986,10044 10973,10111 10972,10178 10972,10250 10989,10305 11024,10345 11058,10384 11101,10404 11152,10404 11200,10404 11243,10388 11283,10357 11323,10326 11352,10280 11372,10219 Z M 11626,10542 L 11812,9646 11996,9646 11917,10027 12329,9646 12577,9646 12176,9997 12470,10542 12260,10542 12042,10115 11867,10268 11810,10542 11626,10542 Z M 12531,10542 L 12717,9646 13380,9646 13349,9796 12869,9796 12826,10000 13291,10000 13260,10150 12793,10150 12741,10393 13260,10393 13228,10542 12531,10542 Z M 13814,10542 L 13630,10542 13702,10193 13456,9646 13653,9646 13764,9897 C 13791,9958 13808,10001 13817,10028 13832,10002 13850,9974 13870,9944 L 13954,9826 14080,9646 14294,9646 13883,10211 13814,10542 Z M 14528,10542 L 14714,9646 14898,9646 14743,10393 15199,10393 15168,10542 14528,10542 Z M 15287,10542 L 15474,9646 16136,9646 16106,9796 15626,9796 15582,10000 16047,10000 16017,10150 15550,10150 15498,10393 16017,10393 15984,10542 15287,10542 Z M 16435,10195 L 16632,9835 16685,10195 16435,10195 Z M 16737,10542 L 16912,10542 16768,9646 16560,9646 16054,10542 16244,10542 16353,10345 16708,10345 16737,10542 Z M 17519,10063 L 17921,10063 17841,10448 C 17793,10479 17735,10505 17667,10526 L 17667,10526 C 17599,10547 17528,10558 17457,10558 17346,10558 17261,10533 17202,10483 17121,10414 17081,10315 17081,10185 17081,10097 17098,10014 17133,9934 17174,9838 17234,9763 17310,9710 17387,9657 17477,9631 17580,9631 17684,9631 17767,9655 17829,9703 17892,9751 17933,9821 17954,9913 L 17782,9932 C 17767,9882 17743,9844 17709,9819 17676,9793 17634,9781 17583,9781 17524,9781 17470,9796 17420,9827 17371,9858 17331,9906 17303,9970 L 17303,9970 C 17275,10036 17261,10106 17261,10177 17261,10179 17261,10181 17261,10182 17261,10258 17278,10313 17312,10349 17347,10385 17397,10403 17462,10403 17502,10403 17542,10398 17584,10387 L 17584,10387 C 17621,10377 17657,10364 17691,10347 L 17719,10212 17489,10212 17519,10063 Z M 18190,9646 L 18374,9646 18267,10134 18242,10253 C 18239,10264 18237,10276 18235,10292 18235,10325 18250,10351 18278,10372 18306,10393 18347,10404 18401,10404 18449,10404 18490,10396 18521,10379 18553,10363 18577,10337 18594,10304 18611,10271 18629,10216 18646,10137 L 18748,9646 18932,9646 18827,10154 C 18804,10253 18779,10329 18749,10381 18720,10433 18676,10476 18617,10509 18558,10541 18483,10558 18393,10558 18284,10558 18201,10532 18144,10481 18087,10430 18058,10364 18058,10284 18058,10268 18061,10250 18064,10231 18066,10217 18073,10180 18085,10119 L 18190,9646 Z M 18900,10542 L 19086,9646 19749,9646 19718,9796 19238,9796 19195,10000 19660,10000 19629,10150 19162,10150 19110,10393 19629,10393 19597,10542 18900,10542 Z"/>
   </g>
  </g>
 </g>
</svg>