<?xml version="1.0" encoding="utf-8"?>
<!-- Generator: Adobe Illustrator 16.0.0, SVG Export Plug-In . SVG Version: 6.00 Build 0)  -->
<!DOCTYPE svg PUBLIC "-//W3C//DTD SVG 1.1//EN" "http://www.w3.org/Graphics/SVG/1.1/DTD/svg11.dtd">
<svg version="1.1" id="Layer_1" xmlns="http://www.w3.org/2000/svg" xmlns:xlink="http://www.w3.org/1999/xlink" x="0px" y="0px"
	 width="115.965px" height="129.614px" viewBox="0 0 115.965 129.614" enable-background="new 0 0 115.965 129.614"
	 xml:space="preserve">
<path fill="#FFFFFF" d="M115.19,88.211c-0.844-1.025-2.225-1.479-3.517-1.154c0,0-0.286,0.069-0.828,0.213
	c-0.271-0.291-0.533-0.572-0.774-0.824c0.646-1.232,1.632-2.943,2.283-4.028l1.696-2.836c0,0-2.15-0.246-4.749-0.537
	c-0.231-0.562-0.754-1.44-2.278-4.005c0,0,0.005,0.025,0.005,0.03c-0.118-0.247-0.286-0.587-0.513-1.041
	c-0.01-1.439-0.547-2.815-1.622-4.117c3.318-7.974,7.658-18.398,7.658-18.398l-20.263,5.079c-0.02-0.029-0.034-0.06-0.034-0.06
	l-0.158-0.291V10.355C92.097,4.646,87.718,0,82.343,0H34.174c-5.38,0-9.759,4.646-9.759,10.355v63.288l-3.028,0.765l-7.574,5.74
	L0,115.471l3.033,1.993l-2.066,7.757c-0.321,0.937-0.301,2.293,0.261,3.052l0.029,0.04l0.03,0.039
	c0.848,1.03,2.229,1.484,3.521,1.159c0,0,9.837-2.521,23.527-6.026c1.628,1.297,3.649,2.066,5.839,2.066h48.169
	c5.375,0,9.754-4.646,9.754-10.351v-8.038c11.18-2.865,18.817-4.823,18.817-4.823c0.981-0.246,1.796-0.912,2.234-1.819l0.079-0.168
	l2.52-8.753C116.172,90.455,115.969,89.163,115.19,88.211"/>
<path fill="#A4A9AD" d="M34.174,2.135c-4.206,0-7.634,3.684-7.634,8.22V115.2c0,4.531,3.428,8.22,7.634,8.22h48.164
	c4.206,0,7.629-3.688,7.629-8.22V10.355c0-4.537-3.423-8.22-7.629-8.22H34.174z"/>
<polygon fill="#A4A9AD" points="15.578,81.484 2.613,114.638 9.813,119.362 25.07,115.54 31.861,110.422 44.84,77.225 
	37.566,72.544 22.329,76.366 "/>
<path fill="#A4A9AD" d="M87.181,68.057c-0.632,1.607-13.927,35.412-13.927,35.412l39.929-10.549c0,0-4.748-5.173-5.671-6.051
	c0.558-1.435,3.019-5.547,3.019-5.547l-12.132-1.361l10.563-25.356l-28.395,7.12C80.567,61.725,86.263,67.179,87.181,68.057"/>
<path fill="#A4A9AD" d="M5.488,116.502l-2.48,9.34c-0.222,0.458-0.069,1.159-0.069,1.159c0.321,0.399,0.848,0.571,1.341,0.448
	l106.106-27.172c0.37-0.093,0.681-0.345,0.844-0.689l2.485-8.625c0.222-0.459,0.157-1.006-0.173-1.4
	c-0.325-0.395-0.854-0.567-1.342-0.444L6.332,116.048C5.962,116.146,5.656,116.156,5.488,116.502"/>
<polygon fill="#2E2A25" points="110.057,99.011 4.423,125.94 6.667,117.315 112.542,90.386 "/>
<path fill="#A4A9AD" d="M49.988,77.456c-0.493,1.263-4.478,11.489-5.139,13.176c-1.686-0.251-10.483-1.588-10.483-1.588
	l-7.614,19.553l7.176,4.729l15.197-3.812l6.771-5.113l15.716-40.333l-28.188,7.062C43.425,71.129,49.076,76.578,49.988,77.456"/>
<path fill="#A4A9AD" d="M62.347,74.359c-0.627,1.603-13.754,35.288-13.754,35.288l39.065-9.883c0,0-4.226-5.715-5.138-6.598
	c0.621-1.598,13.753-35.283,13.753-35.283l-40.49,10.148C55.783,68.032,61.429,73.481,62.347,74.359"/>
<path fill="#2E2A25" d="M88.235,115.2c0,3.511-2.643,6.356-5.897,6.356H34.174c-3.255,0-5.897-2.846-5.897-6.356V10.351
	c0-3.511,2.643-6.352,5.897-6.352h48.164c3.255,0,5.897,2.841,5.897,6.352V115.2z"/>
<polygon fill="#2E2A25" points="16.673,82.273 4.32,113.967 10.331,117.917 24.774,114.303 32.014,111.768 43.316,77.904 
	37.246,73.989 22.817,77.604 "/>
<path fill="#2E2A25" d="M51.458,76.978c-0.873,2.233-3.96,10.158-5.893,15.119c-0.045-0.005-10.484-1.583-10.484-1.583l-6.8,17.447
	l6.006,3.955l14.443-3.62l6.185-4.67l14.71-37.749L46.068,71.78C46.068,71.78,50.575,76.129,51.458,76.978"/>
<path fill="#2E2A25" d="M63.811,73.881c-1.184,3.042-13.226,33.947-13.226,33.947l35.855-8.98c0,0-4.512-4.35-5.39-5.197
	c1.184-3.048,13.23-33.952,13.23-33.952l-35.855,8.985C58.426,68.684,62.934,73.032,63.811,73.881"/>
<path fill="#2E2A25" d="M88.473,67.702c-1.188,3.037-13.231,33.946-13.231,33.946l35.93-9.004l-5.454-5.193l2.51-4.966
	c0,0-9.625-1.271-11.761-1.577c2.806-7.205,10.119-24.297,10.119-24.297l-23.503,5.893C83.082,62.504,87.595,66.854,88.473,67.702"
	/>
<path fill="#A4A9AD" d="M18.66,83.842L7.417,112.685l3.639,2.388l12.905-3.235l5.011-3.782l11.243-28.854l-3.679-2.371
	l-12.905,3.234L18.66,83.842z M26.313,86.268c0.621-0.157,1.465-0.369,2.771-0.695c-1.347,3.442-7.333,18.823-7.821,20.07
	c-0.621,0.153-1.47,0.365-2.771,0.695C19.409,103.981,25.159,89.231,26.313,86.268"/>
<path fill="#FFFFFF" d="M13.906,99.331l5.735-14.715l4.389-3.339l12.155-3.042l2.495,1.612L28,107.275l-4.438,3.349l-12.15,3.042
	l-2.461-1.612L13.906,99.331z M19.71,99.923l-3.205,8.23l5.607-1.41l8.96-22.985l-5.612,1.405L19.71,99.923z"/>
<path fill="#A4A9AD" d="M54.427,76.011c-0.597,1.524-8.685,22.284-9.207,23.626c-0.621,0.158-1.47,0.37-2.771,0.7
	c0.735-1.879,2.2-5.637,2.2-5.637l-8.127-1.228l-5.148,13.211l3.639,2.387l12.91-3.234l5.011-3.783l12.663-32.507l-14.182,3.556
	C51.414,73.102,53.879,75.488,54.427,76.011"/>
<polygon fill="#FFFFFF" points="37.236,94.938 42.937,95.801 40.461,102.151 46.073,100.741 55.896,75.532 54.057,73.758 
	63.604,71.365 51.951,101.273 47.522,104.617 35.367,107.67 32.906,106.048 "/>
<path fill="#A4A9AD" d="M66.784,72.914c-0.621,1.588-12.175,31.245-12.175,31.245s12.205-3.058,12.357-3.093l2.239-0.562
	c0.217-0.055,11.889-2.983,11.889-2.983s-2.476-2.377-3.013-2.904c0.621-1.594,12.176-31.245,12.176-31.245l-14.134,3.536
	c-0.094,0.024-12.353,3.097-12.353,3.097S66.237,72.387,66.784,72.914 M77.288,68.032c0.257,0.246,1.312,1.263,1.854,1.785
	c-0.523,1.331-3.043,7.801-3.363,8.625c-0.419,0.251-1.682,1.001-3.309,1.957C73.747,77.12,77.194,68.278,77.288,68.032
	 M72.396,87.126c-1.544,3.955-4.68,12.022-4.72,12.116c-0.192-0.158-1.316-1.085-1.928-1.593c0.547-1.41,3.013-7.742,3.333-8.565
	C69.507,88.837,70.769,88.088,72.396,87.126"/>
<polygon fill="#FFFFFF" points="70.084,83.235 76.721,79.31 80.611,69.339 78.768,67.563 88.266,65.182 76.612,95.09 78.452,96.87 
	68.954,99.247 74.783,84.291 68.136,88.221 64.255,98.191 66.331,99.903 56.602,102.344 68.254,72.436 66.41,70.66 75.907,68.278 
	70.828,81.322 "/>
<path fill="#A4A9AD" d="M91.445,66.735c-0.621,1.588-12.175,31.244-12.175,31.244l26.521-6.652l-3.053-2.895l1.598-2.613
	l-8.407-0.942l-1.391,2.402c0,0-1.47,0.369-2.771,0.695c1.439-3.699,10.789-27.689,10.789-27.689l-14.128,3.541
	C88.428,63.826,90.898,66.207,91.445,66.735"/>
<polygon fill="#FFFFFF" points="102.482,86.613 101.27,88.916 103.128,90.682 81.258,96.165 92.915,66.257 91.071,64.481 
	100.568,62.1 89.779,89.789 95.391,88.379 96.624,85.947 "/>
<path fill="#A4A9AD" d="M31.975,97.62c-0.024-0.005-0.045-0.005-0.064-0.01C31.93,97.61,31.95,97.615,31.975,97.62"/>
<path fill="#C9CACC" d="M67.224,86.46l0.01-0.049l-0.015,0.005C67.219,86.431,67.224,86.445,67.224,86.46"/>
<path fill="#FFFFFF" d="M47.346,99.321c0.02-0.01,0.039-0.015,0.059-0.024C47.32,99.292,47.301,99.302,47.346,99.321"/>
<path fill="#FFFFFF" d="M89.522,98.301"/>
<path fill="#A4A9AD" d="M8.339,119.451c0.024-0.104,0.064-0.197,0.108-0.291c0.286-0.637,0.681-0.986,1.336-1.154l1.262-0.32
	c0.75-0.188,1.001,0.094,0.779,0.867l-0.863,3.058c-0.222,0.77-0.695,1.253-1.445,1.44l-1.253,0.32
	c-0.68,0.173-0.902,0.01-0.838-0.592c0.01-0.084,0.024-0.188,0.049-0.276l0.863-3.067V119.451z M8.654,121.848
	c-0.084,0.28-0.02,0.369,0.237,0.296l0.656-0.163c0.257-0.069,0.375-0.178,0.449-0.434l0.661-2.338
	c0.084-0.281,0.02-0.365-0.241-0.296l-0.651,0.163c-0.266,0.068-0.384,0.178-0.468,0.479L8.654,121.848z"/>
<path fill="#A4A9AD" d="M12.491,118.316c0.236-0.833,0.951-1.47,1.533-1.386c0.252,0.045,0.38,0.262,0.36,0.671l-0.133,2.919
	l1.114-3.93l1.011-0.257l-1.258,4.438c-0.157,0.552-0.66,1.08-1.153,1.218c-0.464,0.133-0.706-0.069-0.681-0.666l0.118-2.895
	l-1.109,3.921l-1.021,0.256L12.491,118.316z"/>
<polygon fill="#A4A9AD" points="16.776,116.23 19.962,115.427 19.637,116.57 18.571,116.842 17.378,121.059 16.312,121.329 
	17.506,117.113 16.451,117.38 "/>
<path fill="#A4A9AD" d="M21.189,115.737c0.271-0.513,0.637-0.843,1.046-0.946c0.399-0.099,0.621,0.078,0.626,0.508l0.035,4.364
	l-1.115,0.28l-0.005-1.079l-1.504,0.384l-0.671,1.243l-1.114,0.286L21.189,115.737z M21.767,117.857l-0.005-1.617l-0.873,1.84
	L21.767,117.857z"/>
<path fill="#A4A9AD" d="M27.201,113.588c0.587-0.148,0.843,0.063,0.76,0.621c-0.011,0.078-0.025,0.133-0.045,0.207l-0.311,1.07
	c-0.02,0.078-0.039,0.152-0.074,0.231c-0.227,0.498-0.602,0.888-1.04,1.056c-0.064,0.029-0.124,0.044-0.188,0.059l-0.158,0.024
	l0.602,1.83l-1.252,0.315l-0.558-1.711c-0.029-0.089-0.024-0.217,0.034-0.399c0.163-0.454,0.464-0.74,0.834-0.834l0.429-0.108
	c0.202-0.054,0.306-0.157,0.375-0.385l0.133-0.492c0.055-0.178,0.005-0.262-0.168-0.247c-0.015-0.01-0.049,0-0.068,0l-1.056,0.271
	l-1.193,4.221l-1.07,0.267l1.524-5.365L27.201,113.588z"/>
<polygon fill="#A4A9AD" points="28.813,113.178 29.879,112.907 28.359,118.272 27.295,118.543 "/>
<path fill="#A4A9AD" d="M30.199,113.908c0.024-0.104,0.06-0.197,0.104-0.291c0.286-0.642,0.681-0.991,1.336-1.154l1.263-0.32
	c0.75-0.192,1.001,0.089,0.779,0.863l-0.863,3.057c-0.222,0.774-0.695,1.258-1.444,1.45l-1.248,0.315
	c-0.681,0.173-0.912,0.005-0.843-0.592c0.01-0.084,0.024-0.188,0.049-0.275l0.868-3.072V113.908z M30.51,116.305
	c-0.084,0.281-0.02,0.365,0.242,0.296l0.65-0.168c0.262-0.063,0.375-0.173,0.449-0.429l0.665-2.338
	c0.079-0.286,0.021-0.364-0.246-0.301l-0.651,0.168c-0.266,0.064-0.385,0.178-0.463,0.479L30.51,116.305z"/>
<path fill="#A4A9AD" d="M35.249,115.456l0.227-0.054l0.247-0.06c0.177-0.044,0.301-0.178,0.35-0.354l0.024-0.089l0.04-0.134
	l1.055-3.708l1.065-0.276l-1.159,4.073c-0.118,0.43-0.207,0.622-0.345,0.804c-0.315,0.425-0.631,0.642-1.1,0.765l-0.729,0.188
	L35.249,115.456z"/>
<path fill="#A4A9AD" d="M38.898,110.619l1.064-0.271l-1.085,3.832l-0.034,0.118l-0.01,0.044c-0.024,0.148,0.049,0.197,0.296,0.133
	l0.725-0.182c0.247-0.06,0.346-0.158,0.414-0.296l0.021-0.035l0.029-0.118l1.095-3.866l1.065-0.267l-1.14,4.024
	c-0.118,0.414-0.192,0.587-0.325,0.774c-0.311,0.463-0.661,0.72-1.159,0.848l-1.371,0.351c-0.503,0.123-0.749,0.024-0.833-0.335
	c-0.029-0.158-0.015-0.297,0.108-0.726L38.898,110.619z"/>
<path fill="#A4A9AD" d="M42.823,110.624c0.237-0.839,0.942-1.475,1.534-1.391c0.246,0.049,0.379,0.266,0.359,0.67l-0.138,2.925
	l1.114-3.931l1.011-0.261l-1.257,4.442c-0.158,0.553-0.656,1.085-1.149,1.219c-0.469,0.133-0.71-0.069-0.686-0.671l0.118-2.89
	l-1.109,3.92l-1.016,0.257L42.823,110.624z"/>
<polygon fill="#A4A9AD" points="47.351,108.474 48.415,108.207 46.896,113.572 45.831,113.844 "/>
<path fill="#A4A9AD" d="M48.736,109.208c0.024-0.108,0.059-0.197,0.104-0.296c0.291-0.641,0.686-0.98,1.346-1.153l1.258-0.32
	c0.744-0.192,0.996,0.093,0.774,0.867l-0.863,3.058c-0.222,0.774-0.695,1.253-1.445,1.445l-1.247,0.315
	c-0.681,0.173-0.912,0.01-0.839-0.592c0.011-0.084,0.025-0.183,0.05-0.276l0.863-3.062V109.208z M49.047,111.6
	c-0.079,0.281-0.02,0.365,0.236,0.297l0.661-0.163c0.261-0.069,0.37-0.178,0.443-0.429l0.666-2.338
	c0.079-0.286,0.02-0.37-0.241-0.301l-0.651,0.163c-0.271,0.068-0.385,0.182-0.474,0.478L49.047,111.6z"/>
<path fill="#A4A9AD" d="M55.68,106.363c0.592-0.153,0.843,0.063,0.764,0.626c-0.01,0.064-0.024,0.128-0.049,0.202l-0.306,1.07
	c-0.021,0.079-0.04,0.152-0.074,0.227c-0.227,0.508-0.602,0.888-1.041,1.056c-0.068,0.029-0.128,0.044-0.187,0.063l-0.163,0.025
	l0.606,1.824l-1.258,0.32l-0.557-1.716c-0.03-0.089-0.025-0.212,0.039-0.395c0.158-0.454,0.464-0.745,0.823-0.833l0.439-0.109
	c0.197-0.054,0.306-0.162,0.37-0.384l0.138-0.493c0.049-0.178,0.005-0.262-0.173-0.247c-0.015-0.01-0.044-0.005-0.064,0.005
	l-1.055,0.267l-1.198,4.216l-1.065,0.271l1.519-5.365L55.68,106.363z"/>
<polygon fill="#A4A9AD" points="59.284,105.451 60.35,105.175 59.758,107.28 61.257,106.896 61.849,104.8 62.918,104.528 
	61.39,109.894 60.324,110.165 60.926,108.05 59.432,108.43 58.83,110.545 57.766,110.811 "/>
<path fill="#A4A9AD" d="M63.234,105.524c0.024-0.104,0.059-0.192,0.104-0.291c0.291-0.641,0.686-0.985,1.341-1.153l1.263-0.32
	c0.744-0.188,1.001,0.094,0.779,0.872l-0.868,3.053c-0.222,0.774-0.695,1.253-1.44,1.445l-1.252,0.315
	c-0.681,0.172-0.912,0.01-0.839-0.587c0.011-0.089,0.025-0.188,0.05-0.281l0.863-3.062V105.524z M63.545,107.922
	c-0.079,0.285-0.02,0.364,0.246,0.301l0.651-0.168c0.256-0.064,0.374-0.178,0.443-0.43l0.666-2.337
	c0.079-0.286,0.02-0.37-0.241-0.306l-0.651,0.168c-0.267,0.068-0.385,0.182-0.474,0.478L63.545,107.922z"/>
<path fill="#A4A9AD" d="M67.342,104.538c0.262-0.922,0.631-1.292,1.509-1.514l2.071-0.527l-0.32,1.164l-1.78,0.448l-0.094,0.024
	l-0.055,0.01c-0.138,0.035-0.246,0.148-0.311,0.286l-0.039,0.139l-0.626,2.224c-0.104,0.351-0.069,0.429,0.177,0.395
	c0.03-0.005,0.069-0.034,0.094-0.039l1.771-0.449l-0.335,1.164l-2.234,0.562c-0.108,0.035-0.227,0.035-0.345,0.025
	c-0.365-0.089-0.483-0.38-0.32-0.962L67.342,104.538z"/>
<path fill="#A4A9AD" d="M71.469,102.359l1.065-0.271l-1.519,5.365l-1.065,0.271L71.469,102.359z M73.831,101.757l1.218-0.306
	l-2.09,2.979l0.611,2.372l-1.229,0.315l-0.493-1.869c-0.099-0.389-0.084-0.502,0.099-0.813l0.192-0.266L73.831,101.757z"/>
<path fill="#A4A9AD" d="M75.055,102.526c0.02-0.074,0.049-0.163,0.094-0.241c0.256-0.637,0.689-1.036,1.267-1.179l2.199-0.562
	l-0.33,1.164l-1.741,0.443l-0.152,0.04l-0.024,0.005c-0.03,0.005-0.05,0.01-0.074,0.034c-0.118,0.069-0.217,0.192-0.267,0.36
	l-0.167,0.587l2.164-0.543l-0.33,1.159l-2.16,0.547l-0.172,0.603c-0.074,0.251-0.021,0.32,0.177,0.285l0.153-0.039l1.735-0.439
	l-0.33,1.159l-2.051,0.522c-0.8,0.203-1.065-0.108-0.863-0.818L75.055,102.526z"/>
<polygon fill="#A4A9AD" points="80.03,100.185 80.395,101.965 81.982,99.691 83.195,99.385 80.607,103.084 80.01,105.17 
	78.95,105.436 79.542,103.355 78.812,100.495 "/>
<path fill="#A4A9AD" d="M85.439,98.813l1.065-0.267l-1.056,3.724l-0.068,0.227l-0.006,0.015c-0.039,0.148,0.04,0.212,0.203,0.168
	l0.191-0.05l1.691-0.429l-0.335,1.164l-1.973,0.498c-0.054,0.015-0.113,0.029-0.178,0.044c-0.729,0.118-0.932-0.173-0.69-1.035
	L85.439,98.813z"/>
<path fill="#A4A9AD" d="M88.773,99.05c0.02-0.079,0.049-0.167,0.084-0.241c0.261-0.637,0.695-1.036,1.271-1.184l2.205-0.558
	l-0.331,1.164l-1.74,0.438l-0.158,0.04l-0.02,0.005c-0.03,0.01-0.05,0.015-0.079,0.034c-0.118,0.074-0.217,0.192-0.267,0.355
	l-0.167,0.597l2.17-0.548l-0.336,1.164l-2.16,0.547l-0.172,0.597c-0.069,0.252-0.02,0.326,0.178,0.291l0.157-0.044l1.731-0.438
	l-0.331,1.163l-2.046,0.518c-0.799,0.202-1.075-0.099-0.868-0.818L88.773,99.05z"/>
<path fill="#A4A9AD" d="M93.759,97.329c0.267-0.513,0.636-0.844,1.04-0.947c0.404-0.099,0.622,0.079,0.632,0.508l0.034,4.359
	l-1.119,0.286l-0.01-1.075l-1.5,0.375l-0.665,1.248l-1.114,0.286L93.759,97.329z M94.331,99.449l-0.011-1.617l-0.862,1.839
	L94.331,99.449z"/>
<path fill="#A4A9AD" d="M96.9,97.137c0.275-0.981,0.68-1.4,1.592-1.633l2.008-0.513l-0.331,1.169l-1.774,0.449l-0.139,0.034
	l-0.054,0.01c-0.114,0.029-0.188,0.108-0.247,0.257L97.9,97.092l-0.631,2.234l-0.044,0.168l-0.01,0.029c0,0.024-0.005,0.049,0,0.079
	c0.015,0.063,0.063,0.099,0.152,0.099l0.163-0.045l0.69-0.167c0.236-0.064,0.33-0.144,0.399-0.326l0.044-0.152l0.439-1.544
	l1.064-0.271l-0.487,1.717c-0.119,0.414-0.178,0.572-0.302,0.744c-0.33,0.518-0.66,0.77-1.178,0.902l-1.219,0.306
	c-0.508,0.129-0.725,0.089-0.872-0.108c-0.148-0.197-0.134-0.354,0.078-1.1L96.9,97.137z"/>
<path fill="#A4A9AD" d="M101.461,94.75l1.065-0.271l-1.085,3.832l-0.034,0.123l-0.01,0.044c-0.024,0.139,0.049,0.192,0.296,0.129
	l0.725-0.188c0.246-0.06,0.346-0.153,0.414-0.296l0.015-0.029l0.035-0.124l1.095-3.856l1.064-0.271l-1.139,4.023
	c-0.123,0.419-0.192,0.587-0.325,0.774c-0.315,0.469-0.661,0.72-1.164,0.849l-1.366,0.345c-0.503,0.128-0.754,0.024-0.833-0.325
	c-0.03-0.163-0.015-0.301,0.108-0.735L101.461,94.75z"/>
<path fill="#A4A9AD" d="M105.357,94.844c0.02-0.079,0.054-0.168,0.088-0.247c0.267-0.636,0.695-1.03,1.268-1.179l2.204-0.562
	l-0.33,1.163l-1.74,0.444l-0.158,0.039l-0.02,0.005c-0.024,0.006-0.05,0.01-0.069,0.03c-0.128,0.073-0.222,0.197-0.267,0.359
	l-0.172,0.597l2.165-0.552l-0.331,1.169l-2.165,0.542l-0.172,0.602c-0.069,0.252-0.021,0.32,0.177,0.281l0.158-0.034l1.73-0.439
	l-0.33,1.164l-2.046,0.518c-0.799,0.202-1.065-0.104-0.863-0.818L105.357,94.844z"/>
<path fill="#A4A9AD" d="M67.45,4.65L67.45,4.65l-0.301,0.015l-0.281,0.128c-2.82,1.223-5.404,2.175-5.854,2.209
	c-0.063,0-0.385-0.01-0.385-0.01l-0.513,0.256l-0.02,0.01c-1.607,1.026-5.43,3.462-6.604,4.345
	c-0.108,0.039-1.942,0.745-2.475,0.942c-0.519-0.981-1.307-2.086-2.412-2.51c-0.873-0.33-1.805-0.217-2.623,0.335
	c0.005,0-0.045,0.03-0.045,0.03s-0.231,0.163-0.374,0.251c-0.06,0.005-1.366,0.069-1.667,0.079
	c-0.671-0.538-1.352-0.764-2.031-0.646c-0.77,0.124-1.396,0.661-1.736,1.47c-0.952,2.169-1.46,3.792-1.568,4.956
	c-0.162,0.188-0.315,0.38-0.419,0.597c-0.202,0.419-0.311,0.888-0.311,1.396v0.025c0,0.508,0.104,1.045,0.306,1.593
	c0.005,0.005,0.024,0.059,0.024,0.059c0.01,0.024,0.779,1.691,0.991,2.146c-0.015,0.207-0.084,1.252-0.089,1.326
	c-0.951,1.534-2.056,3.713-2.071,5.592v0.04c0,0.251,0.04,0.518,0.099,0.804c-0.078,0.621-0.177,1.568-0.187,2.683v0.168
	c0,2.337,0.434,5.262,2.293,6.79c-1.736,0.493-5.819,1.933-6.52,4.596c-0.005,0-0.029,0.104-0.029,0.104l-0.016,0.099
	c-0.191,1.287-0.301,2.471-0.311,3.521v0.157c0,1.479,0.207,2.644,0.597,3.517c-0.063,0.197-0.128,0.404-0.147,0.606l-0.029,0.443
	v0.04c0,1.671,0.937,4.62,8.614,10.844c0.03,0.197,0.089,0.552,0.089,0.552l0.104,0.232c0.113,0.261,1.115,2.396,2.747,3.614
	c-0.36,0.429-0.912,0.888-1.771,1.198c-1.148,0.01-2.387,0.572-2.594,0.686c-1.391,0.784-2.17,2.155-2.185,3.881
	c0,0,0.01,0.133,0.01,0.153c-0.246,0.587-0.39,1.163-0.39,1.721v0.029c0,0.425,0.074,0.834,0.207,1.203
	c0.267,0.706,0.888,1.623,2.357,1.993l0.064,0.02l0.029,0.005l0.089,0.015c0.479,0.059,11.643,1.549,16.445-0.148
	c0.582-0.162,1.317-0.705,1.549-1.687l0.069-0.566v-0.03c0-1.237-0.888-2.277-1.568-2.963c0.034-0.055,0.147-0.252,0.147-0.252
	l-0.063-0.656c-0.079-0.769-0.844-7.367-3.314-11.135c0.197-0.197,0.711-0.695,0.711-0.695l-0.893-1.331
	c-0.158-0.227-1.505-2.18-2.781-3.708c-0.04-0.291-0.109-0.642-0.203-1.046c0.163,0.222,0.326,0.444,0.341,0.469
	c0.315,0.542,1.4,2.194,3.038,2.668c0.113,0.063,0.261,0.143,0.468,0.251c1.544,0.878,4.794,2.717,10.366-0.878l0.705-0.458
	c0,0,0.108-0.824,0.182-1.416c0.627,0.755,1.371,1.662,1.371,1.662l0.163,0.212l0.227,0.153c0.375,0.256,1.095,0.69,1.879,0.932
	c0.681,1.741,2.618,4.867,8.201,7.816c6.302,3.383,9.922,5.074,11.702,5.479c0.557,0.661,1.637,1.751,3.299,2.658
	c0.227,0.967,0.354,1.73,0.354,1.968v0.005l0.021,0.005c0,0.049-0.035,0.281-0.035,0.281v0.029c0,0.636,0.217,1.232,0.311,1.46
	c0.414,0.98,1.889,1.612,2.441,1.814c0,0.005,0.005,0.02,0.005,0.02l0.074,0.242c0.078,0.345,7.589,2.096,9.749,1.464
	c0.068,0.079,0.286,0.306,0.286,0.306l0.197,0.01c1.415,0.094,1.562-0.123,1.677-0.296c0.054-0.078,0.068-0.162,0.078-0.251
	c0,0.005,0,0.02,0,0.02s0.01-0.059,0.016-0.074c0,0,0,0,0-0.005l0.162-0.813l-0.029-0.128l-0.04-0.163
	c-0.083-0.414-0.093-0.453-2.229-4.049c0.015,0.025-0.642-1.262-0.854-1.671c0.021-0.178,0.045-0.39,0.045-0.39v-0.03
	c0-1.42-0.883-2.825-2.608-4.187c-1.948-1.701-5.785-5.06-6.471-5.72c-1.114-1.352-4.103-5.069-4.847-6.45
	c0,0.005-0.084-0.144-0.084-0.144l-0.03-0.054l-0.152-0.168c-0.024-0.029-2.658-2.84-6.707-3.556
	c-0.438-0.715-0.867-1.316-1.297-1.824c0.01-0.01,0.035-0.04,0.035-0.04l-0.129-0.291l-0.359-0.818
	c-3.428-7.796-5.928-12.807-7.446-14.951c1.148-0.079,3.634-0.257,3.634-0.257s0.36-1.528,0.425-1.824
	c0.266-0.192,1.854-1.327,1.854-1.327l0.094-0.094c1.154-1.119,1.845-2.52,1.854-3.742c0-0.548-0.152-1.025-0.385-1.475l0.015-0.005
	c-0.986-2.421-1.849-4.009-2.633-4.906c-0.024-1.854-0.36-4.138-1.677-5.188c-0.734-2.352-1.316-4.462-1.391-5.015
	c0-0.044,0.01-0.153,0.01-0.153v-0.015c0-0.636-0.286-1.173-0.414-1.405C74.985,9.162,71.562,4.463,67.45,4.65"/>
<path fill="#AC162C" d="M40.777,24.267c0,0-2.684,4.099-1.909,5.73c0,0-1.139,7.229,1.874,8.63l2.53,3.111
	c0,0-1.835-0.443-3.605-0.236c0,0-4.793,1.371-5.311,3.323c0,0-0.942,6.194,0.739,6.761c0,0-3.836,1.712,7.876,11.052l0.157,1.016
	c0,0,1.554,3.521,3.565,3.427c0,0-0.479,2.974-3.871,4.024c0,0-3.674-0.217-3.299,3.229c0,0-1.337,2.239,0.818,2.786
	c0,0,10.677,1.065,15.08,0c0,0,1.302-0.453-0.029-2.233c0,0-0.469-0.823-0.435-2.027c0,0-0.932-8.807-3.994-11.489l0.365-1.598
	c0,0-1.193-1.612-2.56-3.171c0,0-0.36-3.19-1.445-3.782l3.664-0.04l0.996,1.366c0,0,0.893,1.628,2.091,1.953
	c1.193,0.33,3.669,3.299,9.443-0.429l0.548-4.256c0,0-0.404-1.268-1.114-1.233c-0.71,0.03-1.332-0.71-2.273-0.542
	c0,0,0.039-1.09-0.183-0.69c0,0-0.809-3.62,7.525,6.898c0,0,1.578,1.08,2.273,0.794c0,0,0.271,3.965,7.638,7.855
	c0,0,11.239,6.026,11.806,5.36c0,0,1.253,1.992,3.901,3.156c0,0,0.69,2.53,0.611,3.433c0,0-0.055,1.666,1.355,1.603l0.331,0.527
	c0,0,0.207,0.414,1.814,0.947c7.688,1.884,7.071,0.937,7.249,0.044l-1.001-2.096l-1.544-2.815c0,0,1.021-1.198-1.79-3.378
	c0,0-5.868-5.119-6.607-5.854c0,0-4.093-4.941-5.114-6.82c0,0-2.599-2.826-6.509-3.161c0,0-1.78-3.126-2.732-3.338l0.454-0.533
	c0,0-6.356-14.453-7.807-15.287c0,0-3.166-2.293-3.545-2.914c0,0-2.111-5.676-4.285-6.854l-0.208-5.38c0,0,2.713-1.898,3.048-2.432
	c0,0,1.746,1.184,2.249,1.806l-0.849,2.599l-0.67,0.932c0,0-0.139,2.574,0.927,2.524c0,0,1.632,5.562,2.11,5.672l1.499-0.967
	c0,0,0.188,2.697-0.513,2.855l4.403-0.213l0.301-1.292l2.304-1.646c0,0,1.933-1.884,1.06-3.127c0,0-1.958-4.783-2.786-4.748
	c0,0,0.178-4.626-1.371-4.809c0,0-1.908-6.026-1.687-6.42c0.218-0.395-3.388-5.528-6.81-5.375c0,0-5.588,2.441-6.534,2.357
	c0,0-6.12,3.866-6.691,4.409l-4.192,1.598c0,0-1.346-4.167-3.19-2.93l-0.809,0.553l-2.83,0.128c0,0-1.12-1.356-1.554-0.311
	c0,0-1.953,4.448-1.336,5.06c0,0-1.292,0.32-0.632,2.081l1.159,2.51L40.777,24.267z"/>
<path fill="#A4A9AD" d="M89.094,6.879l0.804,4.759c0,0-36.334,14.281-53.411,41.526C37.34,50.551,50.176,23.271,89.094,6.879"/>
<path fill="#A4A9AD" d="M89.537,10.947l0.05,8.182c0,0-33.513,10.893-49.037,35.051C40.55,54.18,51.285,27.447,89.537,10.947"/>
<path fill="#A4A9AD" d="M52.41,73.979l0.325,1.203l-6.164-0.024C46.571,75.158,49.914,74.699,52.41,73.979"/>
<path fill="#A4A9AD" d="M36.62,75.429l-5.957-0.508c-1.795-0.202-2.742,0.868-3.003,2.377c-0.252,1.514,1,2.909,2.796,3.106
	l4.517,0.509c0.868,0.099,1.736-0.099,2.441-0.543c0.7-0.454,1.153-1.104,1.277-1.834C38.947,77.021,38.415,75.631,36.62,75.429"/>
<path fill="#2E2A25" d="M36.994,78.723c-0.143,0.829-0.966,1.421-1.839,1.322l-4.518-0.508c-0.872-0.099-1.469-0.854-1.336-1.682
	c0.143-0.824,0.247-1.416,1.124-1.559l5.952,0.503C37.256,77.141,37.138,77.895,36.994,78.723"/>
<path fill="#A4A9AD" d="M101.2,76.667l-2.762,0.665c0,0,3.63,1.613,3.313,0.188L101.2,76.667z"/>
<path fill="#A4A9AD" d="M72.14,28.744L40.896,77.786c0,0-1.608,1.741-3.433,1.677c0,0-6.741-0.755-9.172-2.012
	c0,0-1.1,3.994-0.247,4.413c0,0,5.479,1.929,11.524,1.44c0,0,1.277,0.399,3.235-3.181l32.048-49.989
	C74.852,30.135,73.792,28.064,72.14,28.744"/>
<path fill="#AC162C" d="M58.524,49.954c0,0,5.755-1.948,5.011,1.198c-0.745,3.146-1.712,4.571-1.712,4.571l-3.368,1.687
	l-0.922-3.452l-2.776,1.534C54.757,55.492,54.097,49.648,58.524,49.954"/>
<path fill="#A4A9AD" d="M80.656,106.215c-0.434,0-0.834,0.237-1.065,0.642c0,0-0.774,1.302-1.025,1.735
	c-0.138-0.084-0.355-0.231-0.355-0.231c-0.434-0.291-0.981-0.262-1.391,0.054c-0.34,0.267-0.537,0.701-0.537,1.159
	c0,0.089,0.005,0.178,0.02,0.271c0,0,0.113,0.655,0.183,1.011c-0.049,0-0.099,0.005-0.143,0.01c-0.385,0.069-0.711,0.32-0.903,0.69
	c0,0-0.073,0.144-0.104,0.197c-0.681-0.173-1.435-0.365-1.435-0.365c-0.479-0.118-0.977,0.079-1.282,0.509
	c-0.178,0.256-0.276,0.562-0.276,0.872c0,0.218,0.045,0.43,0.139,0.632c0,0,0.231,0.513,0.453,1.021
	c-0.172,0.089-0.434,0.227-0.434,0.227c-0.404,0.217-0.681,0.651-0.725,1.149c0,0.044-0.006,0.089-0.006,0.128
	c0,0.454,0.197,0.883,0.538,1.149c0,0,1.745,1.386,2.88,2.283c-0.055,0.073-0.173,0.256-0.173,0.256
	c-0.167,0.247-0.256,0.548-0.256,0.839c0,0.236,0.059,0.482,0.167,0.7c0.247,0.483,0.73,0.759,1.229,0.71
	c0,0,1.504-0.153,2.722-0.271v0.399c0,0.779,0.572,1.41,1.277,1.41h0.956c0.701,0,1.272-0.631,1.272-1.41v-0.404
	c1.238,0.123,2.771,0.276,2.771,0.276c0.498,0.049,0.981-0.227,1.229-0.71c0.108-0.218,0.167-0.459,0.167-0.695
	c0-0.296-0.089-0.587-0.251-0.844c0,0,0.868,0.133,0.813,0.055c1.129-0.897,1.889-2.594,1.889-2.594
	c0.34-0.267,0.537-0.695,0.537-1.149c0-0.039-0.005-0.084-0.005-0.123c-0.039-0.498-0.315-0.938-0.725-1.149
	c0,0-0.262-0.143-0.434-0.231c0.227-0.503,0.458-1.021,0.458-1.021c0.089-0.197,0.134-0.414,0.134-0.627
	c0-0.315-0.094-0.621-0.271-0.873c-0.311-0.429-0.809-0.626-1.287-0.508c0,0-0.755,0.188-1.435,0.36
	c-0.03-0.054-0.104-0.192-0.104-0.192c-0.192-0.37-0.518-0.626-0.897-0.69c-0.049-0.01-0.094-0.01-0.147-0.015
	c0.069-0.35,0.183-1.006,0.183-1.006c0.015-0.094,0.02-0.183,0.02-0.271c0-0.459-0.197-0.893-0.537-1.158
	c-0.41-0.321-0.957-0.346-1.391-0.06c0,0-0.218,0.147-0.351,0.236c-0.493-0.833-1.021-1.74-1.021-1.74
	C81.484,106.457,81.085,106.215,80.656,106.215z"/>
<polygon fill="#AC162C" points="84.33,119.041 88.26,115.925 86.652,115.076 87.688,112.769 85.336,113.365 84.764,112.266 
	82.964,114.041 83.753,109.573 82.348,110.506 80.656,107.631 80.153,108.474 80.153,108.479 78.96,110.506 77.555,109.573 
	78.349,114.041 76.543,112.261 75.972,113.365 73.619,112.769 74.654,115.076 73.052,115.92 76.978,119.036 76.041,120.457 
	80.153,120.042 80.153,121.99 81.109,121.99 81.109,120.037 85.271,120.457 "/>
</svg>
