<svg enable-background="new 0 0 399.7 205.9" height="227.073777" viewBox="0 0 399.7 205.9" width="440.385506" xmlns="http://www.w3.org/2000/svg"><path d="m399.3 68.8c1.7-17.7-2.8-33.5-12.8-44.5-6.5-7.1-18.3-15.7-37.8-15.7-4.1 0-8.4.4-12.7 1.2-14.5 2.5-28.4 8.8-40.5 18-.8-6.4-3.4-12.2-7.7-17.1-6.2-6.8-15-10.7-24.4-10.7-2.1 0-4.2.2-6.2.5-16.1 2.8-29.4 15.7-33 31.3l-14.3 2.4-37.2 6.3-45.2 7.6 7-20.3-38 6.4-37.5 6.5-59 10 47.2 29.7-26.4 75.4-12.8 36.5 38.1-6.4 25-4.2-6.9 20.6 37.6-6.3 22.4-3.8.9-.2 27.6-4.7-3.7 11.4 23.7 6c2.7.7 5.7 1 9.5 1 5.8 0 14.3-.7 20.7-1.8 15.8-2.7 28.5-8.4 38.6-17.4l-6 14.4-.5 1.1h1.3l28.8.1h.6l.2-.5 2.6-7 2.7 7 .2.5h.6l30.9.1h.6l.2-.5 2.6-7 2.7 7 .2.5h.6l30.9.1h.6l.2-.5 2.6-7 2.7 7 .2.5h.6l28.8.1h1.2l-.5-1.1-12.2-30 7.8-13.9 9.4-18.1 17.3-33.4h-11c5.8-11.7 9.7-24.6 10.9-37.1z" fill="#244385"/><path d="m380.1 30.1c-5.3-5.9-15.1-12.8-31.4-12.8-3.6 0-7.4.3-11.3 1-17.7 3.1-34.6 12.4-47.7 26.2-2.9 3-5.6 6.3-8.1 9.7l-5.1.9c5.5-5.1 9.4-12 10.3-19.4.9-7.2-1.1-14-5.6-19.1-4.5-5-10.8-7.8-17.9-7.8-1.6 0-3.2.1-4.8.4-13.5 2.3-24.9 14.2-26.7 27.6-.1.9-.2 1.8-.2 2.7l-116.7 19.7-.4.1 7.1-20.5-98 16.6 34 21.4-36.7 104.7 62.9-10.6-6.9 20.6 54.4-9.1 14.4-43.1 5.9-1-13.9 43.1 27.6-4.7-5.3 16.2 14.8 3.7c2 .5 4.3.7 7.4.7 5.3 0 13.4-.7 19.2-1.7 29-4.9 46.2-20.9 55.7-52.1l6.7-21.7c2 8.1 5.6 13.9 9.1 17.8 7.5 8.4 18.7 13.1 31.3 13.1 1.4 0 2.8-.1 4.3-.2.5.1 1.4.3 2.7.7 11 3.3 26.5 6.4 39.6 7.9l9.8 1.1 24.8-47.8h-11.8c9.3-13.4 15.6-30.3 17.1-46.4 1.5-15.3-2.3-28.7-10.6-37.9zm-152.9 31.1 5.1-15.8c.8 3.9 2.6 7.5 5.2 10.5 1.7 1.9 3.7 3.5 5.9 4.8l-16.9 2.9zm-7.5 28.8 2.8 1.7-13.8 44.4c-3.5 11-6.6 12.1-9.4 12.6l19-59.5zm-52.5-15.7 1.6 1 2.6 1.6-3.6 11.1-5.5.9zm-60.9 8.9 3.5 2.2 2.4 1.5-11.6 34.1-7.8 1.3zm52.2 80.1 13.9-43.1-37.5 6.4-14.4 43.1-22.5 3.8 31.2-92.7-12-7.5 37.3-6.3-13.4 40.1 37.5-6.4 9.7-30-12.1-7.5 37.2-6.3-32.8 102.7zm85-23.9c-8 26-20.7 38.2-44.4 42.1-4.8.8-12.1 1.5-16.9 1.5-1.7 0-3.1-.1-4-.3l2.8-8.7 3.2-9.9 10-.2.1-.2c2.4-.2 4.8-.5 6.7-.9 9.7-1.6 16.3-7.2 21.1-22.5l17.2-55-12.3-7.5 37.2-6.3zm29.2-105.6c-.9 7.2-7.6 14.1-14.9 15.4-.8.1-1.6.2-2.3.2-6.1 0-10.2-4.5-9.4-10.9.9-7.2 7.6-14.1 15-15.4.8-.1 1.6-.2 2.3-.2 6 0 10.1 4.5 9.3 10.9zm103.8 32.8c-1.6 16.7-9.5 35.7-21.7 48.4-4.4 4.7-9.9 8.9-15.9 12.3v.3c6 .5 14.3 1.1 22.8 1.1h.3l-9.4 18.1c-13.7-1.6-28.3-4.7-37.3-7.4-3.7-1-5.4-1.3-6.3-1.3-.2 0-.4 0-.6 0-1.4.1-2.7.2-4 .2-17.8 0-29.9-12.3-27.2-35.5 2-17 10.2-35.3 23-48.6 11.1-11.7 25.5-19.5 39.8-21.9 3.2-.5 6.1-.8 8.8-.8 20.9 0 29.6 15.6 27.7 35.1z" fill="#cf3a2b"/><path d="m339.8 50c-1.3 0-2.8.1-4.3.4-6.9 1.2-13.3 5-18.4 10.4-9.1 9.5-15.4 26.4-16.7 38-1.4 12.4 2.8 20.8 14 20.8 1.5 0 3-.1 4.7-.4 6.7-1.1 12.8-4.8 17.8-10 8.9-9.3 15.2-26.5 16.4-38.5 1.1-10-1.4-20.7-13.5-20.7zm-.6 19.3c-.9 9.1-6.2 23.3-12.5 30-2.2 2.3-5.7 5.1-9.9 5.8-.8.1-1.5.2-2.2.2-.2-1-.2-2.6 0-5 1-8.8 6.2-22.7 12.8-29.7 2.3-2.4 6.1-5.4 10.6-6.2.4-.1.8-.1 1.2-.2.1 1.2.2 2.8 0 5.1z" fill="#cf3a2b"/><path d="m376.9 33c-4.7-5.2-13.5-11.4-28.3-11.4-3.3 0-6.9.3-10.5 1-16.8 2.9-32.9 11.8-45.3 24.9-8.5 8.9-15.5 19.5-20.1 31.3l1.3-4.2 4.8-15.5-58.5 9.9 7.9-24.6-120 20.5 7.1-20.5-80 13.3 27.4 17.3-35.3 101 62.8-10.6-6.9 20.6 44.8-7.5 14.4-43.1 15.4-2.6-13.9 43.1 27.6-4.7-6 18.5 10.4 2.6c1.6.4 3.6.6 6.4.6 5.1 0 12.9-.7 18.5-1.6 27.6-4.6 43.2-19.3 52.3-49.1l15.9-51.4c-.8 3.5-1.4 7.2-1.8 10.9-1.8 18.3 3.8 29.1 9 35 6.7 7.5 16.7 11.7 28.1 11.7 1.5 0 3-.1 4.6-.2.5.1 1.5.3 3.6.9 8.2 2.5 23.3 6 38.9 7.8l6.8.8 20.2-38.9h-13.4c11.6-13.6 19.8-32.8 21.5-51.1 1.2-14.1-2.2-26.5-9.7-34.7zm-273 91.8-17.5 3 17.6-51 8.1 5 5.3 3.3zm67.2-33-15.1 2.6 8.1-24.3.8-2.3 6.2 3.9 5.5 3.4zm41.6 45.6c-4.1 13-8.4 14.8-13.2 15.6-1.9.3-4.2.6-6.4.8l22.8-71.2 6.1 3.7 5.6 3.5zm127.1-77.4c.7 0 2 .1 2.4.6.7.7 1.8 3.6 1.2 9.2-1 9.7-6.5 24.9-13.7 32.6-3.8 3.9-8 6.3-12.3 7.1-1.1.2-2.1.3-3 .3-.7 0-2.4-.1-3-.7-.7-.8-1.6-3.5-1-9 1.1-9.7 6.6-24.5 14-32.2 3.9-4.1 8.4-6.7 12.9-7.5.9-.3 1.8-.4 2.5-.4z" fill="#fff"/><path d="m255.5 59.4c1.3 0 2.7-.1 4-.4 11.8-2 21.7-12.4 23.1-24 .7-6-.9-11.6-4.6-15.8-3.6-4.1-8.9-6.4-14.7-6.4-1.3 0-2.7.1-4 .4-11.7 2-21.7 12.3-23.2 23.9-.8 6 .8 11.6 4.5 15.8s9 6.5 14.9 6.5z" fill="#fff"/><g fill="#244385"><path d="m359 119c12.5-13.1 21.4-32.9 23.2-51.8 1.3-12.8-1.8-24-8.5-31.4-6-6.6-14.6-10-25.1-10-3.1 0-6.4.3-9.8.9-15.9 2.8-31.2 11.2-42.9 23.6-13.2 13.7-22.3 33.1-24.5 51.9-1.5 13.2 1.2 24.1 8 31.7 6 6.7 14.6 10.2 24.9 10.2 1.5 0 3-.1 4.6-.2h.1c.3 0 1.4.2 4.7 1.1 8 2.4 22.8 5.8 38.2 7.6l3.9.4 1.8-3.5 9.4-18.1 4.3-8.4h-9.4-.3c-2.2 0-4.4 0-6.7-.1 1.4-1.3 2.8-2.6 4.1-3.9zm-20.1 8.3v.3c6 .5 14.3 1.1 22.8 1.1h.3l-9.4 18.1c-13.7-1.6-28.3-4.7-37.3-7.4-3.7-1-5.3-1.3-6.3-1.3-.2 0-.4 0-.6 0-1.4.1-2.7.2-4 .2-17.8 0-29.9-12.3-27.2-35.5 2-17 10.2-35.3 23-48.6 11.1-11.7 25.5-19.5 39.8-21.9 3.1-.5 6.1-.8 8.8-.8 21 0 29.8 15.6 27.9 35.1-1.6 16.7-9.5 35.7-21.7 48.4-4.6 4.7-10.1 9-16.1 12.3z"/><path d="m339.8 50c-1.3 0-2.8.1-4.3.4-6.9 1.2-13.3 5-18.4 10.4-9.1 9.5-15.4 26.4-16.7 38-1.4 12.4 2.8 20.8 14 20.8 1.5 0 3-.1 4.7-.4 6.7-1.1 12.8-4.8 17.8-10 8.9-9.3 15.2-26.5 16.4-38.5 1.1-10-1.4-20.7-13.5-20.7zm7.9 20.2c-1.1 10.7-6.9 26.7-14.9 35.1-4.4 4.5-9.4 7.4-14.6 8.3-1.4.2-2.6.4-3.8.4-2.9 0-4.9-.7-6.2-2.2-2-2.2-2.7-6.6-2.1-12.3 1.1-10.3 6.8-26 15.2-34.7 4.6-4.8 9.9-7.8 15.3-8.7 1.2-.2 2.3-.3 3.3-.3 3.8 0 5.1 1.5 5.6 2 2 2.2 2.8 6.7 2.2 12.4z"/><path d="m263.5 65.9-37.3 6.3-12.2 2.1 5-15.7 2.9-8.9-9.3 1.6-37.2 6.3-14.9 2.4.1.1-7 1.2-37.3 6.3-14.7 2.5 3.9-11.4 3.1-9.1-9.5 1.6-37.4 6.3-14.7 2.5 12.6 8 8.1 5.1-30.7 88.4-3.2 9.1 9.5-1.6 53.2-8.9-3.9 11.6-3 9 9.4-1.6 22.4-3.8 3.4-.6 1.1-3.3 13.3-39.9 24.9-4.2-11 34.1-2.9 9 9.3-1.6 18.4-3.1-4.9 15.1-1.9 5.8s4.8 1.3 5.9 1.5c1.2.2 3 .5 5.4.5 4.8 0 12.5-.7 17.8-1.6 25.7-4.3 40.3-18.1 48.9-46.1l20.9-67.8 2.7-8.9zm-81.2 117.1c-2 0-4-.5-4-.5l6-18.4h2.9c4 0 10-.6 14-1.2 9.7-1.6 16.3-7.2 21.1-22.5l17.2-55-12.3-7.5 37.3-6.3-20.9 67.9c-8 26-20.7 38.2-44.4 42.1-4.9.7-12.2 1.4-16.9 1.4zm-9.9-62.8-37.5 6.4-14.4 43.1-22.5 3.8 31.2-92.7-12-7.5 37.3-6.3-13.4 40.1 37.5-6.4 9.7-30-12.1-7.5 37.2-6.3-32.8 102.7-22.3 3.8zm-97.6-49.4-12-7.6 37.4-6.3-28.8 83.5 33.6-5.7-6.5 19.2-56.2 9.4zm149.4 11.9 8.5 5.2-15.8 50.8c-4.3 13.8-9.6 17.4-16.6 18.5-3.9.7-9.5 1.2-13 1.2h-.1l26.3-82.3zm-61.7-21.4 10.8 6.7 8.3 5.2-7.3 22.5-24.7 4.2 10.4-31.2zm-48.2 16.8 8.1 5.1-15.3 45.4-1 .2-26.1 4.4 21.7-62.9z"/><path d="m255.5 55.1c1.1 0 2.2-.1 3.3-.3 9.8-1.7 18.4-10.6 19.6-20.3.6-4.8-.7-9.2-3.5-12.4s-6.9-4.9-11.5-4.9c-1.1 0-2.2.1-3.3.3-9.8 1.7-18.4 10.6-19.6 20.3-.6 4.8.6 9.2 3.5 12.4 2.7 3.2 6.8 4.9 11.5 4.9zm-9.4-16.6c.9-7.2 7.6-14.1 15-15.4.8-.1 1.6-.2 2.3-.2 6.1 0 10.1 4.5 9.3 10.9-.9 7.2-7.6 14.1-14.9 15.4-.8.1-1.6.2-2.3.2-6.2 0-10.2-4.5-9.4-10.9z"/></g><path d="m350.7 151.3-12.6-.1-12.7 30.5-12.5-30.5h-12.6l-12.7 30.4-12.4-30.5h-12.7l-19.2 46h18.3l3.1-8.3h7.7l3.2 8.3 23.7.1 3.2-8.4 7.6.1 3.3 8.3 23.7.1 3.2-8.4h7.6l3.2 8.4 18.4.1z" fill="#cf3a2b"/><path d="m266.1 155.7h5.4l14.9 36.6h-7.1l-3.2-8.4h-15.1l-3.2 8.4h-6.9zm7.8 22.6-5.3-14.9-5.5 14.9zm-9.1-24.6-.5 1.2-15.3 36.5-1.1 2.6h2.9 6.9 1.4l.5-1.2 2.7-7.1h12.4l2.7 7.1.5 1.2h1.3 7.1 2.9l-1.1-2.6-14.8-36.4-.5-1.2h-1.3-5.4zm1.1 22.7 2.7-7.3 2.6 7.3z" fill="#fff"/><path d="m303.9 155.7h5.4l14.9 36.6h-7.1l-3.2-8.4h-15.1l-3.2 8.4h-6.9zm7.8 22.7-5.3-14.9-5.5 14.9zm-9.1-24.6-.5 1.2-15.3 36.5-1.1 2.6h2.9 6.9 1.4l.5-1.2 2.7-7.1h12.4l2.7 7.1.5 1.2h1.3 7.1 2.9l-1.1-2.6-14.8-36.5-.5-1.2h-1.3-5.4zm1.1 22.7 2.7-7.3 2.6 7.3z" fill="#fff"/><path d="m341.7 155.8h5.4l14.9 36.6h-7.1l-3.2-8.4h-15.1l-3.2 8.4h-6.9zm7.8 22.7-5.3-14.9-5.5 14.9zm-9.1-24.6-.5 1.2-15.3 36.5-1.1 2.6h2.9 6.9 1.4l.5-1.2 2.7-7.1h12.4l2.7 7.1.5 1.2h1.3 7.1 2.9l-1.1-2.6-14.9-36.6-.5-1.2h-1.3-5.4zm1 22.6 2.7-7.3 2.6 7.3z" fill="#fff"/><path d="m266.1 155.7-15.3 36.5h6.9l3.2-8.4h15.1l3.2 8.4h7.1l-14.9-36.6zm-3 22.6 5.5-14.9 5.3 14.9z" fill="#244385"/><path d="m303.9 155.7-15.3 36.5h6.9l3.2-8.4h15.1l3.2 8.4h7.1l-14.9-36.6zm-3 22.7 5.5-14.9 5.3 14.9z" fill="#244385"/><path d="m347.1 155.8h-5.4l-15.3 36.5h6.9l3.2-8.4h15.1l3.2 8.4h7.1zm-8.4 22.6 5.5-14.9 5.3 14.9z" fill="#244385"/></svg>