<?xml version="1.0" encoding="utf-8"?>
<!-- Generator: Adobe Illustrator 16.0.0, SVG Export Plug-In . SVG Version: 6.00 Build 0)  -->
<!DOCTYPE svg PUBLIC "-//W3C//DTD SVG 1.1//EN" "http://www.w3.org/Graphics/SVG/1.1/DTD/svg11.dtd">
<svg version="1.1" id="Layer_1" xmlns="http://www.w3.org/2000/svg" xmlns:xlink="http://www.w3.org/1999/xlink" x="0px" y="0px"
	 width="66.146px" height="33.792px" viewBox="0 0 66.146 33.792" enable-background="new 0 0 66.146 33.792" xml:space="preserve">
<g>
	<defs>
		<path id="SVGID_1_" d="M4.901,2.944C4.474,3.018,3.572,3.199,2.744,3.308c0,0-0.864,2.95-1.043,3.238c0,0,2.555,0.794,4.935-0.646
			c0,0-0.578,1.724-3.567,2.123c0,0-0.867,3.061,2.017,5.723c2.88,2.662,4.066,2.769,3.992,5.002
			c-0.069,2.236-3.131,2.775-4.531,2.452c-1.409-0.325-3.458-2.018-3.458-2.018L0.296,24.15c0,0,1.947,1.908,5.976,1.802
			c4.036-0.107,7.167-4.213,7.307-6.881c0.148-2.664-0.14-5.038-3.236-7.453C7.248,9.21,7.207,8.165,8.254,6.114
			c1.043-2.053,6.118-1.407,7.381,1.15l0.827-4.933c0,0-1.045-1.905-5.113-2.049c-0.105-0.006-0.208-0.008-0.308-0.008
			C7.181,0.274,5.328,2.878,4.901,2.944"/>
	</defs>
	<clipPath id="SVGID_2_">
		<use xlink:href="#SVGID_1_"  overflow="visible"/>
	</clipPath>
	<polygon clip-path="url(#SVGID_2_)" fill="#FF181F" points="9.551,-0.331 5.297,15.188 -0.029,12.053 0.333,0.317 7.822,-1.09 	"/>
	<path clip-path="url(#SVGID_2_)" fill="#FF181F" d="M9.945,10.434l0.143,3.67l-1.691,1.012c0,0,3.923,4.965,3.817,5.326
		c-0.108,0.36-1.365,2.666-1.365,2.666l2.012,0.251l2.341-5.075l0.074-5.978L9.945,10.434z"/>
	<polygon clip-path="url(#SVGID_2_)" fill="#FF181F" points="4.219,20.228 2.562,26.637 -0.965,25.372 -0.856,18.067 2.094,17.957 	
		"/>
</g>
<g>
	<defs>
		<path id="SVGID_3_" d="M20.963,1.216c0,0-2.306,0.072-3.493,1.477l0.972,3.271c0,0,0.685-1.041,2.016-1.399l-3.849,17.318h-1.909
			l-1.152,4.43h8.604l1.115-4.357h-2.016l3.817-17.248h2.554l0.898-3.491H20.963z"/>
	</defs>
	<clipPath id="SVGID_4_">
		<use xlink:href="#SVGID_3_"  overflow="visible"/>
	</clipPath>
	<path clip-path="url(#SVGID_4_)" fill="#FF181F" d="M21.035,1.467l-3.022,5.116L14.337,20.84l-0.681,1.979l1.4,0.037
		c0,0-0.396,2.845-1.151,4.392l1.439-0.039c0,0,0.184-3.884,1.117-4.319c0.937-0.435,3.456,1.151,4.285,1.079
		c0.829-0.071,0.396-1.112,0.253-1.798c-0.146-0.683,1.584-2.196,1.584-2.196l2.123-9.36l-0.539-0.362c0,0-2.055,2.413-2.845,2.448
		c-0.792,0.037,3.276-7.85,3.276-7.85s-2.413,1.623-2.845,1.477C21.323,6.184,21.035,1.467,21.035,1.467"/>
</g>
<g>
	<defs>
		<path id="SVGID_5_" d="M32.039,1.181c0,0-0.288,2.738-3.567,2.557l-0.718,3.274c0,0,1.621,0.218,2.699,0.035
			c0,0-4.713,19.122-4.861,19.585c-0.142,0.47-1.226,3.53-3.711,0.829l-1.508,5.077c0,0,1.259,1.084,3.454,0.973
			c2.197-0.107,4.968-1.907,6.193-6.156c1.223-4.248,6.48-26.246,6.48-26.246L32.039,1.181z"/>
	</defs>
	<clipPath id="SVGID_6_">
		<use xlink:href="#SVGID_5_"  overflow="visible"/>
	</clipPath>
	<polygon clip-path="url(#SVGID_6_)" fill="#FF181F" points="33.876,-0.043 25.268,34.376 28.869,33.477 34.812,16.373 
		38.015,-0.872 	"/>
</g>
<g>
	<defs>
		<path id="SVGID_7_" d="M40.244,1.109c0,0-0.606,2.882-3.743,2.444l-0.65,3.495h2.923l-4.215,19.081h4.499l2.48-10.834h4.179
			l-2.372,10.728h4.604l5.368-24.841h-4.319l-2.125,9.144h-4.25l2.053-9.215H40.244z"/>
	</defs>
	<clipPath id="SVGID_8_">
		<use xlink:href="#SVGID_7_"  overflow="visible"/>
	</clipPath>
	<rect x="33.98" y="21.308" clip-path="url(#SVGID_8_)" fill="#FF181F" width="15.771" height="2.663"/>
	<polygon clip-path="url(#SVGID_8_)" fill="#2A5DAD" points="36.394,2.405 35.421,8.418 38.158,8.095 35.458,18.861 50.509,18.861 
		54.179,0.893 38.305,0.893 	"/>
	<polygon clip-path="url(#SVGID_8_)" fill="#FFFFFF" points="40.422,10.613 39.999,10.333 39.395,10.595 39.688,10.021 39.41,9.609 
		40.013,9.533 40.445,9.013 40.524,9.544 41.071,9.634 40.519,10.037 	"/>
	<polygon clip-path="url(#SVGID_8_)" fill="#FFFFFF" points="38.401,12.436 37.981,12.158 37.376,12.418 37.668,11.847 
		37.39,11.432 37.993,11.356 38.429,10.838 38.505,11.368 39.052,11.459 38.501,11.862 	"/>
	<polygon clip-path="url(#SVGID_8_)" fill="#FFFFFF" points="41.751,12.436 41.33,12.158 40.724,12.418 41.015,11.847 
		40.736,11.432 41.34,11.356 41.774,10.838 41.854,11.368 42.4,11.459 41.848,11.862 	"/>
	<polygon clip-path="url(#SVGID_8_)" fill="#FFFFFF" points="45.047,12.436 44.625,12.158 44.02,12.418 44.312,11.847 
		44.033,11.432 44.637,11.356 45.07,10.838 45.15,11.368 45.697,11.459 45.143,11.862 	"/>
	<polygon clip-path="url(#SVGID_8_)" fill="#FFFFFF" points="48.34,12.436 47.917,12.158 47.31,12.418 47.604,11.847 47.325,11.432 
		47.929,11.356 48.362,10.838 48.442,11.368 48.989,11.459 48.437,11.862 	"/>
	<polygon clip-path="url(#SVGID_8_)" fill="#FFFFFF" points="39.354,8.548 38.931,8.268 38.324,8.531 38.618,7.957 38.34,7.544 
		38.944,7.468 39.377,6.951 39.456,7.48 40.003,7.571 39.45,7.974 	"/>
	<polygon clip-path="url(#SVGID_8_)" fill="#FFFFFF" points="42.7,8.548 42.28,8.268 41.673,8.531 41.965,7.957 41.688,7.544 
		42.292,7.468 42.724,6.951 42.806,7.48 43.352,7.571 42.798,7.974 	"/>
	<polygon clip-path="url(#SVGID_8_)" fill="#FFFFFF" points="49.289,8.548 48.868,8.268 48.262,8.531 48.556,7.957 48.279,7.544 
		48.878,7.468 49.314,6.951 49.392,7.48 49.94,7.571 49.387,7.974 	"/>
	<polygon clip-path="url(#SVGID_8_)" fill="#FFFFFF" points="38.093,6.641 37.67,6.359 37.064,6.622 37.356,6.048 37.078,5.633 
		37.682,5.562 38.115,5.042 38.195,5.573 38.742,5.665 38.189,6.065 	"/>
	<polygon clip-path="url(#SVGID_8_)" fill="#FFFFFF" points="41.441,6.641 41.019,6.359 40.414,6.622 40.706,6.048 40.428,5.633 
		41.03,5.562 41.467,5.042 41.544,5.573 42.093,5.665 41.536,6.065 	"/>
	<polygon clip-path="url(#SVGID_8_)" fill="#FFFFFF" points="48.028,6.641 47.605,6.359 47.005,6.622 47.293,6.048 47.018,5.633 
		47.619,5.562 48.058,5.042 48.133,5.573 48.68,5.665 48.125,6.065 	"/>
	<polygon clip-path="url(#SVGID_8_)" fill="#FFFFFF" points="36.978,4.66 36.555,4.378 35.95,4.643 36.242,4.067 35.964,3.654 
		36.566,3.583 37.001,3.061 37.08,3.592 37.627,3.684 37.074,4.084 	"/>
	<polygon clip-path="url(#SVGID_8_)" fill="#FFFFFF" points="40.326,4.66 39.902,4.378 39.297,4.643 39.591,4.067 39.312,3.654 
		39.918,3.583 40.35,3.061 40.43,3.592 40.975,3.684 40.422,4.084 	"/>
	<polygon clip-path="url(#SVGID_8_)" fill="#FFFFFF" points="43.623,4.66 43.202,4.378 42.593,4.643 42.887,4.067 42.606,3.654 
		43.212,3.583 43.646,3.061 43.726,3.592 44.272,3.684 43.72,4.084 	"/>
	<polygon clip-path="url(#SVGID_8_)" fill="#FFFFFF" points="42.233,2.789 41.811,2.506 41.206,2.771 41.498,2.197 41.22,1.782 
		41.822,1.707 42.257,1.189 42.336,1.716 42.883,1.812 42.33,2.21 	"/>
	<polygon clip-path="url(#SVGID_8_)" fill="#FFFFFF" points="48.876,2.789 48.454,2.506 47.849,2.771 48.143,2.197 47.866,1.782 
		48.468,1.707 48.903,1.189 48.979,1.716 49.53,1.812 48.974,2.21 	"/>
	<polygon clip-path="url(#SVGID_8_)" fill="#FFFFFF" points="52.169,2.789 51.746,2.506 51.144,2.771 51.434,2.197 51.157,1.782 
		51.762,1.707 52.196,1.189 52.271,1.716 52.82,1.812 52.264,2.21 	"/>
	<polygon clip-path="url(#SVGID_8_)" fill="#FFFFFF" points="39.569,14.489 39.147,14.207 38.54,14.472 38.834,13.897 
		38.556,13.485 39.158,13.407 39.593,12.89 39.675,13.421 40.219,13.51 39.667,13.913 	"/>
	<polygon clip-path="url(#SVGID_8_)" fill="#FFFFFF" points="42.916,14.489 42.494,14.207 41.889,14.472 42.181,13.897 
		41.906,13.485 42.508,13.407 42.941,12.89 43.02,13.421 43.568,13.51 43.012,13.913 	"/>
	<polygon clip-path="url(#SVGID_8_)" fill="#FFFFFF" points="46.215,14.489 45.79,14.207 45.186,14.472 45.479,13.897 
		45.198,13.485 45.802,13.407 46.24,12.89 46.317,13.421 46.864,13.51 46.31,13.913 	"/>
	<polygon clip-path="url(#SVGID_8_)" fill="#FFFFFF" points="49.505,14.489 49.085,14.207 48.478,14.472 48.77,13.897 
		48.493,13.485 49.095,13.407 49.53,12.89 49.608,13.421 50.157,13.51 49.603,13.913 	"/>
	<polygon clip-path="url(#SVGID_8_)" fill="#FFFFFF" points="37.552,16.291 37.129,16.009 36.524,16.271 36.815,15.699 
		36.541,15.285 37.141,15.209 37.579,14.691 37.656,15.219 38.203,15.312 37.648,15.713 	"/>
	<polygon clip-path="url(#SVGID_8_)" fill="#FFFFFF" points="40.902,16.291 40.482,16.009 39.873,16.271 40.167,15.699 
		39.891,15.285 40.493,15.209 40.926,14.691 41.006,15.219 41.552,15.312 41,15.713 	"/>
	<polygon clip-path="url(#SVGID_8_)" fill="#FFFFFF" points="44.198,16.291 43.774,16.009 43.171,16.271 43.463,15.699 
		43.185,15.285 43.788,15.209 44.222,14.691 44.302,15.219 44.849,15.312 44.296,15.713 	"/>
	<polygon clip-path="url(#SVGID_8_)" fill="#FFFFFF" points="47.491,16.291 47.07,16.009 46.462,16.271 46.756,15.699 
		46.478,15.285 47.082,15.209 47.517,14.691 47.596,15.219 48.139,15.312 47.588,15.713 	"/>
	<polygon clip-path="url(#SVGID_8_)" fill="#FFFFFF" points="38.705,18.342 38.283,18.062 37.678,18.324 37.972,17.752 
		37.691,17.338 38.295,17.262 38.73,16.744 38.809,17.273 39.355,17.367 38.805,17.766 	"/>
	<polygon clip-path="url(#SVGID_8_)" fill="#FFFFFF" points="45.351,18.342 44.93,18.062 44.321,18.324 44.617,17.752 
		44.335,17.338 44.941,17.262 45.374,16.744 45.453,17.273 46,17.367 45.447,17.766 	"/>
	<polygon clip-path="url(#SVGID_8_)" fill="#FFFFFF" points="48.643,18.342 48.223,18.062 47.613,18.324 47.907,17.752 
		47.627,17.338 48.232,17.262 48.666,16.744 48.746,17.273 49.291,17.367 48.738,17.766 	"/>
	<polygon clip-path="url(#SVGID_8_)" fill="#FFFFFF" points="50.342,10.572 49.919,10.293 49.312,10.554 49.606,9.982 49.328,9.568 
		49.931,9.492 50.365,8.975 50.444,9.504 50.991,9.595 50.438,9.998 	"/>
	<polygon clip-path="url(#SVGID_8_)" fill="#FFFFFF" points="47.102,10.646 46.678,10.364 46.072,10.626 46.366,10.052 
		46.086,9.638 46.689,9.566 47.125,9.046 47.205,9.578 47.75,9.669 47.199,10.07 	"/>
	<polygon clip-path="url(#SVGID_8_)" fill="#FFFFFF" points="51.204,6.684 50.781,6.406 50.176,6.667 50.468,6.095 50.191,5.68 
		50.793,5.604 51.229,5.086 51.309,5.614 51.855,5.707 51.301,6.108 	"/>
	<polygon clip-path="url(#SVGID_8_)" fill="#FFFFFF" points="50.126,4.703 49.703,4.425 49.099,4.686 49.39,4.114 49.111,3.699 
		49.715,3.623 50.149,3.105 50.229,3.637 50.775,3.729 50.223,4.127 	"/>
</g>
<g>
	<defs>
		<path id="SVGID_9_" d="M53.482,3.808l-0.684,3.205c0,0,1.764,0.327,2.915-0.037l-4.247,19.225h13.212l1.119-4.39h-8.751
			l4.536-20.561l-4.462-0.109C57.121,1.142,56.578,3.808,53.482,3.808"/>
	</defs>
	<clipPath id="SVGID_10_">
		<use xlink:href="#SVGID_9_"  overflow="visible"/>
	</clipPath>
	<rect x="53.302" y="0.282" clip-path="url(#SVGID_10_)" fill="#FF181F" width="8.678" height="3.67"/>
	<rect x="52.653" y="6.188" clip-path="url(#SVGID_10_)" fill="#FF181F" width="8.35" height="2.734"/>
	<rect x="52.783" y="11.356" clip-path="url(#SVGID_10_)" fill="#FF181F" width="8.353" height="2.734"/>
	<rect x="51.307" y="16.503" clip-path="url(#SVGID_10_)" fill="#FF181F" width="8.35" height="2.738"/>
	<rect x="50.981" y="21.651" clip-path="url(#SVGID_10_)" fill="#FF181F" width="16.167" height="2.738"/>
</g>
<path d="M0.104,24.347L0,24.245l0.894-5.576l0.369,0.304c0.002,0,0.504,0.414,1.18,0.867c0.675,0.459,1.529,0.948,2.161,1.092
	c0.219,0.049,0.493,0.08,0.792,0.08c0.723,0,1.59-0.17,2.256-0.541c0.673-0.382,1.124-0.919,1.155-1.727
	c0.004-0.063,0.004-0.124,0.004-0.181c-0.012-0.977-0.249-1.405-0.867-2.014c-0.623-0.598-1.635-1.3-3.046-2.605
	C3.033,12.226,2.67,10.311,2.674,9.13c0-0.71,0.126-1.167,0.132-1.183l0.049-0.171l0.177-0.027c1.44-0.195,2.275-0.691,2.748-1.134
	c-0.853,0.323-1.682,0.422-2.37,0.422C2.36,7.032,1.635,6.809,1.619,6.805L1.282,6.7l0.185-0.302
	c0.01-0.006,0.111-0.263,0.215-0.566c0.104-0.313,0.228-0.71,0.346-1.098C2.265,3.964,2.479,3.23,2.481,3.23l0.05-0.173l0.178-0.023
	c0.817-0.103,1.71-0.288,2.148-0.358V2.668c0.022-0.014,0.06-0.037,0.101-0.072C5.048,2.524,5.17,2.417,5.32,2.292
	c0.296-0.259,0.698-0.597,1.214-0.938C7.562,0.675,9.047,0,11.039,0c0.106,0,0.212,0.002,0.319,0.006
	c4.154,0.14,5.315,2.129,5.341,2.197l0.045,0.082l-0.841,5.024l-0.142,0.837l-0.376-0.759c-0.661-1.382-2.69-2.228-4.411-2.219
	C9.804,5.165,8.832,5.552,8.498,6.236C8.122,6.97,7.91,7.544,7.91,8.06c-0.01,0.89,0.63,1.816,2.598,3.347
	c2.774,2.146,3.386,4.369,3.376,6.686c0,0.331-0.01,0.659-0.033,0.996c-0.078,1.429-0.93,3.154-2.269,4.569
	c-1.341,1.412-3.191,2.51-5.305,2.566c-0.111,0.002-0.224,0.004-0.333,0.004C2.041,26.229,0.135,24.378,0.104,24.347 M0.804,24.211
	c0.22,0.161,0.557,0.379,1.006,0.595c0.905,0.435,2.272,0.878,4.135,0.878c0.105,0,0.212,0,0.321-0.004
	c1.923-0.053,3.652-1.062,4.921-2.396c1.269-1.331,2.061-2.987,2.121-4.227c0.016-0.325,0.027-0.649,0.027-0.965
	c-0.012-2.232-0.516-4.176-3.162-6.254c-1.979-1.545-2.8-2.583-2.81-3.779c0.002-0.667,0.261-1.313,0.647-2.072
	c0.507-0.971,1.693-1.364,2.964-1.366c1.629,0.008,3.491,0.646,4.505,1.907l0.694-4.135c-0.027-0.045-0.077-0.105-0.144-0.179
	c-0.146-0.166-0.384-0.391-0.747-0.625c-0.725-0.467-1.952-0.965-3.944-1.035c-0.102-0.006-0.2-0.006-0.3-0.006
	C7.773,0.557,6.024,2.45,5.301,3.024C5.186,3.107,5.111,3.178,4.948,3.213C4.554,3.279,3.744,3.44,2.956,3.551
	c-0.135,0.446-0.5,1.677-0.759,2.454C2.15,6.139,2.113,6.256,2.076,6.357c0.045,0.007,0.092,0.015,0.148,0.025
	c0.291,0.055,0.7,0.105,1.185,0.105c0.886,0,2.006-0.173,3.082-0.823l0.635-0.385L6.891,5.983c-0.01,0.061-0.662,1.829-3.597,2.281
	C3.288,8.295,3.281,8.328,3.277,8.363C3.25,8.542,3.221,8.807,3.221,9.13c0.002,1.078,0.312,2.806,2.049,4.414
	c1.39,1.286,2.372,1.965,3.055,2.617c0.684,0.638,1.043,1.323,1.031,2.403c0,0.068,0,0.125-0.002,0.196
	c-0.029,1.033-0.657,1.764-1.432,2.189c-0.784,0.432-1.725,0.607-2.526,0.609c-0.336,0-0.646-0.031-0.912-0.094
	c-1.131-0.271-2.539-1.278-3.199-1.78l-0.696,4.36C0.641,24.088,0.712,24.146,0.804,24.211 M15.635,7.266l0.245-0.124L15.635,7.266z
	"/>
<path d="M13.193,26.582l1.296-4.973h1.895l3.701-16.626c-0.667,0.292-1.108,0.753-1.304,0.992c-0.079,0.094-0.11,0.14-0.11,0.14
	l-0.325,0.497l-1.139-3.843l-0.041-0.14l0.096-0.111c1.313-1.524,3.666-1.562,3.703-1.576h7.912l-1.043,4.04h-2.545l-3.697,16.699
	h2.027l-1.257,4.901H13.193z M13.899,26.038h8.038l0.978-3.812h-2.007l3.94-17.791h2.562l0.757-2.944h-7.195
	c0,0.002-0.131,0.004-0.358,0.031c-0.222,0.025-0.535,0.08-0.881,0.171c-0.656,0.171-1.423,0.496-1.956,1.066l0.78,2.643
	c0.349-0.362,0.954-0.86,1.831-1.102l0.432-0.115l-3.992,17.972h-1.919L13.899,26.038z"/>
<path d="M20.194,32.747L20.06,32.63l1.703-5.705l0.325,0.353c0.716,0.78,1.271,1.016,1.661,1.012
	c0.456,0.004,0.823-0.313,1.102-0.722c0.274-0.401,0.437-0.866,0.482-1.014c0.061-0.203,1.28-5.12,2.478-9.954
	c0.996-4.026,1.979-8.005,2.282-9.233c-0.224,0.02-0.449,0.025-0.675,0.025c-0.88,0-1.697-0.111-1.703-0.111l-0.294-0.037
	l0.835-3.794l0.233,0.012c0.1,0.004,0.192,0.01,0.288,0.01c2.107-0.012,2.693-1.3,2.911-1.97c0.062-0.218,0.076-0.35,0.076-0.35
	l0.027-0.239l5.057-0.083L36.77,1.173c-0.004,0.002-5.256,21.991-6.486,26.257c-1.245,4.334-4.107,6.239-6.44,6.354
	c-0.107,0.004-0.214,0.008-0.321,0.008C21.424,33.788,20.222,32.772,20.194,32.747 M20.733,32.465
	c0.126,0.082,0.321,0.202,0.574,0.317c0.508,0.231,1.253,0.465,2.214,0.465c0.092,0,0.191-0.004,0.292-0.006
	c2.059-0.103,4.744-1.798,5.944-5.962c0.607-2.109,2.23-8.675,3.695-14.707c1.258-5.143,2.392-9.895,2.703-11.185l-3.892,0.064
	c-0.057,0.263-0.196,0.71-0.51,1.166c-0.477,0.705-1.403,1.409-2.978,1.403c-0.029,0-0.057,0-0.086-0.002l-0.604,2.755
	c0.061,0.008,0.132,0.012,0.208,0.02c0.3,0.029,0.708,0.053,1.123,0.053c0.344,0.004,0.694-0.016,0.99-0.068l0.41-0.064L30.72,7.112
	c-0.002,0.012-4.713,19.104-4.867,19.603c-0.054,0.179-0.226,0.681-0.551,1.16c-0.316,0.477-0.826,0.959-1.553,0.963
	c-0.525-0.004-1.101-0.259-1.733-0.853l-1.327,4.448C20.702,32.443,20.714,32.453,20.733,32.465"/>
<path d="M34.216,26.405l4.213-19.083h-2.903l0.707-3.816l0.051-0.257l0.254,0.037c0.209,0.027,0.401,0.041,0.584,0.041
	c1.794-0.002,2.481-1.269,2.746-1.929c0.084-0.214,0.11-0.346,0.11-0.346l0.047-0.218h4.991l-2.055,9.217h3.693l2.123-9.147h4.876
	l-5.481,25.392h-5.168l2.374-10.728h-3.617l-2.485,10.836H34.216z M36.184,6.777h2.927l-4.213,19.081h3.942l2.484-10.836h4.734
	l-2.378,10.726h4.048l5.248-24.292h-3.766l-2.123,9.144h-4.804l2.049-9.215h-3.88c-0.08,0.249-0.249,0.687-0.576,1.134
	c-0.486,0.671-1.366,1.36-2.756,1.356c-0.126,0-0.263-0.008-0.398-0.016L36.184,6.777z M36.464,3.828l0.041-0.271L36.464,3.828z"/>
<path d="M51.124,26.474l4.23-19.134c-0.329,0.061-0.674,0.078-1.001,0.078c-0.857,0-1.597-0.134-1.604-0.134l-0.276-0.054
	l0.79-3.693h0.22c2.186-0.004,2.958-1.377,3.247-2.074c0.094-0.233,0.121-0.372,0.121-0.372l0.045-0.224l5.024,0.121l-4.532,20.553
	h8.759l-1.256,4.935H51.124z M51.807,25.927h12.66l0.979-3.843h-8.74l4.539-20.568L57.325,1.42
	c-0.085,0.271-0.274,0.744-0.647,1.226c-0.533,0.685-1.478,1.37-2.974,1.432l-0.58,2.708c0.28,0.035,0.739,0.088,1.229,0.088
	c0.442,0,0.909-0.041,1.279-0.16l0.447-0.14L51.807,25.927z M57.111,1.417l0.008-0.271L57.111,1.417z"/>
</svg>
