<svg height="303.136754" viewBox="0 0 37.26 33.72" width="329.884115" xmlns="http://www.w3.org/2000/svg" xmlns:xlink="http://www.w3.org/1999/xlink"><clipPath id="a"><path d="m0 0h37.26v33.72h-37.26z"/></clipPath><clipPath id="b"><path d="m11.458 15.966c4.2-4.151 10.683-5.374 14.479-2.732 3.797 2.642 3.471 8.147-.729 12.299-4.201 4.15-10.684 5.374-14.48 2.732s-3.471-8.148.73-12.299"/></clipPath><path clip-path="url(#a)" clip-rule="evenodd" d="m2.866 18.106c-.47-8.985 6.422-16.651 15.394-17.123 8.971-.47 16.627 6.432 17.096 15.417.471 8.986-6.422 16.652-15.394 17.123-8.972.472-16.626-6.43-17.096-15.417" fill="#334c99" fill-rule="evenodd"/><path clip-path="url(#a)" clip-rule="evenodd" d="m2.234 19.681c-1.25-8.911 4.95-17.149 13.847-18.403 8.896-1.252 17.123 4.956 18.373 13.867 1.251 8.91-4.948 17.149-13.846 18.401-8.896 1.254-17.123-4.954-18.374-13.865m1.377-.195c-1.224-8.728 4.387-16.733 12.533-17.881 8.146-1.146 15.742 5 16.967 13.729 1.226 8.729-4.386 16.733-12.531 17.88-8.147 1.147-15.743-4.998-16.969-13.728z" fill="#f9dc56" fill-rule="evenodd"/><path clip-path="url(#a)" clip-rule="evenodd" d="m2.809 18.387c-.458-8.748 6.252-16.212 14.987-16.67 8.735-.459 16.187 6.261 16.645 15.01.457 8.748-6.252 16.212-14.986 16.67-8.736.458-16.188-6.261-16.646-15.01m1.352-.072c-.449-8.569 5.671-15.856 13.668-16.276 7.998-.42 14.844 6.187 15.293 14.757.447 8.57-5.671 15.856-13.669 16.277-7.997.42-14.845-6.187-15.292-14.758z" fill="#fff" fill-rule="evenodd"/><path clip-path="url(#a)" d="m17.81 20.358c10.137 1.067 18.728-1.61 19.218-5.983.063.342.078.686.042 1.028-.46 4.389-9.065 7.079-19.22 6.011-10.155-1.069-18.014-5.492-17.553-9.88.745 4.005 8.154 7.84 17.513 8.824" fill="#f9dc56"/><path clip-path="url(#a)" d="m17.746 22.224c10.135 1.067 18.726-1.611 19.217-5.983.063.342.078.686.042 1.028-.46 4.39-9.065 7.079-19.22 6.01s-18.014-5.492-17.554-9.881c.746 4.005 8.155 7.84 17.515 8.826" fill="#f9dc56"/><path clip-path="url(#a)" d="m17.681 24.089c10.135 1.067 18.727-1.611 19.217-5.984.063.342.078.687.042 1.03-.46 4.388-9.064 7.078-19.22 6.009-10.155-1.068-18.013-5.492-17.553-9.88.745 4.005 8.154 7.84 17.514 8.825" fill="#f9dc56"/><path d="m11.458 15.966c4.2-4.151 10.683-5.374 14.479-2.732 3.797 2.642 3.471 8.147-.729 12.299-4.201 4.15-10.684 5.374-14.48 2.732s-3.471-8.148.73-12.299" fill="#fff"/><path clip-path="url(#b)" d="m26.764 14.391-2.912 7.338s1.616.158 2.52 1.062c.424.426-.07.424-.07.424s-.805-.67-1.509-.917c-.704-.246-1.544-.16-1.477-.434.067-.272 3.124-7.887 3.124-7.887l.31-.011z" fill="#334c99"/><path clip-path="url(#b)" d="m25.163 10.578s-2.482 5.271-2.591 5.469c-.109.197-.504 1.101-1.807 1.379l-12.704 3.288-.129-.382 12.706-3.25s.775.089 1.575-1.371c.799-1.459 2.634-5.316 2.634-5.316z" fill="#334c99"/><path clip-path="url(#b)" clip-rule="evenodd" d="m25.52 10.836-2.697 5.744s-.475.791-1.393 1.055l-13.62 3.576.167.343 3.644-.969.532 6.848 1.981-.759s1.468 1.11 5.095.983c3.627-.128 4.803-.352 4.803-.352l1.78-3.236c-.646.622-1.262 1.032-5.743 1.081-3.204.035-5.532-.231-5.645-1.233-.112-1.003 2.343-1.515 5.395-1.505 3.053.009 4.769.337 5.948 1.38l.44-.324s-1.158-.714-1.784-.924c-.625-.21-1.599-.493-1.599-.493l3.694-9.16zm-10.279 8.795.119 2.831s-1.274.615-1.342.927c-.065.313-.057 2.788-.057 2.788l-.743.322-.389-6.203z" fill="#334c99" fill-rule="evenodd"/><path clip-path="url(#b)" d="m24.027 27.889-.142.354s-4.042.438-5.589.376c-1.548-.063-4.63-.922-4.63-.922l-2.207 1.212-.281-.301 2.513-1.299s2.35.885 4.707.919c2.359.033 5.629-.339 5.629-.339" fill="#334c99"/><path clip-rule="evenodd" d="m10.99 15.748c4.356-4.306 11.081-5.574 15.019-2.834 3.938 2.739 3.598 8.451-.758 12.756-4.357 4.305-11.081 5.574-15.02 2.834-3.936-2.74-3.597-8.451.759-12.756m.897.318c3.769-4.131 9.582-5.348 12.988-2.72 3.405 2.629 3.111 8.108-.656 12.239-3.767 4.13-9.582 5.348-12.988 2.719-3.405-2.628-3.112-8.108.656-12.238z" fill="#f9dc56" fill-rule="evenodd"/><path d="m11.593 20.546s-8.206 1.768-8.239 2.271c-.034.503-.6 5.113 2.302 7.853l6.138-2.473z" fill="#fff"/><path d="m11.074 20.642-7.107 1.848s-.406.161-.503.826c-.388 2.65 1.013 5.668 1.587 6.658 0 0 .783.717 1.287.415.503-.303 7.594-3.188 7.594-3.188l-.033.355s-6.99 3.236-7.493 3.303c-.505.068-1.447.063-1.8-.638-.699-1.393-2.104-5.298-1.545-7.242.039-.136.067-.826.872-.961.807-.134 8.235-2.002 8.235-2.002z" fill="#334c99"/><path d="m14.193 26.525s-8.238 3.507-8.538 3.239c-.301-.267-2.003-3.87-1.569-6.445 0 0 .5 4.478 1.735 5.845l.6-.301-1.166-6.848 5.669-1.404.736 6.414.832-.3z" fill="#334c99"/><g fill="#f9dc56"><path d="m10.042 14.133.442-.358c.822-.668 1.042-1.238.657-1.715-.08-.099-.191-.161-.335-.186-.143-.025-.297-.02-.461.02-.164.038-.407.113-.729.227-.541.189-.978.247-1.309.17-.331-.076-.625-.274-.883-.594-.659-.814-.435-1.671.671-2.567.27-.218.572-.404.909-.56.336-.154.555-.17.656-.045.076.094-.021.249-.29.468-.939.761-1.244 1.345-.915 1.752.101.125.221.207.36.246.141.038.291.037.453-.004.161-.041.438-.135.83-.281.393-.147.704-.227.937-.237.231-.011.452.036.659.14.206.105.399.268.577.487.347.428.441.888.284 1.379-.156.491-.532.979-1.128 1.461-.272.223-.578.414-.914.577-.337.163-.553.187-.647.068-.081-.104-.023-.253.176-.448"/><path d="m15.121 9.149c.159.265.255.503.287.717.032.212.019.424-.042.635-.061.21-.174.417-.34.621s-.354.37-.565.497c-.229.138-.453.218-.674.24-.222.023-.365-.021-.433-.133-.07-.119-.026-.235.131-.352.304-.217.504-.446.602-.686.098-.238.054-.513-.131-.82l-1.604-2.675-.99-.391 1.346-.81c.255-.153.466-.092.633.187z"/><path d="m21.356 9.026c.035.288-.16.458-.588.511-.488.06-.752-.062-.789-.364l-.17-1.388c-.027-.227-.163-.395-.409-.502-.245-.107-.515-.143-.807-.106-.298.036-.542.133-.732.29-.188.157-.27.353-.24.588l.171 1.398c.016.131-.01.242-.08.335-.069.092-.169.146-.298.162l-1.578.193.542-.918-.48-3.905-.747-.759 2.654-.327-.541.919.083.678c.026.21.158.365.396.466.237.101.488.135.754.102.268-.032.513-.132.733-.297.223-.166.321-.352.295-.559l-.121-.998c-.041-.333.15-.525.576-.577.496-.061.765.075.806.408z"/><path d="m23.124 4.963-.392-.992 1.521.437c.112.032.197.105.255.221.057.115.068.232.033.355l-1.017 3.549c-.06.211-.024.411.106.602s.319.32.563.391l.992.284c.107.031.205.095.292.192.088.097.118.193.089.292-.025.091-.098.151-.217.183s-.233.03-.347-.002l-2.772-.797c-.104-.031-.19-.098-.256-.201s-.084-.208-.055-.311z"/><path d="m29.976 6.694s.503 1.66.106 2.325c-.397.664-1.191 1.215-1.27 2.008 0 0-.512-1.649-.16-2.181.379-.571.669-.962.864-1.204.205-.251.46-.948.46-.948"/><path d="m30.232 9.142s.502 1.66.106 2.325c-.397.665-1.192 1.216-1.271 2.008 0 0-.511-1.648-.158-2.181.377-.57.668-.961.863-1.204.206-.252.46-.948.46-.948"/><path d="m30.49 11.589s.502 1.661.104 2.325c-.396.665-1.191 1.216-1.269 2.009 0 0-.513-1.65-.16-2.181.378-.571.668-.963.865-1.204.203-.253.46-.949.46-.949"/></g><path d="m26.364 8.05s-.088 1.732.459 2.281c.545.549 1.448.891 1.717 1.641 0 0 .098-1.724-.372-2.154-.505-.462-.881-.771-1.129-.96-.259-.195-.675-.808-.675-.808" fill="#fff"/><path d="m26.706 10.486s-.087 1.732.459 2.281c.545.549 1.449.892 1.717 1.642 0 0 .098-1.725-.372-2.155-.505-.461-.881-.771-1.13-.959-.258-.195-.674-.809-.674-.809" fill="#fff"/><path d="m27.048 12.924s-.087 1.732.459 2.281c.545.549 1.449.891 1.717 1.641 0 0 .099-1.724-.372-2.155-.505-.461-.881-.771-1.129-.959-.259-.195-.675-.808-.675-.808" fill="#fff"/><path d="m30.913 13.759s.503 1.66.105 2.325c-.396.664-1.19 1.215-1.269 2.008 0 0-.512-1.649-.16-2.181.378-.57.668-.962.864-1.204.205-.252.46-.948.46-.948" fill="#f9dc56"/><path d="m31.17 16.206s.503 1.66.105 2.325c-.396.664-1.19 1.216-1.269 2.008 0 0-.512-1.649-.16-2.181.378-.57.668-.962.864-1.205.205-.252.46-.947.46-.947" fill="#f9dc56"/><path d="m27.451 15.464s-.087 1.731.459 2.281c.545.549 1.448.891 1.717 1.641 0 0 .098-1.724-.372-2.154-.505-.462-.881-.771-1.13-.96-.258-.195-.674-.808-.674-.808" fill="#fff"/><path clip-rule="evenodd" d="m28.287 9.608s-.376-4.069.862-7.36l.293-.318.568-.751-.533.55.159-.919-.299.945-.011-1.755-.189 1.895-.122-.653v.872s-.97 2.695-1.023 4.8c-.024.928.295 2.694.295 2.694" fill="#f9dc56" fill-rule="evenodd"/><path d="m10.461 13.993.442-.358c.822-.667 1.043-1.239.657-1.715-.08-.1-.191-.161-.335-.187-.143-.024-.297-.018-.461.021s-.407.113-.729.226c-.541.19-.978.247-1.309.17-.331-.075-.625-.273-.883-.593-.657-.815-.433-1.671.673-2.569.27-.218.572-.403.909-.559.336-.155.555-.17.656-.045.076.093-.021.249-.29.467-.938.761-1.244 1.345-.915 1.752.101.125.221.207.36.246.141.039.291.038.453-.003.161-.041.438-.135.83-.282.393-.146.704-.226.937-.236.231-.012.452.035.659.14s.399.267.577.487c.347.428.441.888.284 1.379-.155.491-.532.978-1.128 1.461-.272.222-.578.414-.914.577-.337.163-.553.186-.647.067-.083-.102-.025-.251.174-.446" fill="#fff"/><path d="m15.54 9.01c.159.265.255.503.287.716.032.212.019.424-.042.635-.061.21-.174.418-.339.621-.165.204-.354.37-.566.497-.229.139-.453.218-.674.241-.222.023-.365-.021-.433-.133-.07-.118-.026-.236.132-.353.303-.217.503-.445.601-.685s.054-.512-.131-.821l-1.604-2.674-.989-.391 1.345-.81c.255-.153.466-.092.633.187z" fill="#fff"/><path d="m21.775 8.887c.035.288-.16.458-.588.51-.488.062-.752-.061-.789-.363l-.17-1.389c-.027-.227-.164-.394-.409-.502-.245-.106-.515-.142-.807-.105-.298.037-.542.133-.731.29-.189.156-.271.353-.241.589l.171 1.396c.016.131-.01.243-.08.335-.069.093-.169.146-.298.162l-1.578.194.542-.918-.479-3.904-.746-.76 2.653-.327-.541.919.083.677c.026.21.158.366.396.467.237.101.488.135.754.102.268-.033.513-.132.734-.297.222-.166.32-.353.295-.56l-.122-.998c-.041-.331.15-.524.576-.576.496-.062.765.074.806.407z" fill="#fff"/><path d="m23.543 4.823-.392-.992 1.521.437c.112.032.197.105.255.22.057.115.068.233.033.356l-1.017 3.549c-.06.21-.024.411.106.602.131.189.319.319.563.391l.991.284c.107.031.205.095.292.191.088.098.118.194.089.292-.025.092-.098.152-.217.184s-.233.03-.347-.002l-2.773-.796c-.104-.031-.19-.099-.256-.201-.065-.104-.084-.208-.055-.312z" fill="#fff"/></svg>