<?xml version="1.0" encoding="UTF-8" standalone="no"?>
<svg xmlns:dc="http://purl.org/dc/elements/1.1/" xmlns:cc="http://creativecommons.org/ns#" xmlns:rdf="http://www.w3.org/1999/02/22-rdf-syntax-ns#" xmlns:svg="http://www.w3.org/2000/svg" xmlns="http://www.w3.org/2000/svg" xmlns:sodipodi="http://sodipodi.sourceforge.net/DTD/sodipodi-0.dtd" xmlns:inkscape="http://www.inkscape.org/namespaces/inkscape" version="1.1" id="Layer_1" x="0px" y="0px" width="292.608" height="226.68159" viewBox="0 0 45.72 29.826526" enable-background="new 0 0 50 40" xml:space="preserve" sodipodi:docname="Southern_Professional_Hockey_League_logo.svg" inkscape:version="1.0.1 (3bc2e813f5, 2020-09-07)"><metadata id="metadata155"><rdf:RDF><cc:Work rdf:about=""><dc:format>image/svg+xml</dc:format><dc:type rdf:resource="http://purl.org/dc/dcmitype/StillImage"/></cc:Work></rdf:RDF></metadata><defs id="defs153"/><sodipodi:namedview pagecolor="#ffffff" bordercolor="#666666" borderopacity="1" objecttolerance="10" gridtolerance="10" guidetolerance="10" inkscape:pageopacity="0" inkscape:pageshadow="2" inkscape:window-width="747" inkscape:window-height="480" id="namedview151" showgrid="false" inkscape:zoom="0.83580952" inkscape:cx="146.304" inkscape:cy="113.3376" inkscape:window-x="0" inkscape:window-y="27" inkscape:window-maximized="0" inkscape:current-layer="Layer_1"/>
<g id="g148" transform="translate(-2.14,-6.041)">
	<g id="g146">
		<path fill="#ffffff" d="m 46.854,2.341 -0.836,0.04 C 33.813,2.992 23.91,5.379 17.752,7.274 11.048,9.338 7.271,11.243 7.112,11.322 L 6.352,11.71 6.311,12.564 6.297,13.29 c 0,1.321 0.172,2.723 0.499,4.167 -3.007,2.056 -4.656,4.44 -4.656,6.758 0,0.216 0.015,0.435 0.043,0.646 0.57,4.196 6.764,6.352 12.041,6.953 1.73,2.196 4.534,5.365 5.749,5.766 l 0.39,0.13 0.398,-0.093 c 3.169,-0.731 6.874,-3.8 9.489,-6.317 0.264,-0.048 0.707,-0.1 1.18,-0.153 1.354,-0.155 3.396,-0.39 5.329,-0.938 4.2,-1.195 6.403,-2.951 6.729,-5.368 l 0.012,-0.088 0.035,-2.641 c 0,-0.002 0.006,-2.562 0.006,-2.562 V 19.528 C 43.513,18.444 43.028,17.482 42.142,16.746 42.099,16.712 42.044,16.678 41.999,16.643 44.98,11.856 46.939,7.425 47.536,4.105 L 47.86,2.291 Z" id="path2"/>
		<path fill="#a4aaad" d="M 46.057,3.181 C 33.935,3.789 24.101,6.159 17.988,8.04 11.347,10.083 7.631,11.958 7.476,12.036 L 7.128,12.212 7.111,12.599 C 7.1,12.828 7.095,13.057 7.095,13.29 c 0,1.433 0.202,2.952 0.598,4.528 -3.056,1.964 -4.754,4.251 -4.754,6.396 0,0.182 0.013,0.361 0.034,0.539 0.49,3.596 6.166,5.739 11.671,6.302 2.198,2.835 4.768,5.498 5.576,5.765 l 0.179,0.059 0.18,-0.042 c 3.05,-0.704 6.708,-3.771 9.292,-6.285 0.108,-0.018 0.214,-0.038 0.214,-0.038 0.283,-0.052 0.733,-0.104 1.253,-0.162 1.327,-0.153 3.333,-0.384 5.198,-0.914 3.863,-1.1 5.876,-2.638 6.154,-4.705 l 0.007,-0.04 0.036,-2.592 c 0,-0.008 0.007,-2.541 0.007,-2.541 V 19.55 C 42.717,18.702 42.333,17.946 41.628,17.364 41.419,17.19 41.172,17.032 40.897,16.889 44.066,11.926 46.136,7.356 46.745,3.963 l 0.148,-0.824 z" id="path4"/>
		<path fill="#0d223f" d="M 45.994,3.847 C 22.662,5.016 7.683,12.632 7.683,12.632 7.182,23.482 19.177,35.804 20.338,36.188 28.15,34.383 44.094,14.457 45.994,3.847" id="path6"/>
		<path fill="#0d223f" d="m 36.744,18.368 c 0.799,3.992 -4.09,9.819 -13.091,11.623 -9,1.806 -19.513,-0.925 -20.112,-5.328 -0.548,-4.032 6.351,-8.772 15.456,-10.252 9.061,-1.473 16.946,-0.034 17.747,3.957" id="path8"/>
		<path fill="#ffffff" d="m 16.806,13.884 -4.737,1.481 c -0.761,0.24 -1.342,0.804 -1.432,1.38 0.225,-0.1 0.434,-0.234 0.664,-0.341 0.404,-0.187 0.854,-0.129 1.238,-0.159 1.314,-0.153 2.843,-1.455 3.668,-0.097 0.074,0.009 -1.194,-0.463 -1.139,-0.3 -0.342,-0.559 -0.215,-0.004 0.452,0.715 l 1.184,0.364 0.66,-3.22 z" id="path10"/>
		<polyline fill="#a4aaad" points="16.719,17.06 16.726,17.067 16.727,17.059 16.719,17.06   " id="polyline12"/>
		<path fill="#ffffff" d="m 12.543,16.556 c -0.653,0.407 -0.238,1.17 0.064,1.794 0.179,-0.099 0.345,-0.189 0.498,-0.284 -0.009,0.001 -0.019,0.004 -0.028,0.008 0.075,-0.479 0.198,-1.196 0.198,-1.196 l 0.012,-0.003 C 13.201,16.782 13.121,16.67 13.009,16.557 12.917,16.463 12.635,16.556 12.543,16.556" id="path14"/>
		<path fill="#ffffff" d="m 11.888,21.32 c -0.279,0.469 -0.279,0.843 0.28,1.028 0.562,0.095 1.121,-0.093 1.309,-0.467 0.189,-0.251 -0.089,-0.418 -0.29,-0.615 -0.005,0.035 -0.012,0.067 -0.016,0.094 -0.174,0.042 -0.337,0.079 -0.634,0.15 0.06,-0.326 0.216,-1.201 0.216,-1.201 l -2.707,0.668 0.46,0.774 c 0.328,0.49 0.842,-0.738 1.382,-0.431" id="path16"/>
		<path fill="#a4aaad" d="m 15.148,19.864 c -0.225,-1.284 -1.755,-1.237 -2.759,-1.127 0.01,-0.078 -0.131,-0.173 -0.047,-0.241 0.094,-0.053 0.181,-0.101 0.265,-0.146 -0.303,-0.624 -0.718,-1.387 -0.064,-1.794 0.092,0 0.374,-0.093 0.466,0 0.112,0.113 0.192,0.226 0.278,0.318 l 0.792,-0.231 -0.153,1.076 2.796,-0.792 c -0.052,-0.085 -0.501,-0.273 -0.61,-0.45 -0.055,-0.165 0.17,-0.319 0.096,-0.328 -0.825,-1.358 -2.354,-0.057 -3.668,0.097 -0.384,0.03 -0.834,-0.027 -1.238,0.158 -0.23,0.106 -0.439,0.242 -0.664,0.342 -10e-4,0.012 -0.003,0.022 -0.005,0.033 0,-0.002 -0.438,3.396 -0.438,3.396 l -0.068,0.524 c 0,0 2.564,-0.672 3.306,-0.865 -0.085,0.497 -0.206,1.196 -0.26,1.517 0.201,0.197 0.624,0.568 0.436,0.82 -0.188,0.373 -0.877,0.272 -1.438,0.178 -0.56,-0.186 -1.056,0.168 -0.773,-0.301 -0.539,-0.307 -0.87,-0.662 -1.359,-1.044 l -0.464,2.96 4.696,-1.045 c 0.124,-0.027 0.521,-0.15 0.883,-0.347 -0.093,-0.891 0.177,-1.771 -0.006,-2.708" id="path18"/>
		<path fill="#ffffff" d="m 16.726,17.067 c -0.002,-0.004 -0.006,-0.005 -0.007,-0.008 -0.172,0.049 -2.8,0.828 -3.612,1.006 -0.413,0.255 -0.847,-0.262 -1.084,-0.127 -0.086,0.068 0.377,0.721 0.367,0.799 1.004,-0.11 2.534,-0.157 2.759,1.127 0.182,0.938 -0.088,1.816 0.002,2.708 0.328,-0.179 0.624,-0.417 0.669,-0.701 l -10e-4,0.011 z" id="path20"/>
		<path fill="#ffffff" d="m 16.414,16.727 -2.073,0.595 0.155,-1.18 -1.539,0.465 -0.309,1.958 3.63,-1.011 -0.803,4.262 c -0.04,0.261 -0.823,0.65 -1.28,0.753 l -4.198,0.934 0.356,-2.231 1.961,-0.484 -0.214,1.195 1.376,-0.326 0.391,-2.307 -3.328,0.871 0.438,-3.399 c 0.05,-0.398 0.508,-0.896 1.191,-1.112 l 4.739,-1.484 z" id="path22"/>
		<path fill="#ffffff" d="m 25.437,12.055 c -0.355,-0.382 -1.173,-0.528 -1.822,-0.327 -10e-4,0 -5.771,1.776 -5.771,1.776 l -0.037,0.169 c 0.11,0.143 0.248,0.266 0.418,0.355 0.938,0.443 1.914,-0.077 2.721,-0.46 1.05,-0.512 2.747,-0.7 2.955,0.134 0.309,1.172 0.13,2.395 -0.347,3.54 0.415,-0.194 0.912,-0.538 1.076,-1.122 -0.002,0.003 0.979,-3.384 0.979,-3.384 0.068,-0.24 0.007,-0.49 -0.172,-0.681" id="path24"/>
		<path fill="#ffffff" d="m 19.371,22.012 c 0.124,-0.457 0.826,-3.089 1.042,-3.899 -0.313,-0.418 -0.903,-1.109 -1.079,-1.461 -1.125,1.47 -1.254,4.248 0.037,5.36" id="path26"/>
		<path fill="#a4aaad" d="m 23.899,13.702 c -0.208,-0.834 -1.905,-0.646 -2.955,-0.134 -0.807,0.382 -1.595,0.965 -2.533,0.522 -0.074,-0.112 -0.446,-0.432 -0.558,-0.575 l -0.492,2.15 c 0,0 0.746,-0.221 0.9,-0.268 -0.251,1.035 -1.754,7.215 -1.754,7.215 l 2.84,-0.597 c 0,0 -0.497,-0.561 -0.483,-0.612 -0.638,-1.546 -0.776,-2.812 0.348,-4.284 0.175,0.354 0.059,-0.378 0.262,-0.017 0.032,-0.118 0.906,1.053 0.918,1.009 0.529,-0.135 1.975,-0.505 2.62,-0.679 0.112,-0.026 0.315,-0.086 0.541,-0.192 0.476,-1.143 0.656,-2.366 0.346,-3.538 m -2.063,3.29 c -0.655,0.4 -1.698,0.188 -2.14,-0.596 -0.111,-0.337 -0.066,-0.734 0.132,-1.112 0.309,-0.686 0.185,-1.892 1.475,-0.793 0.162,-0.048 0.586,-0.159 0.837,-0.232 -0.143,0.528 -0.31,1.202 -0.386,1.486 0.394,0.465 0.696,0.885 0.082,1.247" id="path28"/>
		<path fill="#ffffff" d="m 22.311,16.354 c -0.007,0.029 -0.56,-0.645 -0.565,-0.622 -0.179,0.048 -0.449,0.121 -0.835,0.227 0.148,-0.571 0.312,-1.211 0.375,-1.449 0.063,-0.019 -0.738,-0.671 -0.646,-0.697 -0.636,-1.032 -0.502,0.786 -0.811,1.472 -0.198,0.378 -0.243,0.775 -0.132,1.112 0.441,0.782 1.484,0.996 2.14,0.596 0.613,-0.363 0.87,-0.175 0.474,-0.639" id="path30"/>
		<path fill="#ffffff" d="m 24.295,16.016 c -0.171,0.608 -0.883,0.938 -1.367,1.062 -0.801,0.214 -2.814,0.727 -2.814,0.727 l -1.042,3.896 -2.088,0.438 1.767,-7.264 -0.915,0.269 0.301,-1.344 5.575,-1.718 c 0.711,-0.219 1.7,0.076 1.563,0.548 z m -3.296,-1.805 -0.583,2.26 1.608,-0.433 0.62,-2.313 z" id="path32"/>
		<path fill="#a4aaad" d="M 37.004,11.384 C 37.374,10.421 37.2,9.531 36.839,8.687 l -0.142,0.029 -4.631,9.48 6.094,-0.821 0.02,-0.026 c -0.618,-0.762 -1.258,-1.518 -1.914,-2.266 -0.937,-1.115 0.23,-2.475 0.738,-3.699" id="path34"/>
		<path fill="#ffffff" d="M 37.288,14.792 C 37.756,13.854 40.63,8.085 40.63,8.085 l -3.9,0.626 c 0.361,0.844 0.645,1.71 0.274,2.673 -0.508,1.225 -1.675,2.584 -0.738,3.699 0.656,0.748 1.395,1.675 2.014,2.438 l 2.177,-3.169 c -10e-4,10e-4 -2.393,0.331 -3.169,0.44" id="path36"/>
		<polygon fill="#ffffff" points="37.982,17.069 32.628,17.789 36.919,9.004 40.133,8.354 36.718,15.2 39.717,14.784 " id="polygon38"/>
		<path fill="#a4aaad" d="m 27.343,14.353 c 0.37,-0.099 0.908,0.712 1.289,1.116 10e-4,0.004 0.005,0.005 0.006,0.009 0.003,-0.009 0.007,-0.018 0.012,-0.024 0.165,-0.033 0.483,-0.095 0.895,-0.175 -0.334,0.806 -1.503,3.618 -1.503,3.618 l 3.205,-0.477 0.05,-0.115 c -0.032,-0.194 -0.061,-0.391 -0.082,-0.59 -0.286,-2.322 1.459,-4.323 0.942,-6.53 -0.072,-0.458 -0.173,-0.921 -0.309,-1.376 l -0.097,0.023 c 0,0 -1.247,3.159 -1.363,3.46 -0.012,10e-4 -0.024,0.005 -0.036,0.007 0.271,0.378 0.632,0.862 0.134,1.038 -1.488,0.462 -2.458,-0.944 -2.207,-2.412 -0.735,-0.091 -1.326,-0.406 -1.84,-0.813 l -0.631,1.953 c 0,0 0.742,-0.169 0.893,-0.205 -0.359,0.955 -2.509,6.631 -2.509,6.631 l 2.52,-0.386 c -0.273,-0.448 -0.414,-0.947 -0.415,-1.492 0.065,-1.134 0.071,-2.88 1.046,-3.26" id="path40"/>
		<path fill="#ffffff" d="m 28.638,15.478 c -0.001,-0.004 -0.005,-0.005 -0.006,-0.009 -0.381,-0.404 -0.796,-1.099 -1.165,-1 -0.976,0.382 -1.104,2.01 -1.171,3.145 0.001,0.545 0.142,1.044 0.415,1.492 l 0.48,-0.073 c 0,-0.001 1.278,-3.139 1.447,-3.555" id="path42"/>
		<path fill="#ffffff" d="m 30.966,14.664 c 0.498,-0.178 -0.322,-0.993 -0.592,-1.374 -0.185,0.037 -0.542,0.115 -0.946,0.198 0.307,-0.782 1.344,-3.418 1.344,-3.418 l -4.331,1.047 0.556,0.536 c 0.513,0.405 0.547,0.181 1.281,0.271 -0.251,1.469 1.201,3.204 2.688,2.74" id="path44"/>
		<path fill="#ffffff" d="m 31.214,17.715 c 0.021,0.199 0.05,0.396 0.082,0.59 L 35.4,8.937 31.784,9.842 c 0.137,0.454 0.3,0.885 0.372,1.343 0.517,2.207 -1.228,4.208 -0.942,6.53" id="path46"/>
		<polygon fill="#ffffff" points="30.082,14.839 28.411,15.167 26.96,18.736 24.695,19.084 27.223,12.407 26.297,12.618 26.695,11.393 30.235,10.536 28.904,13.929 30.627,13.578 31.993,10.11 34.836,9.411 31.02,18.124 28.564,18.489 " id="polygon48"/>
		<path fill="#ffffff" d="m 12.239,12.651 -0.288,0.114 -0.035,-0.289 -0.222,0.089 0.05,0.491 0.519,-0.205 0.101,1.063 c 0.008,0.068 -0.093,0.167 -0.16,0.193 l -0.649,0.256 -0.055,-0.613 0.305,-0.118 0.028,0.317 0.207,-0.083 -0.059,-0.594 -0.504,0.197 -0.1,-0.884 c -0.009,-0.101 0.043,-0.22 0.145,-0.261 l 0.666,-0.263 z" id="path50"/>
		<path fill="#ffffff" d="m 13.361,13.533 c 0.006,0.065 -0.048,0.142 -0.12,0.169 -0.162,0.062 -0.375,0.144 -0.521,0.199 -0.111,0.042 -0.179,-0.01 -0.188,-0.116 L 12.4,12.117 c -0.006,-0.063 0.043,-0.151 0.116,-0.179 0.129,-0.049 0.334,-0.128 0.492,-0.188 0.145,-0.057 0.202,-0.016 0.214,0.121 z m -0.646,-1.368 0.119,1.389 0.211,-0.082 -0.125,-1.385 z" id="path52"/>
		<path fill="#ffffff" d="m 14.393,13.124 c 0.008,0.078 -0.038,0.162 -0.104,0.187 l -0.505,0.185 c -0.102,0.039 -0.21,0.008 -0.217,-0.104 l -0.134,-1.797 0.311,-0.116 0.123,1.682 0.206,-0.077 -0.108,-1.684 0.299,-0.108 z" id="path54"/>
		<polygon fill="#ffffff" points="15.022,13.043 14.717,13.154 14.619,11.467 14.438,11.53 14.416,11.24 15.09,11 15.104,11.295 14.924,11.361 " id="polygon56"/>
		<polygon fill="#ffffff" points="15.883,11.827 15.675,11.901 15.709,12.8 15.398,12.906 15.307,10.926 15.619,10.817 15.659,11.604 15.871,11.53 15.824,10.748 16.139,10.638 16.229,12.619 15.921,12.724 " id="polygon58"/>
		<polygon fill="#ffffff" points="16.696,11.251 16.908,11.182 16.92,11.478 16.711,11.548 16.734,12.147 17.004,12.059 17.011,12.354 16.436,12.548 16.351,10.569 16.925,10.377 16.938,10.67 16.676,10.76 " id="polygon60"/>
		<path fill="#ffffff" d="m 18.031,10.935 c 0.004,0.111 -0.069,0.2 -0.151,0.228 l -0.049,0.015 0.309,0.809 -0.313,0.104 -0.298,-0.813 -0.015,0.003 0.029,0.901 -0.311,0.102 -0.071,-1.976 0.674,-0.217 c 0.086,-0.028 0.174,0.025 0.174,0.104 z m -0.541,-0.444 0.021,0.493 0.209,-0.067 -0.018,-0.494 z" id="path62"/>
		<polygon fill="#ffffff" points="18.613,10.849 18.61,10.849 18.631,11.83 18.314,11.93 18.277,9.947 18.59,9.85 18.81,10.669 18.815,10.667 18.806,9.778 19.112,9.683 19.153,11.668 18.846,11.765 " id="polygon64"/>
		<path fill="#ffffff" d="m 20.791,10.112 c 0.003,0.129 -0.082,0.187 -0.146,0.206 -0.105,0.033 -0.379,0.113 -0.379,0.113 v 0.898 L 19.953,11.42 19.942,9.441 20.605,9.246 c 0.086,-0.026 0.183,0.032 0.183,0.126 z m -0.535,-0.467 0.005,0.49 0.218,-0.064 -0.006,-0.49 z" id="path66"/>
		<path fill="#ffffff" d="m 21.854,9.794 c 0,0.108 -0.078,0.197 -0.16,0.22 l -0.051,0.014 0.279,0.819 -0.316,0.092 -0.269,-0.823 -0.014,0.004 -0.005,0.901 -0.313,0.09 0.001,-1.978 0.682,-0.192 c 0.086,-0.023 0.175,0.032 0.171,0.112 z M 21.329,9.33 21.331,9.824 21.544,9.764 21.543,9.268 Z" id="path68"/>
		<path fill="#ffffff" d="m 22.932,10.449 c 0,0.066 -0.061,0.14 -0.136,0.159 -0.167,0.045 -0.389,0.105 -0.537,0.146 -0.115,0.03 -0.178,-0.028 -0.177,-0.135 l 0.033,-1.672 c 0,-0.065 0.059,-0.146 0.134,-0.168 0.132,-0.035 0.346,-0.093 0.509,-0.139 0.149,-0.04 0.201,0.007 0.199,0.142 z m -0.507,-1.423 -0.021,1.393 0.22,-0.061 0.015,-1.391 z" id="path70"/>
		<polygon fill="#ffffff" points="23.517,9.227 23.727,9.173 23.722,9.466 23.507,9.526 23.49,10.419 23.168,10.505 23.212,8.522 23.749,8.381 23.747,8.673 23.523,8.729 " id="polygon72"/>
		<polygon fill="#ffffff" points="24.312,9.019 24.529,8.964 24.519,9.261 24.305,9.313 24.287,9.915 24.561,9.845 24.549,10.142 23.959,10.292 24.017,8.313 24.603,8.163 24.594,8.457 24.326,8.527 " id="polygon74"/>
		<path fill="#ffffff" d="m 25.501,8.237 -0.326,0.08 -0.035,0.495 0.146,-0.036 c 0.115,-0.028 0.194,0.026 0.188,0.147 L 25.432,9.797 C 25.43,9.865 25.379,9.936 25.31,9.951 l -0.537,0.136 0.015,-0.299 0.318,-0.079 0.027,-0.6 -0.116,0.028 C 24.907,9.161 24.821,9.119 24.826,9.012 l 0.039,-0.785 c 0.006,-0.068 0.059,-0.138 0.131,-0.155 l 0.513,-0.127 z" id="path76"/>
		<path fill="#ffffff" d="M 26.4,8.022 26.071,8.1 26.034,8.594 26.18,8.559 c 0.116,-0.028 0.194,0.029 0.187,0.15 l -0.049,0.874 c -0.005,0.066 -0.057,0.138 -0.124,0.153 l -0.539,0.131 0.018,-0.3 0.32,-0.077 0.031,-0.599 -0.116,0.026 C 25.797,8.941 25.71,8.899 25.72,8.79 L 25.762,8.006 C 25.769,7.942 25.824,7.871 25.895,7.853 L 26.411,7.73 Z" id="path78"/>
		<polygon fill="#ffffff" points="26.688,7.662 27.005,7.588 26.886,9.573 26.569,9.645 " id="polygon80"/>
		<path fill="#ffffff" d="M 27.952,9.209 C 27.947,9.275 27.884,9.344 27.808,9.36 27.639,9.398 27.417,9.45 27.264,9.482 27.147,9.507 27.088,9.447 27.095,9.338 L 27.203,7.67 c 0.003,-0.064 0.066,-0.143 0.141,-0.16 0.134,-0.029 0.349,-0.078 0.516,-0.113 0.15,-0.036 0.201,0.013 0.193,0.147 z m -0.443,-1.445 -0.083,1.39 0.221,-0.049 0.077,-1.389 z" id="path82"/>
		<polygon fill="#ffffff" points="28.575,8.225 28.571,8.225 28.502,9.205 28.18,9.275 28.321,7.297 28.643,7.229 28.786,8.063 28.79,8.062 28.863,7.178 29.177,7.109 29.038,9.091 28.724,9.158 " id="polygon84"/>
		<path fill="#ffffff" d="m 30.109,8.865 -0.321,0.065 0.065,-0.886 -0.215,0.043 -0.075,0.89 -0.322,0.065 0.15,-1.823 C 29.398,7.151 29.49,7.051 29.568,7.036 L 30.26,6.894 Z M 29.704,7.296 29.664,7.79 29.883,7.745 29.91,7.253 Z" id="path86"/>
		<polygon fill="#ffffff" points="30.954,8.699 30.294,8.827 30.457,6.854 30.786,6.793 30.644,8.468 30.976,8.401 " id="polygon88"/>
		<polygon fill="#ffffff" points="32.362,7.556 32.146,7.597 32.044,8.49 31.72,8.55 31.929,6.577 32.256,6.519 32.175,7.3 32.396,7.26 32.469,6.48 32.796,6.417 32.584,8.391 32.264,8.448 " id="polygon90"/>
		<path fill="#ffffff" d="M 33.652,8.089 C 33.645,8.153 33.578,8.218 33.502,8.232 33.331,8.261 33.106,8.3 32.953,8.327 32.835,8.347 32.777,8.282 32.79,8.175 l 0.195,-1.661 c 0.006,-0.063 0.071,-0.138 0.149,-0.15 0.133,-0.025 0.353,-0.061 0.518,-0.09 0.152,-0.025 0.201,0.024 0.186,0.159 z M 33.284,6.621 33.129,8.007 33.354,7.969 33.503,6.585 Z" id="path92"/>
		<path fill="#ffffff" d="M 34.708,6.387 34.387,6.436 34.222,7.82 34.551,7.766 34.512,8.064 34.07,8.135 C 33.963,8.152 33.873,8.086 33.884,7.982 L 34.08,6.32 c 0.011,-0.065 0.076,-0.13 0.153,-0.141 l 0.514,-0.084 z" id="path94"/>
		<polygon fill="#ffffff" points="35.33,7.933 35.155,7.082 35.148,7.082 35.03,7.975 34.703,8.023 34.979,6.063 35.298,6.011 35.19,6.793 35.194,6.79 35.565,5.972 35.893,5.92 35.448,6.951 35.644,7.883 " id="polygon96"/>
		<polygon fill="#ffffff" points="36.317,6.626 36.538,6.594 36.497,6.887 36.278,6.919 36.196,7.513 36.478,7.473 36.432,7.766 35.83,7.854 36.101,5.892 36.699,5.806 36.66,6.097 36.387,6.138 " id="polygon98"/>
		<path fill="#ffffff" d="m 37.538,7.438 c -0.017,0.1 -0.14,0.196 -0.25,0.211 L 36.731,7.725 36.776,7.428 37.231,7.367 37.321,6.77 37.01,6.812 C 36.881,6.831 36.789,6.753 36.803,6.658 l 0.131,-0.881 0.324,-0.044 -0.111,0.773 0.222,-0.028 0.108,-0.774 0.331,-0.046 z" id="path100"/>
		<polygon fill="#ffffff" points="39.001,7.429 38.332,7.511 38.643,5.553 38.977,5.516 38.709,7.176 39.046,7.135 " id="polygon102"/>
		<polygon fill="#ffffff" points="39.729,6.189 39.952,6.164 39.899,6.457 39.682,6.481 39.58,7.071 39.862,7.042 39.807,7.333 39.202,7.4 39.536,5.448 40.136,5.382 40.087,5.67 39.813,5.703 " id="polygon104"/>
		<path fill="#ffffff" d="M 40.938,7.213 40.613,7.245 40.767,6.37 40.545,6.392 40.384,7.27 40.055,7.304 40.39,5.502 C 40.402,5.437 40.503,5.346 40.584,5.339 L 41.285,5.267 Z M 40.692,5.611 40.601,6.098 40.824,6.076 40.901,5.59 Z" id="path106"/>
		<path fill="#ffffff" d="M 42.273,5.455 41.788,5.499 41.506,6.873 41.729,6.852 41.844,6.262 41.75,6.27 41.802,5.979 42.231,5.94 41.994,7.115 41.338,7.175 C 41.226,7.186 41.144,7.084 41.164,6.986 l 0.32,-1.593 C 41.498,5.326 41.568,5.242 41.648,5.234 L 42.32,5.171 Z" id="path108"/>
		<path fill="#ffffff" d="M 43.085,6.881 C 43.069,6.957 43.003,7.026 42.933,7.032 L 42.399,7.075 C 42.289,7.084 42.193,7.026 42.217,6.917 L 42.57,5.15 42.899,5.123 42.567,6.773 42.786,6.755 43.134,5.103 43.452,5.077 Z" id="path110"/>
		<polygon fill="#ffffff" points="43.833,5.812 44.057,5.794 43.993,6.084 43.773,6.101 43.65,6.688 43.932,6.667 43.866,6.957 43.26,7.001 43.668,5.063 44.27,5.02 44.213,5.306 43.935,5.329 " id="polygon112"/>
		<path fill="#a4aaad" d="m 20.601,35.283 c -0.465,-0.485 -3.347,-3.871 -3.919,-4.925 0,0 1.574,0.316 2.512,0.2 -10e-4,0.001 1.451,4.769 1.407,4.725" id="path114"/>
		<path fill="#a4aaad" d="m 10.747,12.19 0.206,2.714 c 0,0 -1.605,1.187 -1.299,2.454 l -0.417,0.257 c 0,0 -0.662,-4.002 -0.531,-4.446 0,0 0.917,-0.579 2.041,-0.979" id="path116"/>
		<path fill="#0d223f" d="M 29.52,21.006 C 0.714,27.163 8.887,18.172 10.266,17.572 c -3.863,2.066 -6.549,4.404 -5.062,7.45 3.072,6.293 24.698,3.263 24.698,3.263 0,0 2.226,-0.213 5.801,-1.297 0,0 -7.886,-5.62 -6.183,-5.982" id="path118"/>
		<path fill="#0d223f" d="m 31.653,17.019 v 0 c -4.729,0.766 -9.784,2.846 -9.709,5.612 0.002,0.06 0.004,0.149 0.579,5.14 l 0.045,0.4 -0.936,2.367 c 0.34,0.33 3.416,0.201 8.239,-0.678 1.053,-0.192 3.84,-0.339 6.39,-1.063 3.579,-1.017 5.438,-2.377 5.677,-4.152 l 0.034,-2.552 0.007,-2.525 c -0.017,-0.648 -0.318,-1.236 -0.87,-1.692 -1.484,-1.23 -5.107,-1.559 -9.456,-0.857" id="path120"/>
		<path fill="#d0202e" d="M 28.963,21.675 C 0.158,27.833 8.608,18.812 9.988,18.213 c -4.441,2.377 -6.709,4.674 -5.16,7.376 3.791,6.616 25.848,3.442 25.848,3.442 -0.486,0.08 3.315,-0.703 4.844,-1.322 0,0 -8.258,-5.671 -6.557,-6.034" id="path122"/>
		<path fill="#d0202e" d="m 31.759,17.678 v 0 c -4.48,0.723 -9.21,2.698 -9.148,4.935 0.002,0.08 0.194,1.789 0.573,5.083 l 0.019,0.165 0.118,0.115 c 0.129,0.124 1.403,1.218 6.552,1.218 1.034,0 3.721,-0.329 6.206,-1.037 3.254,-0.925 5.002,-2.137 5.199,-3.6 l -0.008,0.009 c 0.016,-0.091 0.019,-0.187 0.021,-0.271 l 0.006,-0.547 0.009,-1.658 c 0.006,-0.933 0.009,-1.939 0.009,-2.334 v -0.169 c -0.014,-0.451 -0.231,-0.866 -0.63,-1.196 -1.323,-1.095 -4.825,-1.376 -8.926,-0.713" id="path124"/>
		<path fill="#0d223f" d="m 40.85,19.598 c -0.045,-1.678 -4.132,-2.25 -9.017,-1.463 -4.882,0.789 -8.805,2.787 -8.759,4.465 0.002,0.099 0.972,5.024 0.972,5.024 0,0 0.401,1.206 5.825,1.106 2.014,-0.037 10.552,-1.307 10.946,-4.237 0.022,-0.005 0.037,-4.783 0.033,-4.895" id="path126"/>
		<polygon fill="#ffffff" points="29.704,24.215 27.763,24.209 26.435,24.892 26.097,24.1 24.313,23.857 26.046,23.373 26.271,22.54 27.681,23.034 29.604,22.762 28.741,23.552 " id="polygon128"/>
		<polygon fill="#ffffff" points="36.116,25.317 33.82,25.243 32.274,26.337 31.848,25.003 29.732,24.539 31.764,23.788 31.896,22.625 33.578,23.495 35.948,22.887 34.955,24.177 " id="polygon130"/>
		<path fill="#ffffff" d="m 6.887,23.643 c -0.528,-0.658 -0.602,-2.407 0.16,-3.292 -0.723,2.048 0.088,3.89 4.999,4.566 7.202,0.808 13.725,-1.056 15.432,-1.636 -0.452,0.501 0.8,0.593 -0.931,1.162 -2.1,0.692 -6.299,1.592 -11.311,1.566 -4.882,-0.022 -7.495,-1.301 -8.349,-2.366" id="path132"/>
		<path fill="#ffffff" d="m 5.825,21.253 c -0.646,1.504 -1.025,6.242 11.407,6.151 6.554,-0.39 9.062,-1.103 16.853,-3.591 -0.257,0.28 0.522,0.86 -1.791,1.916 -2.793,0.913 -8.913,2.921 -15.3,2.709 C 5.457,28.63 3.895,23.204 5.825,21.253" id="path134"/>
		<path fill="#ffffff" d="m 24.973,21.552 0.322,0.373 c 0,0 -3.969,2.28 -12.037,1.96 0,0 6.931,-0.414 11.715,-2.333" id="path136"/>
		<path fill="#a4aaad" d="m 40.307,20.052 -0.025,4.606 c 0,0 -0.998,1.718 -3.807,2.035 0,0 2.111,-1.407 2.841,-2.303 0,0 -1.643,0.182 -2.258,0.182 0,0 1.843,-1.198 2.152,-1.832 0,0 -1.999,-0.059 -2.311,-0.021 0,0 3.529,-1.761 3.408,-2.667" id="path138"/>
		<path fill="#a4aaad" d="m 37.759,19.509 c 0.018,0.841 -2.42,1.91 -5.445,2.39 -3.024,0.479 -5.49,0.188 -5.508,-0.653 -0.016,-0.841 2.423,-1.911 5.445,-2.389 3.026,-0.481 5.492,-0.188 5.508,0.652" id="path140"/>
		<path fill="#0d223f" d="m 37.819,19.509 c 0.034,0.892 -1.996,1.961 -4.539,2.391 -2.542,0.43 -4.634,0.057 -4.67,-0.834 -0.035,-0.891 1.995,-1.96 4.539,-2.39 2.543,-0.429 4.633,-0.057 4.67,0.833" id="path142"/>
		<polygon fill="#ffffff" points="26.486,22.123 25.376,22.114 24.618,22.531 24.424,22.04 23.403,21.887 24.393,21.595 24.521,21.081 25.325,21.39 26.423,21.228 25.933,21.712 " id="polygon144"/>
	</g>
</g>
</svg>