<?xml version="1.0" encoding="UTF-8" standalone="no"?>
<!-- Created with Inkscape (http://www.inkscape.org/) -->
<svg
   xmlns:svg="http://www.w3.org/2000/svg"
   xmlns="http://www.w3.org/2000/svg"
   version="1.0"
   width="380"
   height="490"
   id="svg4152"
   xml:space="preserve"><defs
     id="defs4155" /><g
     transform="matrix(3.1858407,0,0,3.1858407,-21.85863,-1053.1246)"
     id="g4866"><path
       d="M 112.8502,333.13993 C 112.8502,333.13993 20.149688,333.13993 20.149688,333.13993 C 14.553198,333.13993 10.00007,337.69282 10.00007,343.2893 C 10.00007,343.2893 10.00007,471.6445 10.00007,471.6445 C 10.00007,477.2407 14.553198,481.79383 20.149688,481.79383 C 20.149688,481.79383 112.8502,481.79383 112.8502,481.79383 C 118.44694,481.79383 123.00007,477.2407 123.00007,471.6445 C 123.00007,471.6445 123.00007,343.2893 123.00007,343.2893 C 123.00007,337.69282 118.44694,333.13993 112.8502,333.13993 z"
       id="path4529"
       style="fill:#ffffff;fill-opacity:1;fill-rule:nonzero;stroke:none" /><path
       d="M 13.018785,343.2893 C 13.018785,339.35105 16.211414,336.15864 20.149688,336.15864 C 20.149688,336.15864 112.8502,336.15864 112.8502,336.15864 C 116.7887,336.15864 119.98136,339.35105 119.98136,343.2893 C 119.98136,343.2893 119.98136,471.6445 119.98136,471.6445 C 119.98136,475.58297 116.7887,478.77511 112.8502,478.77511 C 112.8502,478.77511 20.149688,478.77511 20.149688,478.77511 C 16.211414,478.77511 13.018785,475.58297 13.018785,471.6445 C 13.018785,471.6445 13.018785,343.2893 13.018785,343.2893 C 13.018785,343.2893 13.018785,343.2893 13.018785,343.2893 z"
       id="path4531"
       style="fill:#be0027;fill-opacity:1;fill-rule:nonzero;stroke:none" /><path
       d="M 107.6146,372.1705 C 107.6146,372.1705 107.57286,372.07225 107.57286,372.07225 C 107.57286,372.07225 99.797079,355.09197 98.744156,353.41064 C 97.16456,358.25955 81.053919,370.23123 61.7676,378.08759 C 50.112594,382.83527 39.159172,384.13067 36.805687,381.94673 C 32.169789,377.64464 46.414363,366.36279 62.697204,357.58693 C 73.083605,351.98896 82.635526,348.94987 85.269012,348.12763 C 85.269012,348.12763 85.175699,347.84586 85.175699,347.84586 C 42.832605,357.70239 21.802509,379.08498 25.341813,386.09621 C 28.749641,392.83972 50.216481,390.45034 71.028369,380.92548 C 79.413404,377.0816 85.848306,373.51207 90.143486,370.70783 C 90.85198,370.24135 91.565902,370.01459 92.264087,371.2338 C 93.258493,372.96695 95.217906,377.57636 95.27243,377.7014 C 97.128689,381.80519 90.07965,390.76828 74.210252,398.30671 C 59.557352,405.26244 44.464011,407.84313 37.874363,405.41575 C 36.87325,405.05017 35.898964,404.61583 34.660085,403.36758 C 33.602031,402.30731 32.030982,399.50384 31.52786,398.63369 C 31.52786,398.63369 31.30332,398.75676 31.30332,398.75676 C 33.028617,402.43239 34.685632,405.41866 35.377688,406.13898 C 40.563886,411.52462 60.152133,408.93436 77.914363,400.65845 C 95.224284,392.59081 110.84806,379.11224 107.6146,372.1705 z"
       id="path4533"
       style="fill:#ffffff;fill-opacity:1;fill-rule:nonzero;stroke:none" /><g
       transform="translate(-5.0268817,67.009472)"
       id="g4812"><path
         d="M 78.167905,398.32657 L 111.62483,398.7505 L 111.62582,399.08657 L 78.167905,399.58717 L 63.428815,399.58717 L 29.970905,399.08657 L 29.971665,398.7505 L 63.428815,398.32657 L 78.167905,398.32657 z"
         id="path2602"
         style="fill:#ffffff;fill-opacity:1;fill-rule:nonzero;stroke:none" /><path
         d="M 78.617415,360.58803 C 78.617415,357.53238 77.166265,354.74342 73.899335,354.74342 C 71.168265,354.74342 69.200605,357.18803 69.200605,360.58803 C 69.200605,363.62487 70.613885,366.43257 73.899335,366.43257 C 76.630905,366.43257 78.617415,363.98898 78.617415,360.58803 z M 76.306355,361.16092 C 76.306355,362.61352 76.038715,364.92362 73.995815,364.92362 C 71.703615,364.92362 71.473055,361.60083 71.473055,359.97703 C 71.473055,358.31508 71.950965,356.27078 73.766235,356.27078 C 76.113905,356.27078 76.306355,359.53762 76.306355,361.16092 z"
         id="path2604"
         style="fill:#ffffff;fill-opacity:1;fill-rule:nonzero;stroke:none" /><path
         d="M 110.51853,366.09988 L 103.08822,366.09988 L 103.08822,365.90263 L 104.46651,365.2974 L 104.46651,355.89988 L 103.08822,355.30045 L 103.08822,355.10318 L 108.01361,355.10318 L 108.01361,355.30045 L 106.64253,355.89988 L 106.64398,364.66708 L 110.14286,364.66708 L 111.02244,363.45172 L 111.22504,363.52215 L 110.68973,366.0994 L 110.51853,366.09988 z"
         id="path2606"
         style="fill:#ffffff;fill-opacity:1;fill-rule:nonzero;stroke:none" /><path
         d="M 67.983315,366.09988 L 67.983315,365.90263 L 66.608405,365.2974 L 66.608405,355.89988 L 67.983315,355.30045 L 67.983315,355.10318 L 63.054055,355.10318 L 63.054055,355.30045 L 64.431905,355.89988 L 64.431905,365.2974 L 63.054055,365.90263 L 63.054055,366.09988 L 67.983315,366.09988 z"
         id="path2608"
         style="fill:#ffffff;fill-opacity:1;fill-rule:nonzero;stroke:none" /><path
         d="M 102.58617,366.09988 L 102.58712,365.89878 L 101.14658,365.26698 L 97.676655,355.10318 L 95.882135,355.10318 L 92.177805,365.26698 L 90.806735,365.90263 L 90.806735,366.09988 L 95.234935,366.09988 L 95.234935,365.90263 L 94.035065,365.40347 L 94.947005,362.62512 L 98.039835,362.62512 L 98.970555,365.40347 L 97.776475,365.89878 L 97.774985,366.09988 L 102.58617,366.09988 z M 97.581165,361.26995 L 95.405155,361.26995 L 96.569355,357.92827 L 97.581165,361.26995 z"
         id="path2610"
         style="fill:#ffffff;fill-opacity:1;fill-rule:nonzero;stroke:none" /><path
         d="M 52.877225,366.09988 L 52.879155,365.89878 L 51.438415,365.26698 L 47.968225,355.10318 L 46.173205,355.10318 L 42.469165,365.26698 L 41.097585,365.90263 L 41.097585,366.09988 L 45.526985,366.09988 L 45.526985,365.90263 L 44.326135,365.40347 L 45.238315,362.62512 L 48.331115,362.62512 L 49.262155,365.40347 L 48.067565,365.89878 L 48.066115,366.09988 L 52.877225,366.09988 z M 47.872725,361.26995 L 45.696515,361.26995 L 46.860705,357.92827 L 47.872725,361.26995 z"
         id="path2612"
         style="fill:#ffffff;fill-opacity:1;fill-rule:nonzero;stroke:none" /><path
         d="M 90.647075,355.30045 L 90.647075,355.10318 L 86.076615,355.10318 L 86.076615,355.30045 L 87.305935,355.89988 L 87.305935,361.90705 L 82.857005,355.10318 L 79.418915,355.10318 L 79.418915,355.30045 L 80.796285,355.89988 L 80.796285,365.2998 L 79.411215,365.90263 L 79.411215,366.09988 L 83.864505,366.09988 L 83.864505,365.90263 L 82.647725,365.2974 L 82.647725,358.76262 L 87.362815,366.09988 L 89.158355,366.09988 L 89.158355,355.89988 L 90.647075,355.30045 z"
         id="path2614"
         style="fill:#ffffff;fill-opacity:1;fill-rule:nonzero;stroke:none" /><path
         d="M 40.938685,355.30045 L 40.938685,355.10318 L 36.368455,355.10318 L 36.368455,355.30045 L 37.597035,355.89988 L 37.597035,361.90705 L 33.148605,355.10318 L 29.710455,355.10318 L 29.710455,355.30045 L 31.087615,355.89988 L 31.087615,365.2998 L 29.702505,365.90263 L 29.702505,366.09988 L 34.155765,366.09988 L 34.155765,365.90263 L 32.939005,365.2974 L 32.939005,358.76262 L 37.654655,366.09988 L 39.449625,366.09988 L 39.449625,355.89988 L 40.938685,355.30045 z"
         id="path2616"
         style="fill:#ffffff;fill-opacity:1;fill-rule:nonzero;stroke:none" /><path
         d="M 61.403765,358.07972 L 61.403765,355.10318 L 52.334915,355.10318 L 52.334915,358.07632 L 52.532165,358.07632 L 53.134265,356.70718 L 55.752305,356.70718 L 55.752305,365.2974 L 54.370335,365.90263 L 54.370335,366.09988 L 59.302485,366.09988 L 59.302485,365.89588 L 57.928515,365.2974 L 57.928515,356.70718 L 60.600305,356.70718 L 61.200005,358.07972 L 61.403765,358.07972 z"
         id="path2618"
         style="fill:#ffffff;fill-opacity:1;fill-rule:nonzero;stroke:none" /><path
         d="M 39.926155,389.84585 L 29.994055,389.84585 L 29.994055,389.58252 L 31.836315,388.7743 L 31.836315,376.21212 L 29.994055,375.40862 L 29.994055,375.14725 L 36.578015,375.14725 L 36.578015,375.40862 L 34.744905,376.21212 L 34.746805,387.9322 L 39.424605,387.9322 L 40.599855,386.30698 L 40.871615,386.40048 L 40.155435,389.84585 L 39.926155,389.84585 z"
         id="path2620"
         style="fill:#ffffff;fill-opacity:1;fill-rule:nonzero;stroke:none" /><path
         d="M 111.25351,386.40048 L 110.98247,386.30791 L 109.74113,387.9332 L 105.13064,387.9332 L 105.13064,383.2349 L 107.88292,383.2349 L 108.61259,384.63928 L 108.88362,384.63928 L 108.88362,379.89277 L 108.61259,379.89277 L 107.88292,381.3483 L 105.13064,381.3483 L 105.13064,377.03487 L 109.56413,377.03487 L 110.31257,378.82118 L 110.58844,378.82118 L 110.58844,375.14725 L 100.38074,375.14725 L 100.38074,375.40862 L 102.22102,376.21212 L 102.22102,388.7743 L 100.37692,389.58347 L 100.37692,389.84585 L 110.53824,389.84585 L 111.25351,386.40048 z"
         id="path2622"
         style="fill:#ffffff;fill-opacity:1;fill-rule:nonzero;stroke:none" /><path
         d="M 53.430635,386.40048 L 53.160065,386.30791 L 51.918005,387.9332 L 47.307715,387.9332 L 47.307715,383.2349 L 50.060055,383.2349 L 50.789955,384.63928 L 51.060765,384.63928 L 51.060765,379.89277 L 50.789955,379.89277 L 50.060055,381.3483 L 47.307715,381.3483 L 47.307715,377.03487 L 51.741515,377.03487 L 52.489955,378.82118 L 52.765835,378.82118 L 52.765835,375.14725 L 42.558125,375.14725 L 42.558125,375.40862 L 44.398205,376.21212 L 44.398205,388.7743 L 42.554025,389.58347 L 42.554025,389.84585 L 52.715655,389.84585 L 53.430635,386.40048 z"
         id="path2624"
         style="fill:#ffffff;fill-opacity:1;fill-rule:nonzero;stroke:none" /><path
         d="M 83.321905,383.04008 L 83.321905,382.7768 L 77.864105,382.7768 L 77.864105,383.03523 L 79.317615,383.62842 C 79.317615,383.62842 79.317615,388.13762 79.317615,388.13762 C 78.756765,388.31512 78.169815,388.39133 77.582405,388.39133 C 75.694365,388.39133 73.729105,386.57993 73.729105,382.21637 C 73.729105,378.03123 76.026655,376.68857 78.041525,376.67697 C 79.049005,376.67122 80.048765,377.07443 80.493905,377.2982 C 80.493905,377.2982 81.335455,379.29763 81.335455,379.29763 L 81.588655,379.29763 C 81.588655,379.29763 81.588655,375.40187 81.588655,375.40187 C 80.465405,375.018 79.291105,374.68716 78.093615,374.68716 C 74.163635,374.68716 70.716105,377.6223 70.716105,382.31762 C 70.716105,387.85598 73.600815,390.27988 77.531305,390.27988 C 79.190305,390.27988 81.258285,389.59217 81.869805,389.25945 C 81.869805,389.25945 81.869805,383.77407 81.869805,383.77407 L 83.321905,383.04008 z"
         id="path2626"
         style="fill:#ffffff;fill-opacity:1;fill-rule:nonzero;stroke:none" /><path
         d="M 70.332955,389.84585 L 70.336105,389.5768 L 68.409665,388.73378 L 63.770735,375.14725 L 61.371205,375.14725 L 56.419475,388.73378 L 54.586155,389.58347 L 54.586155,389.84585 L 60.505985,389.84585 L 60.505985,389.58347 L 58.901515,388.91605 L 60.121375,385.20157 L 64.256125,385.20157 L 65.500865,388.91605 L 63.903835,389.5768 L 63.901915,389.84585 L 70.332955,389.84585 z M 63.642955,383.38925 L 60.733655,383.38925 L 62.289705,378.92337 L 63.642955,383.38925 z"
         id="path2628"
         style="fill:#ffffff;fill-opacity:1;fill-rule:nonzero;stroke:none" /><path
         d="M 99.188065,375.40862 L 99.188065,375.14725 L 93.137535,375.14725 L 93.137535,375.40862 L 94.771955,376.21212 C 94.771955,376.21212 94.771955,385.12447 94.771955,385.12447 C 94.771955,386.73328 93.723975,388.16272 92.066375,388.16272 C 90.406925,388.16272 89.335855,386.57993 89.335855,385.12447 C 89.335855,385.12447 89.335855,376.18892 89.335855,376.18892 L 90.962005,375.40862 L 90.962005,375.14725 L 84.580165,375.14725 L 84.580165,375.40862 L 86.424805,376.21212 C 86.424805,376.21212 86.424805,385.12447 86.424805,385.12447 C 86.424805,388.34117 88.826515,390.15258 92.066375,390.15258 C 94.923885,390.15258 97.350155,388.03348 97.350155,385.12447 C 97.350155,385.12447 97.350155,376.21212 97.350155,376.21212 L 99.188065,375.40862 z"
         id="path2630"
         style="fill:#ffffff;fill-opacity:1;fill-rule:nonzero;stroke:none" /></g></g></svg>