<?xml version="1.0" encoding="UTF-8" standalone="no"?>
<svg xmlns:rdf="http://www.w3.org/1999/02/22-rdf-syntax-ns#" xmlns="http://www.w3.org/2000/svg" height="276.95996" width="221.88" version="1.1" xmlns:cc="http://creativecommons.org/ns#" xmlns:dc="http://purl.org/dc/elements/1.1/" viewBox="0 0 221.88 276.95996"><defs><clipPath id="clip-path"><rect width="222" height="276.96002" fill="none"/></clipPath><clipPath id="clip-path-2"><rect x="142.68001" y="265.32001" width="9.71999" height="11.64001" fill="none"/></clipPath><clipPath id="clip-path-3"><rect x="154.67999" y="265.32001" width="11.64" height="11.64001" fill="none"/></clipPath></defs><title>United States Hockey League logo</title><g clip-path="url(#clip-path)"><path d="M212.52,214.2,110.88,265.8,9.36,214.2V9.36H212.52ZM0,0V219.96l5.04,2.52,101.64,51.6,4.2,2.16,4.32-2.16,101.52-51.6,5.16-2.52V0Z"/><path d="M21.48,21.72H109.2L95.04,65.4H43.44L66.48,82.2h-45Zm178.92,0V82.2h-45l22.92-16.8H126.84L112.56,21.72Zm-3.36,117.72H161.52L174.84,95.4l-1.44-3.24h13.08l-11.76,39h21.6l4.08-2.64Zm1.8,63.24L174.12,214.8V150.36h24.72Zm-57.96-63.24,6-19.8h-18.6l-6,19.8H111.6l13.44-44.28-1.8-3h13.32L130.8,111.48h18.48L155.16,92.16h10.68l-14.28,47.28Zm7.8,87.84L125.16,238.8V150.36h23.52ZM87.6,109.56a7.64822,7.64822,0,0,0,4.44,1.8l6.24.84c4.8.6,7.68,1.8,9.36,3.72,2.28,2.28,2.52,5.75995,1.2,9.96-2.76,9.12-13.2,14.4-24.6,14.4-8.28,0-14.16-1.56006-18.12-6.24l6.96-4.8,1.8-1.2c2.52,3,6.96,3.96,12,3.96,6.24,0,10.32-2.04,11.4-5.88.6-1.68.48-3-.48-3.96-.72-.84-1.92-1.32007-4.32-1.68005l-6.36-.72c-4.56-.6-7.56-1.92-9.48-3.96-1.92-2.28-2.28-5.28-1.08-9.24,2.52-8.52,11.64-14.4,23.4-14.4,7.56,0,12.6,1.55994,16.08,5.52l-8.52,5.76c-2.64-2.88-6.6-3.24-10.2-3.24-5.76,0-9.36,2.76-10.32,6A3.40315,3.40315,0,0,0,87.6,109.56Zm12,130.56L74.04,227.64V150.36H99.6ZM61.08,139.68H46.8s-6,.12-9.48.12c-11.28,0-18.12-6.6-15.12-16.56L30.6,95.4l-1.56-3.24h13.2L33,122.88c-1.68,5.52,1.08,8.76,6.84,8.76a12.06315,12.06315,0,0,0,11.64-7.56l9.6-31.68h.12l.12-.24H71.88v.24l-9.36,30.84-4.08,13.32Zm-12.6,75.48L22.92,202.68V150.36H48.48ZM9.36,214.2l101.52,51.6,101.64-51.6V9.36H9.36Z" fill="#fff"/><polygon points="22.92 202.68 48.48 215.16 48.48 150.36 22.92 150.36 22.92 202.68" fill="#c6093b"/><polygon points="74.04 227.64 99.6 240.12 99.6 150.36 74.04 150.36 74.04 227.64" fill="#c6093b"/><polygon points="174.12 214.8 198.84 202.68 198.84 150.36 174.12 150.36 174.12 214.8" fill="#c6093b"/><polygon points="125.16 238.8 148.68 227.28 148.68 150.36 125.16 150.36 125.16 238.8" fill="#c6093b"/><polygon points="43.44 65.4 95.04 65.4 109.2 21.72 21.48 21.72 21.48 82.2 66.48 82.2 43.44 65.4"/><polygon points="178.32 65.4 155.4 82.2 200.4 82.2 200.4 21.72 112.56 21.72 126.84 65.4 178.32 65.4"/><path d="M71.88,92.4V92.16H61.32L61.2,92.4h-.12L51.48,124.08A12.06312,12.06312,0,0,1,39.84,131.64c-5.76,0-8.52-3.24-6.84-8.76l9.24-30.72H29.04L30.6,95.4l-8.4,27.84c-3,9.96,3.84,16.56,15.12,16.56,3.48,0,9.48-.12,9.48-.12H61.08l-2.64-3.12,4.08-13.32Z"/><path d="M97.32,100.2c3.6,0,7.56.36,10.2,3.24l8.52-5.76c-3.48-3.96-8.52-5.52-16.08-5.52-11.76,0-20.88,5.87994-23.4,14.4-1.2,3.96-.84,6.96,1.08,9.24,1.92,2.04,4.92,3.36,9.48,3.96l6.36.72c2.4.36,3.6.84,4.32,1.68005.96.96,1.08,2.28.48,3.96-1.08,3.84-5.16,5.88-11.4,5.88-5.04,0-9.48-.96-12-3.96l-1.8,1.2-6.96,4.8c3.96,4.67993,9.84,6.24,18.12,6.24,11.4,0,21.84-5.28,24.6-14.4,1.32-4.2,1.08-7.68-1.2-9.96-1.68-1.92-4.56-3.12-9.36-3.72l-6.24-.84a7.64825,7.64825,0,0,1-4.44-1.8,3.40314,3.40314,0,0,1-.6-3.36C87.96,102.96,91.56,100.2,97.32,100.2Z"/><polygon points="174.72 131.16 186.48 92.16 173.52 92.16 174.84 95.4 161.52 139.44 197.04 139.44 200.4 128.52 196.32 131.16 174.72 131.16"/><polygon points="155.16 92.16 149.28 111.48 130.8 111.48 136.56 92.16 123.24 92.16 125.04 95.16 111.6 139.44 122.28 139.44 128.28 119.64 146.88 119.64 140.88 139.44 151.56 139.44 165.84 92.16 155.16 92.16"/></g><g clip-path="url(#clip-path-2)"><polygon points="142.68 267.72 146.16 267.72 146.16 276.96 148.8 276.96 148.8 267.72 152.28 267.72 152.28 265.32 142.68 265.32 142.68 267.72"/></g><g clip-path="url(#clip-path-3)"><polygon points="160.56 270.24 157.44 265.32 154.68 265.32 154.68 276.96 157.2 276.96 157.2 269.16 160.32 274.2 160.56 274.2 163.8 269.16 163.8 276.96 166.2 276.96 166.2 265.32 163.56 265.32 160.56 270.24"/></g></svg>