<?xml version="1.0" encoding="UTF-8"?>
<!DOCTYPE svg PUBLIC "-//W3C//DTD SVG 1.1//EN" "http://www.w3.org/Graphics/SVG/1.1/DTD/svg11.dtd">
<svg version="1.2" width="58.71mm" height="73.28mm" viewBox="5790 11750 5871 7328" preserveAspectRatio="xMidYMid" fill-rule="evenodd" stroke-width="28.222" stroke-linejoin="round" xmlns="http://www.w3.org/2000/svg" xmlns:ooo="http://xml.openoffice.org/svg/export" xmlns:xlink="http://www.w3.org/1999/xlink" xmlns:presentation="http://sun.com/xmlns/staroffice/presentation" xmlns:smil="http://www.w3.org/2001/SMIL20/" xmlns:anim="urn:oasis:names:tc:opendocument:xmlns:animation:1.0" xml:space="preserve">
 <defs class="EmbeddedBulletChars">
  <g id="bullet-char-template-57356" transform="scale(0.00048828125,-0.00048828125)">
   <path d="M 580,1141 L 1163,571 580,0 -4,571 580,1141 Z"/>
  </g>
  <g id="bullet-char-template-57354" transform="scale(0.00048828125,-0.00048828125)">
   <path d="M 8,1128 L 1137,1128 1137,0 8,0 8,1128 Z"/>
  </g>
  <g id="bullet-char-template-10146" transform="scale(0.00048828125,-0.00048828125)">
   <path d="M 174,0 L 602,739 174,1481 1456,739 174,0 Z M 1358,739 L 309,1346 659,739 1358,739 Z"/>
  </g>
  <g id="bullet-char-template-10132" transform="scale(0.00048828125,-0.00048828125)">
   <path d="M 2015,739 L 1276,0 717,0 1260,543 174,543 174,936 1260,936 717,1481 1274,1481 2015,739 Z"/>
  </g>
  <g id="bullet-char-template-10007" transform="scale(0.00048828125,-0.00048828125)">
   <path d="M 0,-2 C -7,14 -16,27 -25,37 L 356,567 C 262,823 215,952 215,954 215,979 228,992 255,992 264,992 276,990 289,987 310,991 331,999 354,1012 L 381,999 492,748 772,1049 836,1024 860,1049 C 881,1039 901,1025 922,1006 886,937 835,863 770,784 769,783 710,716 594,584 L 774,223 C 774,196 753,168 711,139 L 727,119 C 717,90 699,76 672,76 641,76 570,178 457,381 L 164,-76 C 142,-110 111,-127 72,-127 30,-127 9,-110 8,-76 1,-67 -2,-52 -2,-32 -2,-23 -1,-13 0,-2 Z"/>
  </g>
  <g id="bullet-char-template-10004" transform="scale(0.00048828125,-0.00048828125)">
   <path d="M 285,-33 C 182,-33 111,30 74,156 52,228 41,333 41,471 41,549 55,616 82,672 116,743 169,778 240,778 293,778 328,747 346,684 L 369,508 C 377,444 397,411 428,410 L 1163,1116 C 1174,1127 1196,1133 1229,1133 1271,1133 1292,1118 1292,1087 L 1292,965 C 1292,929 1282,901 1262,881 L 442,47 C 390,-6 338,-33 285,-33 Z"/>
  </g>
  <g id="bullet-char-template-9679" transform="scale(0.00048828125,-0.00048828125)">
   <path d="M 813,0 C 632,0 489,54 383,161 276,268 223,411 223,592 223,773 276,916 383,1023 489,1130 632,1184 813,1184 992,1184 1136,1130 1245,1023 1353,916 1407,772 1407,592 1407,412 1353,268 1245,161 1136,54 992,0 813,0 Z"/>
  </g>
  <g id="bullet-char-template-8226" transform="scale(0.00048828125,-0.00048828125)">
   <path d="M 346,457 C 273,457 209,483 155,535 101,586 74,649 74,723 74,796 101,859 155,911 209,963 273,989 346,989 419,989 480,963 531,910 582,859 608,796 608,723 608,648 583,586 532,535 482,483 420,457 346,457 Z"/>
  </g>
  <g id="bullet-char-template-8211" transform="scale(0.00048828125,-0.00048828125)">
   <path d="M -4,459 L 1135,459 1135,606 -4,606 -4,459 Z"/>
  </g>
  <g id="bullet-char-template-61548" transform="scale(0.00048828125,-0.00048828125)">
   <path d="M 173,740 C 173,903 231,1043 346,1159 462,1274 601,1332 765,1332 928,1332 1067,1274 1183,1159 1299,1043 1357,903 1357,740 1357,577 1299,437 1183,322 1067,206 928,148 765,148 601,148 462,206 346,322 231,437 173,577 173,740 Z"/>
  </g>
 </defs>
 <g class="Page">
  <g class="Graphic">
   <title>United States Hockey League logo
   </title>
   <g id="id3">
    <rect class="BoundingBox" stroke="none" fill="none" x="5790" y="11750" width="5871" height="7328"/>
    <defs>
     <clipPath id="clip_path_1" clipPathUnits="userSpaceOnUse">
      <path d="M 5790,11750 L 11660,11750 11660,19077 5790,19077 5790,11750 Z"/>
     </clipPath>
    </defs>
    <g clip-path="url(#clip_path_1)">
     <path fill="rgb(0,0,0)" stroke="none" d="M 11412,17417 L 8723,18782 6038,17417 6038,11998 11412,11998 11412,17417 Z M 5790,11750 L 5790,17569 5923,17636 8612,19001 8723,19058 8838,19001 11523,17636 11660,17569 11660,11750 5790,11750 Z"/>
     <path fill="rgb(255,255,255)" stroke="none" d="M 6358,12325 L 8679,12325 8304,13480 6939,13480 7549,13925 6358,13925 6358,12325 Z M 11092,12325 L 11092,13925 9901,13925 10508,13480 9146,13480 8768,12325 11092,12325 Z M 11003,15439 L 10063,15439 10416,14274 10377,14188 10723,14188 10412,15220 10984,15220 11092,15150 11003,15439 Z M 11050,17112 L 10396,17433 10396,15728 11050,15728 11050,17112 Z M 9517,15439 L 9676,14915 9184,14915 9025,15439 8742,15439 9098,14267 9050,14188 9403,14188 9250,14699 9739,14699 9895,14188 10177,14188 9800,15439 9517,15439 Z M 9723,17763 L 9101,18067 9101,15728 9723,15728 9723,17763 Z M 8137,14669 C 8164,14685 8194,14694 8225,14696 L 8390,14718 C 8517,14734 8593,14766 8638,14817 8698,14877 8704,14969 8669,15080 8596,15321 8320,15461 8019,15461 7800,15461 7644,15420 7539,15296 L 7723,15169 7771,15137 C 7838,15217 7955,15242 8088,15242 8254,15242 8361,15188 8390,15087 8406,15042 8403,15007 8377,14982 8358,14960 8327,14947 8263,14937 L 8095,14918 C 7974,14902 7895,14867 7844,14813 7793,14753 7784,14674 7815,14569 7882,14344 8123,14188 8435,14188 8635,14188 8768,14229 8860,14334 L 8635,14487 C 8565,14410 8460,14401 8365,14401 8212,14401 8117,14474 8092,14560 8088,14569 8086,14580 8086,14590 8086,14606 8090,14622 8098,14635 8101,14640 8104,14644 8108,14648 8117,14656 8127,14663 8137,14669 Z M 8425,18102 L 7749,17772 7749,15728 8425,15728 8425,18102 Z M 7406,15445 L 7028,15445 C 7028,15445 6869,15448 6777,15448 6479,15448 6298,15274 6377,15010 L 6600,14274 6558,14188 6907,14188 6663,15001 C 6619,15147 6692,15233 6844,15233 6848,15233 6852,15233 6856,15233 6912,15233 6967,15218 7015,15190 7064,15162 7104,15122 7132,15073 7140,15060 7146,15047 7152,15033 L 7406,14194 7409,14194 7412,14188 7692,14188 7692,14194 7444,15010 7336,15363 7406,15445 Z M 7073,17442 L 6396,17112 6396,15728 7073,15728 7073,17442 Z M 6038,17417 L 8723,18782 11412,17417 11412,11998 6038,11998 6038,17417 Z"/>
     <path fill="rgb(198,9,59)" stroke="none" d="M 6396,17112 L 7073,17442 7073,15728 6396,15728 6396,17112 6396,17112 Z"/>
     <path fill="rgb(198,9,59)" stroke="none" d="M 7749,17772 L 8425,18102 8425,15728 7749,15728 7749,17772 7749,17772 Z"/>
     <path fill="rgb(198,9,59)" stroke="none" d="M 10396,17433 L 11050,17112 11050,15728 10396,15728 10396,17433 10396,17433 Z"/>
     <path fill="rgb(198,9,59)" stroke="none" d="M 9101,18067 L 9723,17763 9723,15728 9101,15728 9101,18067 9101,18067 Z"/>
     <path fill="rgb(0,0,0)" stroke="none" d="M 6939,13480 L 8304,13480 8679,12325 6358,12325 6358,13925 7549,13925 6939,13480 6939,13480 Z"/>
     <path fill="rgb(0,0,0)" stroke="none" d="M 10508,13480 L 9901,13925 11092,13925 11092,12325 8768,12325 9146,13480 10508,13480 10508,13480 Z"/>
     <path fill="rgb(0,0,0)" stroke="none" d="M 7692,14194 L 7692,14188 7412,14188 7409,14194 7406,14194 7152,15033 C 7146,15047 7140,15060 7132,15073 7104,15122 7064,15162 7015,15190 6967,15218 6912,15233 6856,15233 6852,15233 6848,15233 6844,15233 6692,15233 6619,15147 6663,15001 L 6907,14188 6558,14188 6600,14274 6377,15010 C 6298,15274 6479,15448 6777,15448 6869,15448 7028,15445 7028,15445 L 7406,15445 7336,15363 7444,15010 7692,14194 Z"/>
     <path fill="rgb(0,0,0)" stroke="none" d="M 8365,14401 C 8460,14401 8565,14410 8635,14487 L 8860,14334 C 8768,14229 8635,14188 8435,14188 8123,14188 7882,14344 7815,14569 7784,14674 7793,14753 7844,14813 7895,14867 7974,14902 8095,14918 L 8263,14937 C 8327,14947 8358,14960 8377,14982 8403,15007 8406,15042 8390,15087 8361,15188 8254,15242 8088,15242 7955,15242 7838,15217 7771,15137 L 7723,15169 7539,15296 C 7644,15420 7800,15461 8019,15461 8320,15461 8596,15321 8669,15080 8704,14969 8698,14877 8638,14817 8593,14766 8517,14734 8390,14718 L 8225,14696 C 8194,14694 8164,14685 8137,14669 8127,14663 8117,14656 8108,14648 8104,14644 8101,14640 8098,14635 8090,14622 8086,14606 8086,14590 8086,14580 8088,14569 8092,14560 8117,14474 8212,14401 8365,14401 Z"/>
     <path fill="rgb(0,0,0)" stroke="none" d="M 10412,15220 L 10723,14188 10381,14188 10416,14274 10063,15439 11003,15439 11092,15150 10984,15220 10412,15220 10412,15220 Z"/>
     <path fill="rgb(0,0,0)" stroke="none" d="M 9895,14188 L 9739,14699 9250,14699 9403,14188 9050,14188 9098,14267 8742,15439 9025,15439 9184,14915 9676,14915 9517,15439 9800,15439 10177,14188 9895,14188 9895,14188 Z"/>
    </g>
    <defs>
     <clipPath id="clip_path_2" clipPathUnits="userSpaceOnUse">
      <path d="M 9565,18769 L 9819,18769 9819,19077 9565,19077 9565,18769 Z"/>
     </clipPath>
    </defs>
    <g clip-path="url(#clip_path_2)">
     <path fill="rgb(0,0,0)" stroke="none" d="M 9565,18833 L 9657,18833 9657,19077 9727,19077 9727,18833 9819,18833 9819,18769 9565,18769 9565,18833 9565,18833 Z"/>
    </g>
    <g clip-path="url(#clip_path_1)"/>
    <defs>
     <clipPath id="clip_path_3" clipPathUnits="userSpaceOnUse">
      <path d="M 9882,18769 L 10187,18769 10187,19077 9882,19077 9882,18769 Z"/>
     </clipPath>
    </defs>
    <g clip-path="url(#clip_path_3)">
     <path fill="rgb(0,0,0)" stroke="none" d="M 10038,18899 L 9955,18769 9882,18769 9882,19077 9949,19077 9949,18871 10031,19004 10038,19004 10123,18871 10123,19077 10187,19077 10187,18769 10117,18769 10038,18899 10038,18899 Z"/>
    </g>
    <g clip-path="url(#clip_path_1)"/>
   </g>
  </g>
 </g>
</svg>