<?xml version="1.0" encoding="utf-8"?>
<!-- Generator: Adobe Illustrator 16.0.0, SVG Export Plug-In . SVG Version: 6.00 Build 0)  -->
<!DOCTYPE svg PUBLIC "-//W3C//DTD SVG 1.1//EN" "http://www.w3.org/Graphics/SVG/1.1/DTD/svg11.dtd">
<svg version="1.1" id="Layer_1" xmlns="http://www.w3.org/2000/svg" xmlns:xlink="http://www.w3.org/1999/xlink" x="0px" y="0px"
	 width="1000px" height="220.555px" viewBox="-194 285.723 1000 220.555" enable-background="new -194 285.723 1000 220.555"
	 xml:space="preserve">
<g>
	<g>
		<path fill="#878787" d="M382.857,478.257v-0.005h-7.386c-0.012,0-0.024-0.003-0.038-0.003c-0.731,0-1.359,0.446-1.636,1.079
			l-0.004-0.003c-4.117,9.647-13.596,16.399-24.636,16.399c-14.819,0-26.83-12.16-26.83-27.165c0-14.999,12.011-27.164,26.83-27.164
			c11.037,0,20.519,6.752,24.633,16.398l0.007-0.003c0.276,0.633,0.899,1.073,1.626,1.079v0.003h7.348
			c0.981-0.012,1.777-0.818,1.777-1.815c0-0.251-0.051-0.492-0.143-0.708c-5.011-14.834-18.899-25.501-35.248-25.501
			c-20.571,0-37.25,16.884-37.25,37.711c0,20.831,16.679,37.715,37.25,37.715c16.349,0,30.237-10.668,35.248-25.499
			c0.092-0.218,0.143-0.459,0.143-0.71C384.549,479.1,383.799,478.31,382.857,478.257"/>
		<path fill="#878787" d="M452.926,433.153c0-1.023-0.819-1.853-1.829-1.853c-0.086,0-0.169,0.013-0.253,0.023
			c-0.004-0.009-0.01-0.016-0.013-0.023h-6.468v0.001c-0.949,0.026-1.71,0.782-1.771,1.731c0,0-0.008,0.003-0.013,0v29.52h-31.333
			v-29.329c-0.003,0-0.005,0-0.008,0.003c0.003-0.025,0.008-0.049,0.008-0.073c0-1.005-0.79-1.815-1.772-1.848v-0.005h-6.723h0.004
			c-0.01,0-0.015,0-0.023,0c-0.969,0-1.754,0.764-1.82,1.728c-0.001-0.002-0.006,0-0.01,0v71.034
			c0.005,0.001,0.014,0.008,0.018,0.01c0.103,0.93,0.868,1.655,1.813,1.655c0.033,0,0.064-0.011,0.097-0.013l0.005,0.013h6.542
			v-0.006c0.014,0,0.028,0.006,0.041,0.006c0.972,0,1.757-0.77,1.82-1.735l0.01-0.004v-30.335h31.333v30.451
			c0.008-0.001,0.015,0.005,0.015,0.005c0.124,0.908,0.884,1.618,1.815,1.618c0.009,0,0.02-0.003,0.031-0.006v0.006h6.486
			l0.001-0.018c0.056,0.005,0.11,0.018,0.168,0.018c0.946,0,1.713-0.732,1.81-1.66c0.007,0,0.014-0.005,0.02-0.004v-70.905V433.153z
			"/>
		<path fill="#878787" d="M600.43,433.153c0-1.023-0.82-1.853-1.83-1.853c-0.034,0-0.07,0.008-0.104,0.01l-0.003-0.005v-0.005
			h-6.674l-0.005,0.005c-0.032,0.003-0.065-0.005-0.099-0.005c-1.009,0-1.825,0.824-1.83,1.842v50.928l-32.834-51.907
			c-0.004,0-0.005,0-0.005,0c-0.326-0.517-0.896-0.862-1.546-0.862c-0.043,0-0.084,0.01-0.125,0.013l-0.005-0.013h-7.57
			c-0.005,0-0.006,0-0.006,0c-0.945,0-1.714,0.723-1.814,1.652c-0.007-0.004-0.012,0-0.02,0v70.998c0,0,0.005,0.001,0.008,0.001
			c0.043,0.985,0.839,1.775,1.822,1.775c0.015,0,0.026-0.006,0.037-0.006h6.799c0.019,0,0.032,0.006,0.049,0.006
			c0.961,0,1.741-0.757,1.817-1.711c0.001,0,0.006,0,0.015,0V452.77l32.797,52.034h0.001c0.307,0.529,0.864,0.894,1.509,0.913v0.005
			h0.027c0.014,0,0.026,0.006,0.038,0.006c0.013,0,0.026-0.006,0.039-0.006h7.572v-0.005c0.036,0,0.07,0.011,0.108,0.011
			c1.003,0,1.813-0.817,1.828-1.827h0.002v-70.728l-0.002-0.002L600.43,433.153z"/>
		<path fill="#878787" d="M676.777,433.153c0-1.023-0.82-1.853-1.83-1.853c-0.034,0-0.067,0.008-0.104,0.01l-0.001-0.009v-0.001
			h-6.677l-0.004,0.005c-0.032,0.003-0.065-0.005-0.098-0.005c-1.007,0-1.825,0.824-1.83,1.842v50.928l-32.835-51.907
			c-0.002,0-0.005,0-0.005,0c-0.326-0.517-0.896-0.862-1.546-0.862c-0.042,0-0.08,0.01-0.125,0.013l-0.005-0.013h-7.569
			c0,0-0.007,0-0.011,0c-0.94,0-1.708,0.723-1.809,1.652h-0.021v70.998c0,0,0.004,0.001,0.008,0.001
			c0.043,0.985,0.838,1.775,1.821,1.775c0.017,0,0.026-0.006,0.038-0.006h6.8c0.017,0,0.032,0.006,0.047,0.006
			c0.961,0,1.742-0.757,1.817-1.711c0.005,0,0.01,0,0.015,0V452.77l32.797,52.034h0.003c0.305,0.529,0.862,0.894,1.507,0.913v0.005
			h0.028c0.016,0,0.026,0.006,0.039,0.006c0.012,0,0.024-0.006,0.038-0.006h7.571l-0.001-0.007c0.038,0.002,0.071,0.013,0.111,0.013
			c1.001,0,1.812-0.817,1.826-1.827h0.004v-70.728v-0.002v-0.018H676.777z"/>
		<path fill="#878787" d="M532.178,503.377c0.005,0,0.01-0.003,0.014-0.005l-0.067-0.171c-0.01-0.024-0.017-0.051-0.028-0.075
			l-27.464-70.634c-0.265-0.697-0.925-1.191-1.704-1.191c0,0-0.005,0.001-0.008,0.001l-0.002-0.001h-6.409v0.001
			c-0.774,0.022-1.425,0.528-1.672,1.229h-0.004l-27.446,70.596c-0.014,0.024-0.021,0.051-0.031,0.078l-0.064,0.159
			c0.007,0.002,0.009,0.006,0.009,0.006c-0.041,0.163-0.074,0.329-0.074,0.506c0,1.022,0.819,1.853,1.83,1.853
			c0.009,0,0.018-0.003,0.026-0.003v0.003h6.967c-0.002-0.003-0.002-0.005-0.002-0.005c0.023-0.003,0.045,0.005,0.067,0.005
			c0.842,0,1.54-0.575,1.758-1.354l6.714-17.274h30.309l6.716,17.274c0.216,0.778,0.916,1.354,1.755,1.354
			c0,0,0.015-0.003,0.025-0.003v0.003h6.968l0.003-0.008c0.02,0.003,0.039,0.008,0.062,0.008c1.011,0,1.831-0.83,1.831-1.853
			C532.254,503.7,532.224,503.536,532.178,503.377 M488.679,476.573l11.061-28.45l11.063,28.45H488.679z"/>
		<path fill="#878787" d="M739.747,441.471L739.747,441.471c0.003-0.001,0.005,0,0.005,0c0.93,0,1.682-0.725,1.75-1.645
			c0.003,0,0.008-0.005,0.013-0.005v-0.126v-0.004v-0.001v-6.527l-0.005-0.003c-0.004-0.025,0.005-0.053,0.005-0.081
			c0-0.982-0.787-1.777-1.756-1.777h-0.014h-41.394v0.004c-0.954,0.022-1.718,0.805-1.718,1.773c0,0.036,0.007,0.065,0.01,0.099
			c-0.005-0.002-0.009-0.002-0.01-0.002v70.863c0,0,0.005,0.004,0.01,0.005c0.048,0.935,0.805,1.679,1.738,1.684h41.425v-0.005
			c0.945-0.029,1.708-0.808,1.708-1.775l-0.003-0.017l0.003-0.003v-7.537c-0.005-0.979-0.79-1.77-1.756-1.771h-32.232v-21.533
			h31.378c0,0,0.004-0.002,0.005-0.006c0.017,0,0.031,0.006,0.046,0.006c0.971,0,1.755-0.792,1.758-1.771h0.002v-6.565l-0.005,0.002
			c0-0.02,0.005-0.038,0.005-0.058c0-0.982-0.787-1.778-1.76-1.778l-0.005,0.002v-0.002h-31.424v-21.444H739.747z"/>
		<path fill="#878787" d="M806,496.357c0-0.959-0.77-1.738-1.715-1.738c-0.011,0-0.019,0.002-0.019,0.002l-0.01-0.002h-32.244
			v-61.55h-0.003c0,0,0.003-0.018,0.003-0.031c0-0.959-0.768-1.737-1.717-1.737c-0.015,0-0.028,0.001-0.039,0.005v-0.005h-7.449
			l-0.004,0.001c-0.888,0.019-1.604,0.717-1.672,1.604c0,0-0.008,0.002-0.013,0.002v0.131v70.95v0.12c0.005,0,0.01,0.001,0.01,0.001
			c0.066,0.895,0.785,1.601,1.68,1.615v0.003h41.313l0.005-0.018c0.053,0.007,0.104,0.018,0.158,0.018
			c0.926,0,1.675-0.744,1.71-1.675H806v-7.57c-0.002,0-0.007,0-0.007,0C805.993,496.441,806,496.4,806,496.357"/>
		<path fill="#878787" d="M-156.321,429.983c-20.81,0-37.679,17.079-37.679,38.146c0,21.065,16.869,38.145,37.679,38.145
			c20.809,0,37.678-17.079,37.678-38.145C-118.644,447.063-135.512,429.983-156.321,429.983 M-156.321,488.846
			c-11.301,0-20.463-9.275-20.463-20.716c0-11.442,9.162-20.718,20.463-20.718c11.3,0,20.462,9.275,20.462,20.718
			C-135.859,479.57-145.021,488.846-156.321,488.846"/>
		<path fill="#878787" d="M-57.64,489.823c0-1.09-0.874-1.978-1.954-1.978c-0.013,0-0.025,0.003-0.039,0.003v-0.003H-88.45v-54.604
			c-0.002,0-0.007,0-0.01,0c0-0.035,0.01-0.068,0.01-0.102c0-1.094-0.875-1.976-1.954-1.976c0,0-0.012,0-0.018,0h-13.821v0.002
			c-1.061,0.02-1.916,0.896-1.916,1.974c0,0.025,0.007,0.051,0.007,0.076h-0.005l-0.002,70.05c0.007,1.087,0.878,1.966,1.954,1.966
			c0.002,0,0.005,0,0.005,0h0.002h44.604c1.073,0,1.938-0.872,1.951-1.954h0.002v-13.416l-0.002-0.004
			C-57.643,489.847-57.64,489.835-57.64,489.823"/>
		<path fill="#878787" d="M8.987,434.16l-0.005-0.002c0.177-0.3,0.286-0.646,0.286-1.019c0-0.848-0.527-1.561-1.26-1.845
			c0.005-0.027,0.002-0.056,0.018-0.078c-0.043,0.013-0.081,0.029-0.122,0.046c-0.187-0.061-0.382-0.102-0.587-0.102
			c-0.068,0-0.128,0.013-0.195,0.02H-8.421c-0.065-0.007-0.126-0.02-0.194-0.02c-0.757,0-1.405,0.44-1.729,1.078l-0.002-0.003
			l-15.247,24.645l-15.208-24.58c-0.011,0.007-0.023,0.011-0.03,0.016c-0.309-0.68-0.984-1.155-1.775-1.155
			c-0.065,0-0.129,0.013-0.192,0.02h-15.517c-0.066-0.007-0.129-0.02-0.195-0.02c-1.08,0-1.954,0.885-1.954,1.979
			c0,0.19,0.036,0.372,0.086,0.547c-0.008,0.003-0.011,0.008-0.018,0.011c-0.007,0.02-0.021,0.04-0.028,0.061l0.248,0.402
			c0.025,0.041,0.048,0.082,0.073,0.119l25.625,41.437v27.676c0,0,0.002,0,0.006-0.003c0,0.013-0.006,0.025-0.006,0.038
			c0,1.093,0.875,1.979,1.955,1.979c0.028,0,0.056-0.007,0.081-0.007c0,0,0,0.005,0,0.007h13.746v-0.002
			c0.01,0,0.02,0.002,0.031,0.002c1.078,0,1.954-0.886,1.954-1.979c0-0.033-0.008-0.063-0.01-0.094l0.01-0.005v-27.612
			l25.646-41.469c0,0,0.002-0.005,0.005-0.009L8.987,434.16z"/>
		<path fill="#878787" d="M209.718,445.608l-0.002-0.017l0.002-0.002v-12.226c-0.007,0-0.012-0.001-0.02-0.005
			c0.007-0.065,0.02-0.131,0.02-0.201c0-1.091-0.873-1.975-1.954-1.975c-0.048,0-0.093,0.01-0.142,0.014
			c0,0,0.002-0.012,0.002-0.014h-37.888c-0.007,0-0.015,0-0.023,0c-1.078,0-1.951,0.884-1.951,1.975
			c0,0.027,0.007,0.053,0.007,0.078v12.293c0,0.028-0.007,0.053-0.007,0.079c0,1.09,0.873,1.976,1.951,1.976
			c0.01,0,0.021-0.002,0.03-0.002v0.002h9.892v41.63h-9.909h-0.013c-1.078,0-1.951,0.883-1.951,1.976
			c0,0.051,0.01,0.102,0.015,0.152c-0.005,0-0.01,0-0.015,0v12.019h0.005c0,0.023-0.005,0.044-0.005,0.069
			c0,1.09,0.873,1.976,1.951,1.976c0.01,0,0.018-0.002,0.028-0.002v0.002h38.104c0-0.005,0-0.007,0-0.007
			c1.015-0.073,1.823-0.921,1.823-1.969v-0.014v-0.002v-12.101c-0.003,0-0.008,0-0.011-0.003c0.002-0.039,0.011-0.08,0.011-0.121
			c0-1.093-0.874-1.976-1.952-1.976c-0.025,0-0.047,0.005-0.073,0.006l-0.002-0.006h-9.676v-41.63h9.69c0,0-0.003-0.007-0.003-0.01
			c0.038,0,0.074,0.01,0.112,0.01C208.845,447.584,209.718,446.698,209.718,445.608"/>
		<path fill="#878787" d="M134.322,431.766c-10.05-0.997-20.321-0.539-30.506-0.572c-0.03-0.002-0.061-0.01-0.091-0.01
			c-1.081,0-1.954,0.886-1.954,1.977c0,0.054,0.01,0.104,0.015,0.155c-0.005-0.003-0.01-0.007-0.015-0.008v70.122v0.023h0.002
			c0.012,1.065,0.853,1.923,1.9,1.95v0.002h13.627c0.003-0.005,0.003-0.01,0.005-0.015c0.058,0.005,0.114,0.015,0.172,0.015
			c1.07,0,1.938-0.872,1.951-1.953c0,0,0,0,0.002,0v-20.06c3.806,0,7.203,0.088,10.595-0.018
			c14.639-0.46,23.927-9.271,25.395-24.021C156.796,445.582,147.834,433.104,134.322,431.766 M137.936,458.386
			c-0.303,4.119-2.915,7.208-6.639,7.783c-0.86,0.134-1.746,0.117-2.619,0.122c-2.956,0.012-5.915,0.002-9.108,0.002v-17.699
			c4.331,0.218,8.612,0.069,12.763,0.746C136.113,449.958,138.262,453.976,137.936,458.386"/>
		<path fill="#878787" d="M85.978,433.16c0-1.091-0.873-1.977-1.954-1.977c-0.035,0-0.07,0.008-0.106,0.01
			c0,0,0.002-0.008,0.002-0.01H72.933h-0.002h-0.089c0,0.002,0,0.005,0,0.005c-0.724,0.038-1.339,0.469-1.648,1.086
			c-0.007-0.005-0.017-0.007-0.028-0.014l-18.445,27.604l-18.516-27.707c-0.002,0.005-0.01,0.008-0.016,0.01
			c-0.336-0.587-0.961-0.984-1.68-0.984c-0.031,0-0.055,0.008-0.085,0.008c0.002-0.003,0-0.006,0.002-0.008H21.464v0.005
			c-0.015-0.003-0.03-0.005-0.047-0.005c-1.078,0-1.952,0.886-1.952,1.977c0,0.021,0.006,0.041,0.006,0.063l-0.006-0.004v70.207
			v0.003c0,1.089,0.866,1.969,1.939,1.976c-0.002,0.003,0,0.007,0,0.007l13.961,0.001c0,0-0.002-0.005-0.005-0.008
			c0-0.005,0-0.012,0-0.017c0.061,0.005,0.119,0.017,0.18,0.017c1.076,0,1.944-0.876,1.951-1.961h0.002v-35.001l9.717,15.159
			c0,0,0.002-0.003,0.005-0.008c0.341,0.573,0.957,0.964,1.667,0.964c0.021,0,0.041-0.007,0.063-0.007c0,0,0.002,0.005,0.002,0.007
			h7.5c0-0.005,0-0.007,0-0.007c0.035-0.003,0.068,0.007,0.106,0.007c0.703,0,1.319-0.384,1.66-0.951
			c0.005,0.002,0.01,0.002,0.015,0.005l9.722-15.169v34.966l0.002-0.003l-0.002,0.023c0,1.058,0.822,1.916,1.854,1.966
			c0,0,0,0.011,0,0.018H83.9c0-0.007-0.002-0.013-0.002-0.02c0.043,0.002,0.083,0.013,0.126,0.013c1.068,0,1.934-0.865,1.951-1.944
			h0.002v-70.191c-0.005,0.004-0.007,0.005-0.01,0.005C85.968,433.236,85.978,433.201,85.978,433.16"/>
		<path fill="#878787" d="M293.389,479.062c-0.319-0.648-0.975-1.098-1.739-1.098h-14.703c-0.67,0-1.261,0.341-1.609,0.862
			c-0.01,0.015-0.018,0.031-0.026,0.046c-3.586,5.97-10.037,9.974-17.445,9.974c-11.301,0-20.463-9.275-20.463-20.716
			c0-11.442,9.162-20.718,20.463-20.718c7.531,0,14.087,4.139,17.633,10.275c0.015,0.022,0.03,0.048,0.042,0.073
			c0.353,0.517,0.939,0.856,1.608,0.856h14.593c1.078,0,1.949-0.884,1.949-1.973c0-0.116-0.015-0.229-0.035-0.341
			c-0.03-0.19-0.094-0.367-0.175-0.531c-5.072-14.997-19.083-25.789-35.615-25.789c-20.807,0-37.676,17.079-37.676,38.146
			c0,21.068,16.869,38.147,37.676,38.147c16.408,0,30.34-10.629,35.511-25.447c0.083-0.164,0.15-0.338,0.185-0.528
			c0.02-0.119,0.036-0.241,0.036-0.363c0-0.12-0.016-0.233-0.036-0.345C293.507,479.417,293.449,479.239,293.389,479.062"/>
	</g>
	<g>
		<g>
			<path fill="#FCB131" d="M302.548,365.088c0,22.868-18.539,41.406-41.406,41.406c-22.868,0-41.407-18.539-41.407-41.406
				c0-22.869,18.539-41.406,41.407-41.406C284.009,323.682,302.548,342.221,302.548,365.088z M261.142,330.581
				c-19.058,0-34.507,15.449-34.507,34.507s15.449,34.508,34.507,34.508s34.507-15.45,34.507-34.508S280.2,330.581,261.142,330.581z
				"/>
			<path fill="#00A651" d="M392.265,365.088c0,22.868-18.54,41.406-41.406,41.406c-22.869,0-41.407-18.539-41.407-41.406
				c0-22.869,18.54-41.406,41.407-41.406C373.725,323.682,392.265,342.221,392.265,365.088z M350.858,330.581
				c-19.058,0-34.507,15.449-34.507,34.507s15.449,34.508,34.507,34.508s34.507-15.45,34.507-34.508
				C385.363,346.03,369.914,330.581,350.858,330.581z"/>
			<path fill="#0081C8" d="M257.692,327.128c0,22.87-18.539,41.407-41.406,41.407c-22.867,0-41.406-18.539-41.406-41.407
				c0-22.869,18.539-41.406,41.406-41.406C239.153,285.723,257.692,304.262,257.692,327.128z M216.286,292.625
				c-19.058,0-34.507,15.448-34.507,34.507c0,19.058,15.449,34.507,34.507,34.507s34.507-15.449,34.507-34.507
				C250.79,308.073,235.341,292.625,216.286,292.625z"/>
			<path d="M347.407,327.128c0,22.87-18.54,41.407-41.407,41.407c-22.869,0-41.406-18.539-41.406-41.407
				c0-22.869,18.54-41.406,41.406-41.406C328.87,285.723,347.407,304.262,347.407,327.128z M306,292.625
				c-19.058,0-34.507,15.448-34.507,34.507c0,19.058,15.449,34.507,34.507,34.507c19.059,0,34.507-15.449,34.507-34.507
				C340.507,308.073,325.059,292.625,306,292.625z"/>
			<path fill="#EE334E" d="M437.123,327.128c0,22.87-18.54,41.407-41.406,41.407c-22.869,0-41.405-18.539-41.405-41.407
				c0-22.869,18.538-41.406,41.405-41.406C418.583,285.723,437.123,304.262,437.123,327.128z M395.715,292.625
				c-19.058,0-34.507,15.448-34.507,34.507c0,19.058,15.449,34.507,34.507,34.507c19.059,0,34.507-15.449,34.507-34.507
				C430.222,308.073,414.773,292.625,395.715,292.625z"/>
			<path fill="#FCB131" d="M219.9,368.801c-0.109-1.222-0.165-2.463-0.165-3.713c0-1.393,0.069-2.766,0.203-4.123l7.147-1.462
				c-0.296,1.817-0.45,3.685-0.45,5.585c0,0.828,0.03,1.65,0.086,2.463L219.9,368.801z"/>
			<path fill="#00A651" d="M309.591,368.533c-0.094-1.136-0.142-2.286-0.142-3.445c0-1.313,0.062-2.614,0.181-3.897l7.141-1.519
				c-0.276,1.764-0.421,3.574-0.421,5.416c0,0.762,0.024,1.516,0.072,2.265l-3.117,1.615L309.591,368.533z M361.81,332.357
				c-2.408-0.804-4.937-1.351-7.549-1.609l-0.469-3.647l0.452-3.285c2.481,0.2,4.897,0.621,7.236,1.238L361.81,332.357z"/>
		</g>
		<path fill="#FCB131" d="M272.321,332.434c-2.567-0.878-5.27-1.462-8.069-1.713l-3.11-7.038c0.971,0,1.938,0.033,2.892,0.098
			c2.751,0.19,5.429,0.647,8.006,1.35L272.321,332.434z"/>
	</g>
</g>
</svg>
