<?xml version="1.0" encoding="utf-8"?>
<!-- Generator: Adobe Illustrator 23.0.1, SVG Export Plug-In . SVG Version: 6.00 Build 0)  -->
<svg version="1.1"
	 id="svg3011" xmlns:cc="http://creativecommons.org/ns#" xmlns:dc="http://purl.org/dc/elements/1.1/" xmlns:inkscape="http://www.inkscape.org/namespaces/inkscape" xmlns:rdf="http://www.w3.org/1999/02/22-rdf-syntax-ns#" xmlns:sodipodi="http://sodipodi.sourceforge.net/DTD/sodipodi-0.dtd" xmlns:svg="http://www.w3.org/2000/svg"
	 xmlns="http://www.w3.org/2000/svg" xmlns:xlink="http://www.w3.org/1999/xlink" x="0px" y="0px" width="1000px" height="462px"
	 viewBox="0 0 1000 462" enable-background="new 0 0 1000 462" xml:space="preserve">
<g id="g3013" transform="matrix(2.9239766,0,0,2.9239766,0,-3.0603414e-4)">
	<path id="circle3015" inkscape:connector-curvature="0" fill="#0081C8" d="M54,0C24.2,0,0,24.2,0,54s24.2,54,54,54s54-24.2,54-54
		S83.8,0,54,0z M54,9.5c24.6,0,44.5,19.9,44.5,44.5S78.6,98.5,54,98.5S9.5,78.6,9.5,54S29.4,9.5,54,9.5z"/>
	<path id="circle3017" inkscape:connector-curvature="0" d="M171,0c-29.8,0-54,24.2-54,54s24.2,54,54,54s54-24.2,54-54
		S200.8,0,171,0z M171,9.5c24.6,0,44.5,19.9,44.5,44.5S195.6,98.5,171,98.5S126.5,78.6,126.5,54S146.4,9.5,171,9.5z"/>
	<path id="circle3019" inkscape:connector-curvature="0" fill="#EE334E" d="M288,0c-29.8,0-54,24.2-54,54s24.2,54,54,54
		s54-24.2,54-54S317.8,0,288,0z M288,9.5c24.6,0,44.5,19.9,44.5,44.5S312.6,98.5,288,98.5S243.5,78.6,243.5,54S263.4,9.5,288,9.5z"
		/>
	<path id="circle3021" inkscape:connector-curvature="0" fill="#FCB131" d="M112.5,50c-29.8,0-54,24.2-54,54s24.2,54,54,54
		s54-24.2,54-54S142.3,50,112.5,50z M112.5,59.5c24.6,0,44.5,19.9,44.5,44.5s-19.9,44.5-44.5,44.5S68,128.6,68,104
		S87.9,59.5,112.5,59.5z"/>
	<path id="circle3023" inkscape:connector-curvature="0" fill="#00A651" d="M229.5,50c-29.8,0-54,24.2-54,54s24.2,54,54,54
		s54-24.2,54-54S259.3,50,229.5,50z M229.5,59.5c24.6,0,44.5,19.9,44.5,44.5s-19.9,44.5-44.5,44.5S185,128.6,185,104
		S204.9,59.5,229.5,59.5z"/>
	<path id="path3025" inkscape:connector-curvature="0" fill="#0081C8" d="M97.2,21.6l-7.6,5.7c11.9,15.8,11.9,37.6,0,53.4l7.6,5.7
		C111.6,67.2,111.6,40.8,97.2,21.6z"/>
	<path id="path3027" inkscape:connector-curvature="0" d="M214.2,21.6l-7.6,5.7c11.9,15.8,11.9,37.6,0,53.4l7.6,5.7
		C228.6,67.2,228.6,40.8,214.2,21.6z M144.3,89.6l-5.7,7.6c9.3,7,20.7,10.8,32.4,10.8v-9.5C161.4,98.5,152,95.4,144.3,89.6z"/>
	<path id="path3029" inkscape:connector-curvature="0" fill="#EE334E" d="M261.3,89.6l-5.7,7.6c9.3,7,20.7,10.8,32.4,10.8v-9.5
		C278.4,98.5,269,95.4,261.3,89.6z"/>
</g>
</svg>
