<?xml version="1.0" encoding="UTF-8" standalone="no"?>
<!-- Created with Inkscape (http://www.inkscape.org/) -->

<svg
   xmlns:dc="http://purl.org/dc/elements/1.1/"
   xmlns:cc="http://creativecommons.org/ns#"
   xmlns:rdf="http://www.w3.org/1999/02/22-rdf-syntax-ns#"
   xmlns:svg="http://www.w3.org/2000/svg"
   xmlns="http://www.w3.org/2000/svg"
   xmlns:sodipodi="http://sodipodi.sourceforge.net/DTD/sodipodi-0.dtd"
   xmlns:inkscape="http://www.inkscape.org/namespaces/inkscape"
   width="105.83462"
   height="17.436001"
   id="svg2"
   version="1.1"
   inkscape:version="0.48.2 r9819"
   sodipodi:docname="TSN1.svg">
  <defs
     id="defs4" />
  <sodipodi:namedview
     id="base"
     pagecolor="#ffffff"
     bordercolor="#666666"
     borderopacity="1.0"
     inkscape:pageopacity="0.0"
     inkscape:pageshadow="2"
     inkscape:zoom="5.12"
     inkscape:cx="37.136435"
     inkscape:cy="13.706534"
     inkscape:document-units="px"
     inkscape:current-layer="layer1"
     showgrid="false"
     fit-margin-top="0"
     fit-margin-left="0"
     fit-margin-right="0"
     fit-margin-bottom="0"
     inkscape:window-width="1140"
     inkscape:window-height="425"
     inkscape:window-x="621"
     inkscape:window-y="180"
     inkscape:window-maximized="0" />
  <metadata
     id="metadata7">
    <rdf:RDF>
      <cc:Work
         rdf:about="">
        <dc:format>image/svg+xml</dc:format>
        <dc:type
           rdf:resource="http://purl.org/dc/dcmitype/StillImage" />
        <dc:title></dc:title>
      </cc:Work>
    </rdf:RDF>
  </metadata>
  <g
     inkscape:label="Layer 1"
     inkscape:groupmode="layer"
     id="layer1"
     transform="translate(-340.67497,-411.76861)">
    <g
       id="g11165"
       transform="matrix(1.25,0,0,-1.25,444.32459,411.76861)">
      <path
         inkscape:connector-curvature="0"
         d="m 0,0 -16.979,0 5.433,-5.433 -5.437,-5.43 16.983,0 c 0.962,0 1.748,0.787 1.748,1.75 l 0,7.364 C 1.748,-0.788 0.962,0 0,0"
         style="fill:#ed1d24;fill-opacity:1;fill-rule:nonzero;stroke:none"
         id="path11167" />
    </g>
    <g
       id="g11169"
       transform="matrix(1.25,0,0,-1.25,414.33372,411.76861)">
      <path
         inkscape:connector-curvature="0"
         d="M 0,0 5.433,-5.435 0,-10.866 l 4.383,0 5.433,5.433 L 4.383,0 0,0 z"
         style="fill:#434344;fill-opacity:1;fill-rule:nonzero;stroke:none"
         id="path11171" />
    </g>
    <g
       id="g11173"
       transform="matrix(1.25,0,0,-1.25,432.08884,420.36424)">
      <path
         inkscape:connector-curvature="0"
         d="m 0,0 c -0.008,0.744 0.22,1.281 0.682,1.607 0.277,0.206 0.777,0.342 1.51,0.407 L 5.019,2.245 C 5.604,2.287 5.964,2.36 6.106,2.468 6.233,2.566 6.3,2.788 6.296,3.129 6.292,3.384 6.271,3.55 6.225,3.632 6.111,3.855 5.767,3.965 5.191,3.965 l -5.165,0 c 0.088,0.656 0.299,1.09 0.627,1.302 0.316,0.204 0.998,0.307 2.046,0.307 l 2.664,0 c 0.99,0 1.678,-0.115 2.062,-0.345 C 7.967,4.902 8.241,4.205 8.253,3.142 8.264,2.101 8.086,1.402 7.721,1.044 7.408,0.74 6.736,0.548 5.705,0.465 L 3.184,0.282 C 2.698,0.248 2.402,0.199 2.3,0.135 2.161,0.044 2.09,-0.099 2.095,-0.296 l 0.003,-0.501 6.148,0 0,-1.818 -8.304,0 L 0,0 z"
         style="fill:#ffffff;fill-opacity:1;fill-rule:nonzero;stroke:none"
         id="path11175" />
    </g>
    <g
       id="g11177"
       transform="matrix(1.25,0,0,-1.25,363.18997,416.15211)">
      <path
         inkscape:connector-curvature="0"
         d="m 0,0 1.671,3.502 -18.013,0 -1.67,-3.503 L 0,0 z"
         style="fill:#ed1d24;fill-opacity:1;fill-rule:nonzero;stroke:none"
         id="path11179" />
    </g>
    <g
       id="g11181"
       transform="matrix(1.25,0,0,-1.25,348.77834,418.31886)">
      <path
         inkscape:connector-curvature="0"
         d="m 0,0 4.94,0 -4.175,-8.708 -4.94,0 L 0,0 z"
         style="fill:#ed1d24;fill-opacity:1;fill-rule:nonzero;stroke:none"
         id="path11183" />
    </g>
    <g
       id="g11185"
       transform="matrix(1.25,0,0,-1.25,359.21597,429.20448)">
      <path
         inkscape:connector-curvature="0"
         d="m 0,0 1.689,3.571 12.665,0 1.048,2.025 c 0,0 -6.771,0.002 -7.621,0 C 6.741,5.594 4.419,5.52 3.857,6.667 3.485,7.428 4.217,8.71 4.217,8.71 c 0,0 13.265,-0.002 14.171,-0.002 0.903,0 1.663,-0.19 2.086,-0.726 C 20.875,7.478 20.845,6.754 20.244,5.596 19.899,4.93 18.992,2.896 18.78,2.469 18.567,2.043 18.121,1.297 16.985,0.763 15.847,0.23 14.924,0 13.43,0 L 0,0 z"
         style="fill:#ed1d24;fill-opacity:1;fill-rule:nonzero;stroke:none"
         id="path11187" />
    </g>
    <g
       id="g11189"
       transform="matrix(1.25,0,0,-1.25,365.49035,416.15211)">
      <path
         inkscape:connector-curvature="0"
         d="m 0,0 c 0,0 0.704,1.896 2.307,2.736 1.53,0.8 4.62,0.766 4.897,0.766 l 11.766,0 L 17.312,0 0,0 z"
         style="fill:#ed1d24;fill-opacity:1;fill-rule:nonzero;stroke:none"
         id="path11191" />
    </g>
    <g
       id="g11193"
       transform="matrix(1.25,0,0,-1.25,390.1516,416.15211)">
      <path
         inkscape:connector-curvature="0"
         d="m 0,0 1.581,3.502 11.111,0 c 0,0 4.497,0.255 5.314,-3.502 0.367,-1.692 -0.44,-3.12 -0.464,-3.176 -0.027,-0.053 -3.45,-7.266 -3.45,-7.266 l -4.965,0 3.838,7.935 c 0,0 0.586,0.947 0.189,1.761 C 12.757,0.066 11.581,0.007 11.481,0 11.385,-0.006 0,0 0,0"
         style="fill:#ed1d24;fill-opacity:1;fill-rule:nonzero;stroke:none"
         id="path11195" />
    </g>
    <g
       id="g11197"
       transform="matrix(1.25,0,0,-1.25,389.15009,418.31886)">
      <path
         inkscape:connector-curvature="0"
         d="m 0,0 4.943,0 -4.169,-8.708 -4.943,0 L 0,0 z"
         style="fill:#ed1d24;fill-opacity:1;fill-rule:nonzero;stroke:none"
         id="path11199" />
    </g>
  </g>
</svg>
