<?xml version="1.0" encoding="UTF-8" standalone="no"?>
<svg
   xmlns:dc="http://purl.org/dc/elements/1.1/"
   xmlns:cc="http://creativecommons.org/ns#"
   xmlns:rdf="http://www.w3.org/1999/02/22-rdf-syntax-ns#"
   xmlns:svg="http://www.w3.org/2000/svg"
   xmlns="http://www.w3.org/2000/svg"
   xmlns:xlink="http://www.w3.org/1999/xlink"
   xmlns:sodipodi="http://sodipodi.sourceforge.net/DTD/sodipodi-0.dtd"
   xmlns:inkscape="http://www.inkscape.org/namespaces/inkscape"
   version="1.1"
   id="svg2"
   width="1530"
   height="520"
   viewBox="0 0 1530 520"
   sodipodi:docname="WPIX 11 (2017 Blue).svg"
   inkscape:version="1.0.1 (3bc2e813f5, 2020-09-07)">
  <metadata
     id="metadata8">
    <rdf:RDF>
      <cc:Work
         rdf:about="">
        <dc:format>image/svg+xml</dc:format>
        <dc:type
           rdf:resource="http://purl.org/dc/dcmitype/StillImage" />
        <dc:title></dc:title>
      </cc:Work>
    </rdf:RDF>
  </metadata>
  <defs
     id="defs6">
    <linearGradient
       inkscape:collect="always"
       id="linearGradient933">
      <stop
         style="stop-color:#056dff;stop-opacity:0.99607843"
         offset="0"
         id="stop929" />
      <stop
         style="stop-color:#002eba;stop-opacity:1"
         offset="1"
         id="stop931" />
    </linearGradient>
    <radialGradient
       inkscape:collect="always"
       xlink:href="#linearGradient3190"
       id="radialGradient3041"
       gradientUnits="userSpaceOnUse"
       gradientTransform="matrix(2.9173521,-0.96506723,0.47665492,1.4483159,-1842.3005,715.50607)"
       cx="702.46307"
       cy="23.318701"
       fx="702.46307"
       fy="23.318701"
       r="38.378689" />
    <radialGradient
       inkscape:collect="always"
       xlink:href="#linearGradient3190"
       id="radialGradient3043"
       gradientUnits="userSpaceOnUse"
       gradientTransform="matrix(-0.01433123,2.6203422,-2.6066166,0,-1840.2455,-1904.225)"
       cx="744.69757"
       cy="-1192.8191"
       fx="744.69757"
       fy="-1192.8191"
       r="112.8757" />
    <linearGradient
       inkscape:collect="always"
       id="linearGradient3190">
      <stop
         style="stop-color:#002cb8;stop-opacity:1"
         offset="0"
         id="stop3192" />
      <stop
         style="stop-color:#0077ff;stop-opacity:1"
         offset="1"
         id="stop3194" />
    </linearGradient>
    <linearGradient
       inkscape:collect="always"
       xlink:href="#linearGradient933"
       id="linearGradient935"
       x1="222.37048"
       y1="14.848"
       x2="222.37048"
       y2="62"
       gradientUnits="userSpaceOnUse" />
    <linearGradient
       inkscape:collect="always"
       xlink:href="#linearGradient933"
       id="linearGradient953"
       gradientUnits="userSpaceOnUse"
       x1="222.37048"
       y1="14.848"
       x2="222.37048"
       y2="62" />
    <linearGradient
       inkscape:collect="always"
       xlink:href="#linearGradient933"
       id="linearGradient955"
       gradientUnits="userSpaceOnUse"
       x1="222.37048"
       y1="14.848"
       x2="222.37048"
       y2="62" />
    <radialGradient
       inkscape:collect="always"
       xlink:href="#linearGradient933"
       id="radialGradient875"
       cx="150.26244"
       cy="34.549458"
       fx="150.26244"
       fy="34.549458"
       r="81.506973"
       gradientTransform="matrix(0.0035126,-0.96970654,1.3459601,0.00486292,103.23243,181.94109)"
       gradientUnits="userSpaceOnUse" />
    <radialGradient
       inkscape:collect="always"
       xlink:href="#linearGradient933"
       id="radialGradient877"
       gradientUnits="userSpaceOnUse"
       gradientTransform="matrix(0.00121757,-0.33612522,1.3459601,0.00486298,103.57729,86.737616)"
       cx="150.26244"
       cy="34.549458"
       fx="150.26244"
       fy="34.549458"
       r="81.506973" />
    <radialGradient
       inkscape:collect="always"
       xlink:href="#linearGradient933"
       id="radialGradient879"
       gradientUnits="userSpaceOnUse"
       gradientTransform="matrix(0,-1.5039201,1.8097171,0.00203556,82.697881,262.41253)"
       cx="150.38428"
       cy="51.434883"
       fx="150.38428"
       fy="51.434883"
       r="81.506973" />
  </defs>
  <sodipodi:namedview
     pagecolor="#ffffff"
     bordercolor="#666666"
     borderopacity="1"
     objecttolerance="10"
     gridtolerance="10"
     guidetolerance="10"
     inkscape:pageopacity="0"
     inkscape:pageshadow="2"
     inkscape:window-width="1920"
     inkscape:window-height="1017"
     id="namedview4"
     showgrid="false"
     inkscape:zoom="0.48436815"
     inkscape:cx="604.47059"
     inkscape:cy="253.53958"
     inkscape:window-x="-8"
     inkscape:window-y="-8"
     inkscape:window-maximized="1"
     inkscape:current-layer="g3156"
     inkscape:document-rotation="0" />
  <g
     inkscape:groupmode="layer"
     inkscape:label="Image"
     id="g10">
    <g
       style="fill:url(#radialGradient875);fill-opacity:1"
       transform="matrix(6.1086604,0,0,6.1165663,-130.81,-7.42525)"
       id="g3248">
      <g
         style="fill:url(#radialGradient877);fill-opacity:1"
         id="g3156">
        <path
           style="fill:url(#radialGradient875);fill-opacity:1"
           sodipodi:nodetypes="ccccccccsssccccs"
           d="m 23.12948,8.7163683 h 36.474398 c 17.215967,0 24.156375,11.8697447 24.203496,20.4357937 0,11.085603 -8.928817,20.749718 -23.572432,20.749718 L 40.55643,50.047202 V 66.152 H 23.12948 Z M 61.618019,36.003272 c 1.562845,0.0011 4.966132,-2.858995 4.966132,-6.888527 0,-3.458477 -2.786862,-6.285331 -5.274718,-6.374268 l -1.474489,-0.05271 h -19.20158 l -0.07606,13.314501 h 19.684078 z"
           id="path3225"
           inkscape:connector-curvature="0" />
        <path
           style="fill:url(#radialGradient875);fill-opacity:1"
           d="m 87.26619,8.5710262 h 17.438 V 66.251422 h -17.438 z"
           id="rect3227"
           inkscape:connector-curvature="0" />
        <path
           style="fill:url(#radialGradient879);fill-opacity:1"
           sodipodi:nodetypes="ccccccccccccc"
           inkscape:connector-curvature="0"
           id="polygon3229"
           d="m 160.80283,8.94 h 23.90382 L 155.99325,36.351298 186.12199,66.152 H 161.33611 L 143.00199,47.744501 123.947,66.152 H 99.572859 L 131.09462,36.798561 101.87,8.94 h 25.79435 l 16.17595,16.530446 z"
           transform="matrix(0.92233219,0,0,1,14.477124,0)" />
      </g>
    </g>
    <g
       id="g3253"
       transform="matrix(6.5140315,0,0,6.4892047,-193.35314,10)"
       style="fill:#ffffff">
      <path
         d="m 224.64631,0 c -21.19132,0 -38.37869,17.246503 -38.37869,38.522535 0,21.280015 17.18638,38.52851 38.37869,38.52851 21.19826,0 38.37869,-17.247499 38.37869,-38.52851 C 263.02401,17.246503 245.84457,0 224.64631,0 m 0,68.211179 c -16.32726,0 -29.56824,-13.292665 -29.56824,-29.68964 0,-16.397972 13.24098,-29.6836648 29.56824,-29.6836648 16.33421,0 29.56824,13.2856928 29.56824,29.6836648 0,16.397971 -13.23403,29.68964 -29.56824,29.68964"
         id="path3219"
         inkscape:connector-curvature="0"
         style="fill:url(#radialGradient3041);fill-opacity:1" />
      <g
         id="g927"
         style="fill:url(#linearGradient935);fill-opacity:1">
        <path
           d="m 225.313,21.8 c 0.643,0.318 1.803,1.13 1.803,2.104 V 62 h 12.162 V 14.848 Z"
           id="path3221"
           inkscape:connector-curvature="0"
           style="fill:url(#linearGradient953);fill-opacity:1" />
        <path
           d="m 208.39949,21.8 c 0.643,0.318 1.803,1.13 1.803,2.104 V 62 h 12.168 V 14.848 Z"
           id="path3223"
           inkscape:connector-curvature="0"
           style="fill:url(#linearGradient955);fill-opacity:1" />
      </g>
    </g>
    <path
       style="fill:url(#radialGradient3043);fill-opacity:1;stroke:none;stroke-width:1.88786"
       d="m 1303.0585,449.81073 c 0,0 156.5772,-25.13061 156.5772,-191.04128 0,-99.26728 -75.3794,-188.838089 -182.1276,-188.838089 -119.0864,0 -165.3086,75.109339 -180.3871,105.017099 0,0 43.3383,-154.153571 227.4237,-154.153571 80.0564,0 195.4526,101.854821 195.4526,238.018991 0,212.8142 -216.9388,190.99685 -216.9388,190.99685 z"
       id="path3188"
       inkscape:connector-curvature="0"
       sodipodi:nodetypes="csccssc" />
    <text
       xml:space="preserve"
       style="font-weight:500;font-size:21.8157px;line-height:1.25;font-family:Biotif;-inkscape-font-specification:'Biotif Medium';letter-spacing:0px;stroke-width:0.113623"
       x="-1.9786536"
       y="167.29875"
       id="text879"
       transform="scale(1.043083,0.95869647)"><tspan
         sodipodi:role="line"
         id="tspan877"
         x="-1.9786536"
         y="167.29875"
         style="stroke-width:0.113623" /></text>
    <path
       style="fill:#000000;fill-opacity:1;stroke-width:0.260742;stroke-linecap:round;stroke-linejoin:round;paint-order:fill markers stroke"
       d="m 10,460.32018 v -28.71626 l 4.764481,0.004 4.76448,0.004 9.787667,13.80725 c 16.730585,23.60146 20.617854,29.07814 20.828989,29.34561 l 0.204225,0.25859 0.0042,-21.70968 0.0042,-21.70964 h 4.742922 4.742922 v 28.71627 28.71622 h -4.765632 -4.765548 l -15.391868,-21.65586 -15.391869,-21.65543 -0.02174,21.65543 -0.02174,21.65542 H 14.742753 10 Z"
       id="path881" />
    <path
       style="fill:#000000;fill-opacity:1;stroke-width:0.260742;stroke-linecap:round;stroke-linejoin:round;paint-order:fill markers stroke"
       d="m 74.245032,460.32018 v -28.71626 h 19.187277 19.187271 v 4.18241 4.18237 H 98.175231 83.730876 v 8.14922 8.14918 h 13.021476 13.021478 v 3.83721 3.83717 l -12.999917,0.0227 -12.99992,0.0227 -0.02193,8.38633 -0.02193,8.38638 h 14.444782 14.444775 v 4.13927 4.13928 H 93.432426 74.24515 Z"
       id="path883" />
    <path
       style="fill:#000000;fill-opacity:1;stroke-width:0.245495;stroke-linecap:round;stroke-linejoin:round;paint-order:fill markers stroke"
       d="m 135.25682,487.80754 c -0.56262,-1.97117 -16.10926,-55.9769 -16.14851,-56.09648 -0.0284,-0.0866 0.90307,-0.10397 4.6066,-0.0862 l 4.64219,0.0227 5.73815,21.27847 c 3.15599,11.70315 5.75781,21.27801 5.78183,21.27749 0.0242,-5.7e-4 2.8129,-9.585 6.1975,-21.29877 l 6.15381,-21.29775 4.65136,0.0189 4.65137,0.0189 6.00608,21.36108 c 3.30335,11.74859 6.02705,21.34648 6.05268,21.32859 0.0253,-0.0189 2.69461,-9.63943 5.93109,-21.38126 l 5.8845,-21.34874 4.52051,-10e-4 4.52051,-0.001 -1.00918,3.47095 c -0.55505,1.90902 -4.32544,14.83136 -8.37865,28.71626 l -7.36947,25.24528 h -4.0631 -4.0631 l -0.19618,-0.62523 c -0.10793,-0.34365 -2.96869,-9.80078 -6.35732,-21.01538 -3.38862,-11.21459 -6.17626,-20.4072 -6.19475,-20.42807 -0.0427,-0.048 0.76514,-2.6705 -6.53743,21.22138 l -6.372,20.8473 h -4.14888 -4.14887 z"
       id="path885" />
    <path
       style="fill:#000000;fill-opacity:1;stroke-width:0.260742;stroke-linecap:round;stroke-linejoin:round;paint-order:fill markers stroke"
       d="m 246.01913,477.41476 v -11.6216 l -10.65001,-17.05224 c -5.85751,-9.37873 -10.65002,-17.0713 -10.65002,-17.09459 0,-0.0227 2.41691,-0.0423 5.3709,-0.0423 h 5.3709 l 7.70445,12.85732 7.70444,12.85731 7.65432,-12.77849 c 4.20988,-7.02817 7.6901,-12.81425 7.73383,-12.85799 0.0473,-0.0473 2.16489,-0.0703 5.21888,-0.0571 l 5.13938,0.0227 -10.51108,17.03141 -10.51107,17.03137 -0.001,11.66331 -0.001,11.66327 h -4.78604 -4.78604 z"
       id="path887" />
    <path
       style="fill:#000000;fill-opacity:1;stroke-width:0.260742;stroke-linecap:round;stroke-linejoin:round;paint-order:fill markers stroke"
       d="m 308.50226,489.89209 c -6.10481,-0.48678 -11.6956,-2.63896 -16.34152,-6.29066 -1.14356,-0.89883 -3.38405,-3.13449 -4.2903,-4.28101 -4.20987,-5.32618 -6.2277,-11.46846 -6.2277,-18.95714 0,-6.63613 1.52698,-12.02832 4.8108,-16.98827 2.66216,-4.02099 7.01267,-7.73975 11.46637,-9.80128 3.23695,-1.4983 6.25675,-2.33482 9.97871,-2.76426 1.29021,-0.14895 6.39777,-0.14706 7.76114,0.003 5.77554,0.63445 10.73974,2.51769 14.90696,5.6552 5.94403,4.47529 9.88206,11.11947 11.00222,18.56279 0.46259,3.07384 0.47937,7.12159 0.0425,10.24855 -1.18841,8.50618 -6.02901,16.03165 -13.0538,20.2942 -4.11561,2.49728 -8.6567,3.92852 -13.71278,4.32188 -1.31482,0.10245 -5.04598,0.10056 -6.34259,-0.003 z m 4.82916,-8.53279 c 2.27182,-0.14441 3.98251,-0.46965 5.82142,-1.10637 6.134,-2.12391 10.34882,-6.82668 12.02889,-13.42149 1.2914,-5.06913 1.02501,-10.64657 -0.73351,-15.35719 -1.06574,-2.85488 -2.35347,-4.91127 -4.26184,-6.80573 -2.84848,-2.82777 -6.47278,-4.59888 -10.78532,-5.27053 -1.307,-0.20377 -5.56849,-0.2325 -6.81256,-0.0461 -3.65616,0.54761 -6.61734,1.73035 -9.25325,3.69597 -0.93647,0.6983 -2.68516,2.42797 -3.38215,3.34529 -2.61336,3.43957 -4.02194,7.59472 -4.20961,12.41786 -0.14415,3.70425 0.22929,6.75231 1.2,9.79526 0.35987,1.12812 1.4341,3.29652 2.21769,4.47662 3.25849,4.90725 8.652,7.87721 15.02266,8.27231 1.59804,0.0991 1.65272,0.0991 3.14758,0.004 z"
       id="path889" />
    <path
       style="fill:#000000;fill-opacity:1;stroke-width:0.244371;stroke-linecap:round;stroke-linejoin:round;paint-order:fill markers stroke"
       d="m 352.61144,460.31636 v -28.72 l 11.75955,0.0302 c 12.40569,0.034 12.2004,0.0265 14.62496,0.45234 5.93657,1.04116 10.2803,4.13024 12.42617,8.8369 1.06823,2.34303 1.56189,4.92775 1.56189,8.17742 0,2.45887 -0.20112,4.03467 -0.76658,6.00823 -1.32047,4.60787 -4.37534,8.12252 -8.66378,9.96769 -0.4166,0.1792 -0.75746,0.35764 -0.75746,0.39632 0,0.0386 2.31784,5.32568 5.15074,11.74878 2.83288,6.4231 5.16214,11.71068 5.17617,11.75018 0.0151,0.0393 -2.09261,0.0616 -4.68129,0.0495 l -4.70673,-0.0227 -4.75023,-11.08117 -4.75023,-11.08118 -6.56982,-0.0227 -6.56982,-0.0227 v 11.12477 11.12481 h -4.24177 -4.24177 z m 23.07041,-1.38167 c 3.82541,-0.42509 6.25833,-2.07196 7.57149,-5.12528 0.62855,-1.46144 0.86428,-2.71874 0.8669,-4.62383 0.002,-1.61829 -0.23144,-2.97411 -0.72397,-4.19866 -1.02702,-2.55402 -3.09268,-4.35371 -5.80987,-5.06181 -1.57772,-0.41117 -1.66026,-0.41518 -9.27662,-0.45052 l -7.2148,-0.034 v 9.79281 9.79277 h 6.87972 c 4.3035,0 7.18957,-0.034 7.70715,-0.0919 z"
       id="path891" />
    <path
       style="opacity:1;fill:#000000;fill-opacity:1;stroke-width:0.260742;stroke-linecap:round;stroke-linejoin:round;paint-order:fill markers stroke"
       d="m 406.85833,460.40641 v -28.80249 h 4.78578 4.78583 l 0.0227,11.58977 0.0227,15.64282 23.19706,-27.23675 6.10799,0.0227 6.10795,0.0227 -22.35834,25.96376 25.13643,31.59806 -12.00113,-0.0431 -18.74467,-26.19676 -7.48857,7.77487 v 18.46499 h -9.57207 z"
       id="path893"
       sodipodi:nodetypes="ccccccccccccccccc" />
    <path
       style="fill:#000000;fill-opacity:1;stroke-width:0.254838;stroke-linecap:round;stroke-linejoin:round;paint-order:fill markers stroke"
       d="m 463.25253,447.20742 v -1.54027 h 0.33911 c 1.47041,0 3.01325,-1.62896 4.04288,-3.06016 0.74714,-1.03855 0.43699,-3.06141 0.43699,-3.06141 -0.0189,0 -0.31038,0.0711 -0.64337,0.15765 -1.17832,0.3066 -2.52975,0.15727 -3.61363,-0.39975 -0.67702,-0.34819 -1.47056,-1.16808 -1.77841,-1.83795 -0.46202,-1.00532 -0.57456,-2.59852 -0.25972,-3.68028 0.46017,-1.58242 1.75686,-2.83189 3.40468,-3.28045 0.73286,-0.19961 2.20734,-0.2378 2.98383,-0.0775 2.03234,0.4193 3.59053,1.78566 4.21587,3.69676 0.35423,1.08328 0.45937,2.98153 0.23704,4.28169 -0.32853,1.91855 -1.36459,5.53638 -2.76354,7.12666 -1.62556,1.84781 -3.71139,2.97426 -5.83602,3.15165 l -0.76303,0.0639 z"
       id="path895"
       sodipodi:nodetypes="ccssccsscscsssccc" />
    <path
       style="opacity:1;fill:#000000;fill-opacity:1;stroke-width:0.24863;stroke-linecap:round;stroke-linejoin:round;paint-order:fill markers stroke"
       d="m 503.91239,489.98275 c -3.65635,-0.31567 -6.59769,-1.13223 -9.30667,-2.58366 -4.14408,-2.22038 -6.88489,-5.45464 -8.10971,-9.56964 -0.29866,-1.00355 -0.51654,-2.15132 -0.42592,-2.24417 0.0378,-0.0378 1.88449,-0.55252 4.10548,-1.1435 l 4.03811,-1.0745 0.16823,0.74174 c 0.41348,1.82608 1.10237,3.11774 2.3414,4.39034 1.64431,1.68884 3.90523,2.71053 7.13502,3.2242 1.10403,0.17541 4.71081,0.14744 5.8415,-0.0457 4.50319,-0.76904 7.2851,-3.0219 7.96533,-6.45051 0.18714,-0.94339 0.1671,-2.6043 -0.042,-3.481 -0.64447,-2.70279 -2.52514,-4.57226 -5.76389,-5.72964 -0.51929,-0.18562 -3.34358,-0.92529 -6.27611,-1.64378 -6.69496,-1.64034 -7.44944,-1.86176 -9.52677,-2.79605 -4.90658,-2.20681 -7.9329,-5.98006 -8.8665,-11.05479 -0.24271,-1.31926 -0.30093,-4.0679 -0.11569,-5.46885 0.36104,-2.73159 1.16399,-4.88612 2.60385,-6.98833 2.13854,-3.12227 5.09129,-5.14894 9.47532,-6.50355 4.98419,-1.54 11.57389,-1.24255 16.17663,0.73017 4.99273,2.13994 8.46508,6.17835 9.65394,11.22772 0.2102,0.8936 0.21852,0.98226 0.0979,1.04017 -0.14101,0.0677 -7.96873,2.22236 -8.06968,2.22126 -0.034,-3.4e-4 -0.13874,-0.31227 -0.23552,-0.69297 -0.94778,-3.74266 -3.64032,-6.27267 -7.60501,-7.14602 -2.07949,-0.45805 -4.48297,-0.45722 -6.56865,0.002 -3.04583,0.67108 -5.40727,2.47981 -6.4222,4.91912 -0.4585,1.10192 -0.55589,1.66949 -0.55279,3.22004 0.003,1.57717 0.0941,2.07465 0.58406,3.19066 0.79493,1.81126 2.49058,3.20424 5.01878,4.12306 0.4528,0.16445 3.45197,0.98646 6.66479,1.82646 7.4511,1.94811 8.44357,2.27713 10.78917,3.5768 3.10949,1.72298 5.14671,3.86519 6.46072,6.79378 1.67167,3.72573 1.75556,8.72761 0.21284,12.69487 -0.65944,1.69583 -1.53339,3.13985 -2.7508,4.54523 -1.35903,1.56888 -2.6046,2.55481 -4.55785,3.6078 -2.42072,1.30501 -4.76742,2.02471 -7.8802,2.41679 -1.26085,0.15878 -4.99749,0.23288 -6.25762,0.124 z"
       id="path897" />
    <path
       style="fill:#000000;fill-opacity:1;stroke-width:0.260742;stroke-linecap:round;stroke-linejoin:round;paint-order:fill markers stroke"
       d="m 581.99891,488.6706 c -0.29677,-0.67736 -23.7171,-56.99455 -23.7171,-57.03084 0,-0.0189 2.32469,-0.034 5.16603,-0.034 h 5.16607 l 0.25821,0.62523 c 0.14215,0.34403 4.26241,10.48162 9.15643,22.52835 4.89403,12.04673 8.9279,21.95617 8.96412,22.02093 0.0556,0.099 0.0733,0.099 0.11228,4.9e-4 0.14479,-0.3652 17.89091,-44.03154 18.105,-44.54977 l 0.25822,-0.62523 h 5.07983 c 2.7939,0 5.07749,0.0302 5.07462,0.0646 -0.003,0.034 -5.31041,12.94816 -11.79464,28.69468 l -11.78943,28.62999 -4.9395,0.0227 -4.93946,0.0227 z"
       id="path899" />
    <path
       style="fill:#000000;fill-opacity:1;stroke-width:0.260742;stroke-linecap:round;stroke-linejoin:round;paint-order:fill markers stroke"
       d="m 625.9441,460.32018 v -28.71626 h 19.1873 19.18726 v 4.18241 4.18237 h -14.44435 -14.44434 v 8.14922 8.14918 h 12.97836 12.97833 v 3.83748 3.83743 h -12.97833 -12.97836 v 8.40792 8.40793 h 14.44434 14.44435 v 4.13927 4.13928 H 645.1314 625.9441 Z"
       id="path901" />
    <path
       style="fill:#000000;fill-opacity:1;stroke-width:0.252689;stroke-linecap:round;stroke-linejoin:round;paint-order:fill markers stroke"
       d="M 676.24865,460.31614 V 431.5959 l 12.61426,0.0303 c 13.61671,0.034 13.24648,0.0227 15.93486,0.50156 6.83484,1.22066 11.5308,4.76053 13.57346,10.23184 0.35991,0.96495 0.76764,2.74018 0.92053,4.01116 0.15311,1.27419 0.17768,3.95157 0.0465,5.11473 -0.42951,3.80995 -1.75062,6.92031 -3.99528,9.40643 -1.88308,2.08561 -3.88084,3.41096 -6.72342,4.46036 -0.12703,0.0469 0.59426,1.62715 5.38587,11.79521 3.04303,6.45754 5.54503,11.77445 5.56004,11.81543 0.0151,0.0416 -2.20326,0.0647 -5.00464,0.0522 l -5.03175,-0.0227 -4.92264,-10.73624 c -2.70744,-5.90494 -5.00275,-10.90119 -5.10067,-11.10276 l -0.17768,-0.36634 h -7.00402 -7.00402 v 11.12432 11.12431 h -4.53551 -4.53544 z m 24.98604,-1.42016 c 4.01739,-0.49888 6.47841,-2.14036 7.858,-5.24127 0.60133,-1.35166 0.84798,-2.65972 0.84798,-4.49691 0,-2.72411 -0.77362,-4.89633 -2.34617,-6.58733 -1.69659,-1.82449 -3.90711,-2.76036 -7.1617,-3.03199 -0.59347,-0.0495 -4.08159,-0.0873 -8.07879,-0.0873 h -7.03441 v 9.78766 9.78767 h 7.43137 c 6.1222,0 7.61676,-0.0227 8.48372,-0.13081 z"
       id="path903" />
    <path
       style="fill:#000000;fill-opacity:1;stroke-width:0.260742;stroke-linecap:round;stroke-linejoin:round;paint-order:fill markers stroke"
       d="m 746.27396,477.3686 v -11.66777 l -2.25713,-3.61737 c -2.30156,-3.68844 -17.78729,-28.47502 -18.59799,-29.76808 l -0.44607,-0.71146 5.41181,0.003 5.41184,0.003 7.66331,12.80254 c 4.21481,7.04137 7.68965,12.80249 7.7219,12.80249 0.034,0 3.51061,-5.76161 7.72966,-12.80355 l 7.67101,-12.80355 5.18747,-0.002 5.18747,-0.002 -10.51247,17.03689 -10.51247,17.03689 v 11.67937 11.67934 h -4.82915 -4.82919 z"
       id="path905" />
    <path
       style="fill:#000000;fill-opacity:1;stroke-width:0.260742;stroke-linecap:round;stroke-linejoin:round;paint-order:fill markers stroke"
       d="m 836.38189,489.93349 c -0.16597,-0.0189 -0.7481,-0.076 -1.29352,-0.1274 -6.76592,-0.63525 -13.10936,-3.55798 -17.76664,-8.18597 -4.53087,-4.50232 -7.16254,-9.95374 -8.07622,-16.72957 -0.22872,-1.69576 -0.22835,-7.36166 3.4e-4,-9.05469 0.67101,-4.96518 2.04104,-8.6754 4.63645,-12.55601 4.40191,-6.58154 11.93528,-11.17921 20.18442,-12.31866 2.51886,-0.34781 6.97733,-0.39318 9.42954,-0.0957 4.63638,0.56239 8.55725,1.88774 12.32758,4.16691 2.82051,1.70502 5.7761,4.43972 7.91573,7.32415 2.39883,3.23384 4.1693,7.29747 4.97096,11.40971 0.78091,4.00556 0.76737,9.28032 -0.034,13.23707 -0.52671,2.6009 -1.25768,4.73241 -2.45456,7.15751 -4.30819,8.72904 -12.24804,14.25517 -22.38083,15.577 -1.10895,0.14479 -1.94679,0.18486 -4.26865,0.2049 -1.58888,0.0151 -3.02469,0.0113 -3.1907,-0.008 z m 5.86399,-8.71165 c 3.74338,-0.45117 7.30986,-1.93004 10.02637,-4.15753 0.8845,-0.7253 2.33981,-2.2512 3.01585,-3.16216 1.93556,-2.60816 3.23603,-6.00448 3.83033,-10.00323 0.21927,-1.47449 0.22116,-5.66238 0.003,-7.20061 -0.55544,-3.92552 -2.04973,-7.71094 -4.10196,-10.39134 -0.21776,-0.28468 -0.7267,-0.86287 -1.13076,-1.28508 -2.95688,-3.09007 -6.74691,-4.97058 -11.42774,-5.67017 -1.22596,-0.18336 -5.50916,-0.15765 -6.76944,0.0401 -3.50611,0.55086 -6.38015,1.7147 -8.93557,3.61851 -5.223,3.89112 -7.91418,10.24239 -7.6816,18.12893 0.17957,6.09193 1.95741,10.80486 5.44484,14.43448 4.30483,4.4804 10.64722,6.50121 17.7262,5.64798 z"
       id="path907" />
    <path
       style="fill:#000000;fill-opacity:1;stroke-width:0.247696;stroke-linecap:round;stroke-linejoin:round;paint-order:fill markers stroke"
       d="m 889.79071,488.19561 c -0.13346,-0.46243 -3.91721,-13.37505 -8.40826,-28.69467 l -8.16552,-27.85389 4.67736,-0.0227 c 2.57251,-0.0113 4.70133,0.008 4.73078,0.0431 0.0302,0.0378 2.67538,9.62117 5.88003,21.30047 3.20461,11.67933 5.84543,21.23525 5.86857,21.23537 0.0265,7e-5 2.86213,-9.57509 6.30885,-21.27824 l 6.26685,-21.27847 h 4.73588 4.73585 l 6.11468,21.3647 c 3.36309,11.7506 6.1323,21.36444 6.15377,21.3641 0.0227,-3.8e-4 2.73103,-9.59509 6.02119,-21.32161 3.29013,-11.72655 6.00615,-21.35037 6.03567,-21.38632 0.0303,-0.0378 2.10599,-0.0552 4.61446,-0.0431 l 4.56084,0.0227 -7.93252,26.68971 c -4.36286,14.67934 -8.19912,27.59193 -8.52493,28.69467 l -0.59241,2.00498 h -4.14653 -4.14646 l -0.34743,-1.14263 c -0.26351,-0.86654 -6.38473,-20.75812 -12.41269,-40.3364 l -0.19923,-0.64674 -0.0949,0.25859 c -0.0768,0.20944 -12.18491,39.06372 -12.85214,41.24184 l -0.19129,0.62522 h -4.22377 -4.22389 z"
       id="path911" />
    <path
       style="fill:#000000;fill-opacity:1;stroke-width:0.258821;stroke-linecap:round;stroke-linejoin:round;paint-order:fill markers stroke"
       d="m 959.40618,460.32018 v -28.71626 l 4.69456,0.004 4.69448,0.004 7.17838,10.27982 c 3.94813,5.65388 10.77321,15.42154 15.16696,21.7059 l 7.98858,11.42615 0.0227,-21.70968 0.0227,-21.70963 h 4.67306 4.6731 v 28.71626 28.71623 h -4.6952 -4.69523 l -15.16624,-21.65588 -15.16628,-21.65592 -0.0227,21.65592 -0.0227,21.65588 h -4.67312 -4.67313 z"
       id="path913" />
  </g>
</svg>
