<?xml version="1.0" encoding="UTF-8" standalone="no"?>
<svg
   xmlns:dc="http://purl.org/dc/elements/1.1/"
   xmlns:cc="http://creativecommons.org/ns#"
   xmlns:rdf="http://www.w3.org/1999/02/22-rdf-syntax-ns#"
   xmlns:svg="http://www.w3.org/2000/svg"
   xmlns="http://www.w3.org/2000/svg"
   xmlns:sodipodi="http://sodipodi.sourceforge.net/DTD/sodipodi-0.dtd"
   xmlns:inkscape="http://www.inkscape.org/namespaces/inkscape"
   viewBox="0 0 1000 327.668"
   height="327.668"
   width="1000"
   xml:space="preserve"
   id="svg2"
   version="1.1"
   inkscape:version="0.91 r13725"
   sodipodi:docname="The Discovery Channel.svg"><sodipodi:namedview
     pagecolor="#ffffff"
     bordercolor="#666666"
     borderopacity="1"
     objecttolerance="10"
     gridtolerance="10"
     guidetolerance="10"
     inkscape:pageopacity="0"
     inkscape:pageshadow="2"
     inkscape:window-width="1366"
     inkscape:window-height="705"
     id="namedview37"
     showgrid="false"
     inkscape:zoom="0.511378"
     inkscape:cx="421.73565"
     inkscape:cy="444.39552"
     inkscape:window-x="-8"
     inkscape:window-y="-8"
     inkscape:window-maximized="1"
     inkscape:current-layer="svg2" /><metadata
     id="metadata8"><rdf:RDF><cc:Work
         rdf:about=""><dc:format>image/svg+xml</dc:format><dc:type
           rdf:resource="http://purl.org/dc/dcmitype/StillImage" /><dc:title></dc:title></cc:Work></rdf:RDF></metadata><defs
     id="defs6" /><path
     id="path16"
     style="fill:#000000;fill-opacity:1;fill-rule:nonzero;stroke:none"
     d="m 131.6131,238.26657 45.13287,0 0,-183.140353 -45.13287,0 z"
     inkscape:connector-curvature="0" /><path
     id="path18"
     style="fill:#000000;fill-opacity:1;fill-rule:nonzero;stroke:none"
     d="m 122.38339,-4.5316406e-4 0,5.66460996406 9.71578,0 0,33.3545902 7.52161,0 0,-33.3545902 9.71595,0 0,-5.66460996406 -26.95334,0"
     inkscape:connector-curvature="0" /><path
     id="path20"
     style="fill:#000000;fill-opacity:1;fill-rule:nonzero;stroke:none"
     d="m 172.32431,-4.5316406e-4 0,39.01920016406 7.52212,0 0,-16.36408 20.05898,0 0,16.36408 7.52212,0 0,-39.01920016406 -7.52212,0 0,16.99050016406 -20.05898,0 0,-16.99050016406 -7.52212,0"
     inkscape:connector-curvature="0" /><path
     id="path22"
     style="fill:#000000;fill-opacity:1;fill-rule:nonzero;stroke:none"
     d="m 227.8952,-4.5316406e-4 0,39.01920016406 19.43087,0 0,-5.66462 -11.91044,0 0,-10.69946 11.91044,0 0,-5.66462 -11.91044,0 0,-11.3258902 11.91044,0 0,-5.66460996406 -19.43087,0"
     inkscape:connector-curvature="0" /><path
     style="fill:#000000;fill-opacity:1;fill-rule:nonzero;stroke:none"
     d="m 0,21.174707 0,217.126063 73.340404,0 c 22.565848,0 48.893596,-14.16031 48.893596,-50.97663 l 0,-115.172813 c 0,-36.81499 -26.327748,-50.97662 -48.893596,-50.97662 L 0,21.174707 Z m 48.267956,40.27932 10.969655,0 c 7.835496,0 14.730892,4.72146 14.730892,20.14087 l 0,96.288113 c 0,15.41924 -6.895396,20.13843 -14.730892,20.13843 l -10.969655,0 0,-136.567413 z"
     id="path24"
     inkscape:connector-curvature="0" /><path
     style="fill:#000000;fill-opacity:1;fill-rule:nonzero;stroke:none"
     d="m 712.13207,50.072167 c -30.47538,0 -55.18195,18.51187 -55.18195,49.10952 l 0,94.087313 c 0,30.59747 24.70657,49.11195 55.18195,49.11195 30.47704,0 55.18195,-18.51448 55.18195,-49.11195 l 0,-28.63495 -43.21371,0 0,33.98359 c 0,6.63626 -5.35897,12.01731 -11.96824,12.01731 -6.60761,0 -11.96823,-5.38105 -11.96823,-12.01731 l 0,-50.97662 67.15018,0 0,-48.459333 c 0,-30.59765 -24.70491,-49.10952 -55.18195,-49.10952 z m 0,31.83679 c 6.60927,0 11.96824,5.37877 11.96824,12.01485 l 0,24.858993 -23.93647,0 0,-24.858993 c 0,-6.63608 5.36062,-12.01485 11.96823,-12.01485 z"
     id="path28"
     inkscape:connector-curvature="0" /><path
     id="path30"
     style="fill:#000000;fill-opacity:1;fill-rule:nonzero;stroke:none"
     d="m 594.67834,187.91847 c 7.83701,-17.62011 11.91045,-46.57147 11.91045,-79.29795 l 0,-53.493963 43.25174,0 0,67.970393 c 0,45.94202 -14.41781,87.47831 -33.53547,115.16962 l -43.25175,0 c -19.11934,-27.69131 -33.53547,-69.2276 -33.53547,-115.16962 l 0,-67.970393 43.25175,0 0,53.493963 c 0,32.72648 4.0751,61.67784 11.90875,79.29795"
     inkscape:connector-curvature="0" /><path
     id="path32"
     style="fill:#000000;fill-opacity:1;fill-rule:nonzero;stroke:none"
     d="m 839.6873,91.635037 c 0,-5.77517 -4.66301,-10.45827 -10.4164,-10.45827 -5.75338,0 -10.41639,4.6831 -10.41639,10.45827 l 0,146.636723 -43.17806,0 0,-183.138503 40.11796,0 3.1338,4.40508 c 5.64116,-4.40508 22.56635,-10.6978 28.83393,-10.0697 6.26928,0.62977 35.10322,-4.40507 35.10322,49.08889 l 0,36.503463 -43.25176,0 0.0737,-43.425953"
     inkscape:connector-curvature="0" /><path
     id="path34"
     style="fill:#000000;fill-opacity:1;fill-rule:nonzero;stroke:none"
     d="m 601.93917,267.56479 0,39.02072 7.5238,0 0,-16.36392 22.72212,0 0,16.36392 7.52212,0 0,-39.02072 -7.52212,0 0,16.99203 -22.72212,0 0,-16.99203 -7.5238,0"
     inkscape:connector-curvature="0" /><path
     id="path36"
     style="fill:#000000;fill-opacity:1;fill-rule:nonzero;stroke:none"
     d="m 824.5811,267.56479 0,39.02072 21.31182,0 0,-5.66479 -13.78971,0 0,-10.69913 13.78971,0 0,-5.66477 -13.78971,0 0,-11.3274 13.78971,0 0,-5.66463 -21.31182,0"
     inkscape:connector-curvature="0" /><path
     id="path38"
     style="fill:#000000;fill-opacity:1;fill-rule:nonzero;stroke:none"
     d="m 866.03565,267.56479 0,39.02072 21.93993,0 0,-5.66479 -14.41781,0 0,-33.35593 -7.52212,0"
     inkscape:connector-curvature="0" /><path
     id="path40"
     style="fill:#000000;fill-opacity:1;fill-rule:nonzero;stroke:none"
     d="m 714.05406,306.58551 7.52211,0 0,-27.221 25.38694,27.221 4.70152,0 0,-39.02072 -7.52212,0 0,25.80383 -23.97663,-25.80383 -6.11182,0 0,39.02072"
     inkscape:connector-curvature="0" /><path
     id="path42"
     style="fill:#000000;fill-opacity:1;fill-rule:nonzero;stroke:none"
     d="m 769.0119,306.58551 7.52212,0 0,-27.221 25.38693,27.221 4.70154,0 0,-39.02072 -7.5238,0 0,25.80383 -23.97496,-25.80383 -6.11183,0 0,39.02072"
     inkscape:connector-curvature="0" /><path
     style="fill:#000000;fill-opacity:1;fill-rule:nonzero;stroke:none"
     d="m 673.04025,267.56382 -17.23837,39.02066 6.89437,0 4.07527,-9.2841 19.19874,0 4.15134,9.2841 6.73735,0 -17.23839,-39.02066 -6.58031,0 z m 3.29015,8.18246 7.10784,15.8914 -14.15923,0 7.05139,-15.8914 z"
     id="path44"
     inkscape:connector-curvature="0" /><path
     id="path46"
     style="fill:#000000;fill-opacity:1;fill-rule:nonzero;stroke:none"
     d="m 581.45979,276.84693 c -2.4856,-2.49531 -5.76512,-3.56709 -9.55884,-3.56709 -7.58742,0 -13.73946,6.17697 -13.73946,13.79456 0,7.61909 6.15204,13.79674 13.73946,13.79674 3.79372,0 7.07324,-0.75774 9.55884,-3.25507 l 0.0352,7.29635 c -2.8323,1.61161 -6.1068,1.74377 -9.59401,1.74377 -10.77147,0 -19.50289,-8.7686 -19.50289,-19.58179 0,-10.8137 8.73142,-19.58028 19.50289,-19.58028 3.36662,0 6.84545,0.38406 9.61076,1.89149 l -0.0519,7.46132"
     inkscape:connector-curvature="0" /><path
     id="path48"
     style="fill:#000000;fill-opacity:1;fill-rule:nonzero;stroke:none"
     d="m 218.42177,239.62678 c 21.77913,-19.17931 47.48431,-33.95722 75.72533,-43.04372 0.13063,-1.49756 0.21606,-3.01488 0.21606,-4.56938 0.0202,-33.35626 -5.66462,-41.22175 -18.20147,-51.29143 -9.93738,-7.98271 -37.32417,-29.28784 -43.56329,-34.30092 -3.13547,-2.51575 -4.70153,-4.40339 -4.68311,-14.158203 0,-5.89911 4.76351,-10.68102 10.63748,-10.68102 5.87398,0 10.63749,4.78191 10.63749,10.68102 l 0,15.732633 43.8966,0 0.0217,-8.810143 c 0,-30.59764 -24.70691,-49.11233 -55.18397,-49.11233 -30.47536,0 -55.18228,18.51469 -55.18228,49.11233 0.0217,11.327573 5.97615,24.544453 17.88658,33.039703 8.15022,7.55226 27.26789,19.82449 39.17666,30.83884 11.91043,11.01468 9.40305,16.6773 9.38463,25.80249 l 0,11.08987 c 0,5.89879 -4.76351,10.68089 -10.63749,10.68089 -5.87397,0 -10.63748,-4.7821 -10.63748,-10.68089 l -0.0185,-35.3196 -45.15447,0 0,28.6348 c 0,23.70362 14.83151,40.14475 35.67938,46.35506"
     inkscape:connector-curvature="0" /><path
     id="path50"
     style="fill:#000000;fill-opacity:1;fill-rule:nonzero;stroke:none"
     d="m 369.92434,186.51639 c 14.85162,0.69157 29.30627,2.90113 43.2149,6.48064 l 0,-28.42711 -43.2149,0 0,21.94647"
     inkscape:connector-curvature="0" /><path
     id="path52"
     style="fill:#000000;fill-opacity:1;fill-rule:nonzero;stroke:none"
     d="m 345.92257,186.86125 0,-92.980143 c 0,-6.63606 5.35812,-12.01595 11.96739,-12.01595 6.60927,0 11.96739,5.37989 11.96739,12.01595 l 0,31.781833 43.2149,0 0,-26.432093 c 0,-30.59931 -24.70692,-49.11066 -55.18229,-49.11066 -30.47704,0 -55.18396,18.51135 -55.18396,49.11066 l 0,94.086093 c 0,0.27485 0.0167,0.54234 0.0217,0.81519 13.88518,-3.84514 28.33146,-6.31567 43.1948,-7.27088"
     inkscape:connector-curvature="0" /><path
     style="fill:#000000;fill-opacity:1;fill-rule:nonzero;stroke:none"
     d="m 476.5973,50.074637 c -30.47538,0 -55.18196,18.51264 -55.18196,49.11195 l 0,94.087313 c 0,0.69678 0.0264,1.38082 0.0515,2.06586 29.18569,8.76793 55.74251,23.6207 78.23516,43.08859 18.93343,-6.96806 32.07967,-22.84116 32.07967,-45.15445 l 0,-94.087313 c 0,-30.59931 -24.70735,-49.11195 -55.1844,-49.11195 z m 0,31.74354 c 6.61096,0 11.96823,5.37876 11.96823,12.01485 l 0,104.784613 c 0,6.63626 -5.35727,12.01731 -11.96823,12.01731 -6.60761,0 -11.96578,-5.38105 -11.96578,-12.01731 l 0,-104.784613 c 0,-6.63609 5.35817,-12.01485 11.96578,-12.01485 z"
     id="path54"
     inkscape:connector-curvature="0" /><path
     id="path56"
     style="fill:#000000;fill-opacity:1;fill-rule:nonzero;stroke:none"
     d="M 550.81022,327.668 C 521.87076,249.97282 447.25592,194.65354 359.77425,194.65354 c -87.48333,0 -162.09649,55.31928 -191.03595,133.01446 l 382.07192,0"
     inkscape:connector-curvature="0" /><path
     id="path66"
     style="fill:#000000;fill-opacity:1;fill-rule:nonzero;stroke:none"
     d="m 956.74993,55.106457 0,53.493973 c 0,32.72648 -4.07511,61.67564 -11.91045,79.29777 -7.83532,-17.62213 -11.91043,-46.57129 -11.91043,-79.29777 l 0,-53.493973 -43.25174,0 0,67.968713 c 0,45.94354 14.4178,87.47983 33.53546,115.1718 l -31.02642,0 0,20.76713 63.30905,0 C 959.88204,253.9796 1000,196.58624 1000,123.07517 l 0,-67.968713 -43.25007,0"
     inkscape:connector-curvature="0" /></svg>