<svg height="146.693515" viewBox="0 0 79.00011 16.71832" width="681.693393" xmlns="http://www.w3.org/2000/svg"><path d="m36.14958 8.82873a4.08567 4.08567 0 0 0 -4.00887 4.30982 3.12645 3.12645 0 0 0 3.30229 3.38614 4.08549 4.08549 0 0 0 4.0088-4.30968 3.12642 3.12642 0 0 0 -3.30222-3.38628zm-.56666 5.64608c-.88851 0-1.11941-.72757-1.11941-1.50423 0-1.00048.55282-2.09186 1.54626-2.09186.88844 0 1.11941.72753 1.11941 1.50416 0 1.00041-.55282 2.09193-1.54626 2.09193zm30.83944-5.5202-1.5741 7.44413h-2.015l-1.25926-3.53314-.74183 3.53314h-2.19659l1.5741-7.44413h2.001l1.25926 3.53321.74153-3.53321zm-20.02636 2.25293c0-1.4623-.98626-2.25293-2.80524-2.25293h-2.51169l-1.58833 7.44413h2.2668l.49679-2.32979h.57362l.71366 2.32979h2.43486l-1.04247-2.7216a2.68469 2.68469 0 0 0 1.462-2.4696zm-3.25324 1.01446h-.49663l.28681-1.32938h.50369c.44782 0 .6717.168.6717.49679 0 .53166-.34985.83259-.96557.83259zm-14.34629-3.26739h-2.39966l-1.58817 7.44413h2.26673l.44779-2.11292h.69973c2.15478 0 3.477-1.13341 3.477-2.98048.00004-1.58113-.9445-2.35073-2.90342-2.35073zm-.46872 3.4002h-.39181l.31491-1.46223h.42662c.51072 0 .72773.17492.72773.58073 0 .54569-.41276.8815-1.07745.8815zm39.0878-3.4002h5.00235l-.44092 2.036h-2.72838l-.154.72766h2.21079l-.41278 1.90292h-2.19683l-.16788.77666h2.86843l-.43375 2.00088h-5.12115zm-42.97894 4.90439c0 1.6302-1.20328 2.66564-3.09235 2.66564a4.52548 4.52548 0 0 1 -2.82642-.83956l.72056-1.798a4.042 4.042 0 0 0 1.966.60866c.6437 0 .90955-.147.90955-.38482 0-.23088-.105-.31482-.85354-.62266l-.20294-.084a2.10343 2.10343 0 0 1 -1.51816-2.04978c0-1.54624 1.16845-2.52567 3.00839-2.52567a4.24174 4.24174 0 0 1 2.51167.73447l-.7346 1.7981a3.58368 3.58368 0 0 0 -1.7841-.50369c-.44071 0-.67163.11891-.67163.36379 0 .1679.098.25184.51775.41278l.20285.0769c1.28036.48272 1.84697 1.14044 1.84697 2.14784zm33.93194 0c0 1.6302-1.20356 2.66564-3.09263 2.66564a4.52532 4.52532 0 0 1 -2.82635-.83956l.72056-1.798a4.0422 4.0422 0 0 0 1.96605.60866c.64356 0 .90941-.147.90941-.38482 0-.23088-.105-.31482-.85354-.62266l-.2028-.084a2.10341 2.10341 0 0 1 -1.51825-2.04978c0-1.54624 1.16835-2.52567 3.00832-2.52567a4.24219 4.24219 0 0 1 2.51181.73447l-.73477 1.7981a3.583 3.583 0 0 0 -1.78393-.50369c-.44093 0-.67173.11891-.67173.36379 0 .1679.0981.25184.51762.41278l.20308.0769c1.28028.48272 1.84715 1.14044 1.84715 2.14784zm20.63156-4.90439-.43375 2.036h-1.798l-1.14736 5.40813h-2.29485l1.14741-5.40812h-1.84l.43375-2.036zm-26.11139 2.036h-1.798l-1.14755 5.40812h-2.29464l1.14739-5.40812h-1.84009l.43372-2.036h5.93291z"/><path d="m3.23323 14.9615a8.35488 8.35488 0 0 0 10.63287-.31542c.01753-.01542.00876-.02635-.00864-.01542a10.15729 10.15729 0 0 1 -5.49828 1.402 10.45477 10.45477 0 0 1 -5.115-1.08646c-.01758-.00882-.024.00434-.011.01528m5.69328.42715a9.42456 9.42456 0 0 0 5.669-1.67144 4.50973 4.50973 0 0 0 1.03837-1.24642 7.965 7.965 0 0 0 .50383-1.04483c.00659-.01739-.00434-.02622-.01746-.00659-1.25747 1.851-4.89807 3.00537-8.65707 3.00537-2.6571 0-5.51586-.84985-6.63513-2.47306-.01093-.0153-.022-.00885-.01535.00882 1.04264 2.21678 4.20577 3.42814 8.11377 3.42814m-2.24742-3.67779c-4.27816 0-6.29566-1.99347-6.6614-3.35383-.00448-.01976-.0176-.01528-.0176.00211a8.28456 8.28456 0 0 0 .12485 1.4414 1.67918 1.67918 0 0 0 .42061.72955c1.03621 1.08 3.61889 2.59359 8.09192 2.59359 6.09408 0 7.48725-2.03063 7.77193-2.69875a6.11651 6.11651 0 0 0 .309-2.06578c0-.17524-.00448-.31542-.01112-.45337 0-.02187-.01308-.02413-.01741-.00211-.30456 1.634-5.51141 3.8072-10.01079 3.8072m-5.87289-6.9376a8.29827 8.29827 0 0 0 -.59805 1.73276.55477.55477 0 0 0 .04395.40512c.51245 1.08883 3.10613 2.83023 9.15647 2.83023 3.691 0 6.55834-.90688 7.02283-2.56278a1.96622 1.96622 0 0 0 -.01981-1.06024 8.07973 8.07973 0 0 0 -.54749-1.44589c-.00659-.013-.01753-.01091-.01535.00437.07228 2.1708-5.98014 3.57057-9.03381 3.57057-3.30771 0-6.0679-1.31861-6.0679-2.98338a2.017 2.017 0 0 1 .07456-.48639c.0043-.0153-.00875-.01753-.01539-.00437m13.07323-2.66592a.33879.33879 0 0 1 .05257.19286c0 .92875-2.84119 2.5716-7.3646 2.5716-3.32309 0-3.94529-1.23323-3.94529-2.01755a1.35566 1.35566 0 0 1 .344-.85867c.01312-.01751.00218-.024-.01312-.01091a8.38468 8.38468 0 0 0 -1.1763 1.22241 1.06352 1.06352 0 0 0 -.26956.50819c-.00004 1.62532 4.07446 2.80375 7.88385 2.80375 4.059 0 5.87064-1.32507 5.87064-2.49045 0-.41633-.16212-.65942-.57611-1.13032a9.84649 9.84649 0 0 0 -.793-.80188c-.0131-.01094-.02187-.00211-.0131.011m-1.24422-.9288a8.34777 8.34777 0 0 0 -8.611.03506c-.37681.23227-.5892.41845-.5892.65719 0 .7053 1.64727 1.46327 4.56935 1.46327 2.89157 0 5.13471-.83032 5.13471-1.6298 0-.19052-.16646-.32427-.50383-.52572m22.8234 6.05331.38475.53176h2.39272l-1.30131-1.79808c.22391-.23088.44789-.48272.72077-.8185l1.07041-1.32932h-1.994l-.72766.87453-.44766-.62276c1.35019-.69959 1.742-1.44815 1.742-2.10579a1.90886 1.90886 0 0 0 -2.13387-1.77007 2.39507 2.39507 0 0 0 -2.58168 2.24583 2.79666 2.79666 0 0 0 .34277 1.21029 2.62739 2.62739 0 0 0 -1.77 2.27385 1.94607 1.94607 0 0 0 2.17582 1.966 3.49613 3.49613 0 0 0 2.12694-.65774zm-.42678-5.527c.217 0 .34971.11891.34971.30785 0 .22384-.15381.51072-.68556.85354a1.0168 1.0168 0 0 1 -.1959-.59469.5402.5402 0 0 1 .53175-.56673zm-1.24526 3.2322.74151 1.01448a1.424 1.424 0 0 1 -.68562.21c-.32882 0-.5247-.168-.5247-.46182a.96972.96972 0 0 1 .46881-.76266zm-12.43023 1.6302h2.015l.091 1.19636h2.28774l-1.02843-7.44411h-2.19686l-4.19078 7.44411h2.44167zm1.74913-3.61715.13291 1.77008h-.98647zm17.0812-.59468h-1.84011l.43375-2.03592h5.93291l-.43372 2.03592h-1.79831l-1.14725 5.40819h-2.29486zm-12.38669 0h-1.84l.43387-2.03592h5.9327l-.43367 2.03592h-1.79809l-1.14731 5.40819h-2.29483z" fill="#009fdb"/></svg>