<?xml version="1.0" encoding="UTF-8" standalone="no"?>
<!-- Generator: Adobe Illustrator 24.2.3, SVG Export Plug-In . SVG Version: 6.00 Build 0)  -->

<svg
   version="1.1"
   id="Layer_1"
   x="0px"
   y="0px"
   viewBox="0 0 180 45.1"
   style="enable-background:new 0 0 180 45.1;"
   xml:space="preserve"
   sodipodi:docname="ontario-logo--desktop.svg"
   inkscape:version="1.1.2 (b8e25be833, 2022-02-05)"
   xmlns:inkscape="http://www.inkscape.org/namespaces/inkscape"
   xmlns:sodipodi="http://sodipodi.sourceforge.net/DTD/sodipodi-0.dtd"
   xmlns="http://www.w3.org/2000/svg"
   xmlns:svg="http://www.w3.org/2000/svg"><defs
   id="defs27">
	
	
	
	
	
	
	
	
	
</defs><sodipodi:namedview
   id="namedview25"
   pagecolor="#ffffff"
   bordercolor="#666666"
   borderopacity="1.0"
   inkscape:pageshadow="2"
   inkscape:pageopacity="0.0"
   inkscape:pagecheckerboard="0"
   showgrid="false"
   inkscape:zoom="3.8742818"
   inkscape:cx="90.726492"
   inkscape:cy="22.713887"
   inkscape:current-layer="Layer_1" />
<style
   type="text/css"
   id="style2">
	.st0{fill-rule:evenodd;clip-rule:evenodd;fill:#FFFFFF;}
	.st1{fill:#FFFFFF;}
	.st2{fill-rule:evenodd;clip-rule:evenodd;}
</style>
<rect
   style="fill:#4d4d4d;stroke-width:1.23406"
   id="rect174"
   width="221.20229"
   height="50"
   x="-19.75659"
   y="-2.3801918" /><path
   class="st0"
   d="M 0,25.5 C 0,18 4.6,13.3 12.5,13.3 20.4,13.3 25,18 25,25.5 25,33 20.4,37.7 12.5,37.7 4.5,37.7 0,32.9 0,25.5 Z m 12.5,8 c 2.3,0 4.3,-0.8 5.6,-2.2 1.3,-1.4 2.1,-3.5 2.1,-5.9 0,-2.4 -0.7,-4.5 -2.1,-5.9 -1.4,-1.5 -3.3,-2.2 -5.7,-2.2 -2.3,0 -4.3,0.8 -5.6,2.2 -1.3,1.4 -2.1,3.5 -2.1,5.9 0,2.5 0.7,4.5 2.1,5.9 1.4,1.5 3.3,2.2 5.7,2.2 z"
   id="path4" /><path
   class="st1"
   d="M 41.2,37.2 V 26.8 c 0,-2.7 -1.4,-4.3 -3.8,-4.3 -2.4,0 -3.8,1.7 -3.8,4.3 v 10.5 h -4.5 v -18 h 4.5 v 2.6 c 1.3,-1.5 3,-2.9 5.9,-2.9 3.8,0 6.1,2.6 6.1,6.7 v 11.7 z"
   id="path6" /><path
   class="st1"
   d="m 60.1,36.6 c -0.8,0.5 -2.1,0.9 -3.8,0.9 -3.1,0 -5.2,-1.3 -5.2,-5.4 v -9.4 h -2.2 v -3.5 h 2.2 v -4.6 h 4.5 v 4.6 H 60 v 3.5 h -4.4 v 8.5 c 0,1.6 0.8,2.4 2.3,2.4 0.8,0 1.8,-0.2 2.3,-0.5 v 3.5 z"
   id="path8" /><path
   class="st0"
   d="m 64.4,20.3 c 1.9,-0.8 3.8,-1.3 6.7,-1.3 5.6,0 8,2.9 8,7.8 v 10.5 h -4.2 v -1.7 c -1.4,1.1 -3.3,2 -6.1,2 -3.3,0 -6,-1.9 -6,-5.4 v -0.1 c 0,-4.1 3,-5.9 7.1,-5.9 2,0 3.7,0.3 5.1,0.7 v -0.4 c 0,-2.6 -1.7,-4 -4.7,-4 -2,0 -3.8,0.5 -5.1,1 z m 6,14.3 c 2.6,0 4.5,-1.5 4.5,-3.7 v -1.3 l -0.4,-0.2 c -0.9,-0.4 -2.2,-0.6 -3.4,-0.6 -2.5,0 -4,1.2 -4,3 V 32 c 0,1.6 1.3,2.6 3.3,2.6 z"
   id="path10" /><path
   class="st1"
   d="m 83.6,37.2 v -18 H 88 v 3.6 c 1.2,-2.5 2.7,-4.1 6,-4 v 3.9 h -0.1 c -1.6,0 -3,0.5 -4,1.4 -1.3,1.2 -2,3.1 -2,5.6 v 7.5 h -4.3 z"
   id="path12" /><path
   class="st0"
   d="m 102.4,16.5 v -3.9 h -4.7 v 3.9 z m -4.6,2.7 h 4.5 v 18 h -4.5 z"
   id="path14" /><path
   class="st0"
   d="m 106.3,28.3 c 0,-5.8 3.7,-9.4 9.8,-9.4 6.1,0 9.7,3.6 9.8,9.4 0,5.8 -3.7,9.4 -9.8,9.4 -6.2,0 -9.8,-3.7 -9.8,-9.4 z m 9.8,5.6 c 1.6,0 3,-0.5 3.9,-1.5 0.9,-1 1.4,-2.4 1.4,-4.2 0,-1.7 -0.5,-3.2 -1.4,-4.2 -1,-1 -2.3,-1.6 -3.9,-1.6 -1.6,0 -3,0.5 -3.9,1.5 -0.9,1 -1.4,2.4 -1.4,4.2 0,1.7 0.5,3.2 1.4,4.2 0.9,1.1 2.2,1.6 3.9,1.6 z"
   id="path16" /><path
   class="st1"
   d="M 157.5,0 C 142.2,0 135,7.2 135,22.6 c 0,15.3 7.2,22.6 22.5,22.6 15.3,0 22.5,-7.3 22.5,-22.6 C 180,7.2 172.8,0 157.5,0 Z"
   id="path18" /><path
   class="st2"
   d="m 157.5,12.9 c 4.6,-3.1 10.4,-3.5 15.4,-1.1 l 0.2,0.1 v 0.2 c -0.2,2.3 -0.9,4.6 -2,6.6 -1.4,2.4 -3.3,4.3 -5.7,5.7 v 0 c -0.1,0.1 -0.2,0.1 -0.4,0.2 -0.2,0.1 -0.4,0.2 -0.6,0.3 0.4,5.6 -2.1,10.8 -6.7,13.9 l -0.2,0.1 -0.1,-0.1 c -1.9,-1.3 -3.6,-3.1 -4.7,-5.1 -1.4,-2.4 -2.1,-5.1 -2.1,-7.8 v 0 c 0,-0.3 0,-0.7 0.1,-1 -5,-2.5 -8.2,-7.2 -8.6,-12.8 v -0.2 l 0.2,-0.1 c 2.1,-1 4.4,-1.6 6.7,-1.6 2.7,0 5.4,0.7 7.7,2.1 v 0 c 0.2,0.3 0.5,0.4 0.8,0.6 z m 5.8,8.4 c 1.7,-1 3.2,-2.4 4.3,-4.2 0.5,-0.9 0.9,-1.8 1.2,-2.6 -2.8,-0.7 -5.7,-0.2 -8.2,1.2 0.2,0.3 0.4,0.6 0.5,1.1 0.2,0.4 0.2,1 0.1,1.5 -0.1,0.2 -0.1,0.4 -0.2,0.6 -0.5,0.9 -1.6,1.5 -2.9,1.9 0.5,-1.6 -0.3,-2.9 -1.3,-3.8 -0.5,-0.5 -1.1,-0.8 -1.7,-1.2 -1.7,-1 -3.7,-1.6 -5.8,-1.6 -1,0 -2,0.1 -2.9,0.4 0.9,2.8 2.6,5 5.1,6.6 0.2,-0.4 0.4,-0.6 0.7,-1 0.3,-0.4 0.8,-0.7 1.2,-0.8 0.2,-0.1 0.4,-0.1 0.6,-0.1 1,0 2.1,0.6 3.1,1.5 -1.6,0.4 -2.4,1.7 -2.6,3 -0.1,0.7 -0.2,1.4 -0.2,2 0,2 0.5,4 1.5,5.8 0.5,0.9 1.1,1.7 1.8,2.3 2,-2.2 3,-4.8 3.1,-7.8 -0.4,0.1 -0.7,0 -1.2,-0.1 -0.4,-0.1 -0.9,-0.4 -1.3,-0.7 -0.1,-0.2 -0.3,-0.3 -0.4,-0.5 -0.5,-0.9 -0.5,-2.1 -0.2,-3.4 1.1,1.2 2.7,1.2 3.9,0.8 0.6,-0.3 1.2,-0.5 1.8,-0.9 z"
   id="path20" />
</svg>
