<?xml version="1.0" encoding="UTF-8"?>
<!DOCTYPE svg PUBLIC "-//W3C//DTD SVG 1.1//EN" "http://www.w3.org/Graphics/SVG/1.1/DTD/svg11.dtd">
<svg version="1.2" width="162.03mm" height="63mm" viewBox="0 0 16203 6300" preserveAspectRatio="xMidYMid" fill-rule="evenodd" stroke-width="28.222" stroke-linejoin="round" xmlns="http://www.w3.org/2000/svg" xmlns:ooo="http://xml.openoffice.org/svg/export" xmlns:xlink="http://www.w3.org/1999/xlink" xmlns:presentation="http://sun.com/xmlns/staroffice/presentation" xmlns:smil="http://www.w3.org/2001/SMIL20/" xmlns:anim="urn:oasis:names:tc:opendocument:xmlns:animation:1.0" xml:space="preserve">
 <defs class="ClipPathGroup">
  <clipPath id="presentation_clip_path" clipPathUnits="userSpaceOnUse">
   <rect x="0" y="0" width="16203" height="6300"/>
  </clipPath>
  <clipPath id="presentation_clip_path_shrink" clipPathUnits="userSpaceOnUse">
   <rect x="16" y="6" width="16171" height="6288"/>
  </clipPath>
 </defs>
 <defs class="TextShapeIndex">
  <g ooo:slide="id1" ooo:id-list="id3 id4 id5 id6 id7 id8 id9 id10 id11"/>
 </defs>
 <defs class="EmbeddedBulletChars">
  <g id="bullet-char-template-57356" transform="scale(0.00048828125,-0.00048828125)">
   <path d="M 580,1141 L 1163,571 580,0 -4,571 580,1141 Z"/>
  </g>
  <g id="bullet-char-template-57354" transform="scale(0.00048828125,-0.00048828125)">
   <path d="M 8,1128 L 1137,1128 1137,0 8,0 8,1128 Z"/>
  </g>
  <g id="bullet-char-template-10146" transform="scale(0.00048828125,-0.00048828125)">
   <path d="M 174,0 L 602,739 174,1481 1456,739 174,0 Z M 1358,739 L 309,1346 659,739 1358,739 Z"/>
  </g>
  <g id="bullet-char-template-10132" transform="scale(0.00048828125,-0.00048828125)">
   <path d="M 2015,739 L 1276,0 717,0 1260,543 174,543 174,936 1260,936 717,1481 1274,1481 2015,739 Z"/>
  </g>
  <g id="bullet-char-template-10007" transform="scale(0.00048828125,-0.00048828125)">
   <path d="M 0,-2 C -7,14 -16,27 -25,37 L 356,567 C 262,823 215,952 215,954 215,979 228,992 255,992 264,992 276,990 289,987 310,991 331,999 354,1012 L 381,999 492,748 772,1049 836,1024 860,1049 C 881,1039 901,1025 922,1006 886,937 835,863 770,784 769,783 710,716 594,584 L 774,223 C 774,196 753,168 711,139 L 727,119 C 717,90 699,76 672,76 641,76 570,178 457,381 L 164,-76 C 142,-110 111,-127 72,-127 30,-127 9,-110 8,-76 1,-67 -2,-52 -2,-32 -2,-23 -1,-13 0,-2 Z"/>
  </g>
  <g id="bullet-char-template-10004" transform="scale(0.00048828125,-0.00048828125)">
   <path d="M 285,-33 C 182,-33 111,30 74,156 52,228 41,333 41,471 41,549 55,616 82,672 116,743 169,778 240,778 293,778 328,747 346,684 L 369,508 C 377,444 397,411 428,410 L 1163,1116 C 1174,1127 1196,1133 1229,1133 1271,1133 1292,1118 1292,1087 L 1292,965 C 1292,929 1282,901 1262,881 L 442,47 C 390,-6 338,-33 285,-33 Z"/>
  </g>
  <g id="bullet-char-template-9679" transform="scale(0.00048828125,-0.00048828125)">
   <path d="M 813,0 C 632,0 489,54 383,161 276,268 223,411 223,592 223,773 276,916 383,1023 489,1130 632,1184 813,1184 992,1184 1136,1130 1245,1023 1353,916 1407,772 1407,592 1407,412 1353,268 1245,161 1136,54 992,0 813,0 Z"/>
  </g>
  <g id="bullet-char-template-8226" transform="scale(0.00048828125,-0.00048828125)">
   <path d="M 346,457 C 273,457 209,483 155,535 101,586 74,649 74,723 74,796 101,859 155,911 209,963 273,989 346,989 419,989 480,963 531,910 582,859 608,796 608,723 608,648 583,586 532,535 482,483 420,457 346,457 Z"/>
  </g>
  <g id="bullet-char-template-8211" transform="scale(0.00048828125,-0.00048828125)">
   <path d="M -4,459 L 1135,459 1135,606 -4,606 -4,459 Z"/>
  </g>
  <g id="bullet-char-template-61548" transform="scale(0.00048828125,-0.00048828125)">
   <path d="M 173,740 C 173,903 231,1043 346,1159 462,1274 601,1332 765,1332 928,1332 1067,1274 1183,1159 1299,1043 1357,903 1357,740 1357,577 1299,437 1183,322 1067,206 928,148 765,148 601,148 462,206 346,322 231,437 173,577 173,740 Z"/>
  </g>
 </defs>
 <g>
  <g id="id2" class="Master_Slide">
   <g id="bg-id2" class="Background"/>
   <g id="bo-id2" class="BackgroundObjects"/>
  </g>
 </g>
 <g class="SlideGroup">
  <g>
   <g id="container-id1">
    <g id="id1" class="Slide" clip-path="url(#presentation_clip_path)">
     <g class="Page">
      <g class="com.sun.star.drawing.ClosedBezierShape">
       <g id="id3">
        <rect class="BoundingBox" stroke="none" fill="none" x="2438" y="4996" width="7256" height="1304"/>
        <path fill="rgb(0,85,140)" stroke="none" d="M 9597,6139 C 9709,6126 9759,5965 9534,5877 7429,5044 4315,4819 2598,5131 2410,5182 2349,5343 2635,5380 2934,5417 3693,5481 4778,5729 5376,5867 5823,6065 6209,6277 6232,6290 6253,6297 6273,6298 L 6285,6298 C 6317,6296 6346,6279 6373,6250 7257,5354 9386,6163 9597,6139 Z"/>
       </g>
      </g>
      <g class="com.sun.star.drawing.ClosedBezierShape">
       <g id="id4">
        <rect class="BoundingBox" stroke="none" fill="none" x="-1" y="3899" width="9963" height="1656"/>
        <path fill="rgb(200,16,46)" stroke="none" d="M 9785,5454 L 9960,4608 C 6649,3597 3471,3660 135,4843 58,4871 5,4932 0,4988 L 0,5006 C 6,5069 81,5118 259,5092 770,5018 2849,4729 4707,4719 6188,4705 7995,5031 9500,5528 9674,5578 9748,5555 9785,5454 Z"/>
       </g>
      </g>
      <g class="com.sun.star.drawing.ClosedBezierShape">
       <g id="id5">
        <rect class="BoundingBox" stroke="none" fill="none" x="5192" y="100" width="5722" height="4150"/>
        <path fill="rgb(153,153,153)" stroke="none" d="M 9523,101 L 8989,2630 8965,2630 8230,101 5516,101 5281,1222 5680,1222 5193,3539 C 5268,3539 5342,3539 5418,3539 5805,3539 6178,3552 6564,3589 L 7074,1198 7088,1198 7823,3737 C 8544,3848 9280,4023 10026,4248 L 10039,4248 10912,101 C 10907,101 9523,101 9523,101 Z"/>
       </g>
      </g>
      <g class="com.sun.star.drawing.ClosedBezierShape">
       <g id="id6">
        <rect class="BoundingBox" stroke="none" fill="none" x="315" y="0" width="4795" height="3977"/>
        <path fill="rgb(153,153,153)" stroke="none" d="M 3225,0 C 1717,0 884,373 709,1196 659,1407 672,1683 833,1857 1243,2304 3013,2479 3175,2717 3212,2767 3225,2817 3212,2892 3148,3190 2775,3277 2453,3277 2241,3277 2117,3227 2029,3130 1955,3029 1942,2881 1979,2669 L 360,2669 C 249,3316 222,3888 1868,3975 2677,3777 3487,3652 4283,3589 4633,3377 4831,3093 4905,2757 4979,2394 4881,2183 4757,2058 4347,1611 2640,1437 2439,1212 2402,1175 2389,1101 2402,1037 2439,839 2651,714 2987,714 3185,714 3336,738 3434,815 3535,889 3572,1026 3535,1238 L 5080,1238 5080,1220 C 5228,447 4831,0 3225,0 Z"/>
       </g>
      </g>
      <g class="com.sun.star.drawing.PolyPolygonShape">
       <g id="id7">
        <rect class="BoundingBox" stroke="none" fill="none" x="10558" y="100" width="4611" height="3946"/>
        <path fill="rgb(221,221,221)" stroke="none" d="M 11394,101 L 15167,101 14992,934 12825,934 12677,1656 14706,1656 14532,2489 12502,2489 12354,3211 14547,3211 14373,4044 10558,4044 11394,101 Z"/>
       </g>
      </g>
      <g class="com.sun.star.drawing.PolyPolygonShape">
       <g id="id8">
        <rect class="BoundingBox" stroke="none" fill="none" x="15479" y="110" width="301" height="378"/>
        <path fill="rgb(153,153,153)" stroke="none" d="M 15479,111 L 15778,111 15778,148 15653,148 15653,487 15603,487 15603,148 15479,148 15479,111 Z"/>
       </g>
      </g>
      <g class="com.sun.star.drawing.PolyPolygonShape">
       <g id="id9">
        <rect class="BoundingBox" stroke="none" fill="none" x="15836" y="100" width="362" height="388"/>
        <path fill="rgb(153,153,153)" stroke="none" d="M 16138,487 L 16138,474 16132,474 16132,487 16138,487 Z M 16138,262 L 16138,161 16037,474 15987,474 15886,161 15886,249 15886,474 15836,474 15836,101 15910,101 16021,413 16122,101 16196,101 16196,474 16138,474 16138,262 Z"/>
       </g>
      </g>
      <g class="com.sun.star.drawing.PolyPolygonShape">
       <g id="id10">
        <rect class="BoundingBox" stroke="none" fill="none" x="15479" y="110" width="301" height="378"/>
        <path fill="rgb(153,153,153)" stroke="none" d="M 15479,111 L 15778,111 15778,148 15653,148 15653,487 15603,487 15603,148 15479,148 15479,111 Z"/>
       </g>
      </g>
      <g class="com.sun.star.drawing.PolyPolygonShape">
       <g id="id11">
        <rect class="BoundingBox" stroke="none" fill="none" x="15836" y="100" width="362" height="388"/>
        <path fill="rgb(153,153,153)" stroke="none" d="M 16138,487 L 16138,474 16132,474 16132,487 16138,487 Z M 16138,262 L 16138,161 16037,474 15987,474 15886,161 15886,249 15886,474 15836,474 15836,101 15910,101 16021,413 16122,101 16196,101 16196,474 16138,474 16138,262 Z"/>
       </g>
      </g>
     </g>
    </g>
   </g>
  </g>
 </g>
</svg>