<?xml version="1.0" encoding="UTF-8"?>
<!DOCTYPE svg PUBLIC "-//W3C//DTD SVG 1.1//EN" "http://www.w3.org/Graphics/SVG/1.1/DTD/svg11.dtd">
<svg version="1.2" width="161.9mm" height="62.34mm" viewBox="0 0 16190 6234" preserveAspectRatio="xMidYMid" fill-rule="evenodd" stroke-width="28.222" stroke-linejoin="round" xmlns="http://www.w3.org/2000/svg" xmlns:ooo="http://xml.openoffice.org/svg/export" xmlns:xlink="http://www.w3.org/1999/xlink" xmlns:presentation="http://sun.com/xmlns/staroffice/presentation" xmlns:smil="http://www.w3.org/2001/SMIL20/" xmlns:anim="urn:oasis:names:tc:opendocument:xmlns:animation:1.0" xml:space="preserve">
 <defs class="ClipPathGroup">
  <clipPath id="presentation_clip_path" clipPathUnits="userSpaceOnUse">
   <rect x="0" y="0" width="16190" height="6234"/>
  </clipPath>
  <clipPath id="presentation_clip_path_shrink" clipPathUnits="userSpaceOnUse">
   <rect x="16" y="6" width="16158" height="6222"/>
  </clipPath>
 </defs>
 <defs class="TextShapeIndex">
  <g ooo:slide="id1" ooo:id-list="id3 id4 id5 id6 id7 id8 id9 id10 id11"/>
 </defs>
 <defs class="EmbeddedBulletChars">
  <g id="bullet-char-template-57356" transform="scale(0.00048828125,-0.00048828125)">
   <path d="M 580,1141 L 1163,571 580,0 -4,571 580,1141 Z"/>
  </g>
  <g id="bullet-char-template-57354" transform="scale(0.00048828125,-0.00048828125)">
   <path d="M 8,1128 L 1137,1128 1137,0 8,0 8,1128 Z"/>
  </g>
  <g id="bullet-char-template-10146" transform="scale(0.00048828125,-0.00048828125)">
   <path d="M 174,0 L 602,739 174,1481 1456,739 174,0 Z M 1358,739 L 309,1346 659,739 1358,739 Z"/>
  </g>
  <g id="bullet-char-template-10132" transform="scale(0.00048828125,-0.00048828125)">
   <path d="M 2015,739 L 1276,0 717,0 1260,543 174,543 174,936 1260,936 717,1481 1274,1481 2015,739 Z"/>
  </g>
  <g id="bullet-char-template-10007" transform="scale(0.00048828125,-0.00048828125)">
   <path d="M 0,-2 C -7,14 -16,27 -25,37 L 356,567 C 262,823 215,952 215,954 215,979 228,992 255,992 264,992 276,990 289,987 310,991 331,999 354,1012 L 381,999 492,748 772,1049 836,1024 860,1049 C 881,1039 901,1025 922,1006 886,937 835,863 770,784 769,783 710,716 594,584 L 774,223 C 774,196 753,168 711,139 L 727,119 C 717,90 699,76 672,76 641,76 570,178 457,381 L 164,-76 C 142,-110 111,-127 72,-127 30,-127 9,-110 8,-76 1,-67 -2,-52 -2,-32 -2,-23 -1,-13 0,-2 Z"/>
  </g>
  <g id="bullet-char-template-10004" transform="scale(0.00048828125,-0.00048828125)">
   <path d="M 285,-33 C 182,-33 111,30 74,156 52,228 41,333 41,471 41,549 55,616 82,672 116,743 169,778 240,778 293,778 328,747 346,684 L 369,508 C 377,444 397,411 428,410 L 1163,1116 C 1174,1127 1196,1133 1229,1133 1271,1133 1292,1118 1292,1087 L 1292,965 C 1292,929 1282,901 1262,881 L 442,47 C 390,-6 338,-33 285,-33 Z"/>
  </g>
  <g id="bullet-char-template-9679" transform="scale(0.00048828125,-0.00048828125)">
   <path d="M 813,0 C 632,0 489,54 383,161 276,268 223,411 223,592 223,773 276,916 383,1023 489,1130 632,1184 813,1184 992,1184 1136,1130 1245,1023 1353,916 1407,772 1407,592 1407,412 1353,268 1245,161 1136,54 992,0 813,0 Z"/>
  </g>
  <g id="bullet-char-template-8226" transform="scale(0.00048828125,-0.00048828125)">
   <path d="M 346,457 C 273,457 209,483 155,535 101,586 74,649 74,723 74,796 101,859 155,911 209,963 273,989 346,989 419,989 480,963 531,910 582,859 608,796 608,723 608,648 583,586 532,535 482,483 420,457 346,457 Z"/>
  </g>
  <g id="bullet-char-template-8211" transform="scale(0.00048828125,-0.00048828125)">
   <path d="M -4,459 L 1135,459 1135,606 -4,606 -4,459 Z"/>
  </g>
  <g id="bullet-char-template-61548" transform="scale(0.00048828125,-0.00048828125)">
   <path d="M 173,740 C 173,903 231,1043 346,1159 462,1274 601,1332 765,1332 928,1332 1067,1274 1183,1159 1299,1043 1357,903 1357,740 1357,577 1299,437 1183,322 1067,206 928,148 765,148 601,148 462,206 346,322 231,437 173,577 173,740 Z"/>
  </g>
 </defs>
 <g>
  <g id="id2" class="Master_Slide">
   <g id="bg-id2" class="Background"/>
   <g id="bo-id2" class="BackgroundObjects"/>
  </g>
 </g>
 <g class="SlideGroup">
  <g>
   <g id="container-id1">
    <g id="id1" class="Slide" clip-path="url(#presentation_clip_path)">
     <g class="Page">
      <g class="com.sun.star.drawing.ClosedBezierShape">
       <g id="id3">
        <rect class="BoundingBox" stroke="none" fill="none" x="2414" y="4944" width="7177" height="1290"/>
        <path fill="rgb(0,85,140)" stroke="none" d="M 9494,6076 C 9606,6063 9656,5904 9434,5817 7352,4991 4270,4769 2572,5076 2386,5126 2326,5285 2609,5322 2905,5359 3656,5420 4728,5668 5320,5803 5765,6002 6146,6211 6166,6224 6186,6230 6205,6232 L 6221,6232 C 6251,6229 6278,6214 6305,6187 7180,5298 9285,6100 9494,6076 Z"/>
       </g>
      </g>
      <g class="com.sun.star.drawing.ClosedBezierShape">
       <g id="id4">
        <rect class="BoundingBox" stroke="none" fill="none" x="-1" y="3856" width="9860" height="1641"/>
        <path fill="rgb(200,16,46)" stroke="none" d="M 9685,5396 L 9857,4557 C 6577,3557 3437,3621 132,4793 59,4819 8,4876 0,4930 L 0,4958 C 10,5018 84,5064 257,5039 762,4965 2820,4682 4656,4668 6125,4655 7911,4978 9402,5470 9574,5520 9648,5497 9685,5396 Z"/>
       </g>
      </g>
      <g class="com.sun.star.drawing.ClosedBezierShape">
       <g id="id5">
        <rect class="BoundingBox" stroke="none" fill="none" x="5134" y="97" width="5659" height="4105"/>
        <path fill="rgb(128,128,128)" stroke="none" d="M 9426,98 L 8896,2598 8873,2598 8145,98 5458,98 5223,1206 5617,1206 5135,3496 C 5209,3496 5283,3496 5358,3496 5739,3496 6109,3510 6493,3547 L 6998,1183 7011,1183 7739,3695 C 8452,3806 9180,3978 9918,4200 L 9931,4200 10791,98 9426,98 Z"/>
       </g>
      </g>
      <g class="com.sun.star.drawing.ClosedBezierShape">
       <g id="id6">
        <rect class="BoundingBox" stroke="none" fill="none" x="310" y="0" width="4747" height="3932"/>
        <path fill="rgb(128,128,128)" stroke="none" d="M 5027,1209 C 5175,444 4781,0 3188,0 1696,0 873,370 698,1183 648,1392 661,1664 823,1836 1230,2280 2979,2452 3138,2688 3175,2738 3188,2786 3175,2860 3114,3155 2744,3240 2423,3240 2214,3240 2090,3190 2005,3093 1931,2995 1918,2847 1955,2638 L 355,2638 C 243,3277 220,3846 1847,3930 2648,3732 3450,3610 4236,3549 4582,3340 4778,3058 4852,2725 4926,2368 4828,2159 4704,2034 4297,1590 2611,1418 2413,1196 2376,1159 2376,1085 2376,1024 2413,825 2622,704 2955,704 3154,704 3302,728 3400,802 3498,876 3535,1011 3498,1220 L 5024,1220 5027,1209 Z"/>
       </g>
      </g>
      <g class="com.sun.star.drawing.ClosedBezierShape">
       <g id="id7">
        <rect class="BoundingBox" stroke="none" fill="none" x="10516" y="97" width="4969" height="3912"/>
        <path fill="rgb(221,221,221)" stroke="none" d="M 11346,98 L 14130,98 C 15066,98 15659,444 15437,1455 15238,2405 14537,2749 13709,2749 L 12426,2749 12156,4007 10516,4007 11346,98 Z M 12593,1923 L 12926,1923 C 13505,1923 13751,1788 13825,1405 13899,1085 13765,913 13296,913 L 12804,913 12593,1923 Z"/>
       </g>
      </g>
      <g class="com.sun.star.drawing.PolyPolygonShape">
       <g id="id8">
        <rect class="BoundingBox" stroke="none" fill="none" x="15474" y="110" width="311" height="372"/>
        <path fill="rgb(91,103,112)" stroke="none" d="M 15474,111 L 15783,111 15783,148 15648,148 15648,481 15598,481 15598,148 15474,148 15474,111 Z"/>
       </g>
      </g>
      <g class="com.sun.star.drawing.PolyPolygonShape">
       <g id="id9">
        <rect class="BoundingBox" stroke="none" fill="none" x="15831" y="100" width="359" height="372"/>
        <path fill="rgb(91,103,112)" stroke="none" d="M 16127,259 L 16127,161 16029,471 15979,471 15881,161 15881,249 15881,471 15831,471 15831,101 15905,101 16016,410 16114,101 16188,101 16188,471 16127,471 16127,259 Z"/>
       </g>
      </g>
      <g class="com.sun.star.drawing.PolyPolygonShape">
       <g id="id10">
        <rect class="BoundingBox" stroke="none" fill="none" x="15474" y="110" width="311" height="372"/>
        <path fill="rgb(91,103,112)" stroke="none" d="M 15474,111 L 15783,111 15783,148 15648,148 15648,481 15598,481 15598,148 15474,148 15474,111 Z"/>
       </g>
      </g>
      <g class="com.sun.star.drawing.PolyPolygonShape">
       <g id="id11">
        <rect class="BoundingBox" stroke="none" fill="none" x="15831" y="100" width="359" height="372"/>
        <path fill="rgb(91,103,112)" stroke="none" d="M 16127,259 L 16127,161 16029,471 15979,471 15881,161 15881,249 15881,471 15831,471 15831,101 15905,101 16016,410 16114,101 16188,101 16188,471 16127,471 16127,259 Z"/>
       </g>
      </g>
     </g>
    </g>
   </g>
  </g>
 </g>
</svg>