<?xml version="1.0" encoding="utf-8"?>
<!-- Generator: Adobe Illustrator 18.0.0, SVG Export Plug-In . SVG Version: 6.00 Build 0)  -->
<!DOCTYPE svg PUBLIC "-//W3C//DTD SVG 1.1//EN" "http://www.w3.org/Graphics/SVG/1.1/DTD/svg11.dtd">
<svg version="1.1" id="Layer_1" xmlns="http://www.w3.org/2000/svg" xmlns:xlink="http://www.w3.org/1999/xlink" x="0px" y="0px"
	 viewBox="0.1 556.3 611.9 235.6" enable-background="new 0.1 556.3 611.9 235.6" xml:space="preserve">
<g>
	<g>
		<path fill="#00558C" d="M238.4,790.2c33.1-33.6,112.7-3.3,120.6-4.2c4.2-0.5,6.1-6.5-2.3-9.8c-78.7-31.2-195.2-39.6-259.4-28
			c-7,1.9-9.3,7.9,1.4,9.3c11.2,1.4,39.6,3.7,80.1,13.1c22.4,5.1,39.2,12.6,53.6,20.5C234.7,792.5,236.6,792,238.4,790.2"/>
		<path fill="#C8102E" d="M366.2,760.3l6.5-31.7C248.7,690.8,130,693.2,5.1,737.5c-6.5,2.3-8.4,11.2,4.7,9.3
			c19.1-2.8,96.9-13.5,166.3-14c55.5-0.5,123,11.7,179.4,30.3C362,765,364.8,764.1,366.2,760.3z"/>
		<g>
			<path d="M356.4,560l-20,94.5h-0.9L308,560H206.4l-8.9,41.9h14.9l-18.2,86.6c2.8,0,5.6,0,8.4,0c14.4,0,28.4,0.5,42.9,1.9
				l19.1-89.4h0.5l27.5,95c27,4.2,54.5,10.7,82.4,19.1h0.5L408,560C408,560,356.4,560,356.4,560z"/>
			<path d="M190.1,602c5.6-28.9-9.3-45.7-69.5-45.7c-56.4,0-87.5,14-94.1,44.7c-1.9,7.9-1.4,18.2,4.7,24.7
				c15.4,16.8,81.5,23.3,87.5,32.2c1.4,1.9,1.9,3.7,1.4,6.5c-2.3,11.2-16.3,14.4-28.4,14.4c-7.9,0-12.6-1.9-15.8-5.6
				c-2.8-3.7-3.3-9.3-1.9-17.2H13.5c-4.2,24.2-5.1,45.7,56.4,48.9c30.3-7.5,60.6-12.1,90.3-14.4c13.1-7.9,20.5-18.6,23.3-31.2
				c2.8-13.5-0.9-21.4-5.6-26.1c-15.4-16.8-79.1-23.3-86.6-31.7c-1.4-1.4-1.4-4.2-1.4-6.5c1.4-7.5,9.3-12.1,21.9-12.1
				c7.5,0,13.1,0.9,16.8,3.7c3.7,2.8,5.1,7.9,3.7,15.8H190L190.1,602L190.1,602z"/>
		</g>
	</g>
	<g>
		<path fill="#5B6770" d="M429,560h105.2c35.4,0,57.8,13.1,49.4,51.3c-7.5,35.9-34,48.9-65.3,48.9h-48.5l-10.2,47.6h-62L429,560z
			 M476.1,629h12.6c21.9,0,31.2-5.1,34-19.6c2.8-12.1-2.3-18.6-20-18.6h-18.6L476.1,629z"/>
	</g>
	<g>
		<polygon fill="#5B6770" points="585,560.5 596.7,560.5 596.7,561.9 591.6,561.9 591.6,574.5 589.7,574.5 589.7,561.9 585,561.9 		
			"/>
		<g>
			<path fill="#5B6770" d="M609.7,574.5v-8.4c0-0.5,0-2.3,0-3.7l0,0l-3.7,11.7h-1.9l-3.7-11.7l0,0c0,1.4,0,3.3,0,3.3v8.4h-1.9v-14
				h2.8l4.2,11.7l0,0l3.7-11.7h2.8v14h-2.3L609.7,574.5L609.7,574.5z"/>
		</g>
		<polygon fill="#5B6770" points="585,560.5 596.7,560.5 596.7,561.9 591.6,561.9 591.6,574.5 589.7,574.5 589.7,561.9 585,561.9 		
			"/>
		<g>
			<path fill="#5B6770" d="M609.7,574.5v-8.4c0-0.5,0-2.3,0-3.7l0,0l-3.7,11.7h-1.9l-3.7-11.7l0,0c0,1.4,0,3.3,0,3.3v8.4h-1.9v-14
				h2.8l4.2,11.7l0,0l3.7-11.7h2.8v14h-2.3L609.7,574.5L609.7,574.5z"/>
		</g>
	</g>
</g>
</svg>
