<?xml version="1.0" encoding="UTF-8" standalone="no"?>
<svg
   xmlns:dc="http://purl.org/dc/elements/1.1/"
   xmlns:cc="http://creativecommons.org/ns#"
   xmlns:rdf="http://www.w3.org/1999/02/22-rdf-syntax-ns#"
   xmlns:svg="http://www.w3.org/2000/svg"
   xmlns="http://www.w3.org/2000/svg"
   xmlns:sodipodi="http://sodipodi.sourceforge.net/DTD/sodipodi-0.dtd"
   xmlns:inkscape="http://www.inkscape.org/namespaces/inkscape"
   width="1000"
   height="760.26562"
   id="svg2"
   version="1.1"
   inkscape:version="1.0.2-2 (e86c870879, 2021-01-15)"
   sodipodi:docname="NFL_Network_2008.svg">
  <defs
     id="defs4" />
  <sodipodi:namedview
     id="base"
     pagecolor="#ffffff"
     bordercolor="#666666"
     borderopacity="1.0"
     inkscape:pageopacity="0"
     inkscape:pageshadow="2"
     inkscape:zoom="0.5"
     inkscape:cx="540.82061"
     inkscape:cy="403.72583"
     inkscape:document-units="px"
     inkscape:current-layer="layer1"
     showgrid="false"
     inkscape:window-width="1366"
     inkscape:window-height="705"
     inkscape:window-x="-8"
     inkscape:window-y="-8"
     inkscape:window-maximized="1"
     fit-margin-top="0"
     fit-margin-left="0"
     fit-margin-right="0"
     fit-margin-bottom="0"
     inkscape:document-rotation="0"
     inkscape:snap-bbox="false"
     inkscape:bbox-nodes="true"
     inkscape:snap-nodes="true"
     inkscape:snap-page="false" />
  <metadata
     id="metadata7">
    <rdf:RDF>
      <cc:Work
         rdf:about="">
        <dc:format>image/svg+xml</dc:format>
        <dc:type
           rdf:resource="http://purl.org/dc/dcmitype/StillImage" />
        <dc:title></dc:title>
      </cc:Work>
    </rdf:RDF>
  </metadata>
  <g
     inkscape:label="Layer 1"
     inkscape:groupmode="layer"
     id="layer1"
     transform="translate(-81.071309,-275.21697)">
    <g
       id="g32">
      <path
         sodipodi:nodetypes="cccccccccccccccccccccccccc"
         style="fill:#ffffff;fill-rule:nonzero;stroke:none;stroke-width:1.98807"
         d="m 1080.2957,582.33167 c 0.3642,-2.6994 0.7756,-5.76209 0.7756,-8.86475 0,-6.40558 -1.0585,-13.45601 -3.0473,-18.7268 C 1054.7541,501.71778 984.00223,431.79702 897.84787,377.16794 794.0748,310.79307 681.43698,274.66919 581.76386,275.22325 h -0.33243 -0.27702 -0.33241 -0.66486 C 480.48402,274.66919 367.8462,310.79307 263.85153,377.16794 177.69717,431.79702 107.38856,501.71778 84.229377,554.74012 c -2.410493,5.84617 -3.158068,13.4072 -3.158068,18.7268 0,3.10266 0.33926,6.15843 0.554047,8.86475 0.340358,4.28852 1.828355,8.97556 1.828355,14.12822 0,5.15264 -1.513455,9.67056 -1.828355,13.79577 -0.240376,3.14892 -0.554047,6.03912 -0.554047,9.19718 0,6.24943 1.006537,13.20208 3.158068,18.39437 23.159183,53.13314 93.467793,122.8877 179.622153,177.79378 103.99467,66.31947 216.63249,102.44336 316.30561,101.7231 h 1.82835 c 99.45149,0.72026 212.08931,-35.40363 315.86238,-101.7231 86.15436,-54.90608 156.90623,-124.66064 180.17613,-177.79378 1.8442,-5.71698 3.0473,-12.74555 3.0473,-18.39437 0,-3.15806 -0.3682,-6.05766 -0.7756,-9.19718 -0.5357,-4.12813 -1.496,-8.64313 -1.496,-13.79577 0,-5.15266 0.9175,-9.84051 1.496,-14.12822 z"
         id="path147055"
         inkscape:connector-curvature="0" />
      <path
         sodipodi:nodetypes="ccccc"
         style="fill:#013369;fill-opacity:1;fill-rule:nonzero;stroke:none;stroke-width:1.98807"
         d="m 581.13769,899.08052 c 166.76823,0 302.56523,-135.797 302.56523,-302.62063 0,-166.93445 -135.797,-302.73145 -302.56523,-302.73145 -166.98985,0 -302.67605,135.797 -302.67605,302.73145 0,166.82363 135.6862,302.62063 302.67605,302.62063 z"
         id="path147059"
         inkscape:connector-curvature="0" />
      <path
         sodipodi:nodetypes="ccccc"
         style="fill:#ffffff;fill-rule:nonzero;stroke:none;stroke-width:1.98807"
         d="m 581.10997,315.6133 c 154.74543,0 280.29255,126.10116 280.29255,280.84659 0,154.80083 -125.54712,280.62496 -280.29255,280.62496 -154.85621,0 -280.68034,-125.82413 -280.68034,-280.62496 0,-154.74543 125.82413,-280.84659 280.68034,-280.84659 z"
         id="path147063"
         inkscape:connector-curvature="0" />
      <path
         sodipodi:nodetypes="ccccccccccccccccccccccccccccccccccccccccccccccccccccccc"
         inkscape:connector-curvature="0"
         d="m 581.13226,345.94739 -7.14721,21.55244 h -22.49432 l 18.28355,13.24173 -7.03639,21.66324 18.39437,-13.24172 18.06196,13.24172 -6.8148,-21.66324 18.28357,-13.24173 h -22.71595 z m 152.6899,56.21918 -6.92559,21.77406 h -22.71596 l 17.84033,13.24174 -6.59315,21.38621 18.39437,-13.13091 18.17274,13.13091 -7.14721,-21.38621 18.616,-13.24174 h -22.71597 z m -71.63831,-41.01059 -7.25804,21.33083 h -22.60512 l 18.50519,13.35253 -7.25805,21.82946 18.61602,-13.68494 18.17274,13.68494 -7.14721,-21.82946 18.39437,-13.35253 h -22.60512 z m -233.84686,41.01059 6.9256,21.77406 h 22.71591 l -18.39435,13.24174 7.03641,21.38621 -18.28357,-13.13091 -18.06194,13.13091 6.70398,-21.38621 -18.28359,-13.24174 h 22.60516 z m 71.63843,-41.01059 6.92556,21.33083 h 23.0484 l -18.616,13.35253 7.03639,21.82946 -18.39435,-13.68494 -18.28359,13.68494 7.03643,-21.82946 -18.39439,-13.35253 h 22.60514 z"
         style="fill:#013369;fill-opacity:1;fill-rule:nonzero;stroke:none;stroke-width:1.98807"
         id="path147095" />
      <path
         sodipodi:nodetypes="cccccccccccc"
         inkscape:connector-curvature="0"
         d="m 681.0159,298.70932 c -0.79757,-0.15645 -1.93917,0 -2.16078,0.94186 128.42816,39.11575 221.95136,154.08057 224.33376,290.37621 h 158.73452 c 6.8148,0 8.0891,-20.66595 4.4324,-30.30639 C 1031.3954,479.05171 865.29205,338.21289 681.0159,298.70932 Z M 95.914235,559.72655 c -3.989139,9.64042 -2.271593,30.30639 4.099955,30.30639 h 158.51292 c 2.93646,-136.29566 96.23803,-251.26046 224.66619,-290.3762 -0.2216,-0.94189 -1.18909,-1.09497 -2.04995,-0.94189 -184.05453,39.50357 -350.15792,180.34241 -385.229115,261.0117 z"
         style="fill:#013369;fill-opacity:1;fill-rule:nonzero;stroke:none;stroke-width:1.98807"
         id="path147103" />
      <path
         sodipodi:nodetypes="cccccccccccc"
         inkscape:connector-curvature="0"
         d="m 903.18888,602.89793 c -2.3824,136.24021 -95.9056,251.09423 -224.33376,290.32078 0.22161,1.10811 1.36321,1.27241 2.16078,1.10811 184.27615,-39.78062 350.3795,-180.61944 385.3399,-261.45493 3.6567,-9.36339 2.3824,-29.97396 -4.4324,-29.97396 z m -803.16915,0.0159 c -6.371548,0 -8.144499,20.61057 -4.099955,29.97398 35.071185,80.83549 201.174595,221.67433 385.229085,261.45491 0.79117,0.18579 1.82839,0 2.04998,-1.10807 C 354.77069,854.00878 261.46912,739.15478 258.53266,602.91417 Z"
         style="fill:#d50a0a;fill-opacity:1;fill-rule:nonzero;stroke:none;stroke-width:1.98807"
         id="path147111" />
      <path
         sodipodi:nodetypes="ccccccccccccccccccccccccccccccccccccccccccccccccccccccccccccccccccccccccccccccccccccccccccccccc"
         inkscape:connector-curvature="0"
         d="m 894.19671,940.36656 v 93.74464 h 21.84423 v -21.9426 l 11.75547,-14.30119 21.84394,36.24379 h 29.19084 l -36.43978,-53.97402 33.10919,-39.77062 h -27.91747 l -31.54219,42.31769 v -42.31769 z m -111.83577,93.74464 h 21.84455 v -35.85221 h 12.34172 l 17.632,35.85221 h 25.76326 l -21.35434,-37.81175 c 6.2357,-2.48547 10.73796,-5.79384 13.41968,-9.89349 2.68213,-4.09894 4.01613,-9.70728 4.01613,-18.29247 0,-8.58519 -2.5054,-15.79865 -7.54264,-20.59532 -5.03681,-4.79727 -13.12914,-7.15098 -24.29294,-7.15104 l -41.82742,-2.7e-4 z m 21.84455,-75.42685 h 16.45678 c 4.8835,6e-5 8.25744,0.82444 10.08914,2.35125 1.83147,1.5261 2.74262,4.21643 2.74266,8.22794 -4e-5,4.01272 -0.83456,6.80025 -2.64468,8.32658 -1.80971,1.52638 -5.25987,2.35096 -10.18712,2.35092 h -16.45678 z m -96.42396,-19.68919 c -26.36121,6e-5 -39.47623,11.67225 -39.47623,34.87251 V 1000.61 c 0,23.2003 13.11502,34.8726 39.47623,34.8726 26.36257,0 39.57478,-11.6723 39.57481,-34.8726 v -26.74233 c -3e-5,-23.20026 -13.21224,-34.87245 -39.57481,-34.87251 z m 0,18.90578 c 11.8837,1.1e-4 17.82851,5.70611 17.82853,17.0448 v 24.6848 c -2e-5,11.33846 -5.94483,16.94626 -17.82853,16.94626 -11.88337,0 -17.82753,-5.6078 -17.82751,-16.94626 v -24.6848 c -2e-5,-11.33869 5.94414,-17.04469 17.82751,-17.0448 z m -184.18889,-17.53438 21.55015,93.74464 h 21.64865 l 17.82818,-63.08413 17.92635,63.08413 h 21.55053 l 21.64787,-93.74464 h -23.01968 l -10.67744,57.20643 -15.3788,-57.20643 h -23.21616 l -15.67284,57.30459 -10.57885,-57.30459 z m -98.3487,0 v 18.31779 h 25.86128 v 75.42685 h 21.84392 v -75.42685 h 25.86025 v -18.31779 z m -98.80729,0 v 93.74464 h 67.39389 v -18.3178 H 348.2807 v -19.88562 h 38.10516 V 977.98182 H 348.2807 v -19.29747 h 45.54984 v -18.31779 z m -122.58095,0 v 93.74464 h 21.35455 l -1.66536,-61.41878 33.10912,61.41878 h 24.97975 v -93.74464 h -21.35529 l 1.66581,61.41874 -33.10942,-61.41874 z"
         style="font-style:normal;font-variant:normal;font-weight:800;font-stretch:normal;font-size:42.7385px;line-height:84%;font-family:'Endzone Sans Bold';-inkscape-font-specification:'Endzone Sans Bold, Ultra-Bold';text-align:start;letter-spacing:5.44832px;word-spacing:0px;writing-mode:lr-tb;text-anchor:start;fill:#013369;fill-opacity:1;stroke:none;stroke-width:1.63314"
         id="path8369" />
      <path
         sodipodi:nodetypes="ccccccccccccccccccccccccccccccccccccccccccccccccccccccccccc"
         inkscape:connector-curvature="0"
         d="m 680.14026,738.58636 18.13955,-14.6875 V 531.43518 l -15.47875,-8.01432 v -31.1986 h 73.07111 v 31.1986 l -14.34331,8.01432 v 181.32131 l 31.45996,-8.40112 6.02832,-47.40384 h 30.02769 v 79.2142 L 680.0273,769.79097 Z m -66.20835,37.07624 v 30.79457 L 540.86363,779.50974 V 753.3787 l 16.0898,-6.52524 V 531.0876 l -15.98655,-8.01127 V 491.87688 H 668.0459 v 62.70227 h -27.87495 l -8.4472,-25.72892 H 599.4443 v 72.52796 h 24.18617 l 9.52947,-13.77572 h 19.4722 v 64.52757 h -19.4722 l -9.17248,-13.06996 H 599.39197 L 599.2845,758.4153 Z M 472.08044,531.33173 457.01498,522.97622 v -30.79568 h 68.76533 v 30.79568 l -14.34808,8.35551 v 242.10184 l -36.68787,-10.83954 -53.08744,-154.98285 -0.01,102.30814 16.90957,12.76297 v 31.50422 l -73.6855,-18.54021 v -26.84316 l 16.90927,-6.52358 V 531.08705 l -17.3189,-8.4573 v -30.79404 h 55.75047 l 51.97447,158.01912 z"
         style="fill:#d50a0a;fill-opacity:1;stroke:none;stroke-width:0.279696"
         id="path6455" />
    </g>
  </g>
</svg>
