<?xml version="1.0" encoding="UTF-8"?>
<!DOCTYPE svg PUBLIC "-//W3C//DTD SVG 1.1//EN" "http://www.w3.org/Graphics/SVG/1.1/DTD/svg11.dtd">
<svg version="1.2" width="300mm" height="200mm" viewBox="0 0 30000 20000" preserveAspectRatio="xMidYMid" fill-rule="evenodd" stroke-width="28.222" stroke-linejoin="round" xmlns="http://www.w3.org/2000/svg" xmlns:ooo="http://xml.openoffice.org/svg/export" xmlns:xlink="http://www.w3.org/1999/xlink" xmlns:presentation="http://sun.com/xmlns/staroffice/presentation" xmlns:smil="http://www.w3.org/2001/SMIL20/" xmlns:anim="urn:oasis:names:tc:opendocument:xmlns:animation:1.0" xmlns:svg="urn:oasis:names:tc:opendocument:xmlns:svg-compatible:1.0" xml:space="preserve">
 <defs class="ClipPathGroup">
  <clipPath id="presentation_clip_path" clipPathUnits="userSpaceOnUse">
   <rect x="0" y="0" width="30000" height="20000"/>
  </clipPath>
  <clipPath id="presentation_clip_path_shrink" clipPathUnits="userSpaceOnUse">
   <rect x="30" y="20" width="29940" height="19960"/>
  </clipPath>
 </defs>
 <defs class="TextShapeIndex">
  <g ooo:slide="id1" ooo:id-list="id3"/>
 </defs>
 <defs class="EmbeddedBulletChars">
  <g id="bullet-char-template-57356" transform="scale(0.00048828125,-0.00048828125)">
   <path d="M 580,1141 L 1163,571 580,0 -4,571 580,1141 Z"/>
  </g>
  <g id="bullet-char-template-57354" transform="scale(0.00048828125,-0.00048828125)">
   <path d="M 8,1128 L 1137,1128 1137,0 8,0 8,1128 Z"/>
  </g>
  <g id="bullet-char-template-10146" transform="scale(0.00048828125,-0.00048828125)">
   <path d="M 174,0 L 602,739 174,1481 1456,739 174,0 Z M 1358,739 L 309,1346 659,739 1358,739 Z"/>
  </g>
  <g id="bullet-char-template-10132" transform="scale(0.00048828125,-0.00048828125)">
   <path d="M 2015,739 L 1276,0 717,0 1260,543 174,543 174,936 1260,936 717,1481 1274,1481 2015,739 Z"/>
  </g>
  <g id="bullet-char-template-10007" transform="scale(0.00048828125,-0.00048828125)">
   <path d="M 0,-2 C -7,14 -16,27 -25,37 L 356,567 C 262,823 215,952 215,954 215,979 228,992 255,992 264,992 276,990 289,987 310,991 331,999 354,1012 L 381,999 492,748 772,1049 836,1024 860,1049 C 881,1039 901,1025 922,1006 886,937 835,863 770,784 769,783 710,716 594,584 L 774,223 C 774,196 753,168 711,139 L 727,119 C 717,90 699,76 672,76 641,76 570,178 457,381 L 164,-76 C 142,-110 111,-127 72,-127 30,-127 9,-110 8,-76 1,-67 -2,-52 -2,-32 -2,-23 -1,-13 0,-2 Z"/>
  </g>
  <g id="bullet-char-template-10004" transform="scale(0.00048828125,-0.00048828125)">
   <path d="M 285,-33 C 182,-33 111,30 74,156 52,228 41,333 41,471 41,549 55,616 82,672 116,743 169,778 240,778 293,778 328,747 346,684 L 369,508 C 377,444 397,411 428,410 L 1163,1116 C 1174,1127 1196,1133 1229,1133 1271,1133 1292,1118 1292,1087 L 1292,965 C 1292,929 1282,901 1262,881 L 442,47 C 390,-6 338,-33 285,-33 Z"/>
  </g>
  <g id="bullet-char-template-9679" transform="scale(0.00048828125,-0.00048828125)">
   <path d="M 813,0 C 632,0 489,54 383,161 276,268 223,411 223,592 223,773 276,916 383,1023 489,1130 632,1184 813,1184 992,1184 1136,1130 1245,1023 1353,916 1407,772 1407,592 1407,412 1353,268 1245,161 1136,54 992,0 813,0 Z"/>
  </g>
  <g id="bullet-char-template-8226" transform="scale(0.00048828125,-0.00048828125)">
   <path d="M 346,457 C 273,457 209,483 155,535 101,586 74,649 74,723 74,796 101,859 155,911 209,963 273,989 346,989 419,989 480,963 531,910 582,859 608,796 608,723 608,648 583,586 532,535 482,483 420,457 346,457 Z"/>
  </g>
  <g id="bullet-char-template-8211" transform="scale(0.00048828125,-0.00048828125)">
   <path d="M -4,459 L 1135,459 1135,606 -4,606 -4,459 Z"/>
  </g>
  <g id="bullet-char-template-61548" transform="scale(0.00048828125,-0.00048828125)">
   <path d="M 173,740 C 173,903 231,1043 346,1159 462,1274 601,1332 765,1332 928,1332 1067,1274 1183,1159 1299,1043 1357,903 1357,740 1357,577 1299,437 1183,322 1067,206 928,148 765,148 601,148 462,206 346,322 231,437 173,577 173,740 Z"/>
  </g>
 </defs>
 <g>
  <g id="id2" class="Master_Slide">
   <g id="bg-id2" class="Background"/>
   <g id="bo-id2" class="BackgroundObjects"/>
  </g>
 </g>
 <g class="SlideGroup">
  <g>
   <g id="container-id1">
    <g id="id1" class="Slide" clip-path="url(#presentation_clip_path)">
     <g class="Page">
      <g class="Graphic">
       <g id="id3">
        <rect class="BoundingBox" stroke="none" fill="none" x="5645" y="1000" width="18712" height="18001"/>
        <defs>
         <clipPath id="clip_path_1" clipPathUnits="userSpaceOnUse">
          <path d="M 5645,1000 L 24356,1000 24356,19000 5645,19000 5645,1000 Z"/>
         </clipPath>
        </defs>
        <g clip-path="url(#clip_path_1)">
         <path fill="rgb(0,32,91)" stroke="none" d="M 18442,7465 L 15371,1000 13781,4344 13351,3750 12528,5477 12256,5101 5645,19000 24356,19000 18698,7116 18442,7465 18442,7465 Z"/>
         <path fill="rgb(255,255,255)" stroke="none" d="M 8738,14185 L 12038,14185 C 12081,14279 12128,14370 12179,14459 12459,14944 12861,15346 13346,15626 13831,15906 14381,16054 14941,16054 15500,16054 16050,15906 16535,15626 17020,15346 17423,14944 17702,14459 17754,14370 17801,14279 17843,14185 L 21143,14185 23098,18297 6778,18297 8738,14185 Z M 12240,6822 L 12457,7122 13247,5461 13732,6130 15349,2732 18339,9022 18551,8739 19891,11555 17843,11555 C 17799,11457 17750,11362 17697,11269 17417,10785 17015,10382 16531,10103 16046,9823 15497,9676 14938,9676 14379,9676 13829,9823 13345,10103 12861,10382 12459,10785 12179,11269 12125,11362 12077,11457 12033,11555 L 9991,11555 12240,6822 Z M 18638,7813 L 18382,8162 15371,1833 13846,5041 13416,4448 12594,6174 12321,5798 6211,18646 23790,18646 18638,7813 Z"/>
         <path fill="rgb(200,16,46)" stroke="none" d="M 14941,14273 C 14940,14273 14939,14273 14938,14273 14692,14273 14450,14208 14236,14084 14022,13961 13845,13784 13722,13570 13598,13356 13533,13114 13533,12867 13533,12621 13598,12379 13722,12165 13845,11951 14022,11774 14236,11651 14450,11527 14692,11462 14938,11462 15185,11462 15427,11527 15641,11651 15855,11774 16032,11951 16155,12165 16165,12181 16174,12197 16182,12214 L 17495,11473 C 17483,11452 17471,11430 17459,11409 17203,10967 16836,10599 16393,10344 15951,10088 15449,9954 14938,9954 14427,9954 13925,10088 13483,10344 13040,10599 12673,10967 12417,11409 12162,11852 12027,12354 12027,12865 12027,13376 12162,13878 12417,14320 12673,14763 13040,15130 13483,15386 13925,15641 14427,15776 14938,15776 15449,15776 15951,15641 16393,15386 16836,15130 17203,14763 17459,14320 17471,14299 17483,14278 17495,14256 L 16182,13521 C 16173,13538 16164,13555 16154,13572 16031,13785 15854,13962 15641,14085 15428,14208 15187,14273 14941,14273 14941,14273 14941,14273 14941,14273 Z"/>
         <path fill="rgb(255,199,44)" stroke="none" d="M 14938,11669 C 14728,11669 14522,11725 14340,11829 14159,11934 14008,12085 13903,12267 13798,12449 13743,12655 13743,12865 13743,13075 13798,13281 13903,13462 14008,13644 14159,13795 14340,13900 14522,14005 14728,14060 14938,14060 15148,14060 15354,14005 15536,13900 15717,13795 15868,13644 15973,13462 16077,13282 16133,13076 16133,12867 16133,12866 16133,12865 16133,12864 16133,12654 16078,12448 15973,12267 15868,12085 15717,11934 15536,11829 15355,11725 15150,11670 14941,11669 14940,11669 14939,11669 14938,11669 Z"/>
        </g>
       </g>
      </g>
     </g>
    </g>
   </g>
  </g>
 </g>
</svg>