<?xml version="1.0" encoding="UTF-8" standalone="no"?>
<!-- Created with Inkscape (http://www.inkscape.org/) -->

<svg
   xmlns:dc="http://purl.org/dc/elements/1.1/"
   xmlns:cc="http://creativecommons.org/ns#"
   xmlns:rdf="http://www.w3.org/1999/02/22-rdf-syntax-ns#"
   xmlns:svg="http://www.w3.org/2000/svg"
   xmlns="http://www.w3.org/2000/svg"
   xmlns:sodipodi="http://sodipodi.sourceforge.net/DTD/sodipodi-0.dtd"
   xmlns:inkscape="http://www.inkscape.org/namespaces/inkscape"
   width="732.35303"
   height="1000"
   viewBox="0 0 732.35303 1000"
   id="svg2"
   version="1.1"
   inkscape:version="0.91 r13725"
   sodipodi:docname="Walt Disney Pictures 2011.svg">
  <defs
     id="defs4">
    <clipPath
       id="clipPath4152"
       clipPathUnits="userSpaceOnUse">
      <path
         inkscape:connector-curvature="0"
         id="path4154"
         d="M 0,0 612,0 612,792 0,792 0,0 Z" />
    </clipPath>
    <clipPath
       id="clipPath5332"
       clipPathUnits="userSpaceOnUse">
      <path
         inkscape:connector-curvature="0"
         id="path5334"
         d="m 114.525,208.369 97.95,0 0,30.823 -97.95,0 0,-30.823 z" />
    </clipPath>
    <clipPath
       id="clipPath5344"
       clipPathUnits="userSpaceOnUse">
      <path
         inkscape:connector-curvature="0"
         id="path5346"
         d="M 0,0 612,0 612,792 0,792 0,0 Z" />
    </clipPath>
    <clipPath
       id="clipPath5356"
       clipPathUnits="userSpaceOnUse">
      <path
         inkscape:connector-curvature="0"
         id="path5358"
         d="m 135.573,120.369 55.853,0 0,46.57 -55.853,0 0,-46.57 z" />
    </clipPath>
    <clipPath
       id="clipPath5374"
       clipPathUnits="userSpaceOnUse">
      <path
         inkscape:connector-curvature="0"
         id="path5376"
         d="M 0,0 612,0 612,792 0,792 0,0 Z" />
    </clipPath>
    <clipPath
       id="clipPath5404"
       clipPathUnits="userSpaceOnUse">
      <path
         inkscape:connector-curvature="0"
         id="path5406"
         d="m 107.122,40.304 112.757,0 0,18.065 -112.757,0 0,-18.065 z" />
    </clipPath>
    <clipPath
       id="clipPath5476"
       clipPathUnits="userSpaceOnUse">
      <path
         inkscape:connector-curvature="0"
         id="path5478"
         d="m 420.593,725.219 55.814,0 0,30.649 -55.814,0 0,-30.649 z" />
    </clipPath>
    <clipPath
       id="clipPath5488"
       clipPathUnits="userSpaceOnUse">
      <path
         inkscape:connector-curvature="0"
         id="path5490"
         d="M 0,0 612,0 612,792 0,792 0,0 Z" />
    </clipPath>
    <clipPath
       id="clipPath5516"
       clipPathUnits="userSpaceOnUse">
      <path
         inkscape:connector-curvature="0"
         id="path5518"
         d="m 415.725,653.219 65.549,0 0,33.075 -65.549,0 0,-33.075 z" />
    </clipPath>
    <clipPath
       id="clipPath5616"
       clipPathUnits="userSpaceOnUse">
      <path
         inkscape:connector-curvature="0"
         id="path5618"
         d="M 0,0 612,0 612,792 0,792 0,0 Z" />
    </clipPath>
    <clipPath
       id="clipPath5636"
       clipPathUnits="userSpaceOnUse">
      <path
         inkscape:connector-curvature="0"
         id="path5638"
         d="M 0,0 612,0 612,792 0,792 0,0 Z" />
    </clipPath>
    <clipPath
       id="clipPath5796"
       clipPathUnits="userSpaceOnUse">
      <path
         inkscape:connector-curvature="0"
         id="path5798"
         d="m 400.37,368.123 96.259,0 0,69.096 -96.259,0 0,-69.096 z" />
    </clipPath>
    <clipPath
       id="clipPath5890"
       clipPathUnits="userSpaceOnUse">
      <path
         inkscape:connector-curvature="0"
         id="path5892"
         d="m 429.056,289.153 38.888,0 0,52.97 -38.888,0 0,-52.97 z" />
    </clipPath>
    <clipPath
       id="clipPath5932"
       clipPathUnits="userSpaceOnUse">
      <path
         inkscape:connector-curvature="0"
         id="path5934"
         d="m 405.12,224.273 92.245,0 0,36.049 -92.245,0 0,-36.049 z" />
    </clipPath>
    <clipPath
       id="clipPath6098"
       clipPathUnits="userSpaceOnUse">
      <path
         inkscape:connector-curvature="0"
         id="path6100"
         d="M 0,0 612,0 612,792 0,792 0,0 Z" />
    </clipPath>
  </defs>
  <sodipodi:namedview
     id="base"
     pagecolor="#ffffff"
     bordercolor="#666666"
     borderopacity="1.0"
     inkscape:pageopacity="0.0"
     inkscape:pageshadow="2"
     inkscape:zoom="0.49497475"
     inkscape:cx="466.87017"
     inkscape:cy="522.24923"
     inkscape:document-units="px"
     inkscape:current-layer="layer1"
     showgrid="false"
     units="px"
     inkscape:window-width="1366"
     inkscape:window-height="705"
     inkscape:window-x="-8"
     inkscape:window-y="-8"
     inkscape:window-maximized="1" />
  <metadata
     id="metadata7">
    <rdf:RDF>
      <cc:Work
         rdf:about="">
        <dc:format>image/svg+xml</dc:format>
        <dc:type
           rdf:resource="http://purl.org/dc/dcmitype/StillImage" />
        <dc:title></dc:title>
      </cc:Work>
    </rdf:RDF>
  </metadata>
  <g
     inkscape:label="Layer 1"
     inkscape:groupmode="layer"
     id="layer1"
     transform="translate(0,-52.362161)">
    <g
       style="fill:#000000"
       clip-path="none"
       id="g5888"
       transform="matrix(18.8969,0,0,-18.8969,-8108.128,6517.4262)">
      <path
         inkscape:connector-curvature="0"
         id="path5894"
         style="fill:#000000;fill-opacity:1;fill-rule:nonzero;stroke:none"
         d="m 450.3498,339.3674 c 0,-0.062 -0.051,-0.112 -0.113,-0.112 -0.062,0 -0.112,0.05 -0.112,0.112 0,0.061 0.05,0.111 0.112,0.111 0.062,0 0.113,-0.05 0.113,-0.111" />
      <path
         inkscape:connector-curvature="0"
         id="path5896"
         style="fill:#000000;fill-opacity:1;fill-rule:nonzero;stroke:none"
         d="m 450.1711,338.1843 0.028,1.111 0.075,0 0.028,-1.111 -0.131,0 z" />
      <path
         inkscape:connector-curvature="0"
         id="path5898"
         style="fill:#000000;fill-opacity:1;fill-rule:nonzero;stroke:none"
         d="m 450.1086,319.8702 c 0.029,0 0.019,0.02 0.019,0.02 l -0.177,0.266 -0.173,0 0,0.111 -0.245,0 0,-0.103 0,-0.009 -0.259,0 0,0.112 -0.245,0 0,-0.112 -0.3,0 0,0.112 -0.295,0 0,-0.112 -0.3,0 0,0.112 -0.244,0 0,-0.112 -0.259,0 0,0.009 0,0.103 -0.245,0 -0.001,-0.111 -0.172,0 -0.177,-0.266 c 0,0 -0.01,-0.019 0.02,-0.019 l 3.053,-10e-4 z" />
      <path
         inkscape:connector-curvature="0"
         id="path5900"
         style="fill:#000000;fill-opacity:1;fill-rule:nonzero;stroke:none"
         d="m 450.2351,339.1115 c 0.107,0.058 0.214,0.061 0.313,0.042 0.192,-0.039 0.246,-0.2 0.343,-0.189 0.125,0.016 0.163,0.027 0.255,-0.047 l 0.002,-0.493 c -0.057,0.062 -0.142,0.08 -0.253,0.064 -0.08,-0.012 -0.139,-0.006 -0.238,0.086 -0.101,0.094 -0.292,0.115 -0.422,-10e-4 l 0,0.538 z" />
      <path
         inkscape:connector-curvature="0"
         id="path5902"
         style="fill:#000000;fill-opacity:1;fill-rule:nonzero;stroke:none"
         d="m 452.049,317.3293 c -0.009,0 -0.011,-0.004 -0.018,-0.013 -0.009,-0.01 -0.057,-0.069 -0.057,-0.069 l 0,-0.266 0.145,0 0,0.267 c -0.022,0.029 -0.044,0.058 -0.053,0.071 -0.004,0.003 -0.008,0.01 -0.017,0.01" />
      <path
         inkscape:connector-curvature="0"
         id="path5904"
         style="fill:#000000;fill-opacity:1;fill-rule:nonzero;stroke:none"
         d="m 457.1906,316.6125 -0.309,-0.225 0.107,0 0.004,-0.463 c -0.083,0.003 -0.143,0 -0.214,0 l -0.006,0.226 c -0.155,0 -0.264,-0.006 -0.367,-0.008 l 0.001,0.654 c 0.107,0.011 0.475,0.03 0.784,0.03 l 0,-0.214 z m -0.284,-1.286 c -0.048,0 -0.113,-0.007 -0.172,-0.007 l 0,-0.195 -0.173,0.202 c -0.047,0.006 -0.124,0 -0.16,0 l 0,-0.184 -0.166,0.19 c -0.076,0.005 -0.19,-0.006 -0.243,-0.013 l -0.006,0.095 c 0.131,0.012 0.683,0.024 0.92,0.024 0.005,-0.03 0,-0.112 0,-0.112 m -0.554,-4.218 -0.237,0 0,0.245 -0.261,0 0,-0.245 -0.269,0 0,0.245 -0.261,0 0,-0.254 -0.249,0 0,0.254 -0.27,0 0,-0.245 -0.161,0 0.008,0.272 c 0.166,0.084 0.45,0.274 0.931,0.297 l 0,0.421 c -0.142,0 -0.208,-0.006 -0.267,-0.006 -0.06,0 -0.06,0.03 -0.06,0.066 l 0,0.118 c 0,0 -0.011,0.077 0.066,0.089 0.077,0.011 0.391,0.066 0.837,0.011 0.005,-0.141 0,-0.562 0,-0.609 0,-0.031 0.017,-0.107 0.195,-0.132 l -0.002,-0.527 z m -2.192,0.004 -0.137,0.002 -0.077,1.957 -0.024,-1.436 -0.071,0.096 -0.19,-0.261 0.006,-0.226 -0.071,-0.119 -0.148,0 0,0.19 -0.149,0 0,0.511 -1.221,0 0,0.777 c -0.131,0.23 -0.41,0.427 -0.375,0.516 0.036,0.088 0.107,0.083 0.143,0.077 l 0,0.219 -0.053,0.05 0,0.126 2.153,0 0,0.245 0.403,0 0,-2.147 0.113,-0.332 -0.303,0 10e-4,-0.245 z m -1.082,0.059 -0.19,0 0,0.253 0.19,0 0,-0.253 z m -1.511,3.586 -0.162,0 -0.224,2.395 0.19,0.101 0.167,-0.089 0,-0.35 0.153,0.006 c 0.007,0.166 0.036,0.486 0.036,0.486 l -0.124,0.029 0,0.155 0.884,0 0.023,-0.142 -0.095,-0.042 0.173,-1.845 0.095,0 0,0.456 c 0,0 0.09,0.125 0.108,0.148 0.014,0.018 0.019,0.027 0.035,0.027 0.016,0 0.024,-0.013 0.031,-0.024 0.018,-0.025 0.058,-0.086 0.101,-0.15 l -10e-4,-0.57 -0.07,0 c 0.068,-0.103 0.145,-0.249 0.169,-0.391 l 0.694,-0.094 0,1.998 1.138,0 0,0.261 c 0,0.054 -0.017,0.107 -0.1,0.113 l 0,0.291 0.283,0.004 0,-1.127 c -0.052,-0.048 -0.198,-0.238 -0.253,-0.344 l 0,-0.843 -0.53,-0.241 0,-0.411 -0.657,0 -0.007,-0.19 -0.329,0 0,-0.276 -0.384,0 0,-0.161 -0.258,0 0,0.165 -0.227,0 -0.007,-0.165 -0.241,0 0,0.168 -0.251,0 0,-0.168 -0.271,0 -0.089,0.82 z m -0.143,-2.408 -0.292,0 0,0.365 0.292,0 0,-0.365 z m -0.388,5.932 c 0,0 0.066,0.098 0.081,0.12 0.012,0.016 0.016,0.026 0.027,0.026 0.013,0 0.019,-0.013 0.025,-0.023 0.014,-0.02 0.051,-0.076 0.081,-0.122 l -0.002,-0.607 -0.212,0 0,0.606 z m 0.247,2.912 0,-0.761 -0.202,0.048 0,0.759 0.202,-0.046 z m -0.386,1.754 0,0.326 0.002,0.019 c 0,0 -0.04,0.004 -0.067,0.011 0.059,0.066 0.053,0.19 0.053,0.231 0.196,-0.011 0.443,-0.068 0.52,-0.095 0.077,-0.025 0.158,-0.055 0.186,-0.089 0.024,-0.028 0.024,-0.123 -0.024,-0.148 -0.048,-0.024 -0.089,-0.207 -0.101,-0.249 -0.012,-0.041 -0.017,-0.035 -0.036,-0.029 l 0,0.291 c -0.086,0.018 -0.183,-0.19 -0.207,-0.268 -0.015,-0.047 -0.054,-0.023 -0.054,-0.023 l 0,0.309 c -0.118,0.011 -0.189,-0.208 -0.206,-0.255 -0.019,-0.048 -0.043,-0.048 -0.066,-0.031 m -0.129,-3.503 0.004,2.851 0.186,-0.075 0,-2.776 -0.19,0 z m 0.151,-1.769 -0.213,0 0,0.606 c 0,0 0.066,0.098 0.082,0.12 0.011,0.016 0.014,0.026 0.027,0.026 0.013,0 0.018,-0.013 0.025,-0.023 0.013,-0.02 0.05,-0.076 0.08,-0.122 l -10e-4,-0.607 z m -0.395,-3.732 c -0.018,0.047 -0.057,0.135 -0.076,0.135 l -0.159,0 c -0.015,0 -0.026,-0.015 -0.031,-0.029 -0.008,-0.012 -0.031,-0.092 -0.036,-0.111 -0.053,0.001 -0.313,0 -0.313,0 l 0,0.186 -0.126,0.165 0.131,0 c 0.017,0 0.032,0.009 0.032,0.055 l 0,0.314 c 0,0.014 -0.006,0.041 -0.041,0.041 l -0.128,0 -0.54,2.393 c 0,0 -0.008,2.017 0,2.034 0.013,0.03 0.055,0.051 0.092,0.016 0.043,-0.04 0.038,-10e-4 0.037,0.022 -0.003,0.036 -0.019,0.116 -0.117,0.134 -0.029,0.067 -0.079,0.194 -0.11,0.194 -0.031,0 -0.074,-0.14 -0.091,-0.186 -0.085,-0.01 -0.129,-0.064 -0.134,-0.142 -0.003,-0.072 0.026,-0.032 0.041,-0.016 0.032,0.032 0.078,0.019 0.098,-0.016 l 0,-0.307 -0.337,0 c 0,0 -0.091,0.313 -0.135,0.313 l 0.001,10e-4 c -0.044,0 -0.135,-0.314 -0.135,-0.314 l -0.338,0 0,0.309 c 0.02,0.034 0.067,0.046 0.098,0.014 0.015,-0.014 0.043,-0.054 0.04,0.016 -0.004,0.078 -0.047,0.132 -0.132,0.142 -0.018,0.047 -0.06,0.186 -0.092,0.186 -0.031,0 -0.08,-0.127 -0.109,-0.192 -0.099,-0.019 -0.115,-0.1 -0.117,-0.136 -0.003,-0.023 -0.008,-0.062 0.036,-0.022 0.038,0.035 0.078,0.014 0.093,-0.014 0.007,-0.018 0,-2.036 0,-2.036 l -0.541,-2.392 -0.127,0 c -0.036,0 -0.042,-0.028 -0.042,-0.042 l 0,-0.314 c 0,-0.046 0.015,-0.054 0.033,-0.054 l 0.131,0 -0.126,-0.166 0,-0.186 c 0,0 -0.261,0.002 -0.314,0 -0.005,0.019 -0.029,0.099 -0.035,0.113 -0.007,0.012 -0.017,0.028 -0.031,0.028 l -0.159,0 c -0.02,0 -0.059,-0.088 -0.077,-0.136 l -0.267,0 c 0,0 0.448,5.8 0.448,5.953 -0.18,0.187 -0.34,0.559 -0.327,0.586 0.014,0.027 0.126,0.026 0.181,0.026 l 1.909,0 1.908,0 c 0.053,0 0.166,10e-4 0.179,-0.026 0.014,-0.027 -0.146,-0.4 -0.325,-0.587 0,-0.153 0.448,-5.952 0.448,-5.952 l -0.268,0 z m 0.252,-1.594 -0.292,0 0,0.365 0.292,0 0,-0.365 z m -0.87,1.029 0,0.221 0.862,0 -10e-4,-0.225 -0.322,-0.002 c -0.004,-0.143 -0.219,-0.143 -0.219,0.002 l -0.32,0.004 z m 0.621,-3.314 -0.198,0 0,-0.332 -0.181,-0.095 -0.195,0.096 0.005,0.331 -0.198,0 -0.004,0.379 0.771,0 0,-0.379 z m -1.483,1.629 -0.253,0 0,1.764 0.253,0 0,-1.764 z m 0.427,0 -0.253,0 0,1.764 0.253,0 0,-1.764 z m -0.145,2.244 c -0.071,0.029 -0.295,0.03 -0.396,0 l -0.097,0.089 c 0.117,0.068 0.202,0.213 0.238,0.29 0.034,0.072 0.068,0.072 0.103,0.007 0.037,-0.066 0.107,-0.208 0.235,-0.291 l -0.083,-0.095 z m -1.381,-2.244 -0.254,0 0,1.764 0.254,0 0,-1.764 z m 0.427,0 -0.253,0 0,1.764 0.253,0 0,-1.764 z m -0.138,2.244 c -0.103,0.03 -0.327,0.029 -0.398,0 l -0.082,0.095 c 0.127,0.083 0.199,0.225 0.234,0.291 0.035,0.065 0.069,0.065 0.103,-0.006 0.038,-0.078 0.122,-0.223 0.237,-0.291 l -0.094,-0.089 z m 1.7,-5.348 0,-0.012 -0.106,0 0,0.264 c -0.011,0.606 -0.42,1.144 -1.242,1.133 l -0.004,0 c -0.823,0.011 -1.232,-0.527 -1.244,-1.133 l 0.002,-0.264 -0.107,0 0,0.012 c 0,0 10e-4,0.252 0,0.403 -0.002,0.306 0.217,1.253 1.349,1.253 l 0.004,0 c 1.13,0 1.35,-0.947 1.348,-1.253 -10e-4,-0.151 0,-0.403 0,-0.403 m -2.915,1.048 -0.181,0.095 0,0.332 -0.198,0 0,0.379 0.771,0 -0.004,-0.379 -0.197,0 0.003,-0.331 -0.194,-0.096 z m -0.625,3.962 0.862,0 0,-0.221 -0.32,-0.004 c 0,-0.144 -0.215,-0.144 -0.219,-0.002 l -0.322,0.002 -10e-4,0.225 z m 0.214,-1.25 -0.292,0 0,0.365 0.292,0 0,-0.365 z m -0.324,3.618 c -0.012,-0.062 -0.002,-0.069 -0.061,-0.073 -0.071,-0.003 -0.113,-0.041 -0.113,-0.07 0,-0.077 0.03,-0.173 0.006,-0.196 -0.038,-0.037 -0.202,-0.123 -0.201,-0.051 l 0,-0.003 -0.002,0.31 -0.189,0 -0.001,-0.198 -0.178,0 -10e-4,0.202 -0.18,0 0,-0.203 -0.196,0 -0.001,0.203 -0.181,0 0,-0.204 -0.187,0 0,0.204 -0.182,0 0,-0.204 -0.19,-0.002 0,0.206 -0.18,0 0,-0.207 -0.187,0 -0.001,0.207 -0.18,0 0,-0.207 -0.188,0 0,0.203 -0.181,0 0,-0.2 -0.187,0 0,0.205 -0.106,0 c -0.043,0 -0.043,-0.031 -0.043,-0.068 0,-0.037 0.056,-1.265 0.087,-1.678 l -0.35,0 c 0.007,0.119 0.107,1.572 0.107,1.666 0,0.093 -0.075,0.087 -0.112,0.093 -0.038,0.006 -0.057,0.032 -0.057,0.05 l 0,0.131 3.121,0 0,0.149 c 0,0 -2.903,0.007 -2.958,0 -0.057,-0.005 -0.069,0 -0.101,0.025 -0.031,0.026 -0.093,0.088 -0.125,0.119 -0.031,0.032 -0.031,0.069 0,0.069 l 3.491,0 c 0.08,0.003 0.11,-0.024 0.088,-0.052 -0.032,-0.041 -0.087,-0.106 -0.131,-0.16 -0.009,-0.065 -0.026,-0.144 0.012,-0.148 0.048,-0.005 0.053,-0.025 0.048,-0.06 -0.004,-0.018 -0.005,-0.026 -0.01,-0.058 m -0.324,-3.618 -0.292,0 0,0.365 0.292,0 0,-0.365 z m -2.389,1.242 1.083,0 0,-0.127 -1.083,0 0,0.127 z m 1.439,-2.483 -0.237,0 0,0.245 -0.26,0 0,-0.245 -0.27,0 0,0.245 -0.26,0 0,-0.254 -0.25,0 0,0.254 -0.269,0 0,-0.245 -0.248,0 0,0.237 -0.253,0 c 0,0 0.679,1.133 0.739,1.228 0.06,0.095 0.106,0.1 0.148,0.118 0.041,0.019 0.356,0.149 0.356,0.149 l -0.006,0.234 -0.156,0 0,-0.155 -0.153,0.002 0,0.155 -0.167,0 0,-0.161 -0.154,0 0,0.159 -0.156,0 0,-0.162 -0.149,-0.001 0,0.16 -0.148,0 0,-0.154 -0.156,0 0,0.285 1.586,0 0,-0.705 0.463,-0.464 0,-0.925 z m -2.637,-0.025 0,0.274 -0.285,0 c 0.028,0.561 0.087,1.711 0.087,1.866 l -0.114,0.235 c 0.142,0.031 0.422,0.028 0.529,0.004 -0.035,-0.07 -0.11,-0.231 -0.11,-0.231 0.047,-0.641 0.166,-2.148 0.166,-2.148 l -0.273,0 z m -0.431,4.011 -0.19,0 0,0.372 0.19,0 0,-0.372 z m -0.5,-1.332 -0.166,0 0,0.424 0.166,0 0,-0.424 z m -0.337,0.634 c -0.18,0.002 -0.389,-10e-4 -0.54,-0.03 -0.035,-0.003 -0.033,0.006 -0.03,0.104 0.001,0.062 0.002,0.081 0.026,0.089 0.182,0.031 0.409,0.043 0.559,0.039 0.049,-0.003 0.039,-0.026 0.039,-0.058 0,-0.031 0,-0.082 10e-4,-0.104 0.001,-0.023 -0.008,-0.04 -0.055,-0.04 m 1.268,5.378 0.189,0 0,-0.283 -0.189,0 0,0.283 z m 0.033,1.169 0.168,0 0,-0.302 -0.168,0 0,0.302 z m 0.078,0.387 0.118,0 0,-0.237 -0.118,0 0,0.237 z m 0.257,0.182 c 0.158,0.008 0.466,0.021 0.677,0.017 0.278,-0.004 0.802,-0.004 0.969,-0.037 0.165,-0.031 0.07,-0.039 0.07,-0.079 l 0,-0.324 -0.168,0 0,0.245 c -0.027,0.003 -0.077,0.003 -0.109,0.005 l 0,-0.25 c -0.076,0 -0.148,-10e-4 -0.175,0 l 0,0.256 c -0.042,0 -0.12,0 -0.135,0 l 0.002,-0.256 c -0.047,0.001 -0.156,0.002 -0.182,0.002 l 0,0.258 c -0.052,0.001 -0.115,0 -0.146,0 l 0,-0.258 c -0.053,10e-4 -0.142,0 -0.193,0 l 0,0.261 -0.148,0 0,-0.261 c -0.063,-10e-4 -0.115,-10e-4 -0.169,-10e-4 l 10e-4,0.259 c -0.064,-10e-4 -0.099,-0.004 -0.134,-0.004 l 0.001,-0.254 c -0.061,-10e-4 -0.117,-10e-4 -0.165,-10e-4 l 0.004,0.422 z m 1.502,-0.569 0.167,0 0,-0.302 -0.167,0 0,0.302 z m -0.346,0.002 0.173,0 0,-0.302 -0.173,0 0,0.302 z m -0.367,0 0.184,0 0,-0.302 -0.184,0 0,0.302 z m -0.397,-0.002 0.184,0 0,-0.302 -0.184,0 0,0.302 z m -0.377,0 0.181,0 0,-0.302 -0.181,0 0,0.302 z m 0.055,-1.852 -0.003,-0.588 -0.319,0 0,0.587 c 0,0 0.106,0.13 0.127,0.154 0.015,0.018 0.022,0.027 0.04,0.027 0.02,0 0.029,-0.014 0.036,-0.024 0.021,-0.027 0.069,-0.089 0.119,-0.156 m -0.111,0.683 0.19,0 0,-0.283 -0.19,0 0,0.283 z m 0.51,-0.283 -0.19,0 0,0.283 0.19,0 0,-0.283 z m 0.295,-1.393 0.343,0 -0.09,-0.167 0,-0.335 c -0.042,-0.034 -0.144,-0.037 -0.178,0 l 0,0.334 -0.075,0.168 z m 0.987,1.935 c -0.098,-0.115 -0.118,-0.166 -0.122,-0.198 -0.004,-0.032 0.044,-0.047 0.09,-0.076 l 0,-0.268 -0.325,0 0,0.529 -0.086,0.108 -0.092,-0.111 0,-0.526 -0.219,0 0,0.531 -0.1,0.116 -0.106,-0.117 0,-0.531 -0.214,10e-4 c 0,0 0,0.193 0,0.237 10e-4,0.041 0.036,0.061 0.071,0.084 l 0,0.381 c 0,0 -0.735,0.01 -0.798,0.002 -0.064,-0.007 -0.153,0.022 -0.008,0.072 0.466,0.158 1.052,0.221 1.906,0.229 l 0.003,-0.463 z m 0.118,-0.316 c 0,0 0.152,0.226 0.188,0.277 0.025,0.035 0.033,0.058 0.062,0.058 0.028,0 0.041,-0.029 0.055,-0.05 0.033,-0.048 0.117,-0.176 0.186,-0.282 l -0.003,-1.393 -0.488,0 0,1.39 z m 0.64,0 c 0,0 0.152,0.226 0.188,0.277 0.025,0.035 0.033,0.058 0.062,0.058 0.03,0 0.042,-0.029 0.056,-0.05 0.032,-0.048 0.117,-0.176 0.186,-0.282 l -0.003,-1.393 -0.489,0 0,1.39 z m 1.086,1.32 0.117,0.143 0.116,-0.143 0,-0.454 -0.237,0 0.004,0.454 z m 0.466,0.123 c 0.047,-0.012 0.115,-0.015 0.174,-0.019 l 0,0.355 c -0.107,0 -0.083,0.131 -0.007,0.131 0.05,0 0.047,0.035 0.047,0.054 -0.002,0.047 -10e-4,0.108 0,0.135 0,0.055 -0.012,0.055 -0.066,0.055 -0.036,0 -0.083,-0.002 -0.127,-0.003 -0.063,-0.002 -0.042,0.017 -0.021,0.043 0.015,0.02 0.047,0.055 0.071,0.059 0.099,0.017 0.337,0.016 0.428,-0.007 -0.012,-0.079 -0.056,-0.209 -0.056,-0.209 -0.004,-0.167 0,-1.069 0,-1.069 l -0.265,0 0,0.289 c -0.119,0.048 -0.158,0.067 -0.206,0.111 -0.048,0.044 -0.019,0.087 0.028,0.075 m 0.589,1.179 c 0.004,-0.099 -0.032,-0.194 -0.059,-0.237 -0.107,0.022 -0.422,0.022 -0.518,0 -0.032,0.052 -0.059,0.122 -0.059,0.233 0.116,0.053 0.518,0.05 0.636,0.004 m -0.51,2.381 0.142,0 0,-0.296 -0.142,0 0,0.296 z m 0.291,-0.953 0.208,0 0,-0.297 -0.208,0 0,0.297 z m 0.101,1.013 0.172,0 0,-0.243 -0.172,0 0,0.243 z m 0.254,-0.492 0.173,0 0,-0.374 -0.173,0 0,0.374 z m 0.293,4.893 0.118,0 0,-0.332 -0.118,0 0,0.332 z m 0.47,-8.314 -0.428,0 0,0.262 0.428,0 0,-0.262 z m -0.27,1.602 c 0.029,0.009 0.091,0.017 0.162,0.017 0.076,0 0.126,-0.01 0.159,-0.017 0.039,-0.009 0.044,-0.021 0.023,-0.043 -0.033,-0.037 -0.075,-0.08 -0.099,-0.104 l 0,-0.272 0.314,0.335 0,0.002 0.002,0 0.001,0 0,-0.002 0.314,-0.335 0,0.272 c -0.024,0.024 -0.065,0.067 -0.099,0.104 -0.021,0.022 -0.016,0.034 0.024,0.043 0.031,0.007 0.083,0.017 0.158,0.017 0.072,0 0.133,-0.008 0.162,-0.017 0.023,-0.007 0.045,-0.014 0.018,-0.042 -0.028,-0.027 -0.101,-0.108 -0.101,-0.108 l 0,-0.546 -0.059,-0.032 c -0.08,0.052 -0.174,0.143 -0.174,0.143 l -0.004,-0.621 -0.239,-0.207 0,-0.001 -0.001,0.001 -0.002,-0.001 0,0.001 -0.238,0.207 -0.004,0.621 c 0,0 -0.095,-0.091 -0.174,-0.143 l -0.06,0.032 0,0.546 c 0,0 -0.073,0.081 -0.101,0.108 -0.028,0.028 -0.005,0.035 0.018,0.042 m 0.101,6.712 0.118,0 0,-0.332 -0.118,0 0,0.332 z m 0.334,-5.996 c 0.061,0.121 0.1,0.204 0.127,0.208 l 0,0.003 c 0,0 10e-4,-10e-4 10e-4,-10e-4 0.001,0 0.002,10e-4 0.003,10e-4 l 0,-0.003 c 0.027,-0.005 0.065,-0.087 0.127,-0.208 l 0.166,0 c 0,0 0.062,-0.08 0.086,-0.103 0.024,-0.023 0.008,-0.048 -0.024,-0.048 l 0,-0.379 -0.716,0 0,0.379 c -0.031,0 -0.047,0.025 -0.023,0.048 0.023,0.023 0.087,0.103 0.087,0.103 l 0.166,0 z m 0.844,-2.318 -0.428,0 0,0.262 0.428,0 0,-0.262 z m 0.504,10.542 c 0,0.097 0.026,0.173 0.071,0.174 l 0,10e-4 0,-10e-4 0.001,10e-4 0,-10e-4 c 0.044,-0.001 0.07,-0.077 0.07,-0.174 0.039,0 0.035,-0.08 0.003,-0.083 -0.003,-0.072 -0.021,-0.159 -0.073,-0.164 l 0,-0.002 c 0,0 -0.001,10e-4 -0.001,10e-4 -0.002,0 -0.002,-10e-4 -0.002,-10e-4 l 0,0.002 c -0.052,0.004 -0.069,0.092 -0.071,0.164 -0.033,0.003 -0.037,0.083 0.002,0.083 m 0.349,0.026 c 0.007,0.116 0.054,0.168 0.082,0.17 l 0,0.002 c 10e-4,0 0.002,-0.001 0.002,-0.001 0,0 10e-4,0.001 10e-4,0.001 l 0,-0.002 c 0.028,-0.002 0.075,-0.054 0.082,-0.17 0.044,-10e-4 0.041,-0.094 0,-0.095 -0.003,-0.108 -0.039,-0.171 -0.082,-0.172 l 0,-0.002 c 0,0 -10e-4,0.001 -10e-4,0.001 0,0 -0.001,-0.001 -0.002,-0.001 l 0,0.002 c -0.041,0.001 -0.079,0.064 -0.082,0.172 -0.04,10e-4 -0.043,0.094 0,0.095 m -0.022,-0.99 0,0.624 c 0.059,0.007 0.151,0.01 0.202,0.004 l 0,-0.628 c -0.039,-0.002 -0.155,0 -0.202,0 m -0.323,0.607 0.146,0.012 0.003,-0.621 -0.146,0 -0.003,0.609 z m 0.056,-8.95 c -0.031,0.052 -0.06,0.122 -0.06,0.233 0.116,0.053 0.519,0.05 0.637,0.004 0.004,-0.099 -0.031,-0.194 -0.06,-0.237 -0.106,0.022 -0.422,0.022 -0.517,0 m 0.431,-1.417 -0.265,0 0,0.289 c -0.119,0.048 -0.158,0.067 -0.206,0.111 -0.047,0.044 -0.02,0.087 0.028,0.075 0.047,-0.012 0.115,-0.015 0.174,-0.019 l 0,0.355 c -0.107,0 -0.083,0.131 -0.008,0.131 0.052,0 0.048,0.035 0.048,0.054 -0.002,0.047 -0.001,0.108 0,0.135 0,0.055 -0.012,0.055 -0.065,0.055 -0.035,0 -0.083,-0.002 -0.128,-0.003 -0.064,-0.002 -0.043,0.017 -0.021,0.043 0.015,0.02 0.047,0.055 0.071,0.059 0.099,0.017 0.337,0.016 0.427,-0.007 -0.011,-0.079 -0.055,-0.209 -0.055,-0.209 -0.005,-0.167 0,-1.069 0,-1.069 m 0.371,10.367 -0.002,-0.609 -0.146,0 0.003,0.621 0.145,-0.012 z m -0.138,0.357 c 0,0.096 0.027,0.172 0.07,0.174 l 0,10e-4 c 10e-4,0 10e-4,-10e-4 10e-4,-10e-4 0.001,0 0.001,10e-4 0.001,10e-4 l 0,-10e-4 c 0.044,-0.002 0.07,-0.078 0.07,-0.174 0.038,0 0.034,-0.08 0.003,-0.083 -0.003,-0.072 -0.021,-0.158 -0.071,-0.163 l 0,-0.003 c -0.001,0 -0.001,10e-4 -0.002,10e-4 -0.001,0 -0.002,-10e-4 -0.003,-10e-4 l 0,0.003 c -0.05,0.005 -0.069,0.091 -0.071,0.163 -0.033,0.003 -0.036,0.083 0.002,0.083 m 0.903,-7.376 c 0.024,-0.077 0.06,-0.226 0.06,-0.226 -0.106,0.048 -0.379,0.099 -0.54,0.119 -0.047,0.006 -0.041,0.154 -0.059,0.232 0.238,-0.036 0.41,-0.06 0.539,-0.125 m 0.148,-2.521 -0.003,-2.195 -0.174,0 0,2.247 0.177,-0.052 z m 0.049,-2.844 c 0.028,-0.036 0.093,-0.12 0.159,-0.208 l -0.004,-0.784 -0.425,0 0,0.782 c 0,0 0.14,0.172 0.168,0.206 0.02,0.024 0.03,0.037 0.054,0.037 0.026,0 0.038,-0.02 0.048,-0.033 m 0.273,-0.387 c 0,0 0.066,0.098 0.081,0.12 0.011,0.016 0.015,0.026 0.028,0.026 0.012,0 0.017,-0.013 0.024,-0.023 0.014,-0.02 0.05,-0.076 0.081,-0.122 l -0.002,-0.607 -0.212,0 0,0.606 z m 0.13,2.27 0.344,0 0,-0.546 -0.344,0 0,0.546 z m 0.414,-2.269 -0.002,-0.607 -0.213,0 0,0.606 c 0,0 0.066,0.098 0.082,0.12 0.011,0.016 0.014,0.026 0.027,0.026 0.013,0 0.018,-0.013 0.025,-0.023 0.013,-0.02 0.051,-0.076 0.081,-0.122 m 0.236,5.667 -0.062,-0.734 c -0.039,0.018 -0.088,0.019 -0.139,0 l -0.065,0.729 c 0.055,0.031 0.194,0.036 0.266,0.005 m 0.201,-6.078 c 0,0 0.09,0.125 0.108,0.148 0.013,0.018 0.019,0.027 0.035,0.027 0.016,0 0.025,-0.014 0.031,-0.024 0.017,-0.026 0.059,-0.087 0.101,-0.15 l -0.002,-0.57 -0.273,0 0,0.569 z m 0.325,-0.973 c 0,0 0.089,0.125 0.107,0.148 0.013,0.018 0.019,0.027 0.035,0.027 0.017,0 0.024,-0.014 0.031,-0.023 0.017,-0.027 0.058,-0.088 0.101,-0.151 l -0.002,-0.569 -0.272,0 0,0.568 z m 0.809,0.434 0.004,0.46 0.054,0.036 0.051,-0.028 c 0,0 -0.01,-0.053 0.036,-0.053 0.037,-0.002 0.039,0.094 0.122,0.095 0,0 0,0 0,0 l 0.002,0 c -0.001,0 -0.001,0 -0.002,0 0.085,-10e-4 0.085,-0.097 0.123,-0.095 0.045,0 0.036,0.053 0.036,0.053 l 0.051,0.028 0.053,-0.036 0.006,-0.46 c 0.043,0 0.095,-0.012 0.093,-0.077 -0.001,-0.062 -0.046,-0.071 -0.087,-0.071 0.001,-0.109 -0.025,-0.133 -0.068,-0.133 -0.037,-10e-4 -0.059,0.035 -0.062,0.118 l -0.289,0 c -10e-4,-0.083 -0.024,-0.119 -0.062,-0.118 -0.043,0 -0.07,0.024 -0.068,0.133 -0.042,0 -0.086,0.009 -0.088,0.071 -10e-4,0.065 0.052,0.077 0.095,0.077 m 0.818,0.504 0.359,0 c 0,-0.029 0.003,-0.139 -0.075,-0.139 l -0.284,0 0,0.139 z m 0.238,-3.785 0.284,0 0,-0.412 -0.284,0 0,0.412 z m 0.688,-0.689 0.285,0 0,-0.411 -0.285,0 0,0.411 z m 8.276,-5.849 -0.142,0.143 -0.297,3.871 0.167,0.285 0,0.853 c -0.126,0.056 -0.301,0.08 -0.594,0.103 l 0.087,0.15 0,0.492 0.119,0.07 c -0.095,0.15 -0.89,1.769 -0.89,1.769 0,0 -0.043,1.258 -0.048,1.37 -0.004,0.085 -0.062,0.081 -0.062,0 l 0,-1.377 c -0.142,-0.308 -0.914,-1.754 -0.914,-1.754 l 0.095,-0.087 0,-0.506 c 0,0 0.063,-0.102 0.111,-0.166 -0.24,-0.013 -0.435,-0.032 -0.523,-0.071 l 0,-0.672 c 0,-0.072 0.048,-0.127 0.048,-0.127 l 0.094,-0.031 0,-0.151 -0.419,0 -0.348,-0.165 0,-0.421 -0.236,0 0,0.231 -0.27,0 0,-0.231 -0.212,0 0,0.231 -0.286,0 0,-0.239 -0.252,0 c 0,0 -0.033,0.293 -0.04,0.349 -0.008,0.056 -0.032,0.158 -0.086,0.214 l 0.078,0.103 -0.86,1.091 0,0.387 -0.23,0 c -0.013,0.174 -0.057,1.638 -0.057,1.638 l 0.27,0.483 0,0.719 c -0.083,0.035 -0.222,0.041 -0.372,0.047 l 0,-0.206 -0.182,0 0,0.871 0.134,0 c -0.396,0.83 -0.861,1.707 -0.973,3.638 -0.005,0.093 -0.004,0.115 -0.034,0.114 -0.017,-10e-4 -0.023,-0.013 -0.024,-0.032 -0.093,-2.006 -0.503,-2.914 -0.796,-3.72 l 0.145,0.011 -0.003,-0.882 -0.152,-0.008 0.002,0.214 c -0.103,0 -0.269,-0.006 -0.348,-0.024 l 0,-0.719 0.261,-0.499 c -0.016,-0.277 -0.031,-0.885 -0.031,-0.885 l -0.262,0.664 -0.699,0.008 0,1.459 c 0.074,0.135 0.229,0.266 0.229,0.266 l 0,1.154 c 0.111,0.194 0.118,0.396 0.118,0.396 l -0.122,0 -0.281,1.296 -0.288,-1.237 c -0.309,0.774 -0.297,1.633 -0.297,1.633 l -0.019,0 -0.069,-0.242 -0.315,0 c 0,0 -0.052,0.183 -0.061,0.237 l -0.016,10e-4 c -0.025,-0.558 -0.112,-0.882 -0.236,-1.267 l -0.299,0.845 0.105,0.291 c 0,0 -0.391,2.12 -0.431,2.373 -0.027,0.172 0.056,0.34 0.199,0.458 l -0.041,0.531 c 0.056,0.078 0.08,0.11 0.096,0.134 0.015,0.023 0.008,0.056 -0.016,0.072 -0.024,0.015 -0.087,0.046 -0.087,0.046 l -0.095,1.021 c 0,0 -0.095,-0.451 -0.111,-0.506 -0.016,-0.056 -0.048,-0.08 -0.056,0.008 -0.007,0.087 -0.308,5.1 -0.308,5.172 0,0.071 -0.025,0.087 -0.046,0.087 -0.025,0 -0.047,-0.016 -0.047,-0.087 0,-0.072 -0.3,-5.085 -0.308,-5.172 -0.008,-0.088 -0.04,-0.064 -0.056,-0.008 -0.016,0.055 -0.11,0.506 -0.11,0.506 l -0.095,-1.021 c 0,0 -0.064,-0.031 -0.087,-0.046 -0.025,-0.016 -0.032,-0.049 -0.016,-0.072 0.016,-0.024 0.039,-0.056 0.095,-0.134 l -0.04,-0.531 c 0.143,-0.118 0.203,-0.306 0.203,-0.481 l -0.639,0 c 0,0 0.004,0.641 0,0.869 -0.004,0.229 0.13,0.281 0.178,0.312 0,0 0.035,0.23 0.039,0.274 0.004,0.043 -0.058,0.102 -0.076,0.114 l 0.002,0.173 c 0,0 0.003,0.005 0.05,0.052 0.048,0.048 0.036,0.095 0.024,0.132 -0.013,0.034 -0.036,0.13 -0.096,0.296 l 0,0.486 -0.177,-0.118 -0.19,0.094 c -0.035,0.641 -0.119,3.049 -0.119,4.514 0.214,0.172 0.185,0.434 0.167,0.546 0.272,0.106 0.16,0.403 0.125,0.534 -0.036,0.13 0.005,0.166 0.059,0.226 -0.084,0.029 -0.351,0.07 -0.549,0.076 l 0,2.373 -0.181,0 0,-0.704 -0.071,0 c 0,0 -0.337,4.666 -0.34,4.729 -0.004,0.064 0.007,0.091 0.023,0.099 0.016,0.008 0.115,0.079 0.115,0.079 l 0.044,0.19 -0.146,0 c 0,0 -0.021,0.68 -0.025,0.767 l -0.154,0 c -0.003,-0.087 -0.024,-0.767 -0.024,-0.767 l -0.146,0 0.044,-0.19 c 0,0 0.098,-0.071 0.114,-0.079 0.016,-0.008 0.027,-0.035 0.023,-0.099 -0.003,-0.063 -0.339,-4.729 -0.339,-4.729 l -0.071,0 0,0.704 -0.182,0 0,-2.373 c -0.198,-0.006 -0.465,-0.047 -0.548,-0.076 0.053,-0.06 0.095,-0.096 0.06,-0.226 -0.037,-0.131 -0.149,-0.428 0.123,-0.534 -0.017,-0.112 -0.046,-0.374 0.167,-0.546 0,-1.465 -0.083,-3.873 -0.118,-4.514 -0.008,-0.071 -0.04,-0.079 -0.092,-0.079 -0.051,0 -0.087,0.04 -0.087,0.095 0,0.055 -0.011,0.625 -0.01,0.734 0,0 0.002,0.121 0.002,0.202 0.03,0.015 0.062,0.039 0.062,0.103 0,0.08 -0.062,0.114 -0.093,0.143 0,0 -0.008,0.192 -0.008,0.255 0,0.062 -0.009,0.073 -0.026,0.073 -0.018,0 -0.027,-0.011 -0.027,-0.073 0,-0.063 -0.008,-0.255 -0.008,-0.255 -0.031,-0.029 -0.092,-0.063 -0.092,-0.143 0,-0.064 0.033,-0.088 0.062,-0.103 0,-0.081 -0.009,-0.202 -0.009,-0.202 -0.234,0.008 -0.279,0.069 -0.394,0.11 0,0 -0.047,2.502 -0.047,2.581 0,0 0.138,0.098 0.208,0.158 l 0,0.135 c 0,0 -0.204,0.141 -0.268,0.181 0,0.083 -0.06,1.056 -0.06,1.281 0,0 -0.082,-0.177 -0.137,-0.3 0,0 -0.18,3.814 -0.182,3.853 -10e-4,0.037 -0.008,0.045 -0.022,0.045 -0.014,0 -0.021,-0.008 -0.022,-0.045 -0.002,-0.039 -0.181,-3.853 -0.181,-3.853 -0.056,0.123 -0.139,0.3 -0.139,0.3 0,-0.225 -0.059,-1.198 -0.059,-1.281 -0.063,-0.04 -0.269,-0.181 -0.269,-0.181 l 0,-0.135 c 0.071,-0.06 0.21,-0.158 0.21,-0.158 0,-0.079 -0.048,-2.581 -0.048,-2.581 l -0.186,0 0,-0.42 -0.534,0 c 10e-4,0.044 0.045,0.219 0.085,0.246 0.023,0 0.048,0.071 0.011,0.105 -0.025,0.024 -0.088,0.068 -0.125,0.084 -0.025,0.152 -0.163,1.018 -0.166,1.035 -0.003,0.016 -0.002,0.036 -0.023,0.036 -0.016,0 -0.018,-0.02 -0.021,-0.036 -0.004,-0.017 -0.141,-0.883 -0.166,-1.035 -0.037,-0.016 -0.1,-0.06 -0.125,-0.084 -0.037,-0.034 -0.013,-0.105 0.01,-0.105 0.041,-0.027 0.085,-0.202 0.086,-0.246 -10e-4,-0.095 0,-1.082 0,-1.108 -0.062,0.002 -0.062,-0.102 -0.011,-0.113 0.047,-0.132 0.135,-0.3 0.192,-0.3 0.058,0 0.153,0.172 0.197,0.25 -0.004,-0.177 0,-0.672 0,-0.735 -0.055,-0.217 -0.181,-0.743 -0.181,-0.743 -0.04,-0.035 -0.092,-0.103 -0.092,-0.103 0.044,-0.048 0.076,-0.063 0.096,-0.079 0,-0.064 0.004,-0.609 0.004,-0.609 l -0.352,0 -0.233,0.993 c -0.032,-0.127 -0.285,-1.077 -0.285,-1.077 l 0.075,0 -0.004,-0.736 -1.171,0 0,0.469 c 0,0 0.065,0.089 0.095,0.124 l 0,0.439 c 0,0.066 -0.03,0.066 -0.048,0.042 -0.017,-0.024 -0.064,-0.065 -0.124,-0.131 0,0 -0.885,1.567 -0.913,1.645 -10e-4,0.035 -0.005,0.452 -0.005,0.491 0.035,0.007 0.039,0.02 0.039,0.036 0,0.014 -0.016,0.029 -0.034,0.031 -0.016,0.002 -0.036,0.008 -0.081,0.012 0,0.017 -0.002,0.38 -0.002,0.432 0,0 0.026,0.015 0.072,0.041 0.047,0.026 0.02,0.065 0.002,0.073 -0.018,0.007 -0.041,0.017 -0.106,0.043 0,0.013 -0.002,0.223 -0.002,0.239 0,0 0.054,0.027 0.099,0.051 0.045,0.024 0.022,0.052 0.007,0.062 -0.015,0.009 -0.055,0.035 -0.1,0.066 -0.004,0.056 -0.048,1.704 -0.048,1.739 0,0.033 -0.014,0.043 -0.036,0.043 -0.023,0 -0.036,-0.01 -0.036,-0.043 0,-0.035 -0.045,-1.683 -0.048,-1.739 -0.045,-0.031 -0.086,-0.057 -0.101,-0.066 -0.015,-0.01 -0.037,-0.038 0.008,-0.062 0.044,-0.024 0.099,-0.051 0.099,-0.051 0,-0.016 -0.003,-0.226 -0.003,-0.239 -0.065,-0.026 -0.087,-0.036 -0.106,-0.043 -0.019,-0.008 -0.045,-0.047 0.002,-0.073 0.047,-0.026 0.073,-0.041 0.073,-0.041 0,-0.052 -0.002,-0.415 -0.002,-0.432 -0.045,-0.004 -0.065,-0.01 -0.082,-0.012 -0.016,-0.002 -0.033,-0.017 -0.033,-0.031 0,-0.016 0.003,-0.029 0.039,-0.036 0,-0.039 -0.004,-0.456 -0.006,-0.491 -0.028,-0.078 -0.909,-1.645 -0.909,-1.645 -0.058,0.065 -0.106,0.106 -0.124,0.129 -0.018,0.025 -0.051,0.019 -0.047,-0.04 0.003,-0.065 0,-0.44 0,-0.44 0.029,-0.035 0.095,-0.124 0.095,-0.124 l 0,-0.601 0.136,-0.277 c -0.048,-0.007 -0.135,-0.007 -0.135,-0.007 0.008,-0.072 0,-4.469 0,-4.469 l 0,-0.016 -0.87,0 -0.435,0.941 c 0,0 -0.529,-1.234 -0.561,-1.296 -0.031,-0.064 -0.008,-0.097 0.024,-0.097 l 0,-1.485 c 0.071,0 0.135,-0.088 0.135,-0.238 0,-0.15 -0.009,-0.284 -0.009,-0.284 l -1.408,-1.67 c -0.149,0.142 -0.45,0.507 -0.53,0.847 -0.102,-0.332 -0.323,-0.64 -0.505,-0.823 -0.064,-0.063 -0.025,-0.086 0.008,-0.094 -0.003,-0.169 -0.017,-0.38 -0.023,-0.405 l -0.189,0.003 -0.002,0.194 -0.236,0 0.001,-0.194 -0.189,0 -0.003,0.195 -0.237,0 -10e-4,-0.192 -0.202,0 c -0.004,0.085 -0.034,0.727 -0.034,1.071 0.082,0.142 0.141,0.332 0.141,0.332 l -0.141,0 0,0.616 0.129,0 c -0.153,0.415 -0.485,1.899 -0.497,1.958 -0.012,0.06 -0.036,0.095 -0.048,0 -0.011,-0.095 -0.249,-1.104 -0.457,-1.855 l -0.332,0 0,0.574 c 0.06,0.041 0.119,0.095 0.118,0.136 -10e-4,0.041 0.001,0.268 0,0.428 0,0.084 0.038,0.087 0.05,0.092 0.023,0.01 0.022,0.026 0,0.072 -0.05,0.103 -0.85,2.074 -0.859,2.097 -0.009,0.025 -0.015,0.055 -0.009,0.073 0.007,0.017 0.071,0.193 0.08,0.219 0.009,0.027 -0.035,0.053 -0.089,0.071 -0.002,0.106 -0.029,1.712 -0.031,1.883 -0.001,0.065 10e-4,0.112 -0.049,0.112 -0.05,0 -0.047,-0.047 -0.048,-0.112 -0.002,-0.171 -0.029,-1.777 -0.032,-1.883 -0.053,-0.018 -0.097,-0.044 -0.088,-0.071 0.008,-0.026 0.074,-0.202 0.079,-0.219 0.006,-0.018 0,-0.048 -0.008,-0.073 -0.01,-0.023 -0.81,-1.994 -0.86,-2.097 -0.021,-0.046 -0.023,-0.062 0,-0.072 0.013,-0.005 0.05,-0.008 0.05,-0.092 0,-0.16 0,-0.387 0,-0.428 0,-0.041 0.059,-0.095 0.119,-0.136 l 0,-0.489 -0.163,-0.002 0,-0.155 -0.195,0 0,0.157 -0.212,0 0,-0.908 c 0.053,-0.042 0.149,-0.211 0.157,-0.395 l 0.042,0 c 0,-0.071 -0.3,-4.341 -0.3,-4.341 l -0.201,0 -0.107,-1.187 14.058,0 0.082,0.427 0.108,0.071 0,0.569 0.154,0 0,0.274 -0.154,0 c 0,0 -0.008,0.741 -0.006,0.847 0.006,0.469 0.31,0.969 1.126,0.968 0.817,0 1.121,-0.499 1.128,-0.968 0.001,-0.106 -0.007,-0.847 -0.007,-0.847 l -0.153,0 0,-0.274 0.153,0 0,-0.569 0.107,-0.071 0.083,-0.427 14.26,0.024 -0.119,1.008 z m -16.003,25.807 c 10e-4,0 10e-4,-10e-4 0.002,-10e-4 10e-4,0 10e-4,10e-4 0.002,10e-4 l -0.004,0 z" />
      <path
         inkscape:connector-curvature="0"
         id="path5906"
         style="fill:#000000;fill-opacity:1;fill-rule:nonzero;stroke:none"
         d="m 449.471,309.843 -0.146,0 0,0.259 0.146,0 0,-0.259 z m -0.271,0 -0.139,0 0,0.259 0.139,0 0,-0.259 z m 0,-0.321 -0.016,0.012 -0.123,0 0,0.236 0.139,0 0,-0.248 z m -0.264,0.321 -0.146,0 0,0.259 0.146,0 0,-0.259 z m 0,-0.309 -0.146,0 0,0.236 0.146,0 0,-0.236 z m 0.66,0.708 -0.125,0.006 0,-0.073 -0.146,0 0,0.067 -0.125,0.006 0,-0.073 -0.139,0 0,0.067 -0.125,0.006 0,-0.073 -0.146,0 0,0.067 -0.125,0.006 0,-0.073 -0.079,0 0,-0.073 0.079,0 0,-0.259 -0.079,0 0,-0.073 0.079,0 0,-0.236 -0.079,0 0,-0.075 0.085,0 0.056,-0.152 0.057,0.152 0.158,0 0.055,-0.152 0.058,0.152 0.15,0 0.057,-0.152 0.063,0.166 0,0.297 0.146,0 0,-0.297 0.061,-0.166 0.064,0.166 0,0.297 0.086,0 0,0.073 -0.086,0 0,0.259 0.086,0 0,0.073 -0.086,0 0,0.067 z m -1.218,-0.399 -0.147,0 0,0.259 0.147,0 0,-0.259 z m 0,-0.309 -0.147,0 0,0.236 0.147,0 0,-0.236 z m -0.27,0.309 -0.139,0 0,0.259 0.139,0 0,-0.259 z m 0,-0.309 -0.123,0 -0.017,-0.012 0,0.248 0.14,0 0,-0.236 z m -0.264,0.309 -0.146,0 0,0.259 0.146,0 0,-0.259 z m 0.659,0.405 -0.125,-0.006 0,-0.067 -0.146,0 0,0.073 -0.124,-0.006 0,-0.067 -0.14,0 0,0.073 -0.124,-0.006 0,-0.067 -0.147,0 0,0.073 -0.125,-0.006 0,-0.067 -0.086,0 0,-0.073 0.086,0 0,-0.259 -0.086,0 0,-0.073 0.086,0 0,-0.297 0.064,-0.166 0.061,0.166 0,0.297 0.147,0 0,-0.297 0.063,-0.166 0.056,0.152 0.15,0 0.058,-0.152 0.056,0.152 0.157,0 0.058,-0.152 0.056,0.152 0.084,0 0,0.075 -0.079,0 0,0.236 0.079,0 0,0.073 -0.079,0 0,0.259 0.079,0 0,0.073 -0.079,0 0,0.073 z m -5.069,16.25 0.013,-0.252 c 0.108,0.019 0.146,-0.091 0.243,-0.088 l -0.023,0.252 c -0.09,-0.01 -0.108,0.119 -0.233,0.088 m 13.837,-6.044 c -0.058,0.023 -0.1,0.02 -0.151,-0.003 -0.057,-0.025 -0.095,-0.054 -0.196,-0.006 l 0.006,-0.279 c 0.035,-0.018 0.108,-0.016 0.192,0.03 0.066,0.036 0.122,0.009 0.152,-0.003 0.046,-0.02 0.086,-0.033 0.133,-0.005 l -0.008,0.233 c -0.037,-0.017 -0.087,0.017 -0.128,0.033 m 5.466,-4.043 c -0.005,0.052 -0.074,0.075 -0.172,0.075 -0.099,0 -0.124,-0.003 -0.151,0.024 -0.028,0.027 0,-0.243 0,-0.243 0.087,-0.046 0.313,0.006 0.323,-0.093 0.006,0.099 0,0.237 0,0.237 m -12.502,21.804 c -0.083,0 -0.15,-0.065 -0.15,-0.144 0,-0.08 0.067,-0.144 0.15,-0.144 0.083,0 0.15,0.064 0.15,0.144 0,0.079 -0.067,0.144 -0.15,0.144" />
      <path
         inkscape:connector-curvature="0"
         id="path5908"
         style="fill:#000000;fill-opacity:1;fill-rule:nonzero;stroke:none"
         d="m 463.09,329.6732 -0.833,-0.095 -0.166,-0.822 -0.348,0.762 -0.833,-0.095 0.617,0.566 -0.348,0.763 0.73,-0.412 0.617,0.566 -0.166,-0.821 0.73,-0.412 z" />
      <path
         inkscape:connector-curvature="0"
         id="path5910"
         style="fill:#000000;fill-opacity:1;fill-rule:nonzero;stroke:none"
         d="m 450.3522,334.9432 c -7.601,1.136 -14.809,-1.338 -19.475,-6.017 l 0,-0.532 c 4.653,4.883 12.01,7.496 19.781,6.334 3.789,-0.566 7.222,-1.964 10.096,-3.945 -2.935,2.095 -6.477,3.573 -10.402,4.16" />
      <path
         inkscape:connector-curvature="0"
         id="path5912"
         style="fill:#000000;fill-opacity:1;fill-rule:nonzero;stroke:none"
         d="m 431.206,306.656 34.6,0 0,34.866 -34.6,0 0,-34.866 z m 35.2,-0.599 -35.8,0 0,36.066 35.8,0 0,-36.066 z" />
      <path
         inkscape:connector-curvature="0"
         id="path5914"
         style="fill:#000000;fill-opacity:1;fill-rule:nonzero;stroke:none"
         d="m 446.2033,298.5544 c -0.079,0.263 -0.189,0.523 -0.479,0.568 -0.169,-0.039 -0.266,-0.213 -0.301,-0.34 -0.207,-1.219 -0.243,-2.495 -0.226,-3.791 0.023,-0.445 -0.055,-1.089 0.488,-1.201 0.264,-0.077 0.525,0 0.732,0.169 0.072,1.462 -0.047,2.805 -0.138,4.208 -0.02,0.174 -0.056,0.316 -0.076,0.387" />
      <path
         inkscape:connector-curvature="0"
         id="path5916"
         style="fill:#000000;fill-opacity:1;fill-rule:nonzero;stroke:none"
         d="m 461.2331,297.9382 c 0.259,0.016 0.977,-0.017 1.315,0.262 0.038,0.415 -0.338,0.79 -0.712,0.958 -1.147,0.076 -2.237,-0.168 -3.323,-0.299 -0.103,-0.016 -0.302,-0.038 -0.302,-0.188 0.095,-0.489 0.582,-0.583 0.958,-0.677 l -0.02,-0.055 -0.298,-0.909 -0.075,-0.003 -0.144,-0.013 c -0.031,-0.003 -0.066,-0.01 -0.099,-0.02 -0.123,-0.04 -0.274,-0.102 -0.227,-0.257 0.355,-0.714 -0.358,-1.2 -0.282,-1.915 0.051,-0.464 0.294,-0.946 0.709,-1.182 0.06,-0.028 0.15,-0.061 0.271,-0.074 1.092,-0.097 1.985,0.479 2.81,1.125 0.095,0.207 -0.054,0.469 -0.188,0.639 -0.788,0.168 -1.539,-0.188 -2.327,-0.245 l -0.001,0.002 -0.063,-0.008 c 0.082,0.202 0.231,0.639 0.395,1.14 0.1,0.014 0.3,0.023 0.461,0.012 0.16,-0.007 0.332,-0.022 0.43,-0.021 0.38,0 0.764,-0.032 1.04,0.174 0.047,0.037 0.059,0.087 0.06,0.116 0.011,0.132 0.05,0.387 -0.05,0.537 -0.471,0.169 -1.05,0.094 -1.558,0.094 l -0.074,-10e-4 0.243,0.771 1.051,0.037 z" />
      <path
         inkscape:connector-curvature="0"
         id="path5918"
         style="fill:#000000;fill-opacity:1;fill-rule:nonzero;stroke:none"
         d="m 467.0612,297.2292 -10e-4,0.001 c -0.007,-0.597 -0.25,-1.118 -0.708,-1.526 -0.447,-0.356 -0.973,-0.636 -1.55,-0.638 0.027,0.051 0.054,0.104 0.083,0.158 0.132,0.228 0.265,0.459 0.4,0.691 0.329,0.534 0.708,1.054 1.133,1.533 0.013,0.013 0.023,0.025 0.034,0.039 0.01,0.009 0.018,0.019 0.028,0.029 0.088,0.096 0.181,0.189 0.276,0.282 0.024,0.016 0.061,0.038 0.094,0.029 l -10e-4,0 c 0.097,-0.018 0.133,-0.135 0.166,-0.233 0.019,-0.075 0.046,-0.209 0.046,-0.364 l 0,-0.001 z m 0.215,1.353 c -0.038,0.042 -0.077,0.078 -0.102,0.102 -0.129,0.098 -0.278,0.16 -0.441,0.163 -0.124,-10e-4 -0.291,-0.08 -0.377,-0.127 -0.618,-0.354 -1.158,-0.857 -1.654,-1.438 -0.009,-0.01 -0.017,-0.021 -0.026,-0.031 -0.293,-0.354 -0.702,-0.89 -1.109,-1.555 -0.114,0.13 -0.114,0.401 -0.1,0.567 0.131,1.145 1.288,1.913 1.159,3.103 -0.216,0.017 -0.357,-0.184 -0.503,-0.322 -0.051,-0.055 -0.108,-0.116 -0.166,-0.18 -0.815,-1.02 -1.465,-2.166 -1.283,-3.553 0.029,-0.185 0.101,-0.388 0.186,-0.554 0.033,-0.071 0.069,-0.128 0.098,-0.167 -0.193,-0.401 -0.374,-0.832 -0.523,-1.283 -0.218,-0.733 -0.421,-1.473 -0.541,-2.251 -0.034,-0.177 -0.09,-0.517 -0.052,-0.815 0.009,-0.091 0.025,-0.179 0.063,-0.261 0.186,-0.396 0.62,-0.827 1.051,-0.771 0.13,0.994 0.362,1.95 0.634,2.885 0.146,0.475 0.339,1.033 0.586,1.629 0.563,-0.099 1.023,0.068 1.023,0.068 1.181,0.415 2.303,1.54 2.562,2.758 0.183,0.748 -0.027,1.46 -0.485,2.033" />
      <path
         inkscape:connector-curvature="0"
         id="path5920"
         style="fill:#000000;fill-opacity:1;fill-rule:nonzero;stroke:none"
         d="m 447.749,301.4294 c -0.167,-0.112 -0.338,-0.186 -0.506,-0.262 -0.525,-0.188 -1.071,-0.281 -1.613,-0.188 0.464,0.734 1.202,1.447 2.001,1.757 0.043,0.015 0.128,0.041 0.22,0.056 0.231,0.021 0.494,0.039 0.575,-0.236 0.094,-0.488 -0.319,-0.864 -0.677,-1.127 m -2.999,0.093 c -0.02,-0.024 -0.041,-0.047 -0.061,-0.073 -0.1,0.087 -0.082,0.228 -0.044,0.362 0.028,0.101 0.071,0.173 0.083,0.194 0.078,0.132 0.189,0.27 0.301,0.382 0.169,0.171 0.372,0.31 0.588,0.431 0.038,0.021 0.098,0.049 0.153,0.069 0.005,0.004 0.012,0.007 0.021,0.009 0.059,0.023 0.186,0.055 0.366,0.038 l 0.002,0 c 0.035,-0.005 0.074,-0.011 0.112,-0.021 -0.747,-0.494 -1.338,-1.17 -1.521,-1.391 m 4.234,1.575 0,0 c -0.023,0.029 -0.05,0.055 -0.075,0.078 l 0.002,0 c 0,0 -0.154,0.156 -0.364,0.221 -0.022,0.006 -0.044,0.012 -0.064,0.018 -0.097,0.023 -0.183,0.027 -0.237,0.027 -0.019,0 -0.04,-10e-4 -0.062,-0.003 -0.067,0.223 -0.335,0.367 -0.335,0.367 -0.183,0.101 -0.39,0.149 -0.576,0.172 l -0.024,0.004 c -0.448,0.046 -0.799,-0.012 -1.073,-0.081 -0.219,-0.058 -0.409,-0.141 -0.521,-0.194 -1.061,-0.53 -1.47,-1.141 -1.625,-1.5 -0.005,-0.009 -0.01,-0.017 -0.015,-0.025 -0.016,-0.042 -0.031,-0.084 -0.043,-0.127 -0.02,-0.063 -0.03,-0.108 -0.035,-0.134 -0.094,-0.458 0.014,-0.952 0.359,-1.297 0,-0.043 -0.005,-0.172 -0.004,-0.299 0.004,-0.068 0.012,-0.156 0.033,-0.241 0.013,-0.05 0.032,-0.104 0.058,-0.166 0.082,-0.173 0.156,-0.231 0.29,-0.231 0.243,-0.021 0.356,0.375 0.43,0.466 0.47,-0.149 1.033,-0.244 1.541,-0.091 0.355,0.111 0.657,0.261 0.975,0.467 0.523,0.348 0.999,0.775 1.332,1.338 0.105,0.186 0.155,0.365 0.178,0.483 0.055,0.286 0.028,0.54 -0.145,0.748" />
      <path
         inkscape:connector-curvature="0"
         id="path5922"
         style="fill:#000000;fill-opacity:1;fill-rule:nonzero;stroke:none"
         d="m 456.4802,299.403 c -0.151,0.216 -0.414,0.62 -0.751,0.637 -0.131,-0.056 -0.137,-0.243 -0.114,-0.355 0.245,-1.234 0.73,-2.356 0.732,-3.683 0,-0.051 -10e-4,-0.14 -0.015,-0.193 -0.016,-0.054 -0.046,-0.099 -0.097,-0.104 -0.741,1 -1.243,2.125 -2.157,3.039 -0.039,0.036 -0.067,0.053 -0.082,0.063 -0.148,0.065 -0.283,-0.016 -0.386,-0.131 -0.027,-0.036 -0.085,-0.117 -0.148,-0.256 -0.289,-0.673 -0.425,-1.423 -0.529,-2.172 -0.057,-0.379 -0.224,-1.426 0.036,-2.007 0.114,-0.208 0.318,-0.414 0.563,-0.395 0.169,0.019 0.301,0.225 0.357,0.395 l 0.184,3.039 0.079,-0.13 c 0.62,-0.995 0.937,-2.121 1.914,-2.909 0.138,-0.091 0.317,-0.072 0.469,-0.009 0.096,0.034 0.231,0.094 0.343,0.194 0.336,0.27 0.512,0.738 0.561,1.112 0.166,1.424 -0.189,2.758 -0.959,3.865" />
      <path
         inkscape:connector-curvature="0"
         id="path5924"
         style="fill:#000000;fill-opacity:1;fill-rule:nonzero;stroke:none"
         d="m 452.4245,298.7853 c -0.002,0.025 -0.012,0.048 -0.032,0.072 -0.012,0.013 -0.034,0.024 -0.051,0.032 -1.424,0.586 -3.395,0.415 -4.718,-0.314 -0.402,-0.208 -0.583,-0.596 -0.614,-1.035 -0.003,-0.073 0,-0.263 0.081,-0.417 0.067,-0.113 0.162,-0.216 0.269,-0.273 0.017,-0.008 0.045,-0.019 0.079,-0.027 0.436,-0.092 0.899,-0.125 1.362,-0.155 0.233,-0.018 0.402,-0.028 0.402,-0.028 0.876,-0.074 1.289,-0.187 1.289,-0.187 l 0.005,0 c 0.35,-0.097 0.835,-0.177 0.931,-0.607 0.004,-0.02 0.002,-0.031 -0.005,-0.049 -0.296,-0.473 -1.176,-0.635 -1.771,-0.731 -0.388,-0.045 -1.372,-0.208 -1.851,0.186 -0.065,0.056 -0.079,0.121 -0.082,0.159 0,0.009 0,0.019 0.002,0.029 l 0,0 c 0.003,0.068 0.025,0.137 0.07,0.2 0.008,0.008 0.029,0.035 0.062,0.059 0.621,0.36 1.411,-0.41 2.043,-0.333 0.64,0.064 0.844,0.215 0.909,0.353 0.052,0.104 0.028,0.173 0.028,0.173 -0.224,0.187 -0.73,0.338 -1.144,0.411 -0.584,0.085 -1.418,0.209 -2.003,-0.144 -0.01,-0.007 -0.12,-0.076 -0.196,-0.185 -0.112,-0.168 -0.194,-0.37 -0.204,-0.585 10e-4,-0.036 0.006,-0.093 0.027,-0.158 0.299,-0.749 1.082,-1.145 1.796,-1.309 0.968,-0.156 2.016,-0.025 2.733,0.613 l -0.002,0 c 0.138,0.121 0.211,0.231 0.247,0.291 0.18,0.357 0.234,0.93 0.119,1.374 -0.034,0.125 -0.088,0.222 -0.131,0.285 -0.745,0.982 -2.117,0.704 -3.278,0.891 -0.144,0.02 -0.347,0.055 -0.528,0.112 -0.112,0.032 -0.178,0.062 -0.212,0.08 -0.011,0.005 -0.021,0.011 -0.03,0.017 -0.002,10e-4 -0.003,0.003 -0.003,0.003 -0.026,0.02 -0.046,0.043 -0.056,0.079 -0.003,0.018 0.008,0.03 0.016,0.036 1.008,0.404 2.22,0.349 3.339,0.479 0.356,0.055 0.73,0.041 0.976,0.313 0.008,0.008 0.021,0.021 0.034,0.041 0,0 0.002,0.002 0.002,0.003 0.003,0 0.003,0.002 0.003,0.002 0.022,0.032 0.05,0.079 0.068,0.135 0.011,0.031 0.016,0.058 0.017,0.079 l 0,0.013 c 0.002,0.006 0.002,0.011 0.002,0.014 l 0,10e-4 0,0.002 z" />
      <path
         inkscape:connector-curvature="0"
         id="path5926"
         style="fill:#000000;fill-opacity:1;fill-rule:nonzero;stroke:none"
         d="m 434.8198,294.5612 c -1.12,0.408 -2.293,1.005 -3.063,2.081 -0.013,0.021 -0.019,0.041 -0.023,0.053 0,10e-4 -10e-4,0.002 -10e-4,0.004 0,10e-4 -10e-4,0.003 -10e-4,0.005 -0.032,0.203 0.208,0.355 0.366,0.408 0.432,0.15 0.902,0.246 1.371,0.32 0.82,0.125 1.274,0.148 1.463,0.163 0,-1.014 -0.074,-2.004 -0.112,-3.034 m 9.627,3.016 10e-4,0 c 0,0 -0.188,2.028 -3.042,4.185 -0.018,0.014 -0.037,0.029 -0.055,0.043 -0.01,0.008 -0.021,0.015 -0.031,0.022 -0.199,0.149 -0.413,0.297 -0.639,0.446 -0.906,0.601 -1.839,1.048 -2.585,1.374 -2.202,0.966 -5.426,1.65 -8.306,0.768 -0.417,-0.149 -0.566,-0.549 -0.7,-0.925 -0.014,-0.053 -0.034,-0.157 0.004,-0.22 0.153,-0.166 0.403,-0.183 0.645,-0.192 0.102,-10e-4 0.318,0 0.464,0.022 0.091,0.021 0.172,0.058 0.17,0.157 -0.002,0.023 -0.007,0.036 -0.017,0.05 -0.184,0.232 -0.482,0.14 -0.683,0.255 -0.007,0.007 -0.007,0.015 -0.006,0.022 0.009,0.016 0.019,0.029 0.032,0.041 l -0.001,0 c 0.07,0.066 0.191,0.101 0.296,0.123 0.002,10e-4 0.037,0.009 0.04,0.011 0.02,0.002 0.041,0.006 0.061,0.008 0.024,0.004 0.038,0.006 0.038,0.006 2.33,0.366 4.585,-0.063 6.601,-0.804 2.315,-0.944 5.01,-2.364 6.093,-4.89 0.027,-0.067 0.056,-0.147 0.082,-0.234 0.002,-0.009 0.005,-0.016 0.007,-0.024 0.005,-0.016 0.009,-0.033 0.013,-0.049 0.013,-0.049 0.025,-0.1 0.035,-0.151 0.002,-0.012 0.004,-0.023 0.006,-0.035 0.169,-0.885 -0.04,-1.859 -0.775,-2.464 -1.595,-1.276 -3.865,-1.388 -5.873,-1.013 l -0.053,2.848 c 10e-4,0.143 0.002,0.473 -0.002,0.625 -0.003,0.054 -0.002,0.029 0,0.081 0.264,0.007 0.341,0 0.429,-0.003 0.905,-0.041 2.183,-0.207 3.131,-0.677 0.015,-0.01 0.037,-0.03 0.038,-0.062 l 0,-0.002 c 0,-0.006 -10e-4,-0.013 -0.003,-0.018 -0.009,-0.058 -0.034,-0.112 -0.062,-0.157 l 0.002,0 c -0.002,-0.002 -0.003,-0.004 -0.004,-0.006 -0.011,-0.019 -0.023,-0.038 -0.035,-0.054 -0.074,-0.11 -0.121,-0.149 -0.136,-0.158 -0.168,-0.141 -0.414,-0.21 -0.414,-0.425 0.002,-0.016 0.005,-0.02 0.023,-0.03 0.193,-0.085 0.419,-0.124 0.632,-0.126 0.03,0 0.143,0.002 0.261,0.062 0.318,0.174 0.688,0.454 0.772,0.806 0.09,0.319 -0.016,0.59 -0.159,0.839 -0.089,0.149 -0.224,0.27 -0.294,0.326 -0.782,0.595 -1.733,0.824 -2.719,0.901 -0.589,0.052 -1.037,0.047 -1.292,0.036 l -0.078,0 -0.065,-0.004 c -0.003,0 -0.06,-0.006 -0.063,-0.006 l -0.04,1.624 c -0.057,0.413 -0.281,0.9 -0.713,1.051 -0.451,-0.825 -0.461,-2.654 -0.504,-2.798 -0.054,-0.01 -0.11,-0.023 -0.162,-0.035 -0.296,-0.053 -0.62,-0.123 -0.957,-0.216 -0.28,-0.069 -0.561,-0.149 -0.836,-0.254 -0.511,-0.202 -1.021,-0.455 -1.462,-0.88 -0.029,-0.032 -0.068,-0.076 -0.098,-0.121 -0.104,-0.164 -0.173,-0.377 -0.135,-0.581 0.004,-0.02 0.02,-0.075 0.051,-0.137 0.777,-1.327 2.185,-2.325 3.501,-2.938 0.095,-0.468 0.095,-0.974 0.395,-1.314 0.263,-0.074 0.554,-0.032 0.751,0.019 0.261,0.107 0.246,0.47 0.268,0.719 0.021,-0.002 0.02,-0.002 0.032,-0.006 2.287,-0.544 4.804,-0.336 6.644,1.015 1.148,0.862 1.712,2.134 1.481,3.524" />
    </g>
  </g>
</svg>
